<?xml version="1.0" encoding="utf-8" standalone="no"?>
<!DOCTYPE svg PUBLIC "-//W3C//DTD SVG 1.1//EN"
  "http://www.w3.org/Graphics/SVG/1.1/DTD/svg11.dtd">
<svg xmlns:xlink="http://www.w3.org/1999/xlink" width="460.8pt" height="345.6pt" viewBox="0 0 460.8 345.6" xmlns="http://www.w3.org/2000/svg" version="1.1">
 <metadata>
  <rdf:RDF xmlns:dc="http://purl.org/dc/elements/1.1/" xmlns:cc="http://creativecommons.org/ns#" xmlns:rdf="http://www.w3.org/1999/02/22-rdf-syntax-ns#">
   <cc:Work>
    <dc:type rdf:resource="http://purl.org/dc/dcmitype/StillImage"/>
    <dc:date>2024-04-23T11:13:05.522003</dc:date>
    <dc:format>image/svg+xml</dc:format>
    <dc:creator>
     <cc:Agent>
      <dc:title>Matplotlib v3.8.3, https://matplotlib.org/</dc:title>
     </cc:Agent>
    </dc:creator>
   </cc:Work>
  </rdf:RDF>
 </metadata>
 <defs>
  <style type="text/css">*{stroke-linejoin: round; stroke-linecap: butt}</style>
 </defs>
 <g id="figure_1">
  <g id="patch_1">
   <path d="M 0 345.6 
L 460.8 345.6 
L 460.8 0 
L 0 0 
z
" style="fill: #ffffff"/>
  </g>
  <g id="axes_1">
   <g id="patch_2">
    <path d="M 57.6 307.584 
L 414.72 307.584 
L 414.72 41.472 
L 57.6 41.472 
z
" style="fill: #ffffff"/>
   </g>
   <g id="PolyCollection_1">
    <defs>
     <path id="m2819e6457b" d="M 73.832727 -171.072 
L 73.832727 -171.072 
L 74.150083 -171.420933 
L 74.467438 -171.43357 
L 74.784793 -171.446527 
L 75.102149 -171.459578 
L 75.419504 -171.472979 
L 75.73686 -171.486624 
L 76.054215 -171.500788 
L 76.37157 -171.515279 
L 76.688926 -171.52981 
L 77.006281 -171.544346 
L 77.323636 -171.558988 
L 77.640992 -171.573736 
L 77.958347 -171.588608 
L 78.275702 -171.603228 
L 78.593058 -171.61751 
L 78.910413 -171.631409 
L 79.227769 -171.644889 
L 79.545124 -171.65808 
L 79.862479 -171.670738 
L 80.179835 -171.683313 
L 80.49719 -171.695445 
L 80.814545 -171.707752 
L 81.131901 -171.719996 
L 81.449256 -171.732244 
L 81.766612 -171.744451 
L 82.083967 -171.756676 
L 82.401322 -171.76884 
L 82.718678 -171.780951 
L 83.036033 -171.793059 
L 83.353388 -171.804707 
L 83.670744 -171.816014 
L 83.988099 -171.826826 
L 84.305455 -171.826882 
L 84.62281 -171.827648 
L 84.940165 -171.82898 
L 85.257521 -171.830709 
L 85.574876 -171.83294 
L 85.892231 -171.83535 
L 86.209587 -171.837727 
L 86.526942 -171.840152 
L 86.844298 -171.842532 
L 87.161653 -171.844774 
L 87.479008 -171.847052 
L 87.796364 -171.84976 
L 88.113719 -171.852575 
L 88.431074 -171.855568 
L 88.74843 -171.858521 
L 89.065785 -171.861142 
L 89.38314 -171.863575 
L 89.700496 -171.865672 
L 90.017851 -171.867599 
L 90.335207 -171.869353 
L 90.652562 -171.870754 
L 90.969917 -171.872298 
L 91.287273 -171.873986 
L 91.604628 -171.875678 
L 91.921983 -171.877178 
L 92.239339 -171.878296 
L 92.556694 -171.87868 
L 92.87405 -171.878817 
L 93.191405 -171.878834 
L 93.50876 -171.878662 
L 93.826116 -171.877747 
L 94.143471 -171.876444 
L 94.460826 -171.875827 
L 94.778182 -171.875219 
L 95.095537 -171.874387 
L 95.412893 -171.873853 
L 95.730248 -171.873422 
L 96.047603 -171.872534 
L 96.364959 -171.871348 
L 96.682314 -171.870095 
L 96.999669 -171.869101 
L 97.317025 -171.867898 
L 97.63438 -171.866534 
L 97.951736 -171.865014 
L 98.269091 -171.863406 
L 98.586446 -171.862081 
L 98.903802 -171.861021 
L 99.221157 -171.860148 
L 99.538512 -171.85956 
L 99.855868 -171.859536 
L 100.173223 -171.860753 
L 100.490579 -171.862448 
L 100.807934 -171.865239 
L 101.125289 -171.867673 
L 101.442645 -171.87055 
L 101.76 -171.872736 
L 102.077355 -171.874542 
L 102.394711 -171.876142 
L 102.712066 -171.878242 
L 103.029421 -171.88103 
L 103.346777 -171.883902 
L 103.664132 -171.887241 
L 103.981488 -171.890583 
L 104.298843 -171.894243 
L 104.616198 -171.897687 
L 104.933554 -171.898883 
L 105.250909 -171.8959 
L 105.568264 -171.89354 
L 105.88562 -171.891389 
L 106.202975 -171.802892 
L 106.520331 -171.715745 
L 106.837686 -171.642017 
L 107.155041 -171.524928 
L 107.472397 -171.344249 
L 107.789752 -171.140294 
L 108.107107 -170.912246 
L 108.424463 -170.720723 
L 108.741818 -170.565962 
L 109.059174 -170.464539 
L 109.376529 -170.41666 
L 109.693884 -170.383226 
L 110.01124 -170.385013 
L 110.328595 -170.40306 
L 110.64595 -170.460449 
L 110.963306 -170.55623 
L 111.280661 -170.713402 
L 111.598017 -170.941282 
L 111.915372 -171.242046 
L 112.232727 -171.616429 
L 112.550083 -172.058497 
L 112.867438 -172.534002 
L 113.184793 -173.031167 
L 113.502149 -173.547941 
L 113.819504 -174.084903 
L 114.13686 -174.671952 
L 114.454215 -175.311198 
L 114.77157 -175.992261 
L 115.088926 -176.73322 
L 115.406281 -177.542734 
L 115.723636 -178.42151 
L 116.040992 -179.364567 
L 116.358347 -180.362874 
L 116.675702 -181.421383 
L 116.993058 -182.538716 
L 117.310413 -183.728469 
L 117.627769 -184.986815 
L 117.945124 -186.328675 
L 118.262479 -187.76148 
L 118.579835 -189.290917 
L 118.89719 -190.920206 
L 119.214545 -192.641385 
L 119.531901 -194.463427 
L 119.849256 -196.365694 
L 120.166612 -198.335864 
L 120.483967 -200.365257 
L 120.801322 -202.43123 
L 121.118678 -204.517368 
L 121.436033 -206.6058 
L 121.753388 -208.68357 
L 122.070744 -210.767122 
L 122.388099 -212.850675 
L 122.705455 -214.925289 
L 123.02281 -216.98548 
L 123.340165 -219.047308 
L 123.657521 -221.110974 
L 123.974876 -223.157391 
L 124.292231 -225.18996 
L 124.609587 -227.210576 
L 124.926942 -229.247855 
L 125.244298 -231.291616 
L 125.561653 -233.349348 
L 125.879008 -235.41364 
L 126.196364 -237.470305 
L 126.513719 -239.685231 
L 126.831074 -241.892895 
L 127.14843 -244.06982 
L 127.465785 -246.326848 
L 127.78314 -248.717857 
L 128.100496 -251.163299 
L 128.417851 -253.660558 
L 128.735207 -256.103526 
L 129.052562 -258.504326 
L 129.369917 -260.813084 
L 129.687273 -263.006646 
L 130.004628 -265.180562 
L 130.321983 -267.304337 
L 130.639339 -269.42546 
L 130.956694 -271.490605 
L 131.27405 -273.504992 
L 131.591405 -275.417575 
L 131.90876 -277.200524 
L 132.226116 -278.839226 
L 132.543471 -280.327125 
L 132.860826 -281.672083 
L 133.178182 -282.941448 
L 133.495537 -284.152734 
L 133.812893 -285.309916 
L 134.130248 -286.419046 
L 134.447603 -287.425456 
L 134.764959 -288.313016 
L 135.082314 -289.098018 
L 135.399669 -289.769215 
L 135.717025 -290.325158 
L 136.03438 -290.788276 
L 136.351736 -291.168454 
L 136.669091 -291.493636 
L 136.986446 -291.74838 
L 137.303802 -291.924594 
L 137.621157 -292.014695 
L 137.938512 -292.032 
L 138.255868 -291.949353 
L 138.573223 -291.755121 
L 138.890579 -291.43365 
L 139.207934 -290.96725 
L 139.525289 -290.363273 
L 139.842645 -289.590776 
L 140.16 -288.683779 
L 140.477355 -287.651877 
L 140.794711 -286.492344 
L 141.112066 -285.24255 
L 141.429421 -283.91574 
L 141.746777 -282.543385 
L 142.064132 -281.151649 
L 142.381488 -279.725775 
L 142.698843 -278.282035 
L 143.016198 -276.859239 
L 143.333554 -275.484603 
L 143.650909 -274.132104 
L 143.968264 -272.791569 
L 144.28562 -271.502652 
L 144.602975 -270.273681 
L 144.920331 -269.098824 
L 145.237686 -267.912349 
L 145.555041 -266.72289 
L 145.872397 -265.530769 
L 146.189752 -264.327473 
L 146.507107 -263.132264 
L 146.824463 -261.872503 
L 147.141818 -260.611105 
L 147.459174 -259.349261 
L 147.776529 -258.025692 
L 148.093884 -256.603515 
L 148.41124 -255.12867 
L 148.728595 -253.606107 
L 149.04595 -252.088012 
L 149.363306 -250.547886 
L 149.680661 -249.052708 
L 149.998017 -247.65248 
L 150.315372 -246.281188 
L 150.632727 -244.936782 
L 150.950083 -243.581569 
L 151.267438 -242.253634 
L 151.584793 -240.945037 
L 151.902149 -239.679112 
L 152.219504 -238.47506 
L 152.53686 -237.34154 
L 152.854215 -236.272313 
L 153.17157 -235.254012 
L 153.488926 -234.252614 
L 153.806281 -233.252366 
L 154.123636 -232.263357 
L 154.440992 -231.291526 
L 154.758347 -230.371774 
L 155.075702 -229.523251 
L 155.393058 -228.753094 
L 155.710413 -228.04564 
L 156.027769 -227.403983 
L 156.345124 -226.783367 
L 156.662479 -226.173951 
L 156.979835 -225.543844 
L 157.29719 -224.920962 
L 157.614545 -224.334755 
L 157.931901 -223.765245 
L 158.249256 -223.201478 
L 158.566612 -222.652656 
L 158.883967 -222.115275 
L 159.201322 -221.594891 
L 159.518678 -221.104292 
L 159.836033 -220.635133 
L 160.153388 -220.199367 
L 160.470744 -219.782385 
L 160.788099 -219.395759 
L 161.105455 -219.056082 
L 161.42281 -218.741888 
L 161.740165 -218.474723 
L 162.057521 -218.258241 
L 162.374876 -218.084318 
L 162.692231 -217.94621 
L 163.009587 -217.838163 
L 163.326942 -217.719754 
L 163.644298 -217.555843 
L 163.961653 -217.349544 
L 164.279008 -217.119076 
L 164.596364 -216.837207 
L 164.913719 -216.492923 
L 165.231074 -216.093736 
L 165.54843 -215.674558 
L 165.865785 -215.255011 
L 166.18314 -214.808945 
L 166.500496 -214.339759 
L 166.817851 -213.839717 
L 167.135207 -213.298066 
L 167.452562 -212.752245 
L 167.769917 -212.203692 
L 168.087273 -211.66512 
L 168.404628 -211.147177 
L 168.721983 -210.651201 
L 169.039339 -210.207986 
L 169.356694 -209.804184 
L 169.67405 -209.461559 
L 169.991405 -209.130493 
L 170.30876 -208.763091 
L 170.626116 -208.375768 
L 170.943471 -207.972284 
L 171.260826 -207.565078 
L 171.578182 -207.141738 
L 171.895537 -206.685735 
L 172.212893 -206.216967 
L 172.530248 -205.719051 
L 172.847603 -205.210671 
L 173.164959 -204.701306 
L 173.482314 -204.207951 
L 173.799669 -203.729003 
L 174.117025 -203.292743 
L 174.43438 -202.89094 
L 174.751736 -202.501154 
L 175.069091 -202.109293 
L 175.386446 -201.725615 
L 175.703802 -201.334471 
L 176.021157 -200.962451 
L 176.338512 -200.581668 
L 176.655868 -200.205801 
L 176.973223 -199.840881 
L 177.290579 -199.5147 
L 177.607934 -199.193849 
L 177.925289 -198.858592 
L 178.242645 -198.520355 
L 178.56 -198.181518 
L 178.877355 -197.846267 
L 179.194711 -197.522485 
L 179.512066 -197.211098 
L 179.829421 -196.915118 
L 180.146777 -196.646065 
L 180.464132 -196.430191 
L 180.781488 -196.263676 
L 181.098843 -196.121239 
L 181.416198 -196.00626 
L 181.733554 -195.920823 
L 182.050909 -195.846867 
L 182.368264 -195.765543 
L 182.68562 -195.673033 
L 183.002975 -195.577575 
L 183.320331 -195.471737 
L 183.637686 -195.357232 
L 183.955041 -195.247245 
L 184.272397 -195.138466 
L 184.589752 -195.030254 
L 184.907107 -194.937777 
L 185.224463 -194.851505 
L 185.541818 -194.761379 
L 185.859174 -194.680305 
L 186.176529 -194.586927 
L 186.493884 -194.506197 
L 186.81124 -194.448401 
L 187.128595 -194.412264 
L 187.44595 -194.406048 
L 187.763306 -194.398338 
L 188.080661 -194.405067 
L 188.398017 -194.42484 
L 188.715372 -194.445366 
L 189.032727 -194.456975 
L 189.350083 -194.418056 
L 189.667438 -194.338296 
L 189.984793 -194.208595 
L 190.302149 -194.038901 
L 190.619504 -193.867438 
L 190.93686 -193.670587 
L 191.254215 -193.464376 
L 191.57157 -193.237479 
L 191.888926 -192.992248 
L 192.206281 -192.774267 
L 192.523636 -192.554855 
L 192.840992 -192.365846 
L 193.158347 -192.178751 
L 193.475702 -192.01045 
L 193.793058 -191.855657 
L 194.110413 -191.716622 
L 194.427769 -191.575968 
L 194.745124 -191.423758 
L 195.062479 -191.267217 
L 195.379835 -191.113834 
L 195.69719 -190.943333 
L 196.014545 -190.770383 
L 196.331901 -190.566371 
L 196.649256 -190.348411 
L 196.966612 -190.128217 
L 197.283967 -189.904495 
L 197.601322 -189.654178 
L 197.918678 -189.399335 
L 198.236033 -189.136861 
L 198.553388 -188.872283 
L 198.870744 -188.605689 
L 199.188099 -188.332054 
L 199.505455 -188.05333 
L 199.82281 -187.774968 
L 200.140165 -187.496548 
L 200.457521 -187.21748 
L 200.774876 -186.917251 
L 201.092231 -186.601032 
L 201.409587 -186.296206 
L 201.726942 -185.98351 
L 202.044298 -185.678445 
L 202.361653 -185.376345 
L 202.679008 -185.074799 
L 202.996364 -184.773287 
L 203.313719 -184.465781 
L 203.631074 -184.154011 
L 203.94843 -183.851098 
L 204.265785 -183.553643 
L 204.58314 -183.27988 
L 204.900496 -183.015904 
L 205.217851 -182.752129 
L 205.535207 -182.499337 
L 205.852562 -182.266122 
L 206.169917 -182.041728 
L 206.487273 -181.829406 
L 206.804628 -181.624583 
L 207.121983 -181.425216 
L 207.439339 -181.23149 
L 207.756694 -181.045493 
L 208.07405 -180.87128 
L 208.391405 -180.704135 
L 208.70876 -180.537742 
L 209.026116 -180.379075 
L 209.343471 -180.227592 
L 209.660826 -180.093316 
L 209.978182 -179.969213 
L 210.295537 -179.858778 
L 210.612893 -179.77031 
L 210.930248 -179.68232 
L 211.247603 -179.616741 
L 211.564959 -179.562282 
L 211.882314 -179.532018 
L 212.199669 -179.529191 
L 212.517025 -179.522933 
L 212.83438 -179.528009 
L 213.151736 -179.521208 
L 213.469091 -179.526015 
L 213.786446 -179.522919 
L 214.103802 -179.512683 
L 214.421157 -179.49773 
L 214.738512 -179.473301 
L 215.055868 -179.446864 
L 215.373223 -179.425528 
L 215.690579 -179.403838 
L 216.007934 -179.387003 
L 216.325289 -179.364325 
L 216.642645 -179.343549 
L 216.96 -179.325704 
L 217.277355 -179.305694 
L 217.594711 -179.286659 
L 217.912066 -179.27787 
L 218.229421 -179.272258 
L 218.546777 -179.272358 
L 218.864132 -179.272193 
L 219.181488 -179.275136 
L 219.498843 -179.280606 
L 219.816198 -179.285011 
L 220.133554 -179.286395 
L 220.450909 -179.280678 
L 220.768264 -179.272914 
L 221.08562 -179.264755 
L 221.402975 -179.259827 
L 221.720331 -179.240191 
L 222.037686 -179.214857 
L 222.355041 -179.175689 
L 222.672397 -179.123521 
L 222.989752 -179.065836 
L 223.307107 -178.996048 
L 223.624463 -178.921677 
L 223.941818 -178.842622 
L 224.259174 -178.755356 
L 224.576529 -178.660317 
L 224.893884 -178.55289 
L 225.21124 -178.437143 
L 225.528595 -178.315902 
L 225.84595 -178.186509 
L 226.163306 -178.048804 
L 226.480661 -177.902806 
L 226.798017 -177.748111 
L 227.115372 -177.585761 
L 227.432727 -177.413695 
L 227.750083 -177.238726 
L 228.067438 -177.051201 
L 228.384793 -176.85869 
L 228.702149 -176.657658 
L 229.019504 -176.451182 
L 229.33686 -176.233628 
L 229.654215 -176.012246 
L 229.97157 -175.783243 
L 230.288926 -175.554186 
L 230.606281 -175.320561 
L 230.923636 -175.081516 
L 231.240992 -174.848004 
L 231.558347 -174.610893 
L 231.875702 -174.376331 
L 232.193058 -174.132194 
L 232.510413 -173.880619 
L 232.827769 -173.627164 
L 233.145124 -173.371511 
L 233.462479 -173.125028 
L 233.779835 -172.874064 
L 234.09719 -172.626977 
L 234.414545 -172.383203 
L 234.731901 -172.141496 
L 235.049256 -171.904878 
L 235.366612 -171.668913 
L 235.683967 -171.430232 
L 236.001322 -171.19073 
L 236.318678 -170.95327 
L 236.636033 -170.713768 
L 236.953388 -170.475087 
L 237.270744 -170.239122 
L 237.588099 -170.002504 
L 237.905455 -169.760797 
L 238.22281 -169.517023 
L 238.540165 -169.269936 
L 238.857521 -169.018972 
L 239.174876 -168.772489 
L 239.492231 -168.516836 
L 239.809587 -168.263381 
L 240.126942 -168.011806 
L 240.444298 -167.767669 
L 240.761653 -167.533107 
L 241.079008 -167.295996 
L 241.396364 -167.062484 
L 241.713719 -166.823439 
L 242.031074 -166.589814 
L 242.34843 -166.360757 
L 242.665785 -166.131754 
L 242.98314 -165.910372 
L 243.300496 -165.692818 
L 243.617851 -165.486342 
L 243.935207 -165.28531 
L 244.252562 -165.092799 
L 244.569917 -164.905274 
L 244.887273 -164.730305 
L 245.204628 -164.558239 
L 245.521983 -164.395889 
L 245.839339 -164.241194 
L 246.156694 -164.095196 
L 246.47405 -163.957491 
L 246.791405 -163.828098 
L 247.10876 -163.706857 
L 247.426116 -163.59111 
L 247.743471 -163.483683 
L 248.060826 -163.388644 
L 248.378182 -163.301378 
L 248.695537 -163.222323 
L 249.012893 -163.147952 
L 249.330248 -163.078164 
L 249.647603 -163.020479 
L 249.964959 -162.968311 
L 250.282314 -162.929143 
L 250.599669 -162.903809 
L 250.917025 -162.884173 
L 251.23438 -162.879245 
L 251.551736 -162.871086 
L 251.869091 -162.863322 
L 252.186446 -162.857605 
L 252.503802 -162.858989 
L 252.821157 -162.863394 
L 253.138512 -162.868864 
L 253.455868 -162.871807 
L 253.773223 -162.871642 
L 254.090579 -162.871742 
L 254.407934 -162.86613 
L 254.725289 -162.857341 
L 255.042645 -162.838306 
L 255.36 -162.818296 
L 255.677355 -162.800451 
L 255.994711 -162.779675 
L 256.312066 -162.756997 
L 256.629421 -162.740162 
L 256.946777 -162.718472 
L 257.264132 -162.697136 
L 257.581488 -162.670699 
L 257.898843 -162.64627 
L 258.216198 -162.631317 
L 258.533554 -162.621081 
L 258.850909 -162.617985 
L 259.168264 -162.622792 
L 259.48562 -162.615991 
L 259.802975 -162.621067 
L 260.120331 -162.614809 
L 260.437686 -162.611982 
L 260.755041 -162.581718 
L 261.072397 -162.527259 
L 261.389752 -162.46168 
L 261.707107 -162.37369 
L 262.024463 -162.285222 
L 262.341818 -162.174787 
L 262.659174 -162.050684 
L 262.976529 -161.916408 
L 263.293884 -161.764925 
L 263.61124 -161.606258 
L 263.928595 -161.439865 
L 264.24595 -161.27272 
L 264.563306 -161.098507 
L 264.880661 -160.91251 
L 265.198017 -160.718784 
L 265.515372 -160.519417 
L 265.832727 -160.314594 
L 266.150083 -160.102272 
L 266.467438 -159.877878 
L 266.784793 -159.644663 
L 267.102149 -159.391871 
L 267.419504 -159.128096 
L 267.73686 -158.86412 
L 268.054215 -158.590357 
L 268.37157 -158.292902 
L 268.688926 -157.989989 
L 269.006281 -157.678219 
L 269.323636 -157.370713 
L 269.640992 -157.069201 
L 269.958347 -156.767655 
L 270.275702 -156.465555 
L 270.593058 -156.16049 
L 270.910413 -155.847794 
L 271.227769 -155.542968 
L 271.545124 -155.226749 
L 271.862479 -154.92652 
L 272.179835 -154.647452 
L 272.49719 -154.369032 
L 272.814545 -154.09067 
L 273.131901 -153.811946 
L 273.449256 -153.538311 
L 273.766612 -153.271717 
L 274.083967 -153.007139 
L 274.401322 -152.744665 
L 274.718678 -152.489822 
L 275.036033 -152.239505 
L 275.353388 -152.015783 
L 275.670744 -151.795589 
L 275.988099 -151.577629 
L 276.305455 -151.373617 
L 276.62281 -151.200667 
L 276.940165 -151.030166 
L 277.257521 -150.876783 
L 277.574876 -150.720242 
L 277.892231 -150.568032 
L 278.209587 -150.427378 
L 278.526942 -150.288343 
L 278.844298 -150.13355 
L 279.161653 -149.965249 
L 279.479008 -149.778154 
L 279.796364 -149.589145 
L 280.113719 -149.369733 
L 280.431074 -149.151752 
L 280.74843 -148.906521 
L 281.065785 -148.679624 
L 281.38314 -148.473413 
L 281.700496 -148.276562 
L 282.017851 -148.105099 
L 282.335207 -147.935405 
L 282.652562 -147.805704 
L 282.969917 -147.725944 
L 283.287273 -147.687025 
L 283.604628 -147.698634 
L 283.921983 -147.71916 
L 284.239339 -147.738933 
L 284.556694 -147.745662 
L 284.87405 -147.737952 
L 285.191405 -147.731736 
L 285.50876 -147.695599 
L 285.826116 -147.637803 
L 286.143471 -147.557073 
L 286.460826 -147.463695 
L 286.778182 -147.382621 
L 287.095537 -147.292495 
L 287.412893 -147.206223 
L 287.730248 -147.113746 
L 288.047603 -147.005534 
L 288.364959 -146.896755 
L 288.682314 -146.786768 
L 288.999669 -146.672263 
L 289.317025 -146.566425 
L 289.63438 -146.470967 
L 289.951736 -146.378457 
L 290.269091 -146.297133 
L 290.586446 -146.223177 
L 290.903802 -146.13774 
L 291.221157 -146.022761 
L 291.538512 -145.880324 
L 291.855868 -145.713809 
L 292.173223 -145.497935 
L 292.490579 -145.228882 
L 292.807934 -144.932902 
L 293.125289 -144.621515 
L 293.442645 -144.297733 
L 293.76 -143.962482 
L 294.077355 -143.623645 
L 294.394711 -143.285408 
L 294.712066 -142.950151 
L 295.029421 -142.6293 
L 295.346777 -142.303119 
L 295.664132 -141.938199 
L 295.981488 -141.562332 
L 296.298843 -141.181549 
L 296.616198 -140.809529 
L 296.933554 -140.418385 
L 297.250909 -140.034707 
L 297.568264 -139.642846 
L 297.88562 -139.25306 
L 298.202975 -138.851257 
L 298.520331 -138.414997 
L 298.837686 -137.936049 
L 299.155041 -137.442694 
L 299.472397 -136.933329 
L 299.789752 -136.424949 
L 300.107107 -135.927033 
L 300.424463 -135.458265 
L 300.741818 -135.002262 
L 301.059174 -134.578922 
L 301.376529 -134.171716 
L 301.693884 -133.768232 
L 302.01124 -133.380909 
L 302.328595 -133.013507 
L 302.64595 -132.682441 
L 302.963306 -132.339816 
L 303.280661 -131.936014 
L 303.598017 -131.492799 
L 303.915372 -130.996823 
L 304.232727 -130.47888 
L 304.550083 -129.940308 
L 304.867438 -129.391755 
L 305.184793 -128.845934 
L 305.502149 -128.304283 
L 305.819504 -127.804241 
L 306.13686 -127.335055 
L 306.454215 -126.888989 
L 306.77157 -126.469442 
L 307.088926 -126.050264 
L 307.406281 -125.651077 
L 307.723636 -125.306793 
L 308.040992 -125.024924 
L 308.358347 -124.794456 
L 308.675702 -124.588157 
L 308.993058 -124.424246 
L 309.310413 -124.305837 
L 309.627769 -124.19779 
L 309.945124 -124.059682 
L 310.262479 -123.885759 
L 310.579835 -123.669277 
L 310.89719 -123.402112 
L 311.214545 -123.087918 
L 311.531901 -122.748241 
L 311.849256 -122.361615 
L 312.166612 -121.944633 
L 312.483967 -121.508867 
L 312.801322 -121.039708 
L 313.118678 -120.549109 
L 313.436033 -120.028725 
L 313.753388 -119.491344 
L 314.070744 -118.942522 
L 314.388099 -118.378755 
L 314.705455 -117.809245 
L 315.02281 -117.223038 
L 315.340165 -116.600156 
L 315.657521 -115.970049 
L 315.974876 -115.360633 
L 316.292231 -114.740017 
L 316.609587 -114.09836 
L 316.926942 -113.390906 
L 317.244298 -112.620749 
L 317.561653 -111.772226 
L 317.879008 -110.852474 
L 318.196364 -109.880643 
L 318.513719 -108.891634 
L 318.831074 -107.891386 
L 319.14843 -106.889988 
L 319.465785 -105.871687 
L 319.78314 -104.80246 
L 320.100496 -103.66894 
L 320.417851 -102.464888 
L 320.735207 -101.198963 
L 321.052562 -99.890366 
L 321.369917 -98.562431 
L 321.687273 -97.207218 
L 322.004628 -95.862812 
L 322.321983 -94.49152 
L 322.639339 -93.091292 
L 322.956694 -91.596114 
L 323.27405 -90.055988 
L 323.591405 -88.537893 
L 323.90876 -87.01533 
L 324.226116 -85.540485 
L 324.543471 -84.118308 
L 324.860826 -82.794739 
L 325.178182 -81.532895 
L 325.495537 -80.271497 
L 325.812893 -79.011736 
L 326.130248 -77.816527 
L 326.447603 -76.613231 
L 326.764959 -75.42111 
L 327.082314 -74.231651 
L 327.399669 -73.045176 
L 327.717025 -71.870319 
L 328.03438 -70.641348 
L 328.351736 -69.352431 
L 328.669091 -68.011896 
L 328.986446 -66.659397 
L 329.303802 -65.284761 
L 329.621157 -63.861965 
L 329.938512 -62.418225 
L 330.255868 -60.992351 
L 330.573223 -59.600615 
L 330.890579 -58.22826 
L 331.207934 -56.90145 
L 331.525289 -55.651656 
L 331.842645 -54.492123 
L 332.16 -53.460221 
L 332.477355 -52.553224 
L 332.794711 -51.780727 
L 333.112066 -51.17675 
L 333.429421 -50.71035 
L 333.746777 -50.388879 
L 334.064132 -50.194647 
L 334.381488 -50.112 
L 334.698843 -50.129305 
L 335.016198 -50.219406 
L 335.333554 -50.39562 
L 335.650909 -50.650364 
L 335.968264 -50.975546 
L 336.28562 -51.355724 
L 336.602975 -51.818842 
L 336.920331 -52.374785 
L 337.237686 -53.045982 
L 337.555041 -53.830984 
L 337.872397 -54.718544 
L 338.189752 -55.724954 
L 338.507107 -56.834084 
L 338.824463 -57.991266 
L 339.141818 -59.202552 
L 339.459174 -60.471917 
L 339.776529 -61.816875 
L 340.093884 -63.304774 
L 340.41124 -64.943476 
L 340.728595 -66.726425 
L 341.04595 -68.639008 
L 341.363306 -70.653395 
L 341.680661 -72.71854 
L 341.998017 -74.839663 
L 342.315372 -76.963438 
L 342.632727 -79.137354 
L 342.950083 -81.330916 
L 343.267438 -83.639674 
L 343.584793 -86.040474 
L 343.902149 -88.483442 
L 344.219504 -90.980701 
L 344.53686 -93.426143 
L 344.854215 -95.817152 
L 345.17157 -98.07418 
L 345.488926 -100.251105 
L 345.806281 -102.458769 
L 346.123636 -104.673695 
L 346.440992 -106.73036 
L 346.758347 -108.794652 
L 347.075702 -110.852384 
L 347.393058 -112.896145 
L 347.710413 -114.933424 
L 348.027769 -116.95404 
L 348.345124 -118.986609 
L 348.662479 -121.033026 
L 348.979835 -123.096692 
L 349.29719 -125.15852 
L 349.614545 -127.218711 
L 349.931901 -129.293325 
L 350.249256 -131.376878 
L 350.566612 -133.46043 
L 350.883967 -135.5382 
L 351.201322 -137.626632 
L 351.518678 -139.71277 
L 351.836033 -141.778743 
L 352.153388 -143.808136 
L 352.470744 -145.778306 
L 352.788099 -147.680573 
L 353.105455 -149.502615 
L 353.42281 -151.223794 
L 353.740165 -152.853083 
L 354.057521 -154.38252 
L 354.374876 -155.815325 
L 354.692231 -157.157185 
L 355.009587 -158.415531 
L 355.326942 -159.605284 
L 355.644298 -160.722617 
L 355.961653 -161.781126 
L 356.279008 -162.779433 
L 356.596364 -163.72249 
L 356.913719 -164.601266 
L 357.231074 -165.41078 
L 357.54843 -166.151739 
L 357.865785 -166.832802 
L 358.18314 -167.472048 
L 358.500496 -168.059097 
L 358.817851 -168.596059 
L 359.135207 -169.112833 
L 359.452562 -169.609998 
L 359.769917 -170.085503 
L 360.087273 -170.527571 
L 360.404628 -170.901954 
L 360.721983 -171.202718 
L 361.039339 -171.430598 
L 361.356694 -171.58777 
L 361.67405 -171.683551 
L 361.991405 -171.74094 
L 362.30876 -171.758987 
L 362.626116 -171.760774 
L 362.943471 -171.72734 
L 363.260826 -171.679461 
L 363.578182 -171.578038 
L 363.895537 -171.423277 
L 364.212893 -171.231754 
L 364.530248 -171.003706 
L 364.847603 -170.799751 
L 365.164959 -170.619072 
L 365.482314 -170.501983 
L 365.799669 -170.428255 
L 366.117025 -170.341108 
L 366.43438 -170.252611 
L 366.751736 -170.25046 
L 367.069091 -170.2481 
L 367.386446 -170.245117 
L 367.703802 -170.246313 
L 368.021157 -170.249757 
L 368.338512 -170.253417 
L 368.655868 -170.256759 
L 368.973223 -170.260098 
L 369.290579 -170.26297 
L 369.607934 -170.265758 
L 369.925289 -170.267858 
L 370.242645 -170.269458 
L 370.56 -170.271264 
L 370.877355 -170.27345 
L 371.194711 -170.276327 
L 371.512066 -170.278761 
L 371.829421 -170.281552 
L 372.146777 -170.283247 
L 372.464132 -170.284464 
L 372.781488 -170.28444 
L 373.098843 -170.283852 
L 373.416198 -170.282979 
L 373.733554 -170.281919 
L 374.050909 -170.280594 
L 374.368264 -170.278986 
L 374.68562 -170.277466 
L 375.002975 -170.276102 
L 375.320331 -170.274899 
L 375.637686 -170.273905 
L 375.955041 -170.272652 
L 376.272397 -170.271466 
L 376.589752 -170.270578 
L 376.907107 -170.270147 
L 377.224463 -170.269613 
L 377.541818 -170.268781 
L 377.859174 -170.268173 
L 378.176529 -170.267556 
L 378.493884 -170.266147 
L 378.81124 -170.265018 
L 379.128595 -170.264628 
L 379.44595 -170.264426 
L 379.763306 -170.264344 
L 380.080661 -170.264511 
L 380.398017 -170.265413 
L 380.715372 -170.266702 
L 381.032727 -170.268188 
L 381.350083 -170.269676 
L 381.667438 -170.271029 
L 381.984793 -170.272248 
L 382.302149 -170.27383 
L 382.619504 -170.275598 
L 382.93686 -170.277548 
L 383.254215 -170.279849 
L 383.57157 -170.282354 
L 383.888926 -170.285209 
L 384.206281 -170.288122 
L 384.523636 -170.290878 
L 384.840992 -170.293547 
L 385.158347 -170.295809 
L 385.475702 -170.298059 
L 385.793058 -170.300473 
L 386.110413 -170.302957 
L 386.427769 -170.305422 
L 386.745124 -170.30795 
L 387.062479 -170.310329 
L 387.379835 -170.312239 
L 387.69719 -170.313784 
L 388.014545 -170.314799 
L 388.331901 -170.315139 
L 388.649256 -170.315115 
L 388.966612 -170.326422 
L 389.283967 -170.33807 
L 389.601322 -170.350178 
L 389.918678 -170.362289 
L 390.236033 -170.374453 
L 390.553388 -170.386678 
L 390.870744 -170.398885 
L 391.188099 -170.411133 
L 391.505455 -170.423377 
L 391.82281 -170.435684 
L 392.140165 -170.447816 
L 392.457521 -170.460391 
L 392.774876 -170.473049 
L 393.092231 -170.48624 
L 393.409587 -170.49972 
L 393.726942 -170.513619 
L 394.044298 -170.527901 
L 394.361653 -170.542521 
L 394.679008 -170.557393 
L 394.996364 -170.572141 
L 395.313719 -170.586783 
L 395.631074 -170.601319 
L 395.94843 -170.61585 
L 396.265785 -170.630341 
L 396.58314 -170.644506 
L 396.900496 -170.65815 
L 397.217851 -170.671551 
L 397.535207 -170.684602 
L 397.852562 -170.697559 
L 398.169917 -170.710196 
L 398.487273 -171.072 
L 398.487273 -171.072 
L 398.487273 -171.072 
L 398.169917 -171.072 
L 397.852562 -171.072 
L 397.535207 -171.072 
L 397.217851 -171.072 
L 396.900496 -171.072 
L 396.58314 -171.072 
L 396.265785 -171.072 
L 395.94843 -171.072 
L 395.631074 -171.072 
L 395.313719 -171.072 
L 394.996364 -171.072 
L 394.679008 -171.072 
L 394.361653 -171.072 
L 394.044298 -171.072 
L 393.726942 -171.072 
L 393.409587 -171.072 
L 393.092231 -171.072 
L 392.774876 -171.072 
L 392.457521 -171.072 
L 392.140165 -171.072 
L 391.82281 -171.072 
L 391.505455 -171.072 
L 391.188099 -171.072 
L 390.870744 -171.072 
L 390.553388 -171.072 
L 390.236033 -171.072 
L 389.918678 -171.072 
L 389.601322 -171.072 
L 389.283967 -171.072 
L 388.966612 -171.072 
L 388.649256 -171.072 
L 388.331901 -171.072 
L 388.014545 -171.072 
L 387.69719 -171.072 
L 387.379835 -171.072 
L 387.062479 -171.072 
L 386.745124 -171.072 
L 386.427769 -171.072 
L 386.110413 -171.072 
L 385.793058 -171.072 
L 385.475702 -171.072 
L 385.158347 -171.072 
L 384.840992 -171.072 
L 384.523636 -171.072 
L 384.206281 -171.072 
L 383.888926 -171.072 
L 383.57157 -171.072 
L 383.254215 -171.072 
L 382.93686 -171.072 
L 382.619504 -171.072 
L 382.302149 -171.072 
L 381.984793 -171.072 
L 381.667438 -171.072 
L 381.350083 -171.072 
L 381.032727 -171.072 
L 380.715372 -171.072 
L 380.398017 -171.072 
L 380.080661 -171.072 
L 379.763306 -171.072 
L 379.44595 -171.072 
L 379.128595 -171.072 
L 378.81124 -171.072 
L 378.493884 -171.072 
L 378.176529 -171.072 
L 377.859174 -171.072 
L 377.541818 -171.072 
L 377.224463 -171.072 
L 376.907107 -171.072 
L 376.589752 -171.072 
L 376.272397 -171.072 
L 375.955041 -171.072 
L 375.637686 -171.072 
L 375.320331 -171.072 
L 375.002975 -171.072 
L 374.68562 -171.072 
L 374.368264 -171.072 
L 374.050909 -171.072 
L 373.733554 -171.072 
L 373.416198 -171.072 
L 373.098843 -171.072 
L 372.781488 -171.072 
L 372.464132 -171.072 
L 372.146777 -171.072 
L 371.829421 -171.072 
L 371.512066 -171.072 
L 371.194711 -171.072 
L 370.877355 -171.072 
L 370.56 -171.072 
L 370.242645 -171.072 
L 369.925289 -171.072 
L 369.607934 -171.072 
L 369.290579 -171.072 
L 368.973223 -171.072 
L 368.655868 -171.072 
L 368.338512 -171.072 
L 368.021157 -171.072 
L 367.703802 -171.072 
L 367.386446 -171.072 
L 367.069091 -171.072 
L 366.751736 -171.072 
L 366.43438 -171.072 
L 366.117025 -171.072 
L 365.799669 -171.072 
L 365.482314 -171.072 
L 365.164959 -171.072 
L 364.847603 -171.072 
L 364.530248 -171.072 
L 364.212893 -171.072 
L 363.895537 -171.072 
L 363.578182 -171.072 
L 363.260826 -171.072 
L 362.943471 -171.072 
L 362.626116 -171.072 
L 362.30876 -171.072 
L 361.991405 -171.072 
L 361.67405 -171.072 
L 361.356694 -171.072 
L 361.039339 -171.072 
L 360.721983 -171.072 
L 360.404628 -171.072 
L 360.087273 -171.072 
L 359.769917 -171.072 
L 359.452562 -171.072 
L 359.135207 -171.072 
L 358.817851 -171.072 
L 358.500496 -171.072 
L 358.18314 -171.072 
L 357.865785 -171.072 
L 357.54843 -171.072 
L 357.231074 -171.072 
L 356.913719 -171.072 
L 356.596364 -171.072 
L 356.279008 -171.072 
L 355.961653 -171.072 
L 355.644298 -171.072 
L 355.326942 -171.072 
L 355.009587 -171.072 
L 354.692231 -171.072 
L 354.374876 -171.072 
L 354.057521 -171.072 
L 353.740165 -171.072 
L 353.42281 -171.072 
L 353.105455 -171.072 
L 352.788099 -171.072 
L 352.470744 -171.072 
L 352.153388 -171.072 
L 351.836033 -171.072 
L 351.518678 -171.072 
L 351.201322 -171.072 
L 350.883967 -171.072 
L 350.566612 -171.072 
L 350.249256 -171.072 
L 349.931901 -171.072 
L 349.614545 -171.072 
L 349.29719 -171.072 
L 348.979835 -171.072 
L 348.662479 -171.072 
L 348.345124 -171.072 
L 348.027769 -171.072 
L 347.710413 -171.072 
L 347.393058 -171.072 
L 347.075702 -171.072 
L 346.758347 -171.072 
L 346.440992 -171.072 
L 346.123636 -171.072 
L 345.806281 -171.072 
L 345.488926 -171.072 
L 345.17157 -171.072 
L 344.854215 -171.072 
L 344.53686 -171.072 
L 344.219504 -171.072 
L 343.902149 -171.072 
L 343.584793 -171.072 
L 343.267438 -171.072 
L 342.950083 -171.072 
L 342.632727 -171.072 
L 342.315372 -171.072 
L 341.998017 -171.072 
L 341.680661 -171.072 
L 341.363306 -171.072 
L 341.04595 -171.072 
L 340.728595 -171.072 
L 340.41124 -171.072 
L 340.093884 -171.072 
L 339.776529 -171.072 
L 339.459174 -171.072 
L 339.141818 -171.072 
L 338.824463 -171.072 
L 338.507107 -171.072 
L 338.189752 -171.072 
L 337.872397 -171.072 
L 337.555041 -171.072 
L 337.237686 -171.072 
L 336.920331 -171.072 
L 336.602975 -171.072 
L 336.28562 -171.072 
L 335.968264 -171.072 
L 335.650909 -171.072 
L 335.333554 -171.072 
L 335.016198 -171.072 
L 334.698843 -171.072 
L 334.381488 -171.072 
L 334.064132 -171.072 
L 333.746777 -171.072 
L 333.429421 -171.072 
L 333.112066 -171.072 
L 332.794711 -171.072 
L 332.477355 -171.072 
L 332.16 -171.072 
L 331.842645 -171.072 
L 331.525289 -171.072 
L 331.207934 -171.072 
L 330.890579 -171.072 
L 330.573223 -171.072 
L 330.255868 -171.072 
L 329.938512 -171.072 
L 329.621157 -171.072 
L 329.303802 -171.072 
L 328.986446 -171.072 
L 328.669091 -171.072 
L 328.351736 -171.072 
L 328.03438 -171.072 
L 327.717025 -171.072 
L 327.399669 -171.072 
L 327.082314 -171.072 
L 326.764959 -171.072 
L 326.447603 -171.072 
L 326.130248 -171.072 
L 325.812893 -171.072 
L 325.495537 -171.072 
L 325.178182 -171.072 
L 324.860826 -171.072 
L 324.543471 -171.072 
L 324.226116 -171.072 
L 323.90876 -171.072 
L 323.591405 -171.072 
L 323.27405 -171.072 
L 322.956694 -171.072 
L 322.639339 -171.072 
L 322.321983 -171.072 
L 322.004628 -171.072 
L 321.687273 -171.072 
L 321.369917 -171.072 
L 321.052562 -171.072 
L 320.735207 -171.072 
L 320.417851 -171.072 
L 320.100496 -171.072 
L 319.78314 -171.072 
L 319.465785 -171.072 
L 319.14843 -171.072 
L 318.831074 -171.072 
L 318.513719 -171.072 
L 318.196364 -171.072 
L 317.879008 -171.072 
L 317.561653 -171.072 
L 317.244298 -171.072 
L 316.926942 -171.072 
L 316.609587 -171.072 
L 316.292231 -171.072 
L 315.974876 -171.072 
L 315.657521 -171.072 
L 315.340165 -171.072 
L 315.02281 -171.072 
L 314.705455 -171.072 
L 314.388099 -171.072 
L 314.070744 -171.072 
L 313.753388 -171.072 
L 313.436033 -171.072 
L 313.118678 -171.072 
L 312.801322 -171.072 
L 312.483967 -171.072 
L 312.166612 -171.072 
L 311.849256 -171.072 
L 311.531901 -171.072 
L 311.214545 -171.072 
L 310.89719 -171.072 
L 310.579835 -171.072 
L 310.262479 -171.072 
L 309.945124 -171.072 
L 309.627769 -171.072 
L 309.310413 -171.072 
L 308.993058 -171.072 
L 308.675702 -171.072 
L 308.358347 -171.072 
L 308.040992 -171.072 
L 307.723636 -171.072 
L 307.406281 -171.072 
L 307.088926 -171.072 
L 306.77157 -171.072 
L 306.454215 -171.072 
L 306.13686 -171.072 
L 305.819504 -171.072 
L 305.502149 -171.072 
L 305.184793 -171.072 
L 304.867438 -171.072 
L 304.550083 -171.072 
L 304.232727 -171.072 
L 303.915372 -171.072 
L 303.598017 -171.072 
L 303.280661 -171.072 
L 302.963306 -171.072 
L 302.64595 -171.072 
L 302.328595 -171.072 
L 302.01124 -171.072 
L 301.693884 -171.072 
L 301.376529 -171.072 
L 301.059174 -171.072 
L 300.741818 -171.072 
L 300.424463 -171.072 
L 300.107107 -171.072 
L 299.789752 -171.072 
L 299.472397 -171.072 
L 299.155041 -171.072 
L 298.837686 -171.072 
L 298.520331 -171.072 
L 298.202975 -171.072 
L 297.88562 -171.072 
L 297.568264 -171.072 
L 297.250909 -171.072 
L 296.933554 -171.072 
L 296.616198 -171.072 
L 296.298843 -171.072 
L 295.981488 -171.072 
L 295.664132 -171.072 
L 295.346777 -171.072 
L 295.029421 -171.072 
L 294.712066 -171.072 
L 294.394711 -171.072 
L 294.077355 -171.072 
L 293.76 -171.072 
L 293.442645 -171.072 
L 293.125289 -171.072 
L 292.807934 -171.072 
L 292.490579 -171.072 
L 292.173223 -171.072 
L 291.855868 -171.072 
L 291.538512 -171.072 
L 291.221157 -171.072 
L 290.903802 -171.072 
L 290.586446 -171.072 
L 290.269091 -171.072 
L 289.951736 -171.072 
L 289.63438 -171.072 
L 289.317025 -171.072 
L 288.999669 -171.072 
L 288.682314 -171.072 
L 288.364959 -171.072 
L 288.047603 -171.072 
L 287.730248 -171.072 
L 287.412893 -171.072 
L 287.095537 -171.072 
L 286.778182 -171.072 
L 286.460826 -171.072 
L 286.143471 -171.072 
L 285.826116 -171.072 
L 285.50876 -171.072 
L 285.191405 -171.072 
L 284.87405 -171.072 
L 284.556694 -171.072 
L 284.239339 -171.072 
L 283.921983 -171.072 
L 283.604628 -171.072 
L 283.287273 -171.072 
L 282.969917 -171.072 
L 282.652562 -171.072 
L 282.335207 -171.072 
L 282.017851 -171.072 
L 281.700496 -171.072 
L 281.38314 -171.072 
L 281.065785 -171.072 
L 280.74843 -171.072 
L 280.431074 -171.072 
L 280.113719 -171.072 
L 279.796364 -171.072 
L 279.479008 -171.072 
L 279.161653 -171.072 
L 278.844298 -171.072 
L 278.526942 -171.072 
L 278.209587 -171.072 
L 277.892231 -171.072 
L 277.574876 -171.072 
L 277.257521 -171.072 
L 276.940165 -171.072 
L 276.62281 -171.072 
L 276.305455 -171.072 
L 275.988099 -171.072 
L 275.670744 -171.072 
L 275.353388 -171.072 
L 275.036033 -171.072 
L 274.718678 -171.072 
L 274.401322 -171.072 
L 274.083967 -171.072 
L 273.766612 -171.072 
L 273.449256 -171.072 
L 273.131901 -171.072 
L 272.814545 -171.072 
L 272.49719 -171.072 
L 272.179835 -171.072 
L 271.862479 -171.072 
L 271.545124 -171.072 
L 271.227769 -171.072 
L 270.910413 -171.072 
L 270.593058 -171.072 
L 270.275702 -171.072 
L 269.958347 -171.072 
L 269.640992 -171.072 
L 269.323636 -171.072 
L 269.006281 -171.072 
L 268.688926 -171.072 
L 268.37157 -171.072 
L 268.054215 -171.072 
L 267.73686 -171.072 
L 267.419504 -171.072 
L 267.102149 -171.072 
L 266.784793 -171.072 
L 266.467438 -171.072 
L 266.150083 -171.072 
L 265.832727 -171.072 
L 265.515372 -171.072 
L 265.198017 -171.072 
L 264.880661 -171.072 
L 264.563306 -171.072 
L 264.24595 -171.072 
L 263.928595 -171.072 
L 263.61124 -171.072 
L 263.293884 -171.072 
L 262.976529 -171.072 
L 262.659174 -171.072 
L 262.341818 -171.072 
L 262.024463 -171.072 
L 261.707107 -171.072 
L 261.389752 -171.072 
L 261.072397 -171.072 
L 260.755041 -171.072 
L 260.437686 -171.072 
L 260.120331 -171.072 
L 259.802975 -171.072 
L 259.48562 -171.072 
L 259.168264 -171.072 
L 258.850909 -171.072 
L 258.533554 -171.072 
L 258.216198 -171.072 
L 257.898843 -171.072 
L 257.581488 -171.072 
L 257.264132 -171.072 
L 256.946777 -171.072 
L 256.629421 -171.072 
L 256.312066 -171.072 
L 255.994711 -171.072 
L 255.677355 -171.072 
L 255.36 -171.072 
L 255.042645 -171.072 
L 254.725289 -171.072 
L 254.407934 -171.072 
L 254.090579 -171.072 
L 253.773223 -171.072 
L 253.455868 -171.072 
L 253.138512 -171.072 
L 252.821157 -171.072 
L 252.503802 -171.072 
L 252.186446 -171.072 
L 251.869091 -171.072 
L 251.551736 -171.072 
L 251.23438 -171.072 
L 250.917025 -171.072 
L 250.599669 -171.072 
L 250.282314 -171.072 
L 249.964959 -171.072 
L 249.647603 -171.072 
L 249.330248 -171.072 
L 249.012893 -171.072 
L 248.695537 -171.072 
L 248.378182 -171.072 
L 248.060826 -171.072 
L 247.743471 -171.072 
L 247.426116 -171.072 
L 247.10876 -171.072 
L 246.791405 -171.072 
L 246.47405 -171.072 
L 246.156694 -171.072 
L 245.839339 -171.072 
L 245.521983 -171.072 
L 245.204628 -171.072 
L 244.887273 -171.072 
L 244.569917 -171.072 
L 244.252562 -171.072 
L 243.935207 -171.072 
L 243.617851 -171.072 
L 243.300496 -171.072 
L 242.98314 -171.072 
L 242.665785 -171.072 
L 242.34843 -171.072 
L 242.031074 -171.072 
L 241.713719 -171.072 
L 241.396364 -171.072 
L 241.079008 -171.072 
L 240.761653 -171.072 
L 240.444298 -171.072 
L 240.126942 -171.072 
L 239.809587 -171.072 
L 239.492231 -171.072 
L 239.174876 -171.072 
L 238.857521 -171.072 
L 238.540165 -171.072 
L 238.22281 -171.072 
L 237.905455 -171.072 
L 237.588099 -171.072 
L 237.270744 -171.072 
L 236.953388 -171.072 
L 236.636033 -171.072 
L 236.318678 -171.072 
L 236.001322 -171.072 
L 235.683967 -171.072 
L 235.366612 -171.072 
L 235.049256 -171.072 
L 234.731901 -171.072 
L 234.414545 -171.072 
L 234.09719 -171.072 
L 233.779835 -171.072 
L 233.462479 -171.072 
L 233.145124 -171.072 
L 232.827769 -171.072 
L 232.510413 -171.072 
L 232.193058 -171.072 
L 231.875702 -171.072 
L 231.558347 -171.072 
L 231.240992 -171.072 
L 230.923636 -171.072 
L 230.606281 -171.072 
L 230.288926 -171.072 
L 229.97157 -171.072 
L 229.654215 -171.072 
L 229.33686 -171.072 
L 229.019504 -171.072 
L 228.702149 -171.072 
L 228.384793 -171.072 
L 228.067438 -171.072 
L 227.750083 -171.072 
L 227.432727 -171.072 
L 227.115372 -171.072 
L 226.798017 -171.072 
L 226.480661 -171.072 
L 226.163306 -171.072 
L 225.84595 -171.072 
L 225.528595 -171.072 
L 225.21124 -171.072 
L 224.893884 -171.072 
L 224.576529 -171.072 
L 224.259174 -171.072 
L 223.941818 -171.072 
L 223.624463 -171.072 
L 223.307107 -171.072 
L 222.989752 -171.072 
L 222.672397 -171.072 
L 222.355041 -171.072 
L 222.037686 -171.072 
L 221.720331 -171.072 
L 221.402975 -171.072 
L 221.08562 -171.072 
L 220.768264 -171.072 
L 220.450909 -171.072 
L 220.133554 -171.072 
L 219.816198 -171.072 
L 219.498843 -171.072 
L 219.181488 -171.072 
L 218.864132 -171.072 
L 218.546777 -171.072 
L 218.229421 -171.072 
L 217.912066 -171.072 
L 217.594711 -171.072 
L 217.277355 -171.072 
L 216.96 -171.072 
L 216.642645 -171.072 
L 216.325289 -171.072 
L 216.007934 -171.072 
L 215.690579 -171.072 
L 215.373223 -171.072 
L 215.055868 -171.072 
L 214.738512 -171.072 
L 214.421157 -171.072 
L 214.103802 -171.072 
L 213.786446 -171.072 
L 213.469091 -171.072 
L 213.151736 -171.072 
L 212.83438 -171.072 
L 212.517025 -171.072 
L 212.199669 -171.072 
L 211.882314 -171.072 
L 211.564959 -171.072 
L 211.247603 -171.072 
L 210.930248 -171.072 
L 210.612893 -171.072 
L 210.295537 -171.072 
L 209.978182 -171.072 
L 209.660826 -171.072 
L 209.343471 -171.072 
L 209.026116 -171.072 
L 208.70876 -171.072 
L 208.391405 -171.072 
L 208.07405 -171.072 
L 207.756694 -171.072 
L 207.439339 -171.072 
L 207.121983 -171.072 
L 206.804628 -171.072 
L 206.487273 -171.072 
L 206.169917 -171.072 
L 205.852562 -171.072 
L 205.535207 -171.072 
L 205.217851 -171.072 
L 204.900496 -171.072 
L 204.58314 -171.072 
L 204.265785 -171.072 
L 203.94843 -171.072 
L 203.631074 -171.072 
L 203.313719 -171.072 
L 202.996364 -171.072 
L 202.679008 -171.072 
L 202.361653 -171.072 
L 202.044298 -171.072 
L 201.726942 -171.072 
L 201.409587 -171.072 
L 201.092231 -171.072 
L 200.774876 -171.072 
L 200.457521 -171.072 
L 200.140165 -171.072 
L 199.82281 -171.072 
L 199.505455 -171.072 
L 199.188099 -171.072 
L 198.870744 -171.072 
L 198.553388 -171.072 
L 198.236033 -171.072 
L 197.918678 -171.072 
L 197.601322 -171.072 
L 197.283967 -171.072 
L 196.966612 -171.072 
L 196.649256 -171.072 
L 196.331901 -171.072 
L 196.014545 -171.072 
L 195.69719 -171.072 
L 195.379835 -171.072 
L 195.062479 -171.072 
L 194.745124 -171.072 
L 194.427769 -171.072 
L 194.110413 -171.072 
L 193.793058 -171.072 
L 193.475702 -171.072 
L 193.158347 -171.072 
L 192.840992 -171.072 
L 192.523636 -171.072 
L 192.206281 -171.072 
L 191.888926 -171.072 
L 191.57157 -171.072 
L 191.254215 -171.072 
L 190.93686 -171.072 
L 190.619504 -171.072 
L 190.302149 -171.072 
L 189.984793 -171.072 
L 189.667438 -171.072 
L 189.350083 -171.072 
L 189.032727 -171.072 
L 188.715372 -171.072 
L 188.398017 -171.072 
L 188.080661 -171.072 
L 187.763306 -171.072 
L 187.44595 -171.072 
L 187.128595 -171.072 
L 186.81124 -171.072 
L 186.493884 -171.072 
L 186.176529 -171.072 
L 185.859174 -171.072 
L 185.541818 -171.072 
L 185.224463 -171.072 
L 184.907107 -171.072 
L 184.589752 -171.072 
L 184.272397 -171.072 
L 183.955041 -171.072 
L 183.637686 -171.072 
L 183.320331 -171.072 
L 183.002975 -171.072 
L 182.68562 -171.072 
L 182.368264 -171.072 
L 182.050909 -171.072 
L 181.733554 -171.072 
L 181.416198 -171.072 
L 181.098843 -171.072 
L 180.781488 -171.072 
L 180.464132 -171.072 
L 180.146777 -171.072 
L 179.829421 -171.072 
L 179.512066 -171.072 
L 179.194711 -171.072 
L 178.877355 -171.072 
L 178.56 -171.072 
L 178.242645 -171.072 
L 177.925289 -171.072 
L 177.607934 -171.072 
L 177.290579 -171.072 
L 176.973223 -171.072 
L 176.655868 -171.072 
L 176.338512 -171.072 
L 176.021157 -171.072 
L 175.703802 -171.072 
L 175.386446 -171.072 
L 175.069091 -171.072 
L 174.751736 -171.072 
L 174.43438 -171.072 
L 174.117025 -171.072 
L 173.799669 -171.072 
L 173.482314 -171.072 
L 173.164959 -171.072 
L 172.847603 -171.072 
L 172.530248 -171.072 
L 172.212893 -171.072 
L 171.895537 -171.072 
L 171.578182 -171.072 
L 171.260826 -171.072 
L 170.943471 -171.072 
L 170.626116 -171.072 
L 170.30876 -171.072 
L 169.991405 -171.072 
L 169.67405 -171.072 
L 169.356694 -171.072 
L 169.039339 -171.072 
L 168.721983 -171.072 
L 168.404628 -171.072 
L 168.087273 -171.072 
L 167.769917 -171.072 
L 167.452562 -171.072 
L 167.135207 -171.072 
L 166.817851 -171.072 
L 166.500496 -171.072 
L 166.18314 -171.072 
L 165.865785 -171.072 
L 165.54843 -171.072 
L 165.231074 -171.072 
L 164.913719 -171.072 
L 164.596364 -171.072 
L 164.279008 -171.072 
L 163.961653 -171.072 
L 163.644298 -171.072 
L 163.326942 -171.072 
L 163.009587 -171.072 
L 162.692231 -171.072 
L 162.374876 -171.072 
L 162.057521 -171.072 
L 161.740165 -171.072 
L 161.42281 -171.072 
L 161.105455 -171.072 
L 160.788099 -171.072 
L 160.470744 -171.072 
L 160.153388 -171.072 
L 159.836033 -171.072 
L 159.518678 -171.072 
L 159.201322 -171.072 
L 158.883967 -171.072 
L 158.566612 -171.072 
L 158.249256 -171.072 
L 157.931901 -171.072 
L 157.614545 -171.072 
L 157.29719 -171.072 
L 156.979835 -171.072 
L 156.662479 -171.072 
L 156.345124 -171.072 
L 156.027769 -171.072 
L 155.710413 -171.072 
L 155.393058 -171.072 
L 155.075702 -171.072 
L 154.758347 -171.072 
L 154.440992 -171.072 
L 154.123636 -171.072 
L 153.806281 -171.072 
L 153.488926 -171.072 
L 153.17157 -171.072 
L 152.854215 -171.072 
L 152.53686 -171.072 
L 152.219504 -171.072 
L 151.902149 -171.072 
L 151.584793 -171.072 
L 151.267438 -171.072 
L 150.950083 -171.072 
L 150.632727 -171.072 
L 150.315372 -171.072 
L 149.998017 -171.072 
L 149.680661 -171.072 
L 149.363306 -171.072 
L 149.04595 -171.072 
L 148.728595 -171.072 
L 148.41124 -171.072 
L 148.093884 -171.072 
L 147.776529 -171.072 
L 147.459174 -171.072 
L 147.141818 -171.072 
L 146.824463 -171.072 
L 146.507107 -171.072 
L 146.189752 -171.072 
L 145.872397 -171.072 
L 145.555041 -171.072 
L 145.237686 -171.072 
L 144.920331 -171.072 
L 144.602975 -171.072 
L 144.28562 -171.072 
L 143.968264 -171.072 
L 143.650909 -171.072 
L 143.333554 -171.072 
L 143.016198 -171.072 
L 142.698843 -171.072 
L 142.381488 -171.072 
L 142.064132 -171.072 
L 141.746777 -171.072 
L 141.429421 -171.072 
L 141.112066 -171.072 
L 140.794711 -171.072 
L 140.477355 -171.072 
L 140.16 -171.072 
L 139.842645 -171.072 
L 139.525289 -171.072 
L 139.207934 -171.072 
L 138.890579 -171.072 
L 138.573223 -171.072 
L 138.255868 -171.072 
L 137.938512 -171.072 
L 137.621157 -171.072 
L 137.303802 -171.072 
L 136.986446 -171.072 
L 136.669091 -171.072 
L 136.351736 -171.072 
L 136.03438 -171.072 
L 135.717025 -171.072 
L 135.399669 -171.072 
L 135.082314 -171.072 
L 134.764959 -171.072 
L 134.447603 -171.072 
L 134.130248 -171.072 
L 133.812893 -171.072 
L 133.495537 -171.072 
L 133.178182 -171.072 
L 132.860826 -171.072 
L 132.543471 -171.072 
L 132.226116 -171.072 
L 131.90876 -171.072 
L 131.591405 -171.072 
L 131.27405 -171.072 
L 130.956694 -171.072 
L 130.639339 -171.072 
L 130.321983 -171.072 
L 130.004628 -171.072 
L 129.687273 -171.072 
L 129.369917 -171.072 
L 129.052562 -171.072 
L 128.735207 -171.072 
L 128.417851 -171.072 
L 128.100496 -171.072 
L 127.78314 -171.072 
L 127.465785 -171.072 
L 127.14843 -171.072 
L 126.831074 -171.072 
L 126.513719 -171.072 
L 126.196364 -171.072 
L 125.879008 -171.072 
L 125.561653 -171.072 
L 125.244298 -171.072 
L 124.926942 -171.072 
L 124.609587 -171.072 
L 124.292231 -171.072 
L 123.974876 -171.072 
L 123.657521 -171.072 
L 123.340165 -171.072 
L 123.02281 -171.072 
L 122.705455 -171.072 
L 122.388099 -171.072 
L 122.070744 -171.072 
L 121.753388 -171.072 
L 121.436033 -171.072 
L 121.118678 -171.072 
L 120.801322 -171.072 
L 120.483967 -171.072 
L 120.166612 -171.072 
L 119.849256 -171.072 
L 119.531901 -171.072 
L 119.214545 -171.072 
L 118.89719 -171.072 
L 118.579835 -171.072 
L 118.262479 -171.072 
L 117.945124 -171.072 
L 117.627769 -171.072 
L 117.310413 -171.072 
L 116.993058 -171.072 
L 116.675702 -171.072 
L 116.358347 -171.072 
L 116.040992 -171.072 
L 115.723636 -171.072 
L 115.406281 -171.072 
L 115.088926 -171.072 
L 114.77157 -171.072 
L 114.454215 -171.072 
L 114.13686 -171.072 
L 113.819504 -171.072 
L 113.502149 -171.072 
L 113.184793 -171.072 
L 112.867438 -171.072 
L 112.550083 -171.072 
L 112.232727 -171.072 
L 111.915372 -171.072 
L 111.598017 -171.072 
L 111.280661 -171.072 
L 110.963306 -171.072 
L 110.64595 -171.072 
L 110.328595 -171.072 
L 110.01124 -171.072 
L 109.693884 -171.072 
L 109.376529 -171.072 
L 109.059174 -171.072 
L 108.741818 -171.072 
L 108.424463 -171.072 
L 108.107107 -171.072 
L 107.789752 -171.072 
L 107.472397 -171.072 
L 107.155041 -171.072 
L 106.837686 -171.072 
L 106.520331 -171.072 
L 106.202975 -171.072 
L 105.88562 -171.072 
L 105.568264 -171.072 
L 105.250909 -171.072 
L 104.933554 -171.072 
L 104.616198 -171.072 
L 104.298843 -171.072 
L 103.981488 -171.072 
L 103.664132 -171.072 
L 103.346777 -171.072 
L 103.029421 -171.072 
L 102.712066 -171.072 
L 102.394711 -171.072 
L 102.077355 -171.072 
L 101.76 -171.072 
L 101.442645 -171.072 
L 101.125289 -171.072 
L 100.807934 -171.072 
L 100.490579 -171.072 
L 100.173223 -171.072 
L 99.855868 -171.072 
L 99.538512 -171.072 
L 99.221157 -171.072 
L 98.903802 -171.072 
L 98.586446 -171.072 
L 98.269091 -171.072 
L 97.951736 -171.072 
L 97.63438 -171.072 
L 97.317025 -171.072 
L 96.999669 -171.072 
L 96.682314 -171.072 
L 96.364959 -171.072 
L 96.047603 -171.072 
L 95.730248 -171.072 
L 95.412893 -171.072 
L 95.095537 -171.072 
L 94.778182 -171.072 
L 94.460826 -171.072 
L 94.143471 -171.072 
L 93.826116 -171.072 
L 93.50876 -171.072 
L 93.191405 -171.072 
L 92.87405 -171.072 
L 92.556694 -171.072 
L 92.239339 -171.072 
L 91.921983 -171.072 
L 91.604628 -171.072 
L 91.287273 -171.072 
L 90.969917 -171.072 
L 90.652562 -171.072 
L 90.335207 -171.072 
L 90.017851 -171.072 
L 89.700496 -171.072 
L 89.38314 -171.072 
L 89.065785 -171.072 
L 88.74843 -171.072 
L 88.431074 -171.072 
L 88.113719 -171.072 
L 87.796364 -171.072 
L 87.479008 -171.072 
L 87.161653 -171.072 
L 86.844298 -171.072 
L 86.526942 -171.072 
L 86.209587 -171.072 
L 85.892231 -171.072 
L 85.574876 -171.072 
L 85.257521 -171.072 
L 84.940165 -171.072 
L 84.62281 -171.072 
L 84.305455 -171.072 
L 83.988099 -171.072 
L 83.670744 -171.072 
L 83.353388 -171.072 
L 83.036033 -171.072 
L 82.718678 -171.072 
L 82.401322 -171.072 
L 82.083967 -171.072 
L 81.766612 -171.072 
L 81.449256 -171.072 
L 81.131901 -171.072 
L 80.814545 -171.072 
L 80.49719 -171.072 
L 80.179835 -171.072 
L 79.862479 -171.072 
L 79.545124 -171.072 
L 79.227769 -171.072 
L 78.910413 -171.072 
L 78.593058 -171.072 
L 78.275702 -171.072 
L 77.958347 -171.072 
L 77.640992 -171.072 
L 77.323636 -171.072 
L 77.006281 -171.072 
L 76.688926 -171.072 
L 76.37157 -171.072 
L 76.054215 -171.072 
L 75.73686 -171.072 
L 75.419504 -171.072 
L 75.102149 -171.072 
L 74.784793 -171.072 
L 74.467438 -171.072 
L 74.150083 -171.072 
L 73.832727 -171.072 
z
" style="stroke: #87ceeb; stroke-opacity: 0.75"/>
    </defs>
    <g clip-path="url(#p414f3ea6ac)">
     <use xlink:href="#m2819e6457b" x="0" y="345.6" style="fill: #87ceeb; fill-opacity: 0.75; stroke: #87ceeb; stroke-opacity: 0.75"/>
    </g>
   </g>
   <g id="matplotlib.axis_1">
    <g id="xtick_1">
     <g id="line2d_1">
      <defs>
       <path id="m509e2985c0" d="M 0 0 
L 0 3.5 
" style="stroke: #000000; stroke-width: 0.8"/>
      </defs>
      <g>
       <use xlink:href="#m509e2985c0" x="73.832727" y="307.584" style="stroke: #000000; stroke-width: 0.8"/>
      </g>
     </g>
     <g id="text_1">
      <!-- 0 -->
      <g transform="translate(70.531868 322.161969) scale(0.11 -0.11)">
       <defs>
        <path id="AndaleMono-30" d="M 1913 4494 
Q 2613 4494 2989 3892 
Q 3366 3291 3366 2203 
Q 3366 1150 3000 533 
Q 2634 -84 1913 -84 
Q 1216 -84 837 516 
Q 459 1116 459 2203 
Q 459 3259 826 3876 
Q 1194 4494 1913 4494 
z
M 1913 366 
Q 2375 366 2598 805 
Q 2822 1244 2822 2203 
Q 2822 3166 2598 3602 
Q 2375 4038 1913 4038 
Q 1456 4038 1231 3591 
Q 1006 3144 1006 2203 
Q 1006 1250 1229 808 
Q 1453 366 1913 366 
z
M 1900 2672 
Q 2097 2672 2233 2536 
Q 2369 2400 2369 2203 
Q 2369 2000 2231 1854 
Q 2094 1709 1900 1709 
Q 1709 1709 1573 1854 
Q 1438 2000 1438 2203 
Q 1438 2403 1570 2537 
Q 1703 2672 1900 2672 
z
" transform="scale(0.015625)"/>
       </defs>
       <use xlink:href="#AndaleMono-30"/>
      </g>
     </g>
    </g>
    <g id="xtick_2">
     <g id="line2d_2">
      <g>
       <use xlink:href="#m509e2985c0" x="137.303802" y="307.584" style="stroke: #000000; stroke-width: 0.8"/>
      </g>
     </g>
     <g id="text_2">
      <!-- 200 -->
      <g transform="translate(127.401224 322.161969) scale(0.11 -0.11)">
       <defs>
        <path id="AndaleMono-32" d="M 3066 0 
L 641 0 
L 641 372 
Q 1563 1400 1838 1750 
Q 2113 2100 2284 2484 
Q 2456 2869 2456 3250 
Q 2456 3619 2232 3831 
Q 2009 4044 1606 4044 
Q 1297 4044 775 3853 
L 703 4294 
Q 1175 4494 1691 4494 
Q 2281 4494 2642 4161 
Q 3003 3828 3003 3272 
Q 3003 2875 2817 2484 
Q 2631 2094 2340 1734 
Q 2050 1375 1209 447 
L 3066 447 
L 3066 0 
z
" transform="scale(0.015625)"/>
       </defs>
       <use xlink:href="#AndaleMono-32"/>
       <use xlink:href="#AndaleMono-30" x="60.009766"/>
       <use xlink:href="#AndaleMono-30" x="120.019531"/>
      </g>
     </g>
    </g>
    <g id="xtick_3">
     <g id="line2d_3">
      <g>
       <use xlink:href="#m509e2985c0" x="200.774876" y="307.584" style="stroke: #000000; stroke-width: 0.8"/>
      </g>
     </g>
     <g id="text_3">
      <!-- 400 -->
      <g transform="translate(190.872298 322.161969) scale(0.11 -0.11)">
       <defs>
        <path id="AndaleMono-34" d="M 3353 1019 
L 2809 1019 
L 2809 0 
L 2297 0 
L 2297 1019 
L 378 1019 
L 378 1409 
L 2119 4409 
L 2809 4409 
L 2809 1466 
L 3353 1466 
L 3353 1019 
z
M 2297 1466 
L 2297 3903 
L 897 1466 
L 2297 1466 
z
" transform="scale(0.015625)"/>
       </defs>
       <use xlink:href="#AndaleMono-34"/>
       <use xlink:href="#AndaleMono-30" x="60.009766"/>
       <use xlink:href="#AndaleMono-30" x="120.019531"/>
      </g>
     </g>
    </g>
    <g id="xtick_4">
     <g id="line2d_4">
      <g>
       <use xlink:href="#m509e2985c0" x="264.24595" y="307.584" style="stroke: #000000; stroke-width: 0.8"/>
      </g>
     </g>
     <g id="text_4">
      <!-- 600 -->
      <g transform="translate(254.343372 322.161969) scale(0.11 -0.11)">
       <defs>
        <path id="AndaleMono-36" d="M 1131 2297 
Q 1544 2631 2028 2631 
Q 2588 2631 2961 2273 
Q 3334 1916 3334 1350 
Q 3334 728 3003 322 
Q 2672 -84 2119 -84 
Q 1413 -84 1000 564 
Q 588 1213 588 2150 
Q 588 3150 1017 3822 
Q 1447 4494 2194 4494 
Q 2709 4494 3084 4341 
L 3003 3884 
Q 2569 4044 2209 4044 
Q 1700 4044 1415 3556 
Q 1131 3069 1131 2297 
z
M 1147 1856 
Q 1147 1291 1412 828 
Q 1678 366 2081 366 
Q 2422 366 2606 616 
Q 2791 866 2791 1306 
Q 2791 1713 2587 1947 
Q 2384 2181 2016 2181 
Q 1538 2181 1147 1856 
z
" transform="scale(0.015625)"/>
       </defs>
       <use xlink:href="#AndaleMono-36"/>
       <use xlink:href="#AndaleMono-30" x="60.009766"/>
       <use xlink:href="#AndaleMono-30" x="120.019531"/>
      </g>
     </g>
    </g>
    <g id="xtick_5">
     <g id="line2d_5">
      <g>
       <use xlink:href="#m509e2985c0" x="327.717025" y="307.584" style="stroke: #000000; stroke-width: 0.8"/>
      </g>
     </g>
     <g id="text_5">
      <!-- 800 -->
      <g transform="translate(317.814447 322.161969) scale(0.11 -0.11)">
       <defs>
        <path id="AndaleMono-38" d="M 2363 2419 
Q 2813 2288 3061 1972 
Q 3309 1656 3309 1234 
Q 3309 628 2907 272 
Q 2506 -84 1919 -84 
Q 1303 -84 908 275 
Q 513 634 513 1228 
Q 513 1647 769 1965 
Q 1025 2284 1484 2419 
Q 1119 2513 898 2780 
Q 678 3047 678 3378 
Q 678 3803 1015 4148 
Q 1353 4494 1906 4494 
Q 2453 4494 2811 4150 
Q 3169 3806 3169 3378 
Q 3169 3056 2944 2786 
Q 2719 2516 2363 2419 
z
M 1906 2631 
Q 1922 2631 2056 2668 
Q 2191 2706 2286 2761 
Q 2381 2816 2462 2900 
Q 2544 2984 2594 3098 
Q 2644 3213 2644 3353 
Q 2644 3653 2428 3851 
Q 2213 4050 1906 4050 
Q 1609 4050 1396 3847 
Q 1184 3644 1184 3353 
Q 1184 3169 1261 3031 
Q 1338 2894 1452 2809 
Q 1566 2725 1714 2678 
Q 1863 2631 1906 2631 
z
M 1906 2194 
Q 1050 1944 1050 1253 
Q 1050 850 1309 608 
Q 1569 366 1919 366 
Q 2281 366 2529 605 
Q 2778 844 2778 1253 
Q 2778 1563 2606 1808 
Q 2434 2053 1906 2194 
z
" transform="scale(0.015625)"/>
       </defs>
       <use xlink:href="#AndaleMono-38"/>
       <use xlink:href="#AndaleMono-30" x="60.009766"/>
       <use xlink:href="#AndaleMono-30" x="120.019531"/>
      </g>
     </g>
    </g>
    <g id="xtick_6">
     <g id="line2d_6">
      <g>
       <use xlink:href="#m509e2985c0" x="391.188099" y="307.584" style="stroke: #000000; stroke-width: 0.8"/>
      </g>
     </g>
     <g id="text_6">
      <!-- 1000 -->
      <g transform="translate(377.984662 322.161969) scale(0.11 -0.11)">
       <defs>
        <path id="AndaleMono-31" d="M 3181 0 
L 863 0 
L 863 447 
L 1797 447 
L 1797 3872 
L 916 3431 
L 916 3944 
L 1869 4434 
L 2309 4434 
L 2309 447 
L 3181 447 
L 3181 0 
z
" transform="scale(0.015625)"/>
       </defs>
       <use xlink:href="#AndaleMono-31"/>
       <use xlink:href="#AndaleMono-30" x="60.009766"/>
       <use xlink:href="#AndaleMono-30" x="120.019531"/>
       <use xlink:href="#AndaleMono-30" x="180.029297"/>
      </g>
     </g>
    </g>
   </g>
   <g id="matplotlib.axis_2">
    <g id="ytick_1">
     <g id="line2d_7">
      <defs>
       <path id="mfb3a6c37fd" d="M 0 0 
L -3.5 0 
" style="stroke: #000000; stroke-width: 0.8"/>
      </defs>
      <g>
       <use xlink:href="#mfb3a6c37fd" x="57.6" y="295.488" style="stroke: #000000; stroke-width: 0.8"/>
      </g>
     </g>
     <g id="text_7">
      <!-- 1.00 -->
      <g transform="translate(17.591406 299.276984) scale(0.11 -0.11)">
       <defs>
        <path id="AndaleMono-2212" d="M 3397 2047 
L 441 2047 
L 441 2456 
L 3397 2456 
L 3397 2047 
z
" transform="scale(0.015625)"/>
        <path id="AndaleMono-2e" d="M 1900 716 
Q 2066 716 2178 603 
Q 2291 491 2291 325 
Q 2291 156 2177 36 
Q 2063 -84 1900 -84 
Q 1741 -84 1628 36 
Q 1516 156 1516 325 
Q 1516 494 1627 605 
Q 1738 716 1900 716 
z
" transform="scale(0.015625)"/>
       </defs>
       <use xlink:href="#AndaleMono-2212"/>
       <use xlink:href="#AndaleMono-31" x="60.009766"/>
       <use xlink:href="#AndaleMono-2e" x="120.019531"/>
       <use xlink:href="#AndaleMono-30" x="180.029297"/>
       <use xlink:href="#AndaleMono-30" x="240.039062"/>
      </g>
     </g>
    </g>
    <g id="ytick_2">
     <g id="line2d_8">
      <g>
       <use xlink:href="#mfb3a6c37fd" x="57.6" y="265.248" style="stroke: #000000; stroke-width: 0.8"/>
      </g>
     </g>
     <g id="text_8">
      <!-- 0.75 -->
      <g transform="translate(17.591406 269.036984) scale(0.11 -0.11)">
       <defs>
        <path id="AndaleMono-37" d="M 3238 4044 
L 1491 0 
L 966 0 
L 2688 3963 
L 622 3963 
L 622 4409 
L 3238 4409 
L 3238 4044 
z
" transform="scale(0.015625)"/>
        <path id="AndaleMono-35" d="M 1356 2631 
Q 1569 2688 1772 2688 
Q 2397 2688 2759 2305 
Q 3122 1922 3122 1350 
Q 3122 750 2700 333 
Q 2278 -84 1672 -84 
Q 1094 -84 703 109 
L 806 544 
Q 1231 366 1684 366 
Q 2088 366 2336 625 
Q 2584 884 2584 1350 
Q 2584 1791 2350 2028 
Q 2116 2266 1747 2266 
Q 1478 2266 1216 2163 
L 909 2303 
L 909 4409 
L 2925 4409 
L 2925 3963 
L 1356 3963 
L 1356 2631 
z
" transform="scale(0.015625)"/>
       </defs>
       <use xlink:href="#AndaleMono-2212"/>
       <use xlink:href="#AndaleMono-30" x="60.009766"/>
       <use xlink:href="#AndaleMono-2e" x="120.019531"/>
       <use xlink:href="#AndaleMono-37" x="180.029297"/>
       <use xlink:href="#AndaleMono-35" x="240.039062"/>
      </g>
     </g>
    </g>
    <g id="ytick_3">
     <g id="line2d_9">
      <g>
       <use xlink:href="#mfb3a6c37fd" x="57.6" y="235.008" style="stroke: #000000; stroke-width: 0.8"/>
      </g>
     </g>
     <g id="text_9">
      <!-- 0.50 -->
      <g transform="translate(17.591406 238.796984) scale(0.11 -0.11)">
       <use xlink:href="#AndaleMono-2212"/>
       <use xlink:href="#AndaleMono-30" x="60.009766"/>
       <use xlink:href="#AndaleMono-2e" x="120.019531"/>
       <use xlink:href="#AndaleMono-35" x="180.029297"/>
       <use xlink:href="#AndaleMono-30" x="240.039062"/>
      </g>
     </g>
    </g>
    <g id="ytick_4">
     <g id="line2d_10">
      <g>
       <use xlink:href="#mfb3a6c37fd" x="57.6" y="204.768" style="stroke: #000000; stroke-width: 0.8"/>
      </g>
     </g>
     <g id="text_10">
      <!-- 0.25 -->
      <g transform="translate(17.591406 208.556984) scale(0.11 -0.11)">
       <use xlink:href="#AndaleMono-2212"/>
       <use xlink:href="#AndaleMono-30" x="60.009766"/>
       <use xlink:href="#AndaleMono-2e" x="120.019531"/>
       <use xlink:href="#AndaleMono-32" x="180.029297"/>
       <use xlink:href="#AndaleMono-35" x="240.039062"/>
      </g>
     </g>
    </g>
    <g id="ytick_5">
     <g id="line2d_11">
      <g>
       <use xlink:href="#mfb3a6c37fd" x="57.6" y="174.528" style="stroke: #000000; stroke-width: 0.8"/>
      </g>
     </g>
     <g id="text_11">
      <!-- 0.00 -->
      <g transform="translate(24.193125 178.316984) scale(0.11 -0.11)">
       <use xlink:href="#AndaleMono-30"/>
       <use xlink:href="#AndaleMono-2e" x="60.009766"/>
       <use xlink:href="#AndaleMono-30" x="120.019531"/>
       <use xlink:href="#AndaleMono-30" x="180.029297"/>
      </g>
     </g>
    </g>
    <g id="ytick_6">
     <g id="line2d_12">
      <g>
       <use xlink:href="#mfb3a6c37fd" x="57.6" y="144.288" style="stroke: #000000; stroke-width: 0.8"/>
      </g>
     </g>
     <g id="text_12">
      <!-- 0.25 -->
      <g transform="translate(24.193125 148.076984) scale(0.11 -0.11)">
       <use xlink:href="#AndaleMono-30"/>
       <use xlink:href="#AndaleMono-2e" x="60.009766"/>
       <use xlink:href="#AndaleMono-32" x="120.019531"/>
       <use xlink:href="#AndaleMono-35" x="180.029297"/>
      </g>
     </g>
    </g>
    <g id="ytick_7">
     <g id="line2d_13">
      <g>
       <use xlink:href="#mfb3a6c37fd" x="57.6" y="114.048" style="stroke: #000000; stroke-width: 0.8"/>
      </g>
     </g>
     <g id="text_13">
      <!-- 0.50 -->
      <g transform="translate(24.193125 117.836984) scale(0.11 -0.11)">
       <use xlink:href="#AndaleMono-30"/>
       <use xlink:href="#AndaleMono-2e" x="60.009766"/>
       <use xlink:href="#AndaleMono-35" x="120.019531"/>
       <use xlink:href="#AndaleMono-30" x="180.029297"/>
      </g>
     </g>
    </g>
    <g id="ytick_8">
     <g id="line2d_14">
      <g>
       <use xlink:href="#mfb3a6c37fd" x="57.6" y="83.808" style="stroke: #000000; stroke-width: 0.8"/>
      </g>
     </g>
     <g id="text_14">
      <!-- 0.75 -->
      <g transform="translate(24.193125 87.596984) scale(0.11 -0.11)">
       <use xlink:href="#AndaleMono-30"/>
       <use xlink:href="#AndaleMono-2e" x="60.009766"/>
       <use xlink:href="#AndaleMono-37" x="120.019531"/>
       <use xlink:href="#AndaleMono-35" x="180.029297"/>
      </g>
     </g>
    </g>
    <g id="ytick_9">
     <g id="line2d_15">
      <g>
       <use xlink:href="#mfb3a6c37fd" x="57.6" y="53.568" style="stroke: #000000; stroke-width: 0.8"/>
      </g>
     </g>
     <g id="text_15">
      <!-- 1.00 -->
      <g transform="translate(24.193125 57.356984) scale(0.11 -0.11)">
       <use xlink:href="#AndaleMono-31"/>
       <use xlink:href="#AndaleMono-2e" x="60.009766"/>
       <use xlink:href="#AndaleMono-30" x="120.019531"/>
       <use xlink:href="#AndaleMono-30" x="180.029297"/>
      </g>
     </g>
    </g>
   </g>
   <g id="line2d_16">
    <path d="M 73.832727 174.528 
L 74.150083 174.179067 
L 87.479008 173.752948 
L 105.568264 173.70646 
L 106.202975 173.797108 
L 107.472397 174.255751 
L 108.741818 175.034038 
L 109.376529 175.18334 
L 110.328595 175.19694 
L 110.963306 175.04377 
L 111.598017 174.658718 
L 112.232727 173.983571 
L 113.502149 172.052059 
L 114.454215 170.288802 
L 115.406281 168.057266 
L 116.358347 165.237126 
L 117.310413 161.871531 
L 118.262479 157.83852 
L 119.214545 152.958615 
L 120.483967 145.234743 
L 127.465785 99.273152 
L 130.639339 76.17454 
L 131.90876 68.399476 
L 132.860826 63.927917 
L 134.130248 59.180954 
L 135.082314 56.501982 
L 135.717025 55.274842 
L 136.351736 54.431546 
L 136.986446 53.85162 
L 137.621157 53.585305 
L 138.255868 53.650647 
L 138.890579 54.16635 
L 139.525289 55.236727 
L 140.16 56.916221 
L 141.112066 60.35745 
L 143.333554 70.115397 
L 144.920331 76.501176 
L 147.776529 87.574308 
L 152.219504 107.12494 
L 153.488926 111.347386 
L 155.075702 116.076749 
L 156.027769 118.196017 
L 158.566612 122.947344 
L 159.836033 124.964867 
L 161.105455 126.543918 
L 162.057521 127.341759 
L 163.009587 127.761837 
L 163.644298 128.044157 
L 164.596364 128.762793 
L 165.54843 129.925442 
L 166.817851 131.760283 
L 169.039339 135.392014 
L 170.30876 136.836909 
L 171.895537 138.914265 
L 175.386446 143.874385 
L 177.290579 146.0853 
L 180.464132 149.169809 
L 181.416198 149.59374 
L 184.272397 150.461534 
L 186.176529 151.013073 
L 187.128595 151.187736 
L 189.667438 151.261704 
L 190.619504 151.732562 
L 192.206281 152.825733 
L 193.475702 153.58955 
L 196.649256 155.251589 
L 198.236033 156.463139 
L 200.774876 158.682749 
L 204.265785 162.046357 
L 206.169917 163.558272 
L 208.07405 164.72872 
L 209.978182 165.630787 
L 211.247603 165.983259 
L 212.199669 166.070809 
L 216.96 166.274296 
L 219.181488 166.324864 
L 222.037686 166.385143 
L 223.624463 166.678323 
L 225.21124 167.162857 
L 226.798017 167.851889 
L 228.702149 168.942342 
L 230.923636 170.518484 
L 234.731901 173.458504 
L 244.569917 180.694726 
L 246.47405 181.642509 
L 248.060826 182.211356 
L 249.964959 182.631689 
L 251.551736 182.728914 
L 261.072397 183.072741 
L 262.341818 183.425213 
L 263.928595 184.160135 
L 265.832727 185.285406 
L 267.419504 186.471904 
L 269.006281 187.921781 
L 273.131901 191.788054 
L 275.353388 193.584217 
L 276.940165 194.569834 
L 279.796364 196.010855 
L 282.335207 197.664595 
L 282.969917 197.874056 
L 283.921983 197.88084 
L 285.191405 197.868264 
L 286.143471 198.042927 
L 291.538512 199.719676 
L 292.173223 200.102065 
L 293.442645 201.302267 
L 296.616198 204.790471 
L 298.837686 207.663951 
L 301.376529 211.428284 
L 302.64595 212.917559 
L 303.598017 214.107201 
L 305.184793 216.754066 
L 306.454215 218.711011 
L 307.723636 220.293207 
L 308.675702 221.011843 
L 309.627769 221.40221 
L 310.579835 221.930723 
L 311.531901 222.851759 
L 312.801322 224.560292 
L 314.070744 226.657478 
L 315.974876 230.239367 
L 316.926942 232.209094 
L 317.879008 234.747526 
L 319.78314 240.79754 
L 321.052562 245.709634 
L 322.956694 254.003886 
L 324.860826 262.805261 
L 327.717025 273.729681 
L 329.303802 280.315239 
L 331.525289 289.948344 
L 332.477355 293.046776 
L 333.112066 294.42325 
L 333.746777 295.211121 
L 334.381488 295.488 
L 335.016198 295.380594 
L 335.650909 294.949636 
L 336.28562 294.244276 
L 336.920331 293.225215 
L 337.555041 291.769016 
L 338.189752 289.875046 
L 339.459174 285.128083 
L 340.41124 280.656524 
L 341.363306 274.946605 
L 343.267438 261.960326 
L 346.123636 240.926305 
L 353.105455 196.097385 
L 354.374876 189.784675 
L 355.644298 184.877383 
L 356.913719 180.998734 
L 357.865785 178.767198 
L 358.817851 177.003941 
L 360.087273 175.072429 
L 360.721983 174.397282 
L 361.356694 174.01223 
L 361.991405 173.85906 
L 362.943471 173.87266 
L 363.578182 174.021962 
L 364.530248 174.596294 
L 365.482314 175.098017 
L 366.751736 175.34954 
L 379.763306 175.335656 
L 390.236033 175.225547 
L 398.169917 174.889804 
L 398.487273 174.528 
L 398.487273 174.528 
" clip-path="url(#p414f3ea6ac)" style="fill: none; stroke: #87ceeb; stroke-opacity: 0.75; stroke-linecap: square"/>
   </g>
   <g id="patch_3">
    <path d="M 57.6 307.584 
L 57.6 41.472 
" style="fill: none; stroke: #000000; stroke-width: 0.8; stroke-linejoin: miter; stroke-linecap: square"/>
   </g>
   <g id="patch_4">
    <path d="M 414.72 307.584 
L 414.72 41.472 
" style="fill: none; stroke: #000000; stroke-width: 0.8; stroke-linejoin: miter; stroke-linecap: square"/>
   </g>
   <g id="patch_5">
    <path d="M 57.6 307.584 
L 414.72 307.584 
" style="fill: none; stroke: #000000; stroke-width: 0.8; stroke-linejoin: miter; stroke-linecap: square"/>
   </g>
   <g id="patch_6">
    <path d="M 57.6 41.472 
L 414.72 41.472 
" style="fill: none; stroke: #000000; stroke-width: 0.8; stroke-linejoin: miter; stroke-linecap: square"/>
   </g>
  </g>
 </g>
 <defs>
  <clipPath id="p414f3ea6ac">
   <rect x="57.6" y="41.472" width="357.12" height="266.112"/>
  </clipPath>
 </defs>
</svg>
