<?xml version="1.0" encoding="utf-8" standalone="no"?>
<!DOCTYPE svg PUBLIC "-//W3C//DTD SVG 1.1//EN"
  "http://www.w3.org/Graphics/SVG/1.1/DTD/svg11.dtd">
<svg xmlns:xlink="http://www.w3.org/1999/xlink" width="460.8pt" height="345.6pt" viewBox="0 0 460.8 345.6" xmlns="http://www.w3.org/2000/svg" version="1.1">
 <metadata>
  <rdf:RDF xmlns:dc="http://purl.org/dc/elements/1.1/" xmlns:cc="http://creativecommons.org/ns#" xmlns:rdf="http://www.w3.org/1999/02/22-rdf-syntax-ns#">
   <cc:Work>
    <dc:type rdf:resource="http://purl.org/dc/dcmitype/StillImage"/>
    <dc:date>2024-04-23T11:13:05.547589</dc:date>
    <dc:format>image/svg+xml</dc:format>
    <dc:creator>
     <cc:Agent>
      <dc:title>Matplotlib v3.8.3, https://matplotlib.org/</dc:title>
     </cc:Agent>
    </dc:creator>
   </cc:Work>
  </rdf:RDF>
 </metadata>
 <defs>
  <style type="text/css">*{stroke-linejoin: round; stroke-linecap: butt}</style>
 </defs>
 <g id="figure_1">
  <g id="patch_1">
   <path d="M 0 345.6 
L 460.8 345.6 
L 460.8 0 
L 0 0 
z
" style="fill: #ffffff"/>
  </g>
  <g id="axes_1">
   <g id="patch_2">
    <path d="M 57.6 307.584 
L 414.72 307.584 
L 414.72 41.472 
L 57.6 41.472 
z
" style="fill: #ffffff"/>
   </g>
   <g id="PolyCollection_1">
    <defs>
     <path id="m1c00410044" d="M 73.832727 -171.621452 
L 73.832727 -171.621452 
L 74.150083 -239.170186 
L 74.467438 -241.2133 
L 74.784793 -243.237437 
L 75.102149 -245.269481 
L 75.419504 -247.311407 
L 75.73686 -249.368535 
L 76.054215 -251.422152 
L 76.37157 -253.502289 
L 76.688926 -255.586966 
L 77.006281 -257.614041 
L 77.323636 -259.604523 
L 77.640992 -261.566825 
L 77.958347 -263.508391 
L 78.275702 -265.401726 
L 78.593058 -267.248558 
L 78.910413 -269.068077 
L 79.227769 -270.845533 
L 79.545124 -272.600639 
L 79.862479 -274.306393 
L 80.179835 -275.945585 
L 80.49719 -277.555574 
L 80.814545 -279.162605 
L 81.131901 -280.796811 
L 81.449256 -282.408263 
L 81.766612 -283.944879 
L 82.083967 -285.379993 
L 82.401322 -286.718341 
L 82.718678 -287.938215 
L 83.036033 -289.02969 
L 83.353388 -290.025649 
L 83.670744 -291.014137 
L 83.988099 -292.032 
L 84.305455 -290.845202 
L 84.62281 -289.702096 
L 84.940165 -288.576748 
L 85.257521 -287.422691 
L 85.574876 -286.197384 
L 85.892231 -284.918267 
L 86.209587 -283.594737 
L 86.526942 -282.20383 
L 86.844298 -280.770558 
L 87.161653 -279.320122 
L 87.479008 -277.863337 
L 87.796364 -276.407772 
L 88.113719 -274.956866 
L 88.431074 -273.506437 
L 88.74843 -272.009763 
L 89.065785 -270.521221 
L 89.38314 -269.053314 
L 89.700496 -267.626305 
L 90.017851 -266.235325 
L 90.335207 -264.853605 
L 90.652562 -263.504267 
L 90.969917 -262.200322 
L 91.287273 -260.915432 
L 91.604628 -259.622514 
L 91.921983 -258.349131 
L 92.239339 -257.09286 
L 92.556694 -255.847092 
L 92.87405 -254.636704 
L 93.191405 -253.44506 
L 93.50876 -252.25342 
L 93.826116 -251.065012 
L 94.143471 -249.886236 
L 94.460826 -248.74956 
L 94.778182 -247.654463 
L 95.095537 -246.583739 
L 95.412893 -245.506055 
L 95.730248 -244.420227 
L 96.047603 -243.320167 
L 96.364959 -242.228981 
L 96.682314 -241.113253 
L 96.999669 -239.984595 
L 97.317025 -238.91018 
L 97.63438 -237.845449 
L 97.951736 -236.778919 
L 98.269091 -235.721574 
L 98.586446 -234.711858 
L 98.903802 -233.752783 
L 99.221157 -232.800469 
L 99.538512 -231.858796 
L 99.855868 -230.903911 
L 100.173223 -229.967699 
L 100.490579 -229.068595 
L 100.807934 -228.173512 
L 101.125289 -227.256201 
L 101.442645 -226.279128 
L 101.76 -225.288092 
L 102.077355 -224.346178 
L 102.394711 -223.49449 
L 102.712066 -222.740415 
L 103.029421 -222.11423 
L 103.346777 -221.616214 
L 103.664132 -221.219502 
L 103.981488 -220.829964 
L 104.298843 -220.393181 
L 104.616198 -219.930965 
L 104.933554 -219.432576 
L 105.250909 -218.910634 
L 105.568264 -218.416233 
L 105.88562 -218.009234 
L 106.202975 -217.667602 
L 106.520331 -217.37727 
L 106.837686 -217.167819 
L 107.155041 -217.003173 
L 107.472397 -216.866502 
L 107.789752 -216.76521 
L 108.107107 -216.68152 
L 108.424463 -216.595604 
L 108.741818 -216.512084 
L 109.059174 -216.467942 
L 109.376529 -216.402764 
L 109.693884 -216.32247 
L 110.01124 -216.218552 
L 110.328595 -216.132375 
L 110.64595 -216.08139 
L 110.963306 -216.015056 
L 111.280661 -215.90872 
L 111.598017 -215.77098 
L 111.915372 -215.655994 
L 112.232727 -215.544905 
L 112.550083 -215.446412 
L 112.867438 -215.362853 
L 113.184793 -215.248825 
L 113.502149 -215.112517 
L 113.819504 -214.978477 
L 114.13686 -214.844854 
L 114.454215 -214.702632 
L 114.77157 -214.554764 
L 115.088926 -214.412574 
L 115.406281 -214.269613 
L 115.723636 -214.143495 
L 116.040992 -214.041757 
L 116.358347 -213.971572 
L 116.675702 -213.927388 
L 116.993058 -213.903456 
L 117.310413 -213.92099 
L 117.627769 -213.978862 
L 117.945124 -214.100781 
L 118.262479 -214.287137 
L 118.579835 -214.504385 
L 118.89719 -214.736582 
L 119.214545 -214.965722 
L 119.531901 -215.22586 
L 119.849256 -215.53571 
L 120.166612 -215.893038 
L 120.483967 -216.283485 
L 120.801322 -216.705347 
L 121.118678 -217.148215 
L 121.436033 -217.602643 
L 121.753388 -218.072317 
L 122.070744 -218.559999 
L 122.388099 -219.057428 
L 122.705455 -219.547392 
L 123.02281 -220.03269 
L 123.340165 -220.512873 
L 123.657521 -221.01298 
L 123.974876 -221.532751 
L 124.292231 -222.078096 
L 124.609587 -222.659655 
L 124.926942 -223.278037 
L 125.244298 -223.937595 
L 125.561653 -224.655021 
L 125.879008 -225.415794 
L 126.196364 -226.200535 
L 126.513719 -227.015464 
L 126.831074 -227.857288 
L 127.14843 -228.721551 
L 127.465785 -229.614913 
L 127.78314 -230.5075 
L 128.100496 -231.371063 
L 128.417851 -232.220902 
L 128.735207 -233.070441 
L 129.052562 -233.916302 
L 129.369917 -234.778837 
L 129.687273 -235.660786 
L 130.004628 -236.534265 
L 130.321983 -237.377346 
L 130.639339 -238.130826 
L 130.956694 -238.811329 
L 131.27405 -239.447513 
L 131.591405 -240.054754 
L 131.90876 -240.667319 
L 132.226116 -241.253397 
L 132.543471 -241.801499 
L 132.860826 -242.304562 
L 133.178182 -242.764617 
L 133.495537 -243.204935 
L 133.812893 -243.646288 
L 134.130248 -244.089041 
L 134.447603 -244.532335 
L 134.764959 -244.979521 
L 135.082314 -245.430294 
L 135.399669 -245.881665 
L 135.717025 -246.335115 
L 136.03438 -246.765542 
L 136.351736 -247.158451 
L 136.669091 -247.507556 
L 136.986446 -247.807347 
L 137.303802 -248.056317 
L 137.621157 -248.231631 
L 137.938512 -248.317802 
L 138.255868 -248.32784 
L 138.573223 -248.27511 
L 138.890579 -248.173989 
L 139.207934 -248.029118 
L 139.525289 -247.857194 
L 139.842645 -247.646613 
L 140.16 -247.388723 
L 140.477355 -247.094939 
L 140.794711 -246.779889 
L 141.112066 -246.446847 
L 141.429421 -246.108714 
L 141.746777 -245.788364 
L 142.064132 -245.504114 
L 142.381488 -245.255565 
L 142.698843 -245.034306 
L 143.016198 -244.843791 
L 143.333554 -244.660437 
L 143.650909 -244.474652 
L 143.968264 -244.27527 
L 144.28562 -244.051057 
L 144.602975 -243.789062 
L 144.920331 -243.490441 
L 145.237686 -243.146315 
L 145.555041 -242.765698 
L 145.872397 -242.345067 
L 146.189752 -241.884847 
L 146.507107 -241.37947 
L 146.824463 -240.832871 
L 147.141818 -240.248448 
L 147.459174 -239.622456 
L 147.776529 -238.961728 
L 148.093884 -238.290941 
L 148.41124 -237.61832 
L 148.728595 -236.930284 
L 149.04595 -236.225796 
L 149.363306 -235.498617 
L 149.680661 -234.735511 
L 149.998017 -233.941191 
L 150.315372 -233.126332 
L 150.632727 -232.310356 
L 150.950083 -231.524934 
L 151.267438 -230.76789 
L 151.584793 -230.04105 
L 151.902149 -229.335022 
L 152.219504 -228.622806 
L 152.53686 -227.90471 
L 152.854215 -227.180744 
L 153.17157 -226.448405 
L 153.488926 -225.710265 
L 153.806281 -224.967273 
L 154.123636 -224.199873 
L 154.440992 -223.406147 
L 154.758347 -222.593529 
L 155.075702 -221.752993 
L 155.393058 -220.894545 
L 155.710413 -220.019915 
L 156.027769 -219.137572 
L 156.345124 -218.26681 
L 156.662479 -217.414323 
L 156.979835 -216.580767 
L 157.29719 -215.780285 
L 157.614545 -215.029081 
L 157.931901 -214.342507 
L 158.249256 -213.732182 
L 158.566612 -213.172348 
L 158.883967 -212.644378 
L 159.201322 -212.153978 
L 159.518678 -211.703789 
L 159.836033 -211.275005 
L 160.153388 -210.871422 
L 160.470744 -210.490197 
L 160.788099 -210.124278 
L 161.105455 -209.770128 
L 161.42281 -209.429967 
L 161.740165 -209.104245 
L 162.057521 -208.780955 
L 162.374876 -208.44392 
L 162.692231 -208.095884 
L 163.009587 -207.746453 
L 163.326942 -207.395647 
L 163.644298 -207.058617 
L 163.961653 -206.730156 
L 164.279008 -206.395892 
L 164.596364 -206.061316 
L 164.913719 -205.745225 
L 165.231074 -205.449722 
L 165.54843 -205.185099 
L 165.865785 -204.939855 
L 166.18314 -204.710391 
L 166.500496 -204.507917 
L 166.817851 -204.345444 
L 167.135207 -204.205762 
L 167.452562 -204.087811 
L 167.769917 -203.982558 
L 168.087273 -203.879503 
L 168.404628 -203.773083 
L 168.721983 -203.659913 
L 169.039339 -203.547822 
L 169.356694 -203.435058 
L 169.67405 -203.335715 
L 169.991405 -203.252424 
L 170.30876 -203.180579 
L 170.626116 -203.121305 
L 170.943471 -203.056872 
L 171.260826 -202.967294 
L 171.578182 -202.844644 
L 171.895537 -202.685038 
L 172.212893 -202.490625 
L 172.530248 -202.280267 
L 172.847603 -202.063921 
L 173.164959 -201.849712 
L 173.482314 -201.641005 
L 173.799669 -201.442588 
L 174.117025 -201.251364 
L 174.43438 -201.077711 
L 174.751736 -200.919502 
L 175.069091 -200.767997 
L 175.386446 -200.637094 
L 175.703802 -200.513342 
L 176.021157 -200.390865 
L 176.338512 -200.258862 
L 176.655868 -200.107703 
L 176.973223 -199.945982 
L 177.290579 -199.771698 
L 177.607934 -199.57686 
L 177.925289 -199.356816 
L 178.242645 -199.105414 
L 178.56 -198.826787 
L 178.877355 -198.540373 
L 179.194711 -198.252576 
L 179.512066 -197.951462 
L 179.829421 -197.627317 
L 180.146777 -197.310463 
L 180.464132 -196.994872 
L 180.781488 -196.690662 
L 181.098843 -196.412683 
L 181.416198 -196.163154 
L 181.733554 -195.936409 
L 182.050909 -195.717161 
L 182.368264 -195.495523 
L 182.68562 -195.26621 
L 183.002975 -195.028009 
L 183.320331 -194.776416 
L 183.637686 -194.511802 
L 183.955041 -194.227817 
L 184.272397 -193.935113 
L 184.589752 -193.646226 
L 184.907107 -193.364195 
L 185.224463 -193.080518 
L 185.541818 -192.79748 
L 185.859174 -192.518207 
L 186.176529 -192.252746 
L 186.493884 -191.997456 
L 186.81124 -191.745031 
L 187.128595 -191.481919 
L 187.44595 -191.212725 
L 187.763306 -190.943204 
L 188.080661 -190.681255 
L 188.398017 -190.43268 
L 188.715372 -190.192824 
L 189.032727 -189.962037 
L 189.350083 -189.740836 
L 189.667438 -189.531037 
L 189.984793 -189.324746 
L 190.302149 -189.120921 
L 190.619504 -188.922514 
L 190.93686 -188.719946 
L 191.254215 -188.519745 
L 191.57157 -188.330916 
L 191.888926 -188.154883 
L 192.206281 -187.991583 
L 192.523636 -187.85002 
L 192.840992 -187.723134 
L 193.158347 -187.604463 
L 193.475702 -187.485469 
L 193.793058 -187.363207 
L 194.110413 -187.233751 
L 194.427769 -187.099408 
L 194.745124 -186.962162 
L 195.062479 -186.813844 
L 195.379835 -186.656109 
L 195.69719 -186.4872 
L 196.014545 -186.321628 
L 196.331901 -186.167792 
L 196.649256 -186.030875 
L 196.966612 -185.912415 
L 197.283967 -185.802141 
L 197.601322 -185.699588 
L 197.918678 -185.604789 
L 198.236033 -185.519164 
L 198.553388 -185.44511 
L 198.870744 -185.374019 
L 199.188099 -185.301738 
L 199.505455 -185.234352 
L 199.82281 -185.180246 
L 200.140165 -185.151095 
L 200.457521 -185.129836 
L 200.774876 -185.122031 
L 201.092231 -185.120806 
L 201.409587 -185.105202 
L 201.726942 -185.070295 
L 202.044298 -185.015488 
L 202.361653 -184.948564 
L 202.679008 -184.880103 
L 202.996364 -184.814766 
L 203.313719 -184.756602 
L 203.631074 -184.706619 
L 203.94843 -184.663184 
L 204.265785 -184.629763 
L 204.58314 -184.603889 
L 204.900496 -184.588849 
L 205.217851 -184.578914 
L 205.535207 -184.578431 
L 205.852562 -184.589704 
L 206.169917 -184.609951 
L 206.487273 -184.636418 
L 206.804628 -184.674239 
L 207.121983 -184.725427 
L 207.439339 -184.792106 
L 207.756694 -184.877083 
L 208.07405 -184.972057 
L 208.391405 -185.074227 
L 208.70876 -185.183078 
L 209.026116 -185.303209 
L 209.343471 -185.437133 
L 209.660826 -185.581001 
L 209.978182 -185.737042 
L 210.295537 -185.906583 
L 210.612893 -186.085369 
L 210.930248 -186.271443 
L 211.247603 -186.469319 
L 211.564959 -186.679888 
L 211.882314 -186.902676 
L 212.199669 -187.135419 
L 212.517025 -187.375748 
L 212.83438 -187.619502 
L 213.151736 -187.8643 
L 213.469091 -188.10682 
L 213.786446 -188.35226 
L 214.103802 -188.609227 
L 214.421157 -188.875319 
L 214.738512 -189.146554 
L 215.055868 -189.41151 
L 215.373223 -189.679666 
L 215.690579 -189.948776 
L 216.007934 -190.213522 
L 216.325289 -190.475588 
L 216.642645 -190.72193 
L 216.96 -190.954175 
L 217.277355 -191.176304 
L 217.594711 -191.38767 
L 217.912066 -191.592473 
L 218.229421 -191.788741 
L 218.546777 -191.97029 
L 218.864132 -192.139465 
L 219.181488 -192.300311 
L 219.498843 -192.445163 
L 219.816198 -192.567094 
L 220.133554 -192.665027 
L 220.450909 -192.731047 
L 220.768264 -192.763782 
L 221.08562 -192.76402 
L 221.402975 -192.732451 
L 221.720331 -192.681974 
L 222.037686 -192.612124 
L 222.355041 -192.525707 
L 222.672397 -192.423466 
L 222.989752 -192.303445 
L 223.307107 -192.172645 
L 223.624463 -192.028366 
L 223.941818 -191.871546 
L 224.259174 -191.704551 
L 224.576529 -191.520764 
L 224.893884 -191.316935 
L 225.21124 -191.084912 
L 225.528595 -190.831688 
L 225.84595 -190.556648 
L 226.163306 -190.259898 
L 226.480661 -189.942293 
L 226.798017 -189.601908 
L 227.115372 -189.236311 
L 227.432727 -188.841116 
L 227.750083 -188.421371 
L 228.067438 -187.979763 
L 228.384793 -187.524314 
L 228.702149 -187.055757 
L 229.019504 -186.572665 
L 229.33686 -186.073693 
L 229.654215 -185.553856 
L 229.97157 -185.014629 
L 230.288926 -184.455074 
L 230.606281 -183.873238 
L 230.923636 -183.274086 
L 231.240992 -182.653307 
L 231.558347 -182.011783 
L 231.875702 -181.347285 
L 232.193058 -180.664538 
L 232.510413 -179.969761 
L 232.827769 -179.264926 
L 233.145124 -178.550302 
L 233.462479 -177.831296 
L 233.779835 -177.112101 
L 234.09719 -176.388445 
L 234.414545 -175.658304 
L 234.731901 -174.925357 
L 235.049256 -174.188345 
L 235.366612 -173.455685 
L 235.683967 -172.721188 
L 236.001322 -171.985279 
L 236.318678 -171.257625 
L 236.636033 -170.521717 
L 236.953388 -169.787219 
L 237.270744 -169.054559 
L 237.588099 -168.317547 
L 237.905455 -167.584601 
L 238.22281 -166.854459 
L 238.540165 -166.130804 
L 238.857521 -165.411608 
L 239.174876 -164.692603 
L 239.492231 -163.977979 
L 239.809587 -163.273143 
L 240.126942 -162.578366 
L 240.444298 -161.89562 
L 240.761653 -161.231121 
L 241.079008 -160.589597 
L 241.396364 -159.968819 
L 241.713719 -159.369666 
L 242.031074 -158.78783 
L 242.34843 -158.228276 
L 242.665785 -157.689049 
L 242.98314 -157.169211 
L 243.300496 -156.67024 
L 243.617851 -156.187147 
L 243.935207 -155.71859 
L 244.252562 -155.263141 
L 244.569917 -154.821533 
L 244.887273 -154.401789 
L 245.204628 -154.006593 
L 245.521983 -153.640996 
L 245.839339 -153.300611 
L 246.156694 -152.983006 
L 246.47405 -152.686257 
L 246.791405 -152.411216 
L 247.10876 -152.157992 
L 247.426116 -151.92597 
L 247.743471 -151.72214 
L 248.060826 -151.538354 
L 248.378182 -151.371359 
L 248.695537 -151.214539 
L 249.012893 -151.07026 
L 249.330248 -150.93946 
L 249.647603 -150.819438 
L 249.964959 -150.717197 
L 250.282314 -150.63078 
L 250.599669 -150.56093 
L 250.917025 -150.510454 
L 251.23438 -150.478885 
L 251.551736 -150.479123 
L 251.869091 -150.511857 
L 252.186446 -150.577877 
L 252.503802 -150.675811 
L 252.821157 -150.797742 
L 253.138512 -150.942593 
L 253.455868 -151.10344 
L 253.773223 -151.272615 
L 254.090579 -151.454164 
L 254.407934 -151.650432 
L 254.725289 -151.855235 
L 255.042645 -152.0666 
L 255.36 -152.288729 
L 255.677355 -152.520975 
L 255.994711 -152.767316 
L 256.312066 -153.029382 
L 256.629421 -153.294129 
L 256.946777 -153.563239 
L 257.264132 -153.831394 
L 257.581488 -154.09635 
L 257.898843 -154.367586 
L 258.216198 -154.633678 
L 258.533554 -154.890645 
L 258.850909 -155.136084 
L 259.168264 -155.378604 
L 259.48562 -155.623402 
L 259.802975 -155.867156 
L 260.120331 -156.107485 
L 260.437686 -156.340228 
L 260.755041 -156.563017 
L 261.072397 -156.773586 
L 261.389752 -156.971461 
L 261.707107 -157.157536 
L 262.024463 -157.336322 
L 262.341818 -157.505863 
L 262.659174 -157.661904 
L 262.976529 -157.805771 
L 263.293884 -157.939695 
L 263.61124 -158.059827 
L 263.928595 -158.168678 
L 264.24595 -158.270847 
L 264.563306 -158.365821 
L 264.880661 -158.450799 
L 265.198017 -158.517478 
L 265.515372 -158.568666 
L 265.832727 -158.606487 
L 266.150083 -158.632954 
L 266.467438 -158.653201 
L 266.784793 -158.664474 
L 267.102149 -158.663991 
L 267.419504 -158.654055 
L 267.73686 -158.639016 
L 268.054215 -158.613142 
L 268.37157 -158.579721 
L 268.688926 -158.536286 
L 269.006281 -158.486302 
L 269.323636 -158.428138 
L 269.640992 -158.362802 
L 269.958347 -158.294341 
L 270.275702 -158.227416 
L 270.593058 -158.17261 
L 270.910413 -158.137703 
L 271.227769 -158.122098 
L 271.545124 -158.120874 
L 271.862479 -158.113068 
L 272.179835 -158.091809 
L 272.49719 -158.062659 
L 272.814545 -158.008553 
L 273.131901 -157.941166 
L 273.449256 -157.868885 
L 273.766612 -157.797794 
L 274.083967 -157.723741 
L 274.401322 -157.638115 
L 274.718678 -157.543316 
L 275.036033 -157.440764 
L 275.353388 -157.330489 
L 275.670744 -157.212029 
L 275.988099 -157.075113 
L 276.305455 -156.921276 
L 276.62281 -156.755704 
L 276.940165 -156.586795 
L 277.257521 -156.42906 
L 277.574876 -156.280743 
L 277.892231 -156.143497 
L 278.209587 -156.009154 
L 278.526942 -155.879698 
L 278.844298 -155.757436 
L 279.161653 -155.638442 
L 279.479008 -155.519771 
L 279.796364 -155.392884 
L 280.113719 -155.251322 
L 280.431074 -155.088022 
L 280.74843 -154.911988 
L 281.065785 -154.72316 
L 281.38314 -154.522959 
L 281.700496 -154.32039 
L 282.017851 -154.121984 
L 282.335207 -153.918159 
L 282.652562 -153.711868 
L 282.969917 -153.502068 
L 283.287273 -153.280867 
L 283.604628 -153.05008 
L 283.921983 -152.810225 
L 284.239339 -152.561649 
L 284.556694 -152.299701 
L 284.87405 -152.03018 
L 285.191405 -151.760985 
L 285.50876 -151.497874 
L 285.826116 -151.245449 
L 286.143471 -150.990158 
L 286.460826 -150.724698 
L 286.778182 -150.445424 
L 287.095537 -150.162387 
L 287.412893 -149.878709 
L 287.730248 -149.596679 
L 288.047603 -149.307792 
L 288.364959 -149.015088 
L 288.682314 -148.731102 
L 288.999669 -148.466488 
L 289.317025 -148.214895 
L 289.63438 -147.976694 
L 289.951736 -147.747382 
L 290.269091 -147.525744 
L 290.586446 -147.306496 
L 290.903802 -147.07975 
L 291.221157 -146.830221 
L 291.538512 -146.552243 
L 291.855868 -146.248032 
L 292.173223 -145.932442 
L 292.490579 -145.615587 
L 292.807934 -145.291443 
L 293.125289 -144.990328 
L 293.442645 -144.702531 
L 293.76 -144.416118 
L 294.077355 -144.137491 
L 294.394711 -143.886089 
L 294.712066 -143.666045 
L 295.029421 -143.471207 
L 295.346777 -143.296922 
L 295.664132 -143.135202 
L 295.981488 -142.984043 
L 296.298843 -142.85204 
L 296.616198 -142.729563 
L 296.933554 -142.60581 
L 297.250909 -142.474907 
L 297.568264 -142.323403 
L 297.88562 -142.165194 
L 298.202975 -141.99154 
L 298.520331 -141.800317 
L 298.837686 -141.6019 
L 299.155041 -141.393192 
L 299.472397 -141.178984 
L 299.789752 -140.962637 
L 300.107107 -140.75228 
L 300.424463 -140.557866 
L 300.741818 -140.398261 
L 301.059174 -140.275611 
L 301.376529 -140.186032 
L 301.693884 -140.121599 
L 302.01124 -140.062326 
L 302.328595 -139.990481 
L 302.64595 -139.90719 
L 302.963306 -139.807846 
L 303.280661 -139.695082 
L 303.598017 -139.582992 
L 303.915372 -139.469821 
L 304.232727 -139.363402 
L 304.550083 -139.260346 
L 304.867438 -139.155094 
L 305.184793 -139.037143 
L 305.502149 -138.897461 
L 305.819504 -138.734988 
L 306.13686 -138.532513 
L 306.454215 -138.303049 
L 306.77157 -138.057805 
L 307.088926 -137.793183 
L 307.406281 -137.49768 
L 307.723636 -137.181589 
L 308.040992 -136.847012 
L 308.358347 -136.512749 
L 308.675702 -136.184288 
L 308.993058 -135.847258 
L 309.310413 -135.496451 
L 309.627769 -135.147021 
L 309.945124 -134.798985 
L 310.262479 -134.46195 
L 310.579835 -134.13866 
L 310.89719 -133.812937 
L 311.214545 -133.472777 
L 311.531901 -133.118626 
L 311.849256 -132.752707 
L 312.166612 -132.371482 
L 312.483967 -131.967899 
L 312.801322 -131.539116 
L 313.118678 -131.088926 
L 313.436033 -130.598526 
L 313.753388 -130.070556 
L 314.070744 -129.510722 
L 314.388099 -128.900397 
L 314.705455 -128.213824 
L 315.02281 -127.46262 
L 315.340165 -126.662137 
L 315.657521 -125.828582 
L 315.974876 -124.976095 
L 316.292231 -124.105332 
L 316.609587 -123.22299 
L 316.926942 -122.34836 
L 317.244298 -121.489912 
L 317.561653 -120.649376 
L 317.879008 -119.836757 
L 318.196364 -119.043032 
L 318.513719 -118.275632 
L 318.831074 -117.53264 
L 319.14843 -116.7945 
L 319.465785 -116.06216 
L 319.78314 -115.338195 
L 320.100496 -114.620098 
L 320.417851 -113.907882 
L 320.735207 -113.201855 
L 321.052562 -112.475015 
L 321.369917 -111.71797 
L 321.687273 -110.932548 
L 322.004628 -110.116572 
L 322.321983 -109.301713 
L 322.639339 -108.507394 
L 322.956694 -107.744288 
L 323.27405 -107.017108 
L 323.591405 -106.312621 
L 323.90876 -105.624584 
L 324.226116 -104.951963 
L 324.543471 -104.281177 
L 324.860826 -103.620448 
L 325.178182 -102.994456 
L 325.495537 -102.410033 
L 325.812893 -101.863435 
L 326.130248 -101.358058 
L 326.447603 -100.897838 
L 326.764959 -100.477207 
L 327.082314 -100.09659 
L 327.399669 -99.752464 
L 327.717025 -99.453842 
L 328.03438 -99.191848 
L 328.351736 -98.967634 
L 328.669091 -98.768253 
L 328.986446 -98.582468 
L 329.303802 -98.399114 
L 329.621157 -98.208598 
L 329.938512 -97.98734 
L 330.255868 -97.73879 
L 330.573223 -97.45454 
L 330.890579 -97.134191 
L 331.207934 -96.796058 
L 331.525289 -96.463016 
L 331.842645 -96.147965 
L 332.16 -95.854182 
L 332.477355 -95.596292 
L 332.794711 -95.38571 
L 333.112066 -95.213787 
L 333.429421 -95.068916 
L 333.746777 -94.967795 
L 334.064132 -94.915064 
L 334.381488 -94.925102 
L 334.698843 -95.011274 
L 335.016198 -95.186588 
L 335.333554 -95.435558 
L 335.650909 -95.735349 
L 335.968264 -96.084454 
L 336.28562 -96.477363 
L 336.602975 -96.90779 
L 336.920331 -97.36124 
L 337.237686 -97.81261 
L 337.555041 -98.263383 
L 337.872397 -98.710569 
L 338.189752 -99.153863 
L 338.507107 -99.596617 
L 338.824463 -100.03797 
L 339.141818 -100.478288 
L 339.459174 -100.938342 
L 339.776529 -101.441406 
L 340.093884 -101.989507 
L 340.41124 -102.575585 
L 340.728595 -103.188151 
L 341.04595 -103.795391 
L 341.363306 -104.431576 
L 341.680661 -105.112078 
L 341.998017 -105.865559 
L 342.315372 -106.70864 
L 342.632727 -107.582119 
L 342.950083 -108.464068 
L 343.267438 -109.326603 
L 343.584793 -110.172463 
L 343.902149 -111.022002 
L 344.219504 -111.871842 
L 344.53686 -112.735405 
L 344.854215 -113.627991 
L 345.17157 -114.521353 
L 345.488926 -115.385617 
L 345.806281 -116.227441 
L 346.123636 -117.042369 
L 346.440992 -117.827111 
L 346.758347 -118.587884 
L 347.075702 -119.30531 
L 347.393058 -119.964867 
L 347.710413 -120.583249 
L 348.027769 -121.164808 
L 348.345124 -121.710153 
L 348.662479 -122.229924 
L 348.979835 -122.730031 
L 349.29719 -123.210214 
L 349.614545 -123.695512 
L 349.931901 -124.185477 
L 350.249256 -124.682905 
L 350.566612 -125.170588 
L 350.883967 -125.640262 
L 351.201322 -126.094689 
L 351.518678 -126.537558 
L 351.836033 -126.95942 
L 352.153388 -127.349867 
L 352.470744 -127.707195 
L 352.788099 -128.017045 
L 353.105455 -128.277182 
L 353.42281 -128.506322 
L 353.740165 -128.738519 
L 354.057521 -128.955767 
L 354.374876 -129.142123 
L 354.692231 -129.264043 
L 355.009587 -129.321915 
L 355.326942 -129.339449 
L 355.644298 -129.315517 
L 355.961653 -129.271332 
L 356.279008 -129.201148 
L 356.596364 -129.09941 
L 356.913719 -128.973291 
L 357.231074 -128.830331 
L 357.54843 -128.688141 
L 357.865785 -128.540273 
L 358.18314 -128.39805 
L 358.500496 -128.264427 
L 358.817851 -128.130388 
L 359.135207 -127.99408 
L 359.452562 -127.880052 
L 359.769917 -127.796492 
L 360.087273 -127.698 
L 360.404628 -127.58691 
L 360.721983 -127.471924 
L 361.039339 -127.334184 
L 361.356694 -127.227849 
L 361.67405 -127.161515 
L 361.991405 -127.11053 
L 362.30876 -127.024352 
L 362.626116 -126.920435 
L 362.943471 -126.84014 
L 363.260826 -126.774963 
L 363.578182 -126.73082 
L 363.895537 -126.647301 
L 364.212893 -126.561384 
L 364.530248 -126.477694 
L 364.847603 -126.376402 
L 365.164959 -126.239732 
L 365.482314 -126.075085 
L 365.799669 -125.865635 
L 366.117025 -125.575303 
L 366.43438 -125.23367 
L 366.751736 -124.826672 
L 367.069091 -124.332271 
L 367.386446 -123.810329 
L 367.703802 -123.311939 
L 368.021157 -122.849724 
L 368.338512 -122.41294 
L 368.655868 -122.023402 
L 368.973223 -121.62669 
L 369.290579 -121.128674 
L 369.607934 -120.50249 
L 369.925289 -119.748415 
L 370.242645 -118.896727 
L 370.56 -117.954813 
L 370.877355 -116.963776 
L 371.194711 -115.986704 
L 371.512066 -115.069392 
L 371.829421 -114.17431 
L 372.146777 -113.275205 
L 372.464132 -112.338993 
L 372.781488 -111.384109 
L 373.098843 -110.442435 
L 373.416198 -109.490122 
L 373.733554 -108.531046 
L 374.050909 -107.521331 
L 374.368264 -106.463986 
L 374.68562 -105.397455 
L 375.002975 -104.332725 
L 375.320331 -103.25831 
L 375.637686 -102.129651 
L 375.955041 -101.013923 
L 376.272397 -99.922738 
L 376.589752 -98.822678 
L 376.907107 -97.73685 
L 377.224463 -96.659166 
L 377.541818 -95.588442 
L 377.859174 -94.493344 
L 378.176529 -93.356668 
L 378.493884 -92.174366 
L 378.81124 -90.978203 
L 379.128595 -89.778002 
L 379.44595 -88.577149 
L 379.763306 -87.357062 
L 380.080661 -86.101265 
L 380.398017 -84.834791 
L 380.715372 -83.55119 
L 381.032727 -82.248198 
L 381.350083 -80.953535 
L 381.667438 -79.640275 
L 381.984793 -78.282241 
L 382.302149 -76.8926 
L 382.619504 -75.494634 
L 382.93686 -74.06173 
L 383.254215 -72.589178 
L 383.57157 -71.097399 
L 383.888926 -69.599055 
L 384.206281 -68.148681 
L 384.523636 -66.699711 
L 384.840992 -65.248124 
L 385.158347 -63.797516 
L 385.475702 -62.355614 
L 385.793058 -60.933391 
L 386.110413 -59.556207 
L 386.427769 -58.249231 
L 386.745124 -56.989657 
L 387.062479 -55.787041 
L 387.379835 -54.658982 
L 387.69719 -53.563095 
L 388.014545 -52.453074 
L 388.331901 -51.30314 
L 388.649256 -50.112 
L 388.966612 -51.100488 
L 389.283967 -52.096448 
L 389.601322 -53.187922 
L 389.918678 -54.407796 
L 390.236033 -55.746144 
L 390.553388 -57.181258 
L 390.870744 -58.717874 
L 391.188099 -60.329326 
L 391.505455 -61.963532 
L 391.82281 -63.570563 
L 392.140165 -65.180552 
L 392.457521 -66.819744 
L 392.774876 -68.525498 
L 393.092231 -70.280604 
L 393.409587 -72.05806 
L 393.726942 -73.877579 
L 394.044298 -75.724411 
L 394.361653 -77.617746 
L 394.679008 -79.559312 
L 394.996364 -81.521614 
L 395.313719 -83.512096 
L 395.631074 -85.539171 
L 395.94843 -87.623848 
L 396.265785 -89.703985 
L 396.58314 -91.757602 
L 396.900496 -93.81473 
L 397.217851 -95.856656 
L 397.535207 -97.8887 
L 397.852562 -99.912837 
L 398.169917 -101.955951 
L 398.487273 -171.621452 
L 398.487273 -171.621452 
L 398.487273 -171.621452 
L 398.169917 -171.621452 
L 397.852562 -171.621452 
L 397.535207 -171.621452 
L 397.217851 -171.621452 
L 396.900496 -171.621452 
L 396.58314 -171.621452 
L 396.265785 -171.621452 
L 395.94843 -171.621452 
L 395.631074 -171.621452 
L 395.313719 -171.621452 
L 394.996364 -171.621452 
L 394.679008 -171.621452 
L 394.361653 -171.621452 
L 394.044298 -171.621452 
L 393.726942 -171.621452 
L 393.409587 -171.621452 
L 393.092231 -171.621452 
L 392.774876 -171.621452 
L 392.457521 -171.621452 
L 392.140165 -171.621452 
L 391.82281 -171.621452 
L 391.505455 -171.621452 
L 391.188099 -171.621452 
L 390.870744 -171.621452 
L 390.553388 -171.621452 
L 390.236033 -171.621452 
L 389.918678 -171.621452 
L 389.601322 -171.621452 
L 389.283967 -171.621452 
L 388.966612 -171.621452 
L 388.649256 -171.621452 
L 388.331901 -171.621452 
L 388.014545 -171.621452 
L 387.69719 -171.621452 
L 387.379835 -171.621452 
L 387.062479 -171.621452 
L 386.745124 -171.621452 
L 386.427769 -171.621452 
L 386.110413 -171.621452 
L 385.793058 -171.621452 
L 385.475702 -171.621452 
L 385.158347 -171.621452 
L 384.840992 -171.621452 
L 384.523636 -171.621452 
L 384.206281 -171.621452 
L 383.888926 -171.621452 
L 383.57157 -171.621452 
L 383.254215 -171.621452 
L 382.93686 -171.621452 
L 382.619504 -171.621452 
L 382.302149 -171.621452 
L 381.984793 -171.621452 
L 381.667438 -171.621452 
L 381.350083 -171.621452 
L 381.032727 -171.621452 
L 380.715372 -171.621452 
L 380.398017 -171.621452 
L 380.080661 -171.621452 
L 379.763306 -171.621452 
L 379.44595 -171.621452 
L 379.128595 -171.621452 
L 378.81124 -171.621452 
L 378.493884 -171.621452 
L 378.176529 -171.621452 
L 377.859174 -171.621452 
L 377.541818 -171.621452 
L 377.224463 -171.621452 
L 376.907107 -171.621452 
L 376.589752 -171.621452 
L 376.272397 -171.621452 
L 375.955041 -171.621452 
L 375.637686 -171.621452 
L 375.320331 -171.621452 
L 375.002975 -171.621452 
L 374.68562 -171.621452 
L 374.368264 -171.621452 
L 374.050909 -171.621452 
L 373.733554 -171.621452 
L 373.416198 -171.621452 
L 373.098843 -171.621452 
L 372.781488 -171.621452 
L 372.464132 -171.621452 
L 372.146777 -171.621452 
L 371.829421 -171.621452 
L 371.512066 -171.621452 
L 371.194711 -171.621452 
L 370.877355 -171.621452 
L 370.56 -171.621452 
L 370.242645 -171.621452 
L 369.925289 -171.621452 
L 369.607934 -171.621452 
L 369.290579 -171.621452 
L 368.973223 -171.621452 
L 368.655868 -171.621452 
L 368.338512 -171.621452 
L 368.021157 -171.621452 
L 367.703802 -171.621452 
L 367.386446 -171.621452 
L 367.069091 -171.621452 
L 366.751736 -171.621452 
L 366.43438 -171.621452 
L 366.117025 -171.621452 
L 365.799669 -171.621452 
L 365.482314 -171.621452 
L 365.164959 -171.621452 
L 364.847603 -171.621452 
L 364.530248 -171.621452 
L 364.212893 -171.621452 
L 363.895537 -171.621452 
L 363.578182 -171.621452 
L 363.260826 -171.621452 
L 362.943471 -171.621452 
L 362.626116 -171.621452 
L 362.30876 -171.621452 
L 361.991405 -171.621452 
L 361.67405 -171.621452 
L 361.356694 -171.621452 
L 361.039339 -171.621452 
L 360.721983 -171.621452 
L 360.404628 -171.621452 
L 360.087273 -171.621452 
L 359.769917 -171.621452 
L 359.452562 -171.621452 
L 359.135207 -171.621452 
L 358.817851 -171.621452 
L 358.500496 -171.621452 
L 358.18314 -171.621452 
L 357.865785 -171.621452 
L 357.54843 -171.621452 
L 357.231074 -171.621452 
L 356.913719 -171.621452 
L 356.596364 -171.621452 
L 356.279008 -171.621452 
L 355.961653 -171.621452 
L 355.644298 -171.621452 
L 355.326942 -171.621452 
L 355.009587 -171.621452 
L 354.692231 -171.621452 
L 354.374876 -171.621452 
L 354.057521 -171.621452 
L 353.740165 -171.621452 
L 353.42281 -171.621452 
L 353.105455 -171.621452 
L 352.788099 -171.621452 
L 352.470744 -171.621452 
L 352.153388 -171.621452 
L 351.836033 -171.621452 
L 351.518678 -171.621452 
L 351.201322 -171.621452 
L 350.883967 -171.621452 
L 350.566612 -171.621452 
L 350.249256 -171.621452 
L 349.931901 -171.621452 
L 349.614545 -171.621452 
L 349.29719 -171.621452 
L 348.979835 -171.621452 
L 348.662479 -171.621452 
L 348.345124 -171.621452 
L 348.027769 -171.621452 
L 347.710413 -171.621452 
L 347.393058 -171.621452 
L 347.075702 -171.621452 
L 346.758347 -171.621452 
L 346.440992 -171.621452 
L 346.123636 -171.621452 
L 345.806281 -171.621452 
L 345.488926 -171.621452 
L 345.17157 -171.621452 
L 344.854215 -171.621452 
L 344.53686 -171.621452 
L 344.219504 -171.621452 
L 343.902149 -171.621452 
L 343.584793 -171.621452 
L 343.267438 -171.621452 
L 342.950083 -171.621452 
L 342.632727 -171.621452 
L 342.315372 -171.621452 
L 341.998017 -171.621452 
L 341.680661 -171.621452 
L 341.363306 -171.621452 
L 341.04595 -171.621452 
L 340.728595 -171.621452 
L 340.41124 -171.621452 
L 340.093884 -171.621452 
L 339.776529 -171.621452 
L 339.459174 -171.621452 
L 339.141818 -171.621452 
L 338.824463 -171.621452 
L 338.507107 -171.621452 
L 338.189752 -171.621452 
L 337.872397 -171.621452 
L 337.555041 -171.621452 
L 337.237686 -171.621452 
L 336.920331 -171.621452 
L 336.602975 -171.621452 
L 336.28562 -171.621452 
L 335.968264 -171.621452 
L 335.650909 -171.621452 
L 335.333554 -171.621452 
L 335.016198 -171.621452 
L 334.698843 -171.621452 
L 334.381488 -171.621452 
L 334.064132 -171.621452 
L 333.746777 -171.621452 
L 333.429421 -171.621452 
L 333.112066 -171.621452 
L 332.794711 -171.621452 
L 332.477355 -171.621452 
L 332.16 -171.621452 
L 331.842645 -171.621452 
L 331.525289 -171.621452 
L 331.207934 -171.621452 
L 330.890579 -171.621452 
L 330.573223 -171.621452 
L 330.255868 -171.621452 
L 329.938512 -171.621452 
L 329.621157 -171.621452 
L 329.303802 -171.621452 
L 328.986446 -171.621452 
L 328.669091 -171.621452 
L 328.351736 -171.621452 
L 328.03438 -171.621452 
L 327.717025 -171.621452 
L 327.399669 -171.621452 
L 327.082314 -171.621452 
L 326.764959 -171.621452 
L 326.447603 -171.621452 
L 326.130248 -171.621452 
L 325.812893 -171.621452 
L 325.495537 -171.621452 
L 325.178182 -171.621452 
L 324.860826 -171.621452 
L 324.543471 -171.621452 
L 324.226116 -171.621452 
L 323.90876 -171.621452 
L 323.591405 -171.621452 
L 323.27405 -171.621452 
L 322.956694 -171.621452 
L 322.639339 -171.621452 
L 322.321983 -171.621452 
L 322.004628 -171.621452 
L 321.687273 -171.621452 
L 321.369917 -171.621452 
L 321.052562 -171.621452 
L 320.735207 -171.621452 
L 320.417851 -171.621452 
L 320.100496 -171.621452 
L 319.78314 -171.621452 
L 319.465785 -171.621452 
L 319.14843 -171.621452 
L 318.831074 -171.621452 
L 318.513719 -171.621452 
L 318.196364 -171.621452 
L 317.879008 -171.621452 
L 317.561653 -171.621452 
L 317.244298 -171.621452 
L 316.926942 -171.621452 
L 316.609587 -171.621452 
L 316.292231 -171.621452 
L 315.974876 -171.621452 
L 315.657521 -171.621452 
L 315.340165 -171.621452 
L 315.02281 -171.621452 
L 314.705455 -171.621452 
L 314.388099 -171.621452 
L 314.070744 -171.621452 
L 313.753388 -171.621452 
L 313.436033 -171.621452 
L 313.118678 -171.621452 
L 312.801322 -171.621452 
L 312.483967 -171.621452 
L 312.166612 -171.621452 
L 311.849256 -171.621452 
L 311.531901 -171.621452 
L 311.214545 -171.621452 
L 310.89719 -171.621452 
L 310.579835 -171.621452 
L 310.262479 -171.621452 
L 309.945124 -171.621452 
L 309.627769 -171.621452 
L 309.310413 -171.621452 
L 308.993058 -171.621452 
L 308.675702 -171.621452 
L 308.358347 -171.621452 
L 308.040992 -171.621452 
L 307.723636 -171.621452 
L 307.406281 -171.621452 
L 307.088926 -171.621452 
L 306.77157 -171.621452 
L 306.454215 -171.621452 
L 306.13686 -171.621452 
L 305.819504 -171.621452 
L 305.502149 -171.621452 
L 305.184793 -171.621452 
L 304.867438 -171.621452 
L 304.550083 -171.621452 
L 304.232727 -171.621452 
L 303.915372 -171.621452 
L 303.598017 -171.621452 
L 303.280661 -171.621452 
L 302.963306 -171.621452 
L 302.64595 -171.621452 
L 302.328595 -171.621452 
L 302.01124 -171.621452 
L 301.693884 -171.621452 
L 301.376529 -171.621452 
L 301.059174 -171.621452 
L 300.741818 -171.621452 
L 300.424463 -171.621452 
L 300.107107 -171.621452 
L 299.789752 -171.621452 
L 299.472397 -171.621452 
L 299.155041 -171.621452 
L 298.837686 -171.621452 
L 298.520331 -171.621452 
L 298.202975 -171.621452 
L 297.88562 -171.621452 
L 297.568264 -171.621452 
L 297.250909 -171.621452 
L 296.933554 -171.621452 
L 296.616198 -171.621452 
L 296.298843 -171.621452 
L 295.981488 -171.621452 
L 295.664132 -171.621452 
L 295.346777 -171.621452 
L 295.029421 -171.621452 
L 294.712066 -171.621452 
L 294.394711 -171.621452 
L 294.077355 -171.621452 
L 293.76 -171.621452 
L 293.442645 -171.621452 
L 293.125289 -171.621452 
L 292.807934 -171.621452 
L 292.490579 -171.621452 
L 292.173223 -171.621452 
L 291.855868 -171.621452 
L 291.538512 -171.621452 
L 291.221157 -171.621452 
L 290.903802 -171.621452 
L 290.586446 -171.621452 
L 290.269091 -171.621452 
L 289.951736 -171.621452 
L 289.63438 -171.621452 
L 289.317025 -171.621452 
L 288.999669 -171.621452 
L 288.682314 -171.621452 
L 288.364959 -171.621452 
L 288.047603 -171.621452 
L 287.730248 -171.621452 
L 287.412893 -171.621452 
L 287.095537 -171.621452 
L 286.778182 -171.621452 
L 286.460826 -171.621452 
L 286.143471 -171.621452 
L 285.826116 -171.621452 
L 285.50876 -171.621452 
L 285.191405 -171.621452 
L 284.87405 -171.621452 
L 284.556694 -171.621452 
L 284.239339 -171.621452 
L 283.921983 -171.621452 
L 283.604628 -171.621452 
L 283.287273 -171.621452 
L 282.969917 -171.621452 
L 282.652562 -171.621452 
L 282.335207 -171.621452 
L 282.017851 -171.621452 
L 281.700496 -171.621452 
L 281.38314 -171.621452 
L 281.065785 -171.621452 
L 280.74843 -171.621452 
L 280.431074 -171.621452 
L 280.113719 -171.621452 
L 279.796364 -171.621452 
L 279.479008 -171.621452 
L 279.161653 -171.621452 
L 278.844298 -171.621452 
L 278.526942 -171.621452 
L 278.209587 -171.621452 
L 277.892231 -171.621452 
L 277.574876 -171.621452 
L 277.257521 -171.621452 
L 276.940165 -171.621452 
L 276.62281 -171.621452 
L 276.305455 -171.621452 
L 275.988099 -171.621452 
L 275.670744 -171.621452 
L 275.353388 -171.621452 
L 275.036033 -171.621452 
L 274.718678 -171.621452 
L 274.401322 -171.621452 
L 274.083967 -171.621452 
L 273.766612 -171.621452 
L 273.449256 -171.621452 
L 273.131901 -171.621452 
L 272.814545 -171.621452 
L 272.49719 -171.621452 
L 272.179835 -171.621452 
L 271.862479 -171.621452 
L 271.545124 -171.621452 
L 271.227769 -171.621452 
L 270.910413 -171.621452 
L 270.593058 -171.621452 
L 270.275702 -171.621452 
L 269.958347 -171.621452 
L 269.640992 -171.621452 
L 269.323636 -171.621452 
L 269.006281 -171.621452 
L 268.688926 -171.621452 
L 268.37157 -171.621452 
L 268.054215 -171.621452 
L 267.73686 -171.621452 
L 267.419504 -171.621452 
L 267.102149 -171.621452 
L 266.784793 -171.621452 
L 266.467438 -171.621452 
L 266.150083 -171.621452 
L 265.832727 -171.621452 
L 265.515372 -171.621452 
L 265.198017 -171.621452 
L 264.880661 -171.621452 
L 264.563306 -171.621452 
L 264.24595 -171.621452 
L 263.928595 -171.621452 
L 263.61124 -171.621452 
L 263.293884 -171.621452 
L 262.976529 -171.621452 
L 262.659174 -171.621452 
L 262.341818 -171.621452 
L 262.024463 -171.621452 
L 261.707107 -171.621452 
L 261.389752 -171.621452 
L 261.072397 -171.621452 
L 260.755041 -171.621452 
L 260.437686 -171.621452 
L 260.120331 -171.621452 
L 259.802975 -171.621452 
L 259.48562 -171.621452 
L 259.168264 -171.621452 
L 258.850909 -171.621452 
L 258.533554 -171.621452 
L 258.216198 -171.621452 
L 257.898843 -171.621452 
L 257.581488 -171.621452 
L 257.264132 -171.621452 
L 256.946777 -171.621452 
L 256.629421 -171.621452 
L 256.312066 -171.621452 
L 255.994711 -171.621452 
L 255.677355 -171.621452 
L 255.36 -171.621452 
L 255.042645 -171.621452 
L 254.725289 -171.621452 
L 254.407934 -171.621452 
L 254.090579 -171.621452 
L 253.773223 -171.621452 
L 253.455868 -171.621452 
L 253.138512 -171.621452 
L 252.821157 -171.621452 
L 252.503802 -171.621452 
L 252.186446 -171.621452 
L 251.869091 -171.621452 
L 251.551736 -171.621452 
L 251.23438 -171.621452 
L 250.917025 -171.621452 
L 250.599669 -171.621452 
L 250.282314 -171.621452 
L 249.964959 -171.621452 
L 249.647603 -171.621452 
L 249.330248 -171.621452 
L 249.012893 -171.621452 
L 248.695537 -171.621452 
L 248.378182 -171.621452 
L 248.060826 -171.621452 
L 247.743471 -171.621452 
L 247.426116 -171.621452 
L 247.10876 -171.621452 
L 246.791405 -171.621452 
L 246.47405 -171.621452 
L 246.156694 -171.621452 
L 245.839339 -171.621452 
L 245.521983 -171.621452 
L 245.204628 -171.621452 
L 244.887273 -171.621452 
L 244.569917 -171.621452 
L 244.252562 -171.621452 
L 243.935207 -171.621452 
L 243.617851 -171.621452 
L 243.300496 -171.621452 
L 242.98314 -171.621452 
L 242.665785 -171.621452 
L 242.34843 -171.621452 
L 242.031074 -171.621452 
L 241.713719 -171.621452 
L 241.396364 -171.621452 
L 241.079008 -171.621452 
L 240.761653 -171.621452 
L 240.444298 -171.621452 
L 240.126942 -171.621452 
L 239.809587 -171.621452 
L 239.492231 -171.621452 
L 239.174876 -171.621452 
L 238.857521 -171.621452 
L 238.540165 -171.621452 
L 238.22281 -171.621452 
L 237.905455 -171.621452 
L 237.588099 -171.621452 
L 237.270744 -171.621452 
L 236.953388 -171.621452 
L 236.636033 -171.621452 
L 236.318678 -171.621452 
L 236.001322 -171.621452 
L 235.683967 -171.621452 
L 235.366612 -171.621452 
L 235.049256 -171.621452 
L 234.731901 -171.621452 
L 234.414545 -171.621452 
L 234.09719 -171.621452 
L 233.779835 -171.621452 
L 233.462479 -171.621452 
L 233.145124 -171.621452 
L 232.827769 -171.621452 
L 232.510413 -171.621452 
L 232.193058 -171.621452 
L 231.875702 -171.621452 
L 231.558347 -171.621452 
L 231.240992 -171.621452 
L 230.923636 -171.621452 
L 230.606281 -171.621452 
L 230.288926 -171.621452 
L 229.97157 -171.621452 
L 229.654215 -171.621452 
L 229.33686 -171.621452 
L 229.019504 -171.621452 
L 228.702149 -171.621452 
L 228.384793 -171.621452 
L 228.067438 -171.621452 
L 227.750083 -171.621452 
L 227.432727 -171.621452 
L 227.115372 -171.621452 
L 226.798017 -171.621452 
L 226.480661 -171.621452 
L 226.163306 -171.621452 
L 225.84595 -171.621452 
L 225.528595 -171.621452 
L 225.21124 -171.621452 
L 224.893884 -171.621452 
L 224.576529 -171.621452 
L 224.259174 -171.621452 
L 223.941818 -171.621452 
L 223.624463 -171.621452 
L 223.307107 -171.621452 
L 222.989752 -171.621452 
L 222.672397 -171.621452 
L 222.355041 -171.621452 
L 222.037686 -171.621452 
L 221.720331 -171.621452 
L 221.402975 -171.621452 
L 221.08562 -171.621452 
L 220.768264 -171.621452 
L 220.450909 -171.621452 
L 220.133554 -171.621452 
L 219.816198 -171.621452 
L 219.498843 -171.621452 
L 219.181488 -171.621452 
L 218.864132 -171.621452 
L 218.546777 -171.621452 
L 218.229421 -171.621452 
L 217.912066 -171.621452 
L 217.594711 -171.621452 
L 217.277355 -171.621452 
L 216.96 -171.621452 
L 216.642645 -171.621452 
L 216.325289 -171.621452 
L 216.007934 -171.621452 
L 215.690579 -171.621452 
L 215.373223 -171.621452 
L 215.055868 -171.621452 
L 214.738512 -171.621452 
L 214.421157 -171.621452 
L 214.103802 -171.621452 
L 213.786446 -171.621452 
L 213.469091 -171.621452 
L 213.151736 -171.621452 
L 212.83438 -171.621452 
L 212.517025 -171.621452 
L 212.199669 -171.621452 
L 211.882314 -171.621452 
L 211.564959 -171.621452 
L 211.247603 -171.621452 
L 210.930248 -171.621452 
L 210.612893 -171.621452 
L 210.295537 -171.621452 
L 209.978182 -171.621452 
L 209.660826 -171.621452 
L 209.343471 -171.621452 
L 209.026116 -171.621452 
L 208.70876 -171.621452 
L 208.391405 -171.621452 
L 208.07405 -171.621452 
L 207.756694 -171.621452 
L 207.439339 -171.621452 
L 207.121983 -171.621452 
L 206.804628 -171.621452 
L 206.487273 -171.621452 
L 206.169917 -171.621452 
L 205.852562 -171.621452 
L 205.535207 -171.621452 
L 205.217851 -171.621452 
L 204.900496 -171.621452 
L 204.58314 -171.621452 
L 204.265785 -171.621452 
L 203.94843 -171.621452 
L 203.631074 -171.621452 
L 203.313719 -171.621452 
L 202.996364 -171.621452 
L 202.679008 -171.621452 
L 202.361653 -171.621452 
L 202.044298 -171.621452 
L 201.726942 -171.621452 
L 201.409587 -171.621452 
L 201.092231 -171.621452 
L 200.774876 -171.621452 
L 200.457521 -171.621452 
L 200.140165 -171.621452 
L 199.82281 -171.621452 
L 199.505455 -171.621452 
L 199.188099 -171.621452 
L 198.870744 -171.621452 
L 198.553388 -171.621452 
L 198.236033 -171.621452 
L 197.918678 -171.621452 
L 197.601322 -171.621452 
L 197.283967 -171.621452 
L 196.966612 -171.621452 
L 196.649256 -171.621452 
L 196.331901 -171.621452 
L 196.014545 -171.621452 
L 195.69719 -171.621452 
L 195.379835 -171.621452 
L 195.062479 -171.621452 
L 194.745124 -171.621452 
L 194.427769 -171.621452 
L 194.110413 -171.621452 
L 193.793058 -171.621452 
L 193.475702 -171.621452 
L 193.158347 -171.621452 
L 192.840992 -171.621452 
L 192.523636 -171.621452 
L 192.206281 -171.621452 
L 191.888926 -171.621452 
L 191.57157 -171.621452 
L 191.254215 -171.621452 
L 190.93686 -171.621452 
L 190.619504 -171.621452 
L 190.302149 -171.621452 
L 189.984793 -171.621452 
L 189.667438 -171.621452 
L 189.350083 -171.621452 
L 189.032727 -171.621452 
L 188.715372 -171.621452 
L 188.398017 -171.621452 
L 188.080661 -171.621452 
L 187.763306 -171.621452 
L 187.44595 -171.621452 
L 187.128595 -171.621452 
L 186.81124 -171.621452 
L 186.493884 -171.621452 
L 186.176529 -171.621452 
L 185.859174 -171.621452 
L 185.541818 -171.621452 
L 185.224463 -171.621452 
L 184.907107 -171.621452 
L 184.589752 -171.621452 
L 184.272397 -171.621452 
L 183.955041 -171.621452 
L 183.637686 -171.621452 
L 183.320331 -171.621452 
L 183.002975 -171.621452 
L 182.68562 -171.621452 
L 182.368264 -171.621452 
L 182.050909 -171.621452 
L 181.733554 -171.621452 
L 181.416198 -171.621452 
L 181.098843 -171.621452 
L 180.781488 -171.621452 
L 180.464132 -171.621452 
L 180.146777 -171.621452 
L 179.829421 -171.621452 
L 179.512066 -171.621452 
L 179.194711 -171.621452 
L 178.877355 -171.621452 
L 178.56 -171.621452 
L 178.242645 -171.621452 
L 177.925289 -171.621452 
L 177.607934 -171.621452 
L 177.290579 -171.621452 
L 176.973223 -171.621452 
L 176.655868 -171.621452 
L 176.338512 -171.621452 
L 176.021157 -171.621452 
L 175.703802 -171.621452 
L 175.386446 -171.621452 
L 175.069091 -171.621452 
L 174.751736 -171.621452 
L 174.43438 -171.621452 
L 174.117025 -171.621452 
L 173.799669 -171.621452 
L 173.482314 -171.621452 
L 173.164959 -171.621452 
L 172.847603 -171.621452 
L 172.530248 -171.621452 
L 172.212893 -171.621452 
L 171.895537 -171.621452 
L 171.578182 -171.621452 
L 171.260826 -171.621452 
L 170.943471 -171.621452 
L 170.626116 -171.621452 
L 170.30876 -171.621452 
L 169.991405 -171.621452 
L 169.67405 -171.621452 
L 169.356694 -171.621452 
L 169.039339 -171.621452 
L 168.721983 -171.621452 
L 168.404628 -171.621452 
L 168.087273 -171.621452 
L 167.769917 -171.621452 
L 167.452562 -171.621452 
L 167.135207 -171.621452 
L 166.817851 -171.621452 
L 166.500496 -171.621452 
L 166.18314 -171.621452 
L 165.865785 -171.621452 
L 165.54843 -171.621452 
L 165.231074 -171.621452 
L 164.913719 -171.621452 
L 164.596364 -171.621452 
L 164.279008 -171.621452 
L 163.961653 -171.621452 
L 163.644298 -171.621452 
L 163.326942 -171.621452 
L 163.009587 -171.621452 
L 162.692231 -171.621452 
L 162.374876 -171.621452 
L 162.057521 -171.621452 
L 161.740165 -171.621452 
L 161.42281 -171.621452 
L 161.105455 -171.621452 
L 160.788099 -171.621452 
L 160.470744 -171.621452 
L 160.153388 -171.621452 
L 159.836033 -171.621452 
L 159.518678 -171.621452 
L 159.201322 -171.621452 
L 158.883967 -171.621452 
L 158.566612 -171.621452 
L 158.249256 -171.621452 
L 157.931901 -171.621452 
L 157.614545 -171.621452 
L 157.29719 -171.621452 
L 156.979835 -171.621452 
L 156.662479 -171.621452 
L 156.345124 -171.621452 
L 156.027769 -171.621452 
L 155.710413 -171.621452 
L 155.393058 -171.621452 
L 155.075702 -171.621452 
L 154.758347 -171.621452 
L 154.440992 -171.621452 
L 154.123636 -171.621452 
L 153.806281 -171.621452 
L 153.488926 -171.621452 
L 153.17157 -171.621452 
L 152.854215 -171.621452 
L 152.53686 -171.621452 
L 152.219504 -171.621452 
L 151.902149 -171.621452 
L 151.584793 -171.621452 
L 151.267438 -171.621452 
L 150.950083 -171.621452 
L 150.632727 -171.621452 
L 150.315372 -171.621452 
L 149.998017 -171.621452 
L 149.680661 -171.621452 
L 149.363306 -171.621452 
L 149.04595 -171.621452 
L 148.728595 -171.621452 
L 148.41124 -171.621452 
L 148.093884 -171.621452 
L 147.776529 -171.621452 
L 147.459174 -171.621452 
L 147.141818 -171.621452 
L 146.824463 -171.621452 
L 146.507107 -171.621452 
L 146.189752 -171.621452 
L 145.872397 -171.621452 
L 145.555041 -171.621452 
L 145.237686 -171.621452 
L 144.920331 -171.621452 
L 144.602975 -171.621452 
L 144.28562 -171.621452 
L 143.968264 -171.621452 
L 143.650909 -171.621452 
L 143.333554 -171.621452 
L 143.016198 -171.621452 
L 142.698843 -171.621452 
L 142.381488 -171.621452 
L 142.064132 -171.621452 
L 141.746777 -171.621452 
L 141.429421 -171.621452 
L 141.112066 -171.621452 
L 140.794711 -171.621452 
L 140.477355 -171.621452 
L 140.16 -171.621452 
L 139.842645 -171.621452 
L 139.525289 -171.621452 
L 139.207934 -171.621452 
L 138.890579 -171.621452 
L 138.573223 -171.621452 
L 138.255868 -171.621452 
L 137.938512 -171.621452 
L 137.621157 -171.621452 
L 137.303802 -171.621452 
L 136.986446 -171.621452 
L 136.669091 -171.621452 
L 136.351736 -171.621452 
L 136.03438 -171.621452 
L 135.717025 -171.621452 
L 135.399669 -171.621452 
L 135.082314 -171.621452 
L 134.764959 -171.621452 
L 134.447603 -171.621452 
L 134.130248 -171.621452 
L 133.812893 -171.621452 
L 133.495537 -171.621452 
L 133.178182 -171.621452 
L 132.860826 -171.621452 
L 132.543471 -171.621452 
L 132.226116 -171.621452 
L 131.90876 -171.621452 
L 131.591405 -171.621452 
L 131.27405 -171.621452 
L 130.956694 -171.621452 
L 130.639339 -171.621452 
L 130.321983 -171.621452 
L 130.004628 -171.621452 
L 129.687273 -171.621452 
L 129.369917 -171.621452 
L 129.052562 -171.621452 
L 128.735207 -171.621452 
L 128.417851 -171.621452 
L 128.100496 -171.621452 
L 127.78314 -171.621452 
L 127.465785 -171.621452 
L 127.14843 -171.621452 
L 126.831074 -171.621452 
L 126.513719 -171.621452 
L 126.196364 -171.621452 
L 125.879008 -171.621452 
L 125.561653 -171.621452 
L 125.244298 -171.621452 
L 124.926942 -171.621452 
L 124.609587 -171.621452 
L 124.292231 -171.621452 
L 123.974876 -171.621452 
L 123.657521 -171.621452 
L 123.340165 -171.621452 
L 123.02281 -171.621452 
L 122.705455 -171.621452 
L 122.388099 -171.621452 
L 122.070744 -171.621452 
L 121.753388 -171.621452 
L 121.436033 -171.621452 
L 121.118678 -171.621452 
L 120.801322 -171.621452 
L 120.483967 -171.621452 
L 120.166612 -171.621452 
L 119.849256 -171.621452 
L 119.531901 -171.621452 
L 119.214545 -171.621452 
L 118.89719 -171.621452 
L 118.579835 -171.621452 
L 118.262479 -171.621452 
L 117.945124 -171.621452 
L 117.627769 -171.621452 
L 117.310413 -171.621452 
L 116.993058 -171.621452 
L 116.675702 -171.621452 
L 116.358347 -171.621452 
L 116.040992 -171.621452 
L 115.723636 -171.621452 
L 115.406281 -171.621452 
L 115.088926 -171.621452 
L 114.77157 -171.621452 
L 114.454215 -171.621452 
L 114.13686 -171.621452 
L 113.819504 -171.621452 
L 113.502149 -171.621452 
L 113.184793 -171.621452 
L 112.867438 -171.621452 
L 112.550083 -171.621452 
L 112.232727 -171.621452 
L 111.915372 -171.621452 
L 111.598017 -171.621452 
L 111.280661 -171.621452 
L 110.963306 -171.621452 
L 110.64595 -171.621452 
L 110.328595 -171.621452 
L 110.01124 -171.621452 
L 109.693884 -171.621452 
L 109.376529 -171.621452 
L 109.059174 -171.621452 
L 108.741818 -171.621452 
L 108.424463 -171.621452 
L 108.107107 -171.621452 
L 107.789752 -171.621452 
L 107.472397 -171.621452 
L 107.155041 -171.621452 
L 106.837686 -171.621452 
L 106.520331 -171.621452 
L 106.202975 -171.621452 
L 105.88562 -171.621452 
L 105.568264 -171.621452 
L 105.250909 -171.621452 
L 104.933554 -171.621452 
L 104.616198 -171.621452 
L 104.298843 -171.621452 
L 103.981488 -171.621452 
L 103.664132 -171.621452 
L 103.346777 -171.621452 
L 103.029421 -171.621452 
L 102.712066 -171.621452 
L 102.394711 -171.621452 
L 102.077355 -171.621452 
L 101.76 -171.621452 
L 101.442645 -171.621452 
L 101.125289 -171.621452 
L 100.807934 -171.621452 
L 100.490579 -171.621452 
L 100.173223 -171.621452 
L 99.855868 -171.621452 
L 99.538512 -171.621452 
L 99.221157 -171.621452 
L 98.903802 -171.621452 
L 98.586446 -171.621452 
L 98.269091 -171.621452 
L 97.951736 -171.621452 
L 97.63438 -171.621452 
L 97.317025 -171.621452 
L 96.999669 -171.621452 
L 96.682314 -171.621452 
L 96.364959 -171.621452 
L 96.047603 -171.621452 
L 95.730248 -171.621452 
L 95.412893 -171.621452 
L 95.095537 -171.621452 
L 94.778182 -171.621452 
L 94.460826 -171.621452 
L 94.143471 -171.621452 
L 93.826116 -171.621452 
L 93.50876 -171.621452 
L 93.191405 -171.621452 
L 92.87405 -171.621452 
L 92.556694 -171.621452 
L 92.239339 -171.621452 
L 91.921983 -171.621452 
L 91.604628 -171.621452 
L 91.287273 -171.621452 
L 90.969917 -171.621452 
L 90.652562 -171.621452 
L 90.335207 -171.621452 
L 90.017851 -171.621452 
L 89.700496 -171.621452 
L 89.38314 -171.621452 
L 89.065785 -171.621452 
L 88.74843 -171.621452 
L 88.431074 -171.621452 
L 88.113719 -171.621452 
L 87.796364 -171.621452 
L 87.479008 -171.621452 
L 87.161653 -171.621452 
L 86.844298 -171.621452 
L 86.526942 -171.621452 
L 86.209587 -171.621452 
L 85.892231 -171.621452 
L 85.574876 -171.621452 
L 85.257521 -171.621452 
L 84.940165 -171.621452 
L 84.62281 -171.621452 
L 84.305455 -171.621452 
L 83.988099 -171.621452 
L 83.670744 -171.621452 
L 83.353388 -171.621452 
L 83.036033 -171.621452 
L 82.718678 -171.621452 
L 82.401322 -171.621452 
L 82.083967 -171.621452 
L 81.766612 -171.621452 
L 81.449256 -171.621452 
L 81.131901 -171.621452 
L 80.814545 -171.621452 
L 80.49719 -171.621452 
L 80.179835 -171.621452 
L 79.862479 -171.621452 
L 79.545124 -171.621452 
L 79.227769 -171.621452 
L 78.910413 -171.621452 
L 78.593058 -171.621452 
L 78.275702 -171.621452 
L 77.958347 -171.621452 
L 77.640992 -171.621452 
L 77.323636 -171.621452 
L 77.006281 -171.621452 
L 76.688926 -171.621452 
L 76.37157 -171.621452 
L 76.054215 -171.621452 
L 75.73686 -171.621452 
L 75.419504 -171.621452 
L 75.102149 -171.621452 
L 74.784793 -171.621452 
L 74.467438 -171.621452 
L 74.150083 -171.621452 
L 73.832727 -171.621452 
z
" style="stroke: #87ceeb; stroke-opacity: 0.75"/>
    </defs>
    <g clip-path="url(#p5dcd5192cc)">
     <use xlink:href="#m1c00410044" x="0" y="345.6" style="fill: #87ceeb; fill-opacity: 0.75; stroke: #87ceeb; stroke-opacity: 0.75"/>
    </g>
   </g>
   <g id="matplotlib.axis_1">
    <g id="xtick_1">
     <g id="line2d_1">
      <defs>
       <path id="m511d79666e" d="M 0 0 
L 0 3.5 
" style="stroke: #000000; stroke-width: 0.8"/>
      </defs>
      <g>
       <use xlink:href="#m511d79666e" x="73.832727" y="307.584" style="stroke: #000000; stroke-width: 0.8"/>
      </g>
     </g>
     <g id="text_1">
      <!-- 0 -->
      <g transform="translate(70.531868 322.161969) scale(0.11 -0.11)">
       <defs>
        <path id="AndaleMono-30" d="M 1913 4494 
Q 2613 4494 2989 3892 
Q 3366 3291 3366 2203 
Q 3366 1150 3000 533 
Q 2634 -84 1913 -84 
Q 1216 -84 837 516 
Q 459 1116 459 2203 
Q 459 3259 826 3876 
Q 1194 4494 1913 4494 
z
M 1913 366 
Q 2375 366 2598 805 
Q 2822 1244 2822 2203 
Q 2822 3166 2598 3602 
Q 2375 4038 1913 4038 
Q 1456 4038 1231 3591 
Q 1006 3144 1006 2203 
Q 1006 1250 1229 808 
Q 1453 366 1913 366 
z
M 1900 2672 
Q 2097 2672 2233 2536 
Q 2369 2400 2369 2203 
Q 2369 2000 2231 1854 
Q 2094 1709 1900 1709 
Q 1709 1709 1573 1854 
Q 1438 2000 1438 2203 
Q 1438 2403 1570 2537 
Q 1703 2672 1900 2672 
z
" transform="scale(0.015625)"/>
       </defs>
       <use xlink:href="#AndaleMono-30"/>
      </g>
     </g>
    </g>
    <g id="xtick_2">
     <g id="line2d_2">
      <g>
       <use xlink:href="#m511d79666e" x="137.303802" y="307.584" style="stroke: #000000; stroke-width: 0.8"/>
      </g>
     </g>
     <g id="text_2">
      <!-- 200 -->
      <g transform="translate(127.401224 322.161969) scale(0.11 -0.11)">
       <defs>
        <path id="AndaleMono-32" d="M 3066 0 
L 641 0 
L 641 372 
Q 1563 1400 1838 1750 
Q 2113 2100 2284 2484 
Q 2456 2869 2456 3250 
Q 2456 3619 2232 3831 
Q 2009 4044 1606 4044 
Q 1297 4044 775 3853 
L 703 4294 
Q 1175 4494 1691 4494 
Q 2281 4494 2642 4161 
Q 3003 3828 3003 3272 
Q 3003 2875 2817 2484 
Q 2631 2094 2340 1734 
Q 2050 1375 1209 447 
L 3066 447 
L 3066 0 
z
" transform="scale(0.015625)"/>
       </defs>
       <use xlink:href="#AndaleMono-32"/>
       <use xlink:href="#AndaleMono-30" x="60.009766"/>
       <use xlink:href="#AndaleMono-30" x="120.019531"/>
      </g>
     </g>
    </g>
    <g id="xtick_3">
     <g id="line2d_3">
      <g>
       <use xlink:href="#m511d79666e" x="200.774876" y="307.584" style="stroke: #000000; stroke-width: 0.8"/>
      </g>
     </g>
     <g id="text_3">
      <!-- 400 -->
      <g transform="translate(190.872298 322.161969) scale(0.11 -0.11)">
       <defs>
        <path id="AndaleMono-34" d="M 3353 1019 
L 2809 1019 
L 2809 0 
L 2297 0 
L 2297 1019 
L 378 1019 
L 378 1409 
L 2119 4409 
L 2809 4409 
L 2809 1466 
L 3353 1466 
L 3353 1019 
z
M 2297 1466 
L 2297 3903 
L 897 1466 
L 2297 1466 
z
" transform="scale(0.015625)"/>
       </defs>
       <use xlink:href="#AndaleMono-34"/>
       <use xlink:href="#AndaleMono-30" x="60.009766"/>
       <use xlink:href="#AndaleMono-30" x="120.019531"/>
      </g>
     </g>
    </g>
    <g id="xtick_4">
     <g id="line2d_4">
      <g>
       <use xlink:href="#m511d79666e" x="264.24595" y="307.584" style="stroke: #000000; stroke-width: 0.8"/>
      </g>
     </g>
     <g id="text_4">
      <!-- 600 -->
      <g transform="translate(254.343372 322.161969) scale(0.11 -0.11)">
       <defs>
        <path id="AndaleMono-36" d="M 1131 2297 
Q 1544 2631 2028 2631 
Q 2588 2631 2961 2273 
Q 3334 1916 3334 1350 
Q 3334 728 3003 322 
Q 2672 -84 2119 -84 
Q 1413 -84 1000 564 
Q 588 1213 588 2150 
Q 588 3150 1017 3822 
Q 1447 4494 2194 4494 
Q 2709 4494 3084 4341 
L 3003 3884 
Q 2569 4044 2209 4044 
Q 1700 4044 1415 3556 
Q 1131 3069 1131 2297 
z
M 1147 1856 
Q 1147 1291 1412 828 
Q 1678 366 2081 366 
Q 2422 366 2606 616 
Q 2791 866 2791 1306 
Q 2791 1713 2587 1947 
Q 2384 2181 2016 2181 
Q 1538 2181 1147 1856 
z
" transform="scale(0.015625)"/>
       </defs>
       <use xlink:href="#AndaleMono-36"/>
       <use xlink:href="#AndaleMono-30" x="60.009766"/>
       <use xlink:href="#AndaleMono-30" x="120.019531"/>
      </g>
     </g>
    </g>
    <g id="xtick_5">
     <g id="line2d_5">
      <g>
       <use xlink:href="#m511d79666e" x="327.717025" y="307.584" style="stroke: #000000; stroke-width: 0.8"/>
      </g>
     </g>
     <g id="text_5">
      <!-- 800 -->
      <g transform="translate(317.814447 322.161969) scale(0.11 -0.11)">
       <defs>
        <path id="AndaleMono-38" d="M 2363 2419 
Q 2813 2288 3061 1972 
Q 3309 1656 3309 1234 
Q 3309 628 2907 272 
Q 2506 -84 1919 -84 
Q 1303 -84 908 275 
Q 513 634 513 1228 
Q 513 1647 769 1965 
Q 1025 2284 1484 2419 
Q 1119 2513 898 2780 
Q 678 3047 678 3378 
Q 678 3803 1015 4148 
Q 1353 4494 1906 4494 
Q 2453 4494 2811 4150 
Q 3169 3806 3169 3378 
Q 3169 3056 2944 2786 
Q 2719 2516 2363 2419 
z
M 1906 2631 
Q 1922 2631 2056 2668 
Q 2191 2706 2286 2761 
Q 2381 2816 2462 2900 
Q 2544 2984 2594 3098 
Q 2644 3213 2644 3353 
Q 2644 3653 2428 3851 
Q 2213 4050 1906 4050 
Q 1609 4050 1396 3847 
Q 1184 3644 1184 3353 
Q 1184 3169 1261 3031 
Q 1338 2894 1452 2809 
Q 1566 2725 1714 2678 
Q 1863 2631 1906 2631 
z
M 1906 2194 
Q 1050 1944 1050 1253 
Q 1050 850 1309 608 
Q 1569 366 1919 366 
Q 2281 366 2529 605 
Q 2778 844 2778 1253 
Q 2778 1563 2606 1808 
Q 2434 2053 1906 2194 
z
" transform="scale(0.015625)"/>
       </defs>
       <use xlink:href="#AndaleMono-38"/>
       <use xlink:href="#AndaleMono-30" x="60.009766"/>
       <use xlink:href="#AndaleMono-30" x="120.019531"/>
      </g>
     </g>
    </g>
    <g id="xtick_6">
     <g id="line2d_6">
      <g>
       <use xlink:href="#m511d79666e" x="391.188099" y="307.584" style="stroke: #000000; stroke-width: 0.8"/>
      </g>
     </g>
     <g id="text_6">
      <!-- 1000 -->
      <g transform="translate(377.984662 322.161969) scale(0.11 -0.11)">
       <defs>
        <path id="AndaleMono-31" d="M 3181 0 
L 863 0 
L 863 447 
L 1797 447 
L 1797 3872 
L 916 3431 
L 916 3944 
L 1869 4434 
L 2309 4434 
L 2309 447 
L 3181 447 
L 3181 0 
z
" transform="scale(0.015625)"/>
       </defs>
       <use xlink:href="#AndaleMono-31"/>
       <use xlink:href="#AndaleMono-30" x="60.009766"/>
       <use xlink:href="#AndaleMono-30" x="120.019531"/>
       <use xlink:href="#AndaleMono-30" x="180.029297"/>
      </g>
     </g>
    </g>
   </g>
   <g id="matplotlib.axis_2">
    <g id="ytick_1">
     <g id="line2d_7">
      <defs>
       <path id="ma326917a81" d="M 0 0 
L -3.5 0 
" style="stroke: #000000; stroke-width: 0.8"/>
      </defs>
      <g>
       <use xlink:href="#ma326917a81" x="57.6" y="295.488" style="stroke: #000000; stroke-width: 0.8"/>
      </g>
     </g>
     <g id="text_7">
      <!-- 1.00 -->
      <g transform="translate(17.591406 299.276984) scale(0.11 -0.11)">
       <defs>
        <path id="AndaleMono-2212" d="M 3397 2047 
L 441 2047 
L 441 2456 
L 3397 2456 
L 3397 2047 
z
" transform="scale(0.015625)"/>
        <path id="AndaleMono-2e" d="M 1900 716 
Q 2066 716 2178 603 
Q 2291 491 2291 325 
Q 2291 156 2177 36 
Q 2063 -84 1900 -84 
Q 1741 -84 1628 36 
Q 1516 156 1516 325 
Q 1516 494 1627 605 
Q 1738 716 1900 716 
z
" transform="scale(0.015625)"/>
       </defs>
       <use xlink:href="#AndaleMono-2212"/>
       <use xlink:href="#AndaleMono-31" x="60.009766"/>
       <use xlink:href="#AndaleMono-2e" x="120.019531"/>
       <use xlink:href="#AndaleMono-30" x="180.029297"/>
       <use xlink:href="#AndaleMono-30" x="240.039062"/>
      </g>
     </g>
    </g>
    <g id="ytick_2">
     <g id="line2d_8">
      <g>
       <use xlink:href="#ma326917a81" x="57.6" y="265.110637" style="stroke: #000000; stroke-width: 0.8"/>
      </g>
     </g>
     <g id="text_8">
      <!-- 0.75 -->
      <g transform="translate(17.591406 268.899621) scale(0.11 -0.11)">
       <defs>
        <path id="AndaleMono-37" d="M 3238 4044 
L 1491 0 
L 966 0 
L 2688 3963 
L 622 3963 
L 622 4409 
L 3238 4409 
L 3238 4044 
z
" transform="scale(0.015625)"/>
        <path id="AndaleMono-35" d="M 1356 2631 
Q 1569 2688 1772 2688 
Q 2397 2688 2759 2305 
Q 3122 1922 3122 1350 
Q 3122 750 2700 333 
Q 2278 -84 1672 -84 
Q 1094 -84 703 109 
L 806 544 
Q 1231 366 1684 366 
Q 2088 366 2336 625 
Q 2584 884 2584 1350 
Q 2584 1791 2350 2028 
Q 2116 2266 1747 2266 
Q 1478 2266 1216 2163 
L 909 2303 
L 909 4409 
L 2925 4409 
L 2925 3963 
L 1356 3963 
L 1356 2631 
z
" transform="scale(0.015625)"/>
       </defs>
       <use xlink:href="#AndaleMono-2212"/>
       <use xlink:href="#AndaleMono-30" x="60.009766"/>
       <use xlink:href="#AndaleMono-2e" x="120.019531"/>
       <use xlink:href="#AndaleMono-37" x="180.029297"/>
       <use xlink:href="#AndaleMono-35" x="240.039062"/>
      </g>
     </g>
    </g>
    <g id="ytick_3">
     <g id="line2d_9">
      <g>
       <use xlink:href="#ma326917a81" x="57.6" y="234.733274" style="stroke: #000000; stroke-width: 0.8"/>
      </g>
     </g>
     <g id="text_9">
      <!-- 0.50 -->
      <g transform="translate(17.591406 238.522258) scale(0.11 -0.11)">
       <use xlink:href="#AndaleMono-2212"/>
       <use xlink:href="#AndaleMono-30" x="60.009766"/>
       <use xlink:href="#AndaleMono-2e" x="120.019531"/>
       <use xlink:href="#AndaleMono-35" x="180.029297"/>
       <use xlink:href="#AndaleMono-30" x="240.039062"/>
      </g>
     </g>
    </g>
    <g id="ytick_4">
     <g id="line2d_10">
      <g>
       <use xlink:href="#ma326917a81" x="57.6" y="204.355911" style="stroke: #000000; stroke-width: 0.8"/>
      </g>
     </g>
     <g id="text_10">
      <!-- 0.25 -->
      <g transform="translate(17.591406 208.144895) scale(0.11 -0.11)">
       <use xlink:href="#AndaleMono-2212"/>
       <use xlink:href="#AndaleMono-30" x="60.009766"/>
       <use xlink:href="#AndaleMono-2e" x="120.019531"/>
       <use xlink:href="#AndaleMono-32" x="180.029297"/>
       <use xlink:href="#AndaleMono-35" x="240.039062"/>
      </g>
     </g>
    </g>
    <g id="ytick_5">
     <g id="line2d_11">
      <g>
       <use xlink:href="#ma326917a81" x="57.6" y="173.978548" style="stroke: #000000; stroke-width: 0.8"/>
      </g>
     </g>
     <g id="text_11">
      <!-- 0.00 -->
      <g transform="translate(24.193125 177.767532) scale(0.11 -0.11)">
       <use xlink:href="#AndaleMono-30"/>
       <use xlink:href="#AndaleMono-2e" x="60.009766"/>
       <use xlink:href="#AndaleMono-30" x="120.019531"/>
       <use xlink:href="#AndaleMono-30" x="180.029297"/>
      </g>
     </g>
    </g>
    <g id="ytick_6">
     <g id="line2d_12">
      <g>
       <use xlink:href="#ma326917a81" x="57.6" y="143.601185" style="stroke: #000000; stroke-width: 0.8"/>
      </g>
     </g>
     <g id="text_12">
      <!-- 0.25 -->
      <g transform="translate(24.193125 147.390169) scale(0.11 -0.11)">
       <use xlink:href="#AndaleMono-30"/>
       <use xlink:href="#AndaleMono-2e" x="60.009766"/>
       <use xlink:href="#AndaleMono-32" x="120.019531"/>
       <use xlink:href="#AndaleMono-35" x="180.029297"/>
      </g>
     </g>
    </g>
    <g id="ytick_7">
     <g id="line2d_13">
      <g>
       <use xlink:href="#ma326917a81" x="57.6" y="113.223822" style="stroke: #000000; stroke-width: 0.8"/>
      </g>
     </g>
     <g id="text_13">
      <!-- 0.50 -->
      <g transform="translate(24.193125 117.012806) scale(0.11 -0.11)">
       <use xlink:href="#AndaleMono-30"/>
       <use xlink:href="#AndaleMono-2e" x="60.009766"/>
       <use xlink:href="#AndaleMono-35" x="120.019531"/>
       <use xlink:href="#AndaleMono-30" x="180.029297"/>
      </g>
     </g>
    </g>
    <g id="ytick_8">
     <g id="line2d_14">
      <g>
       <use xlink:href="#ma326917a81" x="57.6" y="82.846458" style="stroke: #000000; stroke-width: 0.8"/>
      </g>
     </g>
     <g id="text_14">
      <!-- 0.75 -->
      <g transform="translate(24.193125 86.635443) scale(0.11 -0.11)">
       <use xlink:href="#AndaleMono-30"/>
       <use xlink:href="#AndaleMono-2e" x="60.009766"/>
       <use xlink:href="#AndaleMono-37" x="120.019531"/>
       <use xlink:href="#AndaleMono-35" x="180.029297"/>
      </g>
     </g>
    </g>
    <g id="ytick_9">
     <g id="line2d_15">
      <g>
       <use xlink:href="#ma326917a81" x="57.6" y="52.469095" style="stroke: #000000; stroke-width: 0.8"/>
      </g>
     </g>
     <g id="text_15">
      <!-- 1.00 -->
      <g transform="translate(24.193125 56.25808) scale(0.11 -0.11)">
       <use xlink:href="#AndaleMono-31"/>
       <use xlink:href="#AndaleMono-2e" x="60.009766"/>
       <use xlink:href="#AndaleMono-30" x="120.019531"/>
       <use xlink:href="#AndaleMono-30" x="180.029297"/>
      </g>
     </g>
    </g>
   </g>
   <g id="line2d_16">
    <path d="M 73.832727 173.978548 
L 74.150083 106.429814 
L 78.593058 78.351442 
L 80.49719 68.044426 
L 82.401322 58.881659 
L 83.353388 55.574351 
L 83.988099 53.568 
L 86.526942 63.39617 
L 91.921983 87.250869 
L 94.460826 96.85044 
L 98.903802 111.847217 
L 102.394711 122.10551 
L 103.029421 123.48577 
L 103.664132 124.380498 
L 104.616198 125.669035 
L 105.88562 127.590766 
L 106.520331 128.22273 
L 107.472397 128.733498 
L 109.059174 129.132058 
L 111.280661 129.69128 
L 112.550083 130.153588 
L 113.502149 130.487483 
L 116.358347 131.628428 
L 117.310413 131.67901 
L 117.945124 131.499219 
L 119.214545 130.634278 
L 119.849256 130.06429 
L 120.801322 128.894653 
L 122.705455 126.052608 
L 124.609587 122.940345 
L 125.561653 120.944979 
L 127.14843 116.878449 
L 130.321983 108.222654 
L 131.27405 106.152487 
L 132.860826 103.295438 
L 136.03438 98.834458 
L 136.986446 97.792653 
L 137.621157 97.368369 
L 138.255868 97.27216 
L 138.890579 97.426011 
L 139.842645 97.953387 
L 140.794711 98.820111 
L 142.381488 100.344435 
L 145.237686 102.453685 
L 146.189752 103.715153 
L 147.141818 105.351552 
L 148.728595 108.669716 
L 149.998017 111.658809 
L 151.902149 116.264978 
L 154.440992 122.193853 
L 156.662479 128.185677 
L 157.931901 131.257493 
L 158.883967 132.955622 
L 160.153388 134.728578 
L 161.740165 136.495755 
L 166.18314 140.889609 
L 167.135207 141.394238 
L 169.991405 142.347576 
L 171.578182 142.755356 
L 172.530248 143.319733 
L 174.43438 144.522289 
L 176.021157 145.209135 
L 177.290579 145.828302 
L 178.242645 146.494586 
L 180.146777 148.289537 
L 181.416198 149.436846 
L 183.955041 151.372183 
L 186.493884 153.602544 
L 189.984793 156.275254 
L 192.206281 157.608417 
L 197.601322 159.900412 
L 199.505455 160.365648 
L 200.774876 160.477969 
L 202.044298 160.584512 
L 204.265785 160.970237 
L 205.852562 161.010296 
L 207.439339 160.807894 
L 209.026116 160.296791 
L 210.612893 159.514631 
L 212.199669 158.464581 
L 215.055868 156.18849 
L 217.277355 154.423696 
L 218.864132 153.460535 
L 220.133554 152.934973 
L 221.08562 152.83598 
L 222.037686 152.987876 
L 223.307107 153.427355 
L 224.576529 154.079236 
L 225.528595 154.768312 
L 226.798017 155.998092 
L 228.067438 157.620237 
L 229.654215 160.046144 
L 231.240992 162.946693 
L 232.827769 166.335074 
L 238.540165 179.469196 
L 241.079008 185.010403 
L 242.665785 187.910951 
L 244.252562 190.336859 
L 245.521983 191.959004 
L 246.791405 193.188784 
L 248.060826 194.061646 
L 249.647603 194.780562 
L 250.917025 195.089546 
L 251.869091 195.088143 
L 252.821157 194.802258 
L 254.090579 194.145836 
L 255.677355 193.079025 
L 257.898843 191.232414 
L 260.120331 189.492515 
L 261.707107 188.442464 
L 263.293884 187.660305 
L 264.880661 187.149201 
L 266.150083 186.967046 
L 267.73686 186.960984 
L 269.323636 187.171862 
L 271.227769 187.477902 
L 272.814545 187.591447 
L 275.036033 188.159236 
L 276.305455 188.678724 
L 278.526942 189.720302 
L 280.74843 190.688012 
L 283.287273 192.319133 
L 285.191405 193.839015 
L 292.490579 199.984413 
L 294.077355 201.462509 
L 295.029421 202.128793 
L 296.298843 202.74796 
L 297.88562 203.434806 
L 299.472397 204.421016 
L 300.741818 205.201739 
L 301.693884 205.478401 
L 302.963306 205.792154 
L 305.819504 206.865012 
L 306.77157 207.542195 
L 307.723636 208.418411 
L 312.166612 213.228518 
L 313.436033 215.001474 
L 314.388099 216.699603 
L 315.340165 218.937863 
L 319.465785 229.53784 
L 322.321983 236.298287 
L 323.90876 239.975416 
L 325.495537 243.189967 
L 326.447603 244.702162 
L 327.399669 245.847536 
L 328.351736 246.632366 
L 330.573223 248.14546 
L 332.477355 250.003708 
L 333.429421 250.531084 
L 334.064132 250.684936 
L 334.698843 250.588726 
L 335.333554 250.164442 
L 336.28562 249.122637 
L 339.459174 244.661658 
L 340.41124 243.024415 
L 341.998017 239.734441 
L 347.393058 225.635133 
L 348.662479 223.370076 
L 351.518678 219.062442 
L 352.470744 217.892805 
L 353.42281 217.093678 
L 354.374876 216.457877 
L 355.009587 216.278085 
L 355.961653 216.328668 
L 356.913719 216.626709 
L 359.769917 217.803508 
L 363.578182 218.86918 
L 365.164959 219.360268 
L 365.799669 219.734365 
L 366.43438 220.36633 
L 367.069091 221.267729 
L 368.338512 223.18706 
L 369.290579 224.471326 
L 369.925289 225.851585 
L 370.877355 228.636224 
L 373.416198 236.109878 
L 374.68562 240.202545 
L 378.176529 252.243332 
L 380.715372 262.04881 
L 382.93686 271.53827 
L 386.427769 287.350769 
L 387.69719 292.036905 
L 388.649256 295.488 
L 389.918678 291.192204 
L 390.870744 286.882126 
L 393.409587 273.54194 
L 395.313719 262.087904 
L 398.169917 243.644049 
L 398.487273 173.978548 
L 398.487273 173.978548 
" clip-path="url(#p5dcd5192cc)" style="fill: none; stroke: #87ceeb; stroke-opacity: 0.75; stroke-linecap: square"/>
   </g>
   <g id="patch_3">
    <path d="M 57.6 307.584 
L 57.6 41.472 
" style="fill: none; stroke: #000000; stroke-width: 0.8; stroke-linejoin: miter; stroke-linecap: square"/>
   </g>
   <g id="patch_4">
    <path d="M 414.72 307.584 
L 414.72 41.472 
" style="fill: none; stroke: #000000; stroke-width: 0.8; stroke-linejoin: miter; stroke-linecap: square"/>
   </g>
   <g id="patch_5">
    <path d="M 57.6 307.584 
L 414.72 307.584 
" style="fill: none; stroke: #000000; stroke-width: 0.8; stroke-linejoin: miter; stroke-linecap: square"/>
   </g>
   <g id="patch_6">
    <path d="M 57.6 41.472 
L 414.72 41.472 
" style="fill: none; stroke: #000000; stroke-width: 0.8; stroke-linejoin: miter; stroke-linecap: square"/>
   </g>
  </g>
 </g>
 <defs>
  <clipPath id="p5dcd5192cc">
   <rect x="57.6" y="41.472" width="357.12" height="266.112"/>
  </clipPath>
 </defs>
</svg>
