<?xml version="1.0" encoding="utf-8" standalone="no"?>
<!DOCTYPE svg PUBLIC "-//W3C//DTD SVG 1.1//EN"
  "http://www.w3.org/Graphics/SVG/1.1/DTD/svg11.dtd">
<svg xmlns:xlink="http://www.w3.org/1999/xlink" width="460.8pt" height="345.6pt" viewBox="0 0 460.8 345.6" xmlns="http://www.w3.org/2000/svg" version="1.1">
 <metadata>
  <rdf:RDF xmlns:dc="http://purl.org/dc/elements/1.1/" xmlns:cc="http://creativecommons.org/ns#" xmlns:rdf="http://www.w3.org/1999/02/22-rdf-syntax-ns#">
   <cc:Work>
    <dc:type rdf:resource="http://purl.org/dc/dcmitype/StillImage"/>
    <dc:date>2024-04-23T11:13:05.399279</dc:date>
    <dc:format>image/svg+xml</dc:format>
    <dc:creator>
     <cc:Agent>
      <dc:title>Matplotlib v3.8.3, https://matplotlib.org/</dc:title>
     </cc:Agent>
    </dc:creator>
   </cc:Work>
  </rdf:RDF>
 </metadata>
 <defs>
  <style type="text/css">*{stroke-linejoin: round; stroke-linecap: butt}</style>
 </defs>
 <g id="figure_1">
  <g id="patch_1">
   <path d="M 0 345.6 
L 460.8 345.6 
L 460.8 0 
L 0 0 
z
" style="fill: #ffffff"/>
  </g>
  <g id="axes_1">
   <g id="patch_2">
    <path d="M 57.6 307.584 
L 414.72 307.584 
L 414.72 41.472 
L 57.6 41.472 
z
" style="fill: #ffffff"/>
   </g>
   <g id="PolyCollection_1">
    <defs>
     <path id="m8ce2cdb9dc" d="M 73.832727 -171.072 
L 73.832727 -171.072 
L 74.150083 -183.234421 
L 74.467438 -183.95081 
L 74.784793 -184.661563 
L 75.102149 -185.368651 
L 75.419504 -186.063946 
L 75.73686 -186.749112 
L 76.054215 -187.420142 
L 76.37157 -188.07641 
L 76.688926 -188.715936 
L 77.006281 -189.334855 
L 77.323636 -189.931304 
L 77.640992 -190.502311 
L 77.958347 -191.042114 
L 78.275702 -191.550487 
L 78.593058 -192.026284 
L 78.910413 -192.467032 
L 79.227769 -192.86582 
L 79.545124 -193.220724 
L 79.862479 -193.532966 
L 80.179835 -193.800989 
L 80.49719 -194.051933 
L 80.814545 -194.275298 
L 81.131901 -194.486293 
L 81.449256 -194.655316 
L 81.766612 -194.812568 
L 82.083967 -194.945808 
L 82.401322 -195.049768 
L 82.718678 -195.161041 
L 83.036033 -195.252857 
L 83.353388 -195.334846 
L 83.670744 -195.419688 
L 83.988099 -195.506754 
L 84.305455 -195.951056 
L 84.62281 -196.349036 
L 84.940165 -196.675152 
L 85.257521 -196.936404 
L 85.574876 -197.127679 
L 85.892231 -197.274633 
L 86.209587 -197.353722 
L 86.526942 -197.391508 
L 86.844298 -197.376953 
L 87.161653 -197.311136 
L 87.479008 -197.194398 
L 87.796364 -197.026819 
L 88.113719 -196.815191 
L 88.431074 -196.560762 
L 88.74843 -196.26046 
L 89.065785 -195.918737 
L 89.38314 -195.546172 
L 89.700496 -195.145 
L 90.017851 -194.721619 
L 90.335207 -194.275201 
L 90.652562 -193.804677 
L 90.969917 -193.314009 
L 91.287273 -192.801785 
L 91.604628 -192.270693 
L 91.921983 -191.724189 
L 92.239339 -191.165713 
L 92.556694 -190.589641 
L 92.87405 -190.002458 
L 93.191405 -189.40195 
L 93.50876 -188.798973 
L 93.826116 -188.1894 
L 94.143471 -187.578492 
L 94.460826 -186.967166 
L 94.778182 -186.356507 
L 95.095537 -185.757054 
L 95.412893 -185.158302 
L 95.730248 -184.572567 
L 96.047603 -183.994738 
L 96.364959 -183.433826 
L 96.682314 -182.890122 
L 96.999669 -182.364988 
L 97.317025 -181.858007 
L 97.63438 -181.373923 
L 97.951736 -180.918619 
L 98.269091 -180.498913 
L 98.586446 -180.112015 
L 98.903802 -179.760568 
L 99.221157 -179.443205 
L 99.538512 -179.168708 
L 99.855868 -178.945008 
L 100.173223 -178.762077 
L 100.490579 -178.622465 
L 100.807934 -178.508275 
L 101.125289 -178.426194 
L 101.442645 -178.355484 
L 101.76 -178.334679 
L 102.077355 -178.333029 
L 102.394711 -178.359205 
L 102.712066 -178.419691 
L 103.029421 -178.468667 
L 103.346777 -178.540287 
L 103.664132 -178.622739 
L 103.981488 -178.706978 
L 104.298843 -178.793259 
L 104.616198 -178.886941 
L 104.933554 -178.953132 
L 105.250909 -179.027143 
L 105.568264 -179.101281 
L 105.88562 -179.184799 
L 106.202975 -179.25114 
L 106.520331 -179.328653 
L 106.837686 -179.394663 
L 107.155041 -179.46056 
L 107.472397 -179.525495 
L 107.789752 -179.592548 
L 108.107107 -179.660767 
L 108.424463 -179.726441 
L 108.741818 -179.78956 
L 109.059174 -179.855317 
L 109.376529 -179.922675 
L 109.693884 -179.986503 
L 110.01124 -180.044555 
L 110.328595 -180.091967 
L 110.64595 -180.13105 
L 110.963306 -180.169322 
L 111.280661 -180.199151 
L 111.598017 -180.229592 
L 111.915372 -180.259634 
L 112.232727 -180.279545 
L 112.550083 -180.29179 
L 112.867438 -180.306031 
L 113.184793 -180.319993 
L 113.502149 -180.342186 
L 113.819504 -180.357433 
L 114.13686 -180.376076 
L 114.454215 -180.395178 
L 114.77157 -180.419055 
L 115.088926 -180.439648 
L 115.406281 -180.447867 
L 115.723636 -180.458508 
L 116.040992 -180.46691 
L 116.358347 -180.477352 
L 116.675702 -180.483458 
L 116.993058 -180.487855 
L 117.310413 -180.490372 
L 117.627769 -180.5004 
L 117.945124 -180.504605 
L 118.262479 -180.498547 
L 118.579835 -180.482516 
L 118.89719 -180.461393 
L 119.214545 -180.43458 
L 119.531901 -180.408841 
L 119.849256 -180.389843 
L 120.166612 -180.365926 
L 120.483967 -180.344871 
L 120.801322 -180.321603 
L 121.118678 -180.275886 
L 121.436033 -180.214583 
L 121.753388 -180.151561 
L 122.070744 -180.082041 
L 122.388099 -180.018714 
L 122.705455 -179.954034 
L 123.02281 -179.872063 
L 123.340165 -179.785304 
L 123.657521 -179.688581 
L 123.974876 -179.597894 
L 124.292231 -179.523394 
L 124.609587 -179.470444 
L 124.926942 -179.445983 
L 125.244298 -179.455367 
L 125.561653 -179.472312 
L 125.879008 -179.485609 
L 126.196364 -179.482429 
L 126.513719 -179.46252 
L 126.831074 -179.435747 
L 127.14843 -179.431841 
L 127.465785 -179.482373 
L 127.78314 -179.547227 
L 128.100496 -179.605608 
L 128.417851 -179.66486 
L 128.735207 -179.747428 
L 129.052562 -179.88218 
L 129.369917 -180.094301 
L 129.687273 -180.39988 
L 130.004628 -180.785 
L 130.321983 -181.242063 
L 130.639339 -181.747055 
L 130.956694 -182.282113 
L 131.27405 -182.82714 
L 131.591405 -183.38343 
L 131.90876 -183.960628 
L 132.226116 -184.600348 
L 132.543471 -185.350812 
L 132.860826 -186.157084 
L 133.178182 -186.991696 
L 133.495537 -187.855694 
L 133.812893 -188.765766 
L 134.130248 -189.760854 
L 134.447603 -190.854002 
L 134.764959 -192.044805 
L 135.082314 -193.318212 
L 135.399669 -194.674853 
L 135.717025 -196.131017 
L 136.03438 -197.651427 
L 136.351736 -199.213574 
L 136.669091 -200.802414 
L 136.986446 -202.411453 
L 137.303802 -204.027019 
L 137.621157 -205.651448 
L 137.938512 -207.300703 
L 138.255868 -209.027538 
L 138.573223 -210.820037 
L 138.890579 -212.638495 
L 139.207934 -214.459989 
L 139.525289 -216.281688 
L 139.842645 -218.119562 
L 140.16 -219.979513 
L 140.477355 -221.874174 
L 140.794711 -223.807523 
L 141.112066 -225.779996 
L 141.429421 -227.810582 
L 141.746777 -229.898906 
L 142.064132 -232.002071 
L 142.381488 -234.090881 
L 142.698843 -236.120826 
L 143.016198 -238.108064 
L 143.333554 -240.076575 
L 143.650909 -242.050577 
L 143.968264 -244.052707 
L 144.28562 -246.083843 
L 144.602975 -248.069052 
L 144.920331 -249.967052 
L 145.237686 -251.759616 
L 145.555041 -253.466192 
L 145.872397 -255.142492 
L 146.189752 -256.832498 
L 146.507107 -258.56541 
L 146.824463 -260.357059 
L 147.141818 -262.192244 
L 147.459174 -264.013356 
L 147.776529 -265.734882 
L 148.093884 -267.424696 
L 148.41124 -269.119415 
L 148.728595 -270.825361 
L 149.04595 -272.503153 
L 149.363306 -274.108544 
L 149.680661 -275.604908 
L 149.998017 -276.985174 
L 150.315372 -278.250199 
L 150.632727 -279.384323 
L 150.950083 -280.412508 
L 151.267438 -281.374376 
L 151.584793 -282.323498 
L 151.902149 -283.306981 
L 152.219504 -284.319697 
L 152.53686 -285.289472 
L 152.854215 -286.141356 
L 153.17157 -286.972818 
L 153.488926 -287.836115 
L 153.806281 -288.718135 
L 154.123636 -289.573919 
L 154.440992 -290.335651 
L 154.758347 -290.953216 
L 155.075702 -291.414423 
L 155.393058 -291.737516 
L 155.710413 -291.944446 
L 156.027769 -292.032 
L 156.345124 -292.027037 
L 156.662479 -291.946045 
L 156.979835 -291.806712 
L 157.29719 -291.635804 
L 157.614545 -291.476836 
L 157.931901 -291.348942 
L 158.249256 -291.224497 
L 158.566612 -291.022499 
L 158.883967 -290.760371 
L 159.201322 -290.513561 
L 159.518678 -290.311686 
L 159.836033 -290.144702 
L 160.153388 -289.971209 
L 160.470744 -289.748344 
L 160.788099 -289.448303 
L 161.105455 -289.060447 
L 161.42281 -288.599208 
L 161.740165 -288.061454 
L 162.057521 -287.458475 
L 162.374876 -286.823605 
L 162.692231 -286.172536 
L 163.009587 -285.545772 
L 163.326942 -284.955991 
L 163.644298 -284.416278 
L 163.961653 -283.906785 
L 164.279008 -283.381901 
L 164.596364 -282.800899 
L 164.913719 -282.268557 
L 165.231074 -281.853625 
L 165.54843 -281.557178 
L 165.865785 -281.341637 
L 166.18314 -281.13647 
L 166.500496 -280.891913 
L 166.817851 -280.575585 
L 167.135207 -280.172063 
L 167.452562 -279.687298 
L 167.769917 -279.156 
L 168.087273 -278.668168 
L 168.404628 -278.187817 
L 168.721983 -277.692636 
L 169.039339 -277.16963 
L 169.356694 -276.651327 
L 169.67405 -276.167279 
L 169.991405 -275.731252 
L 170.30876 -275.306366 
L 170.626116 -274.903947 
L 170.943471 -274.586776 
L 171.260826 -274.373511 
L 171.578182 -274.234935 
L 171.895537 -274.118488 
L 172.212893 -273.961862 
L 172.530248 -273.729872 
L 172.847603 -273.443345 
L 173.164959 -273.130974 
L 173.482314 -272.744856 
L 173.799669 -272.276366 
L 174.117025 -271.76289 
L 174.43438 -271.217815 
L 174.751736 -270.668851 
L 175.069091 -270.155061 
L 175.386446 -269.698503 
L 175.703802 -269.304623 
L 176.021157 -268.945299 
L 176.338512 -268.58782 
L 176.655868 -268.254236 
L 176.973223 -267.992063 
L 177.290579 -267.803473 
L 177.607934 -267.65581 
L 177.925289 -267.493458 
L 178.242645 -267.277561 
L 178.56 -267.000688 
L 178.877355 -266.695857 
L 179.194711 -266.361174 
L 179.512066 -265.961828 
L 179.829421 -265.512982 
L 180.146777 -265.021338 
L 180.464132 -264.499612 
L 180.781488 -263.980752 
L 181.098843 -263.492913 
L 181.416198 -263.062782 
L 181.733554 -262.67867 
L 182.050909 -262.333424 
L 182.368264 -261.995593 
L 182.68562 -261.685006 
L 183.002975 -261.418307 
L 183.320331 -261.191254 
L 183.637686 -260.984242 
L 183.955041 -260.759437 
L 184.272397 -260.501066 
L 184.589752 -260.218919 
L 184.907107 -259.947789 
L 185.224463 -259.639678 
L 185.541818 -259.263543 
L 185.859174 -258.827835 
L 186.176529 -258.344547 
L 186.493884 -257.85331 
L 186.81124 -257.380457 
L 187.128595 -256.954077 
L 187.44595 -256.590081 
L 187.763306 -256.287163 
L 188.080661 -256.030082 
L 188.398017 -255.762884 
L 188.715372 -255.506784 
L 189.032727 -255.27386 
L 189.350083 -255.074108 
L 189.667438 -254.882552 
L 189.984793 -254.686465 
L 190.302149 -254.472205 
L 190.619504 -254.269157 
L 190.93686 -254.075492 
L 191.254215 -253.849578 
L 191.57157 -253.560711 
L 191.888926 -253.216971 
L 192.206281 -252.833078 
L 192.523636 -252.426703 
L 192.840992 -252.037504 
L 193.158347 -251.692332 
L 193.475702 -251.396448 
L 193.793058 -251.1546 
L 194.110413 -250.932106 
L 194.427769 -250.682214 
L 194.745124 -250.427925 
L 195.062479 -250.172681 
L 195.379835 -249.923338 
L 195.69719 -249.670299 
L 196.014545 -249.395636 
L 196.331901 -249.111165 
L 196.649256 -248.835482 
L 196.966612 -248.551993 
L 197.283967 -248.208973 
L 197.601322 -247.796307 
L 197.918678 -247.334261 
L 198.236033 -246.848191 
L 198.553388 -246.373452 
L 198.870744 -245.920021 
L 199.188099 -245.497978 
L 199.505455 -245.107312 
L 199.82281 -244.728569 
L 200.140165 -244.321988 
L 200.457521 -243.909066 
L 200.774876 -243.503359 
L 201.092231 -243.114947 
L 201.409587 -242.744672 
L 201.726942 -242.362759 
L 202.044298 -241.969641 
L 202.361653 -241.560028 
L 202.679008 -241.135464 
L 202.996364 -240.679969 
L 203.313719 -240.187103 
L 203.631074 -239.662142 
L 203.94843 -239.110724 
L 204.265785 -238.560938 
L 204.58314 -238.016493 
L 204.900496 -237.492406 
L 205.217851 -236.967806 
L 205.535207 -236.445281 
L 205.852562 -235.912179 
L 206.169917 -235.375639 
L 206.487273 -234.853526 
L 206.804628 -234.351902 
L 207.121983 -233.859915 
L 207.439339 -233.369686 
L 207.756694 -232.858665 
L 208.07405 -232.326265 
L 208.391405 -231.754239 
L 208.70876 -231.169093 
L 209.026116 -230.5584 
L 209.343471 -229.930059 
L 209.660826 -229.283335 
L 209.978182 -228.628008 
L 210.295537 -227.96971 
L 210.612893 -227.323087 
L 210.930248 -226.675516 
L 211.247603 -226.019791 
L 211.564959 -225.342062 
L 211.882314 -224.662031 
L 212.199669 -223.988751 
L 212.517025 -223.330513 
L 212.83438 -222.698443 
L 213.151736 -222.073867 
L 213.469091 -221.42477 
L 213.786446 -220.764675 
L 214.103802 -220.071175 
L 214.421157 -219.367007 
L 214.738512 -218.6618 
L 215.055868 -217.94249 
L 215.373223 -217.232922 
L 215.690579 -216.519046 
L 216.007934 -215.806175 
L 216.325289 -215.112295 
L 216.642645 -214.434462 
L 216.96 -213.777215 
L 217.277355 -213.126036 
L 217.594711 -212.478517 
L 217.912066 -211.842392 
L 218.229421 -211.221751 
L 218.546777 -210.616296 
L 218.864132 -210.008293 
L 219.181488 -209.403295 
L 219.498843 -208.791805 
L 219.816198 -208.163247 
L 220.133554 -207.537465 
L 220.450909 -206.925109 
L 220.768264 -206.309108 
L 221.08562 -205.694253 
L 221.402975 -205.06601 
L 221.720331 -204.41546 
L 222.037686 -203.758462 
L 222.355041 -203.101536 
L 222.672397 -202.437886 
L 222.989752 -201.785441 
L 223.307107 -201.134402 
L 223.624463 -200.488393 
L 223.941818 -199.849759 
L 224.259174 -199.202368 
L 224.576529 -198.543064 
L 224.893884 -197.873064 
L 225.21124 -197.194112 
L 225.528595 -196.510081 
L 225.84595 -195.819409 
L 226.163306 -195.12518 
L 226.480661 -194.421975 
L 226.798017 -193.707845 
L 227.115372 -192.974419 
L 227.432727 -192.234754 
L 227.750083 -191.477324 
L 228.067438 -190.715291 
L 228.384793 -189.938238 
L 228.702149 -189.183847 
L 229.019504 -188.436148 
L 229.33686 -187.692359 
L 229.654215 -186.945215 
L 229.97157 -186.18611 
L 230.288926 -185.428362 
L 230.606281 -184.660001 
L 230.923636 -183.872871 
L 231.240992 -183.077755 
L 231.558347 -182.283233 
L 231.875702 -181.499032 
L 232.193058 -180.718144 
L 232.510413 -179.937065 
L 232.827769 -179.144995 
L 233.145124 -178.341443 
L 233.462479 -177.53574 
L 233.779835 -176.74174 
L 234.09719 -175.947678 
L 234.414545 -175.171229 
L 234.731901 -174.395648 
L 235.049256 -173.627347 
L 235.366612 -172.88015 
L 235.683967 -172.145518 
L 236.001322 -171.425852 
L 236.318678 -170.718148 
L 236.636033 -169.998482 
L 236.953388 -169.26385 
L 237.270744 -168.516653 
L 237.588099 -167.748352 
L 237.905455 -166.972771 
L 238.22281 -166.196322 
L 238.540165 -165.40226 
L 238.857521 -164.60826 
L 239.174876 -163.802557 
L 239.492231 -162.999005 
L 239.809587 -162.206935 
L 240.126942 -161.425856 
L 240.444298 -160.644968 
L 240.761653 -159.860767 
L 241.079008 -159.066245 
L 241.396364 -158.271129 
L 241.713719 -157.483999 
L 242.031074 -156.715638 
L 242.34843 -155.95789 
L 242.665785 -155.198785 
L 242.98314 -154.451641 
L 243.300496 -153.707852 
L 243.617851 -152.960153 
L 243.935207 -152.205762 
L 244.252562 -151.428709 
L 244.569917 -150.666676 
L 244.887273 -149.909246 
L 245.204628 -149.169581 
L 245.521983 -148.436155 
L 245.839339 -147.722025 
L 246.156694 -147.01882 
L 246.47405 -146.324591 
L 246.791405 -145.633919 
L 247.10876 -144.949888 
L 247.426116 -144.270936 
L 247.743471 -143.600936 
L 248.060826 -142.941632 
L 248.378182 -142.294241 
L 248.695537 -141.655607 
L 249.012893 -141.009598 
L 249.330248 -140.358559 
L 249.647603 -139.706114 
L 249.964959 -139.042464 
L 250.282314 -138.385538 
L 250.599669 -137.72854 
L 250.917025 -137.07799 
L 251.23438 -136.449747 
L 251.551736 -135.834892 
L 251.869091 -135.218891 
L 252.186446 -134.606535 
L 252.503802 -133.980753 
L 252.821157 -133.352195 
L 253.138512 -132.740705 
L 253.455868 -132.135707 
L 253.773223 -131.527704 
L 254.090579 -130.922249 
L 254.407934 -130.301608 
L 254.725289 -129.665483 
L 255.042645 -129.017964 
L 255.36 -128.366785 
L 255.677355 -127.709538 
L 255.994711 -127.031705 
L 256.312066 -126.337825 
L 256.629421 -125.624954 
L 256.946777 -124.911078 
L 257.264132 -124.20151 
L 257.581488 -123.4822 
L 257.898843 -122.776993 
L 258.216198 -122.072825 
L 258.533554 -121.379325 
L 258.850909 -120.71923 
L 259.168264 -120.070133 
L 259.48562 -119.445557 
L 259.802975 -118.813487 
L 260.120331 -118.155249 
L 260.437686 -117.481969 
L 260.755041 -116.801938 
L 261.072397 -116.124209 
L 261.389752 -115.468484 
L 261.707107 -114.820913 
L 262.024463 -114.17429 
L 262.341818 -113.515992 
L 262.659174 -112.860665 
L 262.976529 -112.213941 
L 263.293884 -111.5856 
L 263.61124 -110.974907 
L 263.928595 -110.389761 
L 264.24595 -109.817735 
L 264.563306 -109.285335 
L 264.880661 -108.774314 
L 265.198017 -108.284085 
L 265.515372 -107.792098 
L 265.832727 -107.290474 
L 266.150083 -106.768361 
L 266.467438 -106.231821 
L 266.784793 -105.698719 
L 267.102149 -105.176194 
L 267.419504 -104.651594 
L 267.73686 -104.127507 
L 268.054215 -103.583062 
L 268.37157 -103.033276 
L 268.688926 -102.481858 
L 269.006281 -101.956897 
L 269.323636 -101.464031 
L 269.640992 -101.008536 
L 269.958347 -100.583972 
L 270.275702 -100.174359 
L 270.593058 -99.781241 
L 270.910413 -99.399328 
L 271.227769 -99.029053 
L 271.545124 -98.640641 
L 271.862479 -98.234934 
L 272.179835 -97.822012 
L 272.49719 -97.415431 
L 272.814545 -97.036688 
L 273.131901 -96.646022 
L 273.449256 -96.223979 
L 273.766612 -95.770548 
L 274.083967 -95.295809 
L 274.401322 -94.809739 
L 274.718678 -94.347693 
L 275.036033 -93.935027 
L 275.353388 -93.592007 
L 275.670744 -93.308518 
L 275.988099 -93.032835 
L 276.305455 -92.748364 
L 276.62281 -92.473701 
L 276.940165 -92.220662 
L 277.257521 -91.971319 
L 277.574876 -91.716075 
L 277.892231 -91.461786 
L 278.209587 -91.211894 
L 278.526942 -90.9894 
L 278.844298 -90.747552 
L 279.161653 -90.451668 
L 279.479008 -90.106496 
L 279.796364 -89.717297 
L 280.113719 -89.310922 
L 280.431074 -88.927029 
L 280.74843 -88.583289 
L 281.065785 -88.294422 
L 281.38314 -88.068508 
L 281.700496 -87.874843 
L 282.017851 -87.671795 
L 282.335207 -87.457535 
L 282.652562 -87.261448 
L 282.969917 -87.069892 
L 283.287273 -86.87014 
L 283.604628 -86.637216 
L 283.921983 -86.381116 
L 284.239339 -86.113918 
L 284.556694 -85.856837 
L 284.87405 -85.553919 
L 285.191405 -85.189923 
L 285.50876 -84.763543 
L 285.826116 -84.29069 
L 286.143471 -83.799453 
L 286.460826 -83.316165 
L 286.778182 -82.880457 
L 287.095537 -82.504322 
L 287.412893 -82.196211 
L 287.730248 -81.925081 
L 288.047603 -81.642934 
L 288.364959 -81.384563 
L 288.682314 -81.159758 
L 288.999669 -80.952746 
L 289.317025 -80.725693 
L 289.63438 -80.458994 
L 289.951736 -80.148407 
L 290.269091 -79.810576 
L 290.586446 -79.46533 
L 290.903802 -79.081218 
L 291.221157 -78.651087 
L 291.538512 -78.163248 
L 291.855868 -77.644388 
L 292.173223 -77.122662 
L 292.490579 -76.631018 
L 292.807934 -76.182172 
L 293.125289 -75.782826 
L 293.442645 -75.448143 
L 293.76 -75.143312 
L 294.077355 -74.866439 
L 294.394711 -74.650542 
L 294.712066 -74.48819 
L 295.029421 -74.340527 
L 295.346777 -74.151937 
L 295.664132 -73.889764 
L 295.981488 -73.55618 
L 296.298843 -73.198701 
L 296.616198 -72.839377 
L 296.933554 -72.445497 
L 297.250909 -71.988939 
L 297.568264 -71.475149 
L 297.88562 -70.926185 
L 298.202975 -70.38111 
L 298.520331 -69.867634 
L 298.837686 -69.399144 
L 299.155041 -69.013026 
L 299.472397 -68.700655 
L 299.789752 -68.414128 
L 300.107107 -68.182138 
L 300.424463 -68.025512 
L 300.741818 -67.909065 
L 301.059174 -67.770489 
L 301.376529 -67.557224 
L 301.693884 -67.240053 
L 302.01124 -66.837634 
L 302.328595 -66.412748 
L 302.64595 -65.976721 
L 302.963306 -65.492673 
L 303.280661 -64.97437 
L 303.598017 -64.451364 
L 303.915372 -63.956183 
L 304.232727 -63.475832 
L 304.550083 -62.988 
L 304.867438 -62.456702 
L 305.184793 -61.971937 
L 305.502149 -61.568415 
L 305.819504 -61.252087 
L 306.13686 -61.00753 
L 306.454215 -60.802363 
L 306.77157 -60.586822 
L 307.088926 -60.290375 
L 307.406281 -59.875443 
L 307.723636 -59.343101 
L 308.040992 -58.762099 
L 308.358347 -58.237215 
L 308.675702 -57.727722 
L 308.993058 -57.188009 
L 309.310413 -56.598228 
L 309.627769 -55.971464 
L 309.945124 -55.320395 
L 310.262479 -54.685525 
L 310.579835 -54.082546 
L 310.89719 -53.544792 
L 311.214545 -53.083553 
L 311.531901 -52.695697 
L 311.849256 -52.395656 
L 312.166612 -52.172791 
L 312.483967 -51.999298 
L 312.801322 -51.832314 
L 313.118678 -51.630439 
L 313.436033 -51.383629 
L 313.753388 -51.121501 
L 314.070744 -50.919503 
L 314.388099 -50.795058 
L 314.705455 -50.667164 
L 315.02281 -50.508196 
L 315.340165 -50.337288 
L 315.657521 -50.197955 
L 315.974876 -50.116963 
L 316.292231 -50.112 
L 316.609587 -50.199554 
L 316.926942 -50.406484 
L 317.244298 -50.729577 
L 317.561653 -51.190784 
L 317.879008 -51.808349 
L 318.196364 -52.570081 
L 318.513719 -53.425865 
L 318.831074 -54.307885 
L 319.14843 -55.171182 
L 319.465785 -56.002644 
L 319.78314 -56.854528 
L 320.100496 -57.824303 
L 320.417851 -58.837019 
L 320.735207 -59.820502 
L 321.052562 -60.769624 
L 321.369917 -61.731492 
L 321.687273 -62.759677 
L 322.004628 -63.893801 
L 322.321983 -65.158826 
L 322.639339 -66.539092 
L 322.956694 -68.035456 
L 323.27405 -69.640847 
L 323.591405 -71.318639 
L 323.90876 -73.024585 
L 324.226116 -74.719304 
L 324.543471 -76.409118 
L 324.860826 -78.130644 
L 325.178182 -79.951756 
L 325.495537 -81.786941 
L 325.812893 -83.57859 
L 326.130248 -85.311502 
L 326.447603 -87.001508 
L 326.764959 -88.677808 
L 327.082314 -90.384384 
L 327.399669 -92.176948 
L 327.717025 -94.074948 
L 328.03438 -96.060157 
L 328.351736 -98.091293 
L 328.669091 -100.093423 
L 328.986446 -102.067425 
L 329.303802 -104.035936 
L 329.621157 -106.023174 
L 329.938512 -108.053119 
L 330.255868 -110.141929 
L 330.573223 -112.245094 
L 330.890579 -114.333418 
L 331.207934 -116.364004 
L 331.525289 -118.336477 
L 331.842645 -120.269826 
L 332.16 -122.164487 
L 332.477355 -124.024438 
L 332.794711 -125.862312 
L 333.112066 -127.684011 
L 333.429421 -129.505505 
L 333.746777 -131.323963 
L 334.064132 -133.116462 
L 334.381488 -134.843297 
L 334.698843 -136.492552 
L 335.016198 -138.116981 
L 335.333554 -139.732547 
L 335.650909 -141.341586 
L 335.968264 -142.930426 
L 336.28562 -144.492573 
L 336.602975 -146.012983 
L 336.920331 -147.469147 
L 337.237686 -148.825788 
L 337.555041 -150.099195 
L 337.872397 -151.289998 
L 338.189752 -152.383146 
L 338.507107 -153.378234 
L 338.824463 -154.288306 
L 339.141818 -155.152304 
L 339.459174 -155.986916 
L 339.776529 -156.793188 
L 340.093884 -157.543652 
L 340.41124 -158.183372 
L 340.728595 -158.76057 
L 341.04595 -159.31686 
L 341.363306 -159.861887 
L 341.680661 -160.396945 
L 341.998017 -160.901937 
L 342.315372 -161.359 
L 342.632727 -161.74412 
L 342.950083 -162.049699 
L 343.267438 -162.26182 
L 343.584793 -162.396572 
L 343.902149 -162.47914 
L 344.219504 -162.538392 
L 344.53686 -162.596773 
L 344.854215 -162.661627 
L 345.17157 -162.712159 
L 345.488926 -162.708253 
L 345.806281 -162.68148 
L 346.123636 -162.661571 
L 346.440992 -162.658391 
L 346.758347 -162.671688 
L 347.075702 -162.688633 
L 347.393058 -162.698017 
L 347.710413 -162.673556 
L 348.027769 -162.620606 
L 348.345124 -162.546106 
L 348.662479 -162.455419 
L 348.979835 -162.358696 
L 349.29719 -162.271937 
L 349.614545 -162.189966 
L 349.931901 -162.125286 
L 350.249256 -162.061959 
L 350.566612 -161.992439 
L 350.883967 -161.929417 
L 351.201322 -161.868114 
L 351.518678 -161.822397 
L 351.836033 -161.799129 
L 352.153388 -161.778074 
L 352.470744 -161.754157 
L 352.788099 -161.735159 
L 353.105455 -161.70942 
L 353.42281 -161.682607 
L 353.740165 -161.661484 
L 354.057521 -161.645453 
L 354.374876 -161.639395 
L 354.692231 -161.6436 
L 355.009587 -161.653628 
L 355.326942 -161.656145 
L 355.644298 -161.660542 
L 355.961653 -161.666648 
L 356.279008 -161.67709 
L 356.596364 -161.685492 
L 356.913719 -161.696133 
L 357.231074 -161.704352 
L 357.54843 -161.724945 
L 357.865785 -161.748822 
L 358.18314 -161.767924 
L 358.500496 -161.786567 
L 358.817851 -161.801814 
L 359.135207 -161.824007 
L 359.452562 -161.837969 
L 359.769917 -161.85221 
L 360.087273 -161.864455 
L 360.404628 -161.884366 
L 360.721983 -161.914408 
L 361.039339 -161.944849 
L 361.356694 -161.974678 
L 361.67405 -162.01295 
L 361.991405 -162.052033 
L 362.30876 -162.099445 
L 362.626116 -162.157497 
L 362.943471 -162.221325 
L 363.260826 -162.288683 
L 363.578182 -162.35444 
L 363.895537 -162.417559 
L 364.212893 -162.483233 
L 364.530248 -162.551452 
L 364.847603 -162.618505 
L 365.164959 -162.68344 
L 365.482314 -162.749337 
L 365.799669 -162.815347 
L 366.117025 -162.89286 
L 366.43438 -162.959201 
L 366.751736 -163.042719 
L 367.069091 -163.116857 
L 367.386446 -163.190868 
L 367.703802 -163.257059 
L 368.021157 -163.350741 
L 368.338512 -163.437022 
L 368.655868 -163.521261 
L 368.973223 -163.603713 
L 369.290579 -163.675333 
L 369.607934 -163.724309 
L 369.925289 -163.784795 
L 370.242645 -163.810971 
L 370.56 -163.809321 
L 370.877355 -163.788516 
L 371.194711 -163.717806 
L 371.512066 -163.635725 
L 371.829421 -163.521535 
L 372.146777 -163.381923 
L 372.464132 -163.198992 
L 372.781488 -162.975292 
L 373.098843 -162.700795 
L 373.416198 -162.383432 
L 373.733554 -162.031985 
L 374.050909 -161.645087 
L 374.368264 -161.225381 
L 374.68562 -160.770077 
L 375.002975 -160.285993 
L 375.320331 -159.779012 
L 375.637686 -159.253878 
L 375.955041 -158.710174 
L 376.272397 -158.149262 
L 376.589752 -157.571433 
L 376.907107 -156.985698 
L 377.224463 -156.386946 
L 377.541818 -155.787493 
L 377.859174 -155.176834 
L 378.176529 -154.565508 
L 378.493884 -153.954576 
L 378.81124 -153.34347 
L 379.128595 -152.736962 
L 379.44595 -152.130904 
L 379.763306 -151.536128 
L 380.080661 -150.950398 
L 380.398017 -150.380177 
L 380.715372 -149.819821 
L 381.032727 -149.272745 
L 381.350083 -148.742383 
L 381.667438 -148.231401 
L 381.984793 -147.738366 
L 382.302149 -147.267217 
L 382.619504 -146.816861 
L 382.93686 -146.38645 
L 383.254215 -145.98236 
L 383.57157 -145.606802 
L 383.888926 -145.270335 
L 384.206281 -144.977387 
L 384.523636 -144.724864 
L 384.840992 -144.513991 
L 385.158347 -144.351539 
L 385.475702 -144.237567 
L 385.793058 -144.172391 
L 386.110413 -144.157069 
L 386.427769 -144.180541 
L 386.745124 -144.269347 
L 387.062479 -144.39992 
L 387.379835 -144.597894 
L 387.69719 -144.858135 
L 388.014545 -145.187618 
L 388.331901 -145.560781 
L 388.649256 -146.008173 
L 388.966612 -146.093015 
L 389.283967 -146.175004 
L 389.601322 -146.26682 
L 389.918678 -146.378092 
L 390.236033 -146.482053 
L 390.553388 -146.615293 
L 390.870744 -146.772545 
L 391.188099 -146.941567 
L 391.505455 -147.152563 
L 391.82281 -147.375928 
L 392.140165 -147.626872 
L 392.457521 -147.894895 
L 392.774876 -148.207137 
L 393.092231 -148.562041 
L 393.409587 -148.960828 
L 393.726942 -149.401577 
L 394.044298 -149.877374 
L 394.361653 -150.385747 
L 394.679008 -150.92555 
L 394.996364 -151.496557 
L 395.313719 -152.093005 
L 395.631074 -152.711925 
L 395.94843 -153.351451 
L 396.265785 -154.007719 
L 396.58314 -154.678748 
L 396.900496 -155.363915 
L 397.217851 -156.05921 
L 397.535207 -156.766298 
L 397.852562 -157.477051 
L 398.169917 -158.19344 
L 398.487273 -171.072 
L 398.487273 -171.072 
L 398.487273 -171.072 
L 398.169917 -171.072 
L 397.852562 -171.072 
L 397.535207 -171.072 
L 397.217851 -171.072 
L 396.900496 -171.072 
L 396.58314 -171.072 
L 396.265785 -171.072 
L 395.94843 -171.072 
L 395.631074 -171.072 
L 395.313719 -171.072 
L 394.996364 -171.072 
L 394.679008 -171.072 
L 394.361653 -171.072 
L 394.044298 -171.072 
L 393.726942 -171.072 
L 393.409587 -171.072 
L 393.092231 -171.072 
L 392.774876 -171.072 
L 392.457521 -171.072 
L 392.140165 -171.072 
L 391.82281 -171.072 
L 391.505455 -171.072 
L 391.188099 -171.072 
L 390.870744 -171.072 
L 390.553388 -171.072 
L 390.236033 -171.072 
L 389.918678 -171.072 
L 389.601322 -171.072 
L 389.283967 -171.072 
L 388.966612 -171.072 
L 388.649256 -171.072 
L 388.331901 -171.072 
L 388.014545 -171.072 
L 387.69719 -171.072 
L 387.379835 -171.072 
L 387.062479 -171.072 
L 386.745124 -171.072 
L 386.427769 -171.072 
L 386.110413 -171.072 
L 385.793058 -171.072 
L 385.475702 -171.072 
L 385.158347 -171.072 
L 384.840992 -171.072 
L 384.523636 -171.072 
L 384.206281 -171.072 
L 383.888926 -171.072 
L 383.57157 -171.072 
L 383.254215 -171.072 
L 382.93686 -171.072 
L 382.619504 -171.072 
L 382.302149 -171.072 
L 381.984793 -171.072 
L 381.667438 -171.072 
L 381.350083 -171.072 
L 381.032727 -171.072 
L 380.715372 -171.072 
L 380.398017 -171.072 
L 380.080661 -171.072 
L 379.763306 -171.072 
L 379.44595 -171.072 
L 379.128595 -171.072 
L 378.81124 -171.072 
L 378.493884 -171.072 
L 378.176529 -171.072 
L 377.859174 -171.072 
L 377.541818 -171.072 
L 377.224463 -171.072 
L 376.907107 -171.072 
L 376.589752 -171.072 
L 376.272397 -171.072 
L 375.955041 -171.072 
L 375.637686 -171.072 
L 375.320331 -171.072 
L 375.002975 -171.072 
L 374.68562 -171.072 
L 374.368264 -171.072 
L 374.050909 -171.072 
L 373.733554 -171.072 
L 373.416198 -171.072 
L 373.098843 -171.072 
L 372.781488 -171.072 
L 372.464132 -171.072 
L 372.146777 -171.072 
L 371.829421 -171.072 
L 371.512066 -171.072 
L 371.194711 -171.072 
L 370.877355 -171.072 
L 370.56 -171.072 
L 370.242645 -171.072 
L 369.925289 -171.072 
L 369.607934 -171.072 
L 369.290579 -171.072 
L 368.973223 -171.072 
L 368.655868 -171.072 
L 368.338512 -171.072 
L 368.021157 -171.072 
L 367.703802 -171.072 
L 367.386446 -171.072 
L 367.069091 -171.072 
L 366.751736 -171.072 
L 366.43438 -171.072 
L 366.117025 -171.072 
L 365.799669 -171.072 
L 365.482314 -171.072 
L 365.164959 -171.072 
L 364.847603 -171.072 
L 364.530248 -171.072 
L 364.212893 -171.072 
L 363.895537 -171.072 
L 363.578182 -171.072 
L 363.260826 -171.072 
L 362.943471 -171.072 
L 362.626116 -171.072 
L 362.30876 -171.072 
L 361.991405 -171.072 
L 361.67405 -171.072 
L 361.356694 -171.072 
L 361.039339 -171.072 
L 360.721983 -171.072 
L 360.404628 -171.072 
L 360.087273 -171.072 
L 359.769917 -171.072 
L 359.452562 -171.072 
L 359.135207 -171.072 
L 358.817851 -171.072 
L 358.500496 -171.072 
L 358.18314 -171.072 
L 357.865785 -171.072 
L 357.54843 -171.072 
L 357.231074 -171.072 
L 356.913719 -171.072 
L 356.596364 -171.072 
L 356.279008 -171.072 
L 355.961653 -171.072 
L 355.644298 -171.072 
L 355.326942 -171.072 
L 355.009587 -171.072 
L 354.692231 -171.072 
L 354.374876 -171.072 
L 354.057521 -171.072 
L 353.740165 -171.072 
L 353.42281 -171.072 
L 353.105455 -171.072 
L 352.788099 -171.072 
L 352.470744 -171.072 
L 352.153388 -171.072 
L 351.836033 -171.072 
L 351.518678 -171.072 
L 351.201322 -171.072 
L 350.883967 -171.072 
L 350.566612 -171.072 
L 350.249256 -171.072 
L 349.931901 -171.072 
L 349.614545 -171.072 
L 349.29719 -171.072 
L 348.979835 -171.072 
L 348.662479 -171.072 
L 348.345124 -171.072 
L 348.027769 -171.072 
L 347.710413 -171.072 
L 347.393058 -171.072 
L 347.075702 -171.072 
L 346.758347 -171.072 
L 346.440992 -171.072 
L 346.123636 -171.072 
L 345.806281 -171.072 
L 345.488926 -171.072 
L 345.17157 -171.072 
L 344.854215 -171.072 
L 344.53686 -171.072 
L 344.219504 -171.072 
L 343.902149 -171.072 
L 343.584793 -171.072 
L 343.267438 -171.072 
L 342.950083 -171.072 
L 342.632727 -171.072 
L 342.315372 -171.072 
L 341.998017 -171.072 
L 341.680661 -171.072 
L 341.363306 -171.072 
L 341.04595 -171.072 
L 340.728595 -171.072 
L 340.41124 -171.072 
L 340.093884 -171.072 
L 339.776529 -171.072 
L 339.459174 -171.072 
L 339.141818 -171.072 
L 338.824463 -171.072 
L 338.507107 -171.072 
L 338.189752 -171.072 
L 337.872397 -171.072 
L 337.555041 -171.072 
L 337.237686 -171.072 
L 336.920331 -171.072 
L 336.602975 -171.072 
L 336.28562 -171.072 
L 335.968264 -171.072 
L 335.650909 -171.072 
L 335.333554 -171.072 
L 335.016198 -171.072 
L 334.698843 -171.072 
L 334.381488 -171.072 
L 334.064132 -171.072 
L 333.746777 -171.072 
L 333.429421 -171.072 
L 333.112066 -171.072 
L 332.794711 -171.072 
L 332.477355 -171.072 
L 332.16 -171.072 
L 331.842645 -171.072 
L 331.525289 -171.072 
L 331.207934 -171.072 
L 330.890579 -171.072 
L 330.573223 -171.072 
L 330.255868 -171.072 
L 329.938512 -171.072 
L 329.621157 -171.072 
L 329.303802 -171.072 
L 328.986446 -171.072 
L 328.669091 -171.072 
L 328.351736 -171.072 
L 328.03438 -171.072 
L 327.717025 -171.072 
L 327.399669 -171.072 
L 327.082314 -171.072 
L 326.764959 -171.072 
L 326.447603 -171.072 
L 326.130248 -171.072 
L 325.812893 -171.072 
L 325.495537 -171.072 
L 325.178182 -171.072 
L 324.860826 -171.072 
L 324.543471 -171.072 
L 324.226116 -171.072 
L 323.90876 -171.072 
L 323.591405 -171.072 
L 323.27405 -171.072 
L 322.956694 -171.072 
L 322.639339 -171.072 
L 322.321983 -171.072 
L 322.004628 -171.072 
L 321.687273 -171.072 
L 321.369917 -171.072 
L 321.052562 -171.072 
L 320.735207 -171.072 
L 320.417851 -171.072 
L 320.100496 -171.072 
L 319.78314 -171.072 
L 319.465785 -171.072 
L 319.14843 -171.072 
L 318.831074 -171.072 
L 318.513719 -171.072 
L 318.196364 -171.072 
L 317.879008 -171.072 
L 317.561653 -171.072 
L 317.244298 -171.072 
L 316.926942 -171.072 
L 316.609587 -171.072 
L 316.292231 -171.072 
L 315.974876 -171.072 
L 315.657521 -171.072 
L 315.340165 -171.072 
L 315.02281 -171.072 
L 314.705455 -171.072 
L 314.388099 -171.072 
L 314.070744 -171.072 
L 313.753388 -171.072 
L 313.436033 -171.072 
L 313.118678 -171.072 
L 312.801322 -171.072 
L 312.483967 -171.072 
L 312.166612 -171.072 
L 311.849256 -171.072 
L 311.531901 -171.072 
L 311.214545 -171.072 
L 310.89719 -171.072 
L 310.579835 -171.072 
L 310.262479 -171.072 
L 309.945124 -171.072 
L 309.627769 -171.072 
L 309.310413 -171.072 
L 308.993058 -171.072 
L 308.675702 -171.072 
L 308.358347 -171.072 
L 308.040992 -171.072 
L 307.723636 -171.072 
L 307.406281 -171.072 
L 307.088926 -171.072 
L 306.77157 -171.072 
L 306.454215 -171.072 
L 306.13686 -171.072 
L 305.819504 -171.072 
L 305.502149 -171.072 
L 305.184793 -171.072 
L 304.867438 -171.072 
L 304.550083 -171.072 
L 304.232727 -171.072 
L 303.915372 -171.072 
L 303.598017 -171.072 
L 303.280661 -171.072 
L 302.963306 -171.072 
L 302.64595 -171.072 
L 302.328595 -171.072 
L 302.01124 -171.072 
L 301.693884 -171.072 
L 301.376529 -171.072 
L 301.059174 -171.072 
L 300.741818 -171.072 
L 300.424463 -171.072 
L 300.107107 -171.072 
L 299.789752 -171.072 
L 299.472397 -171.072 
L 299.155041 -171.072 
L 298.837686 -171.072 
L 298.520331 -171.072 
L 298.202975 -171.072 
L 297.88562 -171.072 
L 297.568264 -171.072 
L 297.250909 -171.072 
L 296.933554 -171.072 
L 296.616198 -171.072 
L 296.298843 -171.072 
L 295.981488 -171.072 
L 295.664132 -171.072 
L 295.346777 -171.072 
L 295.029421 -171.072 
L 294.712066 -171.072 
L 294.394711 -171.072 
L 294.077355 -171.072 
L 293.76 -171.072 
L 293.442645 -171.072 
L 293.125289 -171.072 
L 292.807934 -171.072 
L 292.490579 -171.072 
L 292.173223 -171.072 
L 291.855868 -171.072 
L 291.538512 -171.072 
L 291.221157 -171.072 
L 290.903802 -171.072 
L 290.586446 -171.072 
L 290.269091 -171.072 
L 289.951736 -171.072 
L 289.63438 -171.072 
L 289.317025 -171.072 
L 288.999669 -171.072 
L 288.682314 -171.072 
L 288.364959 -171.072 
L 288.047603 -171.072 
L 287.730248 -171.072 
L 287.412893 -171.072 
L 287.095537 -171.072 
L 286.778182 -171.072 
L 286.460826 -171.072 
L 286.143471 -171.072 
L 285.826116 -171.072 
L 285.50876 -171.072 
L 285.191405 -171.072 
L 284.87405 -171.072 
L 284.556694 -171.072 
L 284.239339 -171.072 
L 283.921983 -171.072 
L 283.604628 -171.072 
L 283.287273 -171.072 
L 282.969917 -171.072 
L 282.652562 -171.072 
L 282.335207 -171.072 
L 282.017851 -171.072 
L 281.700496 -171.072 
L 281.38314 -171.072 
L 281.065785 -171.072 
L 280.74843 -171.072 
L 280.431074 -171.072 
L 280.113719 -171.072 
L 279.796364 -171.072 
L 279.479008 -171.072 
L 279.161653 -171.072 
L 278.844298 -171.072 
L 278.526942 -171.072 
L 278.209587 -171.072 
L 277.892231 -171.072 
L 277.574876 -171.072 
L 277.257521 -171.072 
L 276.940165 -171.072 
L 276.62281 -171.072 
L 276.305455 -171.072 
L 275.988099 -171.072 
L 275.670744 -171.072 
L 275.353388 -171.072 
L 275.036033 -171.072 
L 274.718678 -171.072 
L 274.401322 -171.072 
L 274.083967 -171.072 
L 273.766612 -171.072 
L 273.449256 -171.072 
L 273.131901 -171.072 
L 272.814545 -171.072 
L 272.49719 -171.072 
L 272.179835 -171.072 
L 271.862479 -171.072 
L 271.545124 -171.072 
L 271.227769 -171.072 
L 270.910413 -171.072 
L 270.593058 -171.072 
L 270.275702 -171.072 
L 269.958347 -171.072 
L 269.640992 -171.072 
L 269.323636 -171.072 
L 269.006281 -171.072 
L 268.688926 -171.072 
L 268.37157 -171.072 
L 268.054215 -171.072 
L 267.73686 -171.072 
L 267.419504 -171.072 
L 267.102149 -171.072 
L 266.784793 -171.072 
L 266.467438 -171.072 
L 266.150083 -171.072 
L 265.832727 -171.072 
L 265.515372 -171.072 
L 265.198017 -171.072 
L 264.880661 -171.072 
L 264.563306 -171.072 
L 264.24595 -171.072 
L 263.928595 -171.072 
L 263.61124 -171.072 
L 263.293884 -171.072 
L 262.976529 -171.072 
L 262.659174 -171.072 
L 262.341818 -171.072 
L 262.024463 -171.072 
L 261.707107 -171.072 
L 261.389752 -171.072 
L 261.072397 -171.072 
L 260.755041 -171.072 
L 260.437686 -171.072 
L 260.120331 -171.072 
L 259.802975 -171.072 
L 259.48562 -171.072 
L 259.168264 -171.072 
L 258.850909 -171.072 
L 258.533554 -171.072 
L 258.216198 -171.072 
L 257.898843 -171.072 
L 257.581488 -171.072 
L 257.264132 -171.072 
L 256.946777 -171.072 
L 256.629421 -171.072 
L 256.312066 -171.072 
L 255.994711 -171.072 
L 255.677355 -171.072 
L 255.36 -171.072 
L 255.042645 -171.072 
L 254.725289 -171.072 
L 254.407934 -171.072 
L 254.090579 -171.072 
L 253.773223 -171.072 
L 253.455868 -171.072 
L 253.138512 -171.072 
L 252.821157 -171.072 
L 252.503802 -171.072 
L 252.186446 -171.072 
L 251.869091 -171.072 
L 251.551736 -171.072 
L 251.23438 -171.072 
L 250.917025 -171.072 
L 250.599669 -171.072 
L 250.282314 -171.072 
L 249.964959 -171.072 
L 249.647603 -171.072 
L 249.330248 -171.072 
L 249.012893 -171.072 
L 248.695537 -171.072 
L 248.378182 -171.072 
L 248.060826 -171.072 
L 247.743471 -171.072 
L 247.426116 -171.072 
L 247.10876 -171.072 
L 246.791405 -171.072 
L 246.47405 -171.072 
L 246.156694 -171.072 
L 245.839339 -171.072 
L 245.521983 -171.072 
L 245.204628 -171.072 
L 244.887273 -171.072 
L 244.569917 -171.072 
L 244.252562 -171.072 
L 243.935207 -171.072 
L 243.617851 -171.072 
L 243.300496 -171.072 
L 242.98314 -171.072 
L 242.665785 -171.072 
L 242.34843 -171.072 
L 242.031074 -171.072 
L 241.713719 -171.072 
L 241.396364 -171.072 
L 241.079008 -171.072 
L 240.761653 -171.072 
L 240.444298 -171.072 
L 240.126942 -171.072 
L 239.809587 -171.072 
L 239.492231 -171.072 
L 239.174876 -171.072 
L 238.857521 -171.072 
L 238.540165 -171.072 
L 238.22281 -171.072 
L 237.905455 -171.072 
L 237.588099 -171.072 
L 237.270744 -171.072 
L 236.953388 -171.072 
L 236.636033 -171.072 
L 236.318678 -171.072 
L 236.001322 -171.072 
L 235.683967 -171.072 
L 235.366612 -171.072 
L 235.049256 -171.072 
L 234.731901 -171.072 
L 234.414545 -171.072 
L 234.09719 -171.072 
L 233.779835 -171.072 
L 233.462479 -171.072 
L 233.145124 -171.072 
L 232.827769 -171.072 
L 232.510413 -171.072 
L 232.193058 -171.072 
L 231.875702 -171.072 
L 231.558347 -171.072 
L 231.240992 -171.072 
L 230.923636 -171.072 
L 230.606281 -171.072 
L 230.288926 -171.072 
L 229.97157 -171.072 
L 229.654215 -171.072 
L 229.33686 -171.072 
L 229.019504 -171.072 
L 228.702149 -171.072 
L 228.384793 -171.072 
L 228.067438 -171.072 
L 227.750083 -171.072 
L 227.432727 -171.072 
L 227.115372 -171.072 
L 226.798017 -171.072 
L 226.480661 -171.072 
L 226.163306 -171.072 
L 225.84595 -171.072 
L 225.528595 -171.072 
L 225.21124 -171.072 
L 224.893884 -171.072 
L 224.576529 -171.072 
L 224.259174 -171.072 
L 223.941818 -171.072 
L 223.624463 -171.072 
L 223.307107 -171.072 
L 222.989752 -171.072 
L 222.672397 -171.072 
L 222.355041 -171.072 
L 222.037686 -171.072 
L 221.720331 -171.072 
L 221.402975 -171.072 
L 221.08562 -171.072 
L 220.768264 -171.072 
L 220.450909 -171.072 
L 220.133554 -171.072 
L 219.816198 -171.072 
L 219.498843 -171.072 
L 219.181488 -171.072 
L 218.864132 -171.072 
L 218.546777 -171.072 
L 218.229421 -171.072 
L 217.912066 -171.072 
L 217.594711 -171.072 
L 217.277355 -171.072 
L 216.96 -171.072 
L 216.642645 -171.072 
L 216.325289 -171.072 
L 216.007934 -171.072 
L 215.690579 -171.072 
L 215.373223 -171.072 
L 215.055868 -171.072 
L 214.738512 -171.072 
L 214.421157 -171.072 
L 214.103802 -171.072 
L 213.786446 -171.072 
L 213.469091 -171.072 
L 213.151736 -171.072 
L 212.83438 -171.072 
L 212.517025 -171.072 
L 212.199669 -171.072 
L 211.882314 -171.072 
L 211.564959 -171.072 
L 211.247603 -171.072 
L 210.930248 -171.072 
L 210.612893 -171.072 
L 210.295537 -171.072 
L 209.978182 -171.072 
L 209.660826 -171.072 
L 209.343471 -171.072 
L 209.026116 -171.072 
L 208.70876 -171.072 
L 208.391405 -171.072 
L 208.07405 -171.072 
L 207.756694 -171.072 
L 207.439339 -171.072 
L 207.121983 -171.072 
L 206.804628 -171.072 
L 206.487273 -171.072 
L 206.169917 -171.072 
L 205.852562 -171.072 
L 205.535207 -171.072 
L 205.217851 -171.072 
L 204.900496 -171.072 
L 204.58314 -171.072 
L 204.265785 -171.072 
L 203.94843 -171.072 
L 203.631074 -171.072 
L 203.313719 -171.072 
L 202.996364 -171.072 
L 202.679008 -171.072 
L 202.361653 -171.072 
L 202.044298 -171.072 
L 201.726942 -171.072 
L 201.409587 -171.072 
L 201.092231 -171.072 
L 200.774876 -171.072 
L 200.457521 -171.072 
L 200.140165 -171.072 
L 199.82281 -171.072 
L 199.505455 -171.072 
L 199.188099 -171.072 
L 198.870744 -171.072 
L 198.553388 -171.072 
L 198.236033 -171.072 
L 197.918678 -171.072 
L 197.601322 -171.072 
L 197.283967 -171.072 
L 196.966612 -171.072 
L 196.649256 -171.072 
L 196.331901 -171.072 
L 196.014545 -171.072 
L 195.69719 -171.072 
L 195.379835 -171.072 
L 195.062479 -171.072 
L 194.745124 -171.072 
L 194.427769 -171.072 
L 194.110413 -171.072 
L 193.793058 -171.072 
L 193.475702 -171.072 
L 193.158347 -171.072 
L 192.840992 -171.072 
L 192.523636 -171.072 
L 192.206281 -171.072 
L 191.888926 -171.072 
L 191.57157 -171.072 
L 191.254215 -171.072 
L 190.93686 -171.072 
L 190.619504 -171.072 
L 190.302149 -171.072 
L 189.984793 -171.072 
L 189.667438 -171.072 
L 189.350083 -171.072 
L 189.032727 -171.072 
L 188.715372 -171.072 
L 188.398017 -171.072 
L 188.080661 -171.072 
L 187.763306 -171.072 
L 187.44595 -171.072 
L 187.128595 -171.072 
L 186.81124 -171.072 
L 186.493884 -171.072 
L 186.176529 -171.072 
L 185.859174 -171.072 
L 185.541818 -171.072 
L 185.224463 -171.072 
L 184.907107 -171.072 
L 184.589752 -171.072 
L 184.272397 -171.072 
L 183.955041 -171.072 
L 183.637686 -171.072 
L 183.320331 -171.072 
L 183.002975 -171.072 
L 182.68562 -171.072 
L 182.368264 -171.072 
L 182.050909 -171.072 
L 181.733554 -171.072 
L 181.416198 -171.072 
L 181.098843 -171.072 
L 180.781488 -171.072 
L 180.464132 -171.072 
L 180.146777 -171.072 
L 179.829421 -171.072 
L 179.512066 -171.072 
L 179.194711 -171.072 
L 178.877355 -171.072 
L 178.56 -171.072 
L 178.242645 -171.072 
L 177.925289 -171.072 
L 177.607934 -171.072 
L 177.290579 -171.072 
L 176.973223 -171.072 
L 176.655868 -171.072 
L 176.338512 -171.072 
L 176.021157 -171.072 
L 175.703802 -171.072 
L 175.386446 -171.072 
L 175.069091 -171.072 
L 174.751736 -171.072 
L 174.43438 -171.072 
L 174.117025 -171.072 
L 173.799669 -171.072 
L 173.482314 -171.072 
L 173.164959 -171.072 
L 172.847603 -171.072 
L 172.530248 -171.072 
L 172.212893 -171.072 
L 171.895537 -171.072 
L 171.578182 -171.072 
L 171.260826 -171.072 
L 170.943471 -171.072 
L 170.626116 -171.072 
L 170.30876 -171.072 
L 169.991405 -171.072 
L 169.67405 -171.072 
L 169.356694 -171.072 
L 169.039339 -171.072 
L 168.721983 -171.072 
L 168.404628 -171.072 
L 168.087273 -171.072 
L 167.769917 -171.072 
L 167.452562 -171.072 
L 167.135207 -171.072 
L 166.817851 -171.072 
L 166.500496 -171.072 
L 166.18314 -171.072 
L 165.865785 -171.072 
L 165.54843 -171.072 
L 165.231074 -171.072 
L 164.913719 -171.072 
L 164.596364 -171.072 
L 164.279008 -171.072 
L 163.961653 -171.072 
L 163.644298 -171.072 
L 163.326942 -171.072 
L 163.009587 -171.072 
L 162.692231 -171.072 
L 162.374876 -171.072 
L 162.057521 -171.072 
L 161.740165 -171.072 
L 161.42281 -171.072 
L 161.105455 -171.072 
L 160.788099 -171.072 
L 160.470744 -171.072 
L 160.153388 -171.072 
L 159.836033 -171.072 
L 159.518678 -171.072 
L 159.201322 -171.072 
L 158.883967 -171.072 
L 158.566612 -171.072 
L 158.249256 -171.072 
L 157.931901 -171.072 
L 157.614545 -171.072 
L 157.29719 -171.072 
L 156.979835 -171.072 
L 156.662479 -171.072 
L 156.345124 -171.072 
L 156.027769 -171.072 
L 155.710413 -171.072 
L 155.393058 -171.072 
L 155.075702 -171.072 
L 154.758347 -171.072 
L 154.440992 -171.072 
L 154.123636 -171.072 
L 153.806281 -171.072 
L 153.488926 -171.072 
L 153.17157 -171.072 
L 152.854215 -171.072 
L 152.53686 -171.072 
L 152.219504 -171.072 
L 151.902149 -171.072 
L 151.584793 -171.072 
L 151.267438 -171.072 
L 150.950083 -171.072 
L 150.632727 -171.072 
L 150.315372 -171.072 
L 149.998017 -171.072 
L 149.680661 -171.072 
L 149.363306 -171.072 
L 149.04595 -171.072 
L 148.728595 -171.072 
L 148.41124 -171.072 
L 148.093884 -171.072 
L 147.776529 -171.072 
L 147.459174 -171.072 
L 147.141818 -171.072 
L 146.824463 -171.072 
L 146.507107 -171.072 
L 146.189752 -171.072 
L 145.872397 -171.072 
L 145.555041 -171.072 
L 145.237686 -171.072 
L 144.920331 -171.072 
L 144.602975 -171.072 
L 144.28562 -171.072 
L 143.968264 -171.072 
L 143.650909 -171.072 
L 143.333554 -171.072 
L 143.016198 -171.072 
L 142.698843 -171.072 
L 142.381488 -171.072 
L 142.064132 -171.072 
L 141.746777 -171.072 
L 141.429421 -171.072 
L 141.112066 -171.072 
L 140.794711 -171.072 
L 140.477355 -171.072 
L 140.16 -171.072 
L 139.842645 -171.072 
L 139.525289 -171.072 
L 139.207934 -171.072 
L 138.890579 -171.072 
L 138.573223 -171.072 
L 138.255868 -171.072 
L 137.938512 -171.072 
L 137.621157 -171.072 
L 137.303802 -171.072 
L 136.986446 -171.072 
L 136.669091 -171.072 
L 136.351736 -171.072 
L 136.03438 -171.072 
L 135.717025 -171.072 
L 135.399669 -171.072 
L 135.082314 -171.072 
L 134.764959 -171.072 
L 134.447603 -171.072 
L 134.130248 -171.072 
L 133.812893 -171.072 
L 133.495537 -171.072 
L 133.178182 -171.072 
L 132.860826 -171.072 
L 132.543471 -171.072 
L 132.226116 -171.072 
L 131.90876 -171.072 
L 131.591405 -171.072 
L 131.27405 -171.072 
L 130.956694 -171.072 
L 130.639339 -171.072 
L 130.321983 -171.072 
L 130.004628 -171.072 
L 129.687273 -171.072 
L 129.369917 -171.072 
L 129.052562 -171.072 
L 128.735207 -171.072 
L 128.417851 -171.072 
L 128.100496 -171.072 
L 127.78314 -171.072 
L 127.465785 -171.072 
L 127.14843 -171.072 
L 126.831074 -171.072 
L 126.513719 -171.072 
L 126.196364 -171.072 
L 125.879008 -171.072 
L 125.561653 -171.072 
L 125.244298 -171.072 
L 124.926942 -171.072 
L 124.609587 -171.072 
L 124.292231 -171.072 
L 123.974876 -171.072 
L 123.657521 -171.072 
L 123.340165 -171.072 
L 123.02281 -171.072 
L 122.705455 -171.072 
L 122.388099 -171.072 
L 122.070744 -171.072 
L 121.753388 -171.072 
L 121.436033 -171.072 
L 121.118678 -171.072 
L 120.801322 -171.072 
L 120.483967 -171.072 
L 120.166612 -171.072 
L 119.849256 -171.072 
L 119.531901 -171.072 
L 119.214545 -171.072 
L 118.89719 -171.072 
L 118.579835 -171.072 
L 118.262479 -171.072 
L 117.945124 -171.072 
L 117.627769 -171.072 
L 117.310413 -171.072 
L 116.993058 -171.072 
L 116.675702 -171.072 
L 116.358347 -171.072 
L 116.040992 -171.072 
L 115.723636 -171.072 
L 115.406281 -171.072 
L 115.088926 -171.072 
L 114.77157 -171.072 
L 114.454215 -171.072 
L 114.13686 -171.072 
L 113.819504 -171.072 
L 113.502149 -171.072 
L 113.184793 -171.072 
L 112.867438 -171.072 
L 112.550083 -171.072 
L 112.232727 -171.072 
L 111.915372 -171.072 
L 111.598017 -171.072 
L 111.280661 -171.072 
L 110.963306 -171.072 
L 110.64595 -171.072 
L 110.328595 -171.072 
L 110.01124 -171.072 
L 109.693884 -171.072 
L 109.376529 -171.072 
L 109.059174 -171.072 
L 108.741818 -171.072 
L 108.424463 -171.072 
L 108.107107 -171.072 
L 107.789752 -171.072 
L 107.472397 -171.072 
L 107.155041 -171.072 
L 106.837686 -171.072 
L 106.520331 -171.072 
L 106.202975 -171.072 
L 105.88562 -171.072 
L 105.568264 -171.072 
L 105.250909 -171.072 
L 104.933554 -171.072 
L 104.616198 -171.072 
L 104.298843 -171.072 
L 103.981488 -171.072 
L 103.664132 -171.072 
L 103.346777 -171.072 
L 103.029421 -171.072 
L 102.712066 -171.072 
L 102.394711 -171.072 
L 102.077355 -171.072 
L 101.76 -171.072 
L 101.442645 -171.072 
L 101.125289 -171.072 
L 100.807934 -171.072 
L 100.490579 -171.072 
L 100.173223 -171.072 
L 99.855868 -171.072 
L 99.538512 -171.072 
L 99.221157 -171.072 
L 98.903802 -171.072 
L 98.586446 -171.072 
L 98.269091 -171.072 
L 97.951736 -171.072 
L 97.63438 -171.072 
L 97.317025 -171.072 
L 96.999669 -171.072 
L 96.682314 -171.072 
L 96.364959 -171.072 
L 96.047603 -171.072 
L 95.730248 -171.072 
L 95.412893 -171.072 
L 95.095537 -171.072 
L 94.778182 -171.072 
L 94.460826 -171.072 
L 94.143471 -171.072 
L 93.826116 -171.072 
L 93.50876 -171.072 
L 93.191405 -171.072 
L 92.87405 -171.072 
L 92.556694 -171.072 
L 92.239339 -171.072 
L 91.921983 -171.072 
L 91.604628 -171.072 
L 91.287273 -171.072 
L 90.969917 -171.072 
L 90.652562 -171.072 
L 90.335207 -171.072 
L 90.017851 -171.072 
L 89.700496 -171.072 
L 89.38314 -171.072 
L 89.065785 -171.072 
L 88.74843 -171.072 
L 88.431074 -171.072 
L 88.113719 -171.072 
L 87.796364 -171.072 
L 87.479008 -171.072 
L 87.161653 -171.072 
L 86.844298 -171.072 
L 86.526942 -171.072 
L 86.209587 -171.072 
L 85.892231 -171.072 
L 85.574876 -171.072 
L 85.257521 -171.072 
L 84.940165 -171.072 
L 84.62281 -171.072 
L 84.305455 -171.072 
L 83.988099 -171.072 
L 83.670744 -171.072 
L 83.353388 -171.072 
L 83.036033 -171.072 
L 82.718678 -171.072 
L 82.401322 -171.072 
L 82.083967 -171.072 
L 81.766612 -171.072 
L 81.449256 -171.072 
L 81.131901 -171.072 
L 80.814545 -171.072 
L 80.49719 -171.072 
L 80.179835 -171.072 
L 79.862479 -171.072 
L 79.545124 -171.072 
L 79.227769 -171.072 
L 78.910413 -171.072 
L 78.593058 -171.072 
L 78.275702 -171.072 
L 77.958347 -171.072 
L 77.640992 -171.072 
L 77.323636 -171.072 
L 77.006281 -171.072 
L 76.688926 -171.072 
L 76.37157 -171.072 
L 76.054215 -171.072 
L 75.73686 -171.072 
L 75.419504 -171.072 
L 75.102149 -171.072 
L 74.784793 -171.072 
L 74.467438 -171.072 
L 74.150083 -171.072 
L 73.832727 -171.072 
z
" style="stroke: #87ceeb; stroke-opacity: 0.75"/>
    </defs>
    <g clip-path="url(#pbc8221f422)">
     <use xlink:href="#m8ce2cdb9dc" x="0" y="345.6" style="fill: #87ceeb; fill-opacity: 0.75; stroke: #87ceeb; stroke-opacity: 0.75"/>
    </g>
   </g>
   <g id="matplotlib.axis_1">
    <g id="xtick_1">
     <g id="line2d_1">
      <defs>
       <path id="m76b086d09d" d="M 0 0 
L 0 3.5 
" style="stroke: #000000; stroke-width: 0.8"/>
      </defs>
      <g>
       <use xlink:href="#m76b086d09d" x="73.832727" y="307.584" style="stroke: #000000; stroke-width: 0.8"/>
      </g>
     </g>
     <g id="text_1">
      <!-- 0 -->
      <g transform="translate(70.531868 322.161969) scale(0.11 -0.11)">
       <defs>
        <path id="AndaleMono-30" d="M 1913 4494 
Q 2613 4494 2989 3892 
Q 3366 3291 3366 2203 
Q 3366 1150 3000 533 
Q 2634 -84 1913 -84 
Q 1216 -84 837 516 
Q 459 1116 459 2203 
Q 459 3259 826 3876 
Q 1194 4494 1913 4494 
z
M 1913 366 
Q 2375 366 2598 805 
Q 2822 1244 2822 2203 
Q 2822 3166 2598 3602 
Q 2375 4038 1913 4038 
Q 1456 4038 1231 3591 
Q 1006 3144 1006 2203 
Q 1006 1250 1229 808 
Q 1453 366 1913 366 
z
M 1900 2672 
Q 2097 2672 2233 2536 
Q 2369 2400 2369 2203 
Q 2369 2000 2231 1854 
Q 2094 1709 1900 1709 
Q 1709 1709 1573 1854 
Q 1438 2000 1438 2203 
Q 1438 2403 1570 2537 
Q 1703 2672 1900 2672 
z
" transform="scale(0.015625)"/>
       </defs>
       <use xlink:href="#AndaleMono-30"/>
      </g>
     </g>
    </g>
    <g id="xtick_2">
     <g id="line2d_2">
      <g>
       <use xlink:href="#m76b086d09d" x="137.303802" y="307.584" style="stroke: #000000; stroke-width: 0.8"/>
      </g>
     </g>
     <g id="text_2">
      <!-- 200 -->
      <g transform="translate(127.401224 322.161969) scale(0.11 -0.11)">
       <defs>
        <path id="AndaleMono-32" d="M 3066 0 
L 641 0 
L 641 372 
Q 1563 1400 1838 1750 
Q 2113 2100 2284 2484 
Q 2456 2869 2456 3250 
Q 2456 3619 2232 3831 
Q 2009 4044 1606 4044 
Q 1297 4044 775 3853 
L 703 4294 
Q 1175 4494 1691 4494 
Q 2281 4494 2642 4161 
Q 3003 3828 3003 3272 
Q 3003 2875 2817 2484 
Q 2631 2094 2340 1734 
Q 2050 1375 1209 447 
L 3066 447 
L 3066 0 
z
" transform="scale(0.015625)"/>
       </defs>
       <use xlink:href="#AndaleMono-32"/>
       <use xlink:href="#AndaleMono-30" x="60.009766"/>
       <use xlink:href="#AndaleMono-30" x="120.019531"/>
      </g>
     </g>
    </g>
    <g id="xtick_3">
     <g id="line2d_3">
      <g>
       <use xlink:href="#m76b086d09d" x="200.774876" y="307.584" style="stroke: #000000; stroke-width: 0.8"/>
      </g>
     </g>
     <g id="text_3">
      <!-- 400 -->
      <g transform="translate(190.872298 322.161969) scale(0.11 -0.11)">
       <defs>
        <path id="AndaleMono-34" d="M 3353 1019 
L 2809 1019 
L 2809 0 
L 2297 0 
L 2297 1019 
L 378 1019 
L 378 1409 
L 2119 4409 
L 2809 4409 
L 2809 1466 
L 3353 1466 
L 3353 1019 
z
M 2297 1466 
L 2297 3903 
L 897 1466 
L 2297 1466 
z
" transform="scale(0.015625)"/>
       </defs>
       <use xlink:href="#AndaleMono-34"/>
       <use xlink:href="#AndaleMono-30" x="60.009766"/>
       <use xlink:href="#AndaleMono-30" x="120.019531"/>
      </g>
     </g>
    </g>
    <g id="xtick_4">
     <g id="line2d_4">
      <g>
       <use xlink:href="#m76b086d09d" x="264.24595" y="307.584" style="stroke: #000000; stroke-width: 0.8"/>
      </g>
     </g>
     <g id="text_4">
      <!-- 600 -->
      <g transform="translate(254.343372 322.161969) scale(0.11 -0.11)">
       <defs>
        <path id="AndaleMono-36" d="M 1131 2297 
Q 1544 2631 2028 2631 
Q 2588 2631 2961 2273 
Q 3334 1916 3334 1350 
Q 3334 728 3003 322 
Q 2672 -84 2119 -84 
Q 1413 -84 1000 564 
Q 588 1213 588 2150 
Q 588 3150 1017 3822 
Q 1447 4494 2194 4494 
Q 2709 4494 3084 4341 
L 3003 3884 
Q 2569 4044 2209 4044 
Q 1700 4044 1415 3556 
Q 1131 3069 1131 2297 
z
M 1147 1856 
Q 1147 1291 1412 828 
Q 1678 366 2081 366 
Q 2422 366 2606 616 
Q 2791 866 2791 1306 
Q 2791 1713 2587 1947 
Q 2384 2181 2016 2181 
Q 1538 2181 1147 1856 
z
" transform="scale(0.015625)"/>
       </defs>
       <use xlink:href="#AndaleMono-36"/>
       <use xlink:href="#AndaleMono-30" x="60.009766"/>
       <use xlink:href="#AndaleMono-30" x="120.019531"/>
      </g>
     </g>
    </g>
    <g id="xtick_5">
     <g id="line2d_5">
      <g>
       <use xlink:href="#m76b086d09d" x="327.717025" y="307.584" style="stroke: #000000; stroke-width: 0.8"/>
      </g>
     </g>
     <g id="text_5">
      <!-- 800 -->
      <g transform="translate(317.814447 322.161969) scale(0.11 -0.11)">
       <defs>
        <path id="AndaleMono-38" d="M 2363 2419 
Q 2813 2288 3061 1972 
Q 3309 1656 3309 1234 
Q 3309 628 2907 272 
Q 2506 -84 1919 -84 
Q 1303 -84 908 275 
Q 513 634 513 1228 
Q 513 1647 769 1965 
Q 1025 2284 1484 2419 
Q 1119 2513 898 2780 
Q 678 3047 678 3378 
Q 678 3803 1015 4148 
Q 1353 4494 1906 4494 
Q 2453 4494 2811 4150 
Q 3169 3806 3169 3378 
Q 3169 3056 2944 2786 
Q 2719 2516 2363 2419 
z
M 1906 2631 
Q 1922 2631 2056 2668 
Q 2191 2706 2286 2761 
Q 2381 2816 2462 2900 
Q 2544 2984 2594 3098 
Q 2644 3213 2644 3353 
Q 2644 3653 2428 3851 
Q 2213 4050 1906 4050 
Q 1609 4050 1396 3847 
Q 1184 3644 1184 3353 
Q 1184 3169 1261 3031 
Q 1338 2894 1452 2809 
Q 1566 2725 1714 2678 
Q 1863 2631 1906 2631 
z
M 1906 2194 
Q 1050 1944 1050 1253 
Q 1050 850 1309 608 
Q 1569 366 1919 366 
Q 2281 366 2529 605 
Q 2778 844 2778 1253 
Q 2778 1563 2606 1808 
Q 2434 2053 1906 2194 
z
" transform="scale(0.015625)"/>
       </defs>
       <use xlink:href="#AndaleMono-38"/>
       <use xlink:href="#AndaleMono-30" x="60.009766"/>
       <use xlink:href="#AndaleMono-30" x="120.019531"/>
      </g>
     </g>
    </g>
    <g id="xtick_6">
     <g id="line2d_6">
      <g>
       <use xlink:href="#m76b086d09d" x="391.188099" y="307.584" style="stroke: #000000; stroke-width: 0.8"/>
      </g>
     </g>
     <g id="text_6">
      <!-- 1000 -->
      <g transform="translate(377.984662 322.161969) scale(0.11 -0.11)">
       <defs>
        <path id="AndaleMono-31" d="M 3181 0 
L 863 0 
L 863 447 
L 1797 447 
L 1797 3872 
L 916 3431 
L 916 3944 
L 1869 4434 
L 2309 4434 
L 2309 447 
L 3181 447 
L 3181 0 
z
" transform="scale(0.015625)"/>
       </defs>
       <use xlink:href="#AndaleMono-31"/>
       <use xlink:href="#AndaleMono-30" x="60.009766"/>
       <use xlink:href="#AndaleMono-30" x="120.019531"/>
       <use xlink:href="#AndaleMono-30" x="180.029297"/>
      </g>
     </g>
    </g>
   </g>
   <g id="matplotlib.axis_2">
    <g id="ytick_1">
     <g id="line2d_7">
      <defs>
       <path id="m52da0c6e77" d="M 0 0 
L -3.5 0 
" style="stroke: #000000; stroke-width: 0.8"/>
      </defs>
      <g>
       <use xlink:href="#m52da0c6e77" x="57.6" y="295.488" style="stroke: #000000; stroke-width: 0.8"/>
      </g>
     </g>
     <g id="text_7">
      <!-- 1.00 -->
      <g transform="translate(17.591406 299.276984) scale(0.11 -0.11)">
       <defs>
        <path id="AndaleMono-2212" d="M 3397 2047 
L 441 2047 
L 441 2456 
L 3397 2456 
L 3397 2047 
z
" transform="scale(0.015625)"/>
        <path id="AndaleMono-2e" d="M 1900 716 
Q 2066 716 2178 603 
Q 2291 491 2291 325 
Q 2291 156 2177 36 
Q 2063 -84 1900 -84 
Q 1741 -84 1628 36 
Q 1516 156 1516 325 
Q 1516 494 1627 605 
Q 1738 716 1900 716 
z
" transform="scale(0.015625)"/>
       </defs>
       <use xlink:href="#AndaleMono-2212"/>
       <use xlink:href="#AndaleMono-31" x="60.009766"/>
       <use xlink:href="#AndaleMono-2e" x="120.019531"/>
       <use xlink:href="#AndaleMono-30" x="180.029297"/>
       <use xlink:href="#AndaleMono-30" x="240.039062"/>
      </g>
     </g>
    </g>
    <g id="ytick_2">
     <g id="line2d_8">
      <g>
       <use xlink:href="#m52da0c6e77" x="57.6" y="265.248" style="stroke: #000000; stroke-width: 0.8"/>
      </g>
     </g>
     <g id="text_8">
      <!-- 0.75 -->
      <g transform="translate(17.591406 269.036984) scale(0.11 -0.11)">
       <defs>
        <path id="AndaleMono-37" d="M 3238 4044 
L 1491 0 
L 966 0 
L 2688 3963 
L 622 3963 
L 622 4409 
L 3238 4409 
L 3238 4044 
z
" transform="scale(0.015625)"/>
        <path id="AndaleMono-35" d="M 1356 2631 
Q 1569 2688 1772 2688 
Q 2397 2688 2759 2305 
Q 3122 1922 3122 1350 
Q 3122 750 2700 333 
Q 2278 -84 1672 -84 
Q 1094 -84 703 109 
L 806 544 
Q 1231 366 1684 366 
Q 2088 366 2336 625 
Q 2584 884 2584 1350 
Q 2584 1791 2350 2028 
Q 2116 2266 1747 2266 
Q 1478 2266 1216 2163 
L 909 2303 
L 909 4409 
L 2925 4409 
L 2925 3963 
L 1356 3963 
L 1356 2631 
z
" transform="scale(0.015625)"/>
       </defs>
       <use xlink:href="#AndaleMono-2212"/>
       <use xlink:href="#AndaleMono-30" x="60.009766"/>
       <use xlink:href="#AndaleMono-2e" x="120.019531"/>
       <use xlink:href="#AndaleMono-37" x="180.029297"/>
       <use xlink:href="#AndaleMono-35" x="240.039062"/>
      </g>
     </g>
    </g>
    <g id="ytick_3">
     <g id="line2d_9">
      <g>
       <use xlink:href="#m52da0c6e77" x="57.6" y="235.008" style="stroke: #000000; stroke-width: 0.8"/>
      </g>
     </g>
     <g id="text_9">
      <!-- 0.50 -->
      <g transform="translate(17.591406 238.796984) scale(0.11 -0.11)">
       <use xlink:href="#AndaleMono-2212"/>
       <use xlink:href="#AndaleMono-30" x="60.009766"/>
       <use xlink:href="#AndaleMono-2e" x="120.019531"/>
       <use xlink:href="#AndaleMono-35" x="180.029297"/>
       <use xlink:href="#AndaleMono-30" x="240.039062"/>
      </g>
     </g>
    </g>
    <g id="ytick_4">
     <g id="line2d_10">
      <g>
       <use xlink:href="#m52da0c6e77" x="57.6" y="204.768" style="stroke: #000000; stroke-width: 0.8"/>
      </g>
     </g>
     <g id="text_10">
      <!-- 0.25 -->
      <g transform="translate(17.591406 208.556984) scale(0.11 -0.11)">
       <use xlink:href="#AndaleMono-2212"/>
       <use xlink:href="#AndaleMono-30" x="60.009766"/>
       <use xlink:href="#AndaleMono-2e" x="120.019531"/>
       <use xlink:href="#AndaleMono-32" x="180.029297"/>
       <use xlink:href="#AndaleMono-35" x="240.039062"/>
      </g>
     </g>
    </g>
    <g id="ytick_5">
     <g id="line2d_11">
      <g>
       <use xlink:href="#m52da0c6e77" x="57.6" y="174.528" style="stroke: #000000; stroke-width: 0.8"/>
      </g>
     </g>
     <g id="text_11">
      <!-- 0.00 -->
      <g transform="translate(24.193125 178.316984) scale(0.11 -0.11)">
       <use xlink:href="#AndaleMono-30"/>
       <use xlink:href="#AndaleMono-2e" x="60.009766"/>
       <use xlink:href="#AndaleMono-30" x="120.019531"/>
       <use xlink:href="#AndaleMono-30" x="180.029297"/>
      </g>
     </g>
    </g>
    <g id="ytick_6">
     <g id="line2d_12">
      <g>
       <use xlink:href="#m52da0c6e77" x="57.6" y="144.288" style="stroke: #000000; stroke-width: 0.8"/>
      </g>
     </g>
     <g id="text_12">
      <!-- 0.25 -->
      <g transform="translate(24.193125 148.076984) scale(0.11 -0.11)">
       <use xlink:href="#AndaleMono-30"/>
       <use xlink:href="#AndaleMono-2e" x="60.009766"/>
       <use xlink:href="#AndaleMono-32" x="120.019531"/>
       <use xlink:href="#AndaleMono-35" x="180.029297"/>
      </g>
     </g>
    </g>
    <g id="ytick_7">
     <g id="line2d_13">
      <g>
       <use xlink:href="#m52da0c6e77" x="57.6" y="114.048" style="stroke: #000000; stroke-width: 0.8"/>
      </g>
     </g>
     <g id="text_13">
      <!-- 0.50 -->
      <g transform="translate(24.193125 117.836984) scale(0.11 -0.11)">
       <use xlink:href="#AndaleMono-30"/>
       <use xlink:href="#AndaleMono-2e" x="60.009766"/>
       <use xlink:href="#AndaleMono-35" x="120.019531"/>
       <use xlink:href="#AndaleMono-30" x="180.029297"/>
      </g>
     </g>
    </g>
    <g id="ytick_8">
     <g id="line2d_14">
      <g>
       <use xlink:href="#m52da0c6e77" x="57.6" y="83.808" style="stroke: #000000; stroke-width: 0.8"/>
      </g>
     </g>
     <g id="text_14">
      <!-- 0.75 -->
      <g transform="translate(24.193125 87.596984) scale(0.11 -0.11)">
       <use xlink:href="#AndaleMono-30"/>
       <use xlink:href="#AndaleMono-2e" x="60.009766"/>
       <use xlink:href="#AndaleMono-37" x="120.019531"/>
       <use xlink:href="#AndaleMono-35" x="180.029297"/>
      </g>
     </g>
    </g>
    <g id="ytick_9">
     <g id="line2d_15">
      <g>
       <use xlink:href="#m52da0c6e77" x="57.6" y="53.568" style="stroke: #000000; stroke-width: 0.8"/>
      </g>
     </g>
     <g id="text_15">
      <!-- 1.00 -->
      <g transform="translate(24.193125 57.356984) scale(0.11 -0.11)">
       <use xlink:href="#AndaleMono-31"/>
       <use xlink:href="#AndaleMono-2e" x="60.009766"/>
       <use xlink:href="#AndaleMono-30" x="120.019531"/>
       <use xlink:href="#AndaleMono-30" x="180.029297"/>
      </g>
     </g>
    </g>
   </g>
   <g id="line2d_16">
    <path d="M 73.832727 174.528 
L 74.150083 162.365579 
L 76.688926 156.884064 
L 77.958347 154.557886 
L 79.227769 152.73418 
L 80.179835 151.799011 
L 81.131901 151.113707 
L 82.401322 150.550232 
L 83.988099 150.093246 
L 84.940165 148.924848 
L 85.574876 148.472321 
L 86.209587 148.246278 
L 86.844298 148.223047 
L 87.479008 148.405602 
L 88.113719 148.784809 
L 89.065785 149.681263 
L 90.335207 151.324799 
L 91.921983 153.875811 
L 93.826116 157.4106 
L 96.682314 162.709878 
L 97.951736 164.681381 
L 98.903802 165.839432 
L 99.855868 166.654992 
L 100.807934 167.091725 
L 101.76 167.265321 
L 102.712066 167.180309 
L 103.981488 166.893022 
L 107.155041 166.13944 
L 111.280661 165.400849 
L 114.454215 165.204822 
L 116.993058 165.112145 
L 119.531901 165.191159 
L 121.436033 165.385417 
L 123.974876 166.002106 
L 124.926942 166.154017 
L 128.100496 165.994392 
L 129.052562 165.71782 
L 129.687273 165.20012 
L 130.321983 164.357937 
L 131.90876 161.639372 
L 132.543471 160.249188 
L 133.812893 156.834234 
L 134.764959 153.555195 
L 135.717025 149.468983 
L 137.938512 138.299297 
L 140.16 125.620487 
L 142.064132 113.597929 
L 144.602975 97.530948 
L 145.872397 90.457508 
L 150.315372 67.349801 
L 151.267438 64.225624 
L 154.123636 56.026081 
L 154.758347 54.646784 
L 155.393058 53.862484 
L 156.027769 53.568 
L 156.662479 53.653955 
L 158.566612 54.577501 
L 159.518678 55.288314 
L 160.470744 55.851656 
L 161.105455 56.539553 
L 161.740165 57.538546 
L 164.913719 63.331443 
L 165.54843 64.042822 
L 166.817851 65.024415 
L 167.452562 65.912702 
L 169.67405 69.432721 
L 170.943471 71.013224 
L 171.578182 71.365065 
L 172.212893 71.638138 
L 173.164959 72.469026 
L 173.799669 73.323634 
L 175.703802 76.295377 
L 176.973223 77.607937 
L 178.56 78.599312 
L 179.512066 79.638172 
L 180.781488 81.619248 
L 181.733554 82.92133 
L 183.002975 84.181693 
L 184.907107 85.652211 
L 185.541818 86.336457 
L 187.763306 89.312837 
L 189.667438 90.717448 
L 191.254215 91.750422 
L 192.206281 92.766922 
L 193.158347 93.907668 
L 194.110413 94.667894 
L 196.966612 97.048007 
L 197.601322 97.803693 
L 199.82281 100.871431 
L 203.313719 105.412897 
L 209.026116 115.0416 
L 211.882314 120.937969 
L 219.181488 136.196705 
L 222.672397 143.162114 
L 226.798017 151.892155 
L 230.606281 160.939999 
L 236.636033 175.601518 
L 238.857521 180.99174 
L 242.665785 190.401215 
L 247.426116 201.329064 
L 251.23438 209.150253 
L 255.994711 218.568295 
L 261.389752 230.131516 
L 264.24595 235.782265 
L 269.323636 244.135969 
L 270.593058 245.818759 
L 273.449256 249.376021 
L 275.353388 252.007993 
L 277.892231 254.138214 
L 279.479008 255.493504 
L 281.065785 257.305578 
L 282.969917 258.530108 
L 283.921983 259.218884 
L 285.191405 260.410077 
L 287.730248 263.674919 
L 288.682314 264.440242 
L 289.63438 265.141006 
L 290.903802 266.518782 
L 291.855868 267.955612 
L 292.807934 269.417828 
L 293.76 270.456688 
L 294.394711 270.949458 
L 295.664132 271.710236 
L 296.933554 273.154503 
L 297.88562 274.673815 
L 298.837686 276.200856 
L 299.789752 277.185872 
L 300.424463 277.574488 
L 301.059174 277.829511 
L 301.693884 278.359947 
L 302.963306 280.107327 
L 305.184793 283.628063 
L 305.819504 284.347913 
L 307.088926 285.309625 
L 307.723636 286.256899 
L 311.214545 292.516447 
L 311.849256 293.204344 
L 314.070744 294.680497 
L 316.292231 295.488 
L 316.609587 295.400446 
L 317.244298 294.870423 
L 317.879008 293.791651 
L 318.831074 291.292115 
L 320.417851 286.762981 
L 322.004628 281.706199 
L 322.956694 277.564544 
L 324.860826 267.469356 
L 329.621157 239.576826 
L 333.112066 217.915989 
L 335.016198 207.483019 
L 336.920331 198.130853 
L 337.872397 194.310002 
L 338.824463 191.311694 
L 340.093884 188.056348 
L 341.363306 185.738113 
L 342.315372 184.241 
L 342.950083 183.550301 
L 343.584793 183.203428 
L 345.17157 182.887841 
L 348.027769 182.979394 
L 351.836033 183.800871 
L 355.326942 183.943855 
L 358.817851 183.798186 
L 362.626116 183.442503 
L 368.021157 182.249259 
L 369.925289 181.815205 
L 370.877355 181.811484 
L 371.829421 182.078465 
L 372.464132 182.401008 
L 373.098843 182.899205 
L 374.050909 183.954913 
L 375.002975 185.314007 
L 376.589752 188.028567 
L 381.984793 197.861634 
L 383.254215 199.61764 
L 384.206281 200.622613 
L 385.158347 201.248461 
L 385.793058 201.427609 
L 386.427769 201.419459 
L 387.062479 201.20008 
L 387.69719 200.741865 
L 388.331901 200.039219 
L 388.649256 199.591827 
L 390.553388 198.984707 
L 391.505455 198.447437 
L 392.457521 197.705105 
L 393.409587 196.639172 
L 394.361653 195.214253 
L 395.631074 192.888075 
L 397.535207 188.833702 
L 398.169917 187.40656 
L 398.487273 174.528 
L 398.487273 174.528 
" clip-path="url(#pbc8221f422)" style="fill: none; stroke: #87ceeb; stroke-opacity: 0.75; stroke-linecap: square"/>
   </g>
   <g id="patch_3">
    <path d="M 57.6 307.584 
L 57.6 41.472 
" style="fill: none; stroke: #000000; stroke-width: 0.8; stroke-linejoin: miter; stroke-linecap: square"/>
   </g>
   <g id="patch_4">
    <path d="M 414.72 307.584 
L 414.72 41.472 
" style="fill: none; stroke: #000000; stroke-width: 0.8; stroke-linejoin: miter; stroke-linecap: square"/>
   </g>
   <g id="patch_5">
    <path d="M 57.6 307.584 
L 414.72 307.584 
" style="fill: none; stroke: #000000; stroke-width: 0.8; stroke-linejoin: miter; stroke-linecap: square"/>
   </g>
   <g id="patch_6">
    <path d="M 57.6 41.472 
L 414.72 41.472 
" style="fill: none; stroke: #000000; stroke-width: 0.8; stroke-linejoin: miter; stroke-linecap: square"/>
   </g>
  </g>
 </g>
 <defs>
  <clipPath id="pbc8221f422">
   <rect x="57.6" y="41.472" width="357.12" height="266.112"/>
  </clipPath>
 </defs>
</svg>
