<?xml version="1.0" encoding="utf-8" standalone="no"?>
<!DOCTYPE svg PUBLIC "-//W3C//DTD SVG 1.1//EN"
  "http://www.w3.org/Graphics/SVG/1.1/DTD/svg11.dtd">
<svg xmlns:xlink="http://www.w3.org/1999/xlink" width="460.8pt" height="345.6pt" viewBox="0 0 460.8 345.6" xmlns="http://www.w3.org/2000/svg" version="1.1">
 <metadata>
  <rdf:RDF xmlns:dc="http://purl.org/dc/elements/1.1/" xmlns:cc="http://creativecommons.org/ns#" xmlns:rdf="http://www.w3.org/1999/02/22-rdf-syntax-ns#">
   <cc:Work>
    <dc:type rdf:resource="http://purl.org/dc/dcmitype/StillImage"/>
    <dc:date>2024-04-23T11:13:08.766849</dc:date>
    <dc:format>image/svg+xml</dc:format>
    <dc:creator>
     <cc:Agent>
      <dc:title>Matplotlib v3.8.3, https://matplotlib.org/</dc:title>
     </cc:Agent>
    </dc:creator>
   </cc:Work>
  </rdf:RDF>
 </metadata>
 <defs>
  <style type="text/css">*{stroke-linejoin: round; stroke-linecap: butt}</style>
 </defs>
 <g id="figure_1">
  <g id="patch_1">
   <path d="M 0 345.6 
L 460.8 345.6 
L 460.8 0 
L 0 0 
z
" style="fill: #ffffff"/>
  </g>
  <g id="axes_1">
   <g id="patch_2">
    <path d="M 57.6 307.584 
L 414.72 307.584 
L 414.72 41.472 
L 57.6 41.472 
z
" style="fill: #ffffff"/>
   </g>
   <g id="PolyCollection_1">
    <defs>
     <path id="mebb5efcbe6" d="M 73.832727 -171.223899 
L 73.832727 -171.223899 
L 74.150083 -233.799357 
L 74.467438 -235.722682 
L 74.784793 -237.612048 
L 75.102149 -239.463666 
L 75.419504 -241.331006 
L 75.73686 -243.204345 
L 76.054215 -245.089375 
L 76.37157 -246.9934 
L 76.688926 -248.928411 
L 77.006281 -250.918072 
L 77.323636 -252.932186 
L 77.640992 -254.940002 
L 77.958347 -256.916389 
L 78.275702 -258.828926 
L 78.593058 -260.708474 
L 78.910413 -262.559104 
L 79.227769 -264.397523 
L 79.545124 -266.245135 
L 79.862479 -268.106824 
L 80.179835 -269.969018 
L 80.49719 -271.844802 
L 80.814545 -273.763529 
L 81.131901 -275.720053 
L 81.449256 -277.682937 
L 81.766612 -279.604446 
L 82.083967 -281.48465 
L 82.401322 -283.323151 
L 82.718678 -285.11769 
L 83.036033 -286.869264 
L 83.353388 -288.588523 
L 83.670744 -290.304179 
L 83.988099 -292.032 
L 84.305455 -291.960005 
L 84.62281 -291.93007 
L 84.940165 -291.927455 
L 85.257521 -291.945203 
L 85.574876 -291.932198 
L 85.892231 -291.88058 
L 86.209587 -291.791 
L 86.526942 -291.689986 
L 86.844298 -291.575959 
L 87.161653 -291.467108 
L 87.479008 -291.349042 
L 87.796364 -291.236268 
L 88.113719 -291.140818 
L 88.431074 -291.07243 
L 88.74843 -291.036864 
L 89.065785 -291.035661 
L 89.38314 -291.027004 
L 89.700496 -290.964667 
L 90.017851 -290.847345 
L 90.335207 -290.701513 
L 90.652562 -290.511578 
L 90.969917 -290.304159 
L 91.287273 -290.093823 
L 91.604628 -289.874258 
L 91.921983 -289.673212 
L 92.239339 -289.512054 
L 92.556694 -289.387211 
L 92.87405 -289.287432 
L 93.191405 -289.169072 
L 93.50876 -289.024714 
L 93.826116 -288.825273 
L 94.143471 -288.588428 
L 94.460826 -288.397903 
L 94.778182 -288.239246 
L 95.095537 -288.122514 
L 95.412893 -288.03574 
L 95.730248 -287.938016 
L 96.047603 -287.839823 
L 96.364959 -287.756875 
L 96.682314 -287.703691 
L 96.999669 -287.640823 
L 97.317025 -287.487238 
L 97.63438 -287.264315 
L 97.951736 -287.009689 
L 98.269091 -286.733602 
L 98.586446 -286.490445 
L 98.903802 -286.25066 
L 99.221157 -286.037479 
L 99.538512 -285.860123 
L 99.855868 -285.697437 
L 100.173223 -285.564578 
L 100.490579 -285.475725 
L 100.807934 -285.391238 
L 101.125289 -285.242616 
L 101.442645 -285.014381 
L 101.76 -284.726433 
L 102.077355 -284.431522 
L 102.394711 -284.148453 
L 102.712066 -283.902791 
L 103.029421 -283.716927 
L 103.346777 -283.585612 
L 103.664132 -283.505027 
L 103.981488 -283.475212 
L 104.298843 -283.466123 
L 104.616198 -283.475691 
L 104.933554 -283.442279 
L 105.250909 -283.34843 
L 105.568264 -283.182156 
L 105.88562 -283.033071 
L 106.202975 -282.894132 
L 106.520331 -282.785026 
L 106.837686 -282.674407 
L 107.155041 -282.588784 
L 107.472397 -282.504502 
L 107.789752 -282.450127 
L 108.107107 -282.428338 
L 108.424463 -282.394231 
L 108.741818 -282.317214 
L 109.059174 -282.179752 
L 109.376529 -281.96796 
L 109.693884 -281.715355 
L 110.01124 -281.485844 
L 110.328595 -281.288368 
L 110.64595 -281.106782 
L 110.963306 -280.965849 
L 111.280661 -280.839331 
L 111.598017 -280.736774 
L 111.915372 -280.674395 
L 112.232727 -280.623893 
L 112.550083 -280.512087 
L 112.867438 -280.30728 
L 113.184793 -280.011618 
L 113.502149 -279.699447 
L 113.819504 -279.361148 
L 114.13686 -279.048067 
L 114.454215 -278.743988 
L 114.77157 -278.447044 
L 115.088926 -278.193436 
L 115.406281 -277.940666 
L 115.723636 -277.720855 
L 116.040992 -277.506041 
L 116.358347 -277.287493 
L 116.675702 -277.032393 
L 116.993058 -276.673921 
L 117.310413 -276.249938 
L 117.627769 -275.820618 
L 117.945124 -275.423815 
L 118.262479 -275.053204 
L 118.579835 -274.734444 
L 118.89719 -274.460232 
L 119.214545 -274.226102 
L 119.531901 -274.00104 
L 119.849256 -273.756041 
L 120.166612 -273.483409 
L 120.483967 -273.138512 
L 120.801322 -272.706663 
L 121.118678 -272.206432 
L 121.436033 -271.708496 
L 121.753388 -271.233374 
L 122.070744 -270.795913 
L 122.388099 -270.390428 
L 122.705455 -269.970665 
L 123.02281 -269.550581 
L 123.340165 -269.109044 
L 123.657521 -268.660134 
L 123.974876 -268.200895 
L 124.292231 -267.684036 
L 124.609587 -267.110468 
L 124.926942 -266.45929 
L 125.244298 -265.786096 
L 125.561653 -265.131353 
L 125.879008 -264.529869 
L 126.196364 -263.946326 
L 126.513719 -263.385383 
L 126.831074 -262.831825 
L 127.14843 -262.293349 
L 127.465785 -261.728818 
L 127.78314 -261.159936 
L 128.100496 -260.55043 
L 128.417851 -259.865271 
L 128.735207 -259.143267 
L 129.052562 -258.416015 
L 129.369917 -257.681661 
L 129.687273 -256.947393 
L 130.004628 -256.235237 
L 130.321983 -255.550504 
L 130.639339 -254.884419 
L 130.956694 -254.210202 
L 131.27405 -253.52841 
L 131.591405 -252.844332 
L 131.90876 -252.107705 
L 132.226116 -251.301176 
L 132.543471 -250.419207 
L 132.860826 -249.518185 
L 133.178182 -248.628187 
L 133.495537 -247.771402 
L 133.812893 -246.935861 
L 134.130248 -246.162898 
L 134.447603 -245.419207 
L 134.764959 -244.717297 
L 135.082314 -244.050132 
L 135.399669 -243.340484 
L 135.717025 -242.613193 
L 136.03438 -241.841914 
L 136.351736 -241.036579 
L 136.669091 -240.210635 
L 136.986446 -239.383535 
L 137.303802 -238.597754 
L 137.621157 -237.839831 
L 137.938512 -237.119366 
L 138.255868 -236.391878 
L 138.573223 -235.671551 
L 138.890579 -234.942274 
L 139.207934 -234.189123 
L 139.525289 -233.423463 
L 139.842645 -232.640106 
L 140.16 -231.843334 
L 140.477355 -231.026805 
L 140.794711 -230.215314 
L 141.112066 -229.428418 
L 141.429421 -228.675344 
L 141.746777 -227.908212 
L 142.064132 -227.11711 
L 142.381488 -226.329169 
L 142.698843 -225.559021 
L 143.016198 -224.848115 
L 143.333554 -224.151116 
L 143.650909 -223.464089 
L 143.968264 -222.778572 
L 144.28562 -222.072465 
L 144.602975 -221.351715 
L 144.920331 -220.6409 
L 145.237686 -219.973048 
L 145.555041 -219.327813 
L 145.872397 -218.697565 
L 146.189752 -218.065045 
L 146.507107 -217.428885 
L 146.824463 -216.797916 
L 147.141818 -216.15788 
L 147.459174 -215.499963 
L 147.776529 -214.854471 
L 148.093884 -214.190651 
L 148.41124 -213.524294 
L 148.728595 -212.865852 
L 149.04595 -212.224082 
L 149.363306 -211.594918 
L 149.680661 -210.994093 
L 149.998017 -210.414176 
L 150.315372 -209.840931 
L 150.632727 -209.24461 
L 150.950083 -208.638939 
L 151.267438 -208.05438 
L 151.584793 -207.459827 
L 151.902149 -206.848063 
L 152.219504 -206.254317 
L 152.53686 -205.686316 
L 152.854215 -205.125664 
L 153.17157 -204.582652 
L 153.488926 -204.093563 
L 153.806281 -203.663547 
L 154.123636 -203.251798 
L 154.440992 -202.820745 
L 154.758347 -202.402277 
L 155.075702 -201.970068 
L 155.393058 -201.507691 
L 155.710413 -201.059751 
L 156.027769 -200.608419 
L 156.345124 -200.177258 
L 156.662479 -199.774433 
L 156.979835 -199.390586 
L 157.29719 -199.016047 
L 157.614545 -198.650247 
L 157.931901 -198.296446 
L 158.249256 -197.940903 
L 158.566612 -197.598524 
L 158.883967 -197.266545 
L 159.201322 -196.948344 
L 159.518678 -196.628543 
L 159.836033 -196.309811 
L 160.153388 -195.985582 
L 160.470744 -195.674374 
L 160.788099 -195.395675 
L 161.105455 -195.135632 
L 161.42281 -194.887412 
L 161.740165 -194.65869 
L 162.057521 -194.46497 
L 162.374876 -194.326284 
L 162.692231 -194.192916 
L 163.009587 -194.059326 
L 163.326942 -193.928443 
L 163.644298 -193.794571 
L 163.961653 -193.656612 
L 164.279008 -193.505653 
L 164.596364 -193.367352 
L 164.913719 -193.262529 
L 165.231074 -193.170141 
L 165.54843 -193.082562 
L 165.865785 -193.000957 
L 166.18314 -192.917874 
L 166.500496 -192.831458 
L 166.817851 -192.736624 
L 167.135207 -192.641329 
L 167.452562 -192.549269 
L 167.769917 -192.467682 
L 168.087273 -192.373334 
L 168.404628 -192.273836 
L 168.721983 -192.196597 
L 169.039339 -192.138762 
L 169.356694 -192.08313 
L 169.67405 -192.005679 
L 169.991405 -191.913602 
L 170.30876 -191.830988 
L 170.626116 -191.759373 
L 170.943471 -191.695228 
L 171.260826 -191.627625 
L 171.578182 -191.532676 
L 171.895537 -191.445974 
L 172.212893 -191.358728 
L 172.530248 -191.267713 
L 172.847603 -191.16732 
L 173.164959 -191.098282 
L 173.482314 -191.045231 
L 173.799669 -190.970738 
L 174.117025 -190.853575 
L 174.43438 -190.730534 
L 174.751736 -190.607351 
L 175.069091 -190.455373 
L 175.386446 -190.290379 
L 175.703802 -190.123766 
L 176.021157 -189.946908 
L 176.338512 -189.788805 
L 176.655868 -189.625726 
L 176.973223 -189.445402 
L 177.290579 -189.261384 
L 177.607934 -189.072361 
L 177.925289 -188.891305 
L 178.242645 -188.713328 
L 178.56 -188.536861 
L 178.877355 -188.374784 
L 179.194711 -188.198652 
L 179.512066 -188.012264 
L 179.829421 -187.846546 
L 180.146777 -187.664952 
L 180.464132 -187.514044 
L 180.781488 -187.35267 
L 181.098843 -187.175366 
L 181.416198 -187.003099 
L 181.733554 -186.837512 
L 182.050909 -186.671281 
L 182.368264 -186.497156 
L 182.68562 -186.317289 
L 183.002975 -186.146772 
L 183.320331 -185.975358 
L 183.637686 -185.795677 
L 183.955041 -185.61318 
L 184.272397 -185.437876 
L 184.589752 -185.268814 
L 184.907107 -185.109423 
L 185.224463 -184.941873 
L 185.541818 -184.78806 
L 185.859174 -184.631424 
L 186.176529 -184.475042 
L 186.493884 -184.320111 
L 186.81124 -184.170393 
L 187.128595 -184.033009 
L 187.44595 -183.902703 
L 187.763306 -183.78085 
L 188.080661 -183.664887 
L 188.398017 -183.56167 
L 188.715372 -183.482023 
L 189.032727 -183.397481 
L 189.350083 -183.316152 
L 189.667438 -183.237855 
L 189.984793 -183.194152 
L 190.302149 -183.165738 
L 190.619504 -183.139818 
L 190.93686 -183.102665 
L 191.254215 -183.077917 
L 191.57157 -183.048982 
L 191.888926 -183.04659 
L 192.206281 -183.047881 
L 192.523636 -183.059473 
L 192.840992 -183.073727 
L 193.158347 -183.089996 
L 193.475702 -183.109138 
L 193.793058 -183.120962 
L 194.110413 -183.13892 
L 194.427769 -183.173244 
L 194.745124 -183.195011 
L 195.062479 -183.224803 
L 195.379835 -183.266209 
L 195.69719 -183.321575 
L 196.014545 -183.393884 
L 196.331901 -183.476677 
L 196.649256 -183.55355 
L 196.966612 -183.635064 
L 197.283967 -183.737282 
L 197.601322 -183.839911 
L 197.918678 -183.948095 
L 198.236033 -184.05286 
L 198.553388 -184.151643 
L 198.870744 -184.256849 
L 199.188099 -184.342286 
L 199.505455 -184.432574 
L 199.82281 -184.526191 
L 200.140165 -184.608934 
L 200.457521 -184.723938 
L 200.774876 -184.816276 
L 201.092231 -184.925053 
L 201.409587 -185.047506 
L 201.726942 -185.168857 
L 202.044298 -185.289446 
L 202.361653 -185.402999 
L 202.679008 -185.52357 
L 202.996364 -185.635956 
L 203.313719 -185.749604 
L 203.631074 -185.864216 
L 203.94843 -185.963915 
L 204.265785 -186.054958 
L 204.58314 -186.132125 
L 204.900496 -186.214501 
L 205.217851 -186.280717 
L 205.535207 -186.343426 
L 205.852562 -186.386671 
L 206.169917 -186.425603 
L 206.487273 -186.455356 
L 206.804628 -186.487642 
L 207.121983 -186.520947 
L 207.439339 -186.542468 
L 207.756694 -186.552646 
L 208.07405 -186.550619 
L 208.391405 -186.534661 
L 208.70876 -186.507954 
L 209.026116 -186.467802 
L 209.343471 -186.415068 
L 209.660826 -186.357716 
L 209.978182 -186.297707 
L 210.295537 -186.214234 
L 210.612893 -186.121117 
L 210.930248 -186.014272 
L 211.247603 -185.916984 
L 211.564959 -185.802504 
L 211.882314 -185.703853 
L 212.199669 -185.583726 
L 212.517025 -185.445839 
L 212.83438 -185.304574 
L 213.151736 -185.163109 
L 213.469091 -185.035778 
L 213.786446 -184.901457 
L 214.103802 -184.769584 
L 214.421157 -184.644631 
L 214.738512 -184.508811 
L 215.055868 -184.383902 
L 215.373223 -184.252192 
L 215.690579 -184.125539 
L 216.007934 -183.996412 
L 216.325289 -183.860273 
L 216.642645 -183.725043 
L 216.96 -183.596398 
L 217.277355 -183.47614 
L 217.594711 -183.351111 
L 217.912066 -183.232458 
L 218.229421 -183.122082 
L 218.546777 -183.005635 
L 218.864132 -182.901928 
L 219.181488 -182.803077 
L 219.498843 -182.72127 
L 219.816198 -182.648059 
L 220.133554 -182.57644 
L 220.450909 -182.497935 
L 220.768264 -182.398953 
L 221.08562 -182.305559 
L 221.402975 -182.192974 
L 221.720331 -182.062393 
L 222.037686 -181.923267 
L 222.355041 -181.773995 
L 222.672397 -181.620532 
L 222.989752 -181.459605 
L 223.307107 -181.288636 
L 223.624463 -181.106315 
L 223.941818 -180.913745 
L 224.259174 -180.715416 
L 224.576529 -180.513163 
L 224.893884 -180.309735 
L 225.21124 -180.095925 
L 225.528595 -179.873822 
L 225.84595 -179.649324 
L 226.163306 -179.417932 
L 226.480661 -179.176031 
L 226.798017 -178.936326 
L 227.115372 -178.68218 
L 227.432727 -178.421511 
L 227.750083 -178.160476 
L 228.067438 -177.894506 
L 228.384793 -177.625646 
L 228.702149 -177.357477 
L 229.019504 -177.089031 
L 229.33686 -176.814139 
L 229.654215 -176.544002 
L 229.97157 -176.269294 
L 230.288926 -175.988722 
L 230.606281 -175.709198 
L 230.923636 -175.424345 
L 231.240992 -175.1404 
L 231.558347 -174.853468 
L 231.875702 -174.574399 
L 232.193058 -174.281013 
L 232.510413 -173.996996 
L 232.827769 -173.733913 
L 233.145124 -173.481417 
L 233.462479 -173.239889 
L 233.779835 -172.999551 
L 234.09719 -172.753138 
L 234.414545 -172.515712 
L 234.731901 -172.272027 
L 235.049256 -172.032644 
L 235.366612 -171.797281 
L 235.683967 -171.569092 
L 236.001322 -171.339009 
L 236.318678 -171.108789 
L 236.636033 -170.878707 
L 236.953388 -170.650517 
L 237.270744 -170.415154 
L 237.588099 -170.175772 
L 237.905455 -169.932087 
L 238.22281 -169.69466 
L 238.540165 -169.448248 
L 238.857521 -169.20791 
L 239.174876 -168.966382 
L 239.492231 -168.713886 
L 239.809587 -168.450803 
L 240.126942 -168.166786 
L 240.444298 -167.873399 
L 240.761653 -167.594331 
L 241.079008 -167.307399 
L 241.396364 -167.023453 
L 241.713719 -166.738601 
L 242.031074 -166.459076 
L 242.34843 -166.178504 
L 242.665785 -165.903797 
L 242.98314 -165.63366 
L 243.300496 -165.358767 
L 243.617851 -165.090322 
L 243.935207 -164.822152 
L 244.252562 -164.553293 
L 244.569917 -164.287323 
L 244.887273 -164.026288 
L 245.204628 -163.765619 
L 245.521983 -163.511473 
L 245.839339 -163.271768 
L 246.156694 -163.029867 
L 246.47405 -162.798475 
L 246.791405 -162.573977 
L 247.10876 -162.351874 
L 247.426116 -162.138063 
L 247.743471 -161.934635 
L 248.060826 -161.732383 
L 248.378182 -161.534053 
L 248.695537 -161.341483 
L 249.012893 -161.159163 
L 249.330248 -160.988194 
L 249.647603 -160.827266 
L 249.964959 -160.673804 
L 250.282314 -160.524531 
L 250.599669 -160.385406 
L 250.917025 -160.254825 
L 251.23438 -160.14224 
L 251.551736 -160.048845 
L 251.869091 -159.949863 
L 252.186446 -159.871359 
L 252.503802 -159.799739 
L 252.821157 -159.726528 
L 253.138512 -159.644721 
L 253.455868 -159.545871 
L 253.773223 -159.442164 
L 254.090579 -159.325717 
L 254.407934 -159.215341 
L 254.725289 -159.096687 
L 255.042645 -158.971659 
L 255.36 -158.851401 
L 255.677355 -158.722755 
L 255.994711 -158.587526 
L 256.312066 -158.451386 
L 256.629421 -158.322259 
L 256.946777 -158.195607 
L 257.264132 -158.063896 
L 257.581488 -157.938988 
L 257.898843 -157.803168 
L 258.216198 -157.678214 
L 258.533554 -157.546342 
L 258.850909 -157.41202 
L 259.168264 -157.28469 
L 259.48562 -157.143224 
L 259.802975 -157.001959 
L 260.120331 -156.864073 
L 260.437686 -156.743946 
L 260.755041 -156.645295 
L 261.072397 -156.530814 
L 261.389752 -156.433527 
L 261.707107 -156.326681 
L 262.024463 -156.233565 
L 262.341818 -156.150092 
L 262.659174 -156.090083 
L 262.976529 -156.032731 
L 263.293884 -155.979997 
L 263.61124 -155.939845 
L 263.928595 -155.913137 
L 264.24595 -155.897179 
L 264.563306 -155.895152 
L 264.880661 -155.905331 
L 265.198017 -155.926851 
L 265.515372 -155.960157 
L 265.832727 -155.992443 
L 266.150083 -156.022195 
L 266.467438 -156.061128 
L 266.784793 -156.104373 
L 267.102149 -156.167082 
L 267.419504 -156.233297 
L 267.73686 -156.315674 
L 268.054215 -156.39284 
L 268.37157 -156.483883 
L 268.688926 -156.583583 
L 269.006281 -156.698195 
L 269.323636 -156.811842 
L 269.640992 -156.924228 
L 269.958347 -157.044799 
L 270.275702 -157.158353 
L 270.593058 -157.278941 
L 270.910413 -157.400292 
L 271.227769 -157.522746 
L 271.545124 -157.631523 
L 271.862479 -157.72386 
L 272.179835 -157.838865 
L 272.49719 -157.921608 
L 272.814545 -158.015224 
L 273.131901 -158.105513 
L 273.449256 -158.190949 
L 273.766612 -158.296155 
L 274.083967 -158.394939 
L 274.401322 -158.499703 
L 274.718678 -158.607888 
L 275.036033 -158.710517 
L 275.353388 -158.812735 
L 275.670744 -158.894248 
L 275.988099 -158.971122 
L 276.305455 -159.053915 
L 276.62281 -159.126223 
L 276.940165 -159.181589 
L 277.257521 -159.222996 
L 277.574876 -159.252788 
L 277.892231 -159.274555 
L 278.209587 -159.308879 
L 278.526942 -159.326837 
L 278.844298 -159.33866 
L 279.161653 -159.357803 
L 279.479008 -159.374071 
L 279.796364 -159.388325 
L 280.113719 -159.399918 
L 280.431074 -159.401208 
L 280.74843 -159.398817 
L 281.065785 -159.369882 
L 281.38314 -159.345133 
L 281.700496 -159.307981 
L 282.017851 -159.282061 
L 282.335207 -159.253646 
L 282.652562 -159.209944 
L 282.969917 -159.131646 
L 283.287273 -159.050317 
L 283.604628 -158.965776 
L 283.921983 -158.886128 
L 284.239339 -158.782912 
L 284.556694 -158.666949 
L 284.87405 -158.545095 
L 285.191405 -158.41479 
L 285.50876 -158.277406 
L 285.826116 -158.127688 
L 286.143471 -157.972757 
L 286.460826 -157.816375 
L 286.778182 -157.659738 
L 287.095537 -157.505926 
L 287.412893 -157.338375 
L 287.730248 -157.178985 
L 288.047603 -157.009923 
L 288.364959 -156.834618 
L 288.682314 -156.652122 
L 288.999669 -156.472441 
L 289.317025 -156.301027 
L 289.63438 -156.13051 
L 289.951736 -155.950643 
L 290.269091 -155.776518 
L 290.586446 -155.610287 
L 290.903802 -155.4447 
L 291.221157 -155.272432 
L 291.538512 -155.095129 
L 291.855868 -154.933755 
L 292.173223 -154.782846 
L 292.490579 -154.601252 
L 292.807934 -154.435535 
L 293.125289 -154.249146 
L 293.442645 -154.073014 
L 293.76 -153.910937 
L 294.077355 -153.734471 
L 294.394711 -153.556494 
L 294.712066 -153.375438 
L 295.029421 -153.186414 
L 295.346777 -153.002397 
L 295.664132 -152.822072 
L 295.981488 -152.658994 
L 296.298843 -152.500891 
L 296.616198 -152.324033 
L 296.933554 -152.15742 
L 297.250909 -151.992425 
L 297.568264 -151.840447 
L 297.88562 -151.717264 
L 298.202975 -151.594224 
L 298.520331 -151.47706 
L 298.837686 -151.402568 
L 299.155041 -151.349516 
L 299.472397 -151.280478 
L 299.789752 -151.180085 
L 300.107107 -151.089071 
L 300.424463 -151.001824 
L 300.741818 -150.915123 
L 301.059174 -150.820174 
L 301.376529 -150.75257 
L 301.693884 -150.688426 
L 302.01124 -150.616811 
L 302.328595 -150.534196 
L 302.64595 -150.44212 
L 302.963306 -150.364669 
L 303.280661 -150.309037 
L 303.598017 -150.251201 
L 303.915372 -150.173963 
L 304.232727 -150.074465 
L 304.550083 -149.980117 
L 304.867438 -149.898529 
L 305.184793 -149.806469 
L 305.502149 -149.711175 
L 305.819504 -149.616341 
L 306.13686 -149.529925 
L 306.454215 -149.446842 
L 306.77157 -149.365237 
L 307.088926 -149.277658 
L 307.406281 -149.185269 
L 307.723636 -149.080447 
L 308.040992 -148.942145 
L 308.358347 -148.791187 
L 308.675702 -148.653228 
L 308.993058 -148.519356 
L 309.310413 -148.388473 
L 309.627769 -148.254883 
L 309.945124 -148.121515 
L 310.262479 -147.982828 
L 310.579835 -147.789109 
L 310.89719 -147.560387 
L 311.214545 -147.312166 
L 311.531901 -147.052124 
L 311.849256 -146.773424 
L 312.166612 -146.462216 
L 312.483967 -146.137987 
L 312.801322 -145.819256 
L 313.118678 -145.499455 
L 313.436033 -145.181253 
L 313.753388 -144.849275 
L 314.070744 -144.506896 
L 314.388099 -144.151352 
L 314.705455 -143.797551 
L 315.02281 -143.431751 
L 315.340165 -143.057212 
L 315.657521 -142.673366 
L 315.974876 -142.270541 
L 316.292231 -141.83938 
L 316.609587 -141.388048 
L 316.926942 -140.940108 
L 317.244298 -140.477731 
L 317.561653 -140.045521 
L 317.879008 -139.627053 
L 318.196364 -139.196001 
L 318.513719 -138.784251 
L 318.831074 -138.354236 
L 319.14843 -137.865147 
L 319.465785 -137.322135 
L 319.78314 -136.761482 
L 320.100496 -136.193482 
L 320.417851 -135.599736 
L 320.735207 -134.987972 
L 321.052562 -134.393419 
L 321.369917 -133.808859 
L 321.687273 -133.203188 
L 322.004628 -132.606868 
L 322.321983 -132.033623 
L 322.639339 -131.453705 
L 322.956694 -130.85288 
L 323.27405 -130.223717 
L 323.591405 -129.581946 
L 323.90876 -128.923504 
L 324.226116 -128.257148 
L 324.543471 -127.593328 
L 324.860826 -126.947836 
L 325.178182 -126.289919 
L 325.495537 -125.649882 
L 325.812893 -125.018914 
L 326.130248 -124.382754 
L 326.447603 -123.750234 
L 326.764959 -123.119986 
L 327.082314 -122.47475 
L 327.399669 -121.806899 
L 327.717025 -121.096083 
L 328.03438 -120.375333 
L 328.351736 -119.669227 
L 328.669091 -118.98371 
L 328.986446 -118.296682 
L 329.303802 -117.599684 
L 329.621157 -116.888777 
L 329.938512 -116.11863 
L 330.255868 -115.330688 
L 330.573223 -114.539586 
L 330.890579 -113.772455 
L 331.207934 -113.019381 
L 331.525289 -112.232485 
L 331.842645 -111.420994 
L 332.16 -110.604465 
L 332.477355 -109.807693 
L 332.794711 -109.024335 
L 333.112066 -108.258675 
L 333.429421 -107.505525 
L 333.746777 -106.776248 
L 334.064132 -106.055921 
L 334.381488 -105.328433 
L 334.698843 -104.607967 
L 335.016198 -103.850044 
L 335.333554 -103.064264 
L 335.650909 -102.237163 
L 335.968264 -101.411219 
L 336.28562 -100.605884 
L 336.602975 -99.834606 
L 336.920331 -99.107315 
L 337.237686 -98.397667 
L 337.555041 -97.730502 
L 337.872397 -97.028591 
L 338.189752 -96.2849 
L 338.507107 -95.511938 
L 338.824463 -94.676396 
L 339.141818 -93.819612 
L 339.459174 -92.929614 
L 339.776529 -92.028591 
L 340.093884 -91.146623 
L 340.41124 -90.340094 
L 340.728595 -89.603467 
L 341.04595 -88.919389 
L 341.363306 -88.237596 
L 341.680661 -87.56338 
L 341.998017 -86.897294 
L 342.315372 -86.212562 
L 342.632727 -85.500406 
L 342.950083 -84.766138 
L 343.267438 -84.031784 
L 343.584793 -83.304531 
L 343.902149 -82.582528 
L 344.219504 -81.897368 
L 344.53686 -81.287863 
L 344.854215 -80.718981 
L 345.17157 -80.154449 
L 345.488926 -79.615973 
L 345.806281 -79.062415 
L 346.123636 -78.501472 
L 346.440992 -77.917929 
L 346.758347 -77.316446 
L 347.075702 -76.661702 
L 347.393058 -75.988508 
L 347.710413 -75.337331 
L 348.027769 -74.763762 
L 348.345124 -74.246904 
L 348.662479 -73.787664 
L 348.979835 -73.338754 
L 349.29719 -72.897218 
L 349.614545 -72.477134 
L 349.931901 -72.057371 
L 350.249256 -71.651886 
L 350.566612 -71.214425 
L 350.883967 -70.739303 
L 351.201322 -70.241366 
L 351.518678 -69.741135 
L 351.836033 -69.309287 
L 352.153388 -68.964389 
L 352.470744 -68.691757 
L 352.788099 -68.446759 
L 353.105455 -68.221696 
L 353.42281 -67.987566 
L 353.740165 -67.713354 
L 354.057521 -67.394595 
L 354.374876 -67.023983 
L 354.692231 -66.627181 
L 355.009587 -66.197861 
L 355.326942 -65.773878 
L 355.644298 -65.415406 
L 355.961653 -65.160305 
L 356.279008 -64.941757 
L 356.596364 -64.726944 
L 356.913719 -64.507133 
L 357.231074 -64.254363 
L 357.54843 -64.000754 
L 357.865785 -63.703811 
L 358.18314 -63.399731 
L 358.500496 -63.086651 
L 358.817851 -62.748352 
L 359.135207 -62.436181 
L 359.452562 -62.140519 
L 359.769917 -61.935712 
L 360.087273 -61.823905 
L 360.404628 -61.773404 
L 360.721983 -61.711025 
L 361.039339 -61.608467 
L 361.356694 -61.481949 
L 361.67405 -61.341017 
L 361.991405 -61.15943 
L 362.30876 -60.961955 
L 362.626116 -60.732444 
L 362.943471 -60.479839 
L 363.260826 -60.268046 
L 363.578182 -60.130584 
L 363.895537 -60.053568 
L 364.212893 -60.019461 
L 364.530248 -59.997671 
L 364.847603 -59.943297 
L 365.164959 -59.859014 
L 365.482314 -59.773392 
L 365.799669 -59.662773 
L 366.117025 -59.553666 
L 366.43438 -59.414728 
L 366.751736 -59.265643 
L 367.069091 -59.099369 
L 367.386446 -59.00552 
L 367.703802 -58.972108 
L 368.021157 -58.981676 
L 368.338512 -58.972587 
L 368.655868 -58.942772 
L 368.973223 -58.862186 
L 369.290579 -58.730872 
L 369.607934 -58.545008 
L 369.925289 -58.299346 
L 370.242645 -58.016277 
L 370.56 -57.721366 
L 370.877355 -57.433418 
L 371.194711 -57.205183 
L 371.512066 -57.056561 
L 371.829421 -56.972073 
L 372.146777 -56.88322 
L 372.464132 -56.750361 
L 372.781488 -56.587675 
L 373.098843 -56.410319 
L 373.416198 -56.197139 
L 373.733554 -55.957353 
L 374.050909 -55.714196 
L 374.368264 -55.438109 
L 374.68562 -55.183483 
L 375.002975 -54.960561 
L 375.320331 -54.806975 
L 375.637686 -54.744107 
L 375.955041 -54.690923 
L 376.272397 -54.607976 
L 376.589752 -54.509782 
L 376.907107 -54.412058 
L 377.224463 -54.325285 
L 377.541818 -54.208552 
L 377.859174 -54.049896 
L 378.176529 -53.859371 
L 378.493884 -53.619817 
L 378.81124 -53.414251 
L 379.128595 -53.262894 
L 379.44595 -53.136748 
L 379.763306 -53.02848 
L 380.080661 -52.894529 
L 380.398017 -52.723729 
L 380.715372 -52.512592 
L 381.032727 -52.282573 
L 381.350083 -52.061504 
L 381.667438 -51.843158 
L 381.984793 -51.642187 
L 382.302149 -51.485294 
L 382.619504 -51.356973 
L 382.93686 -51.28378 
L 383.254215 -51.264499 
L 383.57157 -51.252987 
L 383.888926 -51.207512 
L 384.206281 -51.1297 
L 384.523636 -51.025396 
L 384.840992 -50.904422 
L 385.158347 -50.778896 
L 385.475702 -50.663409 
L 385.793058 -50.543656 
L 386.110413 -50.437909 
L 386.427769 -50.344676 
L 386.745124 -50.290569 
L 387.062479 -50.276323 
L 387.379835 -50.294164 
L 387.69719 -50.293061 
L 388.014545 -50.266142 
L 388.331901 -50.19875 
L 388.649256 -50.112 
L 388.966612 -51.827656 
L 389.283967 -53.546916 
L 389.601322 -55.298489 
L 389.918678 -57.093029 
L 390.236033 -58.931529 
L 390.553388 -60.811734 
L 390.870744 -62.733243 
L 391.188099 -64.696126 
L 391.505455 -66.65265 
L 391.82281 -68.571378 
L 392.140165 -70.447162 
L 392.457521 -72.309355 
L 392.774876 -74.171044 
L 393.092231 -76.018656 
L 393.409587 -77.857075 
L 393.726942 -79.707705 
L 394.044298 -81.587254 
L 394.361653 -83.49979 
L 394.679008 -85.476177 
L 394.996364 -87.483993 
L 395.313719 -89.498107 
L 395.631074 -91.487768 
L 395.94843 -93.42278 
L 396.265785 -95.326805 
L 396.58314 -97.211835 
L 396.900496 -99.085173 
L 397.217851 -100.952513 
L 397.535207 -102.804131 
L 397.852562 -104.693498 
L 398.169917 -106.616822 
L 398.487273 -171.223899 
L 398.487273 -171.223899 
L 398.487273 -171.223899 
L 398.169917 -171.223899 
L 397.852562 -171.223899 
L 397.535207 -171.223899 
L 397.217851 -171.223899 
L 396.900496 -171.223899 
L 396.58314 -171.223899 
L 396.265785 -171.223899 
L 395.94843 -171.223899 
L 395.631074 -171.223899 
L 395.313719 -171.223899 
L 394.996364 -171.223899 
L 394.679008 -171.223899 
L 394.361653 -171.223899 
L 394.044298 -171.223899 
L 393.726942 -171.223899 
L 393.409587 -171.223899 
L 393.092231 -171.223899 
L 392.774876 -171.223899 
L 392.457521 -171.223899 
L 392.140165 -171.223899 
L 391.82281 -171.223899 
L 391.505455 -171.223899 
L 391.188099 -171.223899 
L 390.870744 -171.223899 
L 390.553388 -171.223899 
L 390.236033 -171.223899 
L 389.918678 -171.223899 
L 389.601322 -171.223899 
L 389.283967 -171.223899 
L 388.966612 -171.223899 
L 388.649256 -171.223899 
L 388.331901 -171.223899 
L 388.014545 -171.223899 
L 387.69719 -171.223899 
L 387.379835 -171.223899 
L 387.062479 -171.223899 
L 386.745124 -171.223899 
L 386.427769 -171.223899 
L 386.110413 -171.223899 
L 385.793058 -171.223899 
L 385.475702 -171.223899 
L 385.158347 -171.223899 
L 384.840992 -171.223899 
L 384.523636 -171.223899 
L 384.206281 -171.223899 
L 383.888926 -171.223899 
L 383.57157 -171.223899 
L 383.254215 -171.223899 
L 382.93686 -171.223899 
L 382.619504 -171.223899 
L 382.302149 -171.223899 
L 381.984793 -171.223899 
L 381.667438 -171.223899 
L 381.350083 -171.223899 
L 381.032727 -171.223899 
L 380.715372 -171.223899 
L 380.398017 -171.223899 
L 380.080661 -171.223899 
L 379.763306 -171.223899 
L 379.44595 -171.223899 
L 379.128595 -171.223899 
L 378.81124 -171.223899 
L 378.493884 -171.223899 
L 378.176529 -171.223899 
L 377.859174 -171.223899 
L 377.541818 -171.223899 
L 377.224463 -171.223899 
L 376.907107 -171.223899 
L 376.589752 -171.223899 
L 376.272397 -171.223899 
L 375.955041 -171.223899 
L 375.637686 -171.223899 
L 375.320331 -171.223899 
L 375.002975 -171.223899 
L 374.68562 -171.223899 
L 374.368264 -171.223899 
L 374.050909 -171.223899 
L 373.733554 -171.223899 
L 373.416198 -171.223899 
L 373.098843 -171.223899 
L 372.781488 -171.223899 
L 372.464132 -171.223899 
L 372.146777 -171.223899 
L 371.829421 -171.223899 
L 371.512066 -171.223899 
L 371.194711 -171.223899 
L 370.877355 -171.223899 
L 370.56 -171.223899 
L 370.242645 -171.223899 
L 369.925289 -171.223899 
L 369.607934 -171.223899 
L 369.290579 -171.223899 
L 368.973223 -171.223899 
L 368.655868 -171.223899 
L 368.338512 -171.223899 
L 368.021157 -171.223899 
L 367.703802 -171.223899 
L 367.386446 -171.223899 
L 367.069091 -171.223899 
L 366.751736 -171.223899 
L 366.43438 -171.223899 
L 366.117025 -171.223899 
L 365.799669 -171.223899 
L 365.482314 -171.223899 
L 365.164959 -171.223899 
L 364.847603 -171.223899 
L 364.530248 -171.223899 
L 364.212893 -171.223899 
L 363.895537 -171.223899 
L 363.578182 -171.223899 
L 363.260826 -171.223899 
L 362.943471 -171.223899 
L 362.626116 -171.223899 
L 362.30876 -171.223899 
L 361.991405 -171.223899 
L 361.67405 -171.223899 
L 361.356694 -171.223899 
L 361.039339 -171.223899 
L 360.721983 -171.223899 
L 360.404628 -171.223899 
L 360.087273 -171.223899 
L 359.769917 -171.223899 
L 359.452562 -171.223899 
L 359.135207 -171.223899 
L 358.817851 -171.223899 
L 358.500496 -171.223899 
L 358.18314 -171.223899 
L 357.865785 -171.223899 
L 357.54843 -171.223899 
L 357.231074 -171.223899 
L 356.913719 -171.223899 
L 356.596364 -171.223899 
L 356.279008 -171.223899 
L 355.961653 -171.223899 
L 355.644298 -171.223899 
L 355.326942 -171.223899 
L 355.009587 -171.223899 
L 354.692231 -171.223899 
L 354.374876 -171.223899 
L 354.057521 -171.223899 
L 353.740165 -171.223899 
L 353.42281 -171.223899 
L 353.105455 -171.223899 
L 352.788099 -171.223899 
L 352.470744 -171.223899 
L 352.153388 -171.223899 
L 351.836033 -171.223899 
L 351.518678 -171.223899 
L 351.201322 -171.223899 
L 350.883967 -171.223899 
L 350.566612 -171.223899 
L 350.249256 -171.223899 
L 349.931901 -171.223899 
L 349.614545 -171.223899 
L 349.29719 -171.223899 
L 348.979835 -171.223899 
L 348.662479 -171.223899 
L 348.345124 -171.223899 
L 348.027769 -171.223899 
L 347.710413 -171.223899 
L 347.393058 -171.223899 
L 347.075702 -171.223899 
L 346.758347 -171.223899 
L 346.440992 -171.223899 
L 346.123636 -171.223899 
L 345.806281 -171.223899 
L 345.488926 -171.223899 
L 345.17157 -171.223899 
L 344.854215 -171.223899 
L 344.53686 -171.223899 
L 344.219504 -171.223899 
L 343.902149 -171.223899 
L 343.584793 -171.223899 
L 343.267438 -171.223899 
L 342.950083 -171.223899 
L 342.632727 -171.223899 
L 342.315372 -171.223899 
L 341.998017 -171.223899 
L 341.680661 -171.223899 
L 341.363306 -171.223899 
L 341.04595 -171.223899 
L 340.728595 -171.223899 
L 340.41124 -171.223899 
L 340.093884 -171.223899 
L 339.776529 -171.223899 
L 339.459174 -171.223899 
L 339.141818 -171.223899 
L 338.824463 -171.223899 
L 338.507107 -171.223899 
L 338.189752 -171.223899 
L 337.872397 -171.223899 
L 337.555041 -171.223899 
L 337.237686 -171.223899 
L 336.920331 -171.223899 
L 336.602975 -171.223899 
L 336.28562 -171.223899 
L 335.968264 -171.223899 
L 335.650909 -171.223899 
L 335.333554 -171.223899 
L 335.016198 -171.223899 
L 334.698843 -171.223899 
L 334.381488 -171.223899 
L 334.064132 -171.223899 
L 333.746777 -171.223899 
L 333.429421 -171.223899 
L 333.112066 -171.223899 
L 332.794711 -171.223899 
L 332.477355 -171.223899 
L 332.16 -171.223899 
L 331.842645 -171.223899 
L 331.525289 -171.223899 
L 331.207934 -171.223899 
L 330.890579 -171.223899 
L 330.573223 -171.223899 
L 330.255868 -171.223899 
L 329.938512 -171.223899 
L 329.621157 -171.223899 
L 329.303802 -171.223899 
L 328.986446 -171.223899 
L 328.669091 -171.223899 
L 328.351736 -171.223899 
L 328.03438 -171.223899 
L 327.717025 -171.223899 
L 327.399669 -171.223899 
L 327.082314 -171.223899 
L 326.764959 -171.223899 
L 326.447603 -171.223899 
L 326.130248 -171.223899 
L 325.812893 -171.223899 
L 325.495537 -171.223899 
L 325.178182 -171.223899 
L 324.860826 -171.223899 
L 324.543471 -171.223899 
L 324.226116 -171.223899 
L 323.90876 -171.223899 
L 323.591405 -171.223899 
L 323.27405 -171.223899 
L 322.956694 -171.223899 
L 322.639339 -171.223899 
L 322.321983 -171.223899 
L 322.004628 -171.223899 
L 321.687273 -171.223899 
L 321.369917 -171.223899 
L 321.052562 -171.223899 
L 320.735207 -171.223899 
L 320.417851 -171.223899 
L 320.100496 -171.223899 
L 319.78314 -171.223899 
L 319.465785 -171.223899 
L 319.14843 -171.223899 
L 318.831074 -171.223899 
L 318.513719 -171.223899 
L 318.196364 -171.223899 
L 317.879008 -171.223899 
L 317.561653 -171.223899 
L 317.244298 -171.223899 
L 316.926942 -171.223899 
L 316.609587 -171.223899 
L 316.292231 -171.223899 
L 315.974876 -171.223899 
L 315.657521 -171.223899 
L 315.340165 -171.223899 
L 315.02281 -171.223899 
L 314.705455 -171.223899 
L 314.388099 -171.223899 
L 314.070744 -171.223899 
L 313.753388 -171.223899 
L 313.436033 -171.223899 
L 313.118678 -171.223899 
L 312.801322 -171.223899 
L 312.483967 -171.223899 
L 312.166612 -171.223899 
L 311.849256 -171.223899 
L 311.531901 -171.223899 
L 311.214545 -171.223899 
L 310.89719 -171.223899 
L 310.579835 -171.223899 
L 310.262479 -171.223899 
L 309.945124 -171.223899 
L 309.627769 -171.223899 
L 309.310413 -171.223899 
L 308.993058 -171.223899 
L 308.675702 -171.223899 
L 308.358347 -171.223899 
L 308.040992 -171.223899 
L 307.723636 -171.223899 
L 307.406281 -171.223899 
L 307.088926 -171.223899 
L 306.77157 -171.223899 
L 306.454215 -171.223899 
L 306.13686 -171.223899 
L 305.819504 -171.223899 
L 305.502149 -171.223899 
L 305.184793 -171.223899 
L 304.867438 -171.223899 
L 304.550083 -171.223899 
L 304.232727 -171.223899 
L 303.915372 -171.223899 
L 303.598017 -171.223899 
L 303.280661 -171.223899 
L 302.963306 -171.223899 
L 302.64595 -171.223899 
L 302.328595 -171.223899 
L 302.01124 -171.223899 
L 301.693884 -171.223899 
L 301.376529 -171.223899 
L 301.059174 -171.223899 
L 300.741818 -171.223899 
L 300.424463 -171.223899 
L 300.107107 -171.223899 
L 299.789752 -171.223899 
L 299.472397 -171.223899 
L 299.155041 -171.223899 
L 298.837686 -171.223899 
L 298.520331 -171.223899 
L 298.202975 -171.223899 
L 297.88562 -171.223899 
L 297.568264 -171.223899 
L 297.250909 -171.223899 
L 296.933554 -171.223899 
L 296.616198 -171.223899 
L 296.298843 -171.223899 
L 295.981488 -171.223899 
L 295.664132 -171.223899 
L 295.346777 -171.223899 
L 295.029421 -171.223899 
L 294.712066 -171.223899 
L 294.394711 -171.223899 
L 294.077355 -171.223899 
L 293.76 -171.223899 
L 293.442645 -171.223899 
L 293.125289 -171.223899 
L 292.807934 -171.223899 
L 292.490579 -171.223899 
L 292.173223 -171.223899 
L 291.855868 -171.223899 
L 291.538512 -171.223899 
L 291.221157 -171.223899 
L 290.903802 -171.223899 
L 290.586446 -171.223899 
L 290.269091 -171.223899 
L 289.951736 -171.223899 
L 289.63438 -171.223899 
L 289.317025 -171.223899 
L 288.999669 -171.223899 
L 288.682314 -171.223899 
L 288.364959 -171.223899 
L 288.047603 -171.223899 
L 287.730248 -171.223899 
L 287.412893 -171.223899 
L 287.095537 -171.223899 
L 286.778182 -171.223899 
L 286.460826 -171.223899 
L 286.143471 -171.223899 
L 285.826116 -171.223899 
L 285.50876 -171.223899 
L 285.191405 -171.223899 
L 284.87405 -171.223899 
L 284.556694 -171.223899 
L 284.239339 -171.223899 
L 283.921983 -171.223899 
L 283.604628 -171.223899 
L 283.287273 -171.223899 
L 282.969917 -171.223899 
L 282.652562 -171.223899 
L 282.335207 -171.223899 
L 282.017851 -171.223899 
L 281.700496 -171.223899 
L 281.38314 -171.223899 
L 281.065785 -171.223899 
L 280.74843 -171.223899 
L 280.431074 -171.223899 
L 280.113719 -171.223899 
L 279.796364 -171.223899 
L 279.479008 -171.223899 
L 279.161653 -171.223899 
L 278.844298 -171.223899 
L 278.526942 -171.223899 
L 278.209587 -171.223899 
L 277.892231 -171.223899 
L 277.574876 -171.223899 
L 277.257521 -171.223899 
L 276.940165 -171.223899 
L 276.62281 -171.223899 
L 276.305455 -171.223899 
L 275.988099 -171.223899 
L 275.670744 -171.223899 
L 275.353388 -171.223899 
L 275.036033 -171.223899 
L 274.718678 -171.223899 
L 274.401322 -171.223899 
L 274.083967 -171.223899 
L 273.766612 -171.223899 
L 273.449256 -171.223899 
L 273.131901 -171.223899 
L 272.814545 -171.223899 
L 272.49719 -171.223899 
L 272.179835 -171.223899 
L 271.862479 -171.223899 
L 271.545124 -171.223899 
L 271.227769 -171.223899 
L 270.910413 -171.223899 
L 270.593058 -171.223899 
L 270.275702 -171.223899 
L 269.958347 -171.223899 
L 269.640992 -171.223899 
L 269.323636 -171.223899 
L 269.006281 -171.223899 
L 268.688926 -171.223899 
L 268.37157 -171.223899 
L 268.054215 -171.223899 
L 267.73686 -171.223899 
L 267.419504 -171.223899 
L 267.102149 -171.223899 
L 266.784793 -171.223899 
L 266.467438 -171.223899 
L 266.150083 -171.223899 
L 265.832727 -171.223899 
L 265.515372 -171.223899 
L 265.198017 -171.223899 
L 264.880661 -171.223899 
L 264.563306 -171.223899 
L 264.24595 -171.223899 
L 263.928595 -171.223899 
L 263.61124 -171.223899 
L 263.293884 -171.223899 
L 262.976529 -171.223899 
L 262.659174 -171.223899 
L 262.341818 -171.223899 
L 262.024463 -171.223899 
L 261.707107 -171.223899 
L 261.389752 -171.223899 
L 261.072397 -171.223899 
L 260.755041 -171.223899 
L 260.437686 -171.223899 
L 260.120331 -171.223899 
L 259.802975 -171.223899 
L 259.48562 -171.223899 
L 259.168264 -171.223899 
L 258.850909 -171.223899 
L 258.533554 -171.223899 
L 258.216198 -171.223899 
L 257.898843 -171.223899 
L 257.581488 -171.223899 
L 257.264132 -171.223899 
L 256.946777 -171.223899 
L 256.629421 -171.223899 
L 256.312066 -171.223899 
L 255.994711 -171.223899 
L 255.677355 -171.223899 
L 255.36 -171.223899 
L 255.042645 -171.223899 
L 254.725289 -171.223899 
L 254.407934 -171.223899 
L 254.090579 -171.223899 
L 253.773223 -171.223899 
L 253.455868 -171.223899 
L 253.138512 -171.223899 
L 252.821157 -171.223899 
L 252.503802 -171.223899 
L 252.186446 -171.223899 
L 251.869091 -171.223899 
L 251.551736 -171.223899 
L 251.23438 -171.223899 
L 250.917025 -171.223899 
L 250.599669 -171.223899 
L 250.282314 -171.223899 
L 249.964959 -171.223899 
L 249.647603 -171.223899 
L 249.330248 -171.223899 
L 249.012893 -171.223899 
L 248.695537 -171.223899 
L 248.378182 -171.223899 
L 248.060826 -171.223899 
L 247.743471 -171.223899 
L 247.426116 -171.223899 
L 247.10876 -171.223899 
L 246.791405 -171.223899 
L 246.47405 -171.223899 
L 246.156694 -171.223899 
L 245.839339 -171.223899 
L 245.521983 -171.223899 
L 245.204628 -171.223899 
L 244.887273 -171.223899 
L 244.569917 -171.223899 
L 244.252562 -171.223899 
L 243.935207 -171.223899 
L 243.617851 -171.223899 
L 243.300496 -171.223899 
L 242.98314 -171.223899 
L 242.665785 -171.223899 
L 242.34843 -171.223899 
L 242.031074 -171.223899 
L 241.713719 -171.223899 
L 241.396364 -171.223899 
L 241.079008 -171.223899 
L 240.761653 -171.223899 
L 240.444298 -171.223899 
L 240.126942 -171.223899 
L 239.809587 -171.223899 
L 239.492231 -171.223899 
L 239.174876 -171.223899 
L 238.857521 -171.223899 
L 238.540165 -171.223899 
L 238.22281 -171.223899 
L 237.905455 -171.223899 
L 237.588099 -171.223899 
L 237.270744 -171.223899 
L 236.953388 -171.223899 
L 236.636033 -171.223899 
L 236.318678 -171.223899 
L 236.001322 -171.223899 
L 235.683967 -171.223899 
L 235.366612 -171.223899 
L 235.049256 -171.223899 
L 234.731901 -171.223899 
L 234.414545 -171.223899 
L 234.09719 -171.223899 
L 233.779835 -171.223899 
L 233.462479 -171.223899 
L 233.145124 -171.223899 
L 232.827769 -171.223899 
L 232.510413 -171.223899 
L 232.193058 -171.223899 
L 231.875702 -171.223899 
L 231.558347 -171.223899 
L 231.240992 -171.223899 
L 230.923636 -171.223899 
L 230.606281 -171.223899 
L 230.288926 -171.223899 
L 229.97157 -171.223899 
L 229.654215 -171.223899 
L 229.33686 -171.223899 
L 229.019504 -171.223899 
L 228.702149 -171.223899 
L 228.384793 -171.223899 
L 228.067438 -171.223899 
L 227.750083 -171.223899 
L 227.432727 -171.223899 
L 227.115372 -171.223899 
L 226.798017 -171.223899 
L 226.480661 -171.223899 
L 226.163306 -171.223899 
L 225.84595 -171.223899 
L 225.528595 -171.223899 
L 225.21124 -171.223899 
L 224.893884 -171.223899 
L 224.576529 -171.223899 
L 224.259174 -171.223899 
L 223.941818 -171.223899 
L 223.624463 -171.223899 
L 223.307107 -171.223899 
L 222.989752 -171.223899 
L 222.672397 -171.223899 
L 222.355041 -171.223899 
L 222.037686 -171.223899 
L 221.720331 -171.223899 
L 221.402975 -171.223899 
L 221.08562 -171.223899 
L 220.768264 -171.223899 
L 220.450909 -171.223899 
L 220.133554 -171.223899 
L 219.816198 -171.223899 
L 219.498843 -171.223899 
L 219.181488 -171.223899 
L 218.864132 -171.223899 
L 218.546777 -171.223899 
L 218.229421 -171.223899 
L 217.912066 -171.223899 
L 217.594711 -171.223899 
L 217.277355 -171.223899 
L 216.96 -171.223899 
L 216.642645 -171.223899 
L 216.325289 -171.223899 
L 216.007934 -171.223899 
L 215.690579 -171.223899 
L 215.373223 -171.223899 
L 215.055868 -171.223899 
L 214.738512 -171.223899 
L 214.421157 -171.223899 
L 214.103802 -171.223899 
L 213.786446 -171.223899 
L 213.469091 -171.223899 
L 213.151736 -171.223899 
L 212.83438 -171.223899 
L 212.517025 -171.223899 
L 212.199669 -171.223899 
L 211.882314 -171.223899 
L 211.564959 -171.223899 
L 211.247603 -171.223899 
L 210.930248 -171.223899 
L 210.612893 -171.223899 
L 210.295537 -171.223899 
L 209.978182 -171.223899 
L 209.660826 -171.223899 
L 209.343471 -171.223899 
L 209.026116 -171.223899 
L 208.70876 -171.223899 
L 208.391405 -171.223899 
L 208.07405 -171.223899 
L 207.756694 -171.223899 
L 207.439339 -171.223899 
L 207.121983 -171.223899 
L 206.804628 -171.223899 
L 206.487273 -171.223899 
L 206.169917 -171.223899 
L 205.852562 -171.223899 
L 205.535207 -171.223899 
L 205.217851 -171.223899 
L 204.900496 -171.223899 
L 204.58314 -171.223899 
L 204.265785 -171.223899 
L 203.94843 -171.223899 
L 203.631074 -171.223899 
L 203.313719 -171.223899 
L 202.996364 -171.223899 
L 202.679008 -171.223899 
L 202.361653 -171.223899 
L 202.044298 -171.223899 
L 201.726942 -171.223899 
L 201.409587 -171.223899 
L 201.092231 -171.223899 
L 200.774876 -171.223899 
L 200.457521 -171.223899 
L 200.140165 -171.223899 
L 199.82281 -171.223899 
L 199.505455 -171.223899 
L 199.188099 -171.223899 
L 198.870744 -171.223899 
L 198.553388 -171.223899 
L 198.236033 -171.223899 
L 197.918678 -171.223899 
L 197.601322 -171.223899 
L 197.283967 -171.223899 
L 196.966612 -171.223899 
L 196.649256 -171.223899 
L 196.331901 -171.223899 
L 196.014545 -171.223899 
L 195.69719 -171.223899 
L 195.379835 -171.223899 
L 195.062479 -171.223899 
L 194.745124 -171.223899 
L 194.427769 -171.223899 
L 194.110413 -171.223899 
L 193.793058 -171.223899 
L 193.475702 -171.223899 
L 193.158347 -171.223899 
L 192.840992 -171.223899 
L 192.523636 -171.223899 
L 192.206281 -171.223899 
L 191.888926 -171.223899 
L 191.57157 -171.223899 
L 191.254215 -171.223899 
L 190.93686 -171.223899 
L 190.619504 -171.223899 
L 190.302149 -171.223899 
L 189.984793 -171.223899 
L 189.667438 -171.223899 
L 189.350083 -171.223899 
L 189.032727 -171.223899 
L 188.715372 -171.223899 
L 188.398017 -171.223899 
L 188.080661 -171.223899 
L 187.763306 -171.223899 
L 187.44595 -171.223899 
L 187.128595 -171.223899 
L 186.81124 -171.223899 
L 186.493884 -171.223899 
L 186.176529 -171.223899 
L 185.859174 -171.223899 
L 185.541818 -171.223899 
L 185.224463 -171.223899 
L 184.907107 -171.223899 
L 184.589752 -171.223899 
L 184.272397 -171.223899 
L 183.955041 -171.223899 
L 183.637686 -171.223899 
L 183.320331 -171.223899 
L 183.002975 -171.223899 
L 182.68562 -171.223899 
L 182.368264 -171.223899 
L 182.050909 -171.223899 
L 181.733554 -171.223899 
L 181.416198 -171.223899 
L 181.098843 -171.223899 
L 180.781488 -171.223899 
L 180.464132 -171.223899 
L 180.146777 -171.223899 
L 179.829421 -171.223899 
L 179.512066 -171.223899 
L 179.194711 -171.223899 
L 178.877355 -171.223899 
L 178.56 -171.223899 
L 178.242645 -171.223899 
L 177.925289 -171.223899 
L 177.607934 -171.223899 
L 177.290579 -171.223899 
L 176.973223 -171.223899 
L 176.655868 -171.223899 
L 176.338512 -171.223899 
L 176.021157 -171.223899 
L 175.703802 -171.223899 
L 175.386446 -171.223899 
L 175.069091 -171.223899 
L 174.751736 -171.223899 
L 174.43438 -171.223899 
L 174.117025 -171.223899 
L 173.799669 -171.223899 
L 173.482314 -171.223899 
L 173.164959 -171.223899 
L 172.847603 -171.223899 
L 172.530248 -171.223899 
L 172.212893 -171.223899 
L 171.895537 -171.223899 
L 171.578182 -171.223899 
L 171.260826 -171.223899 
L 170.943471 -171.223899 
L 170.626116 -171.223899 
L 170.30876 -171.223899 
L 169.991405 -171.223899 
L 169.67405 -171.223899 
L 169.356694 -171.223899 
L 169.039339 -171.223899 
L 168.721983 -171.223899 
L 168.404628 -171.223899 
L 168.087273 -171.223899 
L 167.769917 -171.223899 
L 167.452562 -171.223899 
L 167.135207 -171.223899 
L 166.817851 -171.223899 
L 166.500496 -171.223899 
L 166.18314 -171.223899 
L 165.865785 -171.223899 
L 165.54843 -171.223899 
L 165.231074 -171.223899 
L 164.913719 -171.223899 
L 164.596364 -171.223899 
L 164.279008 -171.223899 
L 163.961653 -171.223899 
L 163.644298 -171.223899 
L 163.326942 -171.223899 
L 163.009587 -171.223899 
L 162.692231 -171.223899 
L 162.374876 -171.223899 
L 162.057521 -171.223899 
L 161.740165 -171.223899 
L 161.42281 -171.223899 
L 161.105455 -171.223899 
L 160.788099 -171.223899 
L 160.470744 -171.223899 
L 160.153388 -171.223899 
L 159.836033 -171.223899 
L 159.518678 -171.223899 
L 159.201322 -171.223899 
L 158.883967 -171.223899 
L 158.566612 -171.223899 
L 158.249256 -171.223899 
L 157.931901 -171.223899 
L 157.614545 -171.223899 
L 157.29719 -171.223899 
L 156.979835 -171.223899 
L 156.662479 -171.223899 
L 156.345124 -171.223899 
L 156.027769 -171.223899 
L 155.710413 -171.223899 
L 155.393058 -171.223899 
L 155.075702 -171.223899 
L 154.758347 -171.223899 
L 154.440992 -171.223899 
L 154.123636 -171.223899 
L 153.806281 -171.223899 
L 153.488926 -171.223899 
L 153.17157 -171.223899 
L 152.854215 -171.223899 
L 152.53686 -171.223899 
L 152.219504 -171.223899 
L 151.902149 -171.223899 
L 151.584793 -171.223899 
L 151.267438 -171.223899 
L 150.950083 -171.223899 
L 150.632727 -171.223899 
L 150.315372 -171.223899 
L 149.998017 -171.223899 
L 149.680661 -171.223899 
L 149.363306 -171.223899 
L 149.04595 -171.223899 
L 148.728595 -171.223899 
L 148.41124 -171.223899 
L 148.093884 -171.223899 
L 147.776529 -171.223899 
L 147.459174 -171.223899 
L 147.141818 -171.223899 
L 146.824463 -171.223899 
L 146.507107 -171.223899 
L 146.189752 -171.223899 
L 145.872397 -171.223899 
L 145.555041 -171.223899 
L 145.237686 -171.223899 
L 144.920331 -171.223899 
L 144.602975 -171.223899 
L 144.28562 -171.223899 
L 143.968264 -171.223899 
L 143.650909 -171.223899 
L 143.333554 -171.223899 
L 143.016198 -171.223899 
L 142.698843 -171.223899 
L 142.381488 -171.223899 
L 142.064132 -171.223899 
L 141.746777 -171.223899 
L 141.429421 -171.223899 
L 141.112066 -171.223899 
L 140.794711 -171.223899 
L 140.477355 -171.223899 
L 140.16 -171.223899 
L 139.842645 -171.223899 
L 139.525289 -171.223899 
L 139.207934 -171.223899 
L 138.890579 -171.223899 
L 138.573223 -171.223899 
L 138.255868 -171.223899 
L 137.938512 -171.223899 
L 137.621157 -171.223899 
L 137.303802 -171.223899 
L 136.986446 -171.223899 
L 136.669091 -171.223899 
L 136.351736 -171.223899 
L 136.03438 -171.223899 
L 135.717025 -171.223899 
L 135.399669 -171.223899 
L 135.082314 -171.223899 
L 134.764959 -171.223899 
L 134.447603 -171.223899 
L 134.130248 -171.223899 
L 133.812893 -171.223899 
L 133.495537 -171.223899 
L 133.178182 -171.223899 
L 132.860826 -171.223899 
L 132.543471 -171.223899 
L 132.226116 -171.223899 
L 131.90876 -171.223899 
L 131.591405 -171.223899 
L 131.27405 -171.223899 
L 130.956694 -171.223899 
L 130.639339 -171.223899 
L 130.321983 -171.223899 
L 130.004628 -171.223899 
L 129.687273 -171.223899 
L 129.369917 -171.223899 
L 129.052562 -171.223899 
L 128.735207 -171.223899 
L 128.417851 -171.223899 
L 128.100496 -171.223899 
L 127.78314 -171.223899 
L 127.465785 -171.223899 
L 127.14843 -171.223899 
L 126.831074 -171.223899 
L 126.513719 -171.223899 
L 126.196364 -171.223899 
L 125.879008 -171.223899 
L 125.561653 -171.223899 
L 125.244298 -171.223899 
L 124.926942 -171.223899 
L 124.609587 -171.223899 
L 124.292231 -171.223899 
L 123.974876 -171.223899 
L 123.657521 -171.223899 
L 123.340165 -171.223899 
L 123.02281 -171.223899 
L 122.705455 -171.223899 
L 122.388099 -171.223899 
L 122.070744 -171.223899 
L 121.753388 -171.223899 
L 121.436033 -171.223899 
L 121.118678 -171.223899 
L 120.801322 -171.223899 
L 120.483967 -171.223899 
L 120.166612 -171.223899 
L 119.849256 -171.223899 
L 119.531901 -171.223899 
L 119.214545 -171.223899 
L 118.89719 -171.223899 
L 118.579835 -171.223899 
L 118.262479 -171.223899 
L 117.945124 -171.223899 
L 117.627769 -171.223899 
L 117.310413 -171.223899 
L 116.993058 -171.223899 
L 116.675702 -171.223899 
L 116.358347 -171.223899 
L 116.040992 -171.223899 
L 115.723636 -171.223899 
L 115.406281 -171.223899 
L 115.088926 -171.223899 
L 114.77157 -171.223899 
L 114.454215 -171.223899 
L 114.13686 -171.223899 
L 113.819504 -171.223899 
L 113.502149 -171.223899 
L 113.184793 -171.223899 
L 112.867438 -171.223899 
L 112.550083 -171.223899 
L 112.232727 -171.223899 
L 111.915372 -171.223899 
L 111.598017 -171.223899 
L 111.280661 -171.223899 
L 110.963306 -171.223899 
L 110.64595 -171.223899 
L 110.328595 -171.223899 
L 110.01124 -171.223899 
L 109.693884 -171.223899 
L 109.376529 -171.223899 
L 109.059174 -171.223899 
L 108.741818 -171.223899 
L 108.424463 -171.223899 
L 108.107107 -171.223899 
L 107.789752 -171.223899 
L 107.472397 -171.223899 
L 107.155041 -171.223899 
L 106.837686 -171.223899 
L 106.520331 -171.223899 
L 106.202975 -171.223899 
L 105.88562 -171.223899 
L 105.568264 -171.223899 
L 105.250909 -171.223899 
L 104.933554 -171.223899 
L 104.616198 -171.223899 
L 104.298843 -171.223899 
L 103.981488 -171.223899 
L 103.664132 -171.223899 
L 103.346777 -171.223899 
L 103.029421 -171.223899 
L 102.712066 -171.223899 
L 102.394711 -171.223899 
L 102.077355 -171.223899 
L 101.76 -171.223899 
L 101.442645 -171.223899 
L 101.125289 -171.223899 
L 100.807934 -171.223899 
L 100.490579 -171.223899 
L 100.173223 -171.223899 
L 99.855868 -171.223899 
L 99.538512 -171.223899 
L 99.221157 -171.223899 
L 98.903802 -171.223899 
L 98.586446 -171.223899 
L 98.269091 -171.223899 
L 97.951736 -171.223899 
L 97.63438 -171.223899 
L 97.317025 -171.223899 
L 96.999669 -171.223899 
L 96.682314 -171.223899 
L 96.364959 -171.223899 
L 96.047603 -171.223899 
L 95.730248 -171.223899 
L 95.412893 -171.223899 
L 95.095537 -171.223899 
L 94.778182 -171.223899 
L 94.460826 -171.223899 
L 94.143471 -171.223899 
L 93.826116 -171.223899 
L 93.50876 -171.223899 
L 93.191405 -171.223899 
L 92.87405 -171.223899 
L 92.556694 -171.223899 
L 92.239339 -171.223899 
L 91.921983 -171.223899 
L 91.604628 -171.223899 
L 91.287273 -171.223899 
L 90.969917 -171.223899 
L 90.652562 -171.223899 
L 90.335207 -171.223899 
L 90.017851 -171.223899 
L 89.700496 -171.223899 
L 89.38314 -171.223899 
L 89.065785 -171.223899 
L 88.74843 -171.223899 
L 88.431074 -171.223899 
L 88.113719 -171.223899 
L 87.796364 -171.223899 
L 87.479008 -171.223899 
L 87.161653 -171.223899 
L 86.844298 -171.223899 
L 86.526942 -171.223899 
L 86.209587 -171.223899 
L 85.892231 -171.223899 
L 85.574876 -171.223899 
L 85.257521 -171.223899 
L 84.940165 -171.223899 
L 84.62281 -171.223899 
L 84.305455 -171.223899 
L 83.988099 -171.223899 
L 83.670744 -171.223899 
L 83.353388 -171.223899 
L 83.036033 -171.223899 
L 82.718678 -171.223899 
L 82.401322 -171.223899 
L 82.083967 -171.223899 
L 81.766612 -171.223899 
L 81.449256 -171.223899 
L 81.131901 -171.223899 
L 80.814545 -171.223899 
L 80.49719 -171.223899 
L 80.179835 -171.223899 
L 79.862479 -171.223899 
L 79.545124 -171.223899 
L 79.227769 -171.223899 
L 78.910413 -171.223899 
L 78.593058 -171.223899 
L 78.275702 -171.223899 
L 77.958347 -171.223899 
L 77.640992 -171.223899 
L 77.323636 -171.223899 
L 77.006281 -171.223899 
L 76.688926 -171.223899 
L 76.37157 -171.223899 
L 76.054215 -171.223899 
L 75.73686 -171.223899 
L 75.419504 -171.223899 
L 75.102149 -171.223899 
L 74.784793 -171.223899 
L 74.467438 -171.223899 
L 74.150083 -171.223899 
L 73.832727 -171.223899 
z
" style="stroke: #87ceeb; stroke-opacity: 0.75"/>
    </defs>
    <g clip-path="url(#pc6c72680d4)">
     <use xlink:href="#mebb5efcbe6" x="0" y="345.6" style="fill: #87ceeb; fill-opacity: 0.75; stroke: #87ceeb; stroke-opacity: 0.75"/>
    </g>
   </g>
   <g id="matplotlib.axis_1">
    <g id="xtick_1">
     <g id="line2d_1">
      <defs>
       <path id="mf8308a209a" d="M 0 0 
L 0 3.5 
" style="stroke: #000000; stroke-width: 0.8"/>
      </defs>
      <g>
       <use xlink:href="#mf8308a209a" x="73.832727" y="307.584" style="stroke: #000000; stroke-width: 0.8"/>
      </g>
     </g>
     <g id="text_1">
      <!-- 0 -->
      <g transform="translate(70.531868 322.161969) scale(0.11 -0.11)">
       <defs>
        <path id="AndaleMono-30" d="M 1913 4494 
Q 2613 4494 2989 3892 
Q 3366 3291 3366 2203 
Q 3366 1150 3000 533 
Q 2634 -84 1913 -84 
Q 1216 -84 837 516 
Q 459 1116 459 2203 
Q 459 3259 826 3876 
Q 1194 4494 1913 4494 
z
M 1913 366 
Q 2375 366 2598 805 
Q 2822 1244 2822 2203 
Q 2822 3166 2598 3602 
Q 2375 4038 1913 4038 
Q 1456 4038 1231 3591 
Q 1006 3144 1006 2203 
Q 1006 1250 1229 808 
Q 1453 366 1913 366 
z
M 1900 2672 
Q 2097 2672 2233 2536 
Q 2369 2400 2369 2203 
Q 2369 2000 2231 1854 
Q 2094 1709 1900 1709 
Q 1709 1709 1573 1854 
Q 1438 2000 1438 2203 
Q 1438 2403 1570 2537 
Q 1703 2672 1900 2672 
z
" transform="scale(0.015625)"/>
       </defs>
       <use xlink:href="#AndaleMono-30"/>
      </g>
     </g>
    </g>
    <g id="xtick_2">
     <g id="line2d_2">
      <g>
       <use xlink:href="#mf8308a209a" x="137.303802" y="307.584" style="stroke: #000000; stroke-width: 0.8"/>
      </g>
     </g>
     <g id="text_2">
      <!-- 200 -->
      <g transform="translate(127.401224 322.161969) scale(0.11 -0.11)">
       <defs>
        <path id="AndaleMono-32" d="M 3066 0 
L 641 0 
L 641 372 
Q 1563 1400 1838 1750 
Q 2113 2100 2284 2484 
Q 2456 2869 2456 3250 
Q 2456 3619 2232 3831 
Q 2009 4044 1606 4044 
Q 1297 4044 775 3853 
L 703 4294 
Q 1175 4494 1691 4494 
Q 2281 4494 2642 4161 
Q 3003 3828 3003 3272 
Q 3003 2875 2817 2484 
Q 2631 2094 2340 1734 
Q 2050 1375 1209 447 
L 3066 447 
L 3066 0 
z
" transform="scale(0.015625)"/>
       </defs>
       <use xlink:href="#AndaleMono-32"/>
       <use xlink:href="#AndaleMono-30" x="60.009766"/>
       <use xlink:href="#AndaleMono-30" x="120.019531"/>
      </g>
     </g>
    </g>
    <g id="xtick_3">
     <g id="line2d_3">
      <g>
       <use xlink:href="#mf8308a209a" x="200.774876" y="307.584" style="stroke: #000000; stroke-width: 0.8"/>
      </g>
     </g>
     <g id="text_3">
      <!-- 400 -->
      <g transform="translate(190.872298 322.161969) scale(0.11 -0.11)">
       <defs>
        <path id="AndaleMono-34" d="M 3353 1019 
L 2809 1019 
L 2809 0 
L 2297 0 
L 2297 1019 
L 378 1019 
L 378 1409 
L 2119 4409 
L 2809 4409 
L 2809 1466 
L 3353 1466 
L 3353 1019 
z
M 2297 1466 
L 2297 3903 
L 897 1466 
L 2297 1466 
z
" transform="scale(0.015625)"/>
       </defs>
       <use xlink:href="#AndaleMono-34"/>
       <use xlink:href="#AndaleMono-30" x="60.009766"/>
       <use xlink:href="#AndaleMono-30" x="120.019531"/>
      </g>
     </g>
    </g>
    <g id="xtick_4">
     <g id="line2d_4">
      <g>
       <use xlink:href="#mf8308a209a" x="264.24595" y="307.584" style="stroke: #000000; stroke-width: 0.8"/>
      </g>
     </g>
     <g id="text_4">
      <!-- 600 -->
      <g transform="translate(254.343372 322.161969) scale(0.11 -0.11)">
       <defs>
        <path id="AndaleMono-36" d="M 1131 2297 
Q 1544 2631 2028 2631 
Q 2588 2631 2961 2273 
Q 3334 1916 3334 1350 
Q 3334 728 3003 322 
Q 2672 -84 2119 -84 
Q 1413 -84 1000 564 
Q 588 1213 588 2150 
Q 588 3150 1017 3822 
Q 1447 4494 2194 4494 
Q 2709 4494 3084 4341 
L 3003 3884 
Q 2569 4044 2209 4044 
Q 1700 4044 1415 3556 
Q 1131 3069 1131 2297 
z
M 1147 1856 
Q 1147 1291 1412 828 
Q 1678 366 2081 366 
Q 2422 366 2606 616 
Q 2791 866 2791 1306 
Q 2791 1713 2587 1947 
Q 2384 2181 2016 2181 
Q 1538 2181 1147 1856 
z
" transform="scale(0.015625)"/>
       </defs>
       <use xlink:href="#AndaleMono-36"/>
       <use xlink:href="#AndaleMono-30" x="60.009766"/>
       <use xlink:href="#AndaleMono-30" x="120.019531"/>
      </g>
     </g>
    </g>
    <g id="xtick_5">
     <g id="line2d_5">
      <g>
       <use xlink:href="#mf8308a209a" x="327.717025" y="307.584" style="stroke: #000000; stroke-width: 0.8"/>
      </g>
     </g>
     <g id="text_5">
      <!-- 800 -->
      <g transform="translate(317.814447 322.161969) scale(0.11 -0.11)">
       <defs>
        <path id="AndaleMono-38" d="M 2363 2419 
Q 2813 2288 3061 1972 
Q 3309 1656 3309 1234 
Q 3309 628 2907 272 
Q 2506 -84 1919 -84 
Q 1303 -84 908 275 
Q 513 634 513 1228 
Q 513 1647 769 1965 
Q 1025 2284 1484 2419 
Q 1119 2513 898 2780 
Q 678 3047 678 3378 
Q 678 3803 1015 4148 
Q 1353 4494 1906 4494 
Q 2453 4494 2811 4150 
Q 3169 3806 3169 3378 
Q 3169 3056 2944 2786 
Q 2719 2516 2363 2419 
z
M 1906 2631 
Q 1922 2631 2056 2668 
Q 2191 2706 2286 2761 
Q 2381 2816 2462 2900 
Q 2544 2984 2594 3098 
Q 2644 3213 2644 3353 
Q 2644 3653 2428 3851 
Q 2213 4050 1906 4050 
Q 1609 4050 1396 3847 
Q 1184 3644 1184 3353 
Q 1184 3169 1261 3031 
Q 1338 2894 1452 2809 
Q 1566 2725 1714 2678 
Q 1863 2631 1906 2631 
z
M 1906 2194 
Q 1050 1944 1050 1253 
Q 1050 850 1309 608 
Q 1569 366 1919 366 
Q 2281 366 2529 605 
Q 2778 844 2778 1253 
Q 2778 1563 2606 1808 
Q 2434 2053 1906 2194 
z
" transform="scale(0.015625)"/>
       </defs>
       <use xlink:href="#AndaleMono-38"/>
       <use xlink:href="#AndaleMono-30" x="60.009766"/>
       <use xlink:href="#AndaleMono-30" x="120.019531"/>
      </g>
     </g>
    </g>
    <g id="xtick_6">
     <g id="line2d_6">
      <g>
       <use xlink:href="#mf8308a209a" x="391.188099" y="307.584" style="stroke: #000000; stroke-width: 0.8"/>
      </g>
     </g>
     <g id="text_6">
      <!-- 1000 -->
      <g transform="translate(377.984662 322.161969) scale(0.11 -0.11)">
       <defs>
        <path id="AndaleMono-31" d="M 3181 0 
L 863 0 
L 863 447 
L 1797 447 
L 1797 3872 
L 916 3431 
L 916 3944 
L 1869 4434 
L 2309 4434 
L 2309 447 
L 3181 447 
L 3181 0 
z
" transform="scale(0.015625)"/>
       </defs>
       <use xlink:href="#AndaleMono-31"/>
       <use xlink:href="#AndaleMono-30" x="60.009766"/>
       <use xlink:href="#AndaleMono-30" x="120.019531"/>
       <use xlink:href="#AndaleMono-30" x="180.029297"/>
      </g>
     </g>
    </g>
   </g>
   <g id="matplotlib.axis_2">
    <g id="ytick_1">
     <g id="line2d_7">
      <defs>
       <path id="m32c30e0387" d="M 0 0 
L -3.5 0 
" style="stroke: #000000; stroke-width: 0.8"/>
      </defs>
      <g>
       <use xlink:href="#m32c30e0387" x="57.6" y="295.488" style="stroke: #000000; stroke-width: 0.8"/>
      </g>
     </g>
     <g id="text_7">
      <!-- 1.00 -->
      <g transform="translate(17.591406 299.276984) scale(0.11 -0.11)">
       <defs>
        <path id="AndaleMono-2212" d="M 3397 2047 
L 441 2047 
L 441 2456 
L 3397 2456 
L 3397 2047 
z
" transform="scale(0.015625)"/>
        <path id="AndaleMono-2e" d="M 1900 716 
Q 2066 716 2178 603 
Q 2291 491 2291 325 
Q 2291 156 2177 36 
Q 2063 -84 1900 -84 
Q 1741 -84 1628 36 
Q 1516 156 1516 325 
Q 1516 494 1627 605 
Q 1738 716 1900 716 
z
" transform="scale(0.015625)"/>
       </defs>
       <use xlink:href="#AndaleMono-2212"/>
       <use xlink:href="#AndaleMono-31" x="60.009766"/>
       <use xlink:href="#AndaleMono-2e" x="120.019531"/>
       <use xlink:href="#AndaleMono-30" x="180.029297"/>
       <use xlink:href="#AndaleMono-30" x="240.039062"/>
      </g>
     </g>
    </g>
    <g id="ytick_2">
     <g id="line2d_8">
      <g>
       <use xlink:href="#m32c30e0387" x="57.6" y="265.210025" style="stroke: #000000; stroke-width: 0.8"/>
      </g>
     </g>
     <g id="text_8">
      <!-- 0.75 -->
      <g transform="translate(17.591406 268.99901) scale(0.11 -0.11)">
       <defs>
        <path id="AndaleMono-37" d="M 3238 4044 
L 1491 0 
L 966 0 
L 2688 3963 
L 622 3963 
L 622 4409 
L 3238 4409 
L 3238 4044 
z
" transform="scale(0.015625)"/>
        <path id="AndaleMono-35" d="M 1356 2631 
Q 1569 2688 1772 2688 
Q 2397 2688 2759 2305 
Q 3122 1922 3122 1350 
Q 3122 750 2700 333 
Q 2278 -84 1672 -84 
Q 1094 -84 703 109 
L 806 544 
Q 1231 366 1684 366 
Q 2088 366 2336 625 
Q 2584 884 2584 1350 
Q 2584 1791 2350 2028 
Q 2116 2266 1747 2266 
Q 1478 2266 1216 2163 
L 909 2303 
L 909 4409 
L 2925 4409 
L 2925 3963 
L 1356 3963 
L 1356 2631 
z
" transform="scale(0.015625)"/>
       </defs>
       <use xlink:href="#AndaleMono-2212"/>
       <use xlink:href="#AndaleMono-30" x="60.009766"/>
       <use xlink:href="#AndaleMono-2e" x="120.019531"/>
       <use xlink:href="#AndaleMono-37" x="180.029297"/>
       <use xlink:href="#AndaleMono-35" x="240.039062"/>
      </g>
     </g>
    </g>
    <g id="ytick_3">
     <g id="line2d_9">
      <g>
       <use xlink:href="#m32c30e0387" x="57.6" y="234.93205" style="stroke: #000000; stroke-width: 0.8"/>
      </g>
     </g>
     <g id="text_9">
      <!-- 0.50 -->
      <g transform="translate(17.591406 238.721035) scale(0.11 -0.11)">
       <use xlink:href="#AndaleMono-2212"/>
       <use xlink:href="#AndaleMono-30" x="60.009766"/>
       <use xlink:href="#AndaleMono-2e" x="120.019531"/>
       <use xlink:href="#AndaleMono-35" x="180.029297"/>
       <use xlink:href="#AndaleMono-30" x="240.039062"/>
      </g>
     </g>
    </g>
    <g id="ytick_4">
     <g id="line2d_10">
      <g>
       <use xlink:href="#m32c30e0387" x="57.6" y="204.654076" style="stroke: #000000; stroke-width: 0.8"/>
      </g>
     </g>
     <g id="text_10">
      <!-- 0.25 -->
      <g transform="translate(17.591406 208.44306) scale(0.11 -0.11)">
       <use xlink:href="#AndaleMono-2212"/>
       <use xlink:href="#AndaleMono-30" x="60.009766"/>
       <use xlink:href="#AndaleMono-2e" x="120.019531"/>
       <use xlink:href="#AndaleMono-32" x="180.029297"/>
       <use xlink:href="#AndaleMono-35" x="240.039062"/>
      </g>
     </g>
    </g>
    <g id="ytick_5">
     <g id="line2d_11">
      <g>
       <use xlink:href="#m32c30e0387" x="57.6" y="174.376101" style="stroke: #000000; stroke-width: 0.8"/>
      </g>
     </g>
     <g id="text_11">
      <!-- 0.00 -->
      <g transform="translate(24.193125 178.165085) scale(0.11 -0.11)">
       <use xlink:href="#AndaleMono-30"/>
       <use xlink:href="#AndaleMono-2e" x="60.009766"/>
       <use xlink:href="#AndaleMono-30" x="120.019531"/>
       <use xlink:href="#AndaleMono-30" x="180.029297"/>
      </g>
     </g>
    </g>
    <g id="ytick_6">
     <g id="line2d_12">
      <g>
       <use xlink:href="#m32c30e0387" x="57.6" y="144.098126" style="stroke: #000000; stroke-width: 0.8"/>
      </g>
     </g>
     <g id="text_12">
      <!-- 0.25 -->
      <g transform="translate(24.193125 147.88711) scale(0.11 -0.11)">
       <use xlink:href="#AndaleMono-30"/>
       <use xlink:href="#AndaleMono-2e" x="60.009766"/>
       <use xlink:href="#AndaleMono-32" x="120.019531"/>
       <use xlink:href="#AndaleMono-35" x="180.029297"/>
      </g>
     </g>
    </g>
    <g id="ytick_7">
     <g id="line2d_13">
      <g>
       <use xlink:href="#m32c30e0387" x="57.6" y="113.820151" style="stroke: #000000; stroke-width: 0.8"/>
      </g>
     </g>
     <g id="text_13">
      <!-- 0.50 -->
      <g transform="translate(24.193125 117.609135) scale(0.11 -0.11)">
       <use xlink:href="#AndaleMono-30"/>
       <use xlink:href="#AndaleMono-2e" x="60.009766"/>
       <use xlink:href="#AndaleMono-35" x="120.019531"/>
       <use xlink:href="#AndaleMono-30" x="180.029297"/>
      </g>
     </g>
    </g>
    <g id="ytick_8">
     <g id="line2d_14">
      <g>
       <use xlink:href="#m32c30e0387" x="57.6" y="83.542176" style="stroke: #000000; stroke-width: 0.8"/>
      </g>
     </g>
     <g id="text_14">
      <!-- 0.75 -->
      <g transform="translate(24.193125 87.331161) scale(0.11 -0.11)">
       <use xlink:href="#AndaleMono-30"/>
       <use xlink:href="#AndaleMono-2e" x="60.009766"/>
       <use xlink:href="#AndaleMono-37" x="120.019531"/>
       <use xlink:href="#AndaleMono-35" x="180.029297"/>
      </g>
     </g>
    </g>
    <g id="ytick_9">
     <g id="line2d_15">
      <g>
       <use xlink:href="#m32c30e0387" x="57.6" y="53.264201" style="stroke: #000000; stroke-width: 0.8"/>
      </g>
     </g>
     <g id="text_15">
      <!-- 1.00 -->
      <g transform="translate(24.193125 57.053186) scale(0.11 -0.11)">
       <use xlink:href="#AndaleMono-31"/>
       <use xlink:href="#AndaleMono-2e" x="60.009766"/>
       <use xlink:href="#AndaleMono-30" x="120.019531"/>
       <use xlink:href="#AndaleMono-30" x="180.029297"/>
      </g>
     </g>
    </g>
   </g>
   <g id="line2d_16">
    <path d="M 73.832727 174.376101 
L 74.150083 111.800643 
L 82.718678 60.48231 
L 83.988099 53.568 
L 84.940165 53.672545 
L 85.892231 53.71942 
L 89.065785 54.564339 
L 89.700496 54.635333 
L 90.652562 55.088422 
L 92.556694 56.212789 
L 93.50876 56.575286 
L 95.095537 57.477486 
L 97.317025 58.112762 
L 100.173223 60.035422 
L 101.125289 60.357384 
L 102.077355 61.168478 
L 103.029421 61.883073 
L 103.664132 62.094973 
L 105.250909 62.25157 
L 106.520331 62.814974 
L 107.789752 63.149873 
L 108.741818 63.282786 
L 109.376529 63.63204 
L 110.328595 64.311632 
L 111.280661 64.760669 
L 112.867438 65.29272 
L 115.723636 67.879145 
L 116.675702 68.567607 
L 117.627769 69.779382 
L 118.579835 70.865556 
L 120.801322 72.893337 
L 122.388099 75.209572 
L 123.974876 77.399105 
L 124.926942 79.14071 
L 126.196364 81.653674 
L 128.417851 85.734729 
L 132.860826 96.081815 
L 134.130248 99.437102 
L 140.477355 114.573195 
L 142.698843 120.040979 
L 145.872397 126.902435 
L 152.219504 139.345683 
L 153.488926 141.506437 
L 157.614545 146.949753 
L 160.153388 149.614418 
L 161.42281 150.712588 
L 162.374876 151.273716 
L 165.54843 152.517438 
L 174.751736 154.992649 
L 176.973223 156.154598 
L 181.098843 158.424634 
L 186.81124 161.429607 
L 188.398017 162.03833 
L 190.302149 162.434262 
L 192.523636 162.540527 
L 195.379835 162.333791 
L 196.966612 161.964936 
L 205.852562 159.213329 
L 208.07405 159.049381 
L 209.343471 159.184932 
L 210.612893 159.478883 
L 213.151736 160.436891 
L 219.498843 162.87873 
L 221.402975 163.407026 
L 222.989752 164.140395 
L 224.893884 165.290265 
L 227.115372 166.91782 
L 230.923636 170.175655 
L 233.779835 172.600449 
L 237.905455 175.667913 
L 240.126942 177.433214 
L 243.617851 180.509678 
L 246.47405 182.801525 
L 248.695537 184.258517 
L 250.282314 185.075469 
L 251.869091 185.650137 
L 254.407934 186.384659 
L 258.216198 187.921786 
L 261.707107 189.273319 
L 262.976529 189.567269 
L 264.24595 189.702821 
L 265.832727 189.607557 
L 267.419504 189.366703 
L 269.640992 188.675772 
L 272.814545 187.584776 
L 277.257521 186.377004 
L 280.113719 186.200082 
L 281.700496 186.292019 
L 282.969917 186.468354 
L 284.87405 187.054905 
L 286.778182 187.940262 
L 288.999669 189.127559 
L 298.202975 194.005776 
L 299.155041 194.250484 
L 300.741818 194.684877 
L 302.963306 195.235331 
L 304.550083 195.619883 
L 307.723636 196.519553 
L 310.579835 197.810891 
L 311.849256 198.826576 
L 314.388099 201.448648 
L 315.974876 203.329459 
L 319.14843 207.734853 
L 321.052562 211.206581 
L 323.90876 216.676496 
L 329.938512 229.48137 
L 334.381488 240.271567 
L 335.650909 243.362837 
L 337.237686 247.202333 
L 338.507107 250.088062 
L 341.363306 257.362404 
L 343.584793 262.295469 
L 344.53686 264.312137 
L 347.393058 269.611492 
L 348.345124 271.353096 
L 351.836033 276.290713 
L 352.470744 276.908243 
L 354.057521 278.205405 
L 356.279008 280.658243 
L 357.54843 281.599246 
L 359.769917 283.664288 
L 360.721983 283.888975 
L 361.67405 284.258983 
L 362.626116 284.867556 
L 363.260826 285.331954 
L 363.895537 285.546432 
L 365.482314 285.826608 
L 366.751736 286.334357 
L 367.386446 286.59448 
L 369.290579 286.869128 
L 369.925289 287.300654 
L 371.194711 288.394817 
L 371.829421 288.627927 
L 372.464132 288.849639 
L 373.416198 289.402861 
L 375.320331 290.793025 
L 377.224463 291.274715 
L 378.176529 291.740629 
L 379.128595 292.337106 
L 380.398017 292.876271 
L 382.619504 294.243027 
L 383.254215 294.335501 
L 384.206281 294.4703 
L 387.062479 295.323677 
L 388.014545 295.333858 
L 388.649256 295.488 
L 390.553388 284.788266 
L 398.169917 238.983178 
L 398.487273 174.376101 
L 398.487273 174.376101 
" clip-path="url(#pc6c72680d4)" style="fill: none; stroke: #87ceeb; stroke-opacity: 0.75; stroke-linecap: square"/>
   </g>
   <g id="patch_3">
    <path d="M 57.6 307.584 
L 57.6 41.472 
" style="fill: none; stroke: #000000; stroke-width: 0.8; stroke-linejoin: miter; stroke-linecap: square"/>
   </g>
   <g id="patch_4">
    <path d="M 414.72 307.584 
L 414.72 41.472 
" style="fill: none; stroke: #000000; stroke-width: 0.8; stroke-linejoin: miter; stroke-linecap: square"/>
   </g>
   <g id="patch_5">
    <path d="M 57.6 307.584 
L 414.72 307.584 
" style="fill: none; stroke: #000000; stroke-width: 0.8; stroke-linejoin: miter; stroke-linecap: square"/>
   </g>
   <g id="patch_6">
    <path d="M 57.6 41.472 
L 414.72 41.472 
" style="fill: none; stroke: #000000; stroke-width: 0.8; stroke-linejoin: miter; stroke-linecap: square"/>
   </g>
  </g>
 </g>
 <defs>
  <clipPath id="pc6c72680d4">
   <rect x="57.6" y="41.472" width="357.12" height="266.112"/>
  </clipPath>
 </defs>
</svg>
