<?xml version="1.0" encoding="utf-8" standalone="no"?>
<!DOCTYPE svg PUBLIC "-//W3C//DTD SVG 1.1//EN"
  "http://www.w3.org/Graphics/SVG/1.1/DTD/svg11.dtd">
<svg xmlns:xlink="http://www.w3.org/1999/xlink" width="460.8pt" height="345.6pt" viewBox="0 0 460.8 345.6" xmlns="http://www.w3.org/2000/svg" version="1.1">
 <metadata>
  <rdf:RDF xmlns:dc="http://purl.org/dc/elements/1.1/" xmlns:cc="http://creativecommons.org/ns#" xmlns:rdf="http://www.w3.org/1999/02/22-rdf-syntax-ns#">
   <cc:Work>
    <dc:type rdf:resource="http://purl.org/dc/dcmitype/StillImage"/>
    <dc:date>2024-04-23T11:13:04.922438</dc:date>
    <dc:format>image/svg+xml</dc:format>
    <dc:creator>
     <cc:Agent>
      <dc:title>Matplotlib v3.8.3, https://matplotlib.org/</dc:title>
     </cc:Agent>
    </dc:creator>
   </cc:Work>
  </rdf:RDF>
 </metadata>
 <defs>
  <style type="text/css">*{stroke-linejoin: round; stroke-linecap: butt}</style>
 </defs>
 <g id="figure_1">
  <g id="patch_1">
   <path d="M 0 345.6 
L 460.8 345.6 
L 460.8 0 
L 0 0 
z
" style="fill: #ffffff"/>
  </g>
  <g id="axes_1">
   <g id="patch_2">
    <path d="M 57.6 307.584 
L 414.72 307.584 
L 414.72 41.472 
L 57.6 41.472 
z
" style="fill: #ffffff"/>
   </g>
   <g id="PolyCollection_1">
    <defs>
     <path id="m10092dd084" d="M 73.832727 -171.072 
L 73.832727 -171.072 
L 74.150083 -192.03344 
L 74.467438 -192.57213 
L 74.784793 -193.13581 
L 75.102149 -193.675233 
L 75.419504 -194.218541 
L 75.73686 -194.745372 
L 76.054215 -195.242228 
L 76.37157 -195.707391 
L 76.688926 -196.166497 
L 77.006281 -196.623805 
L 77.323636 -197.047811 
L 77.640992 -197.472365 
L 77.958347 -197.879957 
L 78.275702 -198.253865 
L 78.593058 -198.596325 
L 78.910413 -198.956459 
L 79.227769 -199.299932 
L 79.545124 -199.6235 
L 79.862479 -199.919501 
L 80.179835 -200.24999 
L 80.49719 -200.555074 
L 80.814545 -200.844861 
L 81.131901 -201.189098 
L 81.449256 -201.512969 
L 81.766612 -201.819301 
L 82.083967 -202.160795 
L 82.401322 -202.51635 
L 82.718678 -202.853402 
L 83.036033 -203.236647 
L 83.353388 -203.634461 
L 83.670744 -204.024629 
L 83.988099 -204.461506 
L 84.305455 -204.39594 
L 84.62281 -204.296122 
L 84.940165 -204.214093 
L 85.257521 -204.154816 
L 85.574876 -204.09006 
L 85.892231 -204.065731 
L 86.209587 -204.075835 
L 86.526942 -204.096066 
L 86.844298 -204.172414 
L 87.161653 -204.286707 
L 87.479008 -204.419785 
L 87.796364 -204.627113 
L 88.113719 -204.885216 
L 88.431074 -205.186445 
L 88.74843 -205.561569 
L 89.065785 -205.999405 
L 89.38314 -206.483983 
L 89.700496 -207.05117 
L 90.017851 -207.688625 
L 90.335207 -208.37094 
L 90.652562 -209.121337 
L 90.969917 -209.942525 
L 91.287273 -210.810027 
L 91.604628 -211.743797 
L 91.921983 -212.733315 
L 92.239339 -213.763543 
L 92.556694 -214.85494 
L 92.87405 -215.997689 
L 93.191405 -217.177921 
L 93.50876 -218.399981 
L 93.826116 -219.656273 
L 94.143471 -220.939841 
L 94.460826 -222.266812 
L 94.778182 -223.626946 
L 95.095537 -224.953812 
L 95.412893 -226.325379 
L 95.730248 -227.689636 
L 96.047603 -229.045834 
L 96.364959 -230.429546 
L 96.682314 -231.850291 
L 96.999669 -233.240368 
L 97.317025 -234.596822 
L 97.63438 -235.975796 
L 97.951736 -237.316209 
L 98.269091 -238.629059 
L 98.586446 -239.946086 
L 98.903802 -241.270006 
L 99.221157 -242.517461 
L 99.538512 -243.73186 
L 99.855868 -244.928889 
L 100.173223 -246.110576 
L 100.490579 -247.193961 
L 100.807934 -248.265837 
L 101.125289 -249.311219 
L 101.442645 -250.22067 
L 101.76 -251.104135 
L 102.077355 -251.97814 
L 102.394711 -252.743501 
L 102.712066 -253.448206 
L 103.029421 -254.141911 
L 103.346777 -254.723981 
L 103.664132 -255.243936 
L 103.981488 -255.748878 
L 104.298843 -256.137407 
L 104.616198 -256.458641 
L 104.933554 -256.780403 
L 105.250909 -257.014663 
L 105.568264 -257.166634 
L 105.88562 -257.300817 
L 106.202975 -257.334355 
L 106.520331 -257.280385 
L 106.837686 -257.195002 
L 107.155041 -257.002073 
L 107.472397 -256.729242 
L 107.789752 -256.435562 
L 108.107107 -256.022649 
L 108.424463 -255.520144 
L 108.741818 -254.968085 
L 109.059174 -254.306076 
L 109.376529 -253.559027 
L 109.693884 -252.767753 
L 110.01124 -251.864578 
L 110.328595 -250.872351 
L 110.64595 -249.840165 
L 110.963306 -248.72323 
L 111.280661 -247.518531 
L 111.598017 -246.271415 
L 111.915372 -244.939168 
L 112.232727 -243.540056 
L 112.550083 -242.108414 
L 112.867438 -240.607646 
L 113.184793 -239.047115 
L 113.502149 -237.455987 
L 113.819504 -235.816453 
L 114.13686 -234.138244 
L 114.454215 -232.441312 
L 114.77157 -230.713142 
L 115.088926 -228.957971 
L 115.406281 -227.210341 
L 115.723636 -225.429861 
L 116.040992 -223.638932 
L 116.358347 -221.870738 
L 116.675702 -220.093377 
L 116.993058 -218.301965 
L 117.310413 -216.551064 
L 117.627769 -214.828592 
L 117.945124 -213.109952 
L 118.262479 -211.430565 
L 118.579835 -209.788771 
L 118.89719 -208.167585 
L 119.214545 -206.571248 
L 119.531901 -205.028488 
L 119.849256 -203.529838 
L 120.166612 -202.070829 
L 120.483967 -200.652894 
L 120.801322 -199.292744 
L 121.118678 -197.970585 
L 121.436033 -196.686509 
L 121.753388 -195.480128 
L 122.070744 -194.320703 
L 122.388099 -193.18724 
L 122.705455 -192.123608 
L 123.02281 -191.107294 
L 123.340165 -190.120001 
L 123.657521 -189.194253 
L 123.974876 -188.3159 
L 124.292231 -187.457973 
L 124.609587 -186.667765 
L 124.926942 -185.928588 
L 125.244298 -185.201277 
L 125.561653 -184.520967 
L 125.879008 -183.88178 
L 126.196364 -183.248144 
L 126.513719 -182.658464 
L 126.831074 -182.107872 
L 127.14843 -181.565093 
L 127.465785 -181.060285 
L 127.78314 -180.589646 
L 128.100496 -180.111857 
L 128.417851 -179.672375 
L 128.735207 -179.268456 
L 129.052562 -178.867868 
L 129.369917 -178.500896 
L 129.687273 -178.155403 
L 130.004628 -177.806016 
L 130.321983 -177.488022 
L 130.639339 -177.192952 
L 130.956694 -176.895833 
L 131.27405 -176.618017 
L 131.591405 -176.361299 
L 131.90876 -176.106452 
L 132.226116 -175.87792 
L 132.543471 -175.668173 
L 132.860826 -175.457855 
L 133.178182 -175.263259 
L 133.495537 -175.084656 
L 133.812893 -174.908851 
L 134.130248 -174.748528 
L 134.447603 -174.601989 
L 134.764959 -174.457261 
L 135.082314 -174.326414 
L 135.399669 -174.21202 
L 135.717025 -174.099097 
L 136.03438 -173.99906 
L 136.351736 -173.912694 
L 136.669091 -173.828904 
L 136.986446 -173.757753 
L 137.303802 -173.695271 
L 137.621157 -173.628133 
L 137.938512 -173.568334 
L 138.255868 -173.513891 
L 138.573223 -173.458559 
L 138.890579 -173.410952 
L 139.207934 -173.37181 
L 139.525289 -173.331193 
L 139.842645 -173.295546 
L 140.16 -173.266412 
L 140.477355 -173.234597 
L 140.794711 -173.205587 
L 141.112066 -173.182747 
L 141.429421 -173.15828 
L 141.746777 -173.137187 
L 142.064132 -173.118667 
L 142.381488 -173.10141 
L 142.698843 -173.085547 
L 143.016198 -173.073417 
L 143.333554 -173.061377 
L 143.650909 -173.050301 
L 143.968264 -173.043374 
L 144.28562 -173.037471 
L 144.602975 -173.032859 
L 144.920331 -173.028568 
L 145.237686 -173.023016 
L 145.555041 -173.019205 
L 145.872397 -173.017988 
L 146.189752 -173.016788 
L 146.507107 -173.016325 
L 146.824463 -173.017329 
L 147.141818 -173.018758 
L 147.459174 -173.022338 
L 147.776529 -173.030519 
L 148.093884 -173.037907 
L 148.41124 -173.047045 
L 148.728595 -173.057161 
L 149.04595 -173.068098 
L 149.363306 -173.07804 
L 149.680661 -173.090068 
L 149.998017 -173.101978 
L 150.315372 -173.116256 
L 150.632727 -173.132783 
L 150.950083 -173.144916 
L 151.267438 -173.156049 
L 151.584793 -173.168885 
L 151.902149 -173.178076 
L 152.219504 -173.188085 
L 152.53686 -173.201682 
L 152.854215 -173.219497 
L 153.17157 -173.239359 
L 153.488926 -173.256883 
L 153.806281 -173.280439 
L 154.123636 -173.30768 
L 154.440992 -173.337262 
L 154.758347 -173.374004 
L 155.075702 -173.413996 
L 155.393058 -173.458498 
L 155.710413 -173.502884 
L 156.027769 -173.547028 
L 156.345124 -173.597041 
L 156.662479 -173.650447 
L 156.979835 -173.707431 
L 157.29719 -173.766614 
L 157.614545 -173.829447 
L 157.931901 -173.89815 
L 158.249256 -173.96895 
L 158.566612 -174.045384 
L 158.883967 -174.120447 
L 159.201322 -174.197315 
L 159.518678 -174.279679 
L 159.836033 -174.365137 
L 160.153388 -174.455286 
L 160.470744 -174.544051 
L 160.788099 -174.633254 
L 161.105455 -174.724602 
L 161.42281 -174.818859 
L 161.740165 -174.916737 
L 162.057521 -175.017185 
L 162.374876 -175.119535 
L 162.692231 -175.218047 
L 163.009587 -175.317229 
L 163.326942 -175.419104 
L 163.644298 -175.520043 
L 163.961653 -175.616022 
L 164.279008 -175.708051 
L 164.596364 -175.800283 
L 164.913719 -175.897756 
L 165.231074 -176.001614 
L 165.54843 -176.103648 
L 165.865785 -176.20247 
L 166.18314 -176.30336 
L 166.500496 -176.404419 
L 166.817851 -176.507239 
L 167.135207 -176.60805 
L 167.452562 -176.704129 
L 167.769917 -176.801463 
L 168.087273 -176.893605 
L 168.404628 -176.984967 
L 168.721983 -177.066897 
L 169.039339 -177.149404 
L 169.356694 -177.223933 
L 169.67405 -177.300555 
L 169.991405 -177.372481 
L 170.30876 -177.447637 
L 170.626116 -177.520234 
L 170.943471 -177.589355 
L 171.260826 -177.665138 
L 171.578182 -177.740463 
L 171.895537 -177.818448 
L 172.212893 -177.90966 
L 172.530248 -177.999908 
L 172.847603 -178.086269 
L 173.164959 -178.16569 
L 173.482314 -178.236267 
L 173.799669 -178.310006 
L 174.117025 -178.382157 
L 174.43438 -178.450659 
L 174.751736 -178.52633 
L 175.069091 -178.600217 
L 175.386446 -178.675008 
L 175.703802 -178.749246 
L 176.021157 -178.825756 
L 176.338512 -178.909448 
L 176.655868 -178.987778 
L 176.973223 -179.068877 
L 177.290579 -179.149327 
L 177.607934 -179.229125 
L 177.925289 -179.307958 
L 178.242645 -179.376936 
L 178.56 -179.442367 
L 178.877355 -179.507482 
L 179.194711 -179.578575 
L 179.512066 -179.645758 
L 179.829421 -179.707327 
L 180.146777 -179.768647 
L 180.464132 -179.819482 
L 180.781488 -179.876869 
L 181.098843 -179.938516 
L 181.416198 -179.99902 
L 181.733554 -180.054979 
L 182.050909 -180.111338 
L 182.368264 -180.166853 
L 182.68562 -180.213721 
L 183.002975 -180.271065 
L 183.320331 -180.330379 
L 183.637686 -180.377558 
L 183.955041 -180.424066 
L 184.272397 -180.484533 
L 184.589752 -180.55094 
L 184.907107 -180.618879 
L 185.224463 -180.68614 
L 185.541818 -180.743479 
L 185.859174 -180.797928 
L 186.176529 -180.861915 
L 186.493884 -180.927614 
L 186.81124 -180.984322 
L 187.128595 -181.035731 
L 187.44595 -181.033695 
L 187.763306 -181.004905 
L 188.080661 -180.853747 
L 188.398017 -180.656006 
L 188.715372 -180.509584 
L 189.032727 -180.38141 
L 189.350083 -180.23137 
L 189.667438 -180.036196 
L 189.984793 -179.794642 
L 190.302149 -179.557035 
L 190.619504 -179.29234 
L 190.93686 -179.126645 
L 191.254215 -179.092269 
L 191.57157 -179.203879 
L 191.888926 -179.446828 
L 192.206281 -179.801024 
L 192.523636 -180.246929 
L 192.840992 -180.803077 
L 193.158347 -181.450896 
L 193.475702 -182.191742 
L 193.793058 -183.061961 
L 194.110413 -184.043124 
L 194.427769 -185.1712 
L 194.745124 -186.44074 
L 195.062479 -187.843228 
L 195.379835 -189.368428 
L 195.69719 -190.991808 
L 196.014545 -192.720146 
L 196.331901 -194.584382 
L 196.649256 -196.570021 
L 196.966612 -198.640794 
L 197.283967 -200.80809 
L 197.601322 -203.043901 
L 197.918678 -205.327292 
L 198.236033 -207.659966 
L 198.553388 -210.064061 
L 198.870744 -212.524313 
L 199.188099 -215.048919 
L 199.505455 -217.636486 
L 199.82281 -220.264978 
L 200.140165 -222.942448 
L 200.457521 -225.60838 
L 200.774876 -228.323553 
L 201.092231 -231.038258 
L 201.409587 -233.737518 
L 201.726942 -236.429229 
L 202.044298 -239.103347 
L 202.361653 -241.754633 
L 202.679008 -244.376294 
L 202.996364 -246.987066 
L 203.313719 -249.556032 
L 203.631074 -252.072636 
L 203.94843 -254.559808 
L 204.265785 -256.966507 
L 204.58314 -259.28651 
L 204.900496 -261.501778 
L 205.217851 -263.565726 
L 205.535207 -265.520013 
L 205.852562 -267.394748 
L 206.169917 -269.170489 
L 206.487273 -270.804281 
L 206.804628 -272.26873 
L 207.121983 -273.611084 
L 207.439339 -274.806455 
L 207.756694 -275.965825 
L 208.07405 -277.059742 
L 208.391405 -278.26986 
L 208.70876 -279.511148 
L 209.026116 -280.573867 
L 209.343471 -281.561007 
L 209.660826 -282.51147 
L 209.978182 -283.535456 
L 210.295537 -284.660909 
L 210.612893 -285.833119 
L 210.930248 -287.126708 
L 211.247603 -288.32556 
L 211.564959 -289.329309 
L 211.882314 -290.128672 
L 212.199669 -290.742282 
L 212.517025 -291.218435 
L 212.83438 -291.592342 
L 213.151736 -291.813279 
L 213.469091 -291.953142 
L 213.786446 -292.032 
L 214.103802 -292.014277 
L 214.421157 -291.909415 
L 214.738512 -291.656567 
L 215.055868 -291.259436 
L 215.373223 -290.666754 
L 215.690579 -289.917439 
L 216.007934 -289.099806 
L 216.325289 -288.20079 
L 216.642645 -287.186485 
L 216.96 -286.064234 
L 217.277355 -284.861821 
L 217.594711 -283.524664 
L 217.912066 -282.124249 
L 218.229421 -280.679211 
L 218.546777 -279.195031 
L 218.864132 -277.64627 
L 219.181488 -276.07428 
L 219.498843 -274.390762 
L 219.816198 -272.589784 
L 220.133554 -270.737197 
L 220.450909 -268.774678 
L 220.768264 -266.842726 
L 221.08562 -264.796248 
L 221.402975 -262.688297 
L 221.720331 -260.545346 
L 222.037686 -258.351611 
L 222.355041 -256.137444 
L 222.672397 -253.906746 
L 222.989752 -251.642174 
L 223.307107 -249.337177 
L 223.624463 -246.983987 
L 223.941818 -244.624259 
L 224.259174 -242.222991 
L 224.576529 -239.854697 
L 224.893884 -237.500323 
L 225.21124 -235.202698 
L 225.528595 -233.076943 
L 225.84595 -231.007494 
L 226.163306 -228.940655 
L 226.480661 -226.894885 
L 226.798017 -224.933288 
L 227.115372 -223.160467 
L 227.432727 -221.472877 
L 227.750083 -219.872833 
L 228.067438 -218.315716 
L 228.384793 -216.775324 
L 228.702149 -215.183353 
L 229.019504 -213.528928 
L 229.33686 -211.942859 
L 229.654215 -210.361322 
L 229.97157 -208.80131 
L 230.288926 -207.178858 
L 230.606281 -205.443254 
L 230.923636 -203.613444 
L 231.240992 -201.629868 
L 231.558347 -199.572041 
L 231.875702 -197.598645 
L 232.193058 -195.617575 
L 232.510413 -193.680329 
L 232.827769 -191.716472 
L 233.145124 -189.710586 
L 233.462479 -187.779039 
L 233.779835 -185.83791 
L 234.09719 -183.879509 
L 234.414545 -181.900605 
L 234.731901 -179.906491 
L 235.049256 -177.877966 
L 235.366612 -175.857837 
L 235.683967 -173.91286 
L 236.001322 -172.021138 
L 236.318678 -170.122862 
L 236.636033 -168.23114 
L 236.953388 -166.286163 
L 237.270744 -164.266034 
L 237.588099 -162.237509 
L 237.905455 -160.243395 
L 238.22281 -158.264491 
L 238.540165 -156.30609 
L 238.857521 -154.364961 
L 239.174876 -152.433414 
L 239.492231 -150.427528 
L 239.809587 -148.463671 
L 240.126942 -146.526425 
L 240.444298 -144.545355 
L 240.761653 -142.571959 
L 241.079008 -140.514132 
L 241.396364 -138.530556 
L 241.713719 -136.700746 
L 242.031074 -134.965142 
L 242.34843 -133.34269 
L 242.665785 -131.782678 
L 242.98314 -130.201141 
L 243.300496 -128.615072 
L 243.617851 -126.960647 
L 243.935207 -125.368676 
L 244.252562 -123.828284 
L 244.569917 -122.271167 
L 244.887273 -120.671123 
L 245.204628 -118.983533 
L 245.521983 -117.210712 
L 245.839339 -115.249115 
L 246.156694 -113.203345 
L 246.47405 -111.136506 
L 246.791405 -109.067057 
L 247.10876 -106.941302 
L 247.426116 -104.643677 
L 247.743471 -102.289303 
L 248.060826 -99.921009 
L 248.378182 -97.519741 
L 248.695537 -95.160013 
L 249.012893 -92.806823 
L 249.330248 -90.501826 
L 249.647603 -88.237254 
L 249.964959 -86.006556 
L 250.282314 -83.792389 
L 250.599669 -81.598654 
L 250.917025 -79.455703 
L 251.23438 -77.347752 
L 251.551736 -75.301274 
L 251.869091 -73.369322 
L 252.186446 -71.406803 
L 252.503802 -69.554216 
L 252.821157 -67.753238 
L 253.138512 -66.06972 
L 253.455868 -64.49773 
L 253.773223 -62.948969 
L 254.090579 -61.464789 
L 254.407934 -60.019751 
L 254.725289 -58.619336 
L 255.042645 -57.282179 
L 255.36 -56.079766 
L 255.677355 -54.957515 
L 255.994711 -53.94321 
L 256.312066 -53.044194 
L 256.629421 -52.226561 
L 256.946777 -51.477246 
L 257.264132 -50.884564 
L 257.581488 -50.487433 
L 257.898843 -50.234585 
L 258.216198 -50.129723 
L 258.533554 -50.112 
L 258.850909 -50.190858 
L 259.168264 -50.330721 
L 259.48562 -50.551658 
L 259.802975 -50.925565 
L 260.120331 -51.401718 
L 260.437686 -52.015328 
L 260.755041 -52.814691 
L 261.072397 -53.81844 
L 261.389752 -55.017292 
L 261.707107 -56.310881 
L 262.024463 -57.483091 
L 262.341818 -58.608544 
L 262.659174 -59.63253 
L 262.976529 -60.582993 
L 263.293884 -61.570133 
L 263.61124 -62.632852 
L 263.928595 -63.87414 
L 264.24595 -65.084258 
L 264.563306 -66.178175 
L 264.880661 -67.337545 
L 265.198017 -68.532916 
L 265.515372 -69.87527 
L 265.832727 -71.339719 
L 266.150083 -72.973511 
L 266.467438 -74.749252 
L 266.784793 -76.623987 
L 267.102149 -78.578274 
L 267.419504 -80.642222 
L 267.73686 -82.85749 
L 268.054215 -85.177493 
L 268.37157 -87.584192 
L 268.688926 -90.071364 
L 269.006281 -92.587968 
L 269.323636 -95.156934 
L 269.640992 -97.767706 
L 269.958347 -100.389367 
L 270.275702 -103.040653 
L 270.593058 -105.714771 
L 270.910413 -108.406482 
L 271.227769 -111.105742 
L 271.545124 -113.820447 
L 271.862479 -116.53562 
L 272.179835 -119.201552 
L 272.49719 -121.879022 
L 272.814545 -124.507514 
L 273.131901 -127.095081 
L 273.449256 -129.619687 
L 273.766612 -132.079939 
L 274.083967 -134.484034 
L 274.401322 -136.816708 
L 274.718678 -139.100099 
L 275.036033 -141.33591 
L 275.353388 -143.503206 
L 275.670744 -145.573979 
L 275.988099 -147.559618 
L 276.305455 -149.423854 
L 276.62281 -151.152192 
L 276.940165 -152.775572 
L 277.257521 -154.300772 
L 277.574876 -155.70326 
L 277.892231 -156.9728 
L 278.209587 -158.100876 
L 278.526942 -159.082039 
L 278.844298 -159.952258 
L 279.161653 -160.693104 
L 279.479008 -161.340923 
L 279.796364 -161.897071 
L 280.113719 -162.342976 
L 280.431074 -162.697172 
L 280.74843 -162.940121 
L 281.065785 -163.051731 
L 281.38314 -163.017355 
L 281.700496 -162.85166 
L 282.017851 -162.586965 
L 282.335207 -162.349358 
L 282.652562 -162.107804 
L 282.969917 -161.91263 
L 283.287273 -161.76259 
L 283.604628 -161.634416 
L 283.921983 -161.487994 
L 284.239339 -161.290253 
L 284.556694 -161.139095 
L 284.87405 -161.110305 
L 285.191405 -161.108269 
L 285.50876 -161.159678 
L 285.826116 -161.216386 
L 286.143471 -161.282085 
L 286.460826 -161.346072 
L 286.778182 -161.400521 
L 287.095537 -161.45786 
L 287.412893 -161.525121 
L 287.730248 -161.59306 
L 288.047603 -161.659467 
L 288.364959 -161.719934 
L 288.682314 -161.766442 
L 288.999669 -161.813621 
L 289.317025 -161.872935 
L 289.63438 -161.930279 
L 289.951736 -161.977147 
L 290.269091 -162.032662 
L 290.586446 -162.089021 
L 290.903802 -162.14498 
L 291.221157 -162.205484 
L 291.538512 -162.267131 
L 291.855868 -162.324518 
L 292.173223 -162.375353 
L 292.490579 -162.436673 
L 292.807934 -162.498242 
L 293.125289 -162.565425 
L 293.442645 -162.636518 
L 293.76 -162.701633 
L 294.077355 -162.767064 
L 294.394711 -162.836042 
L 294.712066 -162.914875 
L 295.029421 -162.994673 
L 295.346777 -163.075123 
L 295.664132 -163.156222 
L 295.981488 -163.234552 
L 296.298843 -163.318244 
L 296.616198 -163.394754 
L 296.933554 -163.468992 
L 297.250909 -163.543783 
L 297.568264 -163.61767 
L 297.88562 -163.693341 
L 298.202975 -163.761843 
L 298.520331 -163.833994 
L 298.837686 -163.907733 
L 299.155041 -163.97831 
L 299.472397 -164.057731 
L 299.789752 -164.144092 
L 300.107107 -164.23434 
L 300.424463 -164.325552 
L 300.741818 -164.403537 
L 301.059174 -164.478862 
L 301.376529 -164.554645 
L 301.693884 -164.623766 
L 302.01124 -164.696363 
L 302.328595 -164.771519 
L 302.64595 -164.843445 
L 302.963306 -164.920067 
L 303.280661 -164.994596 
L 303.598017 -165.077103 
L 303.915372 -165.159033 
L 304.232727 -165.250395 
L 304.550083 -165.342537 
L 304.867438 -165.439871 
L 305.184793 -165.53595 
L 305.502149 -165.636761 
L 305.819504 -165.739581 
L 306.13686 -165.84064 
L 306.454215 -165.94153 
L 306.77157 -166.040352 
L 307.088926 -166.142386 
L 307.406281 -166.246244 
L 307.723636 -166.343717 
L 308.040992 -166.435949 
L 308.358347 -166.527978 
L 308.675702 -166.623957 
L 308.993058 -166.724896 
L 309.310413 -166.826771 
L 309.627769 -166.925953 
L 309.945124 -167.024465 
L 310.262479 -167.126815 
L 310.579835 -167.227263 
L 310.89719 -167.325141 
L 311.214545 -167.419398 
L 311.531901 -167.510746 
L 311.849256 -167.599949 
L 312.166612 -167.688714 
L 312.483967 -167.778863 
L 312.801322 -167.864321 
L 313.118678 -167.946685 
L 313.436033 -168.023553 
L 313.753388 -168.098616 
L 314.070744 -168.17505 
L 314.388099 -168.24585 
L 314.705455 -168.314553 
L 315.02281 -168.377386 
L 315.340165 -168.436569 
L 315.657521 -168.493553 
L 315.974876 -168.546959 
L 316.292231 -168.596972 
L 316.609587 -168.641116 
L 316.926942 -168.685502 
L 317.244298 -168.730004 
L 317.561653 -168.769996 
L 317.879008 -168.806738 
L 318.196364 -168.83632 
L 318.513719 -168.863561 
L 318.831074 -168.887117 
L 319.14843 -168.904641 
L 319.465785 -168.924503 
L 319.78314 -168.942318 
L 320.100496 -168.955915 
L 320.417851 -168.965924 
L 320.735207 -168.975115 
L 321.052562 -168.987951 
L 321.369917 -168.999084 
L 321.687273 -169.011217 
L 322.004628 -169.027744 
L 322.321983 -169.042022 
L 322.639339 -169.053932 
L 322.956694 -169.06596 
L 323.27405 -169.075902 
L 323.591405 -169.086839 
L 323.90876 -169.096955 
L 324.226116 -169.106093 
L 324.543471 -169.113481 
L 324.860826 -169.121662 
L 325.178182 -169.125242 
L 325.495537 -169.126671 
L 325.812893 -169.127675 
L 326.130248 -169.127212 
L 326.447603 -169.126012 
L 326.764959 -169.124795 
L 327.082314 -169.120984 
L 327.399669 -169.115432 
L 327.717025 -169.111141 
L 328.03438 -169.106529 
L 328.351736 -169.100626 
L 328.669091 -169.093699 
L 328.986446 -169.082623 
L 329.303802 -169.070583 
L 329.621157 -169.058453 
L 329.938512 -169.04259 
L 330.255868 -169.025333 
L 330.573223 -169.006813 
L 330.890579 -168.98572 
L 331.207934 -168.961253 
L 331.525289 -168.938413 
L 331.842645 -168.909403 
L 332.16 -168.877588 
L 332.477355 -168.848454 
L 332.794711 -168.812807 
L 333.112066 -168.77219 
L 333.429421 -168.733048 
L 333.746777 -168.685441 
L 334.064132 -168.630109 
L 334.381488 -168.575666 
L 334.698843 -168.515867 
L 335.016198 -168.448729 
L 335.333554 -168.386247 
L 335.650909 -168.315096 
L 335.968264 -168.231306 
L 336.28562 -168.14494 
L 336.602975 -168.044903 
L 336.920331 -167.93198 
L 337.237686 -167.817586 
L 337.555041 -167.686739 
L 337.872397 -167.542011 
L 338.189752 -167.395472 
L 338.507107 -167.235149 
L 338.824463 -167.059344 
L 339.141818 -166.880741 
L 339.459174 -166.686145 
L 339.776529 -166.475827 
L 340.093884 -166.26608 
L 340.41124 -166.037548 
L 340.728595 -165.782701 
L 341.04595 -165.525983 
L 341.363306 -165.248167 
L 341.680661 -164.951048 
L 341.998017 -164.655978 
L 342.315372 -164.337984 
L 342.632727 -163.988597 
L 342.950083 -163.643104 
L 343.267438 -163.276132 
L 343.584793 -162.875544 
L 343.902149 -162.471625 
L 344.219504 -162.032143 
L 344.53686 -161.554354 
L 344.854215 -161.083715 
L 345.17157 -160.578907 
L 345.488926 -160.036128 
L 345.806281 -159.485536 
L 346.123636 -158.895856 
L 346.440992 -158.26222 
L 346.758347 -157.623033 
L 347.075702 -156.942723 
L 347.393058 -156.215412 
L 347.710413 -155.476235 
L 348.027769 -154.686027 
L 348.345124 -153.8281 
L 348.662479 -152.949747 
L 348.979835 -152.023999 
L 349.29719 -151.036706 
L 349.614545 -150.020392 
L 349.931901 -148.95676 
L 350.249256 -147.823297 
L 350.566612 -146.663872 
L 350.883967 -145.457491 
L 351.201322 -144.173415 
L 351.518678 -142.851256 
L 351.836033 -141.491106 
L 352.153388 -140.073171 
L 352.470744 -138.614162 
L 352.788099 -137.115512 
L 353.105455 -135.572752 
L 353.42281 -133.976415 
L 353.740165 -132.355229 
L 354.057521 -130.713435 
L 354.374876 -129.034048 
L 354.692231 -127.315408 
L 355.009587 -125.592936 
L 355.326942 -123.842035 
L 355.644298 -122.050623 
L 355.961653 -120.273262 
L 356.279008 -118.505068 
L 356.596364 -116.714139 
L 356.913719 -114.933659 
L 357.231074 -113.186029 
L 357.54843 -111.430858 
L 357.865785 -109.702688 
L 358.18314 -108.005756 
L 358.500496 -106.327547 
L 358.817851 -104.688013 
L 359.135207 -103.096885 
L 359.452562 -101.536354 
L 359.769917 -100.035586 
L 360.087273 -98.603944 
L 360.404628 -97.204832 
L 360.721983 -95.872585 
L 361.039339 -94.625469 
L 361.356694 -93.42077 
L 361.67405 -92.303835 
L 361.991405 -91.271649 
L 362.30876 -90.279422 
L 362.626116 -89.376247 
L 362.943471 -88.584973 
L 363.260826 -87.837924 
L 363.578182 -87.175915 
L 363.895537 -86.623856 
L 364.212893 -86.121351 
L 364.530248 -85.708438 
L 364.847603 -85.414758 
L 365.164959 -85.141927 
L 365.482314 -84.948998 
L 365.799669 -84.863615 
L 366.117025 -84.809645 
L 366.43438 -84.843183 
L 366.751736 -84.977366 
L 367.069091 -85.129337 
L 367.386446 -85.363597 
L 367.703802 -85.685359 
L 368.021157 -86.006593 
L 368.338512 -86.395122 
L 368.655868 -86.900064 
L 368.973223 -87.420019 
L 369.290579 -88.002089 
L 369.607934 -88.695794 
L 369.925289 -89.400499 
L 370.242645 -90.16586 
L 370.56 -91.039865 
L 370.877355 -91.92333 
L 371.194711 -92.832781 
L 371.512066 -93.878163 
L 371.829421 -94.950039 
L 372.146777 -96.033424 
L 372.464132 -97.215111 
L 372.781488 -98.41214 
L 373.098843 -99.626539 
L 373.416198 -100.873994 
L 373.733554 -102.197914 
L 374.050909 -103.514941 
L 374.368264 -104.827791 
L 374.68562 -106.168204 
L 375.002975 -107.547178 
L 375.320331 -108.903632 
L 375.637686 -110.293709 
L 375.955041 -111.714454 
L 376.272397 -113.098166 
L 376.589752 -114.454364 
L 376.907107 -115.818621 
L 377.224463 -117.190188 
L 377.541818 -118.517054 
L 377.859174 -119.877188 
L 378.176529 -121.204159 
L 378.493884 -122.493191 
L 378.81124 -123.760146 
L 379.128595 -124.992474 
L 379.44595 -126.182536 
L 379.763306 -127.334624 
L 380.080661 -128.434825 
L 380.398017 -129.473274 
L 380.715372 -130.470381 
L 381.032727 -131.411061 
L 381.350083 -132.284747 
L 381.667438 -133.111346 
L 381.984793 -133.866331 
L 382.302149 -134.552366 
L 382.619504 -135.192623 
L 382.93686 -135.761648 
L 383.254215 -136.247052 
L 383.57157 -136.684655 
L 383.888926 -137.058439 
L 384.206281 -137.357173 
L 384.523636 -137.611579 
L 384.840992 -137.813961 
L 385.158347 -137.940794 
L 385.475702 -138.047497 
L 385.793058 -138.114863 
L 386.110413 -138.124672 
L 386.427769 -138.122866 
L 386.745124 -138.085091 
L 387.062479 -138.005306 
L 387.379835 -137.92937 
L 387.69719 -137.829005 
L 388.014545 -137.709124 
L 388.331901 -137.621721 
L 388.649256 -137.538136 
L 388.966612 -137.928304 
L 389.283967 -138.326118 
L 389.601322 -138.709363 
L 389.918678 -139.046415 
L 390.236033 -139.40197 
L 390.553388 -139.743464 
L 390.870744 -140.049796 
L 391.188099 -140.373667 
L 391.505455 -140.717904 
L 391.82281 -141.007691 
L 392.140165 -141.312775 
L 392.457521 -141.643264 
L 392.774876 -141.939265 
L 393.092231 -142.262833 
L 393.409587 -142.606306 
L 393.726942 -142.96644 
L 394.044298 -143.3089 
L 394.361653 -143.682808 
L 394.679008 -144.0904 
L 394.996364 -144.514954 
L 395.313719 -144.93896 
L 395.631074 -145.396268 
L 395.94843 -145.855374 
L 396.265785 -146.320537 
L 396.58314 -146.817393 
L 396.900496 -147.344224 
L 397.217851 -147.887532 
L 397.535207 -148.426955 
L 397.852562 -148.990635 
L 398.169917 -149.529325 
L 398.487273 -171.072 
L 398.487273 -171.072 
L 398.487273 -171.072 
L 398.169917 -171.072 
L 397.852562 -171.072 
L 397.535207 -171.072 
L 397.217851 -171.072 
L 396.900496 -171.072 
L 396.58314 -171.072 
L 396.265785 -171.072 
L 395.94843 -171.072 
L 395.631074 -171.072 
L 395.313719 -171.072 
L 394.996364 -171.072 
L 394.679008 -171.072 
L 394.361653 -171.072 
L 394.044298 -171.072 
L 393.726942 -171.072 
L 393.409587 -171.072 
L 393.092231 -171.072 
L 392.774876 -171.072 
L 392.457521 -171.072 
L 392.140165 -171.072 
L 391.82281 -171.072 
L 391.505455 -171.072 
L 391.188099 -171.072 
L 390.870744 -171.072 
L 390.553388 -171.072 
L 390.236033 -171.072 
L 389.918678 -171.072 
L 389.601322 -171.072 
L 389.283967 -171.072 
L 388.966612 -171.072 
L 388.649256 -171.072 
L 388.331901 -171.072 
L 388.014545 -171.072 
L 387.69719 -171.072 
L 387.379835 -171.072 
L 387.062479 -171.072 
L 386.745124 -171.072 
L 386.427769 -171.072 
L 386.110413 -171.072 
L 385.793058 -171.072 
L 385.475702 -171.072 
L 385.158347 -171.072 
L 384.840992 -171.072 
L 384.523636 -171.072 
L 384.206281 -171.072 
L 383.888926 -171.072 
L 383.57157 -171.072 
L 383.254215 -171.072 
L 382.93686 -171.072 
L 382.619504 -171.072 
L 382.302149 -171.072 
L 381.984793 -171.072 
L 381.667438 -171.072 
L 381.350083 -171.072 
L 381.032727 -171.072 
L 380.715372 -171.072 
L 380.398017 -171.072 
L 380.080661 -171.072 
L 379.763306 -171.072 
L 379.44595 -171.072 
L 379.128595 -171.072 
L 378.81124 -171.072 
L 378.493884 -171.072 
L 378.176529 -171.072 
L 377.859174 -171.072 
L 377.541818 -171.072 
L 377.224463 -171.072 
L 376.907107 -171.072 
L 376.589752 -171.072 
L 376.272397 -171.072 
L 375.955041 -171.072 
L 375.637686 -171.072 
L 375.320331 -171.072 
L 375.002975 -171.072 
L 374.68562 -171.072 
L 374.368264 -171.072 
L 374.050909 -171.072 
L 373.733554 -171.072 
L 373.416198 -171.072 
L 373.098843 -171.072 
L 372.781488 -171.072 
L 372.464132 -171.072 
L 372.146777 -171.072 
L 371.829421 -171.072 
L 371.512066 -171.072 
L 371.194711 -171.072 
L 370.877355 -171.072 
L 370.56 -171.072 
L 370.242645 -171.072 
L 369.925289 -171.072 
L 369.607934 -171.072 
L 369.290579 -171.072 
L 368.973223 -171.072 
L 368.655868 -171.072 
L 368.338512 -171.072 
L 368.021157 -171.072 
L 367.703802 -171.072 
L 367.386446 -171.072 
L 367.069091 -171.072 
L 366.751736 -171.072 
L 366.43438 -171.072 
L 366.117025 -171.072 
L 365.799669 -171.072 
L 365.482314 -171.072 
L 365.164959 -171.072 
L 364.847603 -171.072 
L 364.530248 -171.072 
L 364.212893 -171.072 
L 363.895537 -171.072 
L 363.578182 -171.072 
L 363.260826 -171.072 
L 362.943471 -171.072 
L 362.626116 -171.072 
L 362.30876 -171.072 
L 361.991405 -171.072 
L 361.67405 -171.072 
L 361.356694 -171.072 
L 361.039339 -171.072 
L 360.721983 -171.072 
L 360.404628 -171.072 
L 360.087273 -171.072 
L 359.769917 -171.072 
L 359.452562 -171.072 
L 359.135207 -171.072 
L 358.817851 -171.072 
L 358.500496 -171.072 
L 358.18314 -171.072 
L 357.865785 -171.072 
L 357.54843 -171.072 
L 357.231074 -171.072 
L 356.913719 -171.072 
L 356.596364 -171.072 
L 356.279008 -171.072 
L 355.961653 -171.072 
L 355.644298 -171.072 
L 355.326942 -171.072 
L 355.009587 -171.072 
L 354.692231 -171.072 
L 354.374876 -171.072 
L 354.057521 -171.072 
L 353.740165 -171.072 
L 353.42281 -171.072 
L 353.105455 -171.072 
L 352.788099 -171.072 
L 352.470744 -171.072 
L 352.153388 -171.072 
L 351.836033 -171.072 
L 351.518678 -171.072 
L 351.201322 -171.072 
L 350.883967 -171.072 
L 350.566612 -171.072 
L 350.249256 -171.072 
L 349.931901 -171.072 
L 349.614545 -171.072 
L 349.29719 -171.072 
L 348.979835 -171.072 
L 348.662479 -171.072 
L 348.345124 -171.072 
L 348.027769 -171.072 
L 347.710413 -171.072 
L 347.393058 -171.072 
L 347.075702 -171.072 
L 346.758347 -171.072 
L 346.440992 -171.072 
L 346.123636 -171.072 
L 345.806281 -171.072 
L 345.488926 -171.072 
L 345.17157 -171.072 
L 344.854215 -171.072 
L 344.53686 -171.072 
L 344.219504 -171.072 
L 343.902149 -171.072 
L 343.584793 -171.072 
L 343.267438 -171.072 
L 342.950083 -171.072 
L 342.632727 -171.072 
L 342.315372 -171.072 
L 341.998017 -171.072 
L 341.680661 -171.072 
L 341.363306 -171.072 
L 341.04595 -171.072 
L 340.728595 -171.072 
L 340.41124 -171.072 
L 340.093884 -171.072 
L 339.776529 -171.072 
L 339.459174 -171.072 
L 339.141818 -171.072 
L 338.824463 -171.072 
L 338.507107 -171.072 
L 338.189752 -171.072 
L 337.872397 -171.072 
L 337.555041 -171.072 
L 337.237686 -171.072 
L 336.920331 -171.072 
L 336.602975 -171.072 
L 336.28562 -171.072 
L 335.968264 -171.072 
L 335.650909 -171.072 
L 335.333554 -171.072 
L 335.016198 -171.072 
L 334.698843 -171.072 
L 334.381488 -171.072 
L 334.064132 -171.072 
L 333.746777 -171.072 
L 333.429421 -171.072 
L 333.112066 -171.072 
L 332.794711 -171.072 
L 332.477355 -171.072 
L 332.16 -171.072 
L 331.842645 -171.072 
L 331.525289 -171.072 
L 331.207934 -171.072 
L 330.890579 -171.072 
L 330.573223 -171.072 
L 330.255868 -171.072 
L 329.938512 -171.072 
L 329.621157 -171.072 
L 329.303802 -171.072 
L 328.986446 -171.072 
L 328.669091 -171.072 
L 328.351736 -171.072 
L 328.03438 -171.072 
L 327.717025 -171.072 
L 327.399669 -171.072 
L 327.082314 -171.072 
L 326.764959 -171.072 
L 326.447603 -171.072 
L 326.130248 -171.072 
L 325.812893 -171.072 
L 325.495537 -171.072 
L 325.178182 -171.072 
L 324.860826 -171.072 
L 324.543471 -171.072 
L 324.226116 -171.072 
L 323.90876 -171.072 
L 323.591405 -171.072 
L 323.27405 -171.072 
L 322.956694 -171.072 
L 322.639339 -171.072 
L 322.321983 -171.072 
L 322.004628 -171.072 
L 321.687273 -171.072 
L 321.369917 -171.072 
L 321.052562 -171.072 
L 320.735207 -171.072 
L 320.417851 -171.072 
L 320.100496 -171.072 
L 319.78314 -171.072 
L 319.465785 -171.072 
L 319.14843 -171.072 
L 318.831074 -171.072 
L 318.513719 -171.072 
L 318.196364 -171.072 
L 317.879008 -171.072 
L 317.561653 -171.072 
L 317.244298 -171.072 
L 316.926942 -171.072 
L 316.609587 -171.072 
L 316.292231 -171.072 
L 315.974876 -171.072 
L 315.657521 -171.072 
L 315.340165 -171.072 
L 315.02281 -171.072 
L 314.705455 -171.072 
L 314.388099 -171.072 
L 314.070744 -171.072 
L 313.753388 -171.072 
L 313.436033 -171.072 
L 313.118678 -171.072 
L 312.801322 -171.072 
L 312.483967 -171.072 
L 312.166612 -171.072 
L 311.849256 -171.072 
L 311.531901 -171.072 
L 311.214545 -171.072 
L 310.89719 -171.072 
L 310.579835 -171.072 
L 310.262479 -171.072 
L 309.945124 -171.072 
L 309.627769 -171.072 
L 309.310413 -171.072 
L 308.993058 -171.072 
L 308.675702 -171.072 
L 308.358347 -171.072 
L 308.040992 -171.072 
L 307.723636 -171.072 
L 307.406281 -171.072 
L 307.088926 -171.072 
L 306.77157 -171.072 
L 306.454215 -171.072 
L 306.13686 -171.072 
L 305.819504 -171.072 
L 305.502149 -171.072 
L 305.184793 -171.072 
L 304.867438 -171.072 
L 304.550083 -171.072 
L 304.232727 -171.072 
L 303.915372 -171.072 
L 303.598017 -171.072 
L 303.280661 -171.072 
L 302.963306 -171.072 
L 302.64595 -171.072 
L 302.328595 -171.072 
L 302.01124 -171.072 
L 301.693884 -171.072 
L 301.376529 -171.072 
L 301.059174 -171.072 
L 300.741818 -171.072 
L 300.424463 -171.072 
L 300.107107 -171.072 
L 299.789752 -171.072 
L 299.472397 -171.072 
L 299.155041 -171.072 
L 298.837686 -171.072 
L 298.520331 -171.072 
L 298.202975 -171.072 
L 297.88562 -171.072 
L 297.568264 -171.072 
L 297.250909 -171.072 
L 296.933554 -171.072 
L 296.616198 -171.072 
L 296.298843 -171.072 
L 295.981488 -171.072 
L 295.664132 -171.072 
L 295.346777 -171.072 
L 295.029421 -171.072 
L 294.712066 -171.072 
L 294.394711 -171.072 
L 294.077355 -171.072 
L 293.76 -171.072 
L 293.442645 -171.072 
L 293.125289 -171.072 
L 292.807934 -171.072 
L 292.490579 -171.072 
L 292.173223 -171.072 
L 291.855868 -171.072 
L 291.538512 -171.072 
L 291.221157 -171.072 
L 290.903802 -171.072 
L 290.586446 -171.072 
L 290.269091 -171.072 
L 289.951736 -171.072 
L 289.63438 -171.072 
L 289.317025 -171.072 
L 288.999669 -171.072 
L 288.682314 -171.072 
L 288.364959 -171.072 
L 288.047603 -171.072 
L 287.730248 -171.072 
L 287.412893 -171.072 
L 287.095537 -171.072 
L 286.778182 -171.072 
L 286.460826 -171.072 
L 286.143471 -171.072 
L 285.826116 -171.072 
L 285.50876 -171.072 
L 285.191405 -171.072 
L 284.87405 -171.072 
L 284.556694 -171.072 
L 284.239339 -171.072 
L 283.921983 -171.072 
L 283.604628 -171.072 
L 283.287273 -171.072 
L 282.969917 -171.072 
L 282.652562 -171.072 
L 282.335207 -171.072 
L 282.017851 -171.072 
L 281.700496 -171.072 
L 281.38314 -171.072 
L 281.065785 -171.072 
L 280.74843 -171.072 
L 280.431074 -171.072 
L 280.113719 -171.072 
L 279.796364 -171.072 
L 279.479008 -171.072 
L 279.161653 -171.072 
L 278.844298 -171.072 
L 278.526942 -171.072 
L 278.209587 -171.072 
L 277.892231 -171.072 
L 277.574876 -171.072 
L 277.257521 -171.072 
L 276.940165 -171.072 
L 276.62281 -171.072 
L 276.305455 -171.072 
L 275.988099 -171.072 
L 275.670744 -171.072 
L 275.353388 -171.072 
L 275.036033 -171.072 
L 274.718678 -171.072 
L 274.401322 -171.072 
L 274.083967 -171.072 
L 273.766612 -171.072 
L 273.449256 -171.072 
L 273.131901 -171.072 
L 272.814545 -171.072 
L 272.49719 -171.072 
L 272.179835 -171.072 
L 271.862479 -171.072 
L 271.545124 -171.072 
L 271.227769 -171.072 
L 270.910413 -171.072 
L 270.593058 -171.072 
L 270.275702 -171.072 
L 269.958347 -171.072 
L 269.640992 -171.072 
L 269.323636 -171.072 
L 269.006281 -171.072 
L 268.688926 -171.072 
L 268.37157 -171.072 
L 268.054215 -171.072 
L 267.73686 -171.072 
L 267.419504 -171.072 
L 267.102149 -171.072 
L 266.784793 -171.072 
L 266.467438 -171.072 
L 266.150083 -171.072 
L 265.832727 -171.072 
L 265.515372 -171.072 
L 265.198017 -171.072 
L 264.880661 -171.072 
L 264.563306 -171.072 
L 264.24595 -171.072 
L 263.928595 -171.072 
L 263.61124 -171.072 
L 263.293884 -171.072 
L 262.976529 -171.072 
L 262.659174 -171.072 
L 262.341818 -171.072 
L 262.024463 -171.072 
L 261.707107 -171.072 
L 261.389752 -171.072 
L 261.072397 -171.072 
L 260.755041 -171.072 
L 260.437686 -171.072 
L 260.120331 -171.072 
L 259.802975 -171.072 
L 259.48562 -171.072 
L 259.168264 -171.072 
L 258.850909 -171.072 
L 258.533554 -171.072 
L 258.216198 -171.072 
L 257.898843 -171.072 
L 257.581488 -171.072 
L 257.264132 -171.072 
L 256.946777 -171.072 
L 256.629421 -171.072 
L 256.312066 -171.072 
L 255.994711 -171.072 
L 255.677355 -171.072 
L 255.36 -171.072 
L 255.042645 -171.072 
L 254.725289 -171.072 
L 254.407934 -171.072 
L 254.090579 -171.072 
L 253.773223 -171.072 
L 253.455868 -171.072 
L 253.138512 -171.072 
L 252.821157 -171.072 
L 252.503802 -171.072 
L 252.186446 -171.072 
L 251.869091 -171.072 
L 251.551736 -171.072 
L 251.23438 -171.072 
L 250.917025 -171.072 
L 250.599669 -171.072 
L 250.282314 -171.072 
L 249.964959 -171.072 
L 249.647603 -171.072 
L 249.330248 -171.072 
L 249.012893 -171.072 
L 248.695537 -171.072 
L 248.378182 -171.072 
L 248.060826 -171.072 
L 247.743471 -171.072 
L 247.426116 -171.072 
L 247.10876 -171.072 
L 246.791405 -171.072 
L 246.47405 -171.072 
L 246.156694 -171.072 
L 245.839339 -171.072 
L 245.521983 -171.072 
L 245.204628 -171.072 
L 244.887273 -171.072 
L 244.569917 -171.072 
L 244.252562 -171.072 
L 243.935207 -171.072 
L 243.617851 -171.072 
L 243.300496 -171.072 
L 242.98314 -171.072 
L 242.665785 -171.072 
L 242.34843 -171.072 
L 242.031074 -171.072 
L 241.713719 -171.072 
L 241.396364 -171.072 
L 241.079008 -171.072 
L 240.761653 -171.072 
L 240.444298 -171.072 
L 240.126942 -171.072 
L 239.809587 -171.072 
L 239.492231 -171.072 
L 239.174876 -171.072 
L 238.857521 -171.072 
L 238.540165 -171.072 
L 238.22281 -171.072 
L 237.905455 -171.072 
L 237.588099 -171.072 
L 237.270744 -171.072 
L 236.953388 -171.072 
L 236.636033 -171.072 
L 236.318678 -171.072 
L 236.001322 -171.072 
L 235.683967 -171.072 
L 235.366612 -171.072 
L 235.049256 -171.072 
L 234.731901 -171.072 
L 234.414545 -171.072 
L 234.09719 -171.072 
L 233.779835 -171.072 
L 233.462479 -171.072 
L 233.145124 -171.072 
L 232.827769 -171.072 
L 232.510413 -171.072 
L 232.193058 -171.072 
L 231.875702 -171.072 
L 231.558347 -171.072 
L 231.240992 -171.072 
L 230.923636 -171.072 
L 230.606281 -171.072 
L 230.288926 -171.072 
L 229.97157 -171.072 
L 229.654215 -171.072 
L 229.33686 -171.072 
L 229.019504 -171.072 
L 228.702149 -171.072 
L 228.384793 -171.072 
L 228.067438 -171.072 
L 227.750083 -171.072 
L 227.432727 -171.072 
L 227.115372 -171.072 
L 226.798017 -171.072 
L 226.480661 -171.072 
L 226.163306 -171.072 
L 225.84595 -171.072 
L 225.528595 -171.072 
L 225.21124 -171.072 
L 224.893884 -171.072 
L 224.576529 -171.072 
L 224.259174 -171.072 
L 223.941818 -171.072 
L 223.624463 -171.072 
L 223.307107 -171.072 
L 222.989752 -171.072 
L 222.672397 -171.072 
L 222.355041 -171.072 
L 222.037686 -171.072 
L 221.720331 -171.072 
L 221.402975 -171.072 
L 221.08562 -171.072 
L 220.768264 -171.072 
L 220.450909 -171.072 
L 220.133554 -171.072 
L 219.816198 -171.072 
L 219.498843 -171.072 
L 219.181488 -171.072 
L 218.864132 -171.072 
L 218.546777 -171.072 
L 218.229421 -171.072 
L 217.912066 -171.072 
L 217.594711 -171.072 
L 217.277355 -171.072 
L 216.96 -171.072 
L 216.642645 -171.072 
L 216.325289 -171.072 
L 216.007934 -171.072 
L 215.690579 -171.072 
L 215.373223 -171.072 
L 215.055868 -171.072 
L 214.738512 -171.072 
L 214.421157 -171.072 
L 214.103802 -171.072 
L 213.786446 -171.072 
L 213.469091 -171.072 
L 213.151736 -171.072 
L 212.83438 -171.072 
L 212.517025 -171.072 
L 212.199669 -171.072 
L 211.882314 -171.072 
L 211.564959 -171.072 
L 211.247603 -171.072 
L 210.930248 -171.072 
L 210.612893 -171.072 
L 210.295537 -171.072 
L 209.978182 -171.072 
L 209.660826 -171.072 
L 209.343471 -171.072 
L 209.026116 -171.072 
L 208.70876 -171.072 
L 208.391405 -171.072 
L 208.07405 -171.072 
L 207.756694 -171.072 
L 207.439339 -171.072 
L 207.121983 -171.072 
L 206.804628 -171.072 
L 206.487273 -171.072 
L 206.169917 -171.072 
L 205.852562 -171.072 
L 205.535207 -171.072 
L 205.217851 -171.072 
L 204.900496 -171.072 
L 204.58314 -171.072 
L 204.265785 -171.072 
L 203.94843 -171.072 
L 203.631074 -171.072 
L 203.313719 -171.072 
L 202.996364 -171.072 
L 202.679008 -171.072 
L 202.361653 -171.072 
L 202.044298 -171.072 
L 201.726942 -171.072 
L 201.409587 -171.072 
L 201.092231 -171.072 
L 200.774876 -171.072 
L 200.457521 -171.072 
L 200.140165 -171.072 
L 199.82281 -171.072 
L 199.505455 -171.072 
L 199.188099 -171.072 
L 198.870744 -171.072 
L 198.553388 -171.072 
L 198.236033 -171.072 
L 197.918678 -171.072 
L 197.601322 -171.072 
L 197.283967 -171.072 
L 196.966612 -171.072 
L 196.649256 -171.072 
L 196.331901 -171.072 
L 196.014545 -171.072 
L 195.69719 -171.072 
L 195.379835 -171.072 
L 195.062479 -171.072 
L 194.745124 -171.072 
L 194.427769 -171.072 
L 194.110413 -171.072 
L 193.793058 -171.072 
L 193.475702 -171.072 
L 193.158347 -171.072 
L 192.840992 -171.072 
L 192.523636 -171.072 
L 192.206281 -171.072 
L 191.888926 -171.072 
L 191.57157 -171.072 
L 191.254215 -171.072 
L 190.93686 -171.072 
L 190.619504 -171.072 
L 190.302149 -171.072 
L 189.984793 -171.072 
L 189.667438 -171.072 
L 189.350083 -171.072 
L 189.032727 -171.072 
L 188.715372 -171.072 
L 188.398017 -171.072 
L 188.080661 -171.072 
L 187.763306 -171.072 
L 187.44595 -171.072 
L 187.128595 -171.072 
L 186.81124 -171.072 
L 186.493884 -171.072 
L 186.176529 -171.072 
L 185.859174 -171.072 
L 185.541818 -171.072 
L 185.224463 -171.072 
L 184.907107 -171.072 
L 184.589752 -171.072 
L 184.272397 -171.072 
L 183.955041 -171.072 
L 183.637686 -171.072 
L 183.320331 -171.072 
L 183.002975 -171.072 
L 182.68562 -171.072 
L 182.368264 -171.072 
L 182.050909 -171.072 
L 181.733554 -171.072 
L 181.416198 -171.072 
L 181.098843 -171.072 
L 180.781488 -171.072 
L 180.464132 -171.072 
L 180.146777 -171.072 
L 179.829421 -171.072 
L 179.512066 -171.072 
L 179.194711 -171.072 
L 178.877355 -171.072 
L 178.56 -171.072 
L 178.242645 -171.072 
L 177.925289 -171.072 
L 177.607934 -171.072 
L 177.290579 -171.072 
L 176.973223 -171.072 
L 176.655868 -171.072 
L 176.338512 -171.072 
L 176.021157 -171.072 
L 175.703802 -171.072 
L 175.386446 -171.072 
L 175.069091 -171.072 
L 174.751736 -171.072 
L 174.43438 -171.072 
L 174.117025 -171.072 
L 173.799669 -171.072 
L 173.482314 -171.072 
L 173.164959 -171.072 
L 172.847603 -171.072 
L 172.530248 -171.072 
L 172.212893 -171.072 
L 171.895537 -171.072 
L 171.578182 -171.072 
L 171.260826 -171.072 
L 170.943471 -171.072 
L 170.626116 -171.072 
L 170.30876 -171.072 
L 169.991405 -171.072 
L 169.67405 -171.072 
L 169.356694 -171.072 
L 169.039339 -171.072 
L 168.721983 -171.072 
L 168.404628 -171.072 
L 168.087273 -171.072 
L 167.769917 -171.072 
L 167.452562 -171.072 
L 167.135207 -171.072 
L 166.817851 -171.072 
L 166.500496 -171.072 
L 166.18314 -171.072 
L 165.865785 -171.072 
L 165.54843 -171.072 
L 165.231074 -171.072 
L 164.913719 -171.072 
L 164.596364 -171.072 
L 164.279008 -171.072 
L 163.961653 -171.072 
L 163.644298 -171.072 
L 163.326942 -171.072 
L 163.009587 -171.072 
L 162.692231 -171.072 
L 162.374876 -171.072 
L 162.057521 -171.072 
L 161.740165 -171.072 
L 161.42281 -171.072 
L 161.105455 -171.072 
L 160.788099 -171.072 
L 160.470744 -171.072 
L 160.153388 -171.072 
L 159.836033 -171.072 
L 159.518678 -171.072 
L 159.201322 -171.072 
L 158.883967 -171.072 
L 158.566612 -171.072 
L 158.249256 -171.072 
L 157.931901 -171.072 
L 157.614545 -171.072 
L 157.29719 -171.072 
L 156.979835 -171.072 
L 156.662479 -171.072 
L 156.345124 -171.072 
L 156.027769 -171.072 
L 155.710413 -171.072 
L 155.393058 -171.072 
L 155.075702 -171.072 
L 154.758347 -171.072 
L 154.440992 -171.072 
L 154.123636 -171.072 
L 153.806281 -171.072 
L 153.488926 -171.072 
L 153.17157 -171.072 
L 152.854215 -171.072 
L 152.53686 -171.072 
L 152.219504 -171.072 
L 151.902149 -171.072 
L 151.584793 -171.072 
L 151.267438 -171.072 
L 150.950083 -171.072 
L 150.632727 -171.072 
L 150.315372 -171.072 
L 149.998017 -171.072 
L 149.680661 -171.072 
L 149.363306 -171.072 
L 149.04595 -171.072 
L 148.728595 -171.072 
L 148.41124 -171.072 
L 148.093884 -171.072 
L 147.776529 -171.072 
L 147.459174 -171.072 
L 147.141818 -171.072 
L 146.824463 -171.072 
L 146.507107 -171.072 
L 146.189752 -171.072 
L 145.872397 -171.072 
L 145.555041 -171.072 
L 145.237686 -171.072 
L 144.920331 -171.072 
L 144.602975 -171.072 
L 144.28562 -171.072 
L 143.968264 -171.072 
L 143.650909 -171.072 
L 143.333554 -171.072 
L 143.016198 -171.072 
L 142.698843 -171.072 
L 142.381488 -171.072 
L 142.064132 -171.072 
L 141.746777 -171.072 
L 141.429421 -171.072 
L 141.112066 -171.072 
L 140.794711 -171.072 
L 140.477355 -171.072 
L 140.16 -171.072 
L 139.842645 -171.072 
L 139.525289 -171.072 
L 139.207934 -171.072 
L 138.890579 -171.072 
L 138.573223 -171.072 
L 138.255868 -171.072 
L 137.938512 -171.072 
L 137.621157 -171.072 
L 137.303802 -171.072 
L 136.986446 -171.072 
L 136.669091 -171.072 
L 136.351736 -171.072 
L 136.03438 -171.072 
L 135.717025 -171.072 
L 135.399669 -171.072 
L 135.082314 -171.072 
L 134.764959 -171.072 
L 134.447603 -171.072 
L 134.130248 -171.072 
L 133.812893 -171.072 
L 133.495537 -171.072 
L 133.178182 -171.072 
L 132.860826 -171.072 
L 132.543471 -171.072 
L 132.226116 -171.072 
L 131.90876 -171.072 
L 131.591405 -171.072 
L 131.27405 -171.072 
L 130.956694 -171.072 
L 130.639339 -171.072 
L 130.321983 -171.072 
L 130.004628 -171.072 
L 129.687273 -171.072 
L 129.369917 -171.072 
L 129.052562 -171.072 
L 128.735207 -171.072 
L 128.417851 -171.072 
L 128.100496 -171.072 
L 127.78314 -171.072 
L 127.465785 -171.072 
L 127.14843 -171.072 
L 126.831074 -171.072 
L 126.513719 -171.072 
L 126.196364 -171.072 
L 125.879008 -171.072 
L 125.561653 -171.072 
L 125.244298 -171.072 
L 124.926942 -171.072 
L 124.609587 -171.072 
L 124.292231 -171.072 
L 123.974876 -171.072 
L 123.657521 -171.072 
L 123.340165 -171.072 
L 123.02281 -171.072 
L 122.705455 -171.072 
L 122.388099 -171.072 
L 122.070744 -171.072 
L 121.753388 -171.072 
L 121.436033 -171.072 
L 121.118678 -171.072 
L 120.801322 -171.072 
L 120.483967 -171.072 
L 120.166612 -171.072 
L 119.849256 -171.072 
L 119.531901 -171.072 
L 119.214545 -171.072 
L 118.89719 -171.072 
L 118.579835 -171.072 
L 118.262479 -171.072 
L 117.945124 -171.072 
L 117.627769 -171.072 
L 117.310413 -171.072 
L 116.993058 -171.072 
L 116.675702 -171.072 
L 116.358347 -171.072 
L 116.040992 -171.072 
L 115.723636 -171.072 
L 115.406281 -171.072 
L 115.088926 -171.072 
L 114.77157 -171.072 
L 114.454215 -171.072 
L 114.13686 -171.072 
L 113.819504 -171.072 
L 113.502149 -171.072 
L 113.184793 -171.072 
L 112.867438 -171.072 
L 112.550083 -171.072 
L 112.232727 -171.072 
L 111.915372 -171.072 
L 111.598017 -171.072 
L 111.280661 -171.072 
L 110.963306 -171.072 
L 110.64595 -171.072 
L 110.328595 -171.072 
L 110.01124 -171.072 
L 109.693884 -171.072 
L 109.376529 -171.072 
L 109.059174 -171.072 
L 108.741818 -171.072 
L 108.424463 -171.072 
L 108.107107 -171.072 
L 107.789752 -171.072 
L 107.472397 -171.072 
L 107.155041 -171.072 
L 106.837686 -171.072 
L 106.520331 -171.072 
L 106.202975 -171.072 
L 105.88562 -171.072 
L 105.568264 -171.072 
L 105.250909 -171.072 
L 104.933554 -171.072 
L 104.616198 -171.072 
L 104.298843 -171.072 
L 103.981488 -171.072 
L 103.664132 -171.072 
L 103.346777 -171.072 
L 103.029421 -171.072 
L 102.712066 -171.072 
L 102.394711 -171.072 
L 102.077355 -171.072 
L 101.76 -171.072 
L 101.442645 -171.072 
L 101.125289 -171.072 
L 100.807934 -171.072 
L 100.490579 -171.072 
L 100.173223 -171.072 
L 99.855868 -171.072 
L 99.538512 -171.072 
L 99.221157 -171.072 
L 98.903802 -171.072 
L 98.586446 -171.072 
L 98.269091 -171.072 
L 97.951736 -171.072 
L 97.63438 -171.072 
L 97.317025 -171.072 
L 96.999669 -171.072 
L 96.682314 -171.072 
L 96.364959 -171.072 
L 96.047603 -171.072 
L 95.730248 -171.072 
L 95.412893 -171.072 
L 95.095537 -171.072 
L 94.778182 -171.072 
L 94.460826 -171.072 
L 94.143471 -171.072 
L 93.826116 -171.072 
L 93.50876 -171.072 
L 93.191405 -171.072 
L 92.87405 -171.072 
L 92.556694 -171.072 
L 92.239339 -171.072 
L 91.921983 -171.072 
L 91.604628 -171.072 
L 91.287273 -171.072 
L 90.969917 -171.072 
L 90.652562 -171.072 
L 90.335207 -171.072 
L 90.017851 -171.072 
L 89.700496 -171.072 
L 89.38314 -171.072 
L 89.065785 -171.072 
L 88.74843 -171.072 
L 88.431074 -171.072 
L 88.113719 -171.072 
L 87.796364 -171.072 
L 87.479008 -171.072 
L 87.161653 -171.072 
L 86.844298 -171.072 
L 86.526942 -171.072 
L 86.209587 -171.072 
L 85.892231 -171.072 
L 85.574876 -171.072 
L 85.257521 -171.072 
L 84.940165 -171.072 
L 84.62281 -171.072 
L 84.305455 -171.072 
L 83.988099 -171.072 
L 83.670744 -171.072 
L 83.353388 -171.072 
L 83.036033 -171.072 
L 82.718678 -171.072 
L 82.401322 -171.072 
L 82.083967 -171.072 
L 81.766612 -171.072 
L 81.449256 -171.072 
L 81.131901 -171.072 
L 80.814545 -171.072 
L 80.49719 -171.072 
L 80.179835 -171.072 
L 79.862479 -171.072 
L 79.545124 -171.072 
L 79.227769 -171.072 
L 78.910413 -171.072 
L 78.593058 -171.072 
L 78.275702 -171.072 
L 77.958347 -171.072 
L 77.640992 -171.072 
L 77.323636 -171.072 
L 77.006281 -171.072 
L 76.688926 -171.072 
L 76.37157 -171.072 
L 76.054215 -171.072 
L 75.73686 -171.072 
L 75.419504 -171.072 
L 75.102149 -171.072 
L 74.784793 -171.072 
L 74.467438 -171.072 
L 74.150083 -171.072 
L 73.832727 -171.072 
z
" style="stroke: #87ceeb; stroke-opacity: 0.75"/>
    </defs>
    <g clip-path="url(#p104cd911b8)">
     <use xlink:href="#m10092dd084" x="0" y="345.6" style="fill: #87ceeb; fill-opacity: 0.75; stroke: #87ceeb; stroke-opacity: 0.75"/>
    </g>
   </g>
   <g id="matplotlib.axis_1">
    <g id="xtick_1">
     <g id="line2d_1">
      <defs>
       <path id="m3641b76fdc" d="M 0 0 
L 0 3.5 
" style="stroke: #000000; stroke-width: 0.8"/>
      </defs>
      <g>
       <use xlink:href="#m3641b76fdc" x="73.832727" y="307.584" style="stroke: #000000; stroke-width: 0.8"/>
      </g>
     </g>
     <g id="text_1">
      <!-- 0 -->
      <g transform="translate(70.531868 322.161969) scale(0.11 -0.11)">
       <defs>
        <path id="AndaleMono-30" d="M 1913 4494 
Q 2613 4494 2989 3892 
Q 3366 3291 3366 2203 
Q 3366 1150 3000 533 
Q 2634 -84 1913 -84 
Q 1216 -84 837 516 
Q 459 1116 459 2203 
Q 459 3259 826 3876 
Q 1194 4494 1913 4494 
z
M 1913 366 
Q 2375 366 2598 805 
Q 2822 1244 2822 2203 
Q 2822 3166 2598 3602 
Q 2375 4038 1913 4038 
Q 1456 4038 1231 3591 
Q 1006 3144 1006 2203 
Q 1006 1250 1229 808 
Q 1453 366 1913 366 
z
M 1900 2672 
Q 2097 2672 2233 2536 
Q 2369 2400 2369 2203 
Q 2369 2000 2231 1854 
Q 2094 1709 1900 1709 
Q 1709 1709 1573 1854 
Q 1438 2000 1438 2203 
Q 1438 2403 1570 2537 
Q 1703 2672 1900 2672 
z
" transform="scale(0.015625)"/>
       </defs>
       <use xlink:href="#AndaleMono-30"/>
      </g>
     </g>
    </g>
    <g id="xtick_2">
     <g id="line2d_2">
      <g>
       <use xlink:href="#m3641b76fdc" x="137.303802" y="307.584" style="stroke: #000000; stroke-width: 0.8"/>
      </g>
     </g>
     <g id="text_2">
      <!-- 200 -->
      <g transform="translate(127.401224 322.161969) scale(0.11 -0.11)">
       <defs>
        <path id="AndaleMono-32" d="M 3066 0 
L 641 0 
L 641 372 
Q 1563 1400 1838 1750 
Q 2113 2100 2284 2484 
Q 2456 2869 2456 3250 
Q 2456 3619 2232 3831 
Q 2009 4044 1606 4044 
Q 1297 4044 775 3853 
L 703 4294 
Q 1175 4494 1691 4494 
Q 2281 4494 2642 4161 
Q 3003 3828 3003 3272 
Q 3003 2875 2817 2484 
Q 2631 2094 2340 1734 
Q 2050 1375 1209 447 
L 3066 447 
L 3066 0 
z
" transform="scale(0.015625)"/>
       </defs>
       <use xlink:href="#AndaleMono-32"/>
       <use xlink:href="#AndaleMono-30" x="60.009766"/>
       <use xlink:href="#AndaleMono-30" x="120.019531"/>
      </g>
     </g>
    </g>
    <g id="xtick_3">
     <g id="line2d_3">
      <g>
       <use xlink:href="#m3641b76fdc" x="200.774876" y="307.584" style="stroke: #000000; stroke-width: 0.8"/>
      </g>
     </g>
     <g id="text_3">
      <!-- 400 -->
      <g transform="translate(190.872298 322.161969) scale(0.11 -0.11)">
       <defs>
        <path id="AndaleMono-34" d="M 3353 1019 
L 2809 1019 
L 2809 0 
L 2297 0 
L 2297 1019 
L 378 1019 
L 378 1409 
L 2119 4409 
L 2809 4409 
L 2809 1466 
L 3353 1466 
L 3353 1019 
z
M 2297 1466 
L 2297 3903 
L 897 1466 
L 2297 1466 
z
" transform="scale(0.015625)"/>
       </defs>
       <use xlink:href="#AndaleMono-34"/>
       <use xlink:href="#AndaleMono-30" x="60.009766"/>
       <use xlink:href="#AndaleMono-30" x="120.019531"/>
      </g>
     </g>
    </g>
    <g id="xtick_4">
     <g id="line2d_4">
      <g>
       <use xlink:href="#m3641b76fdc" x="264.24595" y="307.584" style="stroke: #000000; stroke-width: 0.8"/>
      </g>
     </g>
     <g id="text_4">
      <!-- 600 -->
      <g transform="translate(254.343372 322.161969) scale(0.11 -0.11)">
       <defs>
        <path id="AndaleMono-36" d="M 1131 2297 
Q 1544 2631 2028 2631 
Q 2588 2631 2961 2273 
Q 3334 1916 3334 1350 
Q 3334 728 3003 322 
Q 2672 -84 2119 -84 
Q 1413 -84 1000 564 
Q 588 1213 588 2150 
Q 588 3150 1017 3822 
Q 1447 4494 2194 4494 
Q 2709 4494 3084 4341 
L 3003 3884 
Q 2569 4044 2209 4044 
Q 1700 4044 1415 3556 
Q 1131 3069 1131 2297 
z
M 1147 1856 
Q 1147 1291 1412 828 
Q 1678 366 2081 366 
Q 2422 366 2606 616 
Q 2791 866 2791 1306 
Q 2791 1713 2587 1947 
Q 2384 2181 2016 2181 
Q 1538 2181 1147 1856 
z
" transform="scale(0.015625)"/>
       </defs>
       <use xlink:href="#AndaleMono-36"/>
       <use xlink:href="#AndaleMono-30" x="60.009766"/>
       <use xlink:href="#AndaleMono-30" x="120.019531"/>
      </g>
     </g>
    </g>
    <g id="xtick_5">
     <g id="line2d_5">
      <g>
       <use xlink:href="#m3641b76fdc" x="327.717025" y="307.584" style="stroke: #000000; stroke-width: 0.8"/>
      </g>
     </g>
     <g id="text_5">
      <!-- 800 -->
      <g transform="translate(317.814447 322.161969) scale(0.11 -0.11)">
       <defs>
        <path id="AndaleMono-38" d="M 2363 2419 
Q 2813 2288 3061 1972 
Q 3309 1656 3309 1234 
Q 3309 628 2907 272 
Q 2506 -84 1919 -84 
Q 1303 -84 908 275 
Q 513 634 513 1228 
Q 513 1647 769 1965 
Q 1025 2284 1484 2419 
Q 1119 2513 898 2780 
Q 678 3047 678 3378 
Q 678 3803 1015 4148 
Q 1353 4494 1906 4494 
Q 2453 4494 2811 4150 
Q 3169 3806 3169 3378 
Q 3169 3056 2944 2786 
Q 2719 2516 2363 2419 
z
M 1906 2631 
Q 1922 2631 2056 2668 
Q 2191 2706 2286 2761 
Q 2381 2816 2462 2900 
Q 2544 2984 2594 3098 
Q 2644 3213 2644 3353 
Q 2644 3653 2428 3851 
Q 2213 4050 1906 4050 
Q 1609 4050 1396 3847 
Q 1184 3644 1184 3353 
Q 1184 3169 1261 3031 
Q 1338 2894 1452 2809 
Q 1566 2725 1714 2678 
Q 1863 2631 1906 2631 
z
M 1906 2194 
Q 1050 1944 1050 1253 
Q 1050 850 1309 608 
Q 1569 366 1919 366 
Q 2281 366 2529 605 
Q 2778 844 2778 1253 
Q 2778 1563 2606 1808 
Q 2434 2053 1906 2194 
z
" transform="scale(0.015625)"/>
       </defs>
       <use xlink:href="#AndaleMono-38"/>
       <use xlink:href="#AndaleMono-30" x="60.009766"/>
       <use xlink:href="#AndaleMono-30" x="120.019531"/>
      </g>
     </g>
    </g>
    <g id="xtick_6">
     <g id="line2d_6">
      <g>
       <use xlink:href="#m3641b76fdc" x="391.188099" y="307.584" style="stroke: #000000; stroke-width: 0.8"/>
      </g>
     </g>
     <g id="text_6">
      <!-- 1000 -->
      <g transform="translate(377.984662 322.161969) scale(0.11 -0.11)">
       <defs>
        <path id="AndaleMono-31" d="M 3181 0 
L 863 0 
L 863 447 
L 1797 447 
L 1797 3872 
L 916 3431 
L 916 3944 
L 1869 4434 
L 2309 4434 
L 2309 447 
L 3181 447 
L 3181 0 
z
" transform="scale(0.015625)"/>
       </defs>
       <use xlink:href="#AndaleMono-31"/>
       <use xlink:href="#AndaleMono-30" x="60.009766"/>
       <use xlink:href="#AndaleMono-30" x="120.019531"/>
       <use xlink:href="#AndaleMono-30" x="180.029297"/>
      </g>
     </g>
    </g>
   </g>
   <g id="matplotlib.axis_2">
    <g id="ytick_1">
     <g id="line2d_7">
      <defs>
       <path id="mec42e7965b" d="M 0 0 
L -3.5 0 
" style="stroke: #000000; stroke-width: 0.8"/>
      </defs>
      <g>
       <use xlink:href="#mec42e7965b" x="57.6" y="295.488" style="stroke: #000000; stroke-width: 0.8"/>
      </g>
     </g>
     <g id="text_7">
      <!-- 1.00 -->
      <g transform="translate(17.591406 299.276984) scale(0.11 -0.11)">
       <defs>
        <path id="AndaleMono-2212" d="M 3397 2047 
L 441 2047 
L 441 2456 
L 3397 2456 
L 3397 2047 
z
" transform="scale(0.015625)"/>
        <path id="AndaleMono-2e" d="M 1900 716 
Q 2066 716 2178 603 
Q 2291 491 2291 325 
Q 2291 156 2177 36 
Q 2063 -84 1900 -84 
Q 1741 -84 1628 36 
Q 1516 156 1516 325 
Q 1516 494 1627 605 
Q 1738 716 1900 716 
z
" transform="scale(0.015625)"/>
       </defs>
       <use xlink:href="#AndaleMono-2212"/>
       <use xlink:href="#AndaleMono-31" x="60.009766"/>
       <use xlink:href="#AndaleMono-2e" x="120.019531"/>
       <use xlink:href="#AndaleMono-30" x="180.029297"/>
       <use xlink:href="#AndaleMono-30" x="240.039062"/>
      </g>
     </g>
    </g>
    <g id="ytick_2">
     <g id="line2d_8">
      <g>
       <use xlink:href="#mec42e7965b" x="57.6" y="265.248" style="stroke: #000000; stroke-width: 0.8"/>
      </g>
     </g>
     <g id="text_8">
      <!-- 0.75 -->
      <g transform="translate(17.591406 269.036984) scale(0.11 -0.11)">
       <defs>
        <path id="AndaleMono-37" d="M 3238 4044 
L 1491 0 
L 966 0 
L 2688 3963 
L 622 3963 
L 622 4409 
L 3238 4409 
L 3238 4044 
z
" transform="scale(0.015625)"/>
        <path id="AndaleMono-35" d="M 1356 2631 
Q 1569 2688 1772 2688 
Q 2397 2688 2759 2305 
Q 3122 1922 3122 1350 
Q 3122 750 2700 333 
Q 2278 -84 1672 -84 
Q 1094 -84 703 109 
L 806 544 
Q 1231 366 1684 366 
Q 2088 366 2336 625 
Q 2584 884 2584 1350 
Q 2584 1791 2350 2028 
Q 2116 2266 1747 2266 
Q 1478 2266 1216 2163 
L 909 2303 
L 909 4409 
L 2925 4409 
L 2925 3963 
L 1356 3963 
L 1356 2631 
z
" transform="scale(0.015625)"/>
       </defs>
       <use xlink:href="#AndaleMono-2212"/>
       <use xlink:href="#AndaleMono-30" x="60.009766"/>
       <use xlink:href="#AndaleMono-2e" x="120.019531"/>
       <use xlink:href="#AndaleMono-37" x="180.029297"/>
       <use xlink:href="#AndaleMono-35" x="240.039062"/>
      </g>
     </g>
    </g>
    <g id="ytick_3">
     <g id="line2d_9">
      <g>
       <use xlink:href="#mec42e7965b" x="57.6" y="235.008" style="stroke: #000000; stroke-width: 0.8"/>
      </g>
     </g>
     <g id="text_9">
      <!-- 0.50 -->
      <g transform="translate(17.591406 238.796984) scale(0.11 -0.11)">
       <use xlink:href="#AndaleMono-2212"/>
       <use xlink:href="#AndaleMono-30" x="60.009766"/>
       <use xlink:href="#AndaleMono-2e" x="120.019531"/>
       <use xlink:href="#AndaleMono-35" x="180.029297"/>
       <use xlink:href="#AndaleMono-30" x="240.039062"/>
      </g>
     </g>
    </g>
    <g id="ytick_4">
     <g id="line2d_10">
      <g>
       <use xlink:href="#mec42e7965b" x="57.6" y="204.768" style="stroke: #000000; stroke-width: 0.8"/>
      </g>
     </g>
     <g id="text_10">
      <!-- 0.25 -->
      <g transform="translate(17.591406 208.556984) scale(0.11 -0.11)">
       <use xlink:href="#AndaleMono-2212"/>
       <use xlink:href="#AndaleMono-30" x="60.009766"/>
       <use xlink:href="#AndaleMono-2e" x="120.019531"/>
       <use xlink:href="#AndaleMono-32" x="180.029297"/>
       <use xlink:href="#AndaleMono-35" x="240.039062"/>
      </g>
     </g>
    </g>
    <g id="ytick_5">
     <g id="line2d_11">
      <g>
       <use xlink:href="#mec42e7965b" x="57.6" y="174.528" style="stroke: #000000; stroke-width: 0.8"/>
      </g>
     </g>
     <g id="text_11">
      <!-- 0.00 -->
      <g transform="translate(24.193125 178.316984) scale(0.11 -0.11)">
       <use xlink:href="#AndaleMono-30"/>
       <use xlink:href="#AndaleMono-2e" x="60.009766"/>
       <use xlink:href="#AndaleMono-30" x="120.019531"/>
       <use xlink:href="#AndaleMono-30" x="180.029297"/>
      </g>
     </g>
    </g>
    <g id="ytick_6">
     <g id="line2d_12">
      <g>
       <use xlink:href="#mec42e7965b" x="57.6" y="144.288" style="stroke: #000000; stroke-width: 0.8"/>
      </g>
     </g>
     <g id="text_12">
      <!-- 0.25 -->
      <g transform="translate(24.193125 148.076984) scale(0.11 -0.11)">
       <use xlink:href="#AndaleMono-30"/>
       <use xlink:href="#AndaleMono-2e" x="60.009766"/>
       <use xlink:href="#AndaleMono-32" x="120.019531"/>
       <use xlink:href="#AndaleMono-35" x="180.029297"/>
      </g>
     </g>
    </g>
    <g id="ytick_7">
     <g id="line2d_13">
      <g>
       <use xlink:href="#mec42e7965b" x="57.6" y="114.048" style="stroke: #000000; stroke-width: 0.8"/>
      </g>
     </g>
     <g id="text_13">
      <!-- 0.50 -->
      <g transform="translate(24.193125 117.836984) scale(0.11 -0.11)">
       <use xlink:href="#AndaleMono-30"/>
       <use xlink:href="#AndaleMono-2e" x="60.009766"/>
       <use xlink:href="#AndaleMono-35" x="120.019531"/>
       <use xlink:href="#AndaleMono-30" x="180.029297"/>
      </g>
     </g>
    </g>
    <g id="ytick_8">
     <g id="line2d_14">
      <g>
       <use xlink:href="#mec42e7965b" x="57.6" y="83.808" style="stroke: #000000; stroke-width: 0.8"/>
      </g>
     </g>
     <g id="text_14">
      <!-- 0.75 -->
      <g transform="translate(24.193125 87.596984) scale(0.11 -0.11)">
       <use xlink:href="#AndaleMono-30"/>
       <use xlink:href="#AndaleMono-2e" x="60.009766"/>
       <use xlink:href="#AndaleMono-37" x="120.019531"/>
       <use xlink:href="#AndaleMono-35" x="180.029297"/>
      </g>
     </g>
    </g>
    <g id="ytick_9">
     <g id="line2d_15">
      <g>
       <use xlink:href="#mec42e7965b" x="57.6" y="53.568" style="stroke: #000000; stroke-width: 0.8"/>
      </g>
     </g>
     <g id="text_15">
      <!-- 1.00 -->
      <g transform="translate(24.193125 57.356984) scale(0.11 -0.11)">
       <use xlink:href="#AndaleMono-31"/>
       <use xlink:href="#AndaleMono-2e" x="60.009766"/>
       <use xlink:href="#AndaleMono-30" x="120.019531"/>
       <use xlink:href="#AndaleMono-30" x="180.029297"/>
      </g>
     </g>
    </g>
   </g>
   <g id="line2d_16">
    <path d="M 73.832727 174.528 
L 74.150083 153.56656 
L 76.688926 149.433503 
L 77.958347 147.720043 
L 79.545124 145.9765 
L 81.766612 143.780699 
L 83.670744 141.575371 
L 83.988099 141.138494 
L 86.209587 141.524165 
L 86.844298 141.427586 
L 87.796364 140.972887 
L 88.431074 140.413555 
L 89.065785 139.600595 
L 89.700496 138.54883 
L 90.652562 136.478663 
L 91.604628 133.856203 
L 92.87405 129.602311 
L 94.460826 123.333188 
L 99.855868 100.671111 
L 101.125289 96.288781 
L 102.394711 92.856499 
L 103.346777 90.876019 
L 104.298843 89.462593 
L 105.250909 88.585337 
L 105.88562 88.299183 
L 106.520331 88.319615 
L 107.155041 88.597927 
L 107.789752 89.164438 
L 108.424463 90.079856 
L 109.059174 91.293924 
L 110.01124 93.735422 
L 110.963306 96.87677 
L 112.232727 102.059944 
L 113.502149 108.144013 
L 115.723636 120.170139 
L 118.579835 135.811229 
L 120.166612 143.529171 
L 121.753388 150.119872 
L 123.02281 154.492706 
L 124.292231 158.142027 
L 125.561653 161.079033 
L 127.14843 164.034907 
L 128.417851 165.927625 
L 130.004628 167.793984 
L 131.591405 169.238701 
L 132.860826 170.142145 
L 134.447603 170.998011 
L 136.03438 171.60094 
L 137.938512 172.031666 
L 140.477355 172.365403 
L 143.650909 172.549699 
L 148.41124 172.552955 
L 154.440992 172.262738 
L 157.29719 171.833386 
L 159.836033 171.234863 
L 165.231074 169.598386 
L 169.356694 168.376067 
L 180.781488 165.723131 
L 187.128595 164.564269 
L 187.763306 164.595095 
L 189.667438 165.563804 
L 190.93686 166.473355 
L 191.254215 166.507731 
L 191.57157 166.396121 
L 192.206281 165.798976 
L 192.840992 164.796923 
L 193.475702 163.408258 
L 194.110413 161.556876 
L 194.745124 159.15926 
L 195.69719 154.608192 
L 196.649256 149.029979 
L 197.918678 140.272708 
L 199.505455 127.963514 
L 204.900496 84.098222 
L 206.169917 76.429511 
L 207.121983 71.988916 
L 209.343471 64.038993 
L 210.295537 60.939091 
L 211.882314 55.471328 
L 212.517025 54.381565 
L 213.151736 53.786721 
L 213.786446 53.568 
L 214.421157 53.690585 
L 214.738512 53.943433 
L 215.055868 54.340564 
L 215.690579 55.682561 
L 216.642645 58.413515 
L 217.594711 62.075336 
L 219.181488 69.52572 
L 220.450909 76.825322 
L 221.720331 85.054654 
L 224.259174 103.377009 
L 225.84595 114.592506 
L 227.115372 122.439533 
L 229.33686 133.657141 
L 230.923636 141.986556 
L 241.713719 208.899254 
L 243.300496 216.984928 
L 246.156694 232.396655 
L 247.743471 243.310697 
L 250.599669 264.001346 
L 252.186446 274.193197 
L 253.455868 281.10227 
L 255.042645 288.317821 
L 255.994711 291.65679 
L 256.946777 294.122754 
L 257.581488 295.112567 
L 257.898843 295.365415 
L 258.533554 295.488 
L 259.168264 295.269279 
L 259.48562 295.048342 
L 260.120331 294.198282 
L 260.755041 292.785309 
L 261.389752 290.582708 
L 262.341818 286.991456 
L 264.24595 280.515742 
L 265.198017 277.067084 
L 266.150083 272.626489 
L 267.419504 264.957778 
L 268.688926 255.528636 
L 270.910413 237.193518 
L 274.083967 211.115966 
L 275.670744 200.026021 
L 276.62281 194.447808 
L 277.574876 189.89674 
L 278.526942 186.517961 
L 279.161653 184.906896 
L 279.796364 183.702929 
L 280.431074 182.902828 
L 281.065785 182.548269 
L 281.38314 182.582645 
L 282.017851 183.013035 
L 283.287273 183.83741 
L 285.191405 184.491731 
L 290.903802 183.45502 
L 295.664132 182.443778 
L 306.13686 179.75936 
L 313.118678 177.653315 
L 315.974876 177.053041 
L 318.831074 176.712883 
L 324.860826 176.478338 
L 329.303802 176.529417 
L 332.477355 176.751546 
L 334.698843 177.084133 
L 336.602975 177.555097 
L 338.189752 178.204528 
L 339.776529 179.124173 
L 341.04595 180.074017 
L 342.315372 181.262016 
L 343.902149 183.128375 
L 345.17157 185.021093 
L 346.440992 187.33778 
L 347.710413 190.123765 
L 348.979835 193.576001 
L 350.249256 197.776703 
L 351.518678 202.748744 
L 353.105455 210.027248 
L 355.326942 221.757965 
L 358.817851 240.911987 
L 360.404628 248.395168 
L 361.67405 253.296165 
L 362.626116 256.223753 
L 363.578182 258.424085 
L 364.530248 259.891562 
L 365.482314 260.651002 
L 366.117025 260.790355 
L 366.751736 260.622634 
L 367.386446 260.236403 
L 368.338512 259.204878 
L 369.290579 257.597911 
L 370.56 254.560135 
L 371.512066 251.721837 
L 373.098843 245.973461 
L 375.002975 238.052822 
L 379.44595 219.417464 
L 380.715372 215.129619 
L 381.667438 212.488654 
L 382.619504 210.407377 
L 383.57157 208.915345 
L 384.206281 208.242827 
L 384.840992 207.786039 
L 385.793058 207.485137 
L 386.745124 207.514909 
L 388.649256 208.061864 
L 390.553388 205.856536 
L 393.409587 202.993694 
L 394.996364 201.085046 
L 396.58314 198.782607 
L 398.169917 196.070675 
L 398.487273 174.528 
L 398.487273 174.528 
" clip-path="url(#p104cd911b8)" style="fill: none; stroke: #87ceeb; stroke-opacity: 0.75; stroke-linecap: square"/>
   </g>
   <g id="patch_3">
    <path d="M 57.6 307.584 
L 57.6 41.472 
" style="fill: none; stroke: #000000; stroke-width: 0.8; stroke-linejoin: miter; stroke-linecap: square"/>
   </g>
   <g id="patch_4">
    <path d="M 414.72 307.584 
L 414.72 41.472 
" style="fill: none; stroke: #000000; stroke-width: 0.8; stroke-linejoin: miter; stroke-linecap: square"/>
   </g>
   <g id="patch_5">
    <path d="M 57.6 307.584 
L 414.72 307.584 
" style="fill: none; stroke: #000000; stroke-width: 0.8; stroke-linejoin: miter; stroke-linecap: square"/>
   </g>
   <g id="patch_6">
    <path d="M 57.6 41.472 
L 414.72 41.472 
" style="fill: none; stroke: #000000; stroke-width: 0.8; stroke-linejoin: miter; stroke-linecap: square"/>
   </g>
  </g>
 </g>
 <defs>
  <clipPath id="p104cd911b8">
   <rect x="57.6" y="41.472" width="357.12" height="266.112"/>
  </clipPath>
 </defs>
</svg>
