<?xml version="1.0" encoding="utf-8" standalone="no"?>
<!DOCTYPE svg PUBLIC "-//W3C//DTD SVG 1.1//EN"
  "http://www.w3.org/Graphics/SVG/1.1/DTD/svg11.dtd">
<svg xmlns:xlink="http://www.w3.org/1999/xlink" width="460.8pt" height="345.6pt" viewBox="0 0 460.8 345.6" xmlns="http://www.w3.org/2000/svg" version="1.1">
 <metadata>
  <rdf:RDF xmlns:dc="http://purl.org/dc/elements/1.1/" xmlns:cc="http://creativecommons.org/ns#" xmlns:rdf="http://www.w3.org/1999/02/22-rdf-syntax-ns#">
   <cc:Work>
    <dc:type rdf:resource="http://purl.org/dc/dcmitype/StillImage"/>
    <dc:date>2024-04-23T11:13:05.325616</dc:date>
    <dc:format>image/svg+xml</dc:format>
    <dc:creator>
     <cc:Agent>
      <dc:title>Matplotlib v3.8.3, https://matplotlib.org/</dc:title>
     </cc:Agent>
    </dc:creator>
   </cc:Work>
  </rdf:RDF>
 </metadata>
 <defs>
  <style type="text/css">*{stroke-linejoin: round; stroke-linecap: butt}</style>
 </defs>
 <g id="figure_1">
  <g id="patch_1">
   <path d="M 0 345.6 
L 460.8 345.6 
L 460.8 0 
L 0 0 
z
" style="fill: #ffffff"/>
  </g>
  <g id="axes_1">
   <g id="patch_2">
    <path d="M 57.6 307.584 
L 414.72 307.584 
L 414.72 41.472 
L 57.6 41.472 
z
" style="fill: #ffffff"/>
   </g>
   <g id="PolyCollection_1">
    <defs>
     <path id="m92533d0638" d="M 73.832727 -171.072 
L 73.832727 -171.072 
L 74.150083 -171.23053 
L 74.467438 -171.235671 
L 74.784793 -171.240593 
L 75.102149 -171.245313 
L 75.419504 -171.249815 
L 75.73686 -171.254185 
L 76.054215 -171.258354 
L 76.37157 -171.261491 
L 76.688926 -171.204908 
L 77.006281 -171.090277 
L 77.323636 -170.960685 
L 77.640992 -170.844629 
L 77.958347 -170.749469 
L 78.275702 -170.67964 
L 78.593058 -170.635911 
L 78.910413 -170.608994 
L 79.227769 -170.578373 
L 79.545124 -170.568938 
L 79.862479 -170.587773 
L 80.179835 -170.624499 
L 80.49719 -170.689688 
L 80.814545 -170.774668 
L 81.131901 -170.888124 
L 81.449256 -171.012815 
L 81.766612 -171.152521 
L 82.083967 -171.309717 
L 82.401322 -171.485534 
L 82.718678 -171.681816 
L 83.036033 -171.905851 
L 83.353388 -172.153143 
L 83.670744 -172.426063 
L 83.988099 -172.713633 
L 84.305455 -173.020437 
L 84.62281 -173.348551 
L 84.940165 -173.700481 
L 85.257521 -174.078729 
L 85.574876 -174.476938 
L 85.892231 -174.897023 
L 86.209587 -175.321287 
L 86.526942 -175.754057 
L 86.844298 -176.208829 
L 87.161653 -176.683223 
L 87.479008 -177.169244 
L 87.796364 -177.667887 
L 88.113719 -178.184563 
L 88.431074 -178.712297 
L 88.74843 -179.246295 
L 89.065785 -179.793882 
L 89.38314 -180.351274 
L 89.700496 -180.915762 
L 90.017851 -181.478682 
L 90.335207 -182.039847 
L 90.652562 -182.605834 
L 90.969917 -183.171724 
L 91.287273 -183.735585 
L 91.604628 -184.297623 
L 91.921983 -184.847529 
L 92.239339 -185.391358 
L 92.556694 -185.925493 
L 92.87405 -186.446944 
L 93.191405 -186.954155 
L 93.50876 -187.444489 
L 93.826116 -187.919173 
L 94.143471 -188.37195 
L 94.460826 -188.79789 
L 94.778182 -189.198857 
L 95.095537 -189.576104 
L 95.412893 -189.921767 
L 95.730248 -190.235574 
L 96.047603 -190.517792 
L 96.364959 -190.764045 
L 96.682314 -190.975361 
L 96.999669 -191.271902 
L 97.317025 -191.675755 
L 97.63438 -192.10509 
L 97.951736 -192.516172 
L 98.269091 -192.894201 
L 98.586446 -193.229159 
L 98.903802 -193.520693 
L 99.221157 -193.784147 
L 99.538512 -194.066243 
L 99.855868 -194.321514 
L 100.173223 -194.533289 
L 100.490579 -194.727678 
L 100.807934 -194.88238 
L 101.125289 -195.009147 
L 101.442645 -195.090473 
L 101.76 -195.16174 
L 102.077355 -195.222198 
L 102.394711 -195.268648 
L 102.712066 -195.297808 
L 103.029421 -195.30424 
L 103.346777 -195.269849 
L 103.664132 -195.20835 
L 103.981488 -195.115984 
L 104.298843 -195.013963 
L 104.616198 -194.879421 
L 104.933554 -194.715507 
L 105.250909 -194.521788 
L 105.568264 -194.289498 
L 105.88562 -194.038633 
L 106.202975 -193.759077 
L 106.520331 -193.49051 
L 106.837686 -193.218618 
L 107.155041 -192.920668 
L 107.472397 -192.603536 
L 107.789752 -192.286001 
L 108.107107 -191.963676 
L 108.424463 -191.609795 
L 108.741818 -191.240929 
L 109.059174 -190.864044 
L 109.376529 -190.481594 
L 109.693884 -190.09622 
L 110.01124 -189.703029 
L 110.328595 -189.312761 
L 110.64595 -188.928091 
L 110.963306 -188.541364 
L 111.280661 -188.167608 
L 111.598017 -187.815622 
L 111.915372 -187.468635 
L 112.232727 -187.138598 
L 112.550083 -186.797087 
L 112.867438 -186.458566 
L 113.184793 -186.162578 
L 113.502149 -185.900471 
L 113.819504 -185.663971 
L 114.13686 -185.449907 
L 114.454215 -185.268153 
L 114.77157 -185.13415 
L 115.088926 -185.048151 
L 115.406281 -185.019239 
L 115.723636 -185.054657 
L 116.040992 -185.120769 
L 116.358347 -185.215401 
L 116.675702 -185.345381 
L 116.993058 -185.542175 
L 117.310413 -185.755841 
L 117.627769 -185.939765 
L 117.945124 -186.139018 
L 118.262479 -186.374659 
L 118.579835 -186.648169 
L 118.89719 -186.984542 
L 119.214545 -187.393491 
L 119.531901 -187.866842 
L 119.849256 -188.337683 
L 120.166612 -188.82485 
L 120.483967 -189.337846 
L 120.801322 -189.876022 
L 121.118678 -190.487288 
L 121.436033 -191.150447 
L 121.753388 -191.861181 
L 122.070744 -192.605356 
L 122.388099 -193.373403 
L 122.705455 -194.165707 
L 123.02281 -195.003089 
L 123.340165 -195.903368 
L 123.657521 -196.875808 
L 123.974876 -197.873534 
L 124.292231 -198.887429 
L 124.609587 -199.903922 
L 124.926942 -200.932373 
L 125.244298 -202.026606 
L 125.561653 -203.184145 
L 125.879008 -204.388181 
L 126.196364 -205.606071 
L 126.513719 -206.856405 
L 126.831074 -208.103893 
L 127.14843 -209.378649 
L 127.465785 -210.696169 
L 127.78314 -212.062187 
L 128.100496 -213.438751 
L 128.417851 -214.811267 
L 128.735207 -216.204788 
L 129.052562 -217.605445 
L 129.369917 -219.009937 
L 129.687273 -220.436436 
L 130.004628 -221.874492 
L 130.321983 -223.320858 
L 130.639339 -224.774018 
L 130.956694 -226.224969 
L 131.27405 -227.670906 
L 131.591405 -229.100529 
L 131.90876 -230.509742 
L 132.226116 -231.93842 
L 132.543471 -233.362982 
L 132.860826 -234.803371 
L 133.178182 -236.24174 
L 133.495537 -237.585407 
L 133.812893 -238.885565 
L 134.130248 -240.212924 
L 134.447603 -241.54245 
L 134.764959 -242.85573 
L 135.082314 -244.126756 
L 135.399669 -245.350698 
L 135.717025 -246.505571 
L 136.03438 -247.613034 
L 136.351736 -248.759676 
L 136.669091 -249.956612 
L 136.986446 -251.182842 
L 137.303802 -252.372322 
L 137.621157 -253.484318 
L 137.938512 -254.543854 
L 138.255868 -255.578998 
L 138.573223 -256.63169 
L 138.890579 -257.691656 
L 139.207934 -258.710312 
L 139.525289 -259.634151 
L 139.842645 -260.472052 
L 140.16 -261.313674 
L 140.477355 -262.1746 
L 140.794711 -263.091541 
L 141.112066 -264.036144 
L 141.429421 -264.905216 
L 141.746777 -265.721825 
L 142.064132 -266.49928 
L 142.381488 -267.215657 
L 142.698843 -267.932831 
L 143.016198 -268.678792 
L 143.333554 -269.396443 
L 143.650909 -270.038183 
L 143.968264 -270.587918 
L 144.28562 -271.120454 
L 144.602975 -271.66551 
L 144.920331 -272.247 
L 145.237686 -272.909944 
L 145.555041 -273.534899 
L 145.872397 -274.094033 
L 146.189752 -274.621361 
L 146.507107 -275.120132 
L 146.824463 -275.573987 
L 147.141818 -276.055529 
L 147.459174 -276.552642 
L 147.776529 -277.025222 
L 148.093884 -277.418911 
L 148.41124 -277.761571 
L 148.728595 -278.095479 
L 149.04595 -278.435722 
L 149.363306 -278.804174 
L 149.680661 -279.241445 
L 149.998017 -279.643667 
L 150.315372 -280.010405 
L 150.632727 -280.352903 
L 150.950083 -280.651356 
L 151.267438 -280.924826 
L 151.584793 -281.226012 
L 151.902149 -281.551224 
L 152.219504 -281.863903 
L 152.53686 -282.104102 
L 152.854215 -282.302361 
L 153.17157 -282.500208 
L 153.488926 -282.717192 
L 153.806281 -283.053887 
L 154.123636 -283.470057 
L 154.440992 -283.823344 
L 154.758347 -284.1505 
L 155.075702 -284.468596 
L 155.393058 -284.792568 
L 155.710413 -285.127002 
L 156.027769 -285.534277 
L 156.345124 -285.982649 
L 156.662479 -286.380931 
L 156.979835 -286.687056 
L 157.29719 -286.92806 
L 157.614545 -287.159327 
L 157.931901 -287.436685 
L 158.249256 -287.793481 
L 158.566612 -288.209857 
L 158.883967 -288.543815 
L 159.201322 -288.807137 
L 159.518678 -289.025476 
L 159.836033 -289.24862 
L 160.153388 -289.517386 
L 160.470744 -289.813748 
L 160.788099 -290.096023 
L 161.105455 -290.281781 
L 161.42281 -290.361208 
L 161.740165 -290.432561 
L 162.057521 -290.511163 
L 162.374876 -290.636146 
L 162.692231 -290.868118 
L 163.009587 -291.094765 
L 163.326942 -291.238117 
L 163.644298 -291.352598 
L 163.961653 -291.466742 
L 164.279008 -291.609401 
L 164.596364 -291.752441 
L 164.913719 -291.900988 
L 165.231074 -292.023347 
L 165.54843 -292.032 
L 165.865785 -291.985061 
L 166.18314 -291.917816 
L 166.500496 -291.84266 
L 166.817851 -291.818859 
L 167.135207 -291.881905 
L 167.452562 -291.915904 
L 167.769917 -291.852131 
L 168.087273 -291.734602 
L 168.404628 -291.616539 
L 168.721983 -291.550937 
L 169.039339 -291.534613 
L 169.356694 -291.525459 
L 169.67405 -291.47937 
L 169.991405 -291.301264 
L 170.30876 -291.097637 
L 170.626116 -290.900857 
L 170.943471 -290.734346 
L 171.260826 -290.669202 
L 171.578182 -290.685441 
L 171.895537 -290.657546 
L 172.212893 -290.573556 
L 172.530248 -290.455327 
L 172.847603 -290.355702 
L 173.164959 -290.338836 
L 173.482314 -290.377055 
L 173.799669 -290.426302 
L 174.117025 -290.410277 
L 174.43438 -290.282225 
L 174.751736 -290.154187 
L 175.069091 -290.031914 
L 175.386446 -289.942716 
L 175.703802 -289.936342 
L 176.021157 -289.993412 
L 176.338512 -290.005887 
L 176.655868 -289.958129 
L 176.973223 -289.889548 
L 177.290579 -289.85114 
L 177.607934 -289.868842 
L 177.925289 -289.939885 
L 178.242645 -290.01529 
L 178.56 -290.031626 
L 178.877355 -289.927651 
L 179.194711 -289.820616 
L 179.512066 -289.746846 
L 179.829421 -289.7407 
L 180.146777 -289.849441 
L 180.464132 -289.959493 
L 180.781488 -289.969646 
L 181.098843 -289.926938 
L 181.416198 -289.884124 
L 181.733554 -289.920821 
L 182.050909 -290.026908 
L 182.368264 -290.150457 
L 182.68562 -290.219431 
L 183.002975 -290.160509 
L 183.320331 -290.03823 
L 183.637686 -289.928854 
L 183.955041 -289.827127 
L 184.272397 -289.776223 
L 184.589752 -289.754357 
L 184.907107 -289.720466 
L 185.224463 -289.613541 
L 185.541818 -289.426387 
L 185.859174 -289.239905 
L 186.176529 -289.118499 
L 186.493884 -289.059758 
L 186.81124 -289.007846 
L 187.128595 -288.899043 
L 187.44595 -288.673733 
L 187.763306 -288.39944 
L 188.080661 -288.184049 
L 188.398017 -288.041336 
L 188.715372 -287.994501 
L 189.032727 -287.932457 
L 189.350083 -287.790376 
L 189.667438 -287.595317 
L 189.984793 -287.379951 
L 190.302149 -287.23312 
L 190.619504 -287.146758 
L 190.93686 -287.10364 
L 191.254215 -287.040986 
L 191.57157 -286.868327 
L 191.888926 -286.591805 
L 192.206281 -286.319985 
L 192.523636 -286.087161 
L 192.840992 -285.948287 
L 193.158347 -285.915958 
L 193.475702 -285.849093 
L 193.793058 -285.683835 
L 194.110413 -285.461809 
L 194.427769 -285.228822 
L 194.745124 -285.062664 
L 195.062479 -284.952486 
L 195.379835 -284.890008 
L 195.69719 -284.804766 
L 196.014545 -284.595983 
L 196.331901 -284.299166 
L 196.649256 -283.985854 
L 196.966612 -283.708205 
L 197.283967 -283.494499 
L 197.601322 -283.328227 
L 197.918678 -283.13674 
L 198.236033 -282.851999 
L 198.553388 -282.508809 
L 198.870744 -282.164387 
L 199.188099 -281.890845 
L 199.505455 -281.684872 
L 199.82281 -281.485131 
L 200.140165 -281.229294 
L 200.457521 -280.836187 
L 200.774876 -280.396542 
L 201.092231 -280.020513 
L 201.409587 -279.710405 
L 201.726942 -279.478154 
L 202.044298 -279.207259 
L 202.361653 -278.83309 
L 202.679008 -278.407599 
L 202.996364 -277.982141 
L 203.313719 -277.618185 
L 203.631074 -277.325928 
L 203.94843 -277.055841 
L 204.265785 -276.766991 
L 204.58314 -276.389505 
L 204.900496 -275.952882 
L 205.217851 -275.521505 
L 205.535207 -275.154069 
L 205.852562 -274.902299 
L 206.169917 -274.702732 
L 206.487273 -274.438615 
L 206.804628 -274.098646 
L 207.121983 -273.73949 
L 207.439339 -273.403389 
L 207.756694 -273.142894 
L 208.07405 -272.940997 
L 208.391405 -272.726951 
L 208.70876 -272.453193 
L 209.026116 -272.064307 
L 209.343471 -271.64024 
L 209.660826 -271.241478 
L 209.978182 -270.88621 
L 210.295537 -270.57842 
L 210.612893 -270.265952 
L 210.930248 -269.889408 
L 211.247603 -269.428601 
L 211.564959 -268.95068 
L 211.882314 -268.516832 
L 212.199669 -268.139372 
L 212.517025 -267.771793 
L 212.83438 -267.386468 
L 213.151736 -266.923673 
L 213.469091 -266.333538 
L 213.786446 -265.698108 
L 214.103802 -265.093536 
L 214.421157 -264.52398 
L 214.738512 -263.978445 
L 215.055868 -263.411135 
L 215.373223 -262.781514 
L 215.690579 -262.066085 
L 216.007934 -261.328865 
L 216.325289 -260.645372 
L 216.642645 -260.002922 
L 216.96 -259.383449 
L 217.277355 -258.745143 
L 217.594711 -258.032377 
L 217.912066 -257.235861 
L 218.229421 -256.414362 
L 218.546777 -255.638224 
L 218.864132 -254.903765 
L 219.181488 -254.171194 
L 219.498843 -253.393527 
L 219.816198 -252.5277 
L 220.133554 -251.609896 
L 220.450909 -250.695379 
L 220.768264 -249.827723 
L 221.08562 -248.981919 
L 221.402975 -248.106167 
L 221.720331 -247.149226 
L 222.037686 -246.070503 
L 222.355041 -244.95198 
L 222.672397 -243.864024 
L 222.989752 -242.797308 
L 223.307107 -241.732884 
L 223.624463 -240.617766 
L 223.941818 -239.406867 
L 224.259174 -238.123998 
L 224.576529 -236.813484 
L 224.893884 -235.530309 
L 225.21124 -234.266724 
L 225.528595 -232.986117 
L 225.84595 -231.64611 
L 226.163306 -230.179143 
L 226.480661 -228.614572 
L 226.798017 -227.045844 
L 227.115372 -225.499955 
L 227.432727 -223.957015 
L 227.750083 -222.383803 
L 228.067438 -220.734407 
L 228.384793 -219.000773 
L 228.702149 -217.206245 
L 229.019504 -215.40176 
L 229.33686 -213.632591 
L 229.654215 -211.876506 
L 229.97157 -210.105764 
L 230.288926 -208.271575 
L 230.606281 -206.341774 
L 230.923636 -204.356975 
L 231.240992 -202.383798 
L 231.558347 -200.451246 
L 231.875702 -198.531409 
L 232.193058 -196.585636 
L 232.510413 -194.579129 
L 232.827769 -192.519818 
L 233.145124 -190.441233 
L 233.462479 -188.381654 
L 233.779835 -186.372641 
L 234.09719 -184.391704 
L 234.414545 -182.394581 
L 234.731901 -180.346529 
L 235.049256 -178.252163 
L 235.366612 -176.151963 
L 235.683967 -174.083807 
L 236.001322 -172.068003 
L 236.318678 -170.075997 
L 236.636033 -168.060193 
L 236.953388 -165.992037 
L 237.270744 -163.891837 
L 237.588099 -161.797471 
L 237.905455 -159.749419 
L 238.22281 -157.752296 
L 238.540165 -155.771359 
L 238.857521 -153.762346 
L 239.174876 -151.702767 
L 239.492231 -149.624182 
L 239.809587 -147.564871 
L 240.126942 -145.558364 
L 240.444298 -143.612591 
L 240.761653 -141.692754 
L 241.079008 -139.760202 
L 241.396364 -137.787025 
L 241.713719 -135.802226 
L 242.031074 -133.872425 
L 242.34843 -132.038236 
L 242.665785 -130.267494 
L 242.98314 -128.511409 
L 243.300496 -126.74224 
L 243.617851 -124.937755 
L 243.935207 -123.143227 
L 244.252562 -121.409593 
L 244.569917 -119.760197 
L 244.887273 -118.186985 
L 245.204628 -116.644045 
L 245.521983 -115.098156 
L 245.839339 -113.529428 
L 246.156694 -111.964857 
L 246.47405 -110.49789 
L 246.791405 -109.157883 
L 247.10876 -107.877276 
L 247.426116 -106.613691 
L 247.743471 -105.330516 
L 248.060826 -104.020002 
L 248.378182 -102.737133 
L 248.695537 -101.526234 
L 249.012893 -100.411116 
L 249.330248 -99.346692 
L 249.647603 -98.279976 
L 249.964959 -97.19202 
L 250.282314 -96.073497 
L 250.599669 -94.994774 
L 250.917025 -94.037833 
L 251.23438 -93.162081 
L 251.551736 -92.316277 
L 251.869091 -91.448621 
L 252.186446 -90.534104 
L 252.503802 -89.6163 
L 252.821157 -88.750473 
L 253.138512 -87.972806 
L 253.455868 -87.240235 
L 253.773223 -86.505776 
L 254.090579 -85.729638 
L 254.407934 -84.908139 
L 254.725289 -84.111623 
L 255.042645 -83.398857 
L 255.36 -82.760551 
L 255.677355 -82.141078 
L 255.994711 -81.498628 
L 256.312066 -80.815135 
L 256.629421 -80.077915 
L 256.946777 -79.362486 
L 257.264132 -78.732865 
L 257.581488 -78.165555 
L 257.898843 -77.62002 
L 258.216198 -77.050464 
L 258.533554 -76.445892 
L 258.850909 -75.810462 
L 259.168264 -75.220327 
L 259.48562 -74.757532 
L 259.802975 -74.372207 
L 260.120331 -74.004628 
L 260.437686 -73.627168 
L 260.755041 -73.19332 
L 261.072397 -72.715399 
L 261.389752 -72.254592 
L 261.707107 -71.878048 
L 262.024463 -71.56558 
L 262.341818 -71.25779 
L 262.659174 -70.902522 
L 262.976529 -70.50376 
L 263.293884 -70.079693 
L 263.61124 -69.690807 
L 263.928595 -69.417049 
L 264.24595 -69.203003 
L 264.563306 -69.001106 
L 264.880661 -68.740611 
L 265.198017 -68.40451 
L 265.515372 -68.045354 
L 265.832727 -67.705385 
L 266.150083 -67.441268 
L 266.467438 -67.241701 
L 266.784793 -66.989931 
L 267.102149 -66.622495 
L 267.419504 -66.191118 
L 267.73686 -65.754495 
L 268.054215 -65.377009 
L 268.37157 -65.088159 
L 268.688926 -64.818072 
L 269.006281 -64.525815 
L 269.323636 -64.161859 
L 269.640992 -63.736401 
L 269.958347 -63.31091 
L 270.275702 -62.936741 
L 270.593058 -62.665846 
L 270.910413 -62.433595 
L 271.227769 -62.123487 
L 271.545124 -61.747458 
L 271.862479 -61.307813 
L 272.179835 -60.914706 
L 272.49719 -60.658869 
L 272.814545 -60.459128 
L 273.131901 -60.253155 
L 273.449256 -59.979613 
L 273.766612 -59.635191 
L 274.083967 -59.292001 
L 274.401322 -59.00726 
L 274.718678 -58.815773 
L 275.036033 -58.649501 
L 275.353388 -58.435795 
L 275.670744 -58.158146 
L 275.988099 -57.844834 
L 276.305455 -57.548017 
L 276.62281 -57.339234 
L 276.940165 -57.253992 
L 277.257521 -57.191514 
L 277.574876 -57.081336 
L 277.892231 -56.915178 
L 278.209587 -56.682191 
L 278.526942 -56.460165 
L 278.844298 -56.294907 
L 279.161653 -56.228042 
L 279.479008 -56.195713 
L 279.796364 -56.056839 
L 280.113719 -55.824015 
L 280.431074 -55.552195 
L 280.74843 -55.275673 
L 281.065785 -55.103014 
L 281.38314 -55.04036 
L 281.700496 -54.997242 
L 282.017851 -54.91088 
L 282.335207 -54.764049 
L 282.652562 -54.548683 
L 282.969917 -54.353624 
L 283.287273 -54.211543 
L 283.604628 -54.149499 
L 283.921983 -54.102664 
L 284.239339 -53.959951 
L 284.556694 -53.74456 
L 284.87405 -53.470267 
L 285.191405 -53.244957 
L 285.50876 -53.136154 
L 285.826116 -53.084242 
L 286.143471 -53.025501 
L 286.460826 -52.904095 
L 286.778182 -52.717613 
L 287.095537 -52.530459 
L 287.412893 -52.423534 
L 287.730248 -52.389643 
L 288.047603 -52.367777 
L 288.364959 -52.316873 
L 288.682314 -52.215146 
L 288.999669 -52.10577 
L 289.317025 -51.983491 
L 289.63438 -51.924569 
L 289.951736 -51.993543 
L 290.269091 -52.117092 
L 290.586446 -52.223179 
L 290.903802 -52.259876 
L 291.221157 -52.217062 
L 291.538512 -52.174354 
L 291.855868 -52.184507 
L 292.173223 -52.294559 
L 292.490579 -52.4033 
L 292.807934 -52.397154 
L 293.125289 -52.323384 
L 293.442645 -52.216349 
L 293.76 -52.112374 
L 294.077355 -52.12871 
L 294.394711 -52.204115 
L 294.712066 -52.275158 
L 295.029421 -52.29286 
L 295.346777 -52.254452 
L 295.664132 -52.185871 
L 295.981488 -52.138113 
L 296.298843 -52.150588 
L 296.616198 -52.207658 
L 296.933554 -52.201284 
L 297.250909 -52.112086 
L 297.568264 -51.989813 
L 297.88562 -51.861775 
L 298.202975 -51.733723 
L 298.520331 -51.717698 
L 298.837686 -51.766945 
L 299.155041 -51.805164 
L 299.472397 -51.788298 
L 299.789752 -51.688673 
L 300.107107 -51.570444 
L 300.424463 -51.486454 
L 300.741818 -51.458559 
L 301.059174 -51.474798 
L 301.376529 -51.409654 
L 301.693884 -51.243143 
L 302.01124 -51.046363 
L 302.328595 -50.842736 
L 302.64595 -50.66463 
L 302.963306 -50.618541 
L 303.280661 -50.609387 
L 303.598017 -50.593063 
L 303.915372 -50.527461 
L 304.232727 -50.409398 
L 304.550083 -50.291869 
L 304.867438 -50.228096 
L 305.184793 -50.262095 
L 305.502149 -50.325141 
L 305.819504 -50.30134 
L 306.13686 -50.226184 
L 306.454215 -50.158939 
L 306.77157 -50.112 
L 307.088926 -50.120653 
L 307.406281 -50.243012 
L 307.723636 -50.391559 
L 308.040992 -50.534599 
L 308.358347 -50.677258 
L 308.675702 -50.791402 
L 308.993058 -50.905883 
L 309.310413 -51.049235 
L 309.627769 -51.275882 
L 309.945124 -51.507854 
L 310.262479 -51.632837 
L 310.579835 -51.711439 
L 310.89719 -51.782792 
L 311.214545 -51.862219 
L 311.531901 -52.047977 
L 311.849256 -52.330252 
L 312.166612 -52.626614 
L 312.483967 -52.89538 
L 312.801322 -53.118524 
L 313.118678 -53.336863 
L 313.436033 -53.600185 
L 313.753388 -53.934143 
L 314.070744 -54.350519 
L 314.388099 -54.707315 
L 314.705455 -54.984673 
L 315.02281 -55.21594 
L 315.340165 -55.456944 
L 315.657521 -55.763069 
L 315.974876 -56.161351 
L 316.292231 -56.609723 
L 316.609587 -57.016998 
L 316.926942 -57.351432 
L 317.244298 -57.675404 
L 317.561653 -57.9935 
L 317.879008 -58.320656 
L 318.196364 -58.673943 
L 318.513719 -59.090113 
L 318.831074 -59.426808 
L 319.14843 -59.643792 
L 319.465785 -59.841639 
L 319.78314 -60.039898 
L 320.100496 -60.280097 
L 320.417851 -60.592776 
L 320.735207 -60.917988 
L 321.052562 -61.219174 
L 321.369917 -61.492644 
L 321.687273 -61.791097 
L 322.004628 -62.133595 
L 322.321983 -62.500333 
L 322.639339 -62.902555 
L 322.956694 -63.339826 
L 323.27405 -63.708278 
L 323.591405 -64.048521 
L 323.90876 -64.382429 
L 324.226116 -64.725089 
L 324.543471 -65.118778 
L 324.860826 -65.591358 
L 325.178182 -66.088471 
L 325.495537 -66.570013 
L 325.812893 -67.023868 
L 326.130248 -67.522639 
L 326.447603 -68.049967 
L 326.764959 -68.609101 
L 327.082314 -69.234056 
L 327.399669 -69.897 
L 327.717025 -70.47849 
L 328.03438 -71.023546 
L 328.351736 -71.556082 
L 328.669091 -72.105817 
L 328.986446 -72.747557 
L 329.303802 -73.465208 
L 329.621157 -74.211169 
L 329.938512 -74.928343 
L 330.255868 -75.64472 
L 330.573223 -76.422175 
L 330.890579 -77.238784 
L 331.207934 -78.107856 
L 331.525289 -79.052459 
L 331.842645 -79.9694 
L 332.16 -80.830326 
L 332.477355 -81.671948 
L 332.794711 -82.509849 
L 333.112066 -83.433688 
L 333.429421 -84.452344 
L 333.746777 -85.51231 
L 334.064132 -86.565002 
L 334.381488 -87.600146 
L 334.698843 -88.659682 
L 335.016198 -89.771678 
L 335.333554 -90.961158 
L 335.650909 -92.187388 
L 335.968264 -93.384324 
L 336.28562 -94.530966 
L 336.602975 -95.638429 
L 336.920331 -96.793302 
L 337.237686 -98.017244 
L 337.555041 -99.28827 
L 337.872397 -100.60155 
L 338.189752 -101.931076 
L 338.507107 -103.258435 
L 338.824463 -104.558593 
L 339.141818 -105.90226 
L 339.459174 -107.340629 
L 339.776529 -108.781018 
L 340.093884 -110.20558 
L 340.41124 -111.634258 
L 340.728595 -113.043471 
L 341.04595 -114.473094 
L 341.363306 -115.919031 
L 341.680661 -117.369982 
L 341.998017 -118.823142 
L 342.315372 -120.269508 
L 342.632727 -121.707564 
L 342.950083 -123.134063 
L 343.267438 -124.538555 
L 343.584793 -125.939212 
L 343.902149 -127.332733 
L 344.219504 -128.705249 
L 344.53686 -130.081813 
L 344.854215 -131.447831 
L 345.17157 -132.765351 
L 345.488926 -134.040107 
L 345.806281 -135.287595 
L 346.123636 -136.537929 
L 346.440992 -137.755819 
L 346.758347 -138.959855 
L 347.075702 -140.117394 
L 347.393058 -141.211627 
L 347.710413 -142.240078 
L 348.027769 -143.256571 
L 348.345124 -144.270466 
L 348.662479 -145.268192 
L 348.979835 -146.240632 
L 349.29719 -147.140911 
L 349.614545 -147.978293 
L 349.931901 -148.770597 
L 350.249256 -149.538644 
L 350.566612 -150.282819 
L 350.883967 -150.993553 
L 351.201322 -151.656712 
L 351.518678 -152.267978 
L 351.836033 -152.806154 
L 352.153388 -153.31915 
L 352.470744 -153.806317 
L 352.788099 -154.277158 
L 353.105455 -154.750509 
L 353.42281 -155.159458 
L 353.740165 -155.495831 
L 354.057521 -155.769341 
L 354.374876 -156.004982 
L 354.692231 -156.204235 
L 355.009587 -156.388159 
L 355.326942 -156.601825 
L 355.644298 -156.798619 
L 355.961653 -156.928599 
L 356.279008 -157.023231 
L 356.596364 -157.089343 
L 356.913719 -157.124761 
L 357.231074 -157.095849 
L 357.54843 -157.00985 
L 357.865785 -156.875847 
L 358.18314 -156.694093 
L 358.500496 -156.480029 
L 358.817851 -156.243529 
L 359.135207 -155.981422 
L 359.452562 -155.685434 
L 359.769917 -155.346913 
L 360.087273 -155.005402 
L 360.404628 -154.675365 
L 360.721983 -154.328378 
L 361.039339 -153.976392 
L 361.356694 -153.602636 
L 361.67405 -153.215909 
L 361.991405 -152.831239 
L 362.30876 -152.440971 
L 362.626116 -152.04778 
L 362.943471 -151.662406 
L 363.260826 -151.279956 
L 363.578182 -150.903071 
L 363.895537 -150.534205 
L 364.212893 -150.180324 
L 364.530248 -149.857999 
L 364.847603 -149.540464 
L 365.164959 -149.223332 
L 365.482314 -148.925382 
L 365.799669 -148.65349 
L 366.117025 -148.384923 
L 366.43438 -148.105367 
L 366.751736 -147.854502 
L 367.069091 -147.622212 
L 367.386446 -147.428493 
L 367.703802 -147.264579 
L 368.021157 -147.130037 
L 368.338512 -147.028016 
L 368.655868 -146.93565 
L 368.973223 -146.874151 
L 369.290579 -146.83976 
L 369.607934 -146.846192 
L 369.925289 -146.875352 
L 370.242645 -146.921802 
L 370.56 -146.98226 
L 370.877355 -147.053527 
L 371.194711 -147.134853 
L 371.512066 -147.26162 
L 371.829421 -147.416322 
L 372.146777 -147.610711 
L 372.464132 -147.822486 
L 372.781488 -148.077757 
L 373.098843 -148.359853 
L 373.416198 -148.623307 
L 373.733554 -148.914841 
L 374.050909 -149.249799 
L 374.368264 -149.627828 
L 374.68562 -150.03891 
L 375.002975 -150.468245 
L 375.320331 -150.872098 
L 375.637686 -151.168639 
L 375.955041 -151.379955 
L 376.272397 -151.626208 
L 376.589752 -151.908426 
L 376.907107 -152.222233 
L 377.224463 -152.567896 
L 377.541818 -152.945143 
L 377.859174 -153.34611 
L 378.176529 -153.77205 
L 378.493884 -154.224818 
L 378.81124 -154.699483 
L 379.128595 -155.189793 
L 379.44595 -155.696977 
L 379.763306 -156.218396 
L 380.080661 -156.752498 
L 380.398017 -157.29629 
L 380.715372 -157.846158 
L 381.032727 -158.408156 
L 381.350083 -158.971976 
L 381.667438 -159.537825 
L 381.984793 -160.10377 
L 382.302149 -160.664893 
L 382.619504 -161.227772 
L 382.93686 -161.792219 
L 383.254215 -162.349572 
L 383.57157 -162.897122 
L 383.888926 -163.431084 
L 384.206281 -163.958785 
L 384.523636 -164.475432 
L 384.840992 -164.974049 
L 385.158347 -165.460048 
L 385.475702 -165.934423 
L 385.793058 -166.389182 
L 386.110413 -166.821943 
L 386.427769 -167.246205 
L 386.745124 -167.666292 
L 387.062479 -168.06451 
L 387.379835 -168.442775 
L 387.69719 -168.794728 
L 388.014545 -169.122873 
L 388.331901 -169.429716 
L 388.649256 -169.712663 
L 388.966612 -169.985582 
L 389.283967 -170.232875 
L 389.601322 -170.45691 
L 389.918678 -170.653192 
L 390.236033 -170.829008 
L 390.553388 -170.986204 
L 390.870744 -171.12591 
L 391.188099 -171.250601 
L 391.505455 -171.364058 
L 391.82281 -171.449037 
L 392.140165 -171.514226 
L 392.457521 -171.550953 
L 392.774876 -171.569787 
L 393.092231 -171.560352 
L 393.409587 -171.529731 
L 393.726942 -171.502814 
L 394.044298 -171.459085 
L 394.361653 -171.389256 
L 394.679008 -171.294096 
L 394.996364 -171.17804 
L 395.313719 -171.048448 
L 395.631074 -170.933817 
L 395.94843 -170.877234 
L 396.265785 -170.880372 
L 396.58314 -170.884541 
L 396.900496 -170.88891 
L 397.217851 -170.893413 
L 397.535207 -170.898132 
L 397.852562 -170.903054 
L 398.169917 -170.908195 
L 398.487273 -171.072 
L 398.487273 -171.072 
L 398.487273 -171.072 
L 398.169917 -171.072 
L 397.852562 -171.072 
L 397.535207 -171.072 
L 397.217851 -171.072 
L 396.900496 -171.072 
L 396.58314 -171.072 
L 396.265785 -171.072 
L 395.94843 -171.072 
L 395.631074 -171.072 
L 395.313719 -171.072 
L 394.996364 -171.072 
L 394.679008 -171.072 
L 394.361653 -171.072 
L 394.044298 -171.072 
L 393.726942 -171.072 
L 393.409587 -171.072 
L 393.092231 -171.072 
L 392.774876 -171.072 
L 392.457521 -171.072 
L 392.140165 -171.072 
L 391.82281 -171.072 
L 391.505455 -171.072 
L 391.188099 -171.072 
L 390.870744 -171.072 
L 390.553388 -171.072 
L 390.236033 -171.072 
L 389.918678 -171.072 
L 389.601322 -171.072 
L 389.283967 -171.072 
L 388.966612 -171.072 
L 388.649256 -171.072 
L 388.331901 -171.072 
L 388.014545 -171.072 
L 387.69719 -171.072 
L 387.379835 -171.072 
L 387.062479 -171.072 
L 386.745124 -171.072 
L 386.427769 -171.072 
L 386.110413 -171.072 
L 385.793058 -171.072 
L 385.475702 -171.072 
L 385.158347 -171.072 
L 384.840992 -171.072 
L 384.523636 -171.072 
L 384.206281 -171.072 
L 383.888926 -171.072 
L 383.57157 -171.072 
L 383.254215 -171.072 
L 382.93686 -171.072 
L 382.619504 -171.072 
L 382.302149 -171.072 
L 381.984793 -171.072 
L 381.667438 -171.072 
L 381.350083 -171.072 
L 381.032727 -171.072 
L 380.715372 -171.072 
L 380.398017 -171.072 
L 380.080661 -171.072 
L 379.763306 -171.072 
L 379.44595 -171.072 
L 379.128595 -171.072 
L 378.81124 -171.072 
L 378.493884 -171.072 
L 378.176529 -171.072 
L 377.859174 -171.072 
L 377.541818 -171.072 
L 377.224463 -171.072 
L 376.907107 -171.072 
L 376.589752 -171.072 
L 376.272397 -171.072 
L 375.955041 -171.072 
L 375.637686 -171.072 
L 375.320331 -171.072 
L 375.002975 -171.072 
L 374.68562 -171.072 
L 374.368264 -171.072 
L 374.050909 -171.072 
L 373.733554 -171.072 
L 373.416198 -171.072 
L 373.098843 -171.072 
L 372.781488 -171.072 
L 372.464132 -171.072 
L 372.146777 -171.072 
L 371.829421 -171.072 
L 371.512066 -171.072 
L 371.194711 -171.072 
L 370.877355 -171.072 
L 370.56 -171.072 
L 370.242645 -171.072 
L 369.925289 -171.072 
L 369.607934 -171.072 
L 369.290579 -171.072 
L 368.973223 -171.072 
L 368.655868 -171.072 
L 368.338512 -171.072 
L 368.021157 -171.072 
L 367.703802 -171.072 
L 367.386446 -171.072 
L 367.069091 -171.072 
L 366.751736 -171.072 
L 366.43438 -171.072 
L 366.117025 -171.072 
L 365.799669 -171.072 
L 365.482314 -171.072 
L 365.164959 -171.072 
L 364.847603 -171.072 
L 364.530248 -171.072 
L 364.212893 -171.072 
L 363.895537 -171.072 
L 363.578182 -171.072 
L 363.260826 -171.072 
L 362.943471 -171.072 
L 362.626116 -171.072 
L 362.30876 -171.072 
L 361.991405 -171.072 
L 361.67405 -171.072 
L 361.356694 -171.072 
L 361.039339 -171.072 
L 360.721983 -171.072 
L 360.404628 -171.072 
L 360.087273 -171.072 
L 359.769917 -171.072 
L 359.452562 -171.072 
L 359.135207 -171.072 
L 358.817851 -171.072 
L 358.500496 -171.072 
L 358.18314 -171.072 
L 357.865785 -171.072 
L 357.54843 -171.072 
L 357.231074 -171.072 
L 356.913719 -171.072 
L 356.596364 -171.072 
L 356.279008 -171.072 
L 355.961653 -171.072 
L 355.644298 -171.072 
L 355.326942 -171.072 
L 355.009587 -171.072 
L 354.692231 -171.072 
L 354.374876 -171.072 
L 354.057521 -171.072 
L 353.740165 -171.072 
L 353.42281 -171.072 
L 353.105455 -171.072 
L 352.788099 -171.072 
L 352.470744 -171.072 
L 352.153388 -171.072 
L 351.836033 -171.072 
L 351.518678 -171.072 
L 351.201322 -171.072 
L 350.883967 -171.072 
L 350.566612 -171.072 
L 350.249256 -171.072 
L 349.931901 -171.072 
L 349.614545 -171.072 
L 349.29719 -171.072 
L 348.979835 -171.072 
L 348.662479 -171.072 
L 348.345124 -171.072 
L 348.027769 -171.072 
L 347.710413 -171.072 
L 347.393058 -171.072 
L 347.075702 -171.072 
L 346.758347 -171.072 
L 346.440992 -171.072 
L 346.123636 -171.072 
L 345.806281 -171.072 
L 345.488926 -171.072 
L 345.17157 -171.072 
L 344.854215 -171.072 
L 344.53686 -171.072 
L 344.219504 -171.072 
L 343.902149 -171.072 
L 343.584793 -171.072 
L 343.267438 -171.072 
L 342.950083 -171.072 
L 342.632727 -171.072 
L 342.315372 -171.072 
L 341.998017 -171.072 
L 341.680661 -171.072 
L 341.363306 -171.072 
L 341.04595 -171.072 
L 340.728595 -171.072 
L 340.41124 -171.072 
L 340.093884 -171.072 
L 339.776529 -171.072 
L 339.459174 -171.072 
L 339.141818 -171.072 
L 338.824463 -171.072 
L 338.507107 -171.072 
L 338.189752 -171.072 
L 337.872397 -171.072 
L 337.555041 -171.072 
L 337.237686 -171.072 
L 336.920331 -171.072 
L 336.602975 -171.072 
L 336.28562 -171.072 
L 335.968264 -171.072 
L 335.650909 -171.072 
L 335.333554 -171.072 
L 335.016198 -171.072 
L 334.698843 -171.072 
L 334.381488 -171.072 
L 334.064132 -171.072 
L 333.746777 -171.072 
L 333.429421 -171.072 
L 333.112066 -171.072 
L 332.794711 -171.072 
L 332.477355 -171.072 
L 332.16 -171.072 
L 331.842645 -171.072 
L 331.525289 -171.072 
L 331.207934 -171.072 
L 330.890579 -171.072 
L 330.573223 -171.072 
L 330.255868 -171.072 
L 329.938512 -171.072 
L 329.621157 -171.072 
L 329.303802 -171.072 
L 328.986446 -171.072 
L 328.669091 -171.072 
L 328.351736 -171.072 
L 328.03438 -171.072 
L 327.717025 -171.072 
L 327.399669 -171.072 
L 327.082314 -171.072 
L 326.764959 -171.072 
L 326.447603 -171.072 
L 326.130248 -171.072 
L 325.812893 -171.072 
L 325.495537 -171.072 
L 325.178182 -171.072 
L 324.860826 -171.072 
L 324.543471 -171.072 
L 324.226116 -171.072 
L 323.90876 -171.072 
L 323.591405 -171.072 
L 323.27405 -171.072 
L 322.956694 -171.072 
L 322.639339 -171.072 
L 322.321983 -171.072 
L 322.004628 -171.072 
L 321.687273 -171.072 
L 321.369917 -171.072 
L 321.052562 -171.072 
L 320.735207 -171.072 
L 320.417851 -171.072 
L 320.100496 -171.072 
L 319.78314 -171.072 
L 319.465785 -171.072 
L 319.14843 -171.072 
L 318.831074 -171.072 
L 318.513719 -171.072 
L 318.196364 -171.072 
L 317.879008 -171.072 
L 317.561653 -171.072 
L 317.244298 -171.072 
L 316.926942 -171.072 
L 316.609587 -171.072 
L 316.292231 -171.072 
L 315.974876 -171.072 
L 315.657521 -171.072 
L 315.340165 -171.072 
L 315.02281 -171.072 
L 314.705455 -171.072 
L 314.388099 -171.072 
L 314.070744 -171.072 
L 313.753388 -171.072 
L 313.436033 -171.072 
L 313.118678 -171.072 
L 312.801322 -171.072 
L 312.483967 -171.072 
L 312.166612 -171.072 
L 311.849256 -171.072 
L 311.531901 -171.072 
L 311.214545 -171.072 
L 310.89719 -171.072 
L 310.579835 -171.072 
L 310.262479 -171.072 
L 309.945124 -171.072 
L 309.627769 -171.072 
L 309.310413 -171.072 
L 308.993058 -171.072 
L 308.675702 -171.072 
L 308.358347 -171.072 
L 308.040992 -171.072 
L 307.723636 -171.072 
L 307.406281 -171.072 
L 307.088926 -171.072 
L 306.77157 -171.072 
L 306.454215 -171.072 
L 306.13686 -171.072 
L 305.819504 -171.072 
L 305.502149 -171.072 
L 305.184793 -171.072 
L 304.867438 -171.072 
L 304.550083 -171.072 
L 304.232727 -171.072 
L 303.915372 -171.072 
L 303.598017 -171.072 
L 303.280661 -171.072 
L 302.963306 -171.072 
L 302.64595 -171.072 
L 302.328595 -171.072 
L 302.01124 -171.072 
L 301.693884 -171.072 
L 301.376529 -171.072 
L 301.059174 -171.072 
L 300.741818 -171.072 
L 300.424463 -171.072 
L 300.107107 -171.072 
L 299.789752 -171.072 
L 299.472397 -171.072 
L 299.155041 -171.072 
L 298.837686 -171.072 
L 298.520331 -171.072 
L 298.202975 -171.072 
L 297.88562 -171.072 
L 297.568264 -171.072 
L 297.250909 -171.072 
L 296.933554 -171.072 
L 296.616198 -171.072 
L 296.298843 -171.072 
L 295.981488 -171.072 
L 295.664132 -171.072 
L 295.346777 -171.072 
L 295.029421 -171.072 
L 294.712066 -171.072 
L 294.394711 -171.072 
L 294.077355 -171.072 
L 293.76 -171.072 
L 293.442645 -171.072 
L 293.125289 -171.072 
L 292.807934 -171.072 
L 292.490579 -171.072 
L 292.173223 -171.072 
L 291.855868 -171.072 
L 291.538512 -171.072 
L 291.221157 -171.072 
L 290.903802 -171.072 
L 290.586446 -171.072 
L 290.269091 -171.072 
L 289.951736 -171.072 
L 289.63438 -171.072 
L 289.317025 -171.072 
L 288.999669 -171.072 
L 288.682314 -171.072 
L 288.364959 -171.072 
L 288.047603 -171.072 
L 287.730248 -171.072 
L 287.412893 -171.072 
L 287.095537 -171.072 
L 286.778182 -171.072 
L 286.460826 -171.072 
L 286.143471 -171.072 
L 285.826116 -171.072 
L 285.50876 -171.072 
L 285.191405 -171.072 
L 284.87405 -171.072 
L 284.556694 -171.072 
L 284.239339 -171.072 
L 283.921983 -171.072 
L 283.604628 -171.072 
L 283.287273 -171.072 
L 282.969917 -171.072 
L 282.652562 -171.072 
L 282.335207 -171.072 
L 282.017851 -171.072 
L 281.700496 -171.072 
L 281.38314 -171.072 
L 281.065785 -171.072 
L 280.74843 -171.072 
L 280.431074 -171.072 
L 280.113719 -171.072 
L 279.796364 -171.072 
L 279.479008 -171.072 
L 279.161653 -171.072 
L 278.844298 -171.072 
L 278.526942 -171.072 
L 278.209587 -171.072 
L 277.892231 -171.072 
L 277.574876 -171.072 
L 277.257521 -171.072 
L 276.940165 -171.072 
L 276.62281 -171.072 
L 276.305455 -171.072 
L 275.988099 -171.072 
L 275.670744 -171.072 
L 275.353388 -171.072 
L 275.036033 -171.072 
L 274.718678 -171.072 
L 274.401322 -171.072 
L 274.083967 -171.072 
L 273.766612 -171.072 
L 273.449256 -171.072 
L 273.131901 -171.072 
L 272.814545 -171.072 
L 272.49719 -171.072 
L 272.179835 -171.072 
L 271.862479 -171.072 
L 271.545124 -171.072 
L 271.227769 -171.072 
L 270.910413 -171.072 
L 270.593058 -171.072 
L 270.275702 -171.072 
L 269.958347 -171.072 
L 269.640992 -171.072 
L 269.323636 -171.072 
L 269.006281 -171.072 
L 268.688926 -171.072 
L 268.37157 -171.072 
L 268.054215 -171.072 
L 267.73686 -171.072 
L 267.419504 -171.072 
L 267.102149 -171.072 
L 266.784793 -171.072 
L 266.467438 -171.072 
L 266.150083 -171.072 
L 265.832727 -171.072 
L 265.515372 -171.072 
L 265.198017 -171.072 
L 264.880661 -171.072 
L 264.563306 -171.072 
L 264.24595 -171.072 
L 263.928595 -171.072 
L 263.61124 -171.072 
L 263.293884 -171.072 
L 262.976529 -171.072 
L 262.659174 -171.072 
L 262.341818 -171.072 
L 262.024463 -171.072 
L 261.707107 -171.072 
L 261.389752 -171.072 
L 261.072397 -171.072 
L 260.755041 -171.072 
L 260.437686 -171.072 
L 260.120331 -171.072 
L 259.802975 -171.072 
L 259.48562 -171.072 
L 259.168264 -171.072 
L 258.850909 -171.072 
L 258.533554 -171.072 
L 258.216198 -171.072 
L 257.898843 -171.072 
L 257.581488 -171.072 
L 257.264132 -171.072 
L 256.946777 -171.072 
L 256.629421 -171.072 
L 256.312066 -171.072 
L 255.994711 -171.072 
L 255.677355 -171.072 
L 255.36 -171.072 
L 255.042645 -171.072 
L 254.725289 -171.072 
L 254.407934 -171.072 
L 254.090579 -171.072 
L 253.773223 -171.072 
L 253.455868 -171.072 
L 253.138512 -171.072 
L 252.821157 -171.072 
L 252.503802 -171.072 
L 252.186446 -171.072 
L 251.869091 -171.072 
L 251.551736 -171.072 
L 251.23438 -171.072 
L 250.917025 -171.072 
L 250.599669 -171.072 
L 250.282314 -171.072 
L 249.964959 -171.072 
L 249.647603 -171.072 
L 249.330248 -171.072 
L 249.012893 -171.072 
L 248.695537 -171.072 
L 248.378182 -171.072 
L 248.060826 -171.072 
L 247.743471 -171.072 
L 247.426116 -171.072 
L 247.10876 -171.072 
L 246.791405 -171.072 
L 246.47405 -171.072 
L 246.156694 -171.072 
L 245.839339 -171.072 
L 245.521983 -171.072 
L 245.204628 -171.072 
L 244.887273 -171.072 
L 244.569917 -171.072 
L 244.252562 -171.072 
L 243.935207 -171.072 
L 243.617851 -171.072 
L 243.300496 -171.072 
L 242.98314 -171.072 
L 242.665785 -171.072 
L 242.34843 -171.072 
L 242.031074 -171.072 
L 241.713719 -171.072 
L 241.396364 -171.072 
L 241.079008 -171.072 
L 240.761653 -171.072 
L 240.444298 -171.072 
L 240.126942 -171.072 
L 239.809587 -171.072 
L 239.492231 -171.072 
L 239.174876 -171.072 
L 238.857521 -171.072 
L 238.540165 -171.072 
L 238.22281 -171.072 
L 237.905455 -171.072 
L 237.588099 -171.072 
L 237.270744 -171.072 
L 236.953388 -171.072 
L 236.636033 -171.072 
L 236.318678 -171.072 
L 236.001322 -171.072 
L 235.683967 -171.072 
L 235.366612 -171.072 
L 235.049256 -171.072 
L 234.731901 -171.072 
L 234.414545 -171.072 
L 234.09719 -171.072 
L 233.779835 -171.072 
L 233.462479 -171.072 
L 233.145124 -171.072 
L 232.827769 -171.072 
L 232.510413 -171.072 
L 232.193058 -171.072 
L 231.875702 -171.072 
L 231.558347 -171.072 
L 231.240992 -171.072 
L 230.923636 -171.072 
L 230.606281 -171.072 
L 230.288926 -171.072 
L 229.97157 -171.072 
L 229.654215 -171.072 
L 229.33686 -171.072 
L 229.019504 -171.072 
L 228.702149 -171.072 
L 228.384793 -171.072 
L 228.067438 -171.072 
L 227.750083 -171.072 
L 227.432727 -171.072 
L 227.115372 -171.072 
L 226.798017 -171.072 
L 226.480661 -171.072 
L 226.163306 -171.072 
L 225.84595 -171.072 
L 225.528595 -171.072 
L 225.21124 -171.072 
L 224.893884 -171.072 
L 224.576529 -171.072 
L 224.259174 -171.072 
L 223.941818 -171.072 
L 223.624463 -171.072 
L 223.307107 -171.072 
L 222.989752 -171.072 
L 222.672397 -171.072 
L 222.355041 -171.072 
L 222.037686 -171.072 
L 221.720331 -171.072 
L 221.402975 -171.072 
L 221.08562 -171.072 
L 220.768264 -171.072 
L 220.450909 -171.072 
L 220.133554 -171.072 
L 219.816198 -171.072 
L 219.498843 -171.072 
L 219.181488 -171.072 
L 218.864132 -171.072 
L 218.546777 -171.072 
L 218.229421 -171.072 
L 217.912066 -171.072 
L 217.594711 -171.072 
L 217.277355 -171.072 
L 216.96 -171.072 
L 216.642645 -171.072 
L 216.325289 -171.072 
L 216.007934 -171.072 
L 215.690579 -171.072 
L 215.373223 -171.072 
L 215.055868 -171.072 
L 214.738512 -171.072 
L 214.421157 -171.072 
L 214.103802 -171.072 
L 213.786446 -171.072 
L 213.469091 -171.072 
L 213.151736 -171.072 
L 212.83438 -171.072 
L 212.517025 -171.072 
L 212.199669 -171.072 
L 211.882314 -171.072 
L 211.564959 -171.072 
L 211.247603 -171.072 
L 210.930248 -171.072 
L 210.612893 -171.072 
L 210.295537 -171.072 
L 209.978182 -171.072 
L 209.660826 -171.072 
L 209.343471 -171.072 
L 209.026116 -171.072 
L 208.70876 -171.072 
L 208.391405 -171.072 
L 208.07405 -171.072 
L 207.756694 -171.072 
L 207.439339 -171.072 
L 207.121983 -171.072 
L 206.804628 -171.072 
L 206.487273 -171.072 
L 206.169917 -171.072 
L 205.852562 -171.072 
L 205.535207 -171.072 
L 205.217851 -171.072 
L 204.900496 -171.072 
L 204.58314 -171.072 
L 204.265785 -171.072 
L 203.94843 -171.072 
L 203.631074 -171.072 
L 203.313719 -171.072 
L 202.996364 -171.072 
L 202.679008 -171.072 
L 202.361653 -171.072 
L 202.044298 -171.072 
L 201.726942 -171.072 
L 201.409587 -171.072 
L 201.092231 -171.072 
L 200.774876 -171.072 
L 200.457521 -171.072 
L 200.140165 -171.072 
L 199.82281 -171.072 
L 199.505455 -171.072 
L 199.188099 -171.072 
L 198.870744 -171.072 
L 198.553388 -171.072 
L 198.236033 -171.072 
L 197.918678 -171.072 
L 197.601322 -171.072 
L 197.283967 -171.072 
L 196.966612 -171.072 
L 196.649256 -171.072 
L 196.331901 -171.072 
L 196.014545 -171.072 
L 195.69719 -171.072 
L 195.379835 -171.072 
L 195.062479 -171.072 
L 194.745124 -171.072 
L 194.427769 -171.072 
L 194.110413 -171.072 
L 193.793058 -171.072 
L 193.475702 -171.072 
L 193.158347 -171.072 
L 192.840992 -171.072 
L 192.523636 -171.072 
L 192.206281 -171.072 
L 191.888926 -171.072 
L 191.57157 -171.072 
L 191.254215 -171.072 
L 190.93686 -171.072 
L 190.619504 -171.072 
L 190.302149 -171.072 
L 189.984793 -171.072 
L 189.667438 -171.072 
L 189.350083 -171.072 
L 189.032727 -171.072 
L 188.715372 -171.072 
L 188.398017 -171.072 
L 188.080661 -171.072 
L 187.763306 -171.072 
L 187.44595 -171.072 
L 187.128595 -171.072 
L 186.81124 -171.072 
L 186.493884 -171.072 
L 186.176529 -171.072 
L 185.859174 -171.072 
L 185.541818 -171.072 
L 185.224463 -171.072 
L 184.907107 -171.072 
L 184.589752 -171.072 
L 184.272397 -171.072 
L 183.955041 -171.072 
L 183.637686 -171.072 
L 183.320331 -171.072 
L 183.002975 -171.072 
L 182.68562 -171.072 
L 182.368264 -171.072 
L 182.050909 -171.072 
L 181.733554 -171.072 
L 181.416198 -171.072 
L 181.098843 -171.072 
L 180.781488 -171.072 
L 180.464132 -171.072 
L 180.146777 -171.072 
L 179.829421 -171.072 
L 179.512066 -171.072 
L 179.194711 -171.072 
L 178.877355 -171.072 
L 178.56 -171.072 
L 178.242645 -171.072 
L 177.925289 -171.072 
L 177.607934 -171.072 
L 177.290579 -171.072 
L 176.973223 -171.072 
L 176.655868 -171.072 
L 176.338512 -171.072 
L 176.021157 -171.072 
L 175.703802 -171.072 
L 175.386446 -171.072 
L 175.069091 -171.072 
L 174.751736 -171.072 
L 174.43438 -171.072 
L 174.117025 -171.072 
L 173.799669 -171.072 
L 173.482314 -171.072 
L 173.164959 -171.072 
L 172.847603 -171.072 
L 172.530248 -171.072 
L 172.212893 -171.072 
L 171.895537 -171.072 
L 171.578182 -171.072 
L 171.260826 -171.072 
L 170.943471 -171.072 
L 170.626116 -171.072 
L 170.30876 -171.072 
L 169.991405 -171.072 
L 169.67405 -171.072 
L 169.356694 -171.072 
L 169.039339 -171.072 
L 168.721983 -171.072 
L 168.404628 -171.072 
L 168.087273 -171.072 
L 167.769917 -171.072 
L 167.452562 -171.072 
L 167.135207 -171.072 
L 166.817851 -171.072 
L 166.500496 -171.072 
L 166.18314 -171.072 
L 165.865785 -171.072 
L 165.54843 -171.072 
L 165.231074 -171.072 
L 164.913719 -171.072 
L 164.596364 -171.072 
L 164.279008 -171.072 
L 163.961653 -171.072 
L 163.644298 -171.072 
L 163.326942 -171.072 
L 163.009587 -171.072 
L 162.692231 -171.072 
L 162.374876 -171.072 
L 162.057521 -171.072 
L 161.740165 -171.072 
L 161.42281 -171.072 
L 161.105455 -171.072 
L 160.788099 -171.072 
L 160.470744 -171.072 
L 160.153388 -171.072 
L 159.836033 -171.072 
L 159.518678 -171.072 
L 159.201322 -171.072 
L 158.883967 -171.072 
L 158.566612 -171.072 
L 158.249256 -171.072 
L 157.931901 -171.072 
L 157.614545 -171.072 
L 157.29719 -171.072 
L 156.979835 -171.072 
L 156.662479 -171.072 
L 156.345124 -171.072 
L 156.027769 -171.072 
L 155.710413 -171.072 
L 155.393058 -171.072 
L 155.075702 -171.072 
L 154.758347 -171.072 
L 154.440992 -171.072 
L 154.123636 -171.072 
L 153.806281 -171.072 
L 153.488926 -171.072 
L 153.17157 -171.072 
L 152.854215 -171.072 
L 152.53686 -171.072 
L 152.219504 -171.072 
L 151.902149 -171.072 
L 151.584793 -171.072 
L 151.267438 -171.072 
L 150.950083 -171.072 
L 150.632727 -171.072 
L 150.315372 -171.072 
L 149.998017 -171.072 
L 149.680661 -171.072 
L 149.363306 -171.072 
L 149.04595 -171.072 
L 148.728595 -171.072 
L 148.41124 -171.072 
L 148.093884 -171.072 
L 147.776529 -171.072 
L 147.459174 -171.072 
L 147.141818 -171.072 
L 146.824463 -171.072 
L 146.507107 -171.072 
L 146.189752 -171.072 
L 145.872397 -171.072 
L 145.555041 -171.072 
L 145.237686 -171.072 
L 144.920331 -171.072 
L 144.602975 -171.072 
L 144.28562 -171.072 
L 143.968264 -171.072 
L 143.650909 -171.072 
L 143.333554 -171.072 
L 143.016198 -171.072 
L 142.698843 -171.072 
L 142.381488 -171.072 
L 142.064132 -171.072 
L 141.746777 -171.072 
L 141.429421 -171.072 
L 141.112066 -171.072 
L 140.794711 -171.072 
L 140.477355 -171.072 
L 140.16 -171.072 
L 139.842645 -171.072 
L 139.525289 -171.072 
L 139.207934 -171.072 
L 138.890579 -171.072 
L 138.573223 -171.072 
L 138.255868 -171.072 
L 137.938512 -171.072 
L 137.621157 -171.072 
L 137.303802 -171.072 
L 136.986446 -171.072 
L 136.669091 -171.072 
L 136.351736 -171.072 
L 136.03438 -171.072 
L 135.717025 -171.072 
L 135.399669 -171.072 
L 135.082314 -171.072 
L 134.764959 -171.072 
L 134.447603 -171.072 
L 134.130248 -171.072 
L 133.812893 -171.072 
L 133.495537 -171.072 
L 133.178182 -171.072 
L 132.860826 -171.072 
L 132.543471 -171.072 
L 132.226116 -171.072 
L 131.90876 -171.072 
L 131.591405 -171.072 
L 131.27405 -171.072 
L 130.956694 -171.072 
L 130.639339 -171.072 
L 130.321983 -171.072 
L 130.004628 -171.072 
L 129.687273 -171.072 
L 129.369917 -171.072 
L 129.052562 -171.072 
L 128.735207 -171.072 
L 128.417851 -171.072 
L 128.100496 -171.072 
L 127.78314 -171.072 
L 127.465785 -171.072 
L 127.14843 -171.072 
L 126.831074 -171.072 
L 126.513719 -171.072 
L 126.196364 -171.072 
L 125.879008 -171.072 
L 125.561653 -171.072 
L 125.244298 -171.072 
L 124.926942 -171.072 
L 124.609587 -171.072 
L 124.292231 -171.072 
L 123.974876 -171.072 
L 123.657521 -171.072 
L 123.340165 -171.072 
L 123.02281 -171.072 
L 122.705455 -171.072 
L 122.388099 -171.072 
L 122.070744 -171.072 
L 121.753388 -171.072 
L 121.436033 -171.072 
L 121.118678 -171.072 
L 120.801322 -171.072 
L 120.483967 -171.072 
L 120.166612 -171.072 
L 119.849256 -171.072 
L 119.531901 -171.072 
L 119.214545 -171.072 
L 118.89719 -171.072 
L 118.579835 -171.072 
L 118.262479 -171.072 
L 117.945124 -171.072 
L 117.627769 -171.072 
L 117.310413 -171.072 
L 116.993058 -171.072 
L 116.675702 -171.072 
L 116.358347 -171.072 
L 116.040992 -171.072 
L 115.723636 -171.072 
L 115.406281 -171.072 
L 115.088926 -171.072 
L 114.77157 -171.072 
L 114.454215 -171.072 
L 114.13686 -171.072 
L 113.819504 -171.072 
L 113.502149 -171.072 
L 113.184793 -171.072 
L 112.867438 -171.072 
L 112.550083 -171.072 
L 112.232727 -171.072 
L 111.915372 -171.072 
L 111.598017 -171.072 
L 111.280661 -171.072 
L 110.963306 -171.072 
L 110.64595 -171.072 
L 110.328595 -171.072 
L 110.01124 -171.072 
L 109.693884 -171.072 
L 109.376529 -171.072 
L 109.059174 -171.072 
L 108.741818 -171.072 
L 108.424463 -171.072 
L 108.107107 -171.072 
L 107.789752 -171.072 
L 107.472397 -171.072 
L 107.155041 -171.072 
L 106.837686 -171.072 
L 106.520331 -171.072 
L 106.202975 -171.072 
L 105.88562 -171.072 
L 105.568264 -171.072 
L 105.250909 -171.072 
L 104.933554 -171.072 
L 104.616198 -171.072 
L 104.298843 -171.072 
L 103.981488 -171.072 
L 103.664132 -171.072 
L 103.346777 -171.072 
L 103.029421 -171.072 
L 102.712066 -171.072 
L 102.394711 -171.072 
L 102.077355 -171.072 
L 101.76 -171.072 
L 101.442645 -171.072 
L 101.125289 -171.072 
L 100.807934 -171.072 
L 100.490579 -171.072 
L 100.173223 -171.072 
L 99.855868 -171.072 
L 99.538512 -171.072 
L 99.221157 -171.072 
L 98.903802 -171.072 
L 98.586446 -171.072 
L 98.269091 -171.072 
L 97.951736 -171.072 
L 97.63438 -171.072 
L 97.317025 -171.072 
L 96.999669 -171.072 
L 96.682314 -171.072 
L 96.364959 -171.072 
L 96.047603 -171.072 
L 95.730248 -171.072 
L 95.412893 -171.072 
L 95.095537 -171.072 
L 94.778182 -171.072 
L 94.460826 -171.072 
L 94.143471 -171.072 
L 93.826116 -171.072 
L 93.50876 -171.072 
L 93.191405 -171.072 
L 92.87405 -171.072 
L 92.556694 -171.072 
L 92.239339 -171.072 
L 91.921983 -171.072 
L 91.604628 -171.072 
L 91.287273 -171.072 
L 90.969917 -171.072 
L 90.652562 -171.072 
L 90.335207 -171.072 
L 90.017851 -171.072 
L 89.700496 -171.072 
L 89.38314 -171.072 
L 89.065785 -171.072 
L 88.74843 -171.072 
L 88.431074 -171.072 
L 88.113719 -171.072 
L 87.796364 -171.072 
L 87.479008 -171.072 
L 87.161653 -171.072 
L 86.844298 -171.072 
L 86.526942 -171.072 
L 86.209587 -171.072 
L 85.892231 -171.072 
L 85.574876 -171.072 
L 85.257521 -171.072 
L 84.940165 -171.072 
L 84.62281 -171.072 
L 84.305455 -171.072 
L 83.988099 -171.072 
L 83.670744 -171.072 
L 83.353388 -171.072 
L 83.036033 -171.072 
L 82.718678 -171.072 
L 82.401322 -171.072 
L 82.083967 -171.072 
L 81.766612 -171.072 
L 81.449256 -171.072 
L 81.131901 -171.072 
L 80.814545 -171.072 
L 80.49719 -171.072 
L 80.179835 -171.072 
L 79.862479 -171.072 
L 79.545124 -171.072 
L 79.227769 -171.072 
L 78.910413 -171.072 
L 78.593058 -171.072 
L 78.275702 -171.072 
L 77.958347 -171.072 
L 77.640992 -171.072 
L 77.323636 -171.072 
L 77.006281 -171.072 
L 76.688926 -171.072 
L 76.37157 -171.072 
L 76.054215 -171.072 
L 75.73686 -171.072 
L 75.419504 -171.072 
L 75.102149 -171.072 
L 74.784793 -171.072 
L 74.467438 -171.072 
L 74.150083 -171.072 
L 73.832727 -171.072 
z
" style="stroke: #87ceeb; stroke-opacity: 0.75"/>
    </defs>
    <g clip-path="url(#pffb7168c6b)">
     <use xlink:href="#m92533d0638" x="0" y="345.6" style="fill: #87ceeb; fill-opacity: 0.75; stroke: #87ceeb; stroke-opacity: 0.75"/>
    </g>
   </g>
   <g id="matplotlib.axis_1">
    <g id="xtick_1">
     <g id="line2d_1">
      <defs>
       <path id="m15a5e4aef0" d="M 0 0 
L 0 3.5 
" style="stroke: #000000; stroke-width: 0.8"/>
      </defs>
      <g>
       <use xlink:href="#m15a5e4aef0" x="73.832727" y="307.584" style="stroke: #000000; stroke-width: 0.8"/>
      </g>
     </g>
     <g id="text_1">
      <!-- 0 -->
      <g transform="translate(70.531868 322.161969) scale(0.11 -0.11)">
       <defs>
        <path id="AndaleMono-30" d="M 1913 4494 
Q 2613 4494 2989 3892 
Q 3366 3291 3366 2203 
Q 3366 1150 3000 533 
Q 2634 -84 1913 -84 
Q 1216 -84 837 516 
Q 459 1116 459 2203 
Q 459 3259 826 3876 
Q 1194 4494 1913 4494 
z
M 1913 366 
Q 2375 366 2598 805 
Q 2822 1244 2822 2203 
Q 2822 3166 2598 3602 
Q 2375 4038 1913 4038 
Q 1456 4038 1231 3591 
Q 1006 3144 1006 2203 
Q 1006 1250 1229 808 
Q 1453 366 1913 366 
z
M 1900 2672 
Q 2097 2672 2233 2536 
Q 2369 2400 2369 2203 
Q 2369 2000 2231 1854 
Q 2094 1709 1900 1709 
Q 1709 1709 1573 1854 
Q 1438 2000 1438 2203 
Q 1438 2403 1570 2537 
Q 1703 2672 1900 2672 
z
" transform="scale(0.015625)"/>
       </defs>
       <use xlink:href="#AndaleMono-30"/>
      </g>
     </g>
    </g>
    <g id="xtick_2">
     <g id="line2d_2">
      <g>
       <use xlink:href="#m15a5e4aef0" x="137.303802" y="307.584" style="stroke: #000000; stroke-width: 0.8"/>
      </g>
     </g>
     <g id="text_2">
      <!-- 200 -->
      <g transform="translate(127.401224 322.161969) scale(0.11 -0.11)">
       <defs>
        <path id="AndaleMono-32" d="M 3066 0 
L 641 0 
L 641 372 
Q 1563 1400 1838 1750 
Q 2113 2100 2284 2484 
Q 2456 2869 2456 3250 
Q 2456 3619 2232 3831 
Q 2009 4044 1606 4044 
Q 1297 4044 775 3853 
L 703 4294 
Q 1175 4494 1691 4494 
Q 2281 4494 2642 4161 
Q 3003 3828 3003 3272 
Q 3003 2875 2817 2484 
Q 2631 2094 2340 1734 
Q 2050 1375 1209 447 
L 3066 447 
L 3066 0 
z
" transform="scale(0.015625)"/>
       </defs>
       <use xlink:href="#AndaleMono-32"/>
       <use xlink:href="#AndaleMono-30" x="60.009766"/>
       <use xlink:href="#AndaleMono-30" x="120.019531"/>
      </g>
     </g>
    </g>
    <g id="xtick_3">
     <g id="line2d_3">
      <g>
       <use xlink:href="#m15a5e4aef0" x="200.774876" y="307.584" style="stroke: #000000; stroke-width: 0.8"/>
      </g>
     </g>
     <g id="text_3">
      <!-- 400 -->
      <g transform="translate(190.872298 322.161969) scale(0.11 -0.11)">
       <defs>
        <path id="AndaleMono-34" d="M 3353 1019 
L 2809 1019 
L 2809 0 
L 2297 0 
L 2297 1019 
L 378 1019 
L 378 1409 
L 2119 4409 
L 2809 4409 
L 2809 1466 
L 3353 1466 
L 3353 1019 
z
M 2297 1466 
L 2297 3903 
L 897 1466 
L 2297 1466 
z
" transform="scale(0.015625)"/>
       </defs>
       <use xlink:href="#AndaleMono-34"/>
       <use xlink:href="#AndaleMono-30" x="60.009766"/>
       <use xlink:href="#AndaleMono-30" x="120.019531"/>
      </g>
     </g>
    </g>
    <g id="xtick_4">
     <g id="line2d_4">
      <g>
       <use xlink:href="#m15a5e4aef0" x="264.24595" y="307.584" style="stroke: #000000; stroke-width: 0.8"/>
      </g>
     </g>
     <g id="text_4">
      <!-- 600 -->
      <g transform="translate(254.343372 322.161969) scale(0.11 -0.11)">
       <defs>
        <path id="AndaleMono-36" d="M 1131 2297 
Q 1544 2631 2028 2631 
Q 2588 2631 2961 2273 
Q 3334 1916 3334 1350 
Q 3334 728 3003 322 
Q 2672 -84 2119 -84 
Q 1413 -84 1000 564 
Q 588 1213 588 2150 
Q 588 3150 1017 3822 
Q 1447 4494 2194 4494 
Q 2709 4494 3084 4341 
L 3003 3884 
Q 2569 4044 2209 4044 
Q 1700 4044 1415 3556 
Q 1131 3069 1131 2297 
z
M 1147 1856 
Q 1147 1291 1412 828 
Q 1678 366 2081 366 
Q 2422 366 2606 616 
Q 2791 866 2791 1306 
Q 2791 1713 2587 1947 
Q 2384 2181 2016 2181 
Q 1538 2181 1147 1856 
z
" transform="scale(0.015625)"/>
       </defs>
       <use xlink:href="#AndaleMono-36"/>
       <use xlink:href="#AndaleMono-30" x="60.009766"/>
       <use xlink:href="#AndaleMono-30" x="120.019531"/>
      </g>
     </g>
    </g>
    <g id="xtick_5">
     <g id="line2d_5">
      <g>
       <use xlink:href="#m15a5e4aef0" x="327.717025" y="307.584" style="stroke: #000000; stroke-width: 0.8"/>
      </g>
     </g>
     <g id="text_5">
      <!-- 800 -->
      <g transform="translate(317.814447 322.161969) scale(0.11 -0.11)">
       <defs>
        <path id="AndaleMono-38" d="M 2363 2419 
Q 2813 2288 3061 1972 
Q 3309 1656 3309 1234 
Q 3309 628 2907 272 
Q 2506 -84 1919 -84 
Q 1303 -84 908 275 
Q 513 634 513 1228 
Q 513 1647 769 1965 
Q 1025 2284 1484 2419 
Q 1119 2513 898 2780 
Q 678 3047 678 3378 
Q 678 3803 1015 4148 
Q 1353 4494 1906 4494 
Q 2453 4494 2811 4150 
Q 3169 3806 3169 3378 
Q 3169 3056 2944 2786 
Q 2719 2516 2363 2419 
z
M 1906 2631 
Q 1922 2631 2056 2668 
Q 2191 2706 2286 2761 
Q 2381 2816 2462 2900 
Q 2544 2984 2594 3098 
Q 2644 3213 2644 3353 
Q 2644 3653 2428 3851 
Q 2213 4050 1906 4050 
Q 1609 4050 1396 3847 
Q 1184 3644 1184 3353 
Q 1184 3169 1261 3031 
Q 1338 2894 1452 2809 
Q 1566 2725 1714 2678 
Q 1863 2631 1906 2631 
z
M 1906 2194 
Q 1050 1944 1050 1253 
Q 1050 850 1309 608 
Q 1569 366 1919 366 
Q 2281 366 2529 605 
Q 2778 844 2778 1253 
Q 2778 1563 2606 1808 
Q 2434 2053 1906 2194 
z
" transform="scale(0.015625)"/>
       </defs>
       <use xlink:href="#AndaleMono-38"/>
       <use xlink:href="#AndaleMono-30" x="60.009766"/>
       <use xlink:href="#AndaleMono-30" x="120.019531"/>
      </g>
     </g>
    </g>
    <g id="xtick_6">
     <g id="line2d_6">
      <g>
       <use xlink:href="#m15a5e4aef0" x="391.188099" y="307.584" style="stroke: #000000; stroke-width: 0.8"/>
      </g>
     </g>
     <g id="text_6">
      <!-- 1000 -->
      <g transform="translate(377.984662 322.161969) scale(0.11 -0.11)">
       <defs>
        <path id="AndaleMono-31" d="M 3181 0 
L 863 0 
L 863 447 
L 1797 447 
L 1797 3872 
L 916 3431 
L 916 3944 
L 1869 4434 
L 2309 4434 
L 2309 447 
L 3181 447 
L 3181 0 
z
" transform="scale(0.015625)"/>
       </defs>
       <use xlink:href="#AndaleMono-31"/>
       <use xlink:href="#AndaleMono-30" x="60.009766"/>
       <use xlink:href="#AndaleMono-30" x="120.019531"/>
       <use xlink:href="#AndaleMono-30" x="180.029297"/>
      </g>
     </g>
    </g>
   </g>
   <g id="matplotlib.axis_2">
    <g id="ytick_1">
     <g id="line2d_7">
      <defs>
       <path id="m1b2196f011" d="M 0 0 
L -3.5 0 
" style="stroke: #000000; stroke-width: 0.8"/>
      </defs>
      <g>
       <use xlink:href="#m1b2196f011" x="57.6" y="295.488" style="stroke: #000000; stroke-width: 0.8"/>
      </g>
     </g>
     <g id="text_7">
      <!-- 1.00 -->
      <g transform="translate(17.591406 299.276984) scale(0.11 -0.11)">
       <defs>
        <path id="AndaleMono-2212" d="M 3397 2047 
L 441 2047 
L 441 2456 
L 3397 2456 
L 3397 2047 
z
" transform="scale(0.015625)"/>
        <path id="AndaleMono-2e" d="M 1900 716 
Q 2066 716 2178 603 
Q 2291 491 2291 325 
Q 2291 156 2177 36 
Q 2063 -84 1900 -84 
Q 1741 -84 1628 36 
Q 1516 156 1516 325 
Q 1516 494 1627 605 
Q 1738 716 1900 716 
z
" transform="scale(0.015625)"/>
       </defs>
       <use xlink:href="#AndaleMono-2212"/>
       <use xlink:href="#AndaleMono-31" x="60.009766"/>
       <use xlink:href="#AndaleMono-2e" x="120.019531"/>
       <use xlink:href="#AndaleMono-30" x="180.029297"/>
       <use xlink:href="#AndaleMono-30" x="240.039062"/>
      </g>
     </g>
    </g>
    <g id="ytick_2">
     <g id="line2d_8">
      <g>
       <use xlink:href="#m1b2196f011" x="57.6" y="265.248" style="stroke: #000000; stroke-width: 0.8"/>
      </g>
     </g>
     <g id="text_8">
      <!-- 0.75 -->
      <g transform="translate(17.591406 269.036984) scale(0.11 -0.11)">
       <defs>
        <path id="AndaleMono-37" d="M 3238 4044 
L 1491 0 
L 966 0 
L 2688 3963 
L 622 3963 
L 622 4409 
L 3238 4409 
L 3238 4044 
z
" transform="scale(0.015625)"/>
        <path id="AndaleMono-35" d="M 1356 2631 
Q 1569 2688 1772 2688 
Q 2397 2688 2759 2305 
Q 3122 1922 3122 1350 
Q 3122 750 2700 333 
Q 2278 -84 1672 -84 
Q 1094 -84 703 109 
L 806 544 
Q 1231 366 1684 366 
Q 2088 366 2336 625 
Q 2584 884 2584 1350 
Q 2584 1791 2350 2028 
Q 2116 2266 1747 2266 
Q 1478 2266 1216 2163 
L 909 2303 
L 909 4409 
L 2925 4409 
L 2925 3963 
L 1356 3963 
L 1356 2631 
z
" transform="scale(0.015625)"/>
       </defs>
       <use xlink:href="#AndaleMono-2212"/>
       <use xlink:href="#AndaleMono-30" x="60.009766"/>
       <use xlink:href="#AndaleMono-2e" x="120.019531"/>
       <use xlink:href="#AndaleMono-37" x="180.029297"/>
       <use xlink:href="#AndaleMono-35" x="240.039062"/>
      </g>
     </g>
    </g>
    <g id="ytick_3">
     <g id="line2d_9">
      <g>
       <use xlink:href="#m1b2196f011" x="57.6" y="235.008" style="stroke: #000000; stroke-width: 0.8"/>
      </g>
     </g>
     <g id="text_9">
      <!-- 0.50 -->
      <g transform="translate(17.591406 238.796984) scale(0.11 -0.11)">
       <use xlink:href="#AndaleMono-2212"/>
       <use xlink:href="#AndaleMono-30" x="60.009766"/>
       <use xlink:href="#AndaleMono-2e" x="120.019531"/>
       <use xlink:href="#AndaleMono-35" x="180.029297"/>
       <use xlink:href="#AndaleMono-30" x="240.039062"/>
      </g>
     </g>
    </g>
    <g id="ytick_4">
     <g id="line2d_10">
      <g>
       <use xlink:href="#m1b2196f011" x="57.6" y="204.768" style="stroke: #000000; stroke-width: 0.8"/>
      </g>
     </g>
     <g id="text_10">
      <!-- 0.25 -->
      <g transform="translate(17.591406 208.556984) scale(0.11 -0.11)">
       <use xlink:href="#AndaleMono-2212"/>
       <use xlink:href="#AndaleMono-30" x="60.009766"/>
       <use xlink:href="#AndaleMono-2e" x="120.019531"/>
       <use xlink:href="#AndaleMono-32" x="180.029297"/>
       <use xlink:href="#AndaleMono-35" x="240.039062"/>
      </g>
     </g>
    </g>
    <g id="ytick_5">
     <g id="line2d_11">
      <g>
       <use xlink:href="#m1b2196f011" x="57.6" y="174.528" style="stroke: #000000; stroke-width: 0.8"/>
      </g>
     </g>
     <g id="text_11">
      <!-- 0.00 -->
      <g transform="translate(24.193125 178.316984) scale(0.11 -0.11)">
       <use xlink:href="#AndaleMono-30"/>
       <use xlink:href="#AndaleMono-2e" x="60.009766"/>
       <use xlink:href="#AndaleMono-30" x="120.019531"/>
       <use xlink:href="#AndaleMono-30" x="180.029297"/>
      </g>
     </g>
    </g>
    <g id="ytick_6">
     <g id="line2d_12">
      <g>
       <use xlink:href="#m1b2196f011" x="57.6" y="144.288" style="stroke: #000000; stroke-width: 0.8"/>
      </g>
     </g>
     <g id="text_12">
      <!-- 0.25 -->
      <g transform="translate(24.193125 148.076984) scale(0.11 -0.11)">
       <use xlink:href="#AndaleMono-30"/>
       <use xlink:href="#AndaleMono-2e" x="60.009766"/>
       <use xlink:href="#AndaleMono-32" x="120.019531"/>
       <use xlink:href="#AndaleMono-35" x="180.029297"/>
      </g>
     </g>
    </g>
    <g id="ytick_7">
     <g id="line2d_13">
      <g>
       <use xlink:href="#m1b2196f011" x="57.6" y="114.048" style="stroke: #000000; stroke-width: 0.8"/>
      </g>
     </g>
     <g id="text_13">
      <!-- 0.50 -->
      <g transform="translate(24.193125 117.836984) scale(0.11 -0.11)">
       <use xlink:href="#AndaleMono-30"/>
       <use xlink:href="#AndaleMono-2e" x="60.009766"/>
       <use xlink:href="#AndaleMono-35" x="120.019531"/>
       <use xlink:href="#AndaleMono-30" x="180.029297"/>
      </g>
     </g>
    </g>
    <g id="ytick_8">
     <g id="line2d_14">
      <g>
       <use xlink:href="#m1b2196f011" x="57.6" y="83.808" style="stroke: #000000; stroke-width: 0.8"/>
      </g>
     </g>
     <g id="text_14">
      <!-- 0.75 -->
      <g transform="translate(24.193125 87.596984) scale(0.11 -0.11)">
       <use xlink:href="#AndaleMono-30"/>
       <use xlink:href="#AndaleMono-2e" x="60.009766"/>
       <use xlink:href="#AndaleMono-37" x="120.019531"/>
       <use xlink:href="#AndaleMono-35" x="180.029297"/>
      </g>
     </g>
    </g>
    <g id="ytick_9">
     <g id="line2d_15">
      <g>
       <use xlink:href="#m1b2196f011" x="57.6" y="53.568" style="stroke: #000000; stroke-width: 0.8"/>
      </g>
     </g>
     <g id="text_15">
      <!-- 1.00 -->
      <g transform="translate(24.193125 57.356984) scale(0.11 -0.11)">
       <use xlink:href="#AndaleMono-31"/>
       <use xlink:href="#AndaleMono-2e" x="60.009766"/>
       <use xlink:href="#AndaleMono-30" x="120.019531"/>
       <use xlink:href="#AndaleMono-30" x="180.029297"/>
      </g>
     </g>
    </g>
   </g>
   <g id="line2d_16">
    <path d="M 73.832727 174.528 
L 74.150083 174.36947 
L 76.688926 174.395092 
L 78.275702 174.92036 
L 79.545124 175.031062 
L 80.49719 174.910312 
L 81.449256 174.587185 
L 82.718678 173.918184 
L 83.988099 172.886367 
L 85.257521 171.521271 
L 86.844298 169.391171 
L 88.74843 166.353705 
L 94.143471 157.22805 
L 95.412893 155.678233 
L 96.364959 154.835955 
L 96.999669 154.328098 
L 98.903802 152.079307 
L 100.490579 150.872322 
L 101.442645 150.509527 
L 102.712066 150.302192 
L 103.664132 150.39165 
L 104.616198 150.720579 
L 105.568264 151.310502 
L 107.155041 152.679332 
L 109.059174 154.735956 
L 112.550083 158.802913 
L 113.502149 159.699529 
L 114.454215 160.331847 
L 115.088926 160.551849 
L 115.723636 160.545343 
L 116.675702 160.254619 
L 118.579835 158.951831 
L 119.214545 158.206509 
L 120.801322 155.723978 
L 121.753388 153.738819 
L 123.02281 150.596911 
L 124.292231 146.712571 
L 125.561653 142.415855 
L 127.465785 134.903831 
L 130.639339 120.825982 
L 133.812893 106.714435 
L 135.717025 99.094429 
L 139.525289 85.965849 
L 143.333554 76.203557 
L 144.28562 74.479546 
L 145.237686 72.690056 
L 146.189752 70.978639 
L 148.093884 68.181089 
L 149.680661 66.358555 
L 150.632727 65.247097 
L 152.854215 63.297639 
L 153.488926 62.882808 
L 156.027769 60.065723 
L 156.662479 59.219069 
L 157.614545 58.440673 
L 158.249256 57.806519 
L 158.883967 57.056185 
L 161.105455 55.318219 
L 162.374876 54.963854 
L 163.326942 54.361883 
L 165.54843 53.568 
L 167.135207 53.718095 
L 167.769917 53.747869 
L 168.721983 54.049063 
L 169.67405 54.12063 
L 171.260826 54.930798 
L 171.895537 54.942454 
L 173.164959 55.261164 
L 174.117025 55.189723 
L 175.386446 55.657284 
L 177.925289 55.660115 
L 178.56 55.568374 
L 179.512066 55.853154 
L 179.829421 55.8593 
L 180.781488 55.630354 
L 181.733554 55.679179 
L 182.68562 55.380569 
L 183.320331 55.56177 
L 184.272397 55.823777 
L 185.224463 55.986459 
L 186.176529 56.481501 
L 187.128595 56.700957 
L 188.398017 57.558664 
L 189.350083 57.809624 
L 190.302149 58.36688 
L 191.57157 58.731673 
L 192.523636 59.512839 
L 193.158347 59.684042 
L 193.793058 59.916165 
L 194.745124 60.537336 
L 196.014545 61.004017 
L 197.283967 62.105501 
L 197.918678 62.46326 
L 200.457521 64.763813 
L 201.092231 65.579487 
L 202.679008 67.192401 
L 203.313719 67.981815 
L 204.58314 69.210495 
L 205.535207 70.445931 
L 206.804628 71.501354 
L 207.756694 72.457106 
L 208.70876 73.146807 
L 213.151736 78.676327 
L 215.690579 83.533915 
L 216.96 86.216551 
L 217.912066 88.364139 
L 221.720331 98.450774 
L 223.941818 106.193133 
L 226.163306 115.420857 
L 228.702149 128.393755 
L 231.875702 147.068591 
L 234.731901 165.253471 
L 239.809587 198.035129 
L 242.34843 213.561764 
L 245.204628 228.955955 
L 247.10876 237.722724 
L 249.330248 246.253308 
L 251.23438 252.437919 
L 254.725289 261.488377 
L 256.946777 266.237514 
L 258.850909 269.789538 
L 259.48562 270.842468 
L 261.072397 272.884601 
L 261.707107 273.721952 
L 262.976529 275.09624 
L 263.61124 275.909193 
L 267.102149 278.977505 
L 268.054215 280.222991 
L 269.323636 281.438141 
L 270.275702 282.663259 
L 271.545124 283.852542 
L 272.179835 284.685294 
L 276.62281 288.260766 
L 277.892231 288.684822 
L 278.844298 289.305093 
L 279.796364 289.543161 
L 281.065785 290.496986 
L 282.335207 290.835951 
L 283.287273 291.388457 
L 284.239339 291.640049 
L 285.50876 292.463846 
L 286.460826 292.695905 
L 287.412893 293.176466 
L 288.682314 293.384854 
L 289.63438 293.675431 
L 291.221157 293.382938 
L 291.855868 293.415493 
L 292.807934 293.202846 
L 294.077355 293.47129 
L 295.029421 293.30714 
L 296.616198 293.392342 
L 297.250909 293.487914 
L 298.520331 293.882302 
L 299.472397 293.811702 
L 300.741818 294.141441 
L 301.376529 294.190346 
L 302.963306 294.981459 
L 303.915372 295.072539 
L 304.867438 295.371904 
L 305.819504 295.29866 
L 306.77157 295.488 
L 307.088926 295.479347 
L 309.310413 294.550765 
L 310.262479 293.967163 
L 311.531901 293.552023 
L 315.657521 289.836931 
L 317.561653 287.6065 
L 319.465785 285.758361 
L 320.100496 285.319903 
L 322.639339 282.697445 
L 323.591405 281.551479 
L 324.543471 280.481222 
L 326.764959 276.990899 
L 328.351736 274.043918 
L 328.986446 272.852443 
L 330.890579 268.361216 
L 333.429421 261.147656 
L 335.650909 253.412612 
L 338.824463 241.041407 
L 340.728595 232.556529 
L 345.488926 211.559893 
L 347.393058 204.388373 
L 349.29719 198.459089 
L 350.566612 195.317181 
L 351.518678 193.332022 
L 353.105455 190.849491 
L 353.740165 190.104169 
L 354.692231 189.395765 
L 356.279008 188.576769 
L 356.913719 188.475239 
L 357.54843 188.59015 
L 358.18314 188.905907 
L 359.135207 189.618578 
L 360.404628 190.924635 
L 362.30876 193.159029 
L 364.530248 195.742001 
L 366.43438 197.494633 
L 367.386446 198.171507 
L 368.338512 198.571984 
L 369.290579 198.76024 
L 370.242645 198.678198 
L 371.512066 198.33838 
L 372.464132 197.777514 
L 373.733554 196.685159 
L 374.68562 195.56109 
L 375.637686 194.431361 
L 376.589752 193.691574 
L 377.541818 192.654857 
L 378.81124 190.900517 
L 380.398017 188.30371 
L 385.475702 179.665577 
L 387.062479 177.53549 
L 388.331901 176.170284 
L 389.601322 175.14309 
L 390.870744 174.47409 
L 392.140165 174.085774 
L 393.092231 174.039648 
L 394.361653 174.210744 
L 396.265785 174.719628 
L 398.169917 174.691805 
L 398.487273 174.528 
L 398.487273 174.528 
" clip-path="url(#pffb7168c6b)" style="fill: none; stroke: #87ceeb; stroke-opacity: 0.75; stroke-linecap: square"/>
   </g>
   <g id="patch_3">
    <path d="M 57.6 307.584 
L 57.6 41.472 
" style="fill: none; stroke: #000000; stroke-width: 0.8; stroke-linejoin: miter; stroke-linecap: square"/>
   </g>
   <g id="patch_4">
    <path d="M 414.72 307.584 
L 414.72 41.472 
" style="fill: none; stroke: #000000; stroke-width: 0.8; stroke-linejoin: miter; stroke-linecap: square"/>
   </g>
   <g id="patch_5">
    <path d="M 57.6 307.584 
L 414.72 307.584 
" style="fill: none; stroke: #000000; stroke-width: 0.8; stroke-linejoin: miter; stroke-linecap: square"/>
   </g>
   <g id="patch_6">
    <path d="M 57.6 41.472 
L 414.72 41.472 
" style="fill: none; stroke: #000000; stroke-width: 0.8; stroke-linejoin: miter; stroke-linecap: square"/>
   </g>
  </g>
 </g>
 <defs>
  <clipPath id="pffb7168c6b">
   <rect x="57.6" y="41.472" width="357.12" height="266.112"/>
  </clipPath>
 </defs>
</svg>
