<?xml version="1.0" encoding="utf-8" standalone="no"?>
<!DOCTYPE svg PUBLIC "-//W3C//DTD SVG 1.1//EN"
  "http://www.w3.org/Graphics/SVG/1.1/DTD/svg11.dtd">
<svg xmlns:xlink="http://www.w3.org/1999/xlink" width="460.8pt" height="345.6pt" viewBox="0 0 460.8 345.6" xmlns="http://www.w3.org/2000/svg" version="1.1">
 <metadata>
  <rdf:RDF xmlns:dc="http://purl.org/dc/elements/1.1/" xmlns:cc="http://creativecommons.org/ns#" xmlns:rdf="http://www.w3.org/1999/02/22-rdf-syntax-ns#">
   <cc:Work>
    <dc:type rdf:resource="http://purl.org/dc/dcmitype/StillImage"/>
    <dc:date>2024-04-23T11:13:08.190120</dc:date>
    <dc:format>image/svg+xml</dc:format>
    <dc:creator>
     <cc:Agent>
      <dc:title>Matplotlib v3.8.3, https://matplotlib.org/</dc:title>
     </cc:Agent>
    </dc:creator>
   </cc:Work>
  </rdf:RDF>
 </metadata>
 <defs>
  <style type="text/css">*{stroke-linejoin: round; stroke-linecap: butt}</style>
 </defs>
 <g id="figure_1">
  <g id="patch_1">
   <path d="M 0 345.6 
L 460.8 345.6 
L 460.8 0 
L 0 0 
z
" style="fill: #ffffff"/>
  </g>
  <g id="axes_1">
   <g id="patch_2">
    <path d="M 57.6 307.584 
L 414.72 307.584 
L 414.72 41.472 
L 57.6 41.472 
z
" style="fill: #ffffff"/>
   </g>
   <g id="PolyCollection_1">
    <defs>
     <path id="m76b3af85f3" d="M 73.832727 -171.072 
L 73.832727 -171.072 
L 74.150083 -176.033304 
L 74.467438 -176.201104 
L 74.784793 -176.367211 
L 75.102149 -176.53372 
L 75.419504 -176.70331 
L 75.73686 -176.879129 
L 76.054215 -177.062464 
L 76.37157 -177.247346 
L 76.688926 -177.443403 
L 77.006281 -177.648094 
L 77.323636 -177.86333 
L 77.640992 -178.093755 
L 77.958347 -178.341512 
L 78.275702 -178.608148 
L 78.593058 -178.903815 
L 78.910413 -179.210529 
L 79.227769 -179.521659 
L 79.545124 -179.827616 
L 79.862479 -180.132332 
L 80.179835 -180.420705 
L 80.49719 -180.700325 
L 80.814545 -180.97748 
L 81.131901 -181.253901 
L 81.449256 -181.562693 
L 81.766612 -181.917894 
L 82.083967 -182.300917 
L 82.401322 -182.689955 
L 82.718678 -183.064999 
L 83.036033 -183.440464 
L 83.353388 -183.814274 
L 83.670744 -184.194205 
L 83.988099 -184.610701 
L 84.305455 -184.876746 
L 84.62281 -185.215549 
L 84.940165 -185.638207 
L 85.257521 -186.139665 
L 85.574876 -186.715844 
L 85.892231 -187.359903 
L 86.209587 -188.067449 
L 86.526942 -188.829425 
L 86.844298 -189.63577 
L 87.161653 -190.469439 
L 87.479008 -191.312699 
L 87.796364 -192.153245 
L 88.113719 -192.980915 
L 88.431074 -193.794862 
L 88.74843 -194.598847 
L 89.065785 -195.414165 
L 89.38314 -196.276434 
L 89.700496 -197.217934 
L 90.017851 -198.224713 
L 90.335207 -199.259895 
L 90.652562 -200.306736 
L 90.969917 -201.362499 
L 91.287273 -202.431123 
L 91.604628 -203.53133 
L 91.921983 -204.694912 
L 92.239339 -205.944231 
L 92.556694 -207.292994 
L 92.87405 -208.739179 
L 93.191405 -210.270257 
L 93.50876 -211.874239 
L 93.826116 -213.539713 
L 94.143471 -215.242503 
L 94.460826 -216.970275 
L 94.778182 -218.721887 
L 95.095537 -220.497596 
L 95.412893 -222.307955 
L 95.730248 -224.168016 
L 96.047603 -226.047338 
L 96.364959 -227.919896 
L 96.682314 -229.774317 
L 96.999669 -231.583643 
L 97.317025 -233.353458 
L 97.63438 -235.081411 
L 97.951736 -236.760896 
L 98.269091 -238.395401 
L 98.586446 -239.988635 
L 98.903802 -241.5395 
L 99.221157 -243.098138 
L 99.538512 -244.682194 
L 99.855868 -246.278708 
L 100.173223 -247.867871 
L 100.490579 -249.46736 
L 100.807934 -251.070625 
L 101.125289 -252.677298 
L 101.442645 -254.298777 
L 101.76 -255.891765 
L 102.077355 -257.435781 
L 102.394711 -258.970732 
L 102.712066 -260.54564 
L 103.029421 -262.204862 
L 103.346777 -263.927912 
L 103.664132 -265.711511 
L 103.981488 -267.536876 
L 104.298843 -269.347413 
L 104.616198 -271.105763 
L 104.933554 -272.782917 
L 105.250909 -274.356182 
L 105.568264 -275.836756 
L 105.88562 -277.199085 
L 106.202975 -278.426545 
L 106.520331 -279.503172 
L 106.837686 -280.42502 
L 107.155041 -281.204121 
L 107.472397 -281.87391 
L 107.789752 -282.465464 
L 108.107107 -283.018412 
L 108.424463 -283.581083 
L 108.741818 -284.19246 
L 109.059174 -284.88401 
L 109.376529 -285.628749 
L 109.693884 -286.32785 
L 110.01124 -286.891305 
L 110.328595 -287.331417 
L 110.64595 -287.717687 
L 110.963306 -288.100031 
L 111.280661 -288.519889 
L 111.598017 -289.004626 
L 111.915372 -289.541092 
L 112.232727 -290.09161 
L 112.550083 -290.62008 
L 112.867438 -291.074097 
L 113.184793 -291.437839 
L 113.502149 -291.724171 
L 113.819504 -291.919342 
L 114.13686 -292.011034 
L 114.454215 -292.032 
L 114.77157 -292.003599 
L 115.088926 -291.93931 
L 115.406281 -291.850584 
L 115.723636 -291.693908 
L 116.040992 -291.403379 
L 116.358347 -291.006214 
L 116.675702 -290.540715 
L 116.993058 -290.044655 
L 117.310413 -289.555968 
L 117.627769 -289.082123 
L 117.945124 -288.633303 
L 118.262479 -288.228028 
L 118.579835 -287.876694 
L 118.89719 -287.588896 
L 119.214545 -287.359566 
L 119.531901 -287.115865 
L 119.849256 -286.808907 
L 120.166612 -286.464919 
L 120.483967 -286.114741 
L 120.801322 -285.772453 
L 121.118678 -285.453314 
L 121.436033 -285.16803 
L 121.753388 -284.917482 
L 122.070744 -284.713647 
L 122.388099 -284.555548 
L 122.705455 -284.41325 
L 123.02281 -284.240879 
L 123.340165 -283.99905 
L 123.657521 -283.689384 
L 123.974876 -283.30868 
L 124.292231 -282.867198 
L 124.609587 -282.392015 
L 124.926942 -281.90819 
L 125.244298 -281.428965 
L 125.561653 -280.935166 
L 125.879008 -280.386716 
L 126.196364 -279.81752 
L 126.513719 -279.261046 
L 126.831074 -278.747912 
L 127.14843 -278.304784 
L 127.465785 -277.940739 
L 127.78314 -277.64588 
L 128.100496 -277.420469 
L 128.417851 -277.254543 
L 128.735207 -277.11366 
L 129.052562 -276.951036 
L 129.369917 -276.715532 
L 129.687273 -276.386098 
L 130.004628 -276.033826 
L 130.321983 -275.728178 
L 130.639339 -275.480709 
L 130.956694 -275.273894 
L 131.27405 -275.08244 
L 131.591405 -274.870344 
L 131.90876 -274.607748 
L 132.226116 -274.286436 
L 132.543471 -273.90171 
L 132.860826 -273.457577 
L 133.178182 -272.991177 
L 133.495537 -272.510715 
L 133.812893 -272.00208 
L 134.130248 -271.491025 
L 134.447603 -271.004232 
L 134.764959 -270.525266 
L 135.082314 -270.039793 
L 135.399669 -269.520677 
L 135.717025 -268.935139 
L 136.03438 -268.319503 
L 136.351736 -267.7345 
L 136.669091 -267.193762 
L 136.986446 -266.69215 
L 137.303802 -266.216404 
L 137.621157 -265.75205 
L 137.938512 -265.295941 
L 138.255868 -264.849693 
L 138.573223 -264.402042 
L 138.890579 -263.933003 
L 139.207934 -263.414561 
L 139.525289 -262.826841 
L 139.842645 -262.203046 
L 140.16 -261.592393 
L 140.477355 -261.005139 
L 140.794711 -260.438235 
L 141.112066 -259.887811 
L 141.429421 -259.347468 
L 141.746777 -258.801776 
L 142.064132 -258.229012 
L 142.381488 -257.617382 
L 142.698843 -256.964607 
L 143.016198 -256.269958 
L 143.333554 -255.549257 
L 143.650909 -254.818559 
L 143.968264 -254.076219 
L 144.28562 -253.334801 
L 144.602975 -252.592886 
L 144.920331 -251.842721 
L 145.237686 -251.071111 
L 145.555041 -250.263881 
L 145.872397 -249.457046 
L 146.189752 -248.689464 
L 146.507107 -247.961297 
L 146.824463 -247.267167 
L 147.141818 -246.603557 
L 147.459174 -245.961765 
L 147.776529 -245.336762 
L 148.093884 -244.729776 
L 148.41124 -244.133873 
L 148.728595 -243.52961 
L 149.04595 -242.905333 
L 149.363306 -242.258595 
L 149.680661 -241.593232 
L 149.998017 -240.948651 
L 150.315372 -240.325685 
L 150.632727 -239.720224 
L 150.950083 -239.129588 
L 151.267438 -238.545244 
L 151.584793 -237.962556 
L 151.902149 -237.376325 
L 152.219504 -236.777298 
L 152.53686 -236.159015 
L 152.854215 -235.524343 
L 153.17157 -234.876463 
L 153.488926 -234.215466 
L 153.806281 -233.553559 
L 154.123636 -232.903241 
L 154.440992 -232.263905 
L 154.758347 -231.633653 
L 155.075702 -231.014108 
L 155.393058 -230.406689 
L 155.710413 -229.824661 
L 156.027769 -229.292221 
L 156.345124 -228.804802 
L 156.662479 -228.350638 
L 156.979835 -227.918477 
L 157.29719 -227.504464 
L 157.614545 -227.106693 
L 157.931901 -226.724143 
L 158.249256 -226.352797 
L 158.566612 -225.982754 
L 158.883967 -225.609136 
L 159.201322 -225.233706 
L 159.518678 -224.864658 
L 159.836033 -224.509389 
L 160.153388 -224.178645 
L 160.470744 -223.863652 
L 160.788099 -223.553662 
L 161.105455 -223.240102 
L 161.42281 -222.911625 
L 161.740165 -222.558765 
L 162.057521 -222.180307 
L 162.374876 -221.785441 
L 162.692231 -221.385027 
L 163.009587 -220.989795 
L 163.326942 -220.609795 
L 163.644298 -220.248148 
L 163.961653 -219.903078 
L 164.279008 -219.57927 
L 164.596364 -219.269244 
L 164.913719 -218.965058 
L 165.231074 -218.669713 
L 165.54843 -218.393398 
L 165.865785 -218.151307 
L 166.18314 -217.938308 
L 166.500496 -217.750698 
L 166.817851 -217.586016 
L 167.135207 -217.441889 
L 167.452562 -217.314536 
L 167.769917 -217.201941 
L 168.087273 -217.101035 
L 168.404628 -217.006502 
L 168.721983 -216.91275 
L 169.039339 -216.821627 
L 169.356694 -216.739167 
L 169.67405 -216.671541 
L 169.991405 -216.618512 
L 170.30876 -216.556182 
L 170.626116 -216.476567 
L 170.943471 -216.374122 
L 171.260826 -216.24493 
L 171.578182 -216.08609 
L 171.895537 -215.898792 
L 172.212893 -215.689114 
L 172.530248 -215.467822 
L 172.847603 -215.24598 
L 173.164959 -215.032376 
L 173.482314 -214.833212 
L 173.799669 -214.648548 
L 174.117025 -214.472999 
L 174.43438 -214.303401 
L 174.751736 -214.130508 
L 175.069091 -213.942986 
L 175.386446 -213.746336 
L 175.703802 -213.546192 
L 176.021157 -213.348101 
L 176.338512 -213.154678 
L 176.655868 -212.967515 
L 176.973223 -212.788658 
L 177.290579 -212.619106 
L 177.607934 -212.457339 
L 177.925289 -212.300683 
L 178.242645 -212.145765 
L 178.56 -211.990082 
L 178.877355 -211.83222 
L 179.194711 -211.670124 
L 179.512066 -211.499103 
L 179.829421 -211.316638 
L 180.146777 -211.122988 
L 180.464132 -210.913114 
L 180.781488 -210.687821 
L 181.098843 -210.448177 
L 181.416198 -210.19537 
L 181.733554 -209.932465 
L 182.050909 -209.66312 
L 182.368264 -209.390415 
L 182.68562 -209.114598 
L 183.002975 -208.835526 
L 183.320331 -208.551853 
L 183.637686 -208.261187 
L 183.955041 -207.96035 
L 184.272397 -207.645621 
L 184.589752 -207.311721 
L 184.907107 -206.955149 
L 185.224463 -206.587578 
L 185.541818 -206.215172 
L 185.859174 -205.842116 
L 186.176529 -205.471327 
L 186.493884 -205.10474 
L 186.81124 -204.742852 
L 187.128595 -204.384995 
L 187.44595 -204.030058 
L 187.763306 -203.675512 
L 188.080661 -203.318223 
L 188.398017 -202.954107 
L 188.715372 -202.579018 
L 189.032727 -202.189436 
L 189.350083 -201.781051 
L 189.667438 -201.350085 
L 189.984793 -200.897318 
L 190.302149 -200.436817 
L 190.619504 -199.981889 
L 190.93686 -199.53425 
L 191.254215 -199.094418 
L 191.57157 -198.661303 
L 191.888926 -198.233292 
L 192.206281 -197.807336 
L 192.523636 -197.380534 
L 192.840992 -196.949807 
L 193.158347 -196.512245 
L 193.475702 -196.064972 
L 193.793058 -195.60594 
L 194.110413 -195.13301 
L 194.427769 -194.645303 
L 194.745124 -194.143794 
L 195.062479 -193.639693 
L 195.379835 -193.144965 
L 195.69719 -192.661847 
L 196.014545 -192.191519 
L 196.331901 -191.733851 
L 196.649256 -191.287869 
L 196.966612 -190.852437 
L 197.283967 -190.425794 
L 197.601322 -190.004882 
L 197.918678 -189.586493 
L 198.236033 -189.167485 
L 198.553388 -188.745148 
L 198.870744 -188.316529 
L 199.188099 -187.879048 
L 199.505455 -187.43166 
L 199.82281 -186.982641 
L 200.140165 -186.541039 
L 200.457521 -186.116562 
L 200.774876 -185.712303 
L 201.092231 -185.325946 
L 201.409587 -184.95423 
L 201.726942 -184.593468 
L 202.044298 -184.239811 
L 202.361653 -183.88952 
L 202.679008 -183.539293 
L 202.996364 -183.186876 
L 203.313719 -182.830744 
L 203.631074 -182.470153 
L 203.94843 -182.105674 
L 204.265785 -181.739184 
L 204.58314 -181.374563 
L 204.900496 -181.019335 
L 205.217851 -180.681321 
L 205.535207 -180.359687 
L 205.852562 -180.052806 
L 206.169917 -179.758485 
L 206.487273 -179.474417 
L 206.804628 -179.198502 
L 207.121983 -178.928718 
L 207.439339 -178.66341 
L 207.756694 -178.400923 
L 208.07405 -178.140397 
L 208.391405 -177.881409 
L 208.70876 -177.624134 
L 209.026116 -177.368834 
L 209.343471 -177.116408 
L 209.660826 -176.871077 
L 209.978182 -176.638728 
L 210.295537 -176.423748 
L 210.612893 -176.224584 
L 210.930248 -176.039283 
L 211.247603 -175.865338 
L 211.564959 -175.699925 
L 211.882314 -175.540684 
L 212.199669 -175.385245 
L 212.517025 -175.231587 
L 212.83438 -175.078354 
L 213.151736 -174.924962 
L 213.469091 -174.771577 
L 213.786446 -174.619393 
L 214.103802 -174.47002 
L 214.421157 -174.326731 
L 214.738512 -174.193002 
L 215.055868 -174.072185 
L 215.373223 -173.962762 
L 215.690579 -173.862858 
L 216.007934 -173.770878 
L 216.325289 -173.684951 
L 216.642645 -173.603405 
L 216.96 -173.524743 
L 217.277355 -173.447748 
L 217.594711 -173.37131 
L 217.912066 -173.295102 
L 218.229421 -173.219037 
L 218.546777 -173.143302 
L 218.864132 -173.068378 
L 219.181488 -172.996464 
L 219.498843 -172.930234 
L 219.816198 -172.872433 
L 220.133554 -172.821611 
L 220.450909 -172.776221 
L 220.768264 -172.734796 
L 221.08562 -172.696005 
L 221.402975 -172.658773 
L 221.720331 -172.622091 
L 222.037686 -172.585182 
L 222.355041 -172.547261 
L 222.672397 -172.507727 
L 222.989752 -172.466575 
L 223.307107 -172.42429 
L 223.624463 -172.381634 
L 223.941818 -172.339845 
L 224.259174 -172.300403 
L 224.576529 -172.264445 
L 224.893884 -172.232312 
L 225.21124 -172.202932 
L 225.528595 -172.175118 
L 225.84595 -172.148086 
L 226.163306 -172.121033 
L 226.480661 -172.093538 
L 226.798017 -172.06524 
L 227.115372 -172.035738 
L 227.432727 -172.005178 
L 227.750083 -171.973653 
L 228.067438 -171.94145 
L 228.384793 -171.908396 
L 228.702149 -171.874267 
L 229.019504 -171.839376 
L 229.33686 -171.804793 
L 229.654215 -171.771652 
L 229.97157 -171.740074 
L 230.288926 -171.709654 
L 230.606281 -171.679847 
L 230.923636 -171.649956 
L 231.240992 -171.619451 
L 231.558347 -171.587992 
L 231.875702 -171.555404 
L 232.193058 -171.521418 
L 232.510413 -171.485951 
L 232.827769 -171.449301 
L 233.145124 -171.411712 
L 233.462479 -171.373367 
L 233.779835 -171.334588 
L 234.09719 -171.296118 
L 234.414545 -171.258754 
L 234.731901 -171.222658 
L 235.049256 -171.187791 
L 235.366612 -171.15396 
L 235.683967 -171.120848 
L 236.001322 -171.088232 
L 236.318678 -171.055768 
L 236.636033 -171.023152 
L 236.953388 -170.99004 
L 237.270744 -170.956209 
L 237.588099 -170.921342 
L 237.905455 -170.885246 
L 238.22281 -170.847882 
L 238.540165 -170.809412 
L 238.857521 -170.770633 
L 239.174876 -170.732288 
L 239.492231 -170.694699 
L 239.809587 -170.658049 
L 240.126942 -170.622582 
L 240.444298 -170.588596 
L 240.761653 -170.556008 
L 241.079008 -170.524549 
L 241.396364 -170.494044 
L 241.713719 -170.464153 
L 242.031074 -170.434346 
L 242.34843 -170.403926 
L 242.665785 -170.372348 
L 242.98314 -170.339207 
L 243.300496 -170.304624 
L 243.617851 -170.269733 
L 243.935207 -170.235604 
L 244.252562 -170.20255 
L 244.569917 -170.170347 
L 244.887273 -170.138822 
L 245.204628 -170.108262 
L 245.521983 -170.07876 
L 245.839339 -170.050462 
L 246.156694 -170.022967 
L 246.47405 -169.995914 
L 246.791405 -169.968882 
L 247.10876 -169.941068 
L 247.426116 -169.911688 
L 247.743471 -169.879555 
L 248.060826 -169.843597 
L 248.378182 -169.804155 
L 248.695537 -169.762366 
L 249.012893 -169.71971 
L 249.330248 -169.677425 
L 249.647603 -169.636273 
L 249.964959 -169.596739 
L 250.282314 -169.558818 
L 250.599669 -169.521909 
L 250.917025 -169.485227 
L 251.23438 -169.447995 
L 251.551736 -169.409204 
L 251.869091 -169.367779 
L 252.186446 -169.322389 
L 252.503802 -169.271567 
L 252.821157 -169.213766 
L 253.138512 -169.147536 
L 253.455868 -169.075622 
L 253.773223 -169.000698 
L 254.090579 -168.924963 
L 254.407934 -168.848898 
L 254.725289 -168.77269 
L 255.042645 -168.696252 
L 255.36 -168.619257 
L 255.677355 -168.540595 
L 255.994711 -168.459049 
L 256.312066 -168.373122 
L 256.629421 -168.281142 
L 256.946777 -168.181238 
L 257.264132 -168.071815 
L 257.581488 -167.950998 
L 257.898843 -167.817269 
L 258.216198 -167.67398 
L 258.533554 -167.524607 
L 258.850909 -167.372423 
L 259.168264 -167.219038 
L 259.48562 -167.065646 
L 259.802975 -166.912413 
L 260.120331 -166.758755 
L 260.437686 -166.603316 
L 260.755041 -166.444075 
L 261.072397 -166.278662 
L 261.389752 -166.104717 
L 261.707107 -165.919416 
L 262.024463 -165.720252 
L 262.341818 -165.505272 
L 262.659174 -165.272923 
L 262.976529 -165.027592 
L 263.293884 -164.775166 
L 263.61124 -164.519866 
L 263.928595 -164.262591 
L 264.24595 -164.003603 
L 264.563306 -163.743077 
L 264.880661 -163.48059 
L 265.198017 -163.215282 
L 265.515372 -162.945498 
L 265.832727 -162.669583 
L 266.150083 -162.385515 
L 266.467438 -162.091194 
L 266.784793 -161.784313 
L 267.102149 -161.462679 
L 267.419504 -161.124665 
L 267.73686 -160.769437 
L 268.054215 -160.404816 
L 268.37157 -160.038326 
L 268.688926 -159.673847 
L 269.006281 -159.313256 
L 269.323636 -158.957124 
L 269.640992 -158.604707 
L 269.958347 -158.25448 
L 270.275702 -157.904189 
L 270.593058 -157.550532 
L 270.910413 -157.18977 
L 271.227769 -156.818054 
L 271.545124 -156.431697 
L 271.862479 -156.027438 
L 272.179835 -155.602961 
L 272.49719 -155.161359 
L 272.814545 -154.71234 
L 273.131901 -154.264952 
L 273.449256 -153.827471 
L 273.766612 -153.398852 
L 274.083967 -152.976515 
L 274.401322 -152.557507 
L 274.718678 -152.139118 
L 275.036033 -151.718206 
L 275.353388 -151.291563 
L 275.670744 -150.856131 
L 275.988099 -150.410149 
L 276.305455 -149.952481 
L 276.62281 -149.482153 
L 276.940165 -148.999035 
L 277.257521 -148.504307 
L 277.574876 -148.000206 
L 277.892231 -147.498697 
L 278.209587 -147.01099 
L 278.526942 -146.53806 
L 278.844298 -146.079028 
L 279.161653 -145.631755 
L 279.479008 -145.194193 
L 279.796364 -144.763466 
L 280.113719 -144.336664 
L 280.431074 -143.910708 
L 280.74843 -143.482697 
L 281.065785 -143.049582 
L 281.38314 -142.60975 
L 281.700496 -142.162111 
L 282.017851 -141.707183 
L 282.335207 -141.246682 
L 282.652562 -140.793915 
L 282.969917 -140.362949 
L 283.287273 -139.954564 
L 283.604628 -139.564982 
L 283.921983 -139.189893 
L 284.239339 -138.825777 
L 284.556694 -138.468488 
L 284.87405 -138.113942 
L 285.191405 -137.759005 
L 285.50876 -137.401148 
L 285.826116 -137.03926 
L 286.143471 -136.672673 
L 286.460826 -136.301884 
L 286.778182 -135.928828 
L 287.095537 -135.556422 
L 287.412893 -135.188851 
L 287.730248 -134.832279 
L 288.047603 -134.498379 
L 288.364959 -134.18365 
L 288.682314 -133.882813 
L 288.999669 -133.592147 
L 289.317025 -133.308474 
L 289.63438 -133.029402 
L 289.951736 -132.753585 
L 290.269091 -132.48088 
L 290.586446 -132.211535 
L 290.903802 -131.94863 
L 291.221157 -131.695823 
L 291.538512 -131.456179 
L 291.855868 -131.230886 
L 292.173223 -131.021012 
L 292.490579 -130.827362 
L 292.807934 -130.644897 
L 293.125289 -130.473876 
L 293.442645 -130.31178 
L 293.76 -130.153918 
L 294.077355 -129.998235 
L 294.394711 -129.843317 
L 294.712066 -129.686661 
L 295.029421 -129.524894 
L 295.346777 -129.355342 
L 295.664132 -129.176485 
L 295.981488 -128.989322 
L 296.298843 -128.795899 
L 296.616198 -128.597808 
L 296.933554 -128.397664 
L 297.250909 -128.201014 
L 297.568264 -128.013492 
L 297.88562 -127.840599 
L 298.202975 -127.671001 
L 298.520331 -127.495452 
L 298.837686 -127.310788 
L 299.155041 -127.111624 
L 299.472397 -126.89802 
L 299.789752 -126.676178 
L 300.107107 -126.454886 
L 300.424463 -126.245208 
L 300.741818 -126.05791 
L 301.059174 -125.89907 
L 301.376529 -125.769878 
L 301.693884 -125.667433 
L 302.01124 -125.587818 
L 302.328595 -125.525488 
L 302.64595 -125.472459 
L 302.963306 -125.404833 
L 303.280661 -125.322373 
L 303.598017 -125.23125 
L 303.915372 -125.137498 
L 304.232727 -125.042965 
L 304.550083 -124.942059 
L 304.867438 -124.829464 
L 305.184793 -124.702111 
L 305.502149 -124.557984 
L 305.819504 -124.393302 
L 306.13686 -124.205692 
L 306.454215 -123.992693 
L 306.77157 -123.750602 
L 307.088926 -123.474287 
L 307.406281 -123.178942 
L 307.723636 -122.874756 
L 308.040992 -122.56473 
L 308.358347 -122.240922 
L 308.675702 -121.895852 
L 308.993058 -121.534205 
L 309.310413 -121.154205 
L 309.627769 -120.758973 
L 309.945124 -120.358559 
L 310.262479 -119.963693 
L 310.579835 -119.585235 
L 310.89719 -119.232375 
L 311.214545 -118.903898 
L 311.531901 -118.590338 
L 311.849256 -118.280348 
L 312.166612 -117.965355 
L 312.483967 -117.634611 
L 312.801322 -117.279342 
L 313.118678 -116.910294 
L 313.436033 -116.534864 
L 313.753388 -116.161246 
L 314.070744 -115.791203 
L 314.388099 -115.419857 
L 314.705455 -115.037307 
L 315.02281 -114.639536 
L 315.340165 -114.225523 
L 315.657521 -113.793362 
L 315.974876 -113.339198 
L 316.292231 -112.851779 
L 316.609587 -112.319339 
L 316.926942 -111.737311 
L 317.244298 -111.129892 
L 317.561653 -110.510347 
L 317.879008 -109.880095 
L 318.196364 -109.240759 
L 318.513719 -108.590441 
L 318.831074 -107.928534 
L 319.14843 -107.267537 
L 319.465785 -106.619657 
L 319.78314 -105.984985 
L 320.100496 -105.366702 
L 320.417851 -104.767675 
L 320.735207 -104.181444 
L 321.052562 -103.598756 
L 321.369917 -103.014412 
L 321.687273 -102.423776 
L 322.004628 -101.818315 
L 322.321983 -101.195349 
L 322.639339 -100.550768 
L 322.956694 -99.885405 
L 323.27405 -99.238667 
L 323.591405 -98.61439 
L 323.90876 -98.010127 
L 324.226116 -97.414224 
L 324.543471 -96.807238 
L 324.860826 -96.182235 
L 325.178182 -95.540443 
L 325.495537 -94.876833 
L 325.812893 -94.182703 
L 326.130248 -93.454536 
L 326.447603 -92.686954 
L 326.764959 -91.880119 
L 327.082314 -91.072889 
L 327.399669 -90.301279 
L 327.717025 -89.551114 
L 328.03438 -88.809199 
L 328.351736 -88.067781 
L 328.669091 -87.325441 
L 328.986446 -86.594743 
L 329.303802 -85.874042 
L 329.621157 -85.179393 
L 329.938512 -84.526618 
L 330.255868 -83.914988 
L 330.573223 -83.342224 
L 330.890579 -82.796532 
L 331.207934 -82.256189 
L 331.525289 -81.705765 
L 331.842645 -81.138861 
L 332.16 -80.551607 
L 332.477355 -79.940954 
L 332.794711 -79.317159 
L 333.112066 -78.729439 
L 333.429421 -78.210997 
L 333.746777 -77.741958 
L 334.064132 -77.294307 
L 334.381488 -76.848059 
L 334.698843 -76.39195 
L 335.016198 -75.927596 
L 335.333554 -75.45185 
L 335.650909 -74.950238 
L 335.968264 -74.4095 
L 336.28562 -73.824497 
L 336.602975 -73.208861 
L 336.920331 -72.623323 
L 337.237686 -72.104207 
L 337.555041 -71.618734 
L 337.872397 -71.139768 
L 338.189752 -70.652975 
L 338.507107 -70.14192 
L 338.824463 -69.633285 
L 339.141818 -69.152823 
L 339.459174 -68.686423 
L 339.776529 -68.24229 
L 340.093884 -67.857564 
L 340.41124 -67.536252 
L 340.728595 -67.273656 
L 341.04595 -67.06156 
L 341.363306 -66.870106 
L 341.680661 -66.663291 
L 341.998017 -66.415822 
L 342.315372 -66.110174 
L 342.632727 -65.757902 
L 342.950083 -65.428468 
L 343.267438 -65.192964 
L 343.584793 -65.03034 
L 343.902149 -64.889457 
L 344.219504 -64.723531 
L 344.53686 -64.49812 
L 344.854215 -64.203261 
L 345.17157 -63.839216 
L 345.488926 -63.396088 
L 345.806281 -62.882954 
L 346.123636 -62.32648 
L 346.440992 -61.757284 
L 346.758347 -61.208834 
L 347.075702 -60.715035 
L 347.393058 -60.23581 
L 347.710413 -59.751985 
L 348.027769 -59.276802 
L 348.345124 -58.83532 
L 348.662479 -58.454616 
L 348.979835 -58.14495 
L 349.29719 -57.903121 
L 349.614545 -57.73075 
L 349.931901 -57.588452 
L 350.249256 -57.430353 
L 350.566612 -57.226518 
L 350.883967 -56.97597 
L 351.201322 -56.690686 
L 351.518678 -56.371547 
L 351.836033 -56.029259 
L 352.153388 -55.679081 
L 352.470744 -55.335093 
L 352.788099 -55.028135 
L 353.105455 -54.784434 
L 353.42281 -54.555104 
L 353.740165 -54.267306 
L 354.057521 -53.915972 
L 354.374876 -53.510697 
L 354.692231 -53.061877 
L 355.009587 -52.588032 
L 355.326942 -52.099345 
L 355.644298 -51.603285 
L 355.961653 -51.137786 
L 356.279008 -50.740621 
L 356.596364 -50.450092 
L 356.913719 -50.293416 
L 357.231074 -50.20469 
L 357.54843 -50.140401 
L 357.865785 -50.112 
L 358.18314 -50.132966 
L 358.500496 -50.224658 
L 358.817851 -50.419829 
L 359.135207 -50.706161 
L 359.452562 -51.069903 
L 359.769917 -51.52392 
L 360.087273 -52.05239 
L 360.404628 -52.602908 
L 360.721983 -53.139374 
L 361.039339 -53.624111 
L 361.356694 -54.043969 
L 361.67405 -54.426313 
L 361.991405 -54.812583 
L 362.30876 -55.252695 
L 362.626116 -55.81615 
L 362.943471 -56.515251 
L 363.260826 -57.25999 
L 363.578182 -57.95154 
L 363.895537 -58.562917 
L 364.212893 -59.125588 
L 364.530248 -59.678536 
L 364.847603 -60.27009 
L 365.164959 -60.939879 
L 365.482314 -61.71898 
L 365.799669 -62.640828 
L 366.117025 -63.717455 
L 366.43438 -64.944915 
L 366.751736 -66.307244 
L 367.069091 -67.787818 
L 367.386446 -69.361083 
L 367.703802 -71.038237 
L 368.021157 -72.796587 
L 368.338512 -74.607124 
L 368.655868 -76.432489 
L 368.973223 -78.216088 
L 369.290579 -79.939138 
L 369.607934 -81.59836 
L 369.925289 -83.173268 
L 370.242645 -84.708219 
L 370.56 -86.252235 
L 370.877355 -87.845223 
L 371.194711 -89.466702 
L 371.512066 -91.073375 
L 371.829421 -92.67664 
L 372.146777 -94.276129 
L 372.464132 -95.865292 
L 372.781488 -97.461806 
L 373.098843 -99.045862 
L 373.416198 -100.6045 
L 373.733554 -102.155365 
L 374.050909 -103.748599 
L 374.368264 -105.383104 
L 374.68562 -107.062589 
L 375.002975 -108.790542 
L 375.320331 -110.560357 
L 375.637686 -112.369683 
L 375.955041 -114.224104 
L 376.272397 -116.096662 
L 376.589752 -117.975984 
L 376.907107 -119.836045 
L 377.224463 -121.646404 
L 377.541818 -123.422113 
L 377.859174 -125.173725 
L 378.176529 -126.901497 
L 378.493884 -128.60193 
L 378.81124 -130.262924 
L 379.128595 -131.862744 
L 379.44595 -133.389984 
L 379.763306 -134.832663 
L 380.080661 -136.178257 
L 380.398017 -137.42475 
L 380.715372 -138.585858 
L 381.032727 -139.683947 
L 381.350083 -140.750817 
L 381.667438 -141.805194 
L 381.984793 -142.851026 
L 382.302149 -143.885581 
L 382.619504 -144.892123 
L 382.93686 -145.833782 
L 383.254215 -146.69661 
L 383.57157 -147.512897 
L 383.888926 -148.318264 
L 384.206281 -149.134016 
L 384.523636 -149.963918 
L 384.840992 -150.80713 
L 385.158347 -151.653498 
L 385.475702 -152.490721 
L 385.793058 -153.301074 
L 386.110413 -154.067517 
L 386.427769 -154.779997 
L 386.745124 -155.429463 
L 387.062479 -156.011529 
L 387.379835 -156.519358 
L 387.69719 -156.948881 
L 388.014545 -157.295047 
L 388.331901 -157.56896 
L 388.649256 -157.784704 
L 388.966612 -158.164635 
L 389.283967 -158.538445 
L 389.601322 -158.91391 
L 389.918678 -159.288954 
L 390.236033 -159.677992 
L 390.553388 -160.061016 
L 390.870744 -160.416216 
L 391.188099 -160.725008 
L 391.505455 -161.001429 
L 391.82281 -161.278584 
L 392.140165 -161.558204 
L 392.457521 -161.846577 
L 392.774876 -162.151294 
L 393.092231 -162.45725 
L 393.409587 -162.76838 
L 393.726942 -163.075094 
L 394.044298 -163.370761 
L 394.361653 -163.637397 
L 394.679008 -163.885154 
L 394.996364 -164.115579 
L 395.313719 -164.330815 
L 395.631074 -164.535506 
L 395.94843 -164.731564 
L 396.265785 -164.916445 
L 396.58314 -165.09978 
L 396.900496 -165.275599 
L 397.217851 -165.445189 
L 397.535207 -165.611698 
L 397.852562 -165.777805 
L 398.169917 -165.945605 
L 398.487273 -171.072 
L 398.487273 -171.072 
L 398.487273 -171.072 
L 398.169917 -171.072 
L 397.852562 -171.072 
L 397.535207 -171.072 
L 397.217851 -171.072 
L 396.900496 -171.072 
L 396.58314 -171.072 
L 396.265785 -171.072 
L 395.94843 -171.072 
L 395.631074 -171.072 
L 395.313719 -171.072 
L 394.996364 -171.072 
L 394.679008 -171.072 
L 394.361653 -171.072 
L 394.044298 -171.072 
L 393.726942 -171.072 
L 393.409587 -171.072 
L 393.092231 -171.072 
L 392.774876 -171.072 
L 392.457521 -171.072 
L 392.140165 -171.072 
L 391.82281 -171.072 
L 391.505455 -171.072 
L 391.188099 -171.072 
L 390.870744 -171.072 
L 390.553388 -171.072 
L 390.236033 -171.072 
L 389.918678 -171.072 
L 389.601322 -171.072 
L 389.283967 -171.072 
L 388.966612 -171.072 
L 388.649256 -171.072 
L 388.331901 -171.072 
L 388.014545 -171.072 
L 387.69719 -171.072 
L 387.379835 -171.072 
L 387.062479 -171.072 
L 386.745124 -171.072 
L 386.427769 -171.072 
L 386.110413 -171.072 
L 385.793058 -171.072 
L 385.475702 -171.072 
L 385.158347 -171.072 
L 384.840992 -171.072 
L 384.523636 -171.072 
L 384.206281 -171.072 
L 383.888926 -171.072 
L 383.57157 -171.072 
L 383.254215 -171.072 
L 382.93686 -171.072 
L 382.619504 -171.072 
L 382.302149 -171.072 
L 381.984793 -171.072 
L 381.667438 -171.072 
L 381.350083 -171.072 
L 381.032727 -171.072 
L 380.715372 -171.072 
L 380.398017 -171.072 
L 380.080661 -171.072 
L 379.763306 -171.072 
L 379.44595 -171.072 
L 379.128595 -171.072 
L 378.81124 -171.072 
L 378.493884 -171.072 
L 378.176529 -171.072 
L 377.859174 -171.072 
L 377.541818 -171.072 
L 377.224463 -171.072 
L 376.907107 -171.072 
L 376.589752 -171.072 
L 376.272397 -171.072 
L 375.955041 -171.072 
L 375.637686 -171.072 
L 375.320331 -171.072 
L 375.002975 -171.072 
L 374.68562 -171.072 
L 374.368264 -171.072 
L 374.050909 -171.072 
L 373.733554 -171.072 
L 373.416198 -171.072 
L 373.098843 -171.072 
L 372.781488 -171.072 
L 372.464132 -171.072 
L 372.146777 -171.072 
L 371.829421 -171.072 
L 371.512066 -171.072 
L 371.194711 -171.072 
L 370.877355 -171.072 
L 370.56 -171.072 
L 370.242645 -171.072 
L 369.925289 -171.072 
L 369.607934 -171.072 
L 369.290579 -171.072 
L 368.973223 -171.072 
L 368.655868 -171.072 
L 368.338512 -171.072 
L 368.021157 -171.072 
L 367.703802 -171.072 
L 367.386446 -171.072 
L 367.069091 -171.072 
L 366.751736 -171.072 
L 366.43438 -171.072 
L 366.117025 -171.072 
L 365.799669 -171.072 
L 365.482314 -171.072 
L 365.164959 -171.072 
L 364.847603 -171.072 
L 364.530248 -171.072 
L 364.212893 -171.072 
L 363.895537 -171.072 
L 363.578182 -171.072 
L 363.260826 -171.072 
L 362.943471 -171.072 
L 362.626116 -171.072 
L 362.30876 -171.072 
L 361.991405 -171.072 
L 361.67405 -171.072 
L 361.356694 -171.072 
L 361.039339 -171.072 
L 360.721983 -171.072 
L 360.404628 -171.072 
L 360.087273 -171.072 
L 359.769917 -171.072 
L 359.452562 -171.072 
L 359.135207 -171.072 
L 358.817851 -171.072 
L 358.500496 -171.072 
L 358.18314 -171.072 
L 357.865785 -171.072 
L 357.54843 -171.072 
L 357.231074 -171.072 
L 356.913719 -171.072 
L 356.596364 -171.072 
L 356.279008 -171.072 
L 355.961653 -171.072 
L 355.644298 -171.072 
L 355.326942 -171.072 
L 355.009587 -171.072 
L 354.692231 -171.072 
L 354.374876 -171.072 
L 354.057521 -171.072 
L 353.740165 -171.072 
L 353.42281 -171.072 
L 353.105455 -171.072 
L 352.788099 -171.072 
L 352.470744 -171.072 
L 352.153388 -171.072 
L 351.836033 -171.072 
L 351.518678 -171.072 
L 351.201322 -171.072 
L 350.883967 -171.072 
L 350.566612 -171.072 
L 350.249256 -171.072 
L 349.931901 -171.072 
L 349.614545 -171.072 
L 349.29719 -171.072 
L 348.979835 -171.072 
L 348.662479 -171.072 
L 348.345124 -171.072 
L 348.027769 -171.072 
L 347.710413 -171.072 
L 347.393058 -171.072 
L 347.075702 -171.072 
L 346.758347 -171.072 
L 346.440992 -171.072 
L 346.123636 -171.072 
L 345.806281 -171.072 
L 345.488926 -171.072 
L 345.17157 -171.072 
L 344.854215 -171.072 
L 344.53686 -171.072 
L 344.219504 -171.072 
L 343.902149 -171.072 
L 343.584793 -171.072 
L 343.267438 -171.072 
L 342.950083 -171.072 
L 342.632727 -171.072 
L 342.315372 -171.072 
L 341.998017 -171.072 
L 341.680661 -171.072 
L 341.363306 -171.072 
L 341.04595 -171.072 
L 340.728595 -171.072 
L 340.41124 -171.072 
L 340.093884 -171.072 
L 339.776529 -171.072 
L 339.459174 -171.072 
L 339.141818 -171.072 
L 338.824463 -171.072 
L 338.507107 -171.072 
L 338.189752 -171.072 
L 337.872397 -171.072 
L 337.555041 -171.072 
L 337.237686 -171.072 
L 336.920331 -171.072 
L 336.602975 -171.072 
L 336.28562 -171.072 
L 335.968264 -171.072 
L 335.650909 -171.072 
L 335.333554 -171.072 
L 335.016198 -171.072 
L 334.698843 -171.072 
L 334.381488 -171.072 
L 334.064132 -171.072 
L 333.746777 -171.072 
L 333.429421 -171.072 
L 333.112066 -171.072 
L 332.794711 -171.072 
L 332.477355 -171.072 
L 332.16 -171.072 
L 331.842645 -171.072 
L 331.525289 -171.072 
L 331.207934 -171.072 
L 330.890579 -171.072 
L 330.573223 -171.072 
L 330.255868 -171.072 
L 329.938512 -171.072 
L 329.621157 -171.072 
L 329.303802 -171.072 
L 328.986446 -171.072 
L 328.669091 -171.072 
L 328.351736 -171.072 
L 328.03438 -171.072 
L 327.717025 -171.072 
L 327.399669 -171.072 
L 327.082314 -171.072 
L 326.764959 -171.072 
L 326.447603 -171.072 
L 326.130248 -171.072 
L 325.812893 -171.072 
L 325.495537 -171.072 
L 325.178182 -171.072 
L 324.860826 -171.072 
L 324.543471 -171.072 
L 324.226116 -171.072 
L 323.90876 -171.072 
L 323.591405 -171.072 
L 323.27405 -171.072 
L 322.956694 -171.072 
L 322.639339 -171.072 
L 322.321983 -171.072 
L 322.004628 -171.072 
L 321.687273 -171.072 
L 321.369917 -171.072 
L 321.052562 -171.072 
L 320.735207 -171.072 
L 320.417851 -171.072 
L 320.100496 -171.072 
L 319.78314 -171.072 
L 319.465785 -171.072 
L 319.14843 -171.072 
L 318.831074 -171.072 
L 318.513719 -171.072 
L 318.196364 -171.072 
L 317.879008 -171.072 
L 317.561653 -171.072 
L 317.244298 -171.072 
L 316.926942 -171.072 
L 316.609587 -171.072 
L 316.292231 -171.072 
L 315.974876 -171.072 
L 315.657521 -171.072 
L 315.340165 -171.072 
L 315.02281 -171.072 
L 314.705455 -171.072 
L 314.388099 -171.072 
L 314.070744 -171.072 
L 313.753388 -171.072 
L 313.436033 -171.072 
L 313.118678 -171.072 
L 312.801322 -171.072 
L 312.483967 -171.072 
L 312.166612 -171.072 
L 311.849256 -171.072 
L 311.531901 -171.072 
L 311.214545 -171.072 
L 310.89719 -171.072 
L 310.579835 -171.072 
L 310.262479 -171.072 
L 309.945124 -171.072 
L 309.627769 -171.072 
L 309.310413 -171.072 
L 308.993058 -171.072 
L 308.675702 -171.072 
L 308.358347 -171.072 
L 308.040992 -171.072 
L 307.723636 -171.072 
L 307.406281 -171.072 
L 307.088926 -171.072 
L 306.77157 -171.072 
L 306.454215 -171.072 
L 306.13686 -171.072 
L 305.819504 -171.072 
L 305.502149 -171.072 
L 305.184793 -171.072 
L 304.867438 -171.072 
L 304.550083 -171.072 
L 304.232727 -171.072 
L 303.915372 -171.072 
L 303.598017 -171.072 
L 303.280661 -171.072 
L 302.963306 -171.072 
L 302.64595 -171.072 
L 302.328595 -171.072 
L 302.01124 -171.072 
L 301.693884 -171.072 
L 301.376529 -171.072 
L 301.059174 -171.072 
L 300.741818 -171.072 
L 300.424463 -171.072 
L 300.107107 -171.072 
L 299.789752 -171.072 
L 299.472397 -171.072 
L 299.155041 -171.072 
L 298.837686 -171.072 
L 298.520331 -171.072 
L 298.202975 -171.072 
L 297.88562 -171.072 
L 297.568264 -171.072 
L 297.250909 -171.072 
L 296.933554 -171.072 
L 296.616198 -171.072 
L 296.298843 -171.072 
L 295.981488 -171.072 
L 295.664132 -171.072 
L 295.346777 -171.072 
L 295.029421 -171.072 
L 294.712066 -171.072 
L 294.394711 -171.072 
L 294.077355 -171.072 
L 293.76 -171.072 
L 293.442645 -171.072 
L 293.125289 -171.072 
L 292.807934 -171.072 
L 292.490579 -171.072 
L 292.173223 -171.072 
L 291.855868 -171.072 
L 291.538512 -171.072 
L 291.221157 -171.072 
L 290.903802 -171.072 
L 290.586446 -171.072 
L 290.269091 -171.072 
L 289.951736 -171.072 
L 289.63438 -171.072 
L 289.317025 -171.072 
L 288.999669 -171.072 
L 288.682314 -171.072 
L 288.364959 -171.072 
L 288.047603 -171.072 
L 287.730248 -171.072 
L 287.412893 -171.072 
L 287.095537 -171.072 
L 286.778182 -171.072 
L 286.460826 -171.072 
L 286.143471 -171.072 
L 285.826116 -171.072 
L 285.50876 -171.072 
L 285.191405 -171.072 
L 284.87405 -171.072 
L 284.556694 -171.072 
L 284.239339 -171.072 
L 283.921983 -171.072 
L 283.604628 -171.072 
L 283.287273 -171.072 
L 282.969917 -171.072 
L 282.652562 -171.072 
L 282.335207 -171.072 
L 282.017851 -171.072 
L 281.700496 -171.072 
L 281.38314 -171.072 
L 281.065785 -171.072 
L 280.74843 -171.072 
L 280.431074 -171.072 
L 280.113719 -171.072 
L 279.796364 -171.072 
L 279.479008 -171.072 
L 279.161653 -171.072 
L 278.844298 -171.072 
L 278.526942 -171.072 
L 278.209587 -171.072 
L 277.892231 -171.072 
L 277.574876 -171.072 
L 277.257521 -171.072 
L 276.940165 -171.072 
L 276.62281 -171.072 
L 276.305455 -171.072 
L 275.988099 -171.072 
L 275.670744 -171.072 
L 275.353388 -171.072 
L 275.036033 -171.072 
L 274.718678 -171.072 
L 274.401322 -171.072 
L 274.083967 -171.072 
L 273.766612 -171.072 
L 273.449256 -171.072 
L 273.131901 -171.072 
L 272.814545 -171.072 
L 272.49719 -171.072 
L 272.179835 -171.072 
L 271.862479 -171.072 
L 271.545124 -171.072 
L 271.227769 -171.072 
L 270.910413 -171.072 
L 270.593058 -171.072 
L 270.275702 -171.072 
L 269.958347 -171.072 
L 269.640992 -171.072 
L 269.323636 -171.072 
L 269.006281 -171.072 
L 268.688926 -171.072 
L 268.37157 -171.072 
L 268.054215 -171.072 
L 267.73686 -171.072 
L 267.419504 -171.072 
L 267.102149 -171.072 
L 266.784793 -171.072 
L 266.467438 -171.072 
L 266.150083 -171.072 
L 265.832727 -171.072 
L 265.515372 -171.072 
L 265.198017 -171.072 
L 264.880661 -171.072 
L 264.563306 -171.072 
L 264.24595 -171.072 
L 263.928595 -171.072 
L 263.61124 -171.072 
L 263.293884 -171.072 
L 262.976529 -171.072 
L 262.659174 -171.072 
L 262.341818 -171.072 
L 262.024463 -171.072 
L 261.707107 -171.072 
L 261.389752 -171.072 
L 261.072397 -171.072 
L 260.755041 -171.072 
L 260.437686 -171.072 
L 260.120331 -171.072 
L 259.802975 -171.072 
L 259.48562 -171.072 
L 259.168264 -171.072 
L 258.850909 -171.072 
L 258.533554 -171.072 
L 258.216198 -171.072 
L 257.898843 -171.072 
L 257.581488 -171.072 
L 257.264132 -171.072 
L 256.946777 -171.072 
L 256.629421 -171.072 
L 256.312066 -171.072 
L 255.994711 -171.072 
L 255.677355 -171.072 
L 255.36 -171.072 
L 255.042645 -171.072 
L 254.725289 -171.072 
L 254.407934 -171.072 
L 254.090579 -171.072 
L 253.773223 -171.072 
L 253.455868 -171.072 
L 253.138512 -171.072 
L 252.821157 -171.072 
L 252.503802 -171.072 
L 252.186446 -171.072 
L 251.869091 -171.072 
L 251.551736 -171.072 
L 251.23438 -171.072 
L 250.917025 -171.072 
L 250.599669 -171.072 
L 250.282314 -171.072 
L 249.964959 -171.072 
L 249.647603 -171.072 
L 249.330248 -171.072 
L 249.012893 -171.072 
L 248.695537 -171.072 
L 248.378182 -171.072 
L 248.060826 -171.072 
L 247.743471 -171.072 
L 247.426116 -171.072 
L 247.10876 -171.072 
L 246.791405 -171.072 
L 246.47405 -171.072 
L 246.156694 -171.072 
L 245.839339 -171.072 
L 245.521983 -171.072 
L 245.204628 -171.072 
L 244.887273 -171.072 
L 244.569917 -171.072 
L 244.252562 -171.072 
L 243.935207 -171.072 
L 243.617851 -171.072 
L 243.300496 -171.072 
L 242.98314 -171.072 
L 242.665785 -171.072 
L 242.34843 -171.072 
L 242.031074 -171.072 
L 241.713719 -171.072 
L 241.396364 -171.072 
L 241.079008 -171.072 
L 240.761653 -171.072 
L 240.444298 -171.072 
L 240.126942 -171.072 
L 239.809587 -171.072 
L 239.492231 -171.072 
L 239.174876 -171.072 
L 238.857521 -171.072 
L 238.540165 -171.072 
L 238.22281 -171.072 
L 237.905455 -171.072 
L 237.588099 -171.072 
L 237.270744 -171.072 
L 236.953388 -171.072 
L 236.636033 -171.072 
L 236.318678 -171.072 
L 236.001322 -171.072 
L 235.683967 -171.072 
L 235.366612 -171.072 
L 235.049256 -171.072 
L 234.731901 -171.072 
L 234.414545 -171.072 
L 234.09719 -171.072 
L 233.779835 -171.072 
L 233.462479 -171.072 
L 233.145124 -171.072 
L 232.827769 -171.072 
L 232.510413 -171.072 
L 232.193058 -171.072 
L 231.875702 -171.072 
L 231.558347 -171.072 
L 231.240992 -171.072 
L 230.923636 -171.072 
L 230.606281 -171.072 
L 230.288926 -171.072 
L 229.97157 -171.072 
L 229.654215 -171.072 
L 229.33686 -171.072 
L 229.019504 -171.072 
L 228.702149 -171.072 
L 228.384793 -171.072 
L 228.067438 -171.072 
L 227.750083 -171.072 
L 227.432727 -171.072 
L 227.115372 -171.072 
L 226.798017 -171.072 
L 226.480661 -171.072 
L 226.163306 -171.072 
L 225.84595 -171.072 
L 225.528595 -171.072 
L 225.21124 -171.072 
L 224.893884 -171.072 
L 224.576529 -171.072 
L 224.259174 -171.072 
L 223.941818 -171.072 
L 223.624463 -171.072 
L 223.307107 -171.072 
L 222.989752 -171.072 
L 222.672397 -171.072 
L 222.355041 -171.072 
L 222.037686 -171.072 
L 221.720331 -171.072 
L 221.402975 -171.072 
L 221.08562 -171.072 
L 220.768264 -171.072 
L 220.450909 -171.072 
L 220.133554 -171.072 
L 219.816198 -171.072 
L 219.498843 -171.072 
L 219.181488 -171.072 
L 218.864132 -171.072 
L 218.546777 -171.072 
L 218.229421 -171.072 
L 217.912066 -171.072 
L 217.594711 -171.072 
L 217.277355 -171.072 
L 216.96 -171.072 
L 216.642645 -171.072 
L 216.325289 -171.072 
L 216.007934 -171.072 
L 215.690579 -171.072 
L 215.373223 -171.072 
L 215.055868 -171.072 
L 214.738512 -171.072 
L 214.421157 -171.072 
L 214.103802 -171.072 
L 213.786446 -171.072 
L 213.469091 -171.072 
L 213.151736 -171.072 
L 212.83438 -171.072 
L 212.517025 -171.072 
L 212.199669 -171.072 
L 211.882314 -171.072 
L 211.564959 -171.072 
L 211.247603 -171.072 
L 210.930248 -171.072 
L 210.612893 -171.072 
L 210.295537 -171.072 
L 209.978182 -171.072 
L 209.660826 -171.072 
L 209.343471 -171.072 
L 209.026116 -171.072 
L 208.70876 -171.072 
L 208.391405 -171.072 
L 208.07405 -171.072 
L 207.756694 -171.072 
L 207.439339 -171.072 
L 207.121983 -171.072 
L 206.804628 -171.072 
L 206.487273 -171.072 
L 206.169917 -171.072 
L 205.852562 -171.072 
L 205.535207 -171.072 
L 205.217851 -171.072 
L 204.900496 -171.072 
L 204.58314 -171.072 
L 204.265785 -171.072 
L 203.94843 -171.072 
L 203.631074 -171.072 
L 203.313719 -171.072 
L 202.996364 -171.072 
L 202.679008 -171.072 
L 202.361653 -171.072 
L 202.044298 -171.072 
L 201.726942 -171.072 
L 201.409587 -171.072 
L 201.092231 -171.072 
L 200.774876 -171.072 
L 200.457521 -171.072 
L 200.140165 -171.072 
L 199.82281 -171.072 
L 199.505455 -171.072 
L 199.188099 -171.072 
L 198.870744 -171.072 
L 198.553388 -171.072 
L 198.236033 -171.072 
L 197.918678 -171.072 
L 197.601322 -171.072 
L 197.283967 -171.072 
L 196.966612 -171.072 
L 196.649256 -171.072 
L 196.331901 -171.072 
L 196.014545 -171.072 
L 195.69719 -171.072 
L 195.379835 -171.072 
L 195.062479 -171.072 
L 194.745124 -171.072 
L 194.427769 -171.072 
L 194.110413 -171.072 
L 193.793058 -171.072 
L 193.475702 -171.072 
L 193.158347 -171.072 
L 192.840992 -171.072 
L 192.523636 -171.072 
L 192.206281 -171.072 
L 191.888926 -171.072 
L 191.57157 -171.072 
L 191.254215 -171.072 
L 190.93686 -171.072 
L 190.619504 -171.072 
L 190.302149 -171.072 
L 189.984793 -171.072 
L 189.667438 -171.072 
L 189.350083 -171.072 
L 189.032727 -171.072 
L 188.715372 -171.072 
L 188.398017 -171.072 
L 188.080661 -171.072 
L 187.763306 -171.072 
L 187.44595 -171.072 
L 187.128595 -171.072 
L 186.81124 -171.072 
L 186.493884 -171.072 
L 186.176529 -171.072 
L 185.859174 -171.072 
L 185.541818 -171.072 
L 185.224463 -171.072 
L 184.907107 -171.072 
L 184.589752 -171.072 
L 184.272397 -171.072 
L 183.955041 -171.072 
L 183.637686 -171.072 
L 183.320331 -171.072 
L 183.002975 -171.072 
L 182.68562 -171.072 
L 182.368264 -171.072 
L 182.050909 -171.072 
L 181.733554 -171.072 
L 181.416198 -171.072 
L 181.098843 -171.072 
L 180.781488 -171.072 
L 180.464132 -171.072 
L 180.146777 -171.072 
L 179.829421 -171.072 
L 179.512066 -171.072 
L 179.194711 -171.072 
L 178.877355 -171.072 
L 178.56 -171.072 
L 178.242645 -171.072 
L 177.925289 -171.072 
L 177.607934 -171.072 
L 177.290579 -171.072 
L 176.973223 -171.072 
L 176.655868 -171.072 
L 176.338512 -171.072 
L 176.021157 -171.072 
L 175.703802 -171.072 
L 175.386446 -171.072 
L 175.069091 -171.072 
L 174.751736 -171.072 
L 174.43438 -171.072 
L 174.117025 -171.072 
L 173.799669 -171.072 
L 173.482314 -171.072 
L 173.164959 -171.072 
L 172.847603 -171.072 
L 172.530248 -171.072 
L 172.212893 -171.072 
L 171.895537 -171.072 
L 171.578182 -171.072 
L 171.260826 -171.072 
L 170.943471 -171.072 
L 170.626116 -171.072 
L 170.30876 -171.072 
L 169.991405 -171.072 
L 169.67405 -171.072 
L 169.356694 -171.072 
L 169.039339 -171.072 
L 168.721983 -171.072 
L 168.404628 -171.072 
L 168.087273 -171.072 
L 167.769917 -171.072 
L 167.452562 -171.072 
L 167.135207 -171.072 
L 166.817851 -171.072 
L 166.500496 -171.072 
L 166.18314 -171.072 
L 165.865785 -171.072 
L 165.54843 -171.072 
L 165.231074 -171.072 
L 164.913719 -171.072 
L 164.596364 -171.072 
L 164.279008 -171.072 
L 163.961653 -171.072 
L 163.644298 -171.072 
L 163.326942 -171.072 
L 163.009587 -171.072 
L 162.692231 -171.072 
L 162.374876 -171.072 
L 162.057521 -171.072 
L 161.740165 -171.072 
L 161.42281 -171.072 
L 161.105455 -171.072 
L 160.788099 -171.072 
L 160.470744 -171.072 
L 160.153388 -171.072 
L 159.836033 -171.072 
L 159.518678 -171.072 
L 159.201322 -171.072 
L 158.883967 -171.072 
L 158.566612 -171.072 
L 158.249256 -171.072 
L 157.931901 -171.072 
L 157.614545 -171.072 
L 157.29719 -171.072 
L 156.979835 -171.072 
L 156.662479 -171.072 
L 156.345124 -171.072 
L 156.027769 -171.072 
L 155.710413 -171.072 
L 155.393058 -171.072 
L 155.075702 -171.072 
L 154.758347 -171.072 
L 154.440992 -171.072 
L 154.123636 -171.072 
L 153.806281 -171.072 
L 153.488926 -171.072 
L 153.17157 -171.072 
L 152.854215 -171.072 
L 152.53686 -171.072 
L 152.219504 -171.072 
L 151.902149 -171.072 
L 151.584793 -171.072 
L 151.267438 -171.072 
L 150.950083 -171.072 
L 150.632727 -171.072 
L 150.315372 -171.072 
L 149.998017 -171.072 
L 149.680661 -171.072 
L 149.363306 -171.072 
L 149.04595 -171.072 
L 148.728595 -171.072 
L 148.41124 -171.072 
L 148.093884 -171.072 
L 147.776529 -171.072 
L 147.459174 -171.072 
L 147.141818 -171.072 
L 146.824463 -171.072 
L 146.507107 -171.072 
L 146.189752 -171.072 
L 145.872397 -171.072 
L 145.555041 -171.072 
L 145.237686 -171.072 
L 144.920331 -171.072 
L 144.602975 -171.072 
L 144.28562 -171.072 
L 143.968264 -171.072 
L 143.650909 -171.072 
L 143.333554 -171.072 
L 143.016198 -171.072 
L 142.698843 -171.072 
L 142.381488 -171.072 
L 142.064132 -171.072 
L 141.746777 -171.072 
L 141.429421 -171.072 
L 141.112066 -171.072 
L 140.794711 -171.072 
L 140.477355 -171.072 
L 140.16 -171.072 
L 139.842645 -171.072 
L 139.525289 -171.072 
L 139.207934 -171.072 
L 138.890579 -171.072 
L 138.573223 -171.072 
L 138.255868 -171.072 
L 137.938512 -171.072 
L 137.621157 -171.072 
L 137.303802 -171.072 
L 136.986446 -171.072 
L 136.669091 -171.072 
L 136.351736 -171.072 
L 136.03438 -171.072 
L 135.717025 -171.072 
L 135.399669 -171.072 
L 135.082314 -171.072 
L 134.764959 -171.072 
L 134.447603 -171.072 
L 134.130248 -171.072 
L 133.812893 -171.072 
L 133.495537 -171.072 
L 133.178182 -171.072 
L 132.860826 -171.072 
L 132.543471 -171.072 
L 132.226116 -171.072 
L 131.90876 -171.072 
L 131.591405 -171.072 
L 131.27405 -171.072 
L 130.956694 -171.072 
L 130.639339 -171.072 
L 130.321983 -171.072 
L 130.004628 -171.072 
L 129.687273 -171.072 
L 129.369917 -171.072 
L 129.052562 -171.072 
L 128.735207 -171.072 
L 128.417851 -171.072 
L 128.100496 -171.072 
L 127.78314 -171.072 
L 127.465785 -171.072 
L 127.14843 -171.072 
L 126.831074 -171.072 
L 126.513719 -171.072 
L 126.196364 -171.072 
L 125.879008 -171.072 
L 125.561653 -171.072 
L 125.244298 -171.072 
L 124.926942 -171.072 
L 124.609587 -171.072 
L 124.292231 -171.072 
L 123.974876 -171.072 
L 123.657521 -171.072 
L 123.340165 -171.072 
L 123.02281 -171.072 
L 122.705455 -171.072 
L 122.388099 -171.072 
L 122.070744 -171.072 
L 121.753388 -171.072 
L 121.436033 -171.072 
L 121.118678 -171.072 
L 120.801322 -171.072 
L 120.483967 -171.072 
L 120.166612 -171.072 
L 119.849256 -171.072 
L 119.531901 -171.072 
L 119.214545 -171.072 
L 118.89719 -171.072 
L 118.579835 -171.072 
L 118.262479 -171.072 
L 117.945124 -171.072 
L 117.627769 -171.072 
L 117.310413 -171.072 
L 116.993058 -171.072 
L 116.675702 -171.072 
L 116.358347 -171.072 
L 116.040992 -171.072 
L 115.723636 -171.072 
L 115.406281 -171.072 
L 115.088926 -171.072 
L 114.77157 -171.072 
L 114.454215 -171.072 
L 114.13686 -171.072 
L 113.819504 -171.072 
L 113.502149 -171.072 
L 113.184793 -171.072 
L 112.867438 -171.072 
L 112.550083 -171.072 
L 112.232727 -171.072 
L 111.915372 -171.072 
L 111.598017 -171.072 
L 111.280661 -171.072 
L 110.963306 -171.072 
L 110.64595 -171.072 
L 110.328595 -171.072 
L 110.01124 -171.072 
L 109.693884 -171.072 
L 109.376529 -171.072 
L 109.059174 -171.072 
L 108.741818 -171.072 
L 108.424463 -171.072 
L 108.107107 -171.072 
L 107.789752 -171.072 
L 107.472397 -171.072 
L 107.155041 -171.072 
L 106.837686 -171.072 
L 106.520331 -171.072 
L 106.202975 -171.072 
L 105.88562 -171.072 
L 105.568264 -171.072 
L 105.250909 -171.072 
L 104.933554 -171.072 
L 104.616198 -171.072 
L 104.298843 -171.072 
L 103.981488 -171.072 
L 103.664132 -171.072 
L 103.346777 -171.072 
L 103.029421 -171.072 
L 102.712066 -171.072 
L 102.394711 -171.072 
L 102.077355 -171.072 
L 101.76 -171.072 
L 101.442645 -171.072 
L 101.125289 -171.072 
L 100.807934 -171.072 
L 100.490579 -171.072 
L 100.173223 -171.072 
L 99.855868 -171.072 
L 99.538512 -171.072 
L 99.221157 -171.072 
L 98.903802 -171.072 
L 98.586446 -171.072 
L 98.269091 -171.072 
L 97.951736 -171.072 
L 97.63438 -171.072 
L 97.317025 -171.072 
L 96.999669 -171.072 
L 96.682314 -171.072 
L 96.364959 -171.072 
L 96.047603 -171.072 
L 95.730248 -171.072 
L 95.412893 -171.072 
L 95.095537 -171.072 
L 94.778182 -171.072 
L 94.460826 -171.072 
L 94.143471 -171.072 
L 93.826116 -171.072 
L 93.50876 -171.072 
L 93.191405 -171.072 
L 92.87405 -171.072 
L 92.556694 -171.072 
L 92.239339 -171.072 
L 91.921983 -171.072 
L 91.604628 -171.072 
L 91.287273 -171.072 
L 90.969917 -171.072 
L 90.652562 -171.072 
L 90.335207 -171.072 
L 90.017851 -171.072 
L 89.700496 -171.072 
L 89.38314 -171.072 
L 89.065785 -171.072 
L 88.74843 -171.072 
L 88.431074 -171.072 
L 88.113719 -171.072 
L 87.796364 -171.072 
L 87.479008 -171.072 
L 87.161653 -171.072 
L 86.844298 -171.072 
L 86.526942 -171.072 
L 86.209587 -171.072 
L 85.892231 -171.072 
L 85.574876 -171.072 
L 85.257521 -171.072 
L 84.940165 -171.072 
L 84.62281 -171.072 
L 84.305455 -171.072 
L 83.988099 -171.072 
L 83.670744 -171.072 
L 83.353388 -171.072 
L 83.036033 -171.072 
L 82.718678 -171.072 
L 82.401322 -171.072 
L 82.083967 -171.072 
L 81.766612 -171.072 
L 81.449256 -171.072 
L 81.131901 -171.072 
L 80.814545 -171.072 
L 80.49719 -171.072 
L 80.179835 -171.072 
L 79.862479 -171.072 
L 79.545124 -171.072 
L 79.227769 -171.072 
L 78.910413 -171.072 
L 78.593058 -171.072 
L 78.275702 -171.072 
L 77.958347 -171.072 
L 77.640992 -171.072 
L 77.323636 -171.072 
L 77.006281 -171.072 
L 76.688926 -171.072 
L 76.37157 -171.072 
L 76.054215 -171.072 
L 75.73686 -171.072 
L 75.419504 -171.072 
L 75.102149 -171.072 
L 74.784793 -171.072 
L 74.467438 -171.072 
L 74.150083 -171.072 
L 73.832727 -171.072 
z
" style="stroke: #87ceeb; stroke-opacity: 0.75"/>
    </defs>
    <g clip-path="url(#p9659d7d8a3)">
     <use xlink:href="#m76b3af85f3" x="0" y="345.6" style="fill: #87ceeb; fill-opacity: 0.75; stroke: #87ceeb; stroke-opacity: 0.75"/>
    </g>
   </g>
   <g id="matplotlib.axis_1">
    <g id="xtick_1">
     <g id="line2d_1">
      <defs>
       <path id="m863ab1b54c" d="M 0 0 
L 0 3.5 
" style="stroke: #000000; stroke-width: 0.8"/>
      </defs>
      <g>
       <use xlink:href="#m863ab1b54c" x="73.832727" y="307.584" style="stroke: #000000; stroke-width: 0.8"/>
      </g>
     </g>
     <g id="text_1">
      <!-- 0 -->
      <g transform="translate(70.531868 322.161969) scale(0.11 -0.11)">
       <defs>
        <path id="AndaleMono-30" d="M 1913 4494 
Q 2613 4494 2989 3892 
Q 3366 3291 3366 2203 
Q 3366 1150 3000 533 
Q 2634 -84 1913 -84 
Q 1216 -84 837 516 
Q 459 1116 459 2203 
Q 459 3259 826 3876 
Q 1194 4494 1913 4494 
z
M 1913 366 
Q 2375 366 2598 805 
Q 2822 1244 2822 2203 
Q 2822 3166 2598 3602 
Q 2375 4038 1913 4038 
Q 1456 4038 1231 3591 
Q 1006 3144 1006 2203 
Q 1006 1250 1229 808 
Q 1453 366 1913 366 
z
M 1900 2672 
Q 2097 2672 2233 2536 
Q 2369 2400 2369 2203 
Q 2369 2000 2231 1854 
Q 2094 1709 1900 1709 
Q 1709 1709 1573 1854 
Q 1438 2000 1438 2203 
Q 1438 2403 1570 2537 
Q 1703 2672 1900 2672 
z
" transform="scale(0.015625)"/>
       </defs>
       <use xlink:href="#AndaleMono-30"/>
      </g>
     </g>
    </g>
    <g id="xtick_2">
     <g id="line2d_2">
      <g>
       <use xlink:href="#m863ab1b54c" x="137.303802" y="307.584" style="stroke: #000000; stroke-width: 0.8"/>
      </g>
     </g>
     <g id="text_2">
      <!-- 200 -->
      <g transform="translate(127.401224 322.161969) scale(0.11 -0.11)">
       <defs>
        <path id="AndaleMono-32" d="M 3066 0 
L 641 0 
L 641 372 
Q 1563 1400 1838 1750 
Q 2113 2100 2284 2484 
Q 2456 2869 2456 3250 
Q 2456 3619 2232 3831 
Q 2009 4044 1606 4044 
Q 1297 4044 775 3853 
L 703 4294 
Q 1175 4494 1691 4494 
Q 2281 4494 2642 4161 
Q 3003 3828 3003 3272 
Q 3003 2875 2817 2484 
Q 2631 2094 2340 1734 
Q 2050 1375 1209 447 
L 3066 447 
L 3066 0 
z
" transform="scale(0.015625)"/>
       </defs>
       <use xlink:href="#AndaleMono-32"/>
       <use xlink:href="#AndaleMono-30" x="60.009766"/>
       <use xlink:href="#AndaleMono-30" x="120.019531"/>
      </g>
     </g>
    </g>
    <g id="xtick_3">
     <g id="line2d_3">
      <g>
       <use xlink:href="#m863ab1b54c" x="200.774876" y="307.584" style="stroke: #000000; stroke-width: 0.8"/>
      </g>
     </g>
     <g id="text_3">
      <!-- 400 -->
      <g transform="translate(190.872298 322.161969) scale(0.11 -0.11)">
       <defs>
        <path id="AndaleMono-34" d="M 3353 1019 
L 2809 1019 
L 2809 0 
L 2297 0 
L 2297 1019 
L 378 1019 
L 378 1409 
L 2119 4409 
L 2809 4409 
L 2809 1466 
L 3353 1466 
L 3353 1019 
z
M 2297 1466 
L 2297 3903 
L 897 1466 
L 2297 1466 
z
" transform="scale(0.015625)"/>
       </defs>
       <use xlink:href="#AndaleMono-34"/>
       <use xlink:href="#AndaleMono-30" x="60.009766"/>
       <use xlink:href="#AndaleMono-30" x="120.019531"/>
      </g>
     </g>
    </g>
    <g id="xtick_4">
     <g id="line2d_4">
      <g>
       <use xlink:href="#m863ab1b54c" x="264.24595" y="307.584" style="stroke: #000000; stroke-width: 0.8"/>
      </g>
     </g>
     <g id="text_4">
      <!-- 600 -->
      <g transform="translate(254.343372 322.161969) scale(0.11 -0.11)">
       <defs>
        <path id="AndaleMono-36" d="M 1131 2297 
Q 1544 2631 2028 2631 
Q 2588 2631 2961 2273 
Q 3334 1916 3334 1350 
Q 3334 728 3003 322 
Q 2672 -84 2119 -84 
Q 1413 -84 1000 564 
Q 588 1213 588 2150 
Q 588 3150 1017 3822 
Q 1447 4494 2194 4494 
Q 2709 4494 3084 4341 
L 3003 3884 
Q 2569 4044 2209 4044 
Q 1700 4044 1415 3556 
Q 1131 3069 1131 2297 
z
M 1147 1856 
Q 1147 1291 1412 828 
Q 1678 366 2081 366 
Q 2422 366 2606 616 
Q 2791 866 2791 1306 
Q 2791 1713 2587 1947 
Q 2384 2181 2016 2181 
Q 1538 2181 1147 1856 
z
" transform="scale(0.015625)"/>
       </defs>
       <use xlink:href="#AndaleMono-36"/>
       <use xlink:href="#AndaleMono-30" x="60.009766"/>
       <use xlink:href="#AndaleMono-30" x="120.019531"/>
      </g>
     </g>
    </g>
    <g id="xtick_5">
     <g id="line2d_5">
      <g>
       <use xlink:href="#m863ab1b54c" x="327.717025" y="307.584" style="stroke: #000000; stroke-width: 0.8"/>
      </g>
     </g>
     <g id="text_5">
      <!-- 800 -->
      <g transform="translate(317.814447 322.161969) scale(0.11 -0.11)">
       <defs>
        <path id="AndaleMono-38" d="M 2363 2419 
Q 2813 2288 3061 1972 
Q 3309 1656 3309 1234 
Q 3309 628 2907 272 
Q 2506 -84 1919 -84 
Q 1303 -84 908 275 
Q 513 634 513 1228 
Q 513 1647 769 1965 
Q 1025 2284 1484 2419 
Q 1119 2513 898 2780 
Q 678 3047 678 3378 
Q 678 3803 1015 4148 
Q 1353 4494 1906 4494 
Q 2453 4494 2811 4150 
Q 3169 3806 3169 3378 
Q 3169 3056 2944 2786 
Q 2719 2516 2363 2419 
z
M 1906 2631 
Q 1922 2631 2056 2668 
Q 2191 2706 2286 2761 
Q 2381 2816 2462 2900 
Q 2544 2984 2594 3098 
Q 2644 3213 2644 3353 
Q 2644 3653 2428 3851 
Q 2213 4050 1906 4050 
Q 1609 4050 1396 3847 
Q 1184 3644 1184 3353 
Q 1184 3169 1261 3031 
Q 1338 2894 1452 2809 
Q 1566 2725 1714 2678 
Q 1863 2631 1906 2631 
z
M 1906 2194 
Q 1050 1944 1050 1253 
Q 1050 850 1309 608 
Q 1569 366 1919 366 
Q 2281 366 2529 605 
Q 2778 844 2778 1253 
Q 2778 1563 2606 1808 
Q 2434 2053 1906 2194 
z
" transform="scale(0.015625)"/>
       </defs>
       <use xlink:href="#AndaleMono-38"/>
       <use xlink:href="#AndaleMono-30" x="60.009766"/>
       <use xlink:href="#AndaleMono-30" x="120.019531"/>
      </g>
     </g>
    </g>
    <g id="xtick_6">
     <g id="line2d_6">
      <g>
       <use xlink:href="#m863ab1b54c" x="391.188099" y="307.584" style="stroke: #000000; stroke-width: 0.8"/>
      </g>
     </g>
     <g id="text_6">
      <!-- 1000 -->
      <g transform="translate(377.984662 322.161969) scale(0.11 -0.11)">
       <defs>
        <path id="AndaleMono-31" d="M 3181 0 
L 863 0 
L 863 447 
L 1797 447 
L 1797 3872 
L 916 3431 
L 916 3944 
L 1869 4434 
L 2309 4434 
L 2309 447 
L 3181 447 
L 3181 0 
z
" transform="scale(0.015625)"/>
       </defs>
       <use xlink:href="#AndaleMono-31"/>
       <use xlink:href="#AndaleMono-30" x="60.009766"/>
       <use xlink:href="#AndaleMono-30" x="120.019531"/>
       <use xlink:href="#AndaleMono-30" x="180.029297"/>
      </g>
     </g>
    </g>
   </g>
   <g id="matplotlib.axis_2">
    <g id="ytick_1">
     <g id="line2d_7">
      <defs>
       <path id="mc5d6fd9187" d="M 0 0 
L -3.5 0 
" style="stroke: #000000; stroke-width: 0.8"/>
      </defs>
      <g>
       <use xlink:href="#mc5d6fd9187" x="57.6" y="295.488" style="stroke: #000000; stroke-width: 0.8"/>
      </g>
     </g>
     <g id="text_7">
      <!-- 1.00 -->
      <g transform="translate(17.591406 299.276984) scale(0.11 -0.11)">
       <defs>
        <path id="AndaleMono-2212" d="M 3397 2047 
L 441 2047 
L 441 2456 
L 3397 2456 
L 3397 2047 
z
" transform="scale(0.015625)"/>
        <path id="AndaleMono-2e" d="M 1900 716 
Q 2066 716 2178 603 
Q 2291 491 2291 325 
Q 2291 156 2177 36 
Q 2063 -84 1900 -84 
Q 1741 -84 1628 36 
Q 1516 156 1516 325 
Q 1516 494 1627 605 
Q 1738 716 1900 716 
z
" transform="scale(0.015625)"/>
       </defs>
       <use xlink:href="#AndaleMono-2212"/>
       <use xlink:href="#AndaleMono-31" x="60.009766"/>
       <use xlink:href="#AndaleMono-2e" x="120.019531"/>
       <use xlink:href="#AndaleMono-30" x="180.029297"/>
       <use xlink:href="#AndaleMono-30" x="240.039062"/>
      </g>
     </g>
    </g>
    <g id="ytick_2">
     <g id="line2d_8">
      <g>
       <use xlink:href="#mc5d6fd9187" x="57.6" y="265.248" style="stroke: #000000; stroke-width: 0.8"/>
      </g>
     </g>
     <g id="text_8">
      <!-- 0.75 -->
      <g transform="translate(17.591406 269.036984) scale(0.11 -0.11)">
       <defs>
        <path id="AndaleMono-37" d="M 3238 4044 
L 1491 0 
L 966 0 
L 2688 3963 
L 622 3963 
L 622 4409 
L 3238 4409 
L 3238 4044 
z
" transform="scale(0.015625)"/>
        <path id="AndaleMono-35" d="M 1356 2631 
Q 1569 2688 1772 2688 
Q 2397 2688 2759 2305 
Q 3122 1922 3122 1350 
Q 3122 750 2700 333 
Q 2278 -84 1672 -84 
Q 1094 -84 703 109 
L 806 544 
Q 1231 366 1684 366 
Q 2088 366 2336 625 
Q 2584 884 2584 1350 
Q 2584 1791 2350 2028 
Q 2116 2266 1747 2266 
Q 1478 2266 1216 2163 
L 909 2303 
L 909 4409 
L 2925 4409 
L 2925 3963 
L 1356 3963 
L 1356 2631 
z
" transform="scale(0.015625)"/>
       </defs>
       <use xlink:href="#AndaleMono-2212"/>
       <use xlink:href="#AndaleMono-30" x="60.009766"/>
       <use xlink:href="#AndaleMono-2e" x="120.019531"/>
       <use xlink:href="#AndaleMono-37" x="180.029297"/>
       <use xlink:href="#AndaleMono-35" x="240.039062"/>
      </g>
     </g>
    </g>
    <g id="ytick_3">
     <g id="line2d_9">
      <g>
       <use xlink:href="#mc5d6fd9187" x="57.6" y="235.008" style="stroke: #000000; stroke-width: 0.8"/>
      </g>
     </g>
     <g id="text_9">
      <!-- 0.50 -->
      <g transform="translate(17.591406 238.796984) scale(0.11 -0.11)">
       <use xlink:href="#AndaleMono-2212"/>
       <use xlink:href="#AndaleMono-30" x="60.009766"/>
       <use xlink:href="#AndaleMono-2e" x="120.019531"/>
       <use xlink:href="#AndaleMono-35" x="180.029297"/>
       <use xlink:href="#AndaleMono-30" x="240.039062"/>
      </g>
     </g>
    </g>
    <g id="ytick_4">
     <g id="line2d_10">
      <g>
       <use xlink:href="#mc5d6fd9187" x="57.6" y="204.768" style="stroke: #000000; stroke-width: 0.8"/>
      </g>
     </g>
     <g id="text_10">
      <!-- 0.25 -->
      <g transform="translate(17.591406 208.556984) scale(0.11 -0.11)">
       <use xlink:href="#AndaleMono-2212"/>
       <use xlink:href="#AndaleMono-30" x="60.009766"/>
       <use xlink:href="#AndaleMono-2e" x="120.019531"/>
       <use xlink:href="#AndaleMono-32" x="180.029297"/>
       <use xlink:href="#AndaleMono-35" x="240.039062"/>
      </g>
     </g>
    </g>
    <g id="ytick_5">
     <g id="line2d_11">
      <g>
       <use xlink:href="#mc5d6fd9187" x="57.6" y="174.528" style="stroke: #000000; stroke-width: 0.8"/>
      </g>
     </g>
     <g id="text_11">
      <!-- 0.00 -->
      <g transform="translate(24.193125 178.316984) scale(0.11 -0.11)">
       <use xlink:href="#AndaleMono-30"/>
       <use xlink:href="#AndaleMono-2e" x="60.009766"/>
       <use xlink:href="#AndaleMono-30" x="120.019531"/>
       <use xlink:href="#AndaleMono-30" x="180.029297"/>
      </g>
     </g>
    </g>
    <g id="ytick_6">
     <g id="line2d_12">
      <g>
       <use xlink:href="#mc5d6fd9187" x="57.6" y="144.288" style="stroke: #000000; stroke-width: 0.8"/>
      </g>
     </g>
     <g id="text_12">
      <!-- 0.25 -->
      <g transform="translate(24.193125 148.076984) scale(0.11 -0.11)">
       <use xlink:href="#AndaleMono-30"/>
       <use xlink:href="#AndaleMono-2e" x="60.009766"/>
       <use xlink:href="#AndaleMono-32" x="120.019531"/>
       <use xlink:href="#AndaleMono-35" x="180.029297"/>
      </g>
     </g>
    </g>
    <g id="ytick_7">
     <g id="line2d_13">
      <g>
       <use xlink:href="#mc5d6fd9187" x="57.6" y="114.048" style="stroke: #000000; stroke-width: 0.8"/>
      </g>
     </g>
     <g id="text_13">
      <!-- 0.50 -->
      <g transform="translate(24.193125 117.836984) scale(0.11 -0.11)">
       <use xlink:href="#AndaleMono-30"/>
       <use xlink:href="#AndaleMono-2e" x="60.009766"/>
       <use xlink:href="#AndaleMono-35" x="120.019531"/>
       <use xlink:href="#AndaleMono-30" x="180.029297"/>
      </g>
     </g>
    </g>
    <g id="ytick_8">
     <g id="line2d_14">
      <g>
       <use xlink:href="#mc5d6fd9187" x="57.6" y="83.808" style="stroke: #000000; stroke-width: 0.8"/>
      </g>
     </g>
     <g id="text_14">
      <!-- 0.75 -->
      <g transform="translate(24.193125 87.596984) scale(0.11 -0.11)">
       <use xlink:href="#AndaleMono-30"/>
       <use xlink:href="#AndaleMono-2e" x="60.009766"/>
       <use xlink:href="#AndaleMono-37" x="120.019531"/>
       <use xlink:href="#AndaleMono-35" x="180.029297"/>
      </g>
     </g>
    </g>
    <g id="ytick_9">
     <g id="line2d_15">
      <g>
       <use xlink:href="#mc5d6fd9187" x="57.6" y="53.568" style="stroke: #000000; stroke-width: 0.8"/>
      </g>
     </g>
     <g id="text_15">
      <!-- 1.00 -->
      <g transform="translate(24.193125 57.356984) scale(0.11 -0.11)">
       <use xlink:href="#AndaleMono-31"/>
       <use xlink:href="#AndaleMono-2e" x="60.009766"/>
       <use xlink:href="#AndaleMono-30" x="120.019531"/>
       <use xlink:href="#AndaleMono-30" x="180.029297"/>
      </g>
     </g>
    </g>
   </g>
   <g id="line2d_16">
    <path d="M 73.832727 174.528 
L 74.150083 169.566696 
L 77.006281 167.951906 
L 78.275702 166.991852 
L 82.083967 163.299083 
L 84.305455 160.723254 
L 84.940165 159.961793 
L 85.574876 158.884156 
L 86.526942 156.770575 
L 89.38314 149.323566 
L 90.652562 145.293264 
L 92.239339 139.655769 
L 93.191405 135.329743 
L 94.778182 126.878113 
L 99.221157 102.501862 
L 103.664132 79.888489 
L 105.250909 71.243818 
L 106.202975 67.173455 
L 106.837686 65.17498 
L 107.472397 63.72609 
L 109.376529 59.971251 
L 110.01124 58.708695 
L 112.232727 55.50839 
L 112.867438 54.525903 
L 113.502149 53.875829 
L 114.13686 53.588966 
L 114.77157 53.596401 
L 115.406281 53.749416 
L 115.723636 53.906092 
L 116.358347 54.593786 
L 118.579835 57.723306 
L 122.388099 61.044452 
L 123.02281 61.359121 
L 123.657521 61.910616 
L 124.609587 63.207985 
L 126.196364 65.78248 
L 127.14843 67.295216 
L 127.78314 67.95412 
L 128.417851 68.345457 
L 129.369917 68.884468 
L 130.639339 70.119291 
L 131.90876 70.992252 
L 132.543471 71.69829 
L 134.130248 74.108975 
L 135.717025 76.664861 
L 136.986446 78.90785 
L 139.525289 82.773159 
L 141.112066 85.712189 
L 142.381488 87.982618 
L 143.650909 90.781441 
L 147.776529 100.263238 
L 153.488926 111.384534 
L 155.710413 115.775339 
L 156.662479 117.249362 
L 158.249256 119.247203 
L 160.788099 122.046338 
L 162.057521 123.419693 
L 164.279008 126.02073 
L 165.865785 127.448693 
L 166.817851 128.013984 
L 168.087273 128.498965 
L 169.991405 128.981488 
L 170.943471 129.225878 
L 171.895537 129.701208 
L 174.751736 131.469492 
L 178.56 133.609918 
L 180.146777 134.477012 
L 181.416198 135.40463 
L 183.955041 137.63965 
L 185.224463 139.012422 
L 189.984793 144.702682 
L 192.523636 148.219466 
L 194.427769 150.954697 
L 196.649256 154.312131 
L 201.092231 160.274054 
L 204.900496 164.580665 
L 206.487273 166.125583 
L 209.343471 168.483592 
L 210.612893 169.375416 
L 212.517025 170.368413 
L 215.373223 171.637238 
L 217.594711 172.22869 
L 220.450909 172.823779 
L 226.480661 173.506462 
L 233.779835 174.265412 
L 242.34843 175.196074 
L 252.186446 176.277611 
L 254.090579 176.675037 
L 257.264132 177.528185 
L 258.850909 178.227577 
L 262.024463 179.879748 
L 263.61124 181.080134 
L 266.467438 183.508806 
L 268.054215 185.195184 
L 272.49719 190.438641 
L 283.604628 206.035018 
L 287.730248 210.767721 
L 289.317025 212.291526 
L 291.538512 214.143821 
L 292.807934 214.955103 
L 299.155041 218.488376 
L 301.059174 219.70093 
L 302.01124 220.012182 
L 304.232727 220.557035 
L 305.502149 221.042016 
L 306.454215 221.607307 
L 307.406281 222.421058 
L 308.993058 224.065795 
L 311.849256 227.319652 
L 313.118678 228.689706 
L 315.657521 231.806638 
L 316.609587 233.280661 
L 318.196364 236.359241 
L 321.052562 242.001244 
L 322.956694 245.714595 
L 326.764959 253.719881 
L 328.669091 258.274559 
L 330.255868 261.685012 
L 333.746777 267.858042 
L 335.650909 270.649762 
L 339.141818 276.447177 
L 340.093884 277.742436 
L 340.728595 278.326344 
L 342.315372 279.489826 
L 343.267438 280.407036 
L 344.53686 281.10188 
L 345.17157 281.760784 
L 346.123636 283.27352 
L 347.393058 285.36419 
L 348.662479 287.145384 
L 349.29719 287.696879 
L 350.883967 288.62403 
L 351.836033 289.570741 
L 353.105455 290.815566 
L 353.740165 291.332694 
L 354.692231 292.538123 
L 356.279008 294.859379 
L 356.913719 295.306584 
L 357.865785 295.488 
L 358.500496 295.375342 
L 359.135207 294.893839 
L 359.769917 294.07608 
L 361.356694 291.556031 
L 362.30876 290.347305 
L 362.943471 289.084749 
L 363.895537 287.037083 
L 365.164959 284.660121 
L 365.799669 282.959172 
L 366.43438 280.655085 
L 367.386446 276.238917 
L 373.098843 246.554138 
L 375.002975 236.809458 
L 379.763306 210.767337 
L 380.715372 207.014142 
L 382.619504 200.707877 
L 383.888926 197.281736 
L 386.745124 190.170537 
L 387.69719 188.651119 
L 388.331901 188.03104 
L 388.649256 187.815296 
L 391.188099 184.874992 
L 393.726942 182.524906 
L 394.996364 181.484421 
L 396.900496 180.324401 
L 398.169917 179.654395 
L 398.487273 174.528 
L 398.487273 174.528 
" clip-path="url(#p9659d7d8a3)" style="fill: none; stroke: #87ceeb; stroke-opacity: 0.75; stroke-linecap: square"/>
   </g>
   <g id="patch_3">
    <path d="M 57.6 307.584 
L 57.6 41.472 
" style="fill: none; stroke: #000000; stroke-width: 0.8; stroke-linejoin: miter; stroke-linecap: square"/>
   </g>
   <g id="patch_4">
    <path d="M 414.72 307.584 
L 414.72 41.472 
" style="fill: none; stroke: #000000; stroke-width: 0.8; stroke-linejoin: miter; stroke-linecap: square"/>
   </g>
   <g id="patch_5">
    <path d="M 57.6 307.584 
L 414.72 307.584 
" style="fill: none; stroke: #000000; stroke-width: 0.8; stroke-linejoin: miter; stroke-linecap: square"/>
   </g>
   <g id="patch_6">
    <path d="M 57.6 41.472 
L 414.72 41.472 
" style="fill: none; stroke: #000000; stroke-width: 0.8; stroke-linejoin: miter; stroke-linecap: square"/>
   </g>
  </g>
 </g>
 <defs>
  <clipPath id="p9659d7d8a3">
   <rect x="57.6" y="41.472" width="357.12" height="266.112"/>
  </clipPath>
 </defs>
</svg>
