<?xml version="1.0" encoding="utf-8" standalone="no"?>
<!DOCTYPE svg PUBLIC "-//W3C//DTD SVG 1.1//EN"
  "http://www.w3.org/Graphics/SVG/1.1/DTD/svg11.dtd">
<svg xmlns:xlink="http://www.w3.org/1999/xlink" width="460.8pt" height="345.6pt" viewBox="0 0 460.8 345.6" xmlns="http://www.w3.org/2000/svg" version="1.1">
 <metadata>
  <rdf:RDF xmlns:dc="http://purl.org/dc/elements/1.1/" xmlns:cc="http://creativecommons.org/ns#" xmlns:rdf="http://www.w3.org/1999/02/22-rdf-syntax-ns#">
   <cc:Work>
    <dc:type rdf:resource="http://purl.org/dc/dcmitype/StillImage"/>
    <dc:date>2024-04-23T11:13:07.060523</dc:date>
    <dc:format>image/svg+xml</dc:format>
    <dc:creator>
     <cc:Agent>
      <dc:title>Matplotlib v3.8.3, https://matplotlib.org/</dc:title>
     </cc:Agent>
    </dc:creator>
   </cc:Work>
  </rdf:RDF>
 </metadata>
 <defs>
  <style type="text/css">*{stroke-linejoin: round; stroke-linecap: butt}</style>
 </defs>
 <g id="figure_1">
  <g id="patch_1">
   <path d="M 0 345.6 
L 460.8 345.6 
L 460.8 0 
L 0 0 
z
" style="fill: #ffffff"/>
  </g>
  <g id="axes_1">
   <g id="patch_2">
    <path d="M 57.6 307.584 
L 414.72 307.584 
L 414.72 41.472 
L 57.6 41.472 
z
" style="fill: #ffffff"/>
   </g>
   <g id="PolyCollection_1">
    <defs>
     <path id="m083f8faabd" d="M 73.832727 -171.072 
L 73.832727 -171.072 
L 74.150083 -171.718697 
L 74.467438 -171.733616 
L 74.784793 -171.748589 
L 75.102149 -171.763974 
L 75.419504 -171.780051 
L 75.73686 -171.796169 
L 76.054215 -171.81214 
L 76.37157 -171.828147 
L 76.688926 -171.844091 
L 77.006281 -171.859728 
L 77.323636 -171.874592 
L 77.640992 -171.888603 
L 77.958347 -171.901846 
L 78.275702 -171.915052 
L 78.593058 -171.928116 
L 78.910413 -171.940949 
L 79.227769 -171.953059 
L 79.545124 -171.965621 
L 79.862479 -171.9787 
L 80.179835 -171.992189 
L 80.49719 -172.00557 
L 80.814545 -172.018916 
L 81.131901 -172.032668 
L 81.449256 -172.046664 
L 81.766612 -172.060607 
L 82.083967 -172.074431 
L 82.401322 -172.088101 
L 82.718678 -172.101165 
L 83.036033 -172.113773 
L 83.353388 -172.126244 
L 83.670744 -172.138663 
L 83.988099 -172.150842 
L 84.305455 -172.145058 
L 84.62281 -172.139464 
L 84.940165 -172.133994 
L 85.257521 -172.128508 
L 85.574876 -172.122529 
L 85.892231 -172.116222 
L 86.209587 -172.110031 
L 86.526942 -172.104023 
L 86.844298 -172.097924 
L 87.161653 -172.091304 
L 87.479008 -172.084249 
L 87.796364 -172.077113 
L 88.113719 -172.070079 
L 88.431074 -172.063184 
L 88.74843 -172.055994 
L 89.065785 -172.048515 
L 89.38314 -172.041206 
L 89.700496 -172.034321 
L 90.017851 -172.027915 
L 90.335207 -172.021665 
L 90.652562 -172.015503 
L 90.969917 -172.009533 
L 91.287273 -172.003699 
L 91.604628 -171.997847 
L 91.921983 -171.991907 
L 92.239339 -171.980953 
L 92.556694 -171.966931 
L 92.87405 -171.946299 
L 93.191405 -171.925 
L 93.50876 -171.904854 
L 93.826116 -171.885716 
L 94.143471 -171.865983 
L 94.460826 -171.851876 
L 94.778182 -171.838773 
L 95.095537 -171.829896 
L 95.412893 -171.823457 
L 95.730248 -171.818767 
L 96.047603 -171.81737 
L 96.364959 -171.816182 
L 96.682314 -171.817451 
L 96.999669 -171.818128 
L 97.317025 -171.813765 
L 97.63438 -171.802085 
L 97.951736 -171.786859 
L 98.269091 -171.773845 
L 98.586446 -171.760683 
L 98.903802 -171.742543 
L 99.221157 -171.728565 
L 99.538512 -171.732517 
L 99.855868 -171.753571 
L 100.173223 -171.785117 
L 100.490579 -171.832713 
L 100.807934 -171.894917 
L 101.125289 -171.973932 
L 101.442645 -172.064871 
L 101.76 -172.17018 
L 102.077355 -172.287106 
L 102.394711 -172.418074 
L 102.712066 -172.558482 
L 103.029421 -172.709941 
L 103.346777 -172.868606 
L 103.664132 -173.025898 
L 103.981488 -173.18277 
L 104.298843 -173.342694 
L 104.616198 -173.514717 
L 104.933554 -173.689826 
L 105.250909 -173.877262 
L 105.568264 -174.068671 
L 105.88562 -174.274292 
L 106.202975 -174.491489 
L 106.520331 -174.72731 
L 106.837686 -174.975572 
L 107.155041 -175.235438 
L 107.472397 -175.500681 
L 107.789752 -175.77645 
L 108.107107 -176.063325 
L 108.424463 -176.363413 
L 108.741818 -176.675158 
L 109.059174 -176.993611 
L 109.376529 -177.323739 
L 109.693884 -177.655322 
L 110.01124 -177.994813 
L 110.328595 -178.334783 
L 110.64595 -178.674534 
L 110.963306 -179.005392 
L 111.280661 -179.330935 
L 111.598017 -179.66125 
L 111.915372 -179.994953 
L 112.232727 -180.31711 
L 112.550083 -180.653566 
L 112.867438 -181.001111 
L 113.184793 -181.367087 
L 113.502149 -181.7245 
L 113.819504 -182.08504 
L 114.13686 -182.436547 
L 114.454215 -182.790168 
L 114.77157 -183.129991 
L 115.088926 -183.46999 
L 115.406281 -183.799362 
L 115.723636 -184.125101 
L 116.040992 -184.446244 
L 116.358347 -184.76007 
L 116.675702 -185.069992 
L 116.993058 -185.370178 
L 117.310413 -185.656929 
L 117.627769 -185.953105 
L 117.945124 -186.266275 
L 118.262479 -186.587409 
L 118.579835 -186.909211 
L 118.89719 -187.231083 
L 119.214545 -187.567986 
L 119.531901 -187.90794 
L 119.849256 -188.21545 
L 120.166612 -188.504625 
L 120.483967 -188.781264 
L 120.801322 -189.042265 
L 121.118678 -189.274575 
L 121.436033 -189.483585 
L 121.753388 -189.665599 
L 122.070744 -189.830609 
L 122.388099 -189.975469 
L 122.705455 -190.097171 
L 123.02281 -190.200927 
L 123.340165 -190.291194 
L 123.657521 -190.37503 
L 123.974876 -190.463429 
L 124.292231 -190.546575 
L 124.609587 -190.637351 
L 124.926942 -190.716714 
L 125.244298 -190.802648 
L 125.561653 -190.872085 
L 125.879008 -190.94422 
L 126.196364 -191.008051 
L 126.513719 -191.072935 
L 126.831074 -191.100824 
L 127.14843 -191.120193 
L 127.465785 -191.11241 
L 127.78314 -191.117682 
L 128.100496 -191.115283 
L 128.417851 -191.113302 
L 128.735207 -191.095983 
L 129.052562 -191.064746 
L 129.369917 -191.008931 
L 129.687273 -190.957065 
L 130.004628 -190.903445 
L 130.321983 -190.848424 
L 130.639339 -190.805723 
L 130.956694 -190.749925 
L 131.27405 -190.717428 
L 131.591405 -190.715227 
L 131.90876 -190.701319 
L 132.226116 -190.694745 
L 132.543471 -190.732689 
L 132.860826 -190.78102 
L 133.178182 -190.841633 
L 133.495537 -190.864862 
L 133.812893 -190.893752 
L 134.130248 -190.924462 
L 134.447603 -190.979717 
L 134.764959 -191.088926 
L 135.082314 -191.245561 
L 135.399669 -191.407373 
L 135.717025 -191.609848 
L 136.03438 -191.818685 
L 136.351736 -192.018307 
L 136.669091 -192.246897 
L 136.986446 -192.537818 
L 137.303802 -192.882271 
L 137.621157 -193.310572 
L 137.938512 -193.704459 
L 138.255868 -194.071929 
L 138.573223 -194.442144 
L 138.890579 -194.809134 
L 139.207934 -195.239852 
L 139.525289 -195.725665 
L 139.842645 -196.255756 
L 140.16 -196.881929 
L 140.477355 -197.536526 
L 140.794711 -198.217436 
L 141.112066 -198.940836 
L 141.429421 -199.753462 
L 141.746777 -200.62916 
L 142.064132 -201.600015 
L 142.381488 -202.643894 
L 142.698843 -203.739729 
L 143.016198 -204.886 
L 143.333554 -206.065175 
L 143.650909 -207.257681 
L 143.968264 -208.455701 
L 144.28562 -209.72229 
L 144.602975 -211.0607 
L 144.920331 -212.458845 
L 145.237686 -213.916529 
L 145.555041 -215.400019 
L 145.872397 -216.906829 
L 146.189752 -218.458875 
L 146.507107 -220.05154 
L 146.824463 -221.653935 
L 147.141818 -223.335296 
L 147.459174 -225.076567 
L 147.776529 -226.875934 
L 148.093884 -228.677161 
L 148.41124 -230.50163 
L 148.728595 -232.291277 
L 149.04595 -234.085097 
L 149.363306 -235.901758 
L 149.680661 -237.793956 
L 149.998017 -239.67452 
L 150.315372 -241.586498 
L 150.632727 -243.48386 
L 150.950083 -245.347691 
L 151.267438 -247.212686 
L 151.584793 -249.040781 
L 151.902149 -250.821067 
L 152.219504 -252.611747 
L 152.53686 -254.385145 
L 152.854215 -256.110004 
L 153.17157 -257.756489 
L 153.488926 -259.311339 
L 153.806281 -260.867189 
L 154.123636 -262.3895 
L 154.440992 -263.925712 
L 154.758347 -265.455119 
L 155.075702 -266.890389 
L 155.393058 -268.270394 
L 155.710413 -269.595593 
L 156.027769 -270.822495 
L 156.345124 -272.034448 
L 156.662479 -273.267424 
L 156.979835 -274.472795 
L 157.29719 -275.582209 
L 157.614545 -276.614458 
L 157.931901 -277.503387 
L 158.249256 -278.439374 
L 158.566612 -279.39592 
L 158.883967 -280.322246 
L 159.201322 -281.260216 
L 159.518678 -282.149438 
L 159.836033 -283.008498 
L 160.153388 -283.850193 
L 160.470744 -284.596927 
L 160.788099 -285.318515 
L 161.105455 -286.032949 
L 161.42281 -286.700523 
L 161.740165 -287.290295 
L 162.057521 -287.808901 
L 162.374876 -288.244621 
L 162.692231 -288.622634 
L 163.009587 -288.966087 
L 163.326942 -289.283799 
L 163.644298 -289.61366 
L 163.961653 -289.95995 
L 164.279008 -290.332739 
L 164.596364 -290.660459 
L 164.913719 -290.970254 
L 165.231074 -291.213556 
L 165.54843 -291.41107 
L 165.865785 -291.593039 
L 166.18314 -291.775863 
L 166.500496 -291.917026 
L 166.817851 -291.986191 
L 167.135207 -292.032 
L 167.452562 -292.001185 
L 167.769917 -291.870358 
L 168.087273 -291.709368 
L 168.404628 -291.499395 
L 168.721983 -291.21688 
L 169.039339 -290.962805 
L 169.356694 -290.675714 
L 169.67405 -290.322463 
L 169.991405 -289.868713 
L 170.30876 -289.413206 
L 170.626116 -288.899146 
L 170.943471 -288.345354 
L 171.260826 -287.750188 
L 171.578182 -287.171997 
L 171.895537 -286.617364 
L 172.212893 -286.060396 
L 172.530248 -285.488196 
L 172.847603 -284.918519 
L 173.164959 -284.329166 
L 173.482314 -283.790846 
L 173.799669 -283.315049 
L 174.117025 -282.834916 
L 174.43438 -282.380811 
L 174.751736 -281.851603 
L 175.069091 -281.334848 
L 175.386446 -280.852856 
L 175.703802 -280.372796 
L 176.021157 -279.972169 
L 176.338512 -279.630868 
L 176.655868 -279.307011 
L 176.973223 -278.992103 
L 177.290579 -278.688859 
L 177.607934 -278.405351 
L 177.925289 -278.175006 
L 178.242645 -278.053278 
L 178.56 -277.914358 
L 178.877355 -277.815557 
L 179.194711 -277.796265 
L 179.512066 -277.798037 
L 179.829421 -277.778429 
L 180.146777 -277.724566 
L 180.464132 -277.613449 
L 180.781488 -277.537277 
L 181.098843 -277.468992 
L 181.416198 -277.407557 
L 181.733554 -277.377883 
L 182.050909 -277.360469 
L 182.368264 -277.39852 
L 182.68562 -277.450951 
L 183.002975 -277.482479 
L 183.320331 -277.511784 
L 183.637686 -277.509129 
L 183.955041 -277.462195 
L 184.272397 -277.398609 
L 184.589752 -277.317885 
L 184.907107 -277.188414 
L 185.224463 -276.974666 
L 185.541818 -276.736563 
L 185.859174 -276.434974 
L 186.176529 -276.052198 
L 186.493884 -275.623131 
L 186.81124 -275.124504 
L 187.128595 -274.627623 
L 187.44595 -274.112924 
L 187.763306 -273.57961 
L 188.080661 -273.04969 
L 188.398017 -272.426113 
L 188.715372 -271.753395 
L 189.032727 -271.112683 
L 189.350083 -270.427223 
L 189.667438 -269.735772 
L 189.984793 -269.097459 
L 190.302149 -268.484647 
L 190.619504 -267.832976 
L 190.93686 -267.165347 
L 191.254215 -266.508288 
L 191.57157 -265.916798 
L 191.888926 -265.276608 
L 192.206281 -264.610631 
L 192.523636 -263.975287 
L 192.840992 -263.347002 
L 193.158347 -262.690438 
L 193.475702 -262.005093 
L 193.793058 -261.282741 
L 194.110413 -260.558181 
L 194.427769 -259.854272 
L 194.745124 -259.204669 
L 195.062479 -258.668949 
L 195.379835 -258.121899 
L 195.69719 -257.595383 
L 196.014545 -257.071072 
L 196.331901 -256.511957 
L 196.649256 -256.018184 
L 196.966612 -255.545794 
L 197.283967 -255.082437 
L 197.601322 -254.655768 
L 197.918678 -254.320012 
L 198.236033 -253.971983 
L 198.553388 -253.584095 
L 198.870744 -253.218278 
L 199.188099 -252.806092 
L 199.505455 -252.360193 
L 199.82281 -251.951588 
L 200.140165 -251.604711 
L 200.457521 -251.276466 
L 200.774876 -251.003525 
L 201.092231 -250.718868 
L 201.409587 -250.461167 
L 201.726942 -250.196015 
L 202.044298 -249.922112 
L 202.361653 -249.672798 
L 202.679008 -249.398503 
L 202.996364 -249.125579 
L 203.313719 -248.83976 
L 203.631074 -248.54283 
L 203.94843 -248.263899 
L 204.265785 -247.975917 
L 204.58314 -247.669154 
L 204.900496 -247.347522 
L 205.217851 -247.034695 
L 205.535207 -246.730748 
L 205.852562 -246.403572 
L 206.169917 -246.091545 
L 206.487273 -245.816331 
L 206.804628 -245.529366 
L 207.121983 -245.274184 
L 207.439339 -245.010688 
L 207.756694 -244.722305 
L 208.07405 -244.413197 
L 208.391405 -244.067526 
L 208.70876 -243.761991 
L 209.026116 -243.517207 
L 209.343471 -243.228788 
L 209.660826 -242.949401 
L 209.978182 -242.697302 
L 210.295537 -242.39331 
L 210.612893 -242.06684 
L 210.930248 -241.713084 
L 211.247603 -241.352054 
L 211.564959 -241.008068 
L 211.882314 -240.62444 
L 212.199669 -240.274413 
L 212.517025 -239.922974 
L 212.83438 -239.519705 
L 213.151736 -239.066616 
L 213.469091 -238.573533 
L 213.786446 -238.145014 
L 214.103802 -237.751112 
L 214.421157 -237.344122 
L 214.738512 -236.96492 
L 215.055868 -236.558709 
L 215.373223 -236.085925 
L 215.690579 -235.561871 
L 216.007934 -234.987194 
L 216.325289 -234.459557 
L 216.642645 -233.976463 
L 216.96 -233.439785 
L 217.277355 -232.883028 
L 217.594711 -232.320613 
L 217.912066 -231.705632 
L 218.229421 -231.00012 
L 218.546777 -230.269214 
L 218.864132 -229.555915 
L 219.181488 -228.825539 
L 219.498843 -228.112159 
L 219.816198 -227.382226 
L 220.133554 -226.567041 
L 220.450909 -225.697528 
L 220.768264 -224.793953 
L 221.08562 -223.849275 
L 221.402975 -222.884087 
L 221.720331 -221.867016 
L 222.037686 -220.823426 
L 222.355041 -219.748745 
L 222.672397 -218.604507 
L 222.989752 -217.424411 
L 223.307107 -216.208085 
L 223.624463 -214.993118 
L 223.941818 -213.756991 
L 224.259174 -212.500748 
L 224.576529 -211.230408 
L 224.893884 -209.938101 
L 225.21124 -208.613165 
L 225.528595 -207.266465 
L 225.84595 -205.914787 
L 226.163306 -204.575741 
L 226.480661 -203.239134 
L 226.798017 -201.894096 
L 227.115372 -200.551376 
L 227.432727 -199.203507 
L 227.750083 -197.857142 
L 228.067438 -196.523471 
L 228.384793 -195.22618 
L 228.702149 -193.97216 
L 229.019504 -192.739685 
L 229.33686 -191.501804 
L 229.654215 -190.302344 
L 229.97157 -189.098011 
L 230.288926 -187.891593 
L 230.606281 -186.719892 
L 230.923636 -185.573794 
L 231.240992 -184.480571 
L 231.558347 -183.428793 
L 231.875702 -182.382105 
L 232.193058 -181.372152 
L 232.510413 -180.356132 
L 232.827769 -179.37169 
L 233.145124 -178.447427 
L 233.462479 -177.582322 
L 233.779835 -176.802607 
L 234.09719 -176.007326 
L 234.414545 -175.205043 
L 234.731901 -174.420326 
L 235.049256 -173.638359 
L 235.366612 -172.849867 
L 235.683967 -172.076599 
L 236.001322 -171.384185 
L 236.318678 -170.759815 
L 236.636033 -170.067401 
L 236.953388 -169.294133 
L 237.270744 -168.505641 
L 237.588099 -167.723674 
L 237.905455 -166.938957 
L 238.22281 -166.136674 
L 238.540165 -165.341393 
L 238.857521 -164.561678 
L 239.174876 -163.696573 
L 239.492231 -162.77231 
L 239.809587 -161.787868 
L 240.126942 -160.771848 
L 240.444298 -159.761895 
L 240.761653 -158.715207 
L 241.079008 -157.663429 
L 241.396364 -156.570206 
L 241.713719 -155.424108 
L 242.031074 -154.252407 
L 242.34843 -153.045989 
L 242.665785 -151.841656 
L 242.98314 -150.642196 
L 243.300496 -149.404315 
L 243.617851 -148.17184 
L 243.935207 -146.91782 
L 244.252562 -145.620529 
L 244.569917 -144.286858 
L 244.887273 -142.940493 
L 245.204628 -141.592624 
L 245.521983 -140.249904 
L 245.839339 -138.904866 
L 246.156694 -137.568259 
L 246.47405 -136.229213 
L 246.791405 -134.877535 
L 247.10876 -133.530835 
L 247.426116 -132.205899 
L 247.743471 -130.913592 
L 248.060826 -129.643252 
L 248.378182 -128.387009 
L 248.695537 -127.150882 
L 249.012893 -125.935915 
L 249.330248 -124.719589 
L 249.647603 -123.539493 
L 249.964959 -122.395255 
L 250.282314 -121.320574 
L 250.599669 -120.276984 
L 250.917025 -119.259913 
L 251.23438 -118.294725 
L 251.551736 -117.350047 
L 251.869091 -116.446472 
L 252.186446 -115.576959 
L 252.503802 -114.761774 
L 252.821157 -114.031841 
L 253.138512 -113.318461 
L 253.455868 -112.588085 
L 253.773223 -111.874786 
L 254.090579 -111.14388 
L 254.407934 -110.438368 
L 254.725289 -109.823387 
L 255.042645 -109.260972 
L 255.36 -108.704215 
L 255.677355 -108.167537 
L 255.994711 -107.684443 
L 256.312066 -107.156806 
L 256.629421 -106.582129 
L 256.946777 -106.058075 
L 257.264132 -105.585291 
L 257.581488 -105.17908 
L 257.898843 -104.799878 
L 258.216198 -104.392888 
L 258.533554 -103.998986 
L 258.850909 -103.570467 
L 259.168264 -103.077384 
L 259.48562 -102.624295 
L 259.802975 -102.221026 
L 260.120331 -101.869587 
L 260.437686 -101.51956 
L 260.755041 -101.135932 
L 261.072397 -100.791946 
L 261.389752 -100.430916 
L 261.707107 -100.07716 
L 262.024463 -99.75069 
L 262.341818 -99.446698 
L 262.659174 -99.194599 
L 262.976529 -98.915212 
L 263.293884 -98.626793 
L 263.61124 -98.382009 
L 263.928595 -98.076474 
L 264.24595 -97.730803 
L 264.563306 -97.421695 
L 264.880661 -97.133312 
L 265.198017 -96.869816 
L 265.515372 -96.614634 
L 265.832727 -96.327669 
L 266.150083 -96.052455 
L 266.467438 -95.740428 
L 266.784793 -95.413252 
L 267.102149 -95.109305 
L 267.419504 -94.796478 
L 267.73686 -94.474846 
L 268.054215 -94.168083 
L 268.37157 -93.880101 
L 268.688926 -93.60117 
L 269.006281 -93.30424 
L 269.323636 -93.018421 
L 269.640992 -92.745497 
L 269.958347 -92.471202 
L 270.275702 -92.221888 
L 270.593058 -91.947985 
L 270.910413 -91.682833 
L 271.227769 -91.425132 
L 271.545124 -91.140475 
L 271.862479 -90.867534 
L 272.179835 -90.539289 
L 272.49719 -90.192412 
L 272.814545 -89.783807 
L 273.131901 -89.337908 
L 273.449256 -88.925722 
L 273.766612 -88.559905 
L 274.083967 -88.172017 
L 274.401322 -87.823988 
L 274.718678 -87.488232 
L 275.036033 -87.061563 
L 275.353388 -86.598206 
L 275.670744 -86.125816 
L 275.988099 -85.632043 
L 276.305455 -85.072928 
L 276.62281 -84.548617 
L 276.940165 -84.022101 
L 277.257521 -83.475051 
L 277.574876 -82.939331 
L 277.892231 -82.289728 
L 278.209587 -81.585819 
L 278.526942 -80.861259 
L 278.844298 -80.138907 
L 279.161653 -79.453562 
L 279.479008 -78.796998 
L 279.796364 -78.168713 
L 280.113719 -77.533369 
L 280.431074 -76.867392 
L 280.74843 -76.227202 
L 281.065785 -75.635712 
L 281.38314 -74.978653 
L 281.700496 -74.311024 
L 282.017851 -73.659353 
L 282.335207 -73.046541 
L 282.652562 -72.408228 
L 282.969917 -71.716777 
L 283.287273 -71.031317 
L 283.604628 -70.390605 
L 283.921983 -69.717887 
L 284.239339 -69.09431 
L 284.556694 -68.56439 
L 284.87405 -68.031076 
L 285.191405 -67.516377 
L 285.50876 -67.019496 
L 285.826116 -66.520869 
L 286.143471 -66.091802 
L 286.460826 -65.709026 
L 286.778182 -65.407437 
L 287.095537 -65.169334 
L 287.412893 -64.955586 
L 287.730248 -64.826115 
L 288.047603 -64.745391 
L 288.364959 -64.681805 
L 288.682314 -64.634871 
L 288.999669 -64.632216 
L 289.317025 -64.661521 
L 289.63438 -64.693049 
L 289.951736 -64.74548 
L 290.269091 -64.783531 
L 290.586446 -64.766117 
L 290.903802 -64.736443 
L 291.221157 -64.675008 
L 291.538512 -64.606723 
L 291.855868 -64.530551 
L 292.173223 -64.419434 
L 292.490579 -64.365571 
L 292.807934 -64.345963 
L 293.125289 -64.347735 
L 293.442645 -64.328443 
L 293.76 -64.229642 
L 294.077355 -64.090722 
L 294.394711 -63.968994 
L 294.712066 -63.738649 
L 295.029421 -63.455141 
L 295.346777 -63.151897 
L 295.664132 -62.836989 
L 295.981488 -62.513132 
L 296.298843 -62.171831 
L 296.616198 -61.771204 
L 296.933554 -61.291144 
L 297.250909 -60.809152 
L 297.568264 -60.292397 
L 297.88562 -59.763189 
L 298.202975 -59.309084 
L 298.520331 -58.828951 
L 298.837686 -58.353154 
L 299.155041 -57.814834 
L 299.472397 -57.225481 
L 299.789752 -56.655804 
L 300.107107 -56.083604 
L 300.424463 -55.526636 
L 300.741818 -54.972003 
L 301.059174 -54.393812 
L 301.376529 -53.798646 
L 301.693884 -53.244854 
L 302.01124 -52.730794 
L 302.328595 -52.275287 
L 302.64595 -51.821537 
L 302.963306 -51.468286 
L 303.280661 -51.181195 
L 303.598017 -50.92712 
L 303.915372 -50.644605 
L 304.232727 -50.434632 
L 304.550083 -50.273642 
L 304.867438 -50.142815 
L 305.184793 -50.112 
L 305.502149 -50.157809 
L 305.819504 -50.226974 
L 306.13686 -50.368137 
L 306.454215 -50.550961 
L 306.77157 -50.73293 
L 307.088926 -50.930444 
L 307.406281 -51.173746 
L 307.723636 -51.483541 
L 308.040992 -51.811261 
L 308.358347 -52.18405 
L 308.675702 -52.53034 
L 308.993058 -52.860201 
L 309.310413 -53.177913 
L 309.627769 -53.521366 
L 309.945124 -53.899379 
L 310.262479 -54.335099 
L 310.579835 -54.853705 
L 310.89719 -55.443477 
L 311.214545 -56.111051 
L 311.531901 -56.825485 
L 311.849256 -57.547073 
L 312.166612 -58.293807 
L 312.483967 -59.135502 
L 312.801322 -59.994562 
L 313.118678 -60.883784 
L 313.436033 -61.821754 
L 313.753388 -62.74808 
L 314.070744 -63.704626 
L 314.388099 -64.640613 
L 314.705455 -65.529542 
L 315.02281 -66.561791 
L 315.340165 -67.671205 
L 315.657521 -68.876576 
L 315.974876 -70.109552 
L 316.292231 -71.321505 
L 316.609587 -72.548407 
L 316.926942 -73.873606 
L 317.244298 -75.253611 
L 317.561653 -76.688881 
L 317.879008 -78.218288 
L 318.196364 -79.7545 
L 318.513719 -81.276811 
L 318.831074 -82.832661 
L 319.14843 -84.387511 
L 319.465785 -86.033996 
L 319.78314 -87.758855 
L 320.100496 -89.532253 
L 320.417851 -91.322933 
L 320.735207 -93.103219 
L 321.052562 -94.931314 
L 321.369917 -96.796309 
L 321.687273 -98.66014 
L 322.004628 -100.557502 
L 322.321983 -102.46948 
L 322.639339 -104.350044 
L 322.956694 -106.242242 
L 323.27405 -108.058903 
L 323.591405 -109.852723 
L 323.90876 -111.64237 
L 324.226116 -113.466839 
L 324.543471 -115.268066 
L 324.860826 -117.067433 
L 325.178182 -118.808704 
L 325.495537 -120.490065 
L 325.812893 -122.09246 
L 326.130248 -123.685125 
L 326.447603 -125.237171 
L 326.764959 -126.743981 
L 327.082314 -128.227471 
L 327.399669 -129.685155 
L 327.717025 -131.0833 
L 328.03438 -132.42171 
L 328.351736 -133.688299 
L 328.669091 -134.886319 
L 328.986446 -136.078825 
L 329.303802 -137.258 
L 329.621157 -138.404271 
L 329.938512 -139.500106 
L 330.255868 -140.543985 
L 330.573223 -141.51484 
L 330.890579 -142.390538 
L 331.207934 -143.203164 
L 331.525289 -143.926564 
L 331.842645 -144.607474 
L 332.16 -145.262071 
L 332.477355 -145.888244 
L 332.794711 -146.418335 
L 333.112066 -146.904148 
L 333.429421 -147.334866 
L 333.746777 -147.701856 
L 334.064132 -148.072071 
L 334.381488 -148.439541 
L 334.698843 -148.833428 
L 335.016198 -149.261729 
L 335.333554 -149.606182 
L 335.650909 -149.897103 
L 335.968264 -150.125693 
L 336.28562 -150.325315 
L 336.602975 -150.534152 
L 336.920331 -150.736627 
L 337.237686 -150.898439 
L 337.555041 -151.055074 
L 337.872397 -151.164283 
L 338.189752 -151.219538 
L 338.507107 -151.250248 
L 338.824463 -151.279138 
L 339.141818 -151.302367 
L 339.459174 -151.36298 
L 339.776529 -151.411311 
L 340.093884 -151.449255 
L 340.41124 -151.442681 
L 340.728595 -151.428773 
L 341.04595 -151.426572 
L 341.363306 -151.394075 
L 341.680661 -151.338277 
L 341.998017 -151.295576 
L 342.315372 -151.240555 
L 342.632727 -151.186935 
L 342.950083 -151.135069 
L 343.267438 -151.079254 
L 343.584793 -151.048017 
L 343.902149 -151.030698 
L 344.219504 -151.028717 
L 344.53686 -151.026318 
L 344.854215 -151.03159 
L 345.17157 -151.023807 
L 345.488926 -151.043176 
L 345.806281 -151.071065 
L 346.123636 -151.135949 
L 346.440992 -151.19978 
L 346.758347 -151.271915 
L 347.075702 -151.341352 
L 347.393058 -151.427286 
L 347.710413 -151.506649 
L 348.027769 -151.597425 
L 348.345124 -151.680571 
L 348.662479 -151.76897 
L 348.979835 -151.852806 
L 349.29719 -151.943073 
L 349.614545 -152.046829 
L 349.931901 -152.168531 
L 350.249256 -152.313391 
L 350.566612 -152.478401 
L 350.883967 -152.660415 
L 351.201322 -152.869425 
L 351.518678 -153.101735 
L 351.836033 -153.362736 
L 352.153388 -153.639375 
L 352.470744 -153.92855 
L 352.788099 -154.23606 
L 353.105455 -154.576014 
L 353.42281 -154.912917 
L 353.740165 -155.234789 
L 354.057521 -155.556591 
L 354.374876 -155.877725 
L 354.692231 -156.190895 
L 355.009587 -156.487071 
L 355.326942 -156.773822 
L 355.644298 -157.074008 
L 355.961653 -157.38393 
L 356.279008 -157.697756 
L 356.596364 -158.018899 
L 356.913719 -158.344638 
L 357.231074 -158.67401 
L 357.54843 -159.014009 
L 357.865785 -159.353832 
L 358.18314 -159.707453 
L 358.500496 -160.05896 
L 358.817851 -160.4195 
L 359.135207 -160.776913 
L 359.452562 -161.142889 
L 359.769917 -161.490434 
L 360.087273 -161.82689 
L 360.404628 -162.149047 
L 360.721983 -162.48275 
L 361.039339 -162.813065 
L 361.356694 -163.138608 
L 361.67405 -163.469466 
L 361.991405 -163.809217 
L 362.30876 -164.149187 
L 362.626116 -164.488678 
L 362.943471 -164.820261 
L 363.260826 -165.150389 
L 363.578182 -165.468842 
L 363.895537 -165.780587 
L 364.212893 -166.080675 
L 364.530248 -166.36755 
L 364.847603 -166.643319 
L 365.164959 -166.908562 
L 365.482314 -167.168428 
L 365.799669 -167.41669 
L 366.117025 -167.652511 
L 366.43438 -167.869708 
L 366.751736 -168.075329 
L 367.069091 -168.266738 
L 367.386446 -168.454174 
L 367.703802 -168.629283 
L 368.021157 -168.801306 
L 368.338512 -168.96123 
L 368.655868 -169.118102 
L 368.973223 -169.275394 
L 369.290579 -169.434059 
L 369.607934 -169.585518 
L 369.925289 -169.725926 
L 370.242645 -169.856894 
L 370.56 -169.97382 
L 370.877355 -170.079129 
L 371.194711 -170.170068 
L 371.512066 -170.249083 
L 371.829421 -170.311287 
L 372.146777 -170.358883 
L 372.464132 -170.390429 
L 372.781488 -170.411483 
L 373.098843 -170.415435 
L 373.416198 -170.401457 
L 373.733554 -170.383317 
L 374.050909 -170.370155 
L 374.368264 -170.357141 
L 374.68562 -170.341915 
L 375.002975 -170.330235 
L 375.320331 -170.325872 
L 375.637686 -170.326549 
L 375.955041 -170.327818 
L 376.272397 -170.32663 
L 376.589752 -170.325233 
L 376.907107 -170.320543 
L 377.224463 -170.314104 
L 377.541818 -170.305227 
L 377.859174 -170.292124 
L 378.176529 -170.278017 
L 378.493884 -170.258454 
L 378.81124 -170.239654 
L 379.128595 -170.21984 
L 379.44595 -170.198867 
L 379.763306 -170.178554 
L 380.080661 -170.16484 
L 380.398017 -170.154184 
L 380.715372 -170.14853 
L 381.032727 -170.142949 
L 381.350083 -170.13737 
L 381.667438 -170.131638 
L 381.984793 -170.125695 
L 382.302149 -170.119643 
L 382.619504 -170.113413 
L 382.93686 -170.106681 
L 383.254215 -170.099499 
L 383.57157 -170.09212 
L 383.888926 -170.085002 
L 384.206281 -170.078149 
L 384.523636 -170.071126 
L 384.840992 -170.063967 
L 385.158347 -170.056854 
L 385.475702 -170.05014 
L 385.793058 -170.043908 
L 386.110413 -170.037729 
L 386.427769 -170.031325 
L 386.745124 -170.024762 
L 387.062479 -170.018484 
L 387.379835 -170.012652 
L 387.69719 -170.006789 
L 388.014545 -170.000753 
L 388.331901 -169.994476 
L 388.649256 -169.988502 
L 388.966612 -170.000921 
L 389.283967 -170.013392 
L 389.601322 -170.025999 
L 389.918678 -170.039064 
L 390.236033 -170.052734 
L 390.553388 -170.066558 
L 390.870744 -170.080501 
L 391.188099 -170.094497 
L 391.505455 -170.108249 
L 391.82281 -170.121594 
L 392.140165 -170.134976 
L 392.457521 -170.148465 
L 392.774876 -170.161544 
L 393.092231 -170.174106 
L 393.409587 -170.186216 
L 393.726942 -170.199049 
L 394.044298 -170.212113 
L 394.361653 -170.225319 
L 394.679008 -170.238562 
L 394.996364 -170.252573 
L 395.313719 -170.267437 
L 395.631074 -170.283074 
L 395.94843 -170.299018 
L 396.265785 -170.315025 
L 396.58314 -170.330996 
L 396.900496 -170.347114 
L 397.217851 -170.363191 
L 397.535207 -170.378576 
L 397.852562 -170.393549 
L 398.169917 -170.408467 
L 398.487273 -171.072 
L 398.487273 -171.072 
L 398.487273 -171.072 
L 398.169917 -171.072 
L 397.852562 -171.072 
L 397.535207 -171.072 
L 397.217851 -171.072 
L 396.900496 -171.072 
L 396.58314 -171.072 
L 396.265785 -171.072 
L 395.94843 -171.072 
L 395.631074 -171.072 
L 395.313719 -171.072 
L 394.996364 -171.072 
L 394.679008 -171.072 
L 394.361653 -171.072 
L 394.044298 -171.072 
L 393.726942 -171.072 
L 393.409587 -171.072 
L 393.092231 -171.072 
L 392.774876 -171.072 
L 392.457521 -171.072 
L 392.140165 -171.072 
L 391.82281 -171.072 
L 391.505455 -171.072 
L 391.188099 -171.072 
L 390.870744 -171.072 
L 390.553388 -171.072 
L 390.236033 -171.072 
L 389.918678 -171.072 
L 389.601322 -171.072 
L 389.283967 -171.072 
L 388.966612 -171.072 
L 388.649256 -171.072 
L 388.331901 -171.072 
L 388.014545 -171.072 
L 387.69719 -171.072 
L 387.379835 -171.072 
L 387.062479 -171.072 
L 386.745124 -171.072 
L 386.427769 -171.072 
L 386.110413 -171.072 
L 385.793058 -171.072 
L 385.475702 -171.072 
L 385.158347 -171.072 
L 384.840992 -171.072 
L 384.523636 -171.072 
L 384.206281 -171.072 
L 383.888926 -171.072 
L 383.57157 -171.072 
L 383.254215 -171.072 
L 382.93686 -171.072 
L 382.619504 -171.072 
L 382.302149 -171.072 
L 381.984793 -171.072 
L 381.667438 -171.072 
L 381.350083 -171.072 
L 381.032727 -171.072 
L 380.715372 -171.072 
L 380.398017 -171.072 
L 380.080661 -171.072 
L 379.763306 -171.072 
L 379.44595 -171.072 
L 379.128595 -171.072 
L 378.81124 -171.072 
L 378.493884 -171.072 
L 378.176529 -171.072 
L 377.859174 -171.072 
L 377.541818 -171.072 
L 377.224463 -171.072 
L 376.907107 -171.072 
L 376.589752 -171.072 
L 376.272397 -171.072 
L 375.955041 -171.072 
L 375.637686 -171.072 
L 375.320331 -171.072 
L 375.002975 -171.072 
L 374.68562 -171.072 
L 374.368264 -171.072 
L 374.050909 -171.072 
L 373.733554 -171.072 
L 373.416198 -171.072 
L 373.098843 -171.072 
L 372.781488 -171.072 
L 372.464132 -171.072 
L 372.146777 -171.072 
L 371.829421 -171.072 
L 371.512066 -171.072 
L 371.194711 -171.072 
L 370.877355 -171.072 
L 370.56 -171.072 
L 370.242645 -171.072 
L 369.925289 -171.072 
L 369.607934 -171.072 
L 369.290579 -171.072 
L 368.973223 -171.072 
L 368.655868 -171.072 
L 368.338512 -171.072 
L 368.021157 -171.072 
L 367.703802 -171.072 
L 367.386446 -171.072 
L 367.069091 -171.072 
L 366.751736 -171.072 
L 366.43438 -171.072 
L 366.117025 -171.072 
L 365.799669 -171.072 
L 365.482314 -171.072 
L 365.164959 -171.072 
L 364.847603 -171.072 
L 364.530248 -171.072 
L 364.212893 -171.072 
L 363.895537 -171.072 
L 363.578182 -171.072 
L 363.260826 -171.072 
L 362.943471 -171.072 
L 362.626116 -171.072 
L 362.30876 -171.072 
L 361.991405 -171.072 
L 361.67405 -171.072 
L 361.356694 -171.072 
L 361.039339 -171.072 
L 360.721983 -171.072 
L 360.404628 -171.072 
L 360.087273 -171.072 
L 359.769917 -171.072 
L 359.452562 -171.072 
L 359.135207 -171.072 
L 358.817851 -171.072 
L 358.500496 -171.072 
L 358.18314 -171.072 
L 357.865785 -171.072 
L 357.54843 -171.072 
L 357.231074 -171.072 
L 356.913719 -171.072 
L 356.596364 -171.072 
L 356.279008 -171.072 
L 355.961653 -171.072 
L 355.644298 -171.072 
L 355.326942 -171.072 
L 355.009587 -171.072 
L 354.692231 -171.072 
L 354.374876 -171.072 
L 354.057521 -171.072 
L 353.740165 -171.072 
L 353.42281 -171.072 
L 353.105455 -171.072 
L 352.788099 -171.072 
L 352.470744 -171.072 
L 352.153388 -171.072 
L 351.836033 -171.072 
L 351.518678 -171.072 
L 351.201322 -171.072 
L 350.883967 -171.072 
L 350.566612 -171.072 
L 350.249256 -171.072 
L 349.931901 -171.072 
L 349.614545 -171.072 
L 349.29719 -171.072 
L 348.979835 -171.072 
L 348.662479 -171.072 
L 348.345124 -171.072 
L 348.027769 -171.072 
L 347.710413 -171.072 
L 347.393058 -171.072 
L 347.075702 -171.072 
L 346.758347 -171.072 
L 346.440992 -171.072 
L 346.123636 -171.072 
L 345.806281 -171.072 
L 345.488926 -171.072 
L 345.17157 -171.072 
L 344.854215 -171.072 
L 344.53686 -171.072 
L 344.219504 -171.072 
L 343.902149 -171.072 
L 343.584793 -171.072 
L 343.267438 -171.072 
L 342.950083 -171.072 
L 342.632727 -171.072 
L 342.315372 -171.072 
L 341.998017 -171.072 
L 341.680661 -171.072 
L 341.363306 -171.072 
L 341.04595 -171.072 
L 340.728595 -171.072 
L 340.41124 -171.072 
L 340.093884 -171.072 
L 339.776529 -171.072 
L 339.459174 -171.072 
L 339.141818 -171.072 
L 338.824463 -171.072 
L 338.507107 -171.072 
L 338.189752 -171.072 
L 337.872397 -171.072 
L 337.555041 -171.072 
L 337.237686 -171.072 
L 336.920331 -171.072 
L 336.602975 -171.072 
L 336.28562 -171.072 
L 335.968264 -171.072 
L 335.650909 -171.072 
L 335.333554 -171.072 
L 335.016198 -171.072 
L 334.698843 -171.072 
L 334.381488 -171.072 
L 334.064132 -171.072 
L 333.746777 -171.072 
L 333.429421 -171.072 
L 333.112066 -171.072 
L 332.794711 -171.072 
L 332.477355 -171.072 
L 332.16 -171.072 
L 331.842645 -171.072 
L 331.525289 -171.072 
L 331.207934 -171.072 
L 330.890579 -171.072 
L 330.573223 -171.072 
L 330.255868 -171.072 
L 329.938512 -171.072 
L 329.621157 -171.072 
L 329.303802 -171.072 
L 328.986446 -171.072 
L 328.669091 -171.072 
L 328.351736 -171.072 
L 328.03438 -171.072 
L 327.717025 -171.072 
L 327.399669 -171.072 
L 327.082314 -171.072 
L 326.764959 -171.072 
L 326.447603 -171.072 
L 326.130248 -171.072 
L 325.812893 -171.072 
L 325.495537 -171.072 
L 325.178182 -171.072 
L 324.860826 -171.072 
L 324.543471 -171.072 
L 324.226116 -171.072 
L 323.90876 -171.072 
L 323.591405 -171.072 
L 323.27405 -171.072 
L 322.956694 -171.072 
L 322.639339 -171.072 
L 322.321983 -171.072 
L 322.004628 -171.072 
L 321.687273 -171.072 
L 321.369917 -171.072 
L 321.052562 -171.072 
L 320.735207 -171.072 
L 320.417851 -171.072 
L 320.100496 -171.072 
L 319.78314 -171.072 
L 319.465785 -171.072 
L 319.14843 -171.072 
L 318.831074 -171.072 
L 318.513719 -171.072 
L 318.196364 -171.072 
L 317.879008 -171.072 
L 317.561653 -171.072 
L 317.244298 -171.072 
L 316.926942 -171.072 
L 316.609587 -171.072 
L 316.292231 -171.072 
L 315.974876 -171.072 
L 315.657521 -171.072 
L 315.340165 -171.072 
L 315.02281 -171.072 
L 314.705455 -171.072 
L 314.388099 -171.072 
L 314.070744 -171.072 
L 313.753388 -171.072 
L 313.436033 -171.072 
L 313.118678 -171.072 
L 312.801322 -171.072 
L 312.483967 -171.072 
L 312.166612 -171.072 
L 311.849256 -171.072 
L 311.531901 -171.072 
L 311.214545 -171.072 
L 310.89719 -171.072 
L 310.579835 -171.072 
L 310.262479 -171.072 
L 309.945124 -171.072 
L 309.627769 -171.072 
L 309.310413 -171.072 
L 308.993058 -171.072 
L 308.675702 -171.072 
L 308.358347 -171.072 
L 308.040992 -171.072 
L 307.723636 -171.072 
L 307.406281 -171.072 
L 307.088926 -171.072 
L 306.77157 -171.072 
L 306.454215 -171.072 
L 306.13686 -171.072 
L 305.819504 -171.072 
L 305.502149 -171.072 
L 305.184793 -171.072 
L 304.867438 -171.072 
L 304.550083 -171.072 
L 304.232727 -171.072 
L 303.915372 -171.072 
L 303.598017 -171.072 
L 303.280661 -171.072 
L 302.963306 -171.072 
L 302.64595 -171.072 
L 302.328595 -171.072 
L 302.01124 -171.072 
L 301.693884 -171.072 
L 301.376529 -171.072 
L 301.059174 -171.072 
L 300.741818 -171.072 
L 300.424463 -171.072 
L 300.107107 -171.072 
L 299.789752 -171.072 
L 299.472397 -171.072 
L 299.155041 -171.072 
L 298.837686 -171.072 
L 298.520331 -171.072 
L 298.202975 -171.072 
L 297.88562 -171.072 
L 297.568264 -171.072 
L 297.250909 -171.072 
L 296.933554 -171.072 
L 296.616198 -171.072 
L 296.298843 -171.072 
L 295.981488 -171.072 
L 295.664132 -171.072 
L 295.346777 -171.072 
L 295.029421 -171.072 
L 294.712066 -171.072 
L 294.394711 -171.072 
L 294.077355 -171.072 
L 293.76 -171.072 
L 293.442645 -171.072 
L 293.125289 -171.072 
L 292.807934 -171.072 
L 292.490579 -171.072 
L 292.173223 -171.072 
L 291.855868 -171.072 
L 291.538512 -171.072 
L 291.221157 -171.072 
L 290.903802 -171.072 
L 290.586446 -171.072 
L 290.269091 -171.072 
L 289.951736 -171.072 
L 289.63438 -171.072 
L 289.317025 -171.072 
L 288.999669 -171.072 
L 288.682314 -171.072 
L 288.364959 -171.072 
L 288.047603 -171.072 
L 287.730248 -171.072 
L 287.412893 -171.072 
L 287.095537 -171.072 
L 286.778182 -171.072 
L 286.460826 -171.072 
L 286.143471 -171.072 
L 285.826116 -171.072 
L 285.50876 -171.072 
L 285.191405 -171.072 
L 284.87405 -171.072 
L 284.556694 -171.072 
L 284.239339 -171.072 
L 283.921983 -171.072 
L 283.604628 -171.072 
L 283.287273 -171.072 
L 282.969917 -171.072 
L 282.652562 -171.072 
L 282.335207 -171.072 
L 282.017851 -171.072 
L 281.700496 -171.072 
L 281.38314 -171.072 
L 281.065785 -171.072 
L 280.74843 -171.072 
L 280.431074 -171.072 
L 280.113719 -171.072 
L 279.796364 -171.072 
L 279.479008 -171.072 
L 279.161653 -171.072 
L 278.844298 -171.072 
L 278.526942 -171.072 
L 278.209587 -171.072 
L 277.892231 -171.072 
L 277.574876 -171.072 
L 277.257521 -171.072 
L 276.940165 -171.072 
L 276.62281 -171.072 
L 276.305455 -171.072 
L 275.988099 -171.072 
L 275.670744 -171.072 
L 275.353388 -171.072 
L 275.036033 -171.072 
L 274.718678 -171.072 
L 274.401322 -171.072 
L 274.083967 -171.072 
L 273.766612 -171.072 
L 273.449256 -171.072 
L 273.131901 -171.072 
L 272.814545 -171.072 
L 272.49719 -171.072 
L 272.179835 -171.072 
L 271.862479 -171.072 
L 271.545124 -171.072 
L 271.227769 -171.072 
L 270.910413 -171.072 
L 270.593058 -171.072 
L 270.275702 -171.072 
L 269.958347 -171.072 
L 269.640992 -171.072 
L 269.323636 -171.072 
L 269.006281 -171.072 
L 268.688926 -171.072 
L 268.37157 -171.072 
L 268.054215 -171.072 
L 267.73686 -171.072 
L 267.419504 -171.072 
L 267.102149 -171.072 
L 266.784793 -171.072 
L 266.467438 -171.072 
L 266.150083 -171.072 
L 265.832727 -171.072 
L 265.515372 -171.072 
L 265.198017 -171.072 
L 264.880661 -171.072 
L 264.563306 -171.072 
L 264.24595 -171.072 
L 263.928595 -171.072 
L 263.61124 -171.072 
L 263.293884 -171.072 
L 262.976529 -171.072 
L 262.659174 -171.072 
L 262.341818 -171.072 
L 262.024463 -171.072 
L 261.707107 -171.072 
L 261.389752 -171.072 
L 261.072397 -171.072 
L 260.755041 -171.072 
L 260.437686 -171.072 
L 260.120331 -171.072 
L 259.802975 -171.072 
L 259.48562 -171.072 
L 259.168264 -171.072 
L 258.850909 -171.072 
L 258.533554 -171.072 
L 258.216198 -171.072 
L 257.898843 -171.072 
L 257.581488 -171.072 
L 257.264132 -171.072 
L 256.946777 -171.072 
L 256.629421 -171.072 
L 256.312066 -171.072 
L 255.994711 -171.072 
L 255.677355 -171.072 
L 255.36 -171.072 
L 255.042645 -171.072 
L 254.725289 -171.072 
L 254.407934 -171.072 
L 254.090579 -171.072 
L 253.773223 -171.072 
L 253.455868 -171.072 
L 253.138512 -171.072 
L 252.821157 -171.072 
L 252.503802 -171.072 
L 252.186446 -171.072 
L 251.869091 -171.072 
L 251.551736 -171.072 
L 251.23438 -171.072 
L 250.917025 -171.072 
L 250.599669 -171.072 
L 250.282314 -171.072 
L 249.964959 -171.072 
L 249.647603 -171.072 
L 249.330248 -171.072 
L 249.012893 -171.072 
L 248.695537 -171.072 
L 248.378182 -171.072 
L 248.060826 -171.072 
L 247.743471 -171.072 
L 247.426116 -171.072 
L 247.10876 -171.072 
L 246.791405 -171.072 
L 246.47405 -171.072 
L 246.156694 -171.072 
L 245.839339 -171.072 
L 245.521983 -171.072 
L 245.204628 -171.072 
L 244.887273 -171.072 
L 244.569917 -171.072 
L 244.252562 -171.072 
L 243.935207 -171.072 
L 243.617851 -171.072 
L 243.300496 -171.072 
L 242.98314 -171.072 
L 242.665785 -171.072 
L 242.34843 -171.072 
L 242.031074 -171.072 
L 241.713719 -171.072 
L 241.396364 -171.072 
L 241.079008 -171.072 
L 240.761653 -171.072 
L 240.444298 -171.072 
L 240.126942 -171.072 
L 239.809587 -171.072 
L 239.492231 -171.072 
L 239.174876 -171.072 
L 238.857521 -171.072 
L 238.540165 -171.072 
L 238.22281 -171.072 
L 237.905455 -171.072 
L 237.588099 -171.072 
L 237.270744 -171.072 
L 236.953388 -171.072 
L 236.636033 -171.072 
L 236.318678 -171.072 
L 236.001322 -171.072 
L 235.683967 -171.072 
L 235.366612 -171.072 
L 235.049256 -171.072 
L 234.731901 -171.072 
L 234.414545 -171.072 
L 234.09719 -171.072 
L 233.779835 -171.072 
L 233.462479 -171.072 
L 233.145124 -171.072 
L 232.827769 -171.072 
L 232.510413 -171.072 
L 232.193058 -171.072 
L 231.875702 -171.072 
L 231.558347 -171.072 
L 231.240992 -171.072 
L 230.923636 -171.072 
L 230.606281 -171.072 
L 230.288926 -171.072 
L 229.97157 -171.072 
L 229.654215 -171.072 
L 229.33686 -171.072 
L 229.019504 -171.072 
L 228.702149 -171.072 
L 228.384793 -171.072 
L 228.067438 -171.072 
L 227.750083 -171.072 
L 227.432727 -171.072 
L 227.115372 -171.072 
L 226.798017 -171.072 
L 226.480661 -171.072 
L 226.163306 -171.072 
L 225.84595 -171.072 
L 225.528595 -171.072 
L 225.21124 -171.072 
L 224.893884 -171.072 
L 224.576529 -171.072 
L 224.259174 -171.072 
L 223.941818 -171.072 
L 223.624463 -171.072 
L 223.307107 -171.072 
L 222.989752 -171.072 
L 222.672397 -171.072 
L 222.355041 -171.072 
L 222.037686 -171.072 
L 221.720331 -171.072 
L 221.402975 -171.072 
L 221.08562 -171.072 
L 220.768264 -171.072 
L 220.450909 -171.072 
L 220.133554 -171.072 
L 219.816198 -171.072 
L 219.498843 -171.072 
L 219.181488 -171.072 
L 218.864132 -171.072 
L 218.546777 -171.072 
L 218.229421 -171.072 
L 217.912066 -171.072 
L 217.594711 -171.072 
L 217.277355 -171.072 
L 216.96 -171.072 
L 216.642645 -171.072 
L 216.325289 -171.072 
L 216.007934 -171.072 
L 215.690579 -171.072 
L 215.373223 -171.072 
L 215.055868 -171.072 
L 214.738512 -171.072 
L 214.421157 -171.072 
L 214.103802 -171.072 
L 213.786446 -171.072 
L 213.469091 -171.072 
L 213.151736 -171.072 
L 212.83438 -171.072 
L 212.517025 -171.072 
L 212.199669 -171.072 
L 211.882314 -171.072 
L 211.564959 -171.072 
L 211.247603 -171.072 
L 210.930248 -171.072 
L 210.612893 -171.072 
L 210.295537 -171.072 
L 209.978182 -171.072 
L 209.660826 -171.072 
L 209.343471 -171.072 
L 209.026116 -171.072 
L 208.70876 -171.072 
L 208.391405 -171.072 
L 208.07405 -171.072 
L 207.756694 -171.072 
L 207.439339 -171.072 
L 207.121983 -171.072 
L 206.804628 -171.072 
L 206.487273 -171.072 
L 206.169917 -171.072 
L 205.852562 -171.072 
L 205.535207 -171.072 
L 205.217851 -171.072 
L 204.900496 -171.072 
L 204.58314 -171.072 
L 204.265785 -171.072 
L 203.94843 -171.072 
L 203.631074 -171.072 
L 203.313719 -171.072 
L 202.996364 -171.072 
L 202.679008 -171.072 
L 202.361653 -171.072 
L 202.044298 -171.072 
L 201.726942 -171.072 
L 201.409587 -171.072 
L 201.092231 -171.072 
L 200.774876 -171.072 
L 200.457521 -171.072 
L 200.140165 -171.072 
L 199.82281 -171.072 
L 199.505455 -171.072 
L 199.188099 -171.072 
L 198.870744 -171.072 
L 198.553388 -171.072 
L 198.236033 -171.072 
L 197.918678 -171.072 
L 197.601322 -171.072 
L 197.283967 -171.072 
L 196.966612 -171.072 
L 196.649256 -171.072 
L 196.331901 -171.072 
L 196.014545 -171.072 
L 195.69719 -171.072 
L 195.379835 -171.072 
L 195.062479 -171.072 
L 194.745124 -171.072 
L 194.427769 -171.072 
L 194.110413 -171.072 
L 193.793058 -171.072 
L 193.475702 -171.072 
L 193.158347 -171.072 
L 192.840992 -171.072 
L 192.523636 -171.072 
L 192.206281 -171.072 
L 191.888926 -171.072 
L 191.57157 -171.072 
L 191.254215 -171.072 
L 190.93686 -171.072 
L 190.619504 -171.072 
L 190.302149 -171.072 
L 189.984793 -171.072 
L 189.667438 -171.072 
L 189.350083 -171.072 
L 189.032727 -171.072 
L 188.715372 -171.072 
L 188.398017 -171.072 
L 188.080661 -171.072 
L 187.763306 -171.072 
L 187.44595 -171.072 
L 187.128595 -171.072 
L 186.81124 -171.072 
L 186.493884 -171.072 
L 186.176529 -171.072 
L 185.859174 -171.072 
L 185.541818 -171.072 
L 185.224463 -171.072 
L 184.907107 -171.072 
L 184.589752 -171.072 
L 184.272397 -171.072 
L 183.955041 -171.072 
L 183.637686 -171.072 
L 183.320331 -171.072 
L 183.002975 -171.072 
L 182.68562 -171.072 
L 182.368264 -171.072 
L 182.050909 -171.072 
L 181.733554 -171.072 
L 181.416198 -171.072 
L 181.098843 -171.072 
L 180.781488 -171.072 
L 180.464132 -171.072 
L 180.146777 -171.072 
L 179.829421 -171.072 
L 179.512066 -171.072 
L 179.194711 -171.072 
L 178.877355 -171.072 
L 178.56 -171.072 
L 178.242645 -171.072 
L 177.925289 -171.072 
L 177.607934 -171.072 
L 177.290579 -171.072 
L 176.973223 -171.072 
L 176.655868 -171.072 
L 176.338512 -171.072 
L 176.021157 -171.072 
L 175.703802 -171.072 
L 175.386446 -171.072 
L 175.069091 -171.072 
L 174.751736 -171.072 
L 174.43438 -171.072 
L 174.117025 -171.072 
L 173.799669 -171.072 
L 173.482314 -171.072 
L 173.164959 -171.072 
L 172.847603 -171.072 
L 172.530248 -171.072 
L 172.212893 -171.072 
L 171.895537 -171.072 
L 171.578182 -171.072 
L 171.260826 -171.072 
L 170.943471 -171.072 
L 170.626116 -171.072 
L 170.30876 -171.072 
L 169.991405 -171.072 
L 169.67405 -171.072 
L 169.356694 -171.072 
L 169.039339 -171.072 
L 168.721983 -171.072 
L 168.404628 -171.072 
L 168.087273 -171.072 
L 167.769917 -171.072 
L 167.452562 -171.072 
L 167.135207 -171.072 
L 166.817851 -171.072 
L 166.500496 -171.072 
L 166.18314 -171.072 
L 165.865785 -171.072 
L 165.54843 -171.072 
L 165.231074 -171.072 
L 164.913719 -171.072 
L 164.596364 -171.072 
L 164.279008 -171.072 
L 163.961653 -171.072 
L 163.644298 -171.072 
L 163.326942 -171.072 
L 163.009587 -171.072 
L 162.692231 -171.072 
L 162.374876 -171.072 
L 162.057521 -171.072 
L 161.740165 -171.072 
L 161.42281 -171.072 
L 161.105455 -171.072 
L 160.788099 -171.072 
L 160.470744 -171.072 
L 160.153388 -171.072 
L 159.836033 -171.072 
L 159.518678 -171.072 
L 159.201322 -171.072 
L 158.883967 -171.072 
L 158.566612 -171.072 
L 158.249256 -171.072 
L 157.931901 -171.072 
L 157.614545 -171.072 
L 157.29719 -171.072 
L 156.979835 -171.072 
L 156.662479 -171.072 
L 156.345124 -171.072 
L 156.027769 -171.072 
L 155.710413 -171.072 
L 155.393058 -171.072 
L 155.075702 -171.072 
L 154.758347 -171.072 
L 154.440992 -171.072 
L 154.123636 -171.072 
L 153.806281 -171.072 
L 153.488926 -171.072 
L 153.17157 -171.072 
L 152.854215 -171.072 
L 152.53686 -171.072 
L 152.219504 -171.072 
L 151.902149 -171.072 
L 151.584793 -171.072 
L 151.267438 -171.072 
L 150.950083 -171.072 
L 150.632727 -171.072 
L 150.315372 -171.072 
L 149.998017 -171.072 
L 149.680661 -171.072 
L 149.363306 -171.072 
L 149.04595 -171.072 
L 148.728595 -171.072 
L 148.41124 -171.072 
L 148.093884 -171.072 
L 147.776529 -171.072 
L 147.459174 -171.072 
L 147.141818 -171.072 
L 146.824463 -171.072 
L 146.507107 -171.072 
L 146.189752 -171.072 
L 145.872397 -171.072 
L 145.555041 -171.072 
L 145.237686 -171.072 
L 144.920331 -171.072 
L 144.602975 -171.072 
L 144.28562 -171.072 
L 143.968264 -171.072 
L 143.650909 -171.072 
L 143.333554 -171.072 
L 143.016198 -171.072 
L 142.698843 -171.072 
L 142.381488 -171.072 
L 142.064132 -171.072 
L 141.746777 -171.072 
L 141.429421 -171.072 
L 141.112066 -171.072 
L 140.794711 -171.072 
L 140.477355 -171.072 
L 140.16 -171.072 
L 139.842645 -171.072 
L 139.525289 -171.072 
L 139.207934 -171.072 
L 138.890579 -171.072 
L 138.573223 -171.072 
L 138.255868 -171.072 
L 137.938512 -171.072 
L 137.621157 -171.072 
L 137.303802 -171.072 
L 136.986446 -171.072 
L 136.669091 -171.072 
L 136.351736 -171.072 
L 136.03438 -171.072 
L 135.717025 -171.072 
L 135.399669 -171.072 
L 135.082314 -171.072 
L 134.764959 -171.072 
L 134.447603 -171.072 
L 134.130248 -171.072 
L 133.812893 -171.072 
L 133.495537 -171.072 
L 133.178182 -171.072 
L 132.860826 -171.072 
L 132.543471 -171.072 
L 132.226116 -171.072 
L 131.90876 -171.072 
L 131.591405 -171.072 
L 131.27405 -171.072 
L 130.956694 -171.072 
L 130.639339 -171.072 
L 130.321983 -171.072 
L 130.004628 -171.072 
L 129.687273 -171.072 
L 129.369917 -171.072 
L 129.052562 -171.072 
L 128.735207 -171.072 
L 128.417851 -171.072 
L 128.100496 -171.072 
L 127.78314 -171.072 
L 127.465785 -171.072 
L 127.14843 -171.072 
L 126.831074 -171.072 
L 126.513719 -171.072 
L 126.196364 -171.072 
L 125.879008 -171.072 
L 125.561653 -171.072 
L 125.244298 -171.072 
L 124.926942 -171.072 
L 124.609587 -171.072 
L 124.292231 -171.072 
L 123.974876 -171.072 
L 123.657521 -171.072 
L 123.340165 -171.072 
L 123.02281 -171.072 
L 122.705455 -171.072 
L 122.388099 -171.072 
L 122.070744 -171.072 
L 121.753388 -171.072 
L 121.436033 -171.072 
L 121.118678 -171.072 
L 120.801322 -171.072 
L 120.483967 -171.072 
L 120.166612 -171.072 
L 119.849256 -171.072 
L 119.531901 -171.072 
L 119.214545 -171.072 
L 118.89719 -171.072 
L 118.579835 -171.072 
L 118.262479 -171.072 
L 117.945124 -171.072 
L 117.627769 -171.072 
L 117.310413 -171.072 
L 116.993058 -171.072 
L 116.675702 -171.072 
L 116.358347 -171.072 
L 116.040992 -171.072 
L 115.723636 -171.072 
L 115.406281 -171.072 
L 115.088926 -171.072 
L 114.77157 -171.072 
L 114.454215 -171.072 
L 114.13686 -171.072 
L 113.819504 -171.072 
L 113.502149 -171.072 
L 113.184793 -171.072 
L 112.867438 -171.072 
L 112.550083 -171.072 
L 112.232727 -171.072 
L 111.915372 -171.072 
L 111.598017 -171.072 
L 111.280661 -171.072 
L 110.963306 -171.072 
L 110.64595 -171.072 
L 110.328595 -171.072 
L 110.01124 -171.072 
L 109.693884 -171.072 
L 109.376529 -171.072 
L 109.059174 -171.072 
L 108.741818 -171.072 
L 108.424463 -171.072 
L 108.107107 -171.072 
L 107.789752 -171.072 
L 107.472397 -171.072 
L 107.155041 -171.072 
L 106.837686 -171.072 
L 106.520331 -171.072 
L 106.202975 -171.072 
L 105.88562 -171.072 
L 105.568264 -171.072 
L 105.250909 -171.072 
L 104.933554 -171.072 
L 104.616198 -171.072 
L 104.298843 -171.072 
L 103.981488 -171.072 
L 103.664132 -171.072 
L 103.346777 -171.072 
L 103.029421 -171.072 
L 102.712066 -171.072 
L 102.394711 -171.072 
L 102.077355 -171.072 
L 101.76 -171.072 
L 101.442645 -171.072 
L 101.125289 -171.072 
L 100.807934 -171.072 
L 100.490579 -171.072 
L 100.173223 -171.072 
L 99.855868 -171.072 
L 99.538512 -171.072 
L 99.221157 -171.072 
L 98.903802 -171.072 
L 98.586446 -171.072 
L 98.269091 -171.072 
L 97.951736 -171.072 
L 97.63438 -171.072 
L 97.317025 -171.072 
L 96.999669 -171.072 
L 96.682314 -171.072 
L 96.364959 -171.072 
L 96.047603 -171.072 
L 95.730248 -171.072 
L 95.412893 -171.072 
L 95.095537 -171.072 
L 94.778182 -171.072 
L 94.460826 -171.072 
L 94.143471 -171.072 
L 93.826116 -171.072 
L 93.50876 -171.072 
L 93.191405 -171.072 
L 92.87405 -171.072 
L 92.556694 -171.072 
L 92.239339 -171.072 
L 91.921983 -171.072 
L 91.604628 -171.072 
L 91.287273 -171.072 
L 90.969917 -171.072 
L 90.652562 -171.072 
L 90.335207 -171.072 
L 90.017851 -171.072 
L 89.700496 -171.072 
L 89.38314 -171.072 
L 89.065785 -171.072 
L 88.74843 -171.072 
L 88.431074 -171.072 
L 88.113719 -171.072 
L 87.796364 -171.072 
L 87.479008 -171.072 
L 87.161653 -171.072 
L 86.844298 -171.072 
L 86.526942 -171.072 
L 86.209587 -171.072 
L 85.892231 -171.072 
L 85.574876 -171.072 
L 85.257521 -171.072 
L 84.940165 -171.072 
L 84.62281 -171.072 
L 84.305455 -171.072 
L 83.988099 -171.072 
L 83.670744 -171.072 
L 83.353388 -171.072 
L 83.036033 -171.072 
L 82.718678 -171.072 
L 82.401322 -171.072 
L 82.083967 -171.072 
L 81.766612 -171.072 
L 81.449256 -171.072 
L 81.131901 -171.072 
L 80.814545 -171.072 
L 80.49719 -171.072 
L 80.179835 -171.072 
L 79.862479 -171.072 
L 79.545124 -171.072 
L 79.227769 -171.072 
L 78.910413 -171.072 
L 78.593058 -171.072 
L 78.275702 -171.072 
L 77.958347 -171.072 
L 77.640992 -171.072 
L 77.323636 -171.072 
L 77.006281 -171.072 
L 76.688926 -171.072 
L 76.37157 -171.072 
L 76.054215 -171.072 
L 75.73686 -171.072 
L 75.419504 -171.072 
L 75.102149 -171.072 
L 74.784793 -171.072 
L 74.467438 -171.072 
L 74.150083 -171.072 
L 73.832727 -171.072 
z
" style="stroke: #87ceeb; stroke-opacity: 0.75"/>
    </defs>
    <g clip-path="url(#p561cb59481)">
     <use xlink:href="#m083f8faabd" x="0" y="345.6" style="fill: #87ceeb; fill-opacity: 0.75; stroke: #87ceeb; stroke-opacity: 0.75"/>
    </g>
   </g>
   <g id="matplotlib.axis_1">
    <g id="xtick_1">
     <g id="line2d_1">
      <defs>
       <path id="m44cce18ec4" d="M 0 0 
L 0 3.5 
" style="stroke: #000000; stroke-width: 0.8"/>
      </defs>
      <g>
       <use xlink:href="#m44cce18ec4" x="73.832727" y="307.584" style="stroke: #000000; stroke-width: 0.8"/>
      </g>
     </g>
     <g id="text_1">
      <!-- 0 -->
      <g transform="translate(70.531868 322.161969) scale(0.11 -0.11)">
       <defs>
        <path id="AndaleMono-30" d="M 1913 4494 
Q 2613 4494 2989 3892 
Q 3366 3291 3366 2203 
Q 3366 1150 3000 533 
Q 2634 -84 1913 -84 
Q 1216 -84 837 516 
Q 459 1116 459 2203 
Q 459 3259 826 3876 
Q 1194 4494 1913 4494 
z
M 1913 366 
Q 2375 366 2598 805 
Q 2822 1244 2822 2203 
Q 2822 3166 2598 3602 
Q 2375 4038 1913 4038 
Q 1456 4038 1231 3591 
Q 1006 3144 1006 2203 
Q 1006 1250 1229 808 
Q 1453 366 1913 366 
z
M 1900 2672 
Q 2097 2672 2233 2536 
Q 2369 2400 2369 2203 
Q 2369 2000 2231 1854 
Q 2094 1709 1900 1709 
Q 1709 1709 1573 1854 
Q 1438 2000 1438 2203 
Q 1438 2403 1570 2537 
Q 1703 2672 1900 2672 
z
" transform="scale(0.015625)"/>
       </defs>
       <use xlink:href="#AndaleMono-30"/>
      </g>
     </g>
    </g>
    <g id="xtick_2">
     <g id="line2d_2">
      <g>
       <use xlink:href="#m44cce18ec4" x="137.303802" y="307.584" style="stroke: #000000; stroke-width: 0.8"/>
      </g>
     </g>
     <g id="text_2">
      <!-- 200 -->
      <g transform="translate(127.401224 322.161969) scale(0.11 -0.11)">
       <defs>
        <path id="AndaleMono-32" d="M 3066 0 
L 641 0 
L 641 372 
Q 1563 1400 1838 1750 
Q 2113 2100 2284 2484 
Q 2456 2869 2456 3250 
Q 2456 3619 2232 3831 
Q 2009 4044 1606 4044 
Q 1297 4044 775 3853 
L 703 4294 
Q 1175 4494 1691 4494 
Q 2281 4494 2642 4161 
Q 3003 3828 3003 3272 
Q 3003 2875 2817 2484 
Q 2631 2094 2340 1734 
Q 2050 1375 1209 447 
L 3066 447 
L 3066 0 
z
" transform="scale(0.015625)"/>
       </defs>
       <use xlink:href="#AndaleMono-32"/>
       <use xlink:href="#AndaleMono-30" x="60.009766"/>
       <use xlink:href="#AndaleMono-30" x="120.019531"/>
      </g>
     </g>
    </g>
    <g id="xtick_3">
     <g id="line2d_3">
      <g>
       <use xlink:href="#m44cce18ec4" x="200.774876" y="307.584" style="stroke: #000000; stroke-width: 0.8"/>
      </g>
     </g>
     <g id="text_3">
      <!-- 400 -->
      <g transform="translate(190.872298 322.161969) scale(0.11 -0.11)">
       <defs>
        <path id="AndaleMono-34" d="M 3353 1019 
L 2809 1019 
L 2809 0 
L 2297 0 
L 2297 1019 
L 378 1019 
L 378 1409 
L 2119 4409 
L 2809 4409 
L 2809 1466 
L 3353 1466 
L 3353 1019 
z
M 2297 1466 
L 2297 3903 
L 897 1466 
L 2297 1466 
z
" transform="scale(0.015625)"/>
       </defs>
       <use xlink:href="#AndaleMono-34"/>
       <use xlink:href="#AndaleMono-30" x="60.009766"/>
       <use xlink:href="#AndaleMono-30" x="120.019531"/>
      </g>
     </g>
    </g>
    <g id="xtick_4">
     <g id="line2d_4">
      <g>
       <use xlink:href="#m44cce18ec4" x="264.24595" y="307.584" style="stroke: #000000; stroke-width: 0.8"/>
      </g>
     </g>
     <g id="text_4">
      <!-- 600 -->
      <g transform="translate(254.343372 322.161969) scale(0.11 -0.11)">
       <defs>
        <path id="AndaleMono-36" d="M 1131 2297 
Q 1544 2631 2028 2631 
Q 2588 2631 2961 2273 
Q 3334 1916 3334 1350 
Q 3334 728 3003 322 
Q 2672 -84 2119 -84 
Q 1413 -84 1000 564 
Q 588 1213 588 2150 
Q 588 3150 1017 3822 
Q 1447 4494 2194 4494 
Q 2709 4494 3084 4341 
L 3003 3884 
Q 2569 4044 2209 4044 
Q 1700 4044 1415 3556 
Q 1131 3069 1131 2297 
z
M 1147 1856 
Q 1147 1291 1412 828 
Q 1678 366 2081 366 
Q 2422 366 2606 616 
Q 2791 866 2791 1306 
Q 2791 1713 2587 1947 
Q 2384 2181 2016 2181 
Q 1538 2181 1147 1856 
z
" transform="scale(0.015625)"/>
       </defs>
       <use xlink:href="#AndaleMono-36"/>
       <use xlink:href="#AndaleMono-30" x="60.009766"/>
       <use xlink:href="#AndaleMono-30" x="120.019531"/>
      </g>
     </g>
    </g>
    <g id="xtick_5">
     <g id="line2d_5">
      <g>
       <use xlink:href="#m44cce18ec4" x="327.717025" y="307.584" style="stroke: #000000; stroke-width: 0.8"/>
      </g>
     </g>
     <g id="text_5">
      <!-- 800 -->
      <g transform="translate(317.814447 322.161969) scale(0.11 -0.11)">
       <defs>
        <path id="AndaleMono-38" d="M 2363 2419 
Q 2813 2288 3061 1972 
Q 3309 1656 3309 1234 
Q 3309 628 2907 272 
Q 2506 -84 1919 -84 
Q 1303 -84 908 275 
Q 513 634 513 1228 
Q 513 1647 769 1965 
Q 1025 2284 1484 2419 
Q 1119 2513 898 2780 
Q 678 3047 678 3378 
Q 678 3803 1015 4148 
Q 1353 4494 1906 4494 
Q 2453 4494 2811 4150 
Q 3169 3806 3169 3378 
Q 3169 3056 2944 2786 
Q 2719 2516 2363 2419 
z
M 1906 2631 
Q 1922 2631 2056 2668 
Q 2191 2706 2286 2761 
Q 2381 2816 2462 2900 
Q 2544 2984 2594 3098 
Q 2644 3213 2644 3353 
Q 2644 3653 2428 3851 
Q 2213 4050 1906 4050 
Q 1609 4050 1396 3847 
Q 1184 3644 1184 3353 
Q 1184 3169 1261 3031 
Q 1338 2894 1452 2809 
Q 1566 2725 1714 2678 
Q 1863 2631 1906 2631 
z
M 1906 2194 
Q 1050 1944 1050 1253 
Q 1050 850 1309 608 
Q 1569 366 1919 366 
Q 2281 366 2529 605 
Q 2778 844 2778 1253 
Q 2778 1563 2606 1808 
Q 2434 2053 1906 2194 
z
" transform="scale(0.015625)"/>
       </defs>
       <use xlink:href="#AndaleMono-38"/>
       <use xlink:href="#AndaleMono-30" x="60.009766"/>
       <use xlink:href="#AndaleMono-30" x="120.019531"/>
      </g>
     </g>
    </g>
    <g id="xtick_6">
     <g id="line2d_6">
      <g>
       <use xlink:href="#m44cce18ec4" x="391.188099" y="307.584" style="stroke: #000000; stroke-width: 0.8"/>
      </g>
     </g>
     <g id="text_6">
      <!-- 1000 -->
      <g transform="translate(377.984662 322.161969) scale(0.11 -0.11)">
       <defs>
        <path id="AndaleMono-31" d="M 3181 0 
L 863 0 
L 863 447 
L 1797 447 
L 1797 3872 
L 916 3431 
L 916 3944 
L 1869 4434 
L 2309 4434 
L 2309 447 
L 3181 447 
L 3181 0 
z
" transform="scale(0.015625)"/>
       </defs>
       <use xlink:href="#AndaleMono-31"/>
       <use xlink:href="#AndaleMono-30" x="60.009766"/>
       <use xlink:href="#AndaleMono-30" x="120.019531"/>
       <use xlink:href="#AndaleMono-30" x="180.029297"/>
      </g>
     </g>
    </g>
   </g>
   <g id="matplotlib.axis_2">
    <g id="ytick_1">
     <g id="line2d_7">
      <defs>
       <path id="mfd0faa0606" d="M 0 0 
L -3.5 0 
" style="stroke: #000000; stroke-width: 0.8"/>
      </defs>
      <g>
       <use xlink:href="#mfd0faa0606" x="57.6" y="295.488" style="stroke: #000000; stroke-width: 0.8"/>
      </g>
     </g>
     <g id="text_7">
      <!-- 1.00 -->
      <g transform="translate(17.591406 299.276984) scale(0.11 -0.11)">
       <defs>
        <path id="AndaleMono-2212" d="M 3397 2047 
L 441 2047 
L 441 2456 
L 3397 2456 
L 3397 2047 
z
" transform="scale(0.015625)"/>
        <path id="AndaleMono-2e" d="M 1900 716 
Q 2066 716 2178 603 
Q 2291 491 2291 325 
Q 2291 156 2177 36 
Q 2063 -84 1900 -84 
Q 1741 -84 1628 36 
Q 1516 156 1516 325 
Q 1516 494 1627 605 
Q 1738 716 1900 716 
z
" transform="scale(0.015625)"/>
       </defs>
       <use xlink:href="#AndaleMono-2212"/>
       <use xlink:href="#AndaleMono-31" x="60.009766"/>
       <use xlink:href="#AndaleMono-2e" x="120.019531"/>
       <use xlink:href="#AndaleMono-30" x="180.029297"/>
       <use xlink:href="#AndaleMono-30" x="240.039062"/>
      </g>
     </g>
    </g>
    <g id="ytick_2">
     <g id="line2d_8">
      <g>
       <use xlink:href="#mfd0faa0606" x="57.6" y="265.248" style="stroke: #000000; stroke-width: 0.8"/>
      </g>
     </g>
     <g id="text_8">
      <!-- 0.75 -->
      <g transform="translate(17.591406 269.036984) scale(0.11 -0.11)">
       <defs>
        <path id="AndaleMono-37" d="M 3238 4044 
L 1491 0 
L 966 0 
L 2688 3963 
L 622 3963 
L 622 4409 
L 3238 4409 
L 3238 4044 
z
" transform="scale(0.015625)"/>
        <path id="AndaleMono-35" d="M 1356 2631 
Q 1569 2688 1772 2688 
Q 2397 2688 2759 2305 
Q 3122 1922 3122 1350 
Q 3122 750 2700 333 
Q 2278 -84 1672 -84 
Q 1094 -84 703 109 
L 806 544 
Q 1231 366 1684 366 
Q 2088 366 2336 625 
Q 2584 884 2584 1350 
Q 2584 1791 2350 2028 
Q 2116 2266 1747 2266 
Q 1478 2266 1216 2163 
L 909 2303 
L 909 4409 
L 2925 4409 
L 2925 3963 
L 1356 3963 
L 1356 2631 
z
" transform="scale(0.015625)"/>
       </defs>
       <use xlink:href="#AndaleMono-2212"/>
       <use xlink:href="#AndaleMono-30" x="60.009766"/>
       <use xlink:href="#AndaleMono-2e" x="120.019531"/>
       <use xlink:href="#AndaleMono-37" x="180.029297"/>
       <use xlink:href="#AndaleMono-35" x="240.039062"/>
      </g>
     </g>
    </g>
    <g id="ytick_3">
     <g id="line2d_9">
      <g>
       <use xlink:href="#mfd0faa0606" x="57.6" y="235.008" style="stroke: #000000; stroke-width: 0.8"/>
      </g>
     </g>
     <g id="text_9">
      <!-- 0.50 -->
      <g transform="translate(17.591406 238.796984) scale(0.11 -0.11)">
       <use xlink:href="#AndaleMono-2212"/>
       <use xlink:href="#AndaleMono-30" x="60.009766"/>
       <use xlink:href="#AndaleMono-2e" x="120.019531"/>
       <use xlink:href="#AndaleMono-35" x="180.029297"/>
       <use xlink:href="#AndaleMono-30" x="240.039062"/>
      </g>
     </g>
    </g>
    <g id="ytick_4">
     <g id="line2d_10">
      <g>
       <use xlink:href="#mfd0faa0606" x="57.6" y="204.768" style="stroke: #000000; stroke-width: 0.8"/>
      </g>
     </g>
     <g id="text_10">
      <!-- 0.25 -->
      <g transform="translate(17.591406 208.556984) scale(0.11 -0.11)">
       <use xlink:href="#AndaleMono-2212"/>
       <use xlink:href="#AndaleMono-30" x="60.009766"/>
       <use xlink:href="#AndaleMono-2e" x="120.019531"/>
       <use xlink:href="#AndaleMono-32" x="180.029297"/>
       <use xlink:href="#AndaleMono-35" x="240.039062"/>
      </g>
     </g>
    </g>
    <g id="ytick_5">
     <g id="line2d_11">
      <g>
       <use xlink:href="#mfd0faa0606" x="57.6" y="174.528" style="stroke: #000000; stroke-width: 0.8"/>
      </g>
     </g>
     <g id="text_11">
      <!-- 0.00 -->
      <g transform="translate(24.193125 178.316984) scale(0.11 -0.11)">
       <use xlink:href="#AndaleMono-30"/>
       <use xlink:href="#AndaleMono-2e" x="60.009766"/>
       <use xlink:href="#AndaleMono-30" x="120.019531"/>
       <use xlink:href="#AndaleMono-30" x="180.029297"/>
      </g>
     </g>
    </g>
    <g id="ytick_6">
     <g id="line2d_12">
      <g>
       <use xlink:href="#mfd0faa0606" x="57.6" y="144.288" style="stroke: #000000; stroke-width: 0.8"/>
      </g>
     </g>
     <g id="text_12">
      <!-- 0.25 -->
      <g transform="translate(24.193125 148.076984) scale(0.11 -0.11)">
       <use xlink:href="#AndaleMono-30"/>
       <use xlink:href="#AndaleMono-2e" x="60.009766"/>
       <use xlink:href="#AndaleMono-32" x="120.019531"/>
       <use xlink:href="#AndaleMono-35" x="180.029297"/>
      </g>
     </g>
    </g>
    <g id="ytick_7">
     <g id="line2d_13">
      <g>
       <use xlink:href="#mfd0faa0606" x="57.6" y="114.048" style="stroke: #000000; stroke-width: 0.8"/>
      </g>
     </g>
     <g id="text_13">
      <!-- 0.50 -->
      <g transform="translate(24.193125 117.836984) scale(0.11 -0.11)">
       <use xlink:href="#AndaleMono-30"/>
       <use xlink:href="#AndaleMono-2e" x="60.009766"/>
       <use xlink:href="#AndaleMono-35" x="120.019531"/>
       <use xlink:href="#AndaleMono-30" x="180.029297"/>
      </g>
     </g>
    </g>
    <g id="ytick_8">
     <g id="line2d_14">
      <g>
       <use xlink:href="#mfd0faa0606" x="57.6" y="83.808" style="stroke: #000000; stroke-width: 0.8"/>
      </g>
     </g>
     <g id="text_14">
      <!-- 0.75 -->
      <g transform="translate(24.193125 87.596984) scale(0.11 -0.11)">
       <use xlink:href="#AndaleMono-30"/>
       <use xlink:href="#AndaleMono-2e" x="60.009766"/>
       <use xlink:href="#AndaleMono-37" x="120.019531"/>
       <use xlink:href="#AndaleMono-35" x="180.029297"/>
      </g>
     </g>
    </g>
    <g id="ytick_9">
     <g id="line2d_15">
      <g>
       <use xlink:href="#mfd0faa0606" x="57.6" y="53.568" style="stroke: #000000; stroke-width: 0.8"/>
      </g>
     </g>
     <g id="text_15">
      <!-- 1.00 -->
      <g transform="translate(24.193125 57.356984) scale(0.11 -0.11)">
       <use xlink:href="#AndaleMono-31"/>
       <use xlink:href="#AndaleMono-2e" x="60.009766"/>
       <use xlink:href="#AndaleMono-30" x="120.019531"/>
       <use xlink:href="#AndaleMono-30" x="180.029297"/>
      </g>
     </g>
    </g>
   </g>
   <g id="line2d_16">
    <path d="M 73.832727 174.528 
L 74.150083 173.881303 
L 84.940165 173.466006 
L 94.143471 173.734017 
L 99.538512 173.867483 
L 100.807934 173.705083 
L 102.077355 173.312894 
L 103.981488 172.41723 
L 105.568264 171.531329 
L 106.837686 170.624428 
L 108.741818 168.924842 
L 112.550083 164.946434 
L 116.993058 160.229822 
L 118.89719 158.368917 
L 120.483967 156.818736 
L 121.436033 156.116415 
L 122.705455 155.502829 
L 124.926942 154.883286 
L 126.513719 154.527065 
L 128.100496 154.484717 
L 129.369917 154.591069 
L 131.90876 154.898681 
L 132.860826 154.81898 
L 135.082314 154.354439 
L 136.03438 153.781315 
L 136.986446 153.062182 
L 138.255868 151.528071 
L 139.207934 150.360148 
L 140.16 148.718071 
L 141.429421 145.846538 
L 142.381488 142.956106 
L 143.968264 137.144299 
L 145.237686 131.683471 
L 147.141818 122.264704 
L 149.680661 107.806044 
L 152.854215 89.489996 
L 154.758347 80.144881 
L 156.027769 74.777505 
L 157.614545 68.985542 
L 160.788099 60.281485 
L 161.740165 58.309705 
L 162.374876 57.355379 
L 163.644298 55.98634 
L 165.231074 54.386444 
L 166.500496 53.682974 
L 167.135207 53.568 
L 167.769917 53.729642 
L 168.404628 54.100605 
L 169.67405 55.277537 
L 170.943471 57.254646 
L 173.482314 61.809154 
L 176.338512 65.969132 
L 177.607934 67.194649 
L 178.242645 67.546722 
L 178.877355 67.784443 
L 180.464132 67.986551 
L 181.733554 68.222117 
L 182.368264 68.20148 
L 183.637686 68.090871 
L 184.589752 68.282115 
L 185.224463 68.625334 
L 185.859174 69.165026 
L 186.81124 70.475496 
L 188.080661 72.55031 
L 190.619504 77.767024 
L 195.062479 86.931051 
L 196.966612 90.054206 
L 197.918678 91.279988 
L 199.188099 92.793908 
L 200.140165 93.995289 
L 201.092231 94.881132 
L 203.94843 97.336101 
L 205.852562 99.196428 
L 207.121983 100.325816 
L 208.07405 101.186803 
L 209.026116 102.082793 
L 211.247603 104.247946 
L 212.83438 106.080295 
L 214.738512 108.63508 
L 215.373223 109.514075 
L 217.912066 113.894368 
L 220.133554 119.032959 
L 221.402975 122.715913 
L 222.672397 126.995493 
L 224.893884 135.661899 
L 229.97157 156.501989 
L 231.558347 162.171207 
L 233.145124 167.152573 
L 234.731901 171.179674 
L 236.318678 174.840185 
L 237.588099 177.876326 
L 239.492231 182.82769 
L 241.396364 189.029794 
L 243.617851 197.42816 
L 245.521983 205.350096 
L 249.012893 219.664085 
L 250.599669 225.323016 
L 251.869091 229.153528 
L 252.821157 231.568159 
L 255.042645 236.339028 
L 257.264132 240.014709 
L 261.707107 245.52284 
L 262.976529 246.684788 
L 272.49719 255.407588 
L 275.988099 259.967957 
L 278.209587 264.014181 
L 279.796364 267.431287 
L 285.191405 278.083623 
L 286.460826 279.890974 
L 287.412893 280.644414 
L 288.364959 280.918195 
L 288.999669 280.967784 
L 290.903802 280.863557 
L 294.394711 281.631006 
L 295.346777 282.448103 
L 296.616198 283.828796 
L 299.155041 287.785166 
L 302.01124 292.869206 
L 302.963306 294.131714 
L 304.232727 295.165368 
L 304.867438 295.457185 
L 305.502149 295.442191 
L 306.13686 295.231863 
L 307.406281 294.426254 
L 309.310413 292.422087 
L 310.262479 291.264901 
L 310.89719 290.156523 
L 312.166612 287.306193 
L 313.753388 282.85192 
L 315.340165 277.928795 
L 317.244298 270.346389 
L 318.831074 262.767339 
L 320.100496 256.067747 
L 323.90876 233.95763 
L 325.812893 223.50754 
L 327.717025 214.5167 
L 328.986446 209.521175 
L 330.255868 205.056015 
L 331.207934 202.396836 
L 332.477355 199.711756 
L 333.429421 198.265134 
L 335.968264 195.474307 
L 337.555041 194.544926 
L 338.189752 194.380462 
L 341.04595 194.173428 
L 342.950083 194.464931 
L 343.902149 194.569302 
L 345.806281 194.528935 
L 348.345124 193.919429 
L 350.249256 193.286609 
L 351.201322 192.730575 
L 352.470744 191.67145 
L 357.231074 186.92599 
L 364.530248 179.23245 
L 366.117025 177.947489 
L 367.703802 176.970717 
L 369.925289 175.874074 
L 371.194711 175.429932 
L 372.464132 175.209571 
L 373.733554 175.216683 
L 383.254215 175.500501 
L 389.918678 175.560936 
L 398.169917 175.191533 
L 398.487273 174.528 
L 398.487273 174.528 
" clip-path="url(#p561cb59481)" style="fill: none; stroke: #87ceeb; stroke-opacity: 0.75; stroke-linecap: square"/>
   </g>
   <g id="patch_3">
    <path d="M 57.6 307.584 
L 57.6 41.472 
" style="fill: none; stroke: #000000; stroke-width: 0.8; stroke-linejoin: miter; stroke-linecap: square"/>
   </g>
   <g id="patch_4">
    <path d="M 414.72 307.584 
L 414.72 41.472 
" style="fill: none; stroke: #000000; stroke-width: 0.8; stroke-linejoin: miter; stroke-linecap: square"/>
   </g>
   <g id="patch_5">
    <path d="M 57.6 307.584 
L 414.72 307.584 
" style="fill: none; stroke: #000000; stroke-width: 0.8; stroke-linejoin: miter; stroke-linecap: square"/>
   </g>
   <g id="patch_6">
    <path d="M 57.6 41.472 
L 414.72 41.472 
" style="fill: none; stroke: #000000; stroke-width: 0.8; stroke-linejoin: miter; stroke-linecap: square"/>
   </g>
  </g>
 </g>
 <defs>
  <clipPath id="p561cb59481">
   <rect x="57.6" y="41.472" width="357.12" height="266.112"/>
  </clipPath>
 </defs>
</svg>
