<?xml version="1.0" encoding="utf-8" standalone="no"?>
<!DOCTYPE svg PUBLIC "-//W3C//DTD SVG 1.1//EN"
  "http://www.w3.org/Graphics/SVG/1.1/DTD/svg11.dtd">
<svg xmlns:xlink="http://www.w3.org/1999/xlink" width="460.8pt" height="345.6pt" viewBox="0 0 460.8 345.6" xmlns="http://www.w3.org/2000/svg" version="1.1">
 <metadata>
  <rdf:RDF xmlns:dc="http://purl.org/dc/elements/1.1/" xmlns:cc="http://creativecommons.org/ns#" xmlns:rdf="http://www.w3.org/1999/02/22-rdf-syntax-ns#">
   <cc:Work>
    <dc:type rdf:resource="http://purl.org/dc/dcmitype/StillImage"/>
    <dc:date>2024-04-23T11:13:05.021169</dc:date>
    <dc:format>image/svg+xml</dc:format>
    <dc:creator>
     <cc:Agent>
      <dc:title>Matplotlib v3.8.3, https://matplotlib.org/</dc:title>
     </cc:Agent>
    </dc:creator>
   </cc:Work>
  </rdf:RDF>
 </metadata>
 <defs>
  <style type="text/css">*{stroke-linejoin: round; stroke-linecap: butt}</style>
 </defs>
 <g id="figure_1">
  <g id="patch_1">
   <path d="M 0 345.6 
L 460.8 345.6 
L 460.8 0 
L 0 0 
z
" style="fill: #ffffff"/>
  </g>
  <g id="axes_1">
   <g id="patch_2">
    <path d="M 57.6 307.584 
L 414.72 307.584 
L 414.72 41.472 
L 57.6 41.472 
z
" style="fill: #ffffff"/>
   </g>
   <g id="PolyCollection_1">
    <defs>
     <path id="mf4c9224282" d="M 73.832727 -171.061292 
L 73.832727 -171.061292 
L 74.150083 -238.597143 
L 74.467438 -240.467986 
L 74.784793 -242.303946 
L 75.102149 -244.070576 
L 75.419504 -245.776883 
L 75.73686 -247.450124 
L 76.054215 -249.092427 
L 76.37157 -250.691189 
L 76.688926 -252.271051 
L 77.006281 -253.8651 
L 77.323636 -255.416981 
L 77.640992 -256.970106 
L 77.958347 -258.413101 
L 78.275702 -259.840022 
L 78.593058 -261.304966 
L 78.910413 -262.793898 
L 79.227769 -264.294099 
L 79.545124 -265.88399 
L 79.862479 -267.473272 
L 80.179835 -269.113862 
L 80.49719 -270.760183 
L 80.814545 -272.441836 
L 81.131901 -274.245464 
L 81.449256 -276.098567 
L 81.766612 -277.960483 
L 82.083967 -279.745981 
L 82.401322 -281.534657 
L 82.718678 -283.402536 
L 83.036033 -285.25735 
L 83.353388 -287.101188 
L 83.670744 -288.96826 
L 83.988099 -290.898155 
L 84.305455 -291.350138 
L 84.62281 -291.662227 
L 84.940165 -291.881482 
L 85.257521 -291.93285 
L 85.574876 -291.963661 
L 85.892231 -292.009467 
L 86.209587 -292.032 
L 86.526942 -291.988918 
L 86.844298 -291.902108 
L 87.161653 -291.745203 
L 87.479008 -291.530504 
L 87.796364 -291.343615 
L 88.113719 -291.139076 
L 88.431074 -290.890291 
L 88.74843 -290.599998 
L 89.065785 -290.324116 
L 89.38314 -289.999934 
L 89.700496 -289.666033 
L 90.017851 -289.36338 
L 90.335207 -289.083983 
L 90.652562 -288.804816 
L 90.969917 -288.493783 
L 91.287273 -288.243762 
L 91.604628 -288.080981 
L 91.921983 -287.955634 
L 92.239339 -287.913826 
L 92.556694 -287.91109 
L 92.87405 -287.868857 
L 93.191405 -287.763276 
L 93.50876 -287.642825 
L 93.826116 -287.489495 
L 94.143471 -287.301633 
L 94.460826 -287.165652 
L 94.778182 -286.98405 
L 95.095537 -286.767397 
L 95.412893 -286.61318 
L 95.730248 -286.522046 
L 96.047603 -286.509239 
L 96.364959 -286.536196 
L 96.682314 -286.53065 
L 96.999669 -286.517385 
L 97.317025 -286.514941 
L 97.63438 -286.558165 
L 97.951736 -286.575275 
L 98.269091 -286.746943 
L 98.586446 -286.954414 
L 98.903802 -287.152802 
L 99.221157 -287.320961 
L 99.538512 -287.447152 
L 99.855868 -287.446246 
L 100.173223 -287.441883 
L 100.490579 -287.372184 
L 100.807934 -287.303625 
L 101.125289 -287.151964 
L 101.442645 -286.836715 
L 101.76 -286.448958 
L 102.077355 -286.013039 
L 102.394711 -285.681054 
L 102.712066 -285.389416 
L 103.029421 -285.033012 
L 103.346777 -284.689411 
L 103.664132 -284.353803 
L 103.981488 -284.004452 
L 104.298843 -283.572965 
L 104.616198 -283.195162 
L 104.933554 -282.855319 
L 105.250909 -282.558572 
L 105.568264 -282.398012 
L 105.88562 -282.151189 
L 106.202975 -281.780432 
L 106.520331 -281.346894 
L 106.837686 -280.8706 
L 107.155041 -280.291971 
L 107.472397 -279.708987 
L 107.789752 -279.129129 
L 108.107107 -278.455188 
L 108.424463 -277.776165 
L 108.741818 -277.158771 
L 109.059174 -276.583197 
L 109.376529 -275.982962 
L 109.693884 -275.508717 
L 110.01124 -275.037195 
L 110.328595 -274.549888 
L 110.64595 -274.04815 
L 110.963306 -273.536153 
L 111.280661 -273.080553 
L 111.598017 -272.586347 
L 111.915372 -271.948045 
L 112.232727 -271.324883 
L 112.550083 -270.560041 
L 112.867438 -269.786752 
L 113.184793 -269.082381 
L 113.502149 -268.535639 
L 113.819504 -267.995009 
L 114.13686 -267.632013 
L 114.454215 -267.400635 
L 114.77157 -267.173775 
L 115.088926 -266.968894 
L 115.406281 -266.892974 
L 115.723636 -266.913343 
L 116.040992 -266.914565 
L 116.358347 -266.87655 
L 116.675702 -266.812682 
L 116.993058 -266.917176 
L 117.310413 -267.030714 
L 117.627769 -267.134627 
L 117.945124 -267.263381 
L 118.262479 -267.37909 
L 118.579835 -267.450059 
L 118.89719 -267.510555 
L 119.214545 -267.625408 
L 119.531901 -267.775012 
L 119.849256 -268.01746 
L 120.166612 -268.323519 
L 120.483967 -268.657487 
L 120.801322 -269.028983 
L 121.118678 -269.372577 
L 121.436033 -269.827964 
L 121.753388 -270.366244 
L 122.070744 -270.925949 
L 122.388099 -271.566829 
L 122.705455 -272.242639 
L 123.02281 -272.84956 
L 123.340165 -273.407005 
L 123.657521 -273.94317 
L 123.974876 -274.481474 
L 124.292231 -274.967406 
L 124.609587 -275.422923 
L 124.926942 -275.808849 
L 125.244298 -276.174965 
L 125.561653 -276.410062 
L 125.879008 -276.545022 
L 126.196364 -276.656761 
L 126.513719 -276.783588 
L 126.831074 -276.882816 
L 127.14843 -277.034625 
L 127.465785 -277.303508 
L 127.78314 -277.649396 
L 128.100496 -278.016467 
L 128.417851 -278.376483 
L 128.735207 -278.713913 
L 129.052562 -278.959693 
L 129.369917 -279.176714 
L 129.687273 -279.373526 
L 130.004628 -279.453348 
L 130.321983 -279.519503 
L 130.639339 -279.489407 
L 130.956694 -279.406238 
L 131.27405 -279.344392 
L 131.591405 -279.270071 
L 131.90876 -279.125601 
L 132.226116 -279.071965 
L 132.543471 -278.944582 
L 132.860826 -278.946427 
L 133.178182 -278.909722 
L 133.495537 -278.868418 
L 133.812893 -278.695261 
L 134.130248 -278.557569 
L 134.447603 -278.268768 
L 134.764959 -277.935134 
L 135.082314 -277.618377 
L 135.399669 -277.29662 
L 135.717025 -276.926846 
L 136.03438 -276.402826 
L 136.351736 -275.881987 
L 136.669091 -275.350554 
L 136.986446 -274.850269 
L 137.303802 -274.236158 
L 137.621157 -273.673084 
L 137.938512 -273.116151 
L 138.255868 -272.506127 
L 138.573223 -271.974228 
L 138.890579 -271.449078 
L 139.207934 -270.895981 
L 139.525289 -270.222865 
L 139.842645 -269.530707 
L 140.16 -268.777413 
L 140.477355 -268.002031 
L 140.794711 -267.193805 
L 141.112066 -266.332988 
L 141.429421 -265.52357 
L 141.746777 -264.626374 
L 142.064132 -263.679873 
L 142.381488 -262.746205 
L 142.698843 -261.723014 
L 143.016198 -260.577975 
L 143.333554 -259.425429 
L 143.650909 -258.297908 
L 143.968264 -257.212299 
L 144.28562 -256.091003 
L 144.602975 -255.015386 
L 144.920331 -253.984925 
L 145.237686 -252.969535 
L 145.555041 -251.944325 
L 145.872397 -251.034954 
L 146.189752 -250.165053 
L 146.507107 -249.319348 
L 146.824463 -248.457528 
L 147.141818 -247.602203 
L 147.459174 -246.703036 
L 147.776529 -245.783606 
L 148.093884 -244.806738 
L 148.41124 -243.834485 
L 148.728595 -242.969124 
L 149.04595 -242.144415 
L 149.363306 -241.379211 
L 149.680661 -240.648352 
L 149.998017 -239.945241 
L 150.315372 -239.277532 
L 150.632727 -238.637475 
L 150.950083 -238.104559 
L 151.267438 -237.63627 
L 151.584793 -237.174059 
L 151.902149 -236.731717 
L 152.219504 -236.373764 
L 152.53686 -236.002418 
L 152.854215 -235.655071 
L 153.17157 -235.263013 
L 153.488926 -234.915596 
L 153.806281 -234.611261 
L 154.123636 -234.426335 
L 154.440992 -234.315737 
L 154.758347 -234.283222 
L 155.075702 -234.246895 
L 155.393058 -234.199516 
L 155.710413 -234.160987 
L 156.027769 -234.10568 
L 156.345124 -234.130819 
L 156.662479 -234.200283 
L 156.979835 -234.261509 
L 157.29719 -234.297943 
L 157.614545 -234.328488 
L 157.931901 -234.306678 
L 158.249256 -234.260368 
L 158.566612 -234.25139 
L 158.883967 -234.161701 
L 159.201322 -234.016712 
L 159.518678 -233.911454 
L 159.836033 -233.849854 
L 160.153388 -233.783674 
L 160.470744 -233.727683 
L 160.788099 -233.677115 
L 161.105455 -233.622508 
L 161.42281 -233.56678 
L 161.740165 -233.478562 
L 162.057521 -233.41095 
L 162.374876 -233.329184 
L 162.692231 -233.246303 
L 163.009587 -233.22661 
L 163.326942 -233.291156 
L 163.644298 -233.443759 
L 163.961653 -233.647511 
L 164.279008 -233.83706 
L 164.596364 -234.095541 
L 164.913719 -234.362708 
L 165.231074 -234.646169 
L 165.54843 -234.951076 
L 165.865785 -235.284942 
L 166.18314 -235.570044 
L 166.500496 -235.875284 
L 166.817851 -236.228459 
L 167.135207 -236.63483 
L 167.452562 -237.105476 
L 167.769917 -237.644719 
L 168.087273 -238.161242 
L 168.404628 -238.666461 
L 168.721983 -239.152177 
L 169.039339 -239.533174 
L 169.356694 -239.88173 
L 169.67405 -240.245408 
L 169.991405 -240.563739 
L 170.30876 -240.849563 
L 170.626116 -241.088803 
L 170.943471 -241.27341 
L 171.260826 -241.400069 
L 171.578182 -241.501369 
L 171.895537 -241.577394 
L 172.212893 -241.630948 
L 172.530248 -241.659483 
L 172.847603 -241.689328 
L 173.164959 -241.750039 
L 173.482314 -241.799272 
L 173.799669 -241.834872 
L 174.117025 -241.807974 
L 174.43438 -241.717118 
L 174.751736 -241.548503 
L 175.069091 -241.329023 
L 175.386446 -241.099707 
L 175.703802 -240.879713 
L 176.021157 -240.644792 
L 176.338512 -240.407715 
L 176.655868 -240.148362 
L 176.973223 -239.827652 
L 177.290579 -239.525502 
L 177.607934 -239.238494 
L 177.925289 -238.980688 
L 178.242645 -238.760525 
L 178.56 -238.509558 
L 178.877355 -238.21797 
L 179.194711 -237.99017 
L 179.512066 -237.841494 
L 179.829421 -237.683569 
L 180.146777 -237.529655 
L 180.464132 -237.366364 
L 180.781488 -237.165754 
L 181.098843 -236.931086 
L 181.416198 -236.716076 
L 181.733554 -236.54521 
L 182.050909 -236.372304 
L 182.368264 -236.210108 
L 182.68562 -236.061062 
L 183.002975 -235.882984 
L 183.320331 -235.688113 
L 183.637686 -235.474087 
L 183.955041 -235.1877 
L 184.272397 -234.843104 
L 184.589752 -234.491104 
L 184.907107 -234.103504 
L 185.224463 -233.70688 
L 185.541818 -233.31025 
L 185.859174 -232.923893 
L 186.176529 -232.53436 
L 186.493884 -232.154057 
L 186.81124 -231.745249 
L 187.128595 -231.290779 
L 187.44595 -230.792512 
L 187.763306 -230.249021 
L 188.080661 -229.652346 
L 188.398017 -229.067567 
L 188.715372 -228.495008 
L 189.032727 -227.925842 
L 189.350083 -227.391975 
L 189.667438 -226.860715 
L 189.984793 -226.286646 
L 190.302149 -225.710215 
L 190.619504 -225.129072 
L 190.93686 -224.574696 
L 191.254215 -224.086091 
L 191.57157 -223.664221 
L 191.888926 -223.272262 
L 192.206281 -222.898529 
L 192.523636 -222.53257 
L 192.840992 -222.179007 
L 193.158347 -221.842868 
L 193.475702 -221.519341 
L 193.793058 -221.228765 
L 194.110413 -220.958822 
L 194.427769 -220.729367 
L 194.745124 -220.528074 
L 195.062479 -220.338946 
L 195.379835 -220.170561 
L 195.69719 -220.007601 
L 196.014545 -219.830566 
L 196.331901 -219.657889 
L 196.649256 -219.485528 
L 196.966612 -219.314197 
L 197.283967 -219.169843 
L 197.601322 -219.00563 
L 197.918678 -218.81585 
L 198.236033 -218.596801 
L 198.553388 -218.334785 
L 198.870744 -218.095063 
L 199.188099 -217.868125 
L 199.505455 -217.596656 
L 199.82281 -217.278291 
L 200.140165 -216.914953 
L 200.457521 -216.499853 
L 200.774876 -216.052304 
L 201.092231 -215.588151 
L 201.409587 -215.104592 
L 201.726942 -214.597699 
L 202.044298 -214.057972 
L 202.361653 -213.508301 
L 202.679008 -212.938362 
L 202.996364 -212.372683 
L 203.313719 -211.821047 
L 203.631074 -211.2726 
L 203.94843 -210.731398 
L 204.265785 -210.226562 
L 204.58314 -209.758726 
L 204.900496 -209.305191 
L 205.217851 -208.859543 
L 205.535207 -208.402928 
L 205.852562 -207.927538 
L 206.169917 -207.438439 
L 206.487273 -206.934513 
L 206.804628 -206.430627 
L 207.121983 -205.942034 
L 207.439339 -205.487748 
L 207.756694 -205.070621 
L 208.07405 -204.693048 
L 208.391405 -204.355618 
L 208.70876 -204.033913 
L 209.026116 -203.71254 
L 209.343471 -203.390846 
L 209.660826 -203.074038 
L 209.978182 -202.770389 
L 210.295537 -202.490243 
L 210.612893 -202.233196 
L 210.930248 -202.007543 
L 211.247603 -201.812955 
L 211.564959 -201.592874 
L 211.882314 -201.331112 
L 212.199669 -201.056151 
L 212.517025 -200.788681 
L 212.83438 -200.521677 
L 213.151736 -200.245579 
L 213.469091 -199.954408 
L 213.786446 -199.657028 
L 214.103802 -199.358209 
L 214.421157 -199.056001 
L 214.738512 -198.76544 
L 215.055868 -198.489191 
L 215.373223 -198.242383 
L 215.690579 -198.022456 
L 216.007934 -197.81786 
L 216.325289 -197.627654 
L 216.642645 -197.450698 
L 216.96 -197.295389 
L 217.277355 -197.152599 
L 217.594711 -197.013679 
L 217.912066 -196.898944 
L 218.229421 -196.816719 
L 218.546777 -196.775396 
L 218.864132 -196.779077 
L 219.181488 -196.814582 
L 219.498843 -196.866217 
L 219.816198 -196.939203 
L 220.133554 -197.017764 
L 220.450909 -197.127734 
L 220.768264 -197.277324 
L 221.08562 -197.44793 
L 221.402975 -197.649392 
L 221.720331 -197.881154 
L 222.037686 -198.094144 
L 222.355041 -198.28451 
L 222.672397 -198.451428 
L 222.989752 -198.593037 
L 223.307107 -198.70803 
L 223.624463 -198.786396 
L 223.941818 -198.824894 
L 224.259174 -198.806096 
L 224.576529 -198.722453 
L 224.893884 -198.566214 
L 225.21124 -198.3406 
L 225.528595 -198.06809 
L 225.84595 -197.770624 
L 226.163306 -197.435719 
L 226.480661 -197.064044 
L 226.798017 -196.670565 
L 227.115372 -196.239538 
L 227.432727 -195.746783 
L 227.750083 -195.188356 
L 228.067438 -194.573716 
L 228.384793 -193.897283 
L 228.702149 -193.168672 
L 229.019504 -192.392025 
L 229.33686 -191.593851 
L 229.654215 -190.765982 
L 229.97157 -189.901052 
L 230.288926 -188.991657 
L 230.606281 -188.047348 
L 230.923636 -187.095358 
L 231.240992 -186.132569 
L 231.558347 -185.144045 
L 231.875702 -184.163939 
L 232.193058 -183.195257 
L 232.510413 -182.214542 
L 232.827769 -181.230693 
L 233.145124 -180.248105 
L 233.462479 -179.292218 
L 233.779835 -178.357074 
L 234.09719 -177.422092 
L 234.414545 -176.481243 
L 234.731901 -175.541292 
L 235.049256 -174.577267 
L 235.366612 -173.594035 
L 235.683967 -172.595357 
L 236.001322 -171.57536 
L 236.318678 -170.547224 
L 236.636033 -169.527227 
L 236.953388 -168.528549 
L 237.270744 -167.545317 
L 237.588099 -166.581292 
L 237.905455 -165.641341 
L 238.22281 -164.700492 
L 238.540165 -163.76551 
L 238.857521 -162.830366 
L 239.174876 -161.874479 
L 239.492231 -160.891891 
L 239.809587 -159.908042 
L 240.126942 -158.927327 
L 240.444298 -157.958645 
L 240.761653 -156.978539 
L 241.079008 -155.990015 
L 241.396364 -155.027226 
L 241.713719 -154.075236 
L 242.031074 -153.130927 
L 242.34843 -152.221532 
L 242.665785 -151.356602 
L 242.98314 -150.528733 
L 243.300496 -149.730559 
L 243.617851 -148.953912 
L 243.935207 -148.225301 
L 244.252562 -147.548868 
L 244.569917 -146.934228 
L 244.887273 -146.375801 
L 245.204628 -145.883046 
L 245.521983 -145.452019 
L 245.839339 -145.05854 
L 246.156694 -144.686865 
L 246.47405 -144.35196 
L 246.791405 -144.054494 
L 247.10876 -143.781984 
L 247.426116 -143.55637 
L 247.743471 -143.400131 
L 248.060826 -143.316488 
L 248.378182 -143.29769 
L 248.695537 -143.336188 
L 249.012893 -143.414554 
L 249.330248 -143.529547 
L 249.647603 -143.671156 
L 249.964959 -143.838074 
L 250.282314 -144.02844 
L 250.599669 -144.24143 
L 250.917025 -144.473192 
L 251.23438 -144.674654 
L 251.551736 -144.84526 
L 251.869091 -144.99485 
L 252.186446 -145.10482 
L 252.503802 -145.18338 
L 252.821157 -145.256367 
L 253.138512 -145.308002 
L 253.455868 -145.343507 
L 253.773223 -145.347188 
L 254.090579 -145.305865 
L 254.407934 -145.22364 
L 254.725289 -145.108905 
L 255.042645 -144.969985 
L 255.36 -144.827195 
L 255.677355 -144.671886 
L 255.994711 -144.49493 
L 256.312066 -144.304724 
L 256.629421 -144.100128 
L 256.946777 -143.880201 
L 257.264132 -143.633393 
L 257.581488 -143.357144 
L 257.898843 -143.066583 
L 258.216198 -142.764375 
L 258.533554 -142.465556 
L 258.850909 -142.168176 
L 259.168264 -141.877004 
L 259.48562 -141.600907 
L 259.802975 -141.333903 
L 260.120331 -141.066433 
L 260.437686 -140.791472 
L 260.755041 -140.52971 
L 261.072397 -140.309629 
L 261.389752 -140.115041 
L 261.707107 -139.889388 
L 262.024463 -139.632341 
L 262.341818 -139.352195 
L 262.659174 -139.048546 
L 262.976529 -138.731738 
L 263.293884 -138.410043 
L 263.61124 -138.088671 
L 263.928595 -137.766966 
L 264.24595 -137.429536 
L 264.563306 -137.051963 
L 264.880661 -136.634836 
L 265.198017 -136.18055 
L 265.515372 -135.691957 
L 265.832727 -135.188071 
L 266.150083 -134.684145 
L 266.467438 -134.195046 
L 266.784793 -133.719656 
L 267.102149 -133.263041 
L 267.419504 -132.817393 
L 267.73686 -132.363858 
L 268.054215 -131.896022 
L 268.37157 -131.391186 
L 268.688926 -130.849984 
L 269.006281 -130.301537 
L 269.323636 -129.749901 
L 269.640992 -129.184222 
L 269.958347 -128.614283 
L 270.275702 -128.064612 
L 270.593058 -127.524885 
L 270.910413 -127.017992 
L 271.227769 -126.534433 
L 271.545124 -126.07028 
L 271.862479 -125.622731 
L 272.179835 -125.207631 
L 272.49719 -124.844293 
L 272.814545 -124.525928 
L 273.131901 -124.254459 
L 273.449256 -124.027521 
L 273.766612 -123.787799 
L 274.083967 -123.525783 
L 274.401322 -123.306734 
L 274.718678 -123.116954 
L 275.036033 -122.952741 
L 275.353388 -122.808387 
L 275.670744 -122.637056 
L 275.988099 -122.464695 
L 276.305455 -122.292018 
L 276.62281 -122.114983 
L 276.940165 -121.952023 
L 277.257521 -121.783638 
L 277.574876 -121.59451 
L 277.892231 -121.393217 
L 278.209587 -121.163762 
L 278.526942 -120.893819 
L 278.844298 -120.603243 
L 279.161653 -120.279716 
L 279.479008 -119.943577 
L 279.796364 -119.590014 
L 280.113719 -119.224055 
L 280.431074 -118.850322 
L 280.74843 -118.458363 
L 281.065785 -118.036493 
L 281.38314 -117.547888 
L 281.700496 -116.993512 
L 282.017851 -116.412369 
L 282.335207 -115.835938 
L 282.652562 -115.261869 
L 282.969917 -114.730609 
L 283.287273 -114.196742 
L 283.604628 -113.627576 
L 283.921983 -113.055017 
L 284.239339 -112.470238 
L 284.556694 -111.873563 
L 284.87405 -111.330072 
L 285.191405 -110.831805 
L 285.50876 -110.377335 
L 285.826116 -109.968527 
L 286.143471 -109.588224 
L 286.460826 -109.198691 
L 286.778182 -108.812334 
L 287.095537 -108.415704 
L 287.412893 -108.01908 
L 287.730248 -107.63148 
L 288.047603 -107.27948 
L 288.364959 -106.934884 
L 288.682314 -106.648496 
L 288.999669 -106.434471 
L 289.317025 -106.2396 
L 289.63438 -106.061522 
L 289.951736 -105.912476 
L 290.269091 -105.75028 
L 290.586446 -105.577374 
L 290.903802 -105.406508 
L 291.221157 -105.191498 
L 291.538512 -104.95683 
L 291.855868 -104.75622 
L 292.173223 -104.592929 
L 292.490579 -104.439015 
L 292.807934 -104.28109 
L 293.125289 -104.132414 
L 293.442645 -103.904614 
L 293.76 -103.613026 
L 294.077355 -103.362059 
L 294.394711 -103.141896 
L 294.712066 -102.88409 
L 295.029421 -102.597082 
L 295.346777 -102.294932 
L 295.664132 -101.974222 
L 295.981488 -101.714869 
L 296.298843 -101.477792 
L 296.616198 -101.242871 
L 296.933554 -101.022877 
L 297.250909 -100.793561 
L 297.568264 -100.574081 
L 297.88562 -100.405466 
L 298.202975 -100.31461 
L 298.520331 -100.287712 
L 298.837686 -100.323312 
L 299.155041 -100.372545 
L 299.472397 -100.433256 
L 299.789752 -100.463101 
L 300.107107 -100.491636 
L 300.424463 -100.54519 
L 300.741818 -100.621215 
L 301.059174 -100.722515 
L 301.376529 -100.849174 
L 301.693884 -101.033781 
L 302.01124 -101.273021 
L 302.328595 -101.558845 
L 302.64595 -101.877175 
L 302.963306 -102.240854 
L 303.280661 -102.58941 
L 303.598017 -102.970407 
L 303.915372 -103.456123 
L 304.232727 -103.961342 
L 304.550083 -104.477865 
L 304.867438 -105.017108 
L 305.184793 -105.487754 
L 305.502149 -105.894125 
L 305.819504 -106.2473 
L 306.13686 -106.55254 
L 306.454215 -106.837642 
L 306.77157 -107.171508 
L 307.088926 -107.476415 
L 307.406281 -107.759876 
L 307.723636 -108.027043 
L 308.040992 -108.285524 
L 308.358347 -108.475072 
L 308.675702 -108.678824 
L 308.993058 -108.831428 
L 309.310413 -108.895974 
L 309.627769 -108.876281 
L 309.945124 -108.7934 
L 310.262479 -108.711634 
L 310.579835 -108.644022 
L 310.89719 -108.555804 
L 311.214545 -108.500076 
L 311.531901 -108.445469 
L 311.849256 -108.394901 
L 312.166612 -108.33891 
L 312.483967 -108.27273 
L 312.801322 -108.21113 
L 313.118678 -108.105872 
L 313.436033 -107.960883 
L 313.753388 -107.871194 
L 314.070744 -107.862216 
L 314.388099 -107.815906 
L 314.705455 -107.794096 
L 315.02281 -107.824641 
L 315.340165 -107.861075 
L 315.657521 -107.922301 
L 315.974876 -107.991765 
L 316.292231 -108.016904 
L 316.609587 -107.961597 
L 316.926942 -107.923068 
L 317.244298 -107.875689 
L 317.561653 -107.839362 
L 317.879008 -107.806847 
L 318.196364 -107.696249 
L 318.513719 -107.511323 
L 318.831074 -107.206988 
L 319.14843 -106.859571 
L 319.465785 -106.467513 
L 319.78314 -106.120166 
L 320.100496 -105.74882 
L 320.417851 -105.390867 
L 320.735207 -104.948525 
L 321.052562 -104.486314 
L 321.369917 -104.018025 
L 321.687273 -103.485109 
L 322.004628 -102.845052 
L 322.321983 -102.177343 
L 322.639339 -101.474232 
L 322.956694 -100.743373 
L 323.27405 -99.978169 
L 323.591405 -99.15346 
L 323.90876 -98.288099 
L 324.226116 -97.315846 
L 324.543471 -96.338978 
L 324.860826 -95.419548 
L 325.178182 -94.520381 
L 325.495537 -93.665056 
L 325.812893 -92.803236 
L 326.130248 -91.957531 
L 326.447603 -91.08763 
L 326.764959 -90.178259 
L 327.082314 -89.153049 
L 327.399669 -88.137659 
L 327.717025 -87.107198 
L 328.03438 -86.031581 
L 328.351736 -84.910285 
L 328.669091 -83.824676 
L 328.986446 -82.697155 
L 329.303802 -81.544609 
L 329.621157 -80.39957 
L 329.938512 -79.376378 
L 330.255868 -78.44271 
L 330.573223 -77.49621 
L 330.890579 -76.599014 
L 331.207934 -75.789596 
L 331.525289 -74.928779 
L 331.842645 -74.120553 
L 332.16 -73.345171 
L 332.477355 -72.591877 
L 332.794711 -71.899719 
L 333.112066 -71.226603 
L 333.429421 -70.673506 
L 333.746777 -70.148356 
L 334.064132 -69.616457 
L 334.381488 -69.006433 
L 334.698843 -68.449499 
L 335.016198 -67.886426 
L 335.333554 -67.272315 
L 335.650909 -66.77203 
L 335.968264 -66.240597 
L 336.28562 -65.719758 
L 336.602975 -65.195738 
L 336.920331 -64.825964 
L 337.237686 -64.504207 
L 337.555041 -64.18745 
L 337.872397 -63.853816 
L 338.189752 -63.565015 
L 338.507107 -63.427323 
L 338.824463 -63.254166 
L 339.141818 -63.212862 
L 339.459174 -63.176157 
L 339.776529 -63.178002 
L 340.093884 -63.050619 
L 340.41124 -62.996983 
L 340.728595 -62.852513 
L 341.04595 -62.778192 
L 341.363306 -62.716346 
L 341.680661 -62.633177 
L 341.998017 -62.603081 
L 342.315372 -62.669236 
L 342.632727 -62.749058 
L 342.950083 -62.94587 
L 343.267438 -63.162891 
L 343.584793 -63.408671 
L 343.902149 -63.746101 
L 344.219504 -64.106117 
L 344.53686 -64.473188 
L 344.854215 -64.819076 
L 345.17157 -65.087959 
L 345.488926 -65.239768 
L 345.806281 -65.338996 
L 346.123636 -65.465823 
L 346.440992 -65.577562 
L 346.758347 -65.712521 
L 347.075702 -65.947619 
L 347.393058 -66.313735 
L 347.710413 -66.699661 
L 348.027769 -67.155178 
L 348.345124 -67.64111 
L 348.662479 -68.179414 
L 348.979835 -68.715579 
L 349.29719 -69.273024 
L 349.614545 -69.879945 
L 349.931901 -70.555755 
L 350.249256 -71.196635 
L 350.566612 -71.75634 
L 350.883967 -72.29462 
L 351.201322 -72.750007 
L 351.518678 -73.093601 
L 351.836033 -73.465097 
L 352.153388 -73.799065 
L 352.470744 -74.105124 
L 352.788099 -74.347572 
L 353.105455 -74.497176 
L 353.42281 -74.612029 
L 353.740165 -74.672525 
L 354.057521 -74.743494 
L 354.374876 -74.859203 
L 354.692231 -74.987957 
L 355.009587 -75.09187 
L 355.326942 -75.205408 
L 355.644298 -75.309902 
L 355.961653 -75.246034 
L 356.279008 -75.208019 
L 356.596364 -75.209241 
L 356.913719 -75.22961 
L 357.231074 -75.15369 
L 357.54843 -74.948809 
L 357.865785 -74.721949 
L 358.18314 -74.490571 
L 358.500496 -74.127575 
L 358.817851 -73.586945 
L 359.135207 -73.040203 
L 359.452562 -72.335832 
L 359.769917 -71.562543 
L 360.087273 -70.797701 
L 360.404628 -70.174539 
L 360.721983 -69.536237 
L 361.039339 -69.042031 
L 361.356694 -68.586431 
L 361.67405 -68.074434 
L 361.991405 -67.572696 
L 362.30876 -67.085389 
L 362.626116 -66.613867 
L 362.943471 -66.139621 
L 363.260826 -65.539387 
L 363.578182 -64.963813 
L 363.895537 -64.346419 
L 364.212893 -63.667396 
L 364.530248 -62.993455 
L 364.847603 -62.413597 
L 365.164959 -61.830613 
L 365.482314 -61.251984 
L 365.799669 -60.77569 
L 366.117025 -60.342152 
L 366.43438 -59.971395 
L 366.751736 -59.724572 
L 367.069091 -59.564012 
L 367.386446 -59.267265 
L 367.703802 -58.927422 
L 368.021157 -58.549619 
L 368.338512 -58.118132 
L 368.655868 -57.768781 
L 368.973223 -57.433173 
L 369.290579 -57.089572 
L 369.607934 -56.733168 
L 369.925289 -56.44153 
L 370.242645 -56.109545 
L 370.56 -55.673626 
L 370.877355 -55.285869 
L 371.194711 -54.97062 
L 371.512066 -54.818959 
L 371.829421 -54.7504 
L 372.146777 -54.6807 
L 372.464132 -54.676338 
L 372.781488 -54.675432 
L 373.098843 -54.801623 
L 373.416198 -54.969781 
L 373.733554 -55.16817 
L 374.050909 -55.375641 
L 374.368264 -55.547309 
L 374.68562 -55.564419 
L 375.002975 -55.607643 
L 375.320331 -55.605199 
L 375.637686 -55.591934 
L 375.955041 -55.586388 
L 376.272397 -55.613345 
L 376.589752 -55.600538 
L 376.907107 -55.509404 
L 377.224463 -55.355187 
L 377.541818 -55.138534 
L 377.859174 -54.956932 
L 378.176529 -54.820951 
L 378.493884 -54.651557 
L 378.81124 -54.534958 
L 379.128595 -54.450719 
L 379.44595 -54.380532 
L 379.763306 -54.372576 
L 380.080661 -54.402701 
L 380.398017 -54.392038 
L 380.715372 -54.295821 
L 381.032727 -54.159856 
L 381.350083 -53.93404 
L 381.667438 -53.644298 
L 381.984793 -53.383212 
L 382.302149 -53.118386 
L 382.619504 -52.826495 
L 382.93686 -52.499247 
L 383.254215 -52.177312 
L 383.57157 -51.89897 
L 383.888926 -51.601211 
L 384.206281 -51.339656 
L 384.523636 -51.116743 
L 384.840992 -50.905578 
L 385.158347 -50.6604 
L 385.475702 -50.466517 
L 385.793058 -50.335927 
L 386.110413 -50.241967 
L 386.427769 -50.206224 
L 386.745124 -50.186056 
L 387.062479 -50.142897 
L 387.379835 -50.112 
L 387.69719 -50.240396 
L 388.014545 -50.452732 
L 388.331901 -50.795769 
L 388.649256 -51.272652 
L 388.966612 -53.139724 
L 389.283967 -54.983562 
L 389.601322 -56.838377 
L 389.918678 -58.706256 
L 390.236033 -60.494932 
L 390.553388 -62.280429 
L 390.870744 -64.142345 
L 391.188099 -65.995448 
L 391.505455 -67.799077 
L 391.82281 -69.48073 
L 392.140165 -71.127051 
L 392.457521 -72.76764 
L 392.774876 -74.356923 
L 393.092231 -75.946814 
L 393.409587 -77.447015 
L 393.726942 -78.935946 
L 394.044298 -80.400891 
L 394.361653 -81.827812 
L 394.679008 -83.270807 
L 394.996364 -84.823932 
L 395.313719 -86.375812 
L 395.631074 -87.969862 
L 395.94843 -89.549724 
L 396.265785 -91.148486 
L 396.58314 -92.790788 
L 396.900496 -94.46403 
L 397.217851 -96.170336 
L 397.535207 -97.936966 
L 397.852562 -99.772927 
L 398.169917 -101.643769 
L 398.487273 -171.061292 
L 398.487273 -171.061292 
L 398.487273 -171.061292 
L 398.169917 -171.061292 
L 397.852562 -171.061292 
L 397.535207 -171.061292 
L 397.217851 -171.061292 
L 396.900496 -171.061292 
L 396.58314 -171.061292 
L 396.265785 -171.061292 
L 395.94843 -171.061292 
L 395.631074 -171.061292 
L 395.313719 -171.061292 
L 394.996364 -171.061292 
L 394.679008 -171.061292 
L 394.361653 -171.061292 
L 394.044298 -171.061292 
L 393.726942 -171.061292 
L 393.409587 -171.061292 
L 393.092231 -171.061292 
L 392.774876 -171.061292 
L 392.457521 -171.061292 
L 392.140165 -171.061292 
L 391.82281 -171.061292 
L 391.505455 -171.061292 
L 391.188099 -171.061292 
L 390.870744 -171.061292 
L 390.553388 -171.061292 
L 390.236033 -171.061292 
L 389.918678 -171.061292 
L 389.601322 -171.061292 
L 389.283967 -171.061292 
L 388.966612 -171.061292 
L 388.649256 -171.061292 
L 388.331901 -171.061292 
L 388.014545 -171.061292 
L 387.69719 -171.061292 
L 387.379835 -171.061292 
L 387.062479 -171.061292 
L 386.745124 -171.061292 
L 386.427769 -171.061292 
L 386.110413 -171.061292 
L 385.793058 -171.061292 
L 385.475702 -171.061292 
L 385.158347 -171.061292 
L 384.840992 -171.061292 
L 384.523636 -171.061292 
L 384.206281 -171.061292 
L 383.888926 -171.061292 
L 383.57157 -171.061292 
L 383.254215 -171.061292 
L 382.93686 -171.061292 
L 382.619504 -171.061292 
L 382.302149 -171.061292 
L 381.984793 -171.061292 
L 381.667438 -171.061292 
L 381.350083 -171.061292 
L 381.032727 -171.061292 
L 380.715372 -171.061292 
L 380.398017 -171.061292 
L 380.080661 -171.061292 
L 379.763306 -171.061292 
L 379.44595 -171.061292 
L 379.128595 -171.061292 
L 378.81124 -171.061292 
L 378.493884 -171.061292 
L 378.176529 -171.061292 
L 377.859174 -171.061292 
L 377.541818 -171.061292 
L 377.224463 -171.061292 
L 376.907107 -171.061292 
L 376.589752 -171.061292 
L 376.272397 -171.061292 
L 375.955041 -171.061292 
L 375.637686 -171.061292 
L 375.320331 -171.061292 
L 375.002975 -171.061292 
L 374.68562 -171.061292 
L 374.368264 -171.061292 
L 374.050909 -171.061292 
L 373.733554 -171.061292 
L 373.416198 -171.061292 
L 373.098843 -171.061292 
L 372.781488 -171.061292 
L 372.464132 -171.061292 
L 372.146777 -171.061292 
L 371.829421 -171.061292 
L 371.512066 -171.061292 
L 371.194711 -171.061292 
L 370.877355 -171.061292 
L 370.56 -171.061292 
L 370.242645 -171.061292 
L 369.925289 -171.061292 
L 369.607934 -171.061292 
L 369.290579 -171.061292 
L 368.973223 -171.061292 
L 368.655868 -171.061292 
L 368.338512 -171.061292 
L 368.021157 -171.061292 
L 367.703802 -171.061292 
L 367.386446 -171.061292 
L 367.069091 -171.061292 
L 366.751736 -171.061292 
L 366.43438 -171.061292 
L 366.117025 -171.061292 
L 365.799669 -171.061292 
L 365.482314 -171.061292 
L 365.164959 -171.061292 
L 364.847603 -171.061292 
L 364.530248 -171.061292 
L 364.212893 -171.061292 
L 363.895537 -171.061292 
L 363.578182 -171.061292 
L 363.260826 -171.061292 
L 362.943471 -171.061292 
L 362.626116 -171.061292 
L 362.30876 -171.061292 
L 361.991405 -171.061292 
L 361.67405 -171.061292 
L 361.356694 -171.061292 
L 361.039339 -171.061292 
L 360.721983 -171.061292 
L 360.404628 -171.061292 
L 360.087273 -171.061292 
L 359.769917 -171.061292 
L 359.452562 -171.061292 
L 359.135207 -171.061292 
L 358.817851 -171.061292 
L 358.500496 -171.061292 
L 358.18314 -171.061292 
L 357.865785 -171.061292 
L 357.54843 -171.061292 
L 357.231074 -171.061292 
L 356.913719 -171.061292 
L 356.596364 -171.061292 
L 356.279008 -171.061292 
L 355.961653 -171.061292 
L 355.644298 -171.061292 
L 355.326942 -171.061292 
L 355.009587 -171.061292 
L 354.692231 -171.061292 
L 354.374876 -171.061292 
L 354.057521 -171.061292 
L 353.740165 -171.061292 
L 353.42281 -171.061292 
L 353.105455 -171.061292 
L 352.788099 -171.061292 
L 352.470744 -171.061292 
L 352.153388 -171.061292 
L 351.836033 -171.061292 
L 351.518678 -171.061292 
L 351.201322 -171.061292 
L 350.883967 -171.061292 
L 350.566612 -171.061292 
L 350.249256 -171.061292 
L 349.931901 -171.061292 
L 349.614545 -171.061292 
L 349.29719 -171.061292 
L 348.979835 -171.061292 
L 348.662479 -171.061292 
L 348.345124 -171.061292 
L 348.027769 -171.061292 
L 347.710413 -171.061292 
L 347.393058 -171.061292 
L 347.075702 -171.061292 
L 346.758347 -171.061292 
L 346.440992 -171.061292 
L 346.123636 -171.061292 
L 345.806281 -171.061292 
L 345.488926 -171.061292 
L 345.17157 -171.061292 
L 344.854215 -171.061292 
L 344.53686 -171.061292 
L 344.219504 -171.061292 
L 343.902149 -171.061292 
L 343.584793 -171.061292 
L 343.267438 -171.061292 
L 342.950083 -171.061292 
L 342.632727 -171.061292 
L 342.315372 -171.061292 
L 341.998017 -171.061292 
L 341.680661 -171.061292 
L 341.363306 -171.061292 
L 341.04595 -171.061292 
L 340.728595 -171.061292 
L 340.41124 -171.061292 
L 340.093884 -171.061292 
L 339.776529 -171.061292 
L 339.459174 -171.061292 
L 339.141818 -171.061292 
L 338.824463 -171.061292 
L 338.507107 -171.061292 
L 338.189752 -171.061292 
L 337.872397 -171.061292 
L 337.555041 -171.061292 
L 337.237686 -171.061292 
L 336.920331 -171.061292 
L 336.602975 -171.061292 
L 336.28562 -171.061292 
L 335.968264 -171.061292 
L 335.650909 -171.061292 
L 335.333554 -171.061292 
L 335.016198 -171.061292 
L 334.698843 -171.061292 
L 334.381488 -171.061292 
L 334.064132 -171.061292 
L 333.746777 -171.061292 
L 333.429421 -171.061292 
L 333.112066 -171.061292 
L 332.794711 -171.061292 
L 332.477355 -171.061292 
L 332.16 -171.061292 
L 331.842645 -171.061292 
L 331.525289 -171.061292 
L 331.207934 -171.061292 
L 330.890579 -171.061292 
L 330.573223 -171.061292 
L 330.255868 -171.061292 
L 329.938512 -171.061292 
L 329.621157 -171.061292 
L 329.303802 -171.061292 
L 328.986446 -171.061292 
L 328.669091 -171.061292 
L 328.351736 -171.061292 
L 328.03438 -171.061292 
L 327.717025 -171.061292 
L 327.399669 -171.061292 
L 327.082314 -171.061292 
L 326.764959 -171.061292 
L 326.447603 -171.061292 
L 326.130248 -171.061292 
L 325.812893 -171.061292 
L 325.495537 -171.061292 
L 325.178182 -171.061292 
L 324.860826 -171.061292 
L 324.543471 -171.061292 
L 324.226116 -171.061292 
L 323.90876 -171.061292 
L 323.591405 -171.061292 
L 323.27405 -171.061292 
L 322.956694 -171.061292 
L 322.639339 -171.061292 
L 322.321983 -171.061292 
L 322.004628 -171.061292 
L 321.687273 -171.061292 
L 321.369917 -171.061292 
L 321.052562 -171.061292 
L 320.735207 -171.061292 
L 320.417851 -171.061292 
L 320.100496 -171.061292 
L 319.78314 -171.061292 
L 319.465785 -171.061292 
L 319.14843 -171.061292 
L 318.831074 -171.061292 
L 318.513719 -171.061292 
L 318.196364 -171.061292 
L 317.879008 -171.061292 
L 317.561653 -171.061292 
L 317.244298 -171.061292 
L 316.926942 -171.061292 
L 316.609587 -171.061292 
L 316.292231 -171.061292 
L 315.974876 -171.061292 
L 315.657521 -171.061292 
L 315.340165 -171.061292 
L 315.02281 -171.061292 
L 314.705455 -171.061292 
L 314.388099 -171.061292 
L 314.070744 -171.061292 
L 313.753388 -171.061292 
L 313.436033 -171.061292 
L 313.118678 -171.061292 
L 312.801322 -171.061292 
L 312.483967 -171.061292 
L 312.166612 -171.061292 
L 311.849256 -171.061292 
L 311.531901 -171.061292 
L 311.214545 -171.061292 
L 310.89719 -171.061292 
L 310.579835 -171.061292 
L 310.262479 -171.061292 
L 309.945124 -171.061292 
L 309.627769 -171.061292 
L 309.310413 -171.061292 
L 308.993058 -171.061292 
L 308.675702 -171.061292 
L 308.358347 -171.061292 
L 308.040992 -171.061292 
L 307.723636 -171.061292 
L 307.406281 -171.061292 
L 307.088926 -171.061292 
L 306.77157 -171.061292 
L 306.454215 -171.061292 
L 306.13686 -171.061292 
L 305.819504 -171.061292 
L 305.502149 -171.061292 
L 305.184793 -171.061292 
L 304.867438 -171.061292 
L 304.550083 -171.061292 
L 304.232727 -171.061292 
L 303.915372 -171.061292 
L 303.598017 -171.061292 
L 303.280661 -171.061292 
L 302.963306 -171.061292 
L 302.64595 -171.061292 
L 302.328595 -171.061292 
L 302.01124 -171.061292 
L 301.693884 -171.061292 
L 301.376529 -171.061292 
L 301.059174 -171.061292 
L 300.741818 -171.061292 
L 300.424463 -171.061292 
L 300.107107 -171.061292 
L 299.789752 -171.061292 
L 299.472397 -171.061292 
L 299.155041 -171.061292 
L 298.837686 -171.061292 
L 298.520331 -171.061292 
L 298.202975 -171.061292 
L 297.88562 -171.061292 
L 297.568264 -171.061292 
L 297.250909 -171.061292 
L 296.933554 -171.061292 
L 296.616198 -171.061292 
L 296.298843 -171.061292 
L 295.981488 -171.061292 
L 295.664132 -171.061292 
L 295.346777 -171.061292 
L 295.029421 -171.061292 
L 294.712066 -171.061292 
L 294.394711 -171.061292 
L 294.077355 -171.061292 
L 293.76 -171.061292 
L 293.442645 -171.061292 
L 293.125289 -171.061292 
L 292.807934 -171.061292 
L 292.490579 -171.061292 
L 292.173223 -171.061292 
L 291.855868 -171.061292 
L 291.538512 -171.061292 
L 291.221157 -171.061292 
L 290.903802 -171.061292 
L 290.586446 -171.061292 
L 290.269091 -171.061292 
L 289.951736 -171.061292 
L 289.63438 -171.061292 
L 289.317025 -171.061292 
L 288.999669 -171.061292 
L 288.682314 -171.061292 
L 288.364959 -171.061292 
L 288.047603 -171.061292 
L 287.730248 -171.061292 
L 287.412893 -171.061292 
L 287.095537 -171.061292 
L 286.778182 -171.061292 
L 286.460826 -171.061292 
L 286.143471 -171.061292 
L 285.826116 -171.061292 
L 285.50876 -171.061292 
L 285.191405 -171.061292 
L 284.87405 -171.061292 
L 284.556694 -171.061292 
L 284.239339 -171.061292 
L 283.921983 -171.061292 
L 283.604628 -171.061292 
L 283.287273 -171.061292 
L 282.969917 -171.061292 
L 282.652562 -171.061292 
L 282.335207 -171.061292 
L 282.017851 -171.061292 
L 281.700496 -171.061292 
L 281.38314 -171.061292 
L 281.065785 -171.061292 
L 280.74843 -171.061292 
L 280.431074 -171.061292 
L 280.113719 -171.061292 
L 279.796364 -171.061292 
L 279.479008 -171.061292 
L 279.161653 -171.061292 
L 278.844298 -171.061292 
L 278.526942 -171.061292 
L 278.209587 -171.061292 
L 277.892231 -171.061292 
L 277.574876 -171.061292 
L 277.257521 -171.061292 
L 276.940165 -171.061292 
L 276.62281 -171.061292 
L 276.305455 -171.061292 
L 275.988099 -171.061292 
L 275.670744 -171.061292 
L 275.353388 -171.061292 
L 275.036033 -171.061292 
L 274.718678 -171.061292 
L 274.401322 -171.061292 
L 274.083967 -171.061292 
L 273.766612 -171.061292 
L 273.449256 -171.061292 
L 273.131901 -171.061292 
L 272.814545 -171.061292 
L 272.49719 -171.061292 
L 272.179835 -171.061292 
L 271.862479 -171.061292 
L 271.545124 -171.061292 
L 271.227769 -171.061292 
L 270.910413 -171.061292 
L 270.593058 -171.061292 
L 270.275702 -171.061292 
L 269.958347 -171.061292 
L 269.640992 -171.061292 
L 269.323636 -171.061292 
L 269.006281 -171.061292 
L 268.688926 -171.061292 
L 268.37157 -171.061292 
L 268.054215 -171.061292 
L 267.73686 -171.061292 
L 267.419504 -171.061292 
L 267.102149 -171.061292 
L 266.784793 -171.061292 
L 266.467438 -171.061292 
L 266.150083 -171.061292 
L 265.832727 -171.061292 
L 265.515372 -171.061292 
L 265.198017 -171.061292 
L 264.880661 -171.061292 
L 264.563306 -171.061292 
L 264.24595 -171.061292 
L 263.928595 -171.061292 
L 263.61124 -171.061292 
L 263.293884 -171.061292 
L 262.976529 -171.061292 
L 262.659174 -171.061292 
L 262.341818 -171.061292 
L 262.024463 -171.061292 
L 261.707107 -171.061292 
L 261.389752 -171.061292 
L 261.072397 -171.061292 
L 260.755041 -171.061292 
L 260.437686 -171.061292 
L 260.120331 -171.061292 
L 259.802975 -171.061292 
L 259.48562 -171.061292 
L 259.168264 -171.061292 
L 258.850909 -171.061292 
L 258.533554 -171.061292 
L 258.216198 -171.061292 
L 257.898843 -171.061292 
L 257.581488 -171.061292 
L 257.264132 -171.061292 
L 256.946777 -171.061292 
L 256.629421 -171.061292 
L 256.312066 -171.061292 
L 255.994711 -171.061292 
L 255.677355 -171.061292 
L 255.36 -171.061292 
L 255.042645 -171.061292 
L 254.725289 -171.061292 
L 254.407934 -171.061292 
L 254.090579 -171.061292 
L 253.773223 -171.061292 
L 253.455868 -171.061292 
L 253.138512 -171.061292 
L 252.821157 -171.061292 
L 252.503802 -171.061292 
L 252.186446 -171.061292 
L 251.869091 -171.061292 
L 251.551736 -171.061292 
L 251.23438 -171.061292 
L 250.917025 -171.061292 
L 250.599669 -171.061292 
L 250.282314 -171.061292 
L 249.964959 -171.061292 
L 249.647603 -171.061292 
L 249.330248 -171.061292 
L 249.012893 -171.061292 
L 248.695537 -171.061292 
L 248.378182 -171.061292 
L 248.060826 -171.061292 
L 247.743471 -171.061292 
L 247.426116 -171.061292 
L 247.10876 -171.061292 
L 246.791405 -171.061292 
L 246.47405 -171.061292 
L 246.156694 -171.061292 
L 245.839339 -171.061292 
L 245.521983 -171.061292 
L 245.204628 -171.061292 
L 244.887273 -171.061292 
L 244.569917 -171.061292 
L 244.252562 -171.061292 
L 243.935207 -171.061292 
L 243.617851 -171.061292 
L 243.300496 -171.061292 
L 242.98314 -171.061292 
L 242.665785 -171.061292 
L 242.34843 -171.061292 
L 242.031074 -171.061292 
L 241.713719 -171.061292 
L 241.396364 -171.061292 
L 241.079008 -171.061292 
L 240.761653 -171.061292 
L 240.444298 -171.061292 
L 240.126942 -171.061292 
L 239.809587 -171.061292 
L 239.492231 -171.061292 
L 239.174876 -171.061292 
L 238.857521 -171.061292 
L 238.540165 -171.061292 
L 238.22281 -171.061292 
L 237.905455 -171.061292 
L 237.588099 -171.061292 
L 237.270744 -171.061292 
L 236.953388 -171.061292 
L 236.636033 -171.061292 
L 236.318678 -171.061292 
L 236.001322 -171.061292 
L 235.683967 -171.061292 
L 235.366612 -171.061292 
L 235.049256 -171.061292 
L 234.731901 -171.061292 
L 234.414545 -171.061292 
L 234.09719 -171.061292 
L 233.779835 -171.061292 
L 233.462479 -171.061292 
L 233.145124 -171.061292 
L 232.827769 -171.061292 
L 232.510413 -171.061292 
L 232.193058 -171.061292 
L 231.875702 -171.061292 
L 231.558347 -171.061292 
L 231.240992 -171.061292 
L 230.923636 -171.061292 
L 230.606281 -171.061292 
L 230.288926 -171.061292 
L 229.97157 -171.061292 
L 229.654215 -171.061292 
L 229.33686 -171.061292 
L 229.019504 -171.061292 
L 228.702149 -171.061292 
L 228.384793 -171.061292 
L 228.067438 -171.061292 
L 227.750083 -171.061292 
L 227.432727 -171.061292 
L 227.115372 -171.061292 
L 226.798017 -171.061292 
L 226.480661 -171.061292 
L 226.163306 -171.061292 
L 225.84595 -171.061292 
L 225.528595 -171.061292 
L 225.21124 -171.061292 
L 224.893884 -171.061292 
L 224.576529 -171.061292 
L 224.259174 -171.061292 
L 223.941818 -171.061292 
L 223.624463 -171.061292 
L 223.307107 -171.061292 
L 222.989752 -171.061292 
L 222.672397 -171.061292 
L 222.355041 -171.061292 
L 222.037686 -171.061292 
L 221.720331 -171.061292 
L 221.402975 -171.061292 
L 221.08562 -171.061292 
L 220.768264 -171.061292 
L 220.450909 -171.061292 
L 220.133554 -171.061292 
L 219.816198 -171.061292 
L 219.498843 -171.061292 
L 219.181488 -171.061292 
L 218.864132 -171.061292 
L 218.546777 -171.061292 
L 218.229421 -171.061292 
L 217.912066 -171.061292 
L 217.594711 -171.061292 
L 217.277355 -171.061292 
L 216.96 -171.061292 
L 216.642645 -171.061292 
L 216.325289 -171.061292 
L 216.007934 -171.061292 
L 215.690579 -171.061292 
L 215.373223 -171.061292 
L 215.055868 -171.061292 
L 214.738512 -171.061292 
L 214.421157 -171.061292 
L 214.103802 -171.061292 
L 213.786446 -171.061292 
L 213.469091 -171.061292 
L 213.151736 -171.061292 
L 212.83438 -171.061292 
L 212.517025 -171.061292 
L 212.199669 -171.061292 
L 211.882314 -171.061292 
L 211.564959 -171.061292 
L 211.247603 -171.061292 
L 210.930248 -171.061292 
L 210.612893 -171.061292 
L 210.295537 -171.061292 
L 209.978182 -171.061292 
L 209.660826 -171.061292 
L 209.343471 -171.061292 
L 209.026116 -171.061292 
L 208.70876 -171.061292 
L 208.391405 -171.061292 
L 208.07405 -171.061292 
L 207.756694 -171.061292 
L 207.439339 -171.061292 
L 207.121983 -171.061292 
L 206.804628 -171.061292 
L 206.487273 -171.061292 
L 206.169917 -171.061292 
L 205.852562 -171.061292 
L 205.535207 -171.061292 
L 205.217851 -171.061292 
L 204.900496 -171.061292 
L 204.58314 -171.061292 
L 204.265785 -171.061292 
L 203.94843 -171.061292 
L 203.631074 -171.061292 
L 203.313719 -171.061292 
L 202.996364 -171.061292 
L 202.679008 -171.061292 
L 202.361653 -171.061292 
L 202.044298 -171.061292 
L 201.726942 -171.061292 
L 201.409587 -171.061292 
L 201.092231 -171.061292 
L 200.774876 -171.061292 
L 200.457521 -171.061292 
L 200.140165 -171.061292 
L 199.82281 -171.061292 
L 199.505455 -171.061292 
L 199.188099 -171.061292 
L 198.870744 -171.061292 
L 198.553388 -171.061292 
L 198.236033 -171.061292 
L 197.918678 -171.061292 
L 197.601322 -171.061292 
L 197.283967 -171.061292 
L 196.966612 -171.061292 
L 196.649256 -171.061292 
L 196.331901 -171.061292 
L 196.014545 -171.061292 
L 195.69719 -171.061292 
L 195.379835 -171.061292 
L 195.062479 -171.061292 
L 194.745124 -171.061292 
L 194.427769 -171.061292 
L 194.110413 -171.061292 
L 193.793058 -171.061292 
L 193.475702 -171.061292 
L 193.158347 -171.061292 
L 192.840992 -171.061292 
L 192.523636 -171.061292 
L 192.206281 -171.061292 
L 191.888926 -171.061292 
L 191.57157 -171.061292 
L 191.254215 -171.061292 
L 190.93686 -171.061292 
L 190.619504 -171.061292 
L 190.302149 -171.061292 
L 189.984793 -171.061292 
L 189.667438 -171.061292 
L 189.350083 -171.061292 
L 189.032727 -171.061292 
L 188.715372 -171.061292 
L 188.398017 -171.061292 
L 188.080661 -171.061292 
L 187.763306 -171.061292 
L 187.44595 -171.061292 
L 187.128595 -171.061292 
L 186.81124 -171.061292 
L 186.493884 -171.061292 
L 186.176529 -171.061292 
L 185.859174 -171.061292 
L 185.541818 -171.061292 
L 185.224463 -171.061292 
L 184.907107 -171.061292 
L 184.589752 -171.061292 
L 184.272397 -171.061292 
L 183.955041 -171.061292 
L 183.637686 -171.061292 
L 183.320331 -171.061292 
L 183.002975 -171.061292 
L 182.68562 -171.061292 
L 182.368264 -171.061292 
L 182.050909 -171.061292 
L 181.733554 -171.061292 
L 181.416198 -171.061292 
L 181.098843 -171.061292 
L 180.781488 -171.061292 
L 180.464132 -171.061292 
L 180.146777 -171.061292 
L 179.829421 -171.061292 
L 179.512066 -171.061292 
L 179.194711 -171.061292 
L 178.877355 -171.061292 
L 178.56 -171.061292 
L 178.242645 -171.061292 
L 177.925289 -171.061292 
L 177.607934 -171.061292 
L 177.290579 -171.061292 
L 176.973223 -171.061292 
L 176.655868 -171.061292 
L 176.338512 -171.061292 
L 176.021157 -171.061292 
L 175.703802 -171.061292 
L 175.386446 -171.061292 
L 175.069091 -171.061292 
L 174.751736 -171.061292 
L 174.43438 -171.061292 
L 174.117025 -171.061292 
L 173.799669 -171.061292 
L 173.482314 -171.061292 
L 173.164959 -171.061292 
L 172.847603 -171.061292 
L 172.530248 -171.061292 
L 172.212893 -171.061292 
L 171.895537 -171.061292 
L 171.578182 -171.061292 
L 171.260826 -171.061292 
L 170.943471 -171.061292 
L 170.626116 -171.061292 
L 170.30876 -171.061292 
L 169.991405 -171.061292 
L 169.67405 -171.061292 
L 169.356694 -171.061292 
L 169.039339 -171.061292 
L 168.721983 -171.061292 
L 168.404628 -171.061292 
L 168.087273 -171.061292 
L 167.769917 -171.061292 
L 167.452562 -171.061292 
L 167.135207 -171.061292 
L 166.817851 -171.061292 
L 166.500496 -171.061292 
L 166.18314 -171.061292 
L 165.865785 -171.061292 
L 165.54843 -171.061292 
L 165.231074 -171.061292 
L 164.913719 -171.061292 
L 164.596364 -171.061292 
L 164.279008 -171.061292 
L 163.961653 -171.061292 
L 163.644298 -171.061292 
L 163.326942 -171.061292 
L 163.009587 -171.061292 
L 162.692231 -171.061292 
L 162.374876 -171.061292 
L 162.057521 -171.061292 
L 161.740165 -171.061292 
L 161.42281 -171.061292 
L 161.105455 -171.061292 
L 160.788099 -171.061292 
L 160.470744 -171.061292 
L 160.153388 -171.061292 
L 159.836033 -171.061292 
L 159.518678 -171.061292 
L 159.201322 -171.061292 
L 158.883967 -171.061292 
L 158.566612 -171.061292 
L 158.249256 -171.061292 
L 157.931901 -171.061292 
L 157.614545 -171.061292 
L 157.29719 -171.061292 
L 156.979835 -171.061292 
L 156.662479 -171.061292 
L 156.345124 -171.061292 
L 156.027769 -171.061292 
L 155.710413 -171.061292 
L 155.393058 -171.061292 
L 155.075702 -171.061292 
L 154.758347 -171.061292 
L 154.440992 -171.061292 
L 154.123636 -171.061292 
L 153.806281 -171.061292 
L 153.488926 -171.061292 
L 153.17157 -171.061292 
L 152.854215 -171.061292 
L 152.53686 -171.061292 
L 152.219504 -171.061292 
L 151.902149 -171.061292 
L 151.584793 -171.061292 
L 151.267438 -171.061292 
L 150.950083 -171.061292 
L 150.632727 -171.061292 
L 150.315372 -171.061292 
L 149.998017 -171.061292 
L 149.680661 -171.061292 
L 149.363306 -171.061292 
L 149.04595 -171.061292 
L 148.728595 -171.061292 
L 148.41124 -171.061292 
L 148.093884 -171.061292 
L 147.776529 -171.061292 
L 147.459174 -171.061292 
L 147.141818 -171.061292 
L 146.824463 -171.061292 
L 146.507107 -171.061292 
L 146.189752 -171.061292 
L 145.872397 -171.061292 
L 145.555041 -171.061292 
L 145.237686 -171.061292 
L 144.920331 -171.061292 
L 144.602975 -171.061292 
L 144.28562 -171.061292 
L 143.968264 -171.061292 
L 143.650909 -171.061292 
L 143.333554 -171.061292 
L 143.016198 -171.061292 
L 142.698843 -171.061292 
L 142.381488 -171.061292 
L 142.064132 -171.061292 
L 141.746777 -171.061292 
L 141.429421 -171.061292 
L 141.112066 -171.061292 
L 140.794711 -171.061292 
L 140.477355 -171.061292 
L 140.16 -171.061292 
L 139.842645 -171.061292 
L 139.525289 -171.061292 
L 139.207934 -171.061292 
L 138.890579 -171.061292 
L 138.573223 -171.061292 
L 138.255868 -171.061292 
L 137.938512 -171.061292 
L 137.621157 -171.061292 
L 137.303802 -171.061292 
L 136.986446 -171.061292 
L 136.669091 -171.061292 
L 136.351736 -171.061292 
L 136.03438 -171.061292 
L 135.717025 -171.061292 
L 135.399669 -171.061292 
L 135.082314 -171.061292 
L 134.764959 -171.061292 
L 134.447603 -171.061292 
L 134.130248 -171.061292 
L 133.812893 -171.061292 
L 133.495537 -171.061292 
L 133.178182 -171.061292 
L 132.860826 -171.061292 
L 132.543471 -171.061292 
L 132.226116 -171.061292 
L 131.90876 -171.061292 
L 131.591405 -171.061292 
L 131.27405 -171.061292 
L 130.956694 -171.061292 
L 130.639339 -171.061292 
L 130.321983 -171.061292 
L 130.004628 -171.061292 
L 129.687273 -171.061292 
L 129.369917 -171.061292 
L 129.052562 -171.061292 
L 128.735207 -171.061292 
L 128.417851 -171.061292 
L 128.100496 -171.061292 
L 127.78314 -171.061292 
L 127.465785 -171.061292 
L 127.14843 -171.061292 
L 126.831074 -171.061292 
L 126.513719 -171.061292 
L 126.196364 -171.061292 
L 125.879008 -171.061292 
L 125.561653 -171.061292 
L 125.244298 -171.061292 
L 124.926942 -171.061292 
L 124.609587 -171.061292 
L 124.292231 -171.061292 
L 123.974876 -171.061292 
L 123.657521 -171.061292 
L 123.340165 -171.061292 
L 123.02281 -171.061292 
L 122.705455 -171.061292 
L 122.388099 -171.061292 
L 122.070744 -171.061292 
L 121.753388 -171.061292 
L 121.436033 -171.061292 
L 121.118678 -171.061292 
L 120.801322 -171.061292 
L 120.483967 -171.061292 
L 120.166612 -171.061292 
L 119.849256 -171.061292 
L 119.531901 -171.061292 
L 119.214545 -171.061292 
L 118.89719 -171.061292 
L 118.579835 -171.061292 
L 118.262479 -171.061292 
L 117.945124 -171.061292 
L 117.627769 -171.061292 
L 117.310413 -171.061292 
L 116.993058 -171.061292 
L 116.675702 -171.061292 
L 116.358347 -171.061292 
L 116.040992 -171.061292 
L 115.723636 -171.061292 
L 115.406281 -171.061292 
L 115.088926 -171.061292 
L 114.77157 -171.061292 
L 114.454215 -171.061292 
L 114.13686 -171.061292 
L 113.819504 -171.061292 
L 113.502149 -171.061292 
L 113.184793 -171.061292 
L 112.867438 -171.061292 
L 112.550083 -171.061292 
L 112.232727 -171.061292 
L 111.915372 -171.061292 
L 111.598017 -171.061292 
L 111.280661 -171.061292 
L 110.963306 -171.061292 
L 110.64595 -171.061292 
L 110.328595 -171.061292 
L 110.01124 -171.061292 
L 109.693884 -171.061292 
L 109.376529 -171.061292 
L 109.059174 -171.061292 
L 108.741818 -171.061292 
L 108.424463 -171.061292 
L 108.107107 -171.061292 
L 107.789752 -171.061292 
L 107.472397 -171.061292 
L 107.155041 -171.061292 
L 106.837686 -171.061292 
L 106.520331 -171.061292 
L 106.202975 -171.061292 
L 105.88562 -171.061292 
L 105.568264 -171.061292 
L 105.250909 -171.061292 
L 104.933554 -171.061292 
L 104.616198 -171.061292 
L 104.298843 -171.061292 
L 103.981488 -171.061292 
L 103.664132 -171.061292 
L 103.346777 -171.061292 
L 103.029421 -171.061292 
L 102.712066 -171.061292 
L 102.394711 -171.061292 
L 102.077355 -171.061292 
L 101.76 -171.061292 
L 101.442645 -171.061292 
L 101.125289 -171.061292 
L 100.807934 -171.061292 
L 100.490579 -171.061292 
L 100.173223 -171.061292 
L 99.855868 -171.061292 
L 99.538512 -171.061292 
L 99.221157 -171.061292 
L 98.903802 -171.061292 
L 98.586446 -171.061292 
L 98.269091 -171.061292 
L 97.951736 -171.061292 
L 97.63438 -171.061292 
L 97.317025 -171.061292 
L 96.999669 -171.061292 
L 96.682314 -171.061292 
L 96.364959 -171.061292 
L 96.047603 -171.061292 
L 95.730248 -171.061292 
L 95.412893 -171.061292 
L 95.095537 -171.061292 
L 94.778182 -171.061292 
L 94.460826 -171.061292 
L 94.143471 -171.061292 
L 93.826116 -171.061292 
L 93.50876 -171.061292 
L 93.191405 -171.061292 
L 92.87405 -171.061292 
L 92.556694 -171.061292 
L 92.239339 -171.061292 
L 91.921983 -171.061292 
L 91.604628 -171.061292 
L 91.287273 -171.061292 
L 90.969917 -171.061292 
L 90.652562 -171.061292 
L 90.335207 -171.061292 
L 90.017851 -171.061292 
L 89.700496 -171.061292 
L 89.38314 -171.061292 
L 89.065785 -171.061292 
L 88.74843 -171.061292 
L 88.431074 -171.061292 
L 88.113719 -171.061292 
L 87.796364 -171.061292 
L 87.479008 -171.061292 
L 87.161653 -171.061292 
L 86.844298 -171.061292 
L 86.526942 -171.061292 
L 86.209587 -171.061292 
L 85.892231 -171.061292 
L 85.574876 -171.061292 
L 85.257521 -171.061292 
L 84.940165 -171.061292 
L 84.62281 -171.061292 
L 84.305455 -171.061292 
L 83.988099 -171.061292 
L 83.670744 -171.061292 
L 83.353388 -171.061292 
L 83.036033 -171.061292 
L 82.718678 -171.061292 
L 82.401322 -171.061292 
L 82.083967 -171.061292 
L 81.766612 -171.061292 
L 81.449256 -171.061292 
L 81.131901 -171.061292 
L 80.814545 -171.061292 
L 80.49719 -171.061292 
L 80.179835 -171.061292 
L 79.862479 -171.061292 
L 79.545124 -171.061292 
L 79.227769 -171.061292 
L 78.910413 -171.061292 
L 78.593058 -171.061292 
L 78.275702 -171.061292 
L 77.958347 -171.061292 
L 77.640992 -171.061292 
L 77.323636 -171.061292 
L 77.006281 -171.061292 
L 76.688926 -171.061292 
L 76.37157 -171.061292 
L 76.054215 -171.061292 
L 75.73686 -171.061292 
L 75.419504 -171.061292 
L 75.102149 -171.061292 
L 74.784793 -171.061292 
L 74.467438 -171.061292 
L 74.150083 -171.061292 
L 73.832727 -171.061292 
z
" style="stroke: #87ceeb; stroke-opacity: 0.75"/>
    </defs>
    <g clip-path="url(#p956660d41a)">
     <use xlink:href="#mf4c9224282" x="0" y="345.6" style="fill: #87ceeb; fill-opacity: 0.75; stroke: #87ceeb; stroke-opacity: 0.75"/>
    </g>
   </g>
   <g id="matplotlib.axis_1">
    <g id="xtick_1">
     <g id="line2d_1">
      <defs>
       <path id="maefd1895b1" d="M 0 0 
L 0 3.5 
" style="stroke: #000000; stroke-width: 0.8"/>
      </defs>
      <g>
       <use xlink:href="#maefd1895b1" x="73.832727" y="307.584" style="stroke: #000000; stroke-width: 0.8"/>
      </g>
     </g>
     <g id="text_1">
      <!-- 0 -->
      <g transform="translate(70.531868 322.161969) scale(0.11 -0.11)">
       <defs>
        <path id="AndaleMono-30" d="M 1913 4494 
Q 2613 4494 2989 3892 
Q 3366 3291 3366 2203 
Q 3366 1150 3000 533 
Q 2634 -84 1913 -84 
Q 1216 -84 837 516 
Q 459 1116 459 2203 
Q 459 3259 826 3876 
Q 1194 4494 1913 4494 
z
M 1913 366 
Q 2375 366 2598 805 
Q 2822 1244 2822 2203 
Q 2822 3166 2598 3602 
Q 2375 4038 1913 4038 
Q 1456 4038 1231 3591 
Q 1006 3144 1006 2203 
Q 1006 1250 1229 808 
Q 1453 366 1913 366 
z
M 1900 2672 
Q 2097 2672 2233 2536 
Q 2369 2400 2369 2203 
Q 2369 2000 2231 1854 
Q 2094 1709 1900 1709 
Q 1709 1709 1573 1854 
Q 1438 2000 1438 2203 
Q 1438 2403 1570 2537 
Q 1703 2672 1900 2672 
z
" transform="scale(0.015625)"/>
       </defs>
       <use xlink:href="#AndaleMono-30"/>
      </g>
     </g>
    </g>
    <g id="xtick_2">
     <g id="line2d_2">
      <g>
       <use xlink:href="#maefd1895b1" x="137.303802" y="307.584" style="stroke: #000000; stroke-width: 0.8"/>
      </g>
     </g>
     <g id="text_2">
      <!-- 200 -->
      <g transform="translate(127.401224 322.161969) scale(0.11 -0.11)">
       <defs>
        <path id="AndaleMono-32" d="M 3066 0 
L 641 0 
L 641 372 
Q 1563 1400 1838 1750 
Q 2113 2100 2284 2484 
Q 2456 2869 2456 3250 
Q 2456 3619 2232 3831 
Q 2009 4044 1606 4044 
Q 1297 4044 775 3853 
L 703 4294 
Q 1175 4494 1691 4494 
Q 2281 4494 2642 4161 
Q 3003 3828 3003 3272 
Q 3003 2875 2817 2484 
Q 2631 2094 2340 1734 
Q 2050 1375 1209 447 
L 3066 447 
L 3066 0 
z
" transform="scale(0.015625)"/>
       </defs>
       <use xlink:href="#AndaleMono-32"/>
       <use xlink:href="#AndaleMono-30" x="60.009766"/>
       <use xlink:href="#AndaleMono-30" x="120.019531"/>
      </g>
     </g>
    </g>
    <g id="xtick_3">
     <g id="line2d_3">
      <g>
       <use xlink:href="#maefd1895b1" x="200.774876" y="307.584" style="stroke: #000000; stroke-width: 0.8"/>
      </g>
     </g>
     <g id="text_3">
      <!-- 400 -->
      <g transform="translate(190.872298 322.161969) scale(0.11 -0.11)">
       <defs>
        <path id="AndaleMono-34" d="M 3353 1019 
L 2809 1019 
L 2809 0 
L 2297 0 
L 2297 1019 
L 378 1019 
L 378 1409 
L 2119 4409 
L 2809 4409 
L 2809 1466 
L 3353 1466 
L 3353 1019 
z
M 2297 1466 
L 2297 3903 
L 897 1466 
L 2297 1466 
z
" transform="scale(0.015625)"/>
       </defs>
       <use xlink:href="#AndaleMono-34"/>
       <use xlink:href="#AndaleMono-30" x="60.009766"/>
       <use xlink:href="#AndaleMono-30" x="120.019531"/>
      </g>
     </g>
    </g>
    <g id="xtick_4">
     <g id="line2d_4">
      <g>
       <use xlink:href="#maefd1895b1" x="264.24595" y="307.584" style="stroke: #000000; stroke-width: 0.8"/>
      </g>
     </g>
     <g id="text_4">
      <!-- 600 -->
      <g transform="translate(254.343372 322.161969) scale(0.11 -0.11)">
       <defs>
        <path id="AndaleMono-36" d="M 1131 2297 
Q 1544 2631 2028 2631 
Q 2588 2631 2961 2273 
Q 3334 1916 3334 1350 
Q 3334 728 3003 322 
Q 2672 -84 2119 -84 
Q 1413 -84 1000 564 
Q 588 1213 588 2150 
Q 588 3150 1017 3822 
Q 1447 4494 2194 4494 
Q 2709 4494 3084 4341 
L 3003 3884 
Q 2569 4044 2209 4044 
Q 1700 4044 1415 3556 
Q 1131 3069 1131 2297 
z
M 1147 1856 
Q 1147 1291 1412 828 
Q 1678 366 2081 366 
Q 2422 366 2606 616 
Q 2791 866 2791 1306 
Q 2791 1713 2587 1947 
Q 2384 2181 2016 2181 
Q 1538 2181 1147 1856 
z
" transform="scale(0.015625)"/>
       </defs>
       <use xlink:href="#AndaleMono-36"/>
       <use xlink:href="#AndaleMono-30" x="60.009766"/>
       <use xlink:href="#AndaleMono-30" x="120.019531"/>
      </g>
     </g>
    </g>
    <g id="xtick_5">
     <g id="line2d_5">
      <g>
       <use xlink:href="#maefd1895b1" x="327.717025" y="307.584" style="stroke: #000000; stroke-width: 0.8"/>
      </g>
     </g>
     <g id="text_5">
      <!-- 800 -->
      <g transform="translate(317.814447 322.161969) scale(0.11 -0.11)">
       <defs>
        <path id="AndaleMono-38" d="M 2363 2419 
Q 2813 2288 3061 1972 
Q 3309 1656 3309 1234 
Q 3309 628 2907 272 
Q 2506 -84 1919 -84 
Q 1303 -84 908 275 
Q 513 634 513 1228 
Q 513 1647 769 1965 
Q 1025 2284 1484 2419 
Q 1119 2513 898 2780 
Q 678 3047 678 3378 
Q 678 3803 1015 4148 
Q 1353 4494 1906 4494 
Q 2453 4494 2811 4150 
Q 3169 3806 3169 3378 
Q 3169 3056 2944 2786 
Q 2719 2516 2363 2419 
z
M 1906 2631 
Q 1922 2631 2056 2668 
Q 2191 2706 2286 2761 
Q 2381 2816 2462 2900 
Q 2544 2984 2594 3098 
Q 2644 3213 2644 3353 
Q 2644 3653 2428 3851 
Q 2213 4050 1906 4050 
Q 1609 4050 1396 3847 
Q 1184 3644 1184 3353 
Q 1184 3169 1261 3031 
Q 1338 2894 1452 2809 
Q 1566 2725 1714 2678 
Q 1863 2631 1906 2631 
z
M 1906 2194 
Q 1050 1944 1050 1253 
Q 1050 850 1309 608 
Q 1569 366 1919 366 
Q 2281 366 2529 605 
Q 2778 844 2778 1253 
Q 2778 1563 2606 1808 
Q 2434 2053 1906 2194 
z
" transform="scale(0.015625)"/>
       </defs>
       <use xlink:href="#AndaleMono-38"/>
       <use xlink:href="#AndaleMono-30" x="60.009766"/>
       <use xlink:href="#AndaleMono-30" x="120.019531"/>
      </g>
     </g>
    </g>
    <g id="xtick_6">
     <g id="line2d_6">
      <g>
       <use xlink:href="#maefd1895b1" x="391.188099" y="307.584" style="stroke: #000000; stroke-width: 0.8"/>
      </g>
     </g>
     <g id="text_6">
      <!-- 1000 -->
      <g transform="translate(377.984662 322.161969) scale(0.11 -0.11)">
       <defs>
        <path id="AndaleMono-31" d="M 3181 0 
L 863 0 
L 863 447 
L 1797 447 
L 1797 3872 
L 916 3431 
L 916 3944 
L 1869 4434 
L 2309 4434 
L 2309 447 
L 3181 447 
L 3181 0 
z
" transform="scale(0.015625)"/>
       </defs>
       <use xlink:href="#AndaleMono-31"/>
       <use xlink:href="#AndaleMono-30" x="60.009766"/>
       <use xlink:href="#AndaleMono-30" x="120.019531"/>
       <use xlink:href="#AndaleMono-30" x="180.029297"/>
      </g>
     </g>
    </g>
   </g>
   <g id="matplotlib.axis_2">
    <g id="ytick_1">
     <g id="line2d_7">
      <defs>
       <path id="mf10e313817" d="M 0 0 
L -3.5 0 
" style="stroke: #000000; stroke-width: 0.8"/>
      </defs>
      <g>
       <use xlink:href="#mf10e313817" x="57.6" y="295.509416" style="stroke: #000000; stroke-width: 0.8"/>
      </g>
     </g>
     <g id="text_7">
      <!-- 1.00 -->
      <g transform="translate(17.591406 299.2984) scale(0.11 -0.11)">
       <defs>
        <path id="AndaleMono-2212" d="M 3397 2047 
L 441 2047 
L 441 2456 
L 3397 2456 
L 3397 2047 
z
" transform="scale(0.015625)"/>
        <path id="AndaleMono-2e" d="M 1900 716 
Q 2066 716 2178 603 
Q 2291 491 2291 325 
Q 2291 156 2177 36 
Q 2063 -84 1900 -84 
Q 1741 -84 1628 36 
Q 1516 156 1516 325 
Q 1516 494 1627 605 
Q 1738 716 1900 716 
z
" transform="scale(0.015625)"/>
       </defs>
       <use xlink:href="#AndaleMono-2212"/>
       <use xlink:href="#AndaleMono-31" x="60.009766"/>
       <use xlink:href="#AndaleMono-2e" x="120.019531"/>
       <use xlink:href="#AndaleMono-30" x="180.029297"/>
       <use xlink:href="#AndaleMono-30" x="240.039062"/>
      </g>
     </g>
    </g>
    <g id="ytick_2">
     <g id="line2d_8">
      <g>
       <use xlink:href="#mf10e313817" x="57.6" y="265.266739" style="stroke: #000000; stroke-width: 0.8"/>
      </g>
     </g>
     <g id="text_8">
      <!-- 0.75 -->
      <g transform="translate(17.591406 269.055723) scale(0.11 -0.11)">
       <defs>
        <path id="AndaleMono-37" d="M 3238 4044 
L 1491 0 
L 966 0 
L 2688 3963 
L 622 3963 
L 622 4409 
L 3238 4409 
L 3238 4044 
z
" transform="scale(0.015625)"/>
        <path id="AndaleMono-35" d="M 1356 2631 
Q 1569 2688 1772 2688 
Q 2397 2688 2759 2305 
Q 3122 1922 3122 1350 
Q 3122 750 2700 333 
Q 2278 -84 1672 -84 
Q 1094 -84 703 109 
L 806 544 
Q 1231 366 1684 366 
Q 2088 366 2336 625 
Q 2584 884 2584 1350 
Q 2584 1791 2350 2028 
Q 2116 2266 1747 2266 
Q 1478 2266 1216 2163 
L 909 2303 
L 909 4409 
L 2925 4409 
L 2925 3963 
L 1356 3963 
L 1356 2631 
z
" transform="scale(0.015625)"/>
       </defs>
       <use xlink:href="#AndaleMono-2212"/>
       <use xlink:href="#AndaleMono-30" x="60.009766"/>
       <use xlink:href="#AndaleMono-2e" x="120.019531"/>
       <use xlink:href="#AndaleMono-37" x="180.029297"/>
       <use xlink:href="#AndaleMono-35" x="240.039062"/>
      </g>
     </g>
    </g>
    <g id="ytick_3">
     <g id="line2d_9">
      <g>
       <use xlink:href="#mf10e313817" x="57.6" y="235.024062" style="stroke: #000000; stroke-width: 0.8"/>
      </g>
     </g>
     <g id="text_9">
      <!-- 0.50 -->
      <g transform="translate(17.591406 238.813046) scale(0.11 -0.11)">
       <use xlink:href="#AndaleMono-2212"/>
       <use xlink:href="#AndaleMono-30" x="60.009766"/>
       <use xlink:href="#AndaleMono-2e" x="120.019531"/>
       <use xlink:href="#AndaleMono-35" x="180.029297"/>
       <use xlink:href="#AndaleMono-30" x="240.039062"/>
      </g>
     </g>
    </g>
    <g id="ytick_4">
     <g id="line2d_10">
      <g>
       <use xlink:href="#mf10e313817" x="57.6" y="204.781385" style="stroke: #000000; stroke-width: 0.8"/>
      </g>
     </g>
     <g id="text_10">
      <!-- 0.25 -->
      <g transform="translate(17.591406 208.570369) scale(0.11 -0.11)">
       <use xlink:href="#AndaleMono-2212"/>
       <use xlink:href="#AndaleMono-30" x="60.009766"/>
       <use xlink:href="#AndaleMono-2e" x="120.019531"/>
       <use xlink:href="#AndaleMono-32" x="180.029297"/>
       <use xlink:href="#AndaleMono-35" x="240.039062"/>
      </g>
     </g>
    </g>
    <g id="ytick_5">
     <g id="line2d_11">
      <g>
       <use xlink:href="#mf10e313817" x="57.6" y="174.538708" style="stroke: #000000; stroke-width: 0.8"/>
      </g>
     </g>
     <g id="text_11">
      <!-- 0.00 -->
      <g transform="translate(24.193125 178.327692) scale(0.11 -0.11)">
       <use xlink:href="#AndaleMono-30"/>
       <use xlink:href="#AndaleMono-2e" x="60.009766"/>
       <use xlink:href="#AndaleMono-30" x="120.019531"/>
       <use xlink:href="#AndaleMono-30" x="180.029297"/>
      </g>
     </g>
    </g>
    <g id="ytick_6">
     <g id="line2d_12">
      <g>
       <use xlink:href="#mf10e313817" x="57.6" y="144.296031" style="stroke: #000000; stroke-width: 0.8"/>
      </g>
     </g>
     <g id="text_12">
      <!-- 0.25 -->
      <g transform="translate(24.193125 148.085015) scale(0.11 -0.11)">
       <use xlink:href="#AndaleMono-30"/>
       <use xlink:href="#AndaleMono-2e" x="60.009766"/>
       <use xlink:href="#AndaleMono-32" x="120.019531"/>
       <use xlink:href="#AndaleMono-35" x="180.029297"/>
      </g>
     </g>
    </g>
    <g id="ytick_7">
     <g id="line2d_13">
      <g>
       <use xlink:href="#mf10e313817" x="57.6" y="114.053354" style="stroke: #000000; stroke-width: 0.8"/>
      </g>
     </g>
     <g id="text_13">
      <!-- 0.50 -->
      <g transform="translate(24.193125 117.842338) scale(0.11 -0.11)">
       <use xlink:href="#AndaleMono-30"/>
       <use xlink:href="#AndaleMono-2e" x="60.009766"/>
       <use xlink:href="#AndaleMono-35" x="120.019531"/>
       <use xlink:href="#AndaleMono-30" x="180.029297"/>
      </g>
     </g>
    </g>
    <g id="ytick_8">
     <g id="line2d_14">
      <g>
       <use xlink:href="#mf10e313817" x="57.6" y="83.810677" style="stroke: #000000; stroke-width: 0.8"/>
      </g>
     </g>
     <g id="text_14">
      <!-- 0.75 -->
      <g transform="translate(24.193125 87.599661) scale(0.11 -0.11)">
       <use xlink:href="#AndaleMono-30"/>
       <use xlink:href="#AndaleMono-2e" x="60.009766"/>
       <use xlink:href="#AndaleMono-37" x="120.019531"/>
       <use xlink:href="#AndaleMono-35" x="180.029297"/>
      </g>
     </g>
    </g>
    <g id="ytick_9">
     <g id="line2d_15">
      <g>
       <use xlink:href="#mf10e313817" x="57.6" y="53.568" style="stroke: #000000; stroke-width: 0.8"/>
      </g>
     </g>
     <g id="text_15">
      <!-- 1.00 -->
      <g transform="translate(24.193125 57.356984) scale(0.11 -0.11)">
       <use xlink:href="#AndaleMono-31"/>
       <use xlink:href="#AndaleMono-2e" x="60.009766"/>
       <use xlink:href="#AndaleMono-30" x="120.019531"/>
       <use xlink:href="#AndaleMono-30" x="180.029297"/>
      </g>
     </g>
    </g>
   </g>
   <g id="line2d_16">
    <path d="M 73.832727 174.538708 
L 74.150083 107.002857 
L 75.73686 98.149876 
L 77.958347 87.186899 
L 79.862479 78.126728 
L 81.449256 69.501433 
L 83.988099 54.701845 
L 84.62281 53.937773 
L 84.940165 53.718518 
L 86.209587 53.568 
L 86.844298 53.697892 
L 87.796364 54.256385 
L 88.74843 55.000002 
L 90.652562 56.795184 
L 91.287273 57.356238 
L 91.921983 57.644366 
L 93.50876 57.957175 
L 96.047603 59.090761 
L 98.269091 58.853057 
L 99.538512 58.152848 
L 100.490579 58.227816 
L 101.125289 58.448036 
L 101.76 59.151042 
L 102.394711 59.918946 
L 103.346777 60.910589 
L 106.837686 64.7294 
L 108.424463 67.823835 
L 109.693884 70.091283 
L 111.598017 73.013653 
L 112.867438 75.813248 
L 113.502149 77.064361 
L 114.13686 77.967987 
L 115.088926 78.631106 
L 115.723636 78.686657 
L 116.993058 78.682824 
L 119.849256 77.58254 
L 121.118678 76.227423 
L 122.070744 74.674051 
L 123.657521 71.65683 
L 124.609587 70.177077 
L 125.561653 69.189938 
L 127.465785 68.296492 
L 129.052562 66.640307 
L 129.687273 66.226474 
L 130.321983 66.080497 
L 131.27405 66.255608 
L 133.812893 66.904739 
L 134.130248 67.042431 
L 135.399669 68.30338 
L 136.03438 69.197174 
L 137.938512 72.483849 
L 140.477355 77.597969 
L 142.064132 81.920127 
L 143.016198 85.022025 
L 144.920331 91.615075 
L 146.189752 95.434947 
L 148.093884 100.793262 
L 149.04595 103.455585 
L 150.315372 106.322468 
L 150.950083 107.495441 
L 152.219504 109.226236 
L 153.806281 110.988739 
L 154.440992 111.284263 
L 156.345124 111.469181 
L 157.614545 111.271512 
L 158.883967 111.438299 
L 159.518678 111.688546 
L 163.009587 112.37339 
L 163.644298 112.156241 
L 164.913719 111.237292 
L 166.500496 109.724716 
L 167.135207 108.96517 
L 169.67405 105.354592 
L 170.626116 104.511197 
L 171.260826 104.199931 
L 172.212893 103.969052 
L 174.117025 103.792026 
L 174.751736 104.051497 
L 176.655868 105.451638 
L 177.925289 106.619312 
L 180.146777 108.070345 
L 181.098843 108.668914 
L 182.050909 109.227696 
L 183.637686 110.125913 
L 184.589752 111.108896 
L 187.128595 114.309221 
L 188.080661 115.947654 
L 190.93686 121.025304 
L 191.888926 122.327738 
L 193.475702 124.080659 
L 194.427769 124.870633 
L 196.014545 125.769434 
L 198.553388 127.265215 
L 199.82281 128.321709 
L 200.774876 129.547696 
L 202.044298 131.542028 
L 204.900496 136.294809 
L 206.487273 138.665487 
L 207.756694 140.529379 
L 209.026116 141.88746 
L 210.612893 143.366804 
L 212.83438 145.078323 
L 216.325289 147.972346 
L 217.594711 148.586321 
L 218.546777 148.824604 
L 219.498843 148.733783 
L 220.450909 148.472266 
L 221.402975 147.950608 
L 222.672397 147.148572 
L 223.624463 146.813604 
L 224.259174 146.793904 
L 224.893884 147.033786 
L 225.84595 147.829376 
L 226.798017 148.929435 
L 227.432727 149.853217 
L 228.384793 151.702717 
L 229.654215 154.834018 
L 231.240992 159.467431 
L 238.22281 180.899508 
L 241.713719 191.524764 
L 242.98314 195.071267 
L 244.252562 198.051132 
L 245.204628 199.716954 
L 246.156694 200.913135 
L 247.10876 201.818016 
L 247.743471 202.199869 
L 248.378182 202.30231 
L 249.012893 202.185446 
L 249.964959 201.761926 
L 252.186446 200.49518 
L 253.455868 200.256493 
L 254.090579 200.294135 
L 255.042645 200.630015 
L 256.312066 201.295276 
L 257.581488 202.242856 
L 261.072397 205.290371 
L 262.024463 205.967659 
L 263.61124 207.511329 
L 264.563306 208.548037 
L 265.515372 209.908043 
L 267.73686 213.236142 
L 269.006281 215.298463 
L 271.545124 219.52972 
L 272.49719 220.755707 
L 273.449256 221.572479 
L 275.036033 222.647259 
L 276.62281 223.485017 
L 277.892231 224.206783 
L 278.844298 224.996757 
L 280.431074 226.749678 
L 281.38314 228.052112 
L 285.826116 235.631473 
L 288.682314 238.951504 
L 289.951736 239.687524 
L 291.221157 240.408502 
L 292.173223 241.007071 
L 293.442645 241.695386 
L 295.981488 243.885131 
L 297.88562 245.194534 
L 298.520331 245.312288 
L 300.741818 244.978785 
L 301.693884 244.566219 
L 302.64595 243.722825 
L 303.915372 242.143877 
L 305.502149 239.705875 
L 306.77157 238.428492 
L 308.040992 237.314476 
L 308.993058 236.768572 
L 309.627769 236.723719 
L 311.849256 237.205099 
L 313.118678 237.494128 
L 313.753388 237.728806 
L 315.657521 237.677699 
L 316.292231 237.583096 
L 318.196364 237.903751 
L 318.831074 238.393012 
L 320.417851 240.209133 
L 321.687273 242.114891 
L 322.956694 244.856627 
L 323.90876 247.311901 
L 325.812893 252.796764 
L 327.082314 256.446951 
L 328.986446 262.902845 
L 330.255868 267.15729 
L 331.525289 270.671221 
L 332.794711 273.700281 
L 333.429421 274.926494 
L 335.016198 277.713574 
L 335.968264 279.359403 
L 336.920331 280.774036 
L 338.189752 282.034985 
L 339.141818 282.387138 
L 340.41124 282.603017 
L 341.04595 282.821808 
L 341.998017 282.996919 
L 342.632727 282.850942 
L 343.584793 282.191329 
L 345.17157 280.512041 
L 346.440992 280.022438 
L 347.075702 279.652381 
L 348.027769 278.444822 
L 349.29719 276.326976 
L 351.201322 272.849993 
L 352.788099 271.252428 
L 353.42281 270.987971 
L 354.374876 270.740797 
L 355.644298 270.290098 
L 356.596364 270.390759 
L 357.231074 270.44631 
L 358.18314 271.109429 
L 358.500496 271.472425 
L 359.452562 273.264168 
L 360.404628 275.425461 
L 361.039339 276.557969 
L 362.943471 279.460379 
L 366.117025 285.257848 
L 366.751736 285.875428 
L 367.069091 286.035988 
L 368.021157 287.050381 
L 368.973223 288.166827 
L 371.512066 290.781041 
L 372.464132 290.923662 
L 372.781488 290.924568 
L 373.733554 290.43183 
L 374.368264 290.052691 
L 376.589752 289.999462 
L 377.224463 290.244813 
L 378.176529 290.779049 
L 378.81124 291.065042 
L 379.763306 291.227424 
L 380.398017 291.207962 
L 381.032727 291.440144 
L 381.984793 292.216788 
L 382.93686 293.100753 
L 384.206281 294.260344 
L 385.793058 295.264073 
L 386.427769 295.393776 
L 387.379835 295.488 
L 388.014545 295.147268 
L 388.649256 294.327348 
L 391.82281 276.11927 
L 393.726942 266.664054 
L 396.265785 254.451514 
L 397.852562 245.827073 
L 398.169917 243.956231 
L 398.487273 174.538708 
L 398.487273 174.538708 
" clip-path="url(#p956660d41a)" style="fill: none; stroke: #87ceeb; stroke-opacity: 0.75; stroke-linecap: square"/>
   </g>
   <g id="patch_3">
    <path d="M 57.6 307.584 
L 57.6 41.472 
" style="fill: none; stroke: #000000; stroke-width: 0.8; stroke-linejoin: miter; stroke-linecap: square"/>
   </g>
   <g id="patch_4">
    <path d="M 414.72 307.584 
L 414.72 41.472 
" style="fill: none; stroke: #000000; stroke-width: 0.8; stroke-linejoin: miter; stroke-linecap: square"/>
   </g>
   <g id="patch_5">
    <path d="M 57.6 307.584 
L 414.72 307.584 
" style="fill: none; stroke: #000000; stroke-width: 0.8; stroke-linejoin: miter; stroke-linecap: square"/>
   </g>
   <g id="patch_6">
    <path d="M 57.6 41.472 
L 414.72 41.472 
" style="fill: none; stroke: #000000; stroke-width: 0.8; stroke-linejoin: miter; stroke-linecap: square"/>
   </g>
  </g>
 </g>
 <defs>
  <clipPath id="p956660d41a">
   <rect x="57.6" y="41.472" width="357.12" height="266.112"/>
  </clipPath>
 </defs>
</svg>
