<?xml version="1.0" encoding="utf-8" standalone="no"?>
<!DOCTYPE svg PUBLIC "-//W3C//DTD SVG 1.1//EN"
  "http://www.w3.org/Graphics/SVG/1.1/DTD/svg11.dtd">
<svg xmlns:xlink="http://www.w3.org/1999/xlink" width="460.8pt" height="345.6pt" viewBox="0 0 460.8 345.6" xmlns="http://www.w3.org/2000/svg" version="1.1">
 <metadata>
  <rdf:RDF xmlns:dc="http://purl.org/dc/elements/1.1/" xmlns:cc="http://creativecommons.org/ns#" xmlns:rdf="http://www.w3.org/1999/02/22-rdf-syntax-ns#">
   <cc:Work>
    <dc:type rdf:resource="http://purl.org/dc/dcmitype/StillImage"/>
    <dc:date>2024-04-23T11:13:06.665718</dc:date>
    <dc:format>image/svg+xml</dc:format>
    <dc:creator>
     <cc:Agent>
      <dc:title>Matplotlib v3.8.3, https://matplotlib.org/</dc:title>
     </cc:Agent>
    </dc:creator>
   </cc:Work>
  </rdf:RDF>
 </metadata>
 <defs>
  <style type="text/css">*{stroke-linejoin: round; stroke-linecap: butt}</style>
 </defs>
 <g id="figure_1">
  <g id="patch_1">
   <path d="M 0 345.6 
L 460.8 345.6 
L 460.8 0 
L 0 0 
z
" style="fill: #ffffff"/>
  </g>
  <g id="axes_1">
   <g id="patch_2">
    <path d="M 57.6 307.584 
L 414.72 307.584 
L 414.72 41.472 
L 57.6 41.472 
z
" style="fill: #ffffff"/>
   </g>
   <g id="PolyCollection_1">
    <defs>
     <path id="m013f8cd5ca" d="M 73.832727 -171.072 
L 73.832727 -171.072 
L 74.150083 -187.933532 
L 74.467438 -188.75346 
L 74.784793 -189.552474 
L 75.102149 -190.360616 
L 75.419504 -191.183152 
L 75.73686 -192.066607 
L 76.054215 -193.028508 
L 76.37157 -194.079252 
L 76.688926 -195.187958 
L 77.006281 -196.329224 
L 77.323636 -197.485066 
L 77.640992 -198.651331 
L 77.958347 -199.838438 
L 78.275702 -201.04633 
L 78.593058 -202.293348 
L 78.910413 -203.588534 
L 79.227769 -204.94389 
L 79.545124 -206.365132 
L 79.862479 -207.849787 
L 80.179835 -209.400608 
L 80.49719 -211.013195 
L 80.814545 -212.677737 
L 81.131901 -214.388717 
L 81.449256 -216.144082 
L 81.766612 -217.948822 
L 82.083967 -219.802643 
L 82.401322 -221.698075 
L 82.718678 -223.606681 
L 83.036033 -225.503295 
L 83.353388 -227.365247 
L 83.670744 -229.185721 
L 83.988099 -230.957241 
L 84.305455 -232.291255 
L 84.62281 -233.599946 
L 84.940165 -234.900105 
L 85.257521 -236.21405 
L 85.574876 -237.55721 
L 85.892231 -238.955517 
L 86.209587 -240.430528 
L 86.526942 -241.974294 
L 86.844298 -243.555674 
L 87.161653 -245.131038 
L 87.479008 -246.665238 
L 87.796364 -248.16256 
L 88.113719 -249.630765 
L 88.431074 -251.095202 
L 88.74843 -252.567349 
L 89.065785 -254.064926 
L 89.38314 -255.596965 
L 89.700496 -257.169757 
L 90.017851 -258.780394 
L 90.335207 -260.41622 
L 90.652562 -262.063117 
L 90.969917 -263.709855 
L 91.287273 -265.334058 
L 91.604628 -266.922279 
L 91.921983 -268.459093 
L 92.239339 -269.939866 
L 92.556694 -271.364376 
L 92.87405 -272.723685 
L 93.191405 -274.004612 
L 93.50876 -275.207293 
L 93.826116 -276.330914 
L 94.143471 -277.387104 
L 94.460826 -278.43321 
L 94.778182 -279.483683 
L 95.095537 -280.559742 
L 95.412893 -281.627201 
L 95.730248 -282.688938 
L 96.047603 -283.67331 
L 96.364959 -284.547314 
L 96.682314 -285.29452 
L 96.999669 -285.972885 
L 97.317025 -286.63827 
L 97.63438 -287.320495 
L 97.951736 -288.015658 
L 98.269091 -288.698214 
L 98.586446 -289.362224 
L 98.903802 -289.982001 
L 99.221157 -290.529704 
L 99.538512 -290.993193 
L 99.855868 -291.365245 
L 100.173223 -291.651618 
L 100.490579 -291.850526 
L 100.807934 -291.97306 
L 101.125289 -292.028865 
L 101.442645 -292.032 
L 101.76 -291.97273 
L 102.077355 -291.838595 
L 102.394711 -291.606807 
L 102.712066 -291.277595 
L 103.029421 -290.890552 
L 103.346777 -290.487449 
L 103.664132 -290.093884 
L 103.981488 -289.719242 
L 104.298843 -289.379003 
L 104.616198 -289.07523 
L 104.933554 -288.806953 
L 105.250909 -288.558653 
L 105.568264 -288.291119 
L 105.88562 -287.989807 
L 106.202975 -287.604227 
L 106.520331 -287.101401 
L 106.837686 -286.485458 
L 107.155041 -285.814726 
L 107.472397 -285.163406 
L 107.789752 -284.595499 
L 108.107107 -284.096951 
L 108.424463 -283.648251 
L 108.741818 -283.211809 
L 109.059174 -282.761837 
L 109.376529 -282.272934 
L 109.693884 -281.72442 
L 110.01124 -281.107686 
L 110.328595 -280.42339 
L 110.64595 -279.68511 
L 110.963306 -278.912905 
L 111.280661 -278.119901 
L 111.598017 -277.335634 
L 111.915372 -276.574314 
L 112.232727 -275.848194 
L 112.550083 -275.148596 
L 112.867438 -274.457207 
L 113.184793 -273.780839 
L 113.502149 -273.137779 
L 113.819504 -272.529424 
L 114.13686 -271.95803 
L 114.454215 -271.416922 
L 114.77157 -270.889426 
L 115.088926 -270.367629 
L 115.406281 -269.8371 
L 115.723636 -269.303114 
L 116.040992 -268.755565 
L 116.358347 -268.219594 
L 116.675702 -267.707501 
L 116.993058 -267.220672 
L 117.310413 -266.72579 
L 117.627769 -266.179256 
L 117.945124 -265.5752 
L 118.262479 -264.940373 
L 118.579835 -264.309014 
L 118.89719 -263.693471 
L 119.214545 -263.098588 
L 119.531901 -262.546162 
L 119.849256 -262.027835 
L 120.166612 -261.541596 
L 120.483967 -261.078825 
L 120.801322 -260.635666 
L 121.118678 -260.199712 
L 121.436033 -259.769081 
L 121.753388 -259.331959 
L 122.070744 -258.901473 
L 122.388099 -258.481644 
L 122.705455 -258.096819 
L 123.02281 -257.751929 
L 123.340165 -257.42986 
L 123.657521 -257.10611 
L 123.974876 -256.777383 
L 124.292231 -256.437622 
L 124.609587 -256.082421 
L 124.926942 -255.712181 
L 125.244298 -255.328471 
L 125.561653 -254.931177 
L 125.879008 -254.546274 
L 126.196364 -254.170732 
L 126.513719 -253.833403 
L 126.831074 -253.53952 
L 127.14843 -253.286665 
L 127.465785 -253.039398 
L 127.78314 -252.75213 
L 128.100496 -252.38086 
L 128.417851 -251.947892 
L 128.735207 -251.480446 
L 129.052562 -250.992931 
L 129.369917 -250.505129 
L 129.687273 -250.025583 
L 130.004628 -249.564983 
L 130.321983 -249.122437 
L 130.639339 -248.693643 
L 130.956694 -248.272754 
L 131.27405 -247.848752 
L 131.591405 -247.410893 
L 131.90876 -246.948932 
L 132.226116 -246.457125 
L 132.543471 -245.93546 
L 132.860826 -245.395903 
L 133.178182 -244.85343 
L 133.495537 -244.30524 
L 133.812893 -243.743009 
L 134.130248 -243.171843 
L 134.447603 -242.592445 
L 134.764959 -241.995964 
L 135.082314 -241.388954 
L 135.399669 -240.771841 
L 135.717025 -240.141266 
L 136.03438 -239.497234 
L 136.351736 -238.84787 
L 136.669091 -238.194636 
L 136.986446 -237.545563 
L 137.303802 -236.905819 
L 137.621157 -236.282158 
L 137.938512 -235.689936 
L 138.255868 -235.117786 
L 138.573223 -234.541207 
L 138.890579 -233.931874 
L 139.207934 -233.287419 
L 139.525289 -232.61577 
L 139.842645 -231.920445 
L 140.16 -231.215704 
L 140.477355 -230.506818 
L 140.794711 -229.802507 
L 141.112066 -229.107064 
L 141.429421 -228.425084 
L 141.746777 -227.758162 
L 142.064132 -227.107217 
L 142.381488 -226.468132 
L 142.698843 -225.84179 
L 143.016198 -225.222198 
L 143.333554 -224.607475 
L 143.650909 -223.999406 
L 143.968264 -223.400428 
L 144.28562 -222.812222 
L 144.602975 -222.242422 
L 144.920331 -221.691187 
L 145.237686 -221.15348 
L 145.555041 -220.626257 
L 145.872397 -220.106512 
L 146.189752 -219.583803 
L 146.507107 -219.059566 
L 146.824463 -218.527693 
L 147.141818 -217.992489 
L 147.459174 -217.457612 
L 147.776529 -216.927035 
L 148.093884 -216.410302 
L 148.41124 -215.915928 
L 148.728595 -215.423755 
L 149.04595 -214.90988 
L 149.363306 -214.372529 
L 149.680661 -213.808737 
L 149.998017 -213.219296 
L 150.315372 -212.605801 
L 150.632727 -211.972162 
L 150.950083 -211.325872 
L 151.267438 -210.671234 
L 151.584793 -210.013994 
L 151.902149 -209.362031 
L 152.219504 -208.718237 
L 152.53686 -208.086074 
L 152.854215 -207.466952 
L 153.17157 -206.859512 
L 153.488926 -206.265109 
L 153.806281 -205.685364 
L 154.123636 -205.120811 
L 154.440992 -204.560343 
L 154.758347 -204.00063 
L 155.075702 -203.447579 
L 155.393058 -202.899088 
L 155.710413 -202.356316 
L 156.027769 -201.821566 
L 156.345124 -201.297173 
L 156.662479 -200.779591 
L 156.979835 -200.268816 
L 157.29719 -199.761683 
L 157.614545 -199.258795 
L 157.931901 -198.759676 
L 158.249256 -198.261605 
L 158.566612 -197.768833 
L 158.883967 -197.285 
L 159.201322 -196.816854 
L 159.518678 -196.357401 
L 159.836033 -195.898241 
L 160.153388 -195.432582 
L 160.470744 -194.955823 
L 160.788099 -194.468057 
L 161.105455 -193.96736 
L 161.42281 -193.454006 
L 161.740165 -192.930788 
L 162.057521 -192.399634 
L 162.374876 -191.864179 
L 162.692231 -191.327858 
L 163.009587 -190.793737 
L 163.326942 -190.266646 
L 163.644298 -189.750364 
L 163.961653 -189.248241 
L 164.279008 -188.764531 
L 164.596364 -188.296421 
L 164.913719 -187.838073 
L 165.231074 -187.38447 
L 165.54843 -186.936716 
L 165.865785 -186.492434 
L 166.18314 -186.051265 
L 166.500496 -185.612773 
L 166.817851 -185.175931 
L 167.135207 -184.740715 
L 167.452562 -184.306872 
L 167.769917 -183.874791 
L 168.087273 -183.446696 
L 168.404628 -183.025758 
L 168.721983 -182.616377 
L 169.039339 -182.223901 
L 169.356694 -181.854121 
L 169.67405 -181.50396 
L 169.991405 -181.168065 
L 170.30876 -180.842408 
L 170.626116 -180.525094 
L 170.943471 -180.214557 
L 171.260826 -179.909068 
L 171.578182 -179.608735 
L 171.895537 -179.312277 
L 172.212893 -179.020309 
L 172.530248 -178.732615 
L 172.847603 -178.450193 
L 173.164959 -178.174157 
L 173.482314 -177.906586 
L 173.799669 -177.648947 
L 174.117025 -177.403699 
L 174.43438 -177.172444 
L 174.751736 -176.958762 
L 175.069091 -176.762874 
L 175.386446 -176.582387 
L 175.703802 -176.414684 
L 176.021157 -176.257991 
L 176.338512 -176.109891 
L 176.655868 -175.967247 
L 176.973223 -175.827823 
L 177.290579 -175.690405 
L 177.607934 -175.553628 
L 177.925289 -175.416349 
L 178.242645 -175.278625 
L 178.56 -175.140892 
L 178.877355 -175.0039 
L 179.194711 -174.869529 
L 179.512066 -174.74007 
L 179.829421 -174.618108 
L 180.146777 -174.506316 
L 180.464132 -174.404977 
L 180.781488 -174.312992 
L 181.098843 -174.228416 
L 181.416198 -174.149786 
L 181.733554 -174.075474 
L 182.050909 -174.003778 
L 182.368264 -173.933314 
L 182.68562 -173.863011 
L 183.002975 -173.792581 
L 183.320331 -173.7218 
L 183.637686 -173.650828 
L 183.955041 -173.580301 
L 184.272397 -173.511157 
L 184.589752 -173.44455 
L 184.907107 -173.381721 
L 185.224463 -173.323905 
L 185.541818 -173.271804 
L 185.859174 -173.224702 
L 186.176529 -173.181808 
L 186.493884 -173.142573 
L 186.81124 -173.106131 
L 187.128595 -173.071401 
L 187.44595 -173.037772 
L 187.763306 -173.005023 
L 188.080661 -172.973015 
L 188.398017 -172.94164 
L 188.715372 -172.910962 
L 189.032727 -172.881009 
L 189.350083 -172.851741 
L 189.667438 -172.823565 
L 189.984793 -172.796973 
L 190.302149 -172.772709 
L 190.619504 -172.751482 
L 190.93686 -172.733171 
L 191.254215 -172.717376 
L 191.57157 -172.703704 
L 191.888926 -172.691428 
L 192.206281 -172.679966 
L 192.523636 -172.668531 
L 192.840992 -172.656313 
L 193.158347 -172.642985 
L 193.475702 -172.628294 
L 193.793058 -172.612107 
L 194.110413 -172.594438 
L 194.427769 -172.575645 
L 194.745124 -172.556382 
L 195.062479 -172.537262 
L 195.379835 -172.519065 
L 195.69719 -172.502052 
L 196.014545 -172.486159 
L 196.331901 -172.470855 
L 196.649256 -172.45596 
L 196.966612 -172.441347 
L 197.283967 -172.426613 
L 197.601322 -172.411567 
L 197.918678 -172.395961 
L 198.236033 -172.379784 
L 198.553388 -172.362896 
L 198.870744 -172.345432 
L 199.188099 -172.327766 
L 199.505455 -172.310074 
L 199.82281 -172.292317 
L 200.140165 -172.274824 
L 200.457521 -172.257824 
L 200.774876 -172.241242 
L 201.092231 -172.225051 
L 201.409587 -172.209499 
L 201.726942 -172.19476 
L 202.044298 -172.180958 
L 202.361653 -172.168347 
L 202.679008 -172.156914 
L 202.996364 -172.146492 
L 203.313719 -172.1367 
L 203.631074 -172.12728 
L 203.94843 -172.117829 
L 204.265785 -172.108061 
L 204.58314 -172.097675 
L 204.900496 -172.086554 
L 205.217851 -172.074844 
L 205.535207 -172.063154 
L 205.852562 -172.052291 
L 206.169917 -172.04246 
L 206.487273 -172.033505 
L 206.804628 -172.02525 
L 207.121983 -172.017397 
L 207.439339 -172.010077 
L 207.756694 -172.002986 
L 208.07405 -171.995829 
L 208.391405 -171.988466 
L 208.70876 -171.980459 
L 209.026116 -171.971756 
L 209.343471 -171.962348 
L 209.660826 -171.952499 
L 209.978182 -171.942387 
L 210.295537 -171.932265 
L 210.612893 -171.922322 
L 210.930248 -171.912466 
L 211.247603 -171.902475 
L 211.564959 -171.892182 
L 211.882314 -171.881429 
L 212.199669 -171.87026 
L 212.517025 -171.858766 
L 212.83438 -171.84692 
L 213.151736 -171.834938 
L 213.469091 -171.822735 
L 213.786446 -171.810442 
L 214.103802 -171.797951 
L 214.421157 -171.785425 
L 214.738512 -171.772834 
L 215.055868 -171.760311 
L 215.373223 -171.748004 
L 215.690579 -171.736089 
L 216.007934 -171.724873 
L 216.325289 -171.714408 
L 216.642645 -171.705025 
L 216.96 -171.696911 
L 217.277355 -171.689833 
L 217.594711 -171.683852 
L 217.912066 -171.678834 
L 218.229421 -171.674601 
L 218.546777 -171.670916 
L 218.864132 -171.667666 
L 219.181488 -171.664473 
L 219.498843 -171.661149 
L 219.816198 -171.657708 
L 220.133554 -171.654387 
L 220.450909 -171.65139 
L 220.768264 -171.648743 
L 221.08562 -171.646516 
L 221.402975 -171.644532 
L 221.720331 -171.642596 
L 222.037686 -171.640434 
L 222.355041 -171.637745 
L 222.672397 -171.634269 
L 222.989752 -171.630135 
L 223.307107 -171.625427 
L 223.624463 -171.620238 
L 223.941818 -171.614521 
L 224.259174 -171.608472 
L 224.576529 -171.602002 
L 224.893884 -171.595256 
L 225.21124 -171.588364 
L 225.528595 -171.581361 
L 225.84595 -171.573968 
L 226.163306 -171.56569 
L 226.480661 -171.556321 
L 226.798017 -171.546146 
L 227.115372 -171.535205 
L 227.432727 -171.523608 
L 227.750083 -171.511274 
L 228.067438 -171.49827 
L 228.384793 -171.484792 
L 228.702149 -171.470741 
L 229.019504 -171.456346 
L 229.33686 -171.441504 
L 229.654215 -171.426098 
L 229.97157 -171.40987 
L 230.288926 -171.392907 
L 230.606281 -171.37538 
L 230.923636 -171.357511 
L 231.240992 -171.339404 
L 231.558347 -171.321209 
L 231.875702 -171.302872 
L 232.193058 -171.284387 
L 232.510413 -171.265557 
L 232.827769 -171.246282 
L 233.145124 -171.226741 
L 233.462479 -171.207167 
L 233.779835 -171.187936 
L 234.09719 -171.169216 
L 234.414545 -171.151462 
L 234.731901 -171.134769 
L 235.049256 -171.119244 
L 235.366612 -171.10478 
L 235.683967 -171.091264 
L 236.001322 -171.07837 
L 236.318678 -171.06563 
L 236.636033 -171.052736 
L 236.953388 -171.03922 
L 237.270744 -171.024756 
L 237.588099 -171.009231 
L 237.905455 -170.992538 
L 238.22281 -170.974784 
L 238.540165 -170.956064 
L 238.857521 -170.936833 
L 239.174876 -170.917259 
L 239.492231 -170.897718 
L 239.809587 -170.878443 
L 240.126942 -170.859613 
L 240.444298 -170.841128 
L 240.761653 -170.822791 
L 241.079008 -170.804596 
L 241.396364 -170.786489 
L 241.713719 -170.76862 
L 242.031074 -170.751093 
L 242.34843 -170.73413 
L 242.665785 -170.717902 
L 242.98314 -170.702496 
L 243.300496 -170.687654 
L 243.617851 -170.673259 
L 243.935207 -170.659208 
L 244.252562 -170.64573 
L 244.569917 -170.632726 
L 244.887273 -170.620392 
L 245.204628 -170.608795 
L 245.521983 -170.597854 
L 245.839339 -170.587679 
L 246.156694 -170.57831 
L 246.47405 -170.570032 
L 246.791405 -170.562639 
L 247.10876 -170.555636 
L 247.426116 -170.548744 
L 247.743471 -170.541998 
L 248.060826 -170.535528 
L 248.378182 -170.529479 
L 248.695537 -170.523762 
L 249.012893 -170.518573 
L 249.330248 -170.513865 
L 249.647603 -170.509731 
L 249.964959 -170.506255 
L 250.282314 -170.503566 
L 250.599669 -170.501404 
L 250.917025 -170.499468 
L 251.23438 -170.497484 
L 251.551736 -170.495257 
L 251.869091 -170.49261 
L 252.186446 -170.489613 
L 252.503802 -170.486292 
L 252.821157 -170.482851 
L 253.138512 -170.479527 
L 253.455868 -170.476334 
L 253.773223 -170.473084 
L 254.090579 -170.469399 
L 254.407934 -170.465166 
L 254.725289 -170.460148 
L 255.042645 -170.454167 
L 255.36 -170.447089 
L 255.677355 -170.438975 
L 255.994711 -170.429592 
L 256.312066 -170.419127 
L 256.629421 -170.407911 
L 256.946777 -170.395996 
L 257.264132 -170.383689 
L 257.581488 -170.371166 
L 257.898843 -170.358575 
L 258.216198 -170.346049 
L 258.533554 -170.333558 
L 258.850909 -170.321265 
L 259.168264 -170.309062 
L 259.48562 -170.29708 
L 259.802975 -170.285234 
L 260.120331 -170.27374 
L 260.437686 -170.262571 
L 260.755041 -170.251818 
L 261.072397 -170.241525 
L 261.389752 -170.231534 
L 261.707107 -170.221678 
L 262.024463 -170.211735 
L 262.341818 -170.201613 
L 262.659174 -170.191501 
L 262.976529 -170.181652 
L 263.293884 -170.172244 
L 263.61124 -170.163541 
L 263.928595 -170.155534 
L 264.24595 -170.148171 
L 264.563306 -170.141014 
L 264.880661 -170.133923 
L 265.198017 -170.126603 
L 265.515372 -170.11875 
L 265.832727 -170.110495 
L 266.150083 -170.10154 
L 266.467438 -170.091709 
L 266.784793 -170.080846 
L 267.102149 -170.069156 
L 267.419504 -170.057446 
L 267.73686 -170.046325 
L 268.054215 -170.035939 
L 268.37157 -170.026171 
L 268.688926 -170.01672 
L 269.006281 -170.0073 
L 269.323636 -169.997508 
L 269.640992 -169.987086 
L 269.958347 -169.975653 
L 270.275702 -169.963042 
L 270.593058 -169.94924 
L 270.910413 -169.934501 
L 271.227769 -169.918949 
L 271.545124 -169.902758 
L 271.862479 -169.886176 
L 272.179835 -169.869176 
L 272.49719 -169.851683 
L 272.814545 -169.833926 
L 273.131901 -169.816234 
L 273.449256 -169.798568 
L 273.766612 -169.781104 
L 274.083967 -169.764216 
L 274.401322 -169.748039 
L 274.718678 -169.732433 
L 275.036033 -169.717387 
L 275.353388 -169.702653 
L 275.670744 -169.68804 
L 275.988099 -169.673145 
L 276.305455 -169.657841 
L 276.62281 -169.641948 
L 276.940165 -169.624935 
L 277.257521 -169.606738 
L 277.574876 -169.587618 
L 277.892231 -169.568355 
L 278.209587 -169.549562 
L 278.526942 -169.531893 
L 278.844298 -169.515706 
L 279.161653 -169.501015 
L 279.479008 -169.487687 
L 279.796364 -169.475469 
L 280.113719 -169.464034 
L 280.431074 -169.452572 
L 280.74843 -169.440296 
L 281.065785 -169.426624 
L 281.38314 -169.410829 
L 281.700496 -169.392518 
L 282.017851 -169.371291 
L 282.335207 -169.347027 
L 282.652562 -169.320435 
L 282.969917 -169.292259 
L 283.287273 -169.262991 
L 283.604628 -169.233038 
L 283.921983 -169.20236 
L 284.239339 -169.170985 
L 284.556694 -169.138977 
L 284.87405 -169.106228 
L 285.191405 -169.072599 
L 285.50876 -169.037869 
L 285.826116 -169.001427 
L 286.143471 -168.962192 
L 286.460826 -168.919298 
L 286.778182 -168.872196 
L 287.095537 -168.820095 
L 287.412893 -168.762279 
L 287.730248 -168.69945 
L 288.047603 -168.632843 
L 288.364959 -168.563699 
L 288.682314 -168.493172 
L 288.999669 -168.4222 
L 289.317025 -168.351419 
L 289.63438 -168.280989 
L 289.951736 -168.210686 
L 290.269091 -168.140222 
L 290.586446 -168.068526 
L 290.903802 -167.994214 
L 291.221157 -167.915584 
L 291.538512 -167.831008 
L 291.855868 -167.739023 
L 292.173223 -167.637684 
L 292.490579 -167.525892 
L 292.807934 -167.40393 
L 293.125289 -167.274471 
L 293.442645 -167.1401 
L 293.76 -167.003108 
L 294.077355 -166.865375 
L 294.394711 -166.727651 
L 294.712066 -166.590372 
L 295.029421 -166.453595 
L 295.346777 -166.316177 
L 295.664132 -166.176753 
L 295.981488 -166.034109 
L 296.298843 -165.886009 
L 296.616198 -165.729316 
L 296.933554 -165.561613 
L 297.250909 -165.381126 
L 297.568264 -165.185238 
L 297.88562 -164.971556 
L 298.202975 -164.740301 
L 298.520331 -164.495053 
L 298.837686 -164.237414 
L 299.155041 -163.969843 
L 299.472397 -163.693807 
L 299.789752 -163.411385 
L 300.107107 -163.123691 
L 300.424463 -162.831723 
L 300.741818 -162.535265 
L 301.059174 -162.234932 
L 301.376529 -161.929443 
L 301.693884 -161.618906 
L 302.01124 -161.301592 
L 302.328595 -160.975935 
L 302.64595 -160.64004 
L 302.963306 -160.289879 
L 303.280661 -159.920099 
L 303.598017 -159.527623 
L 303.915372 -159.118242 
L 304.232727 -158.697304 
L 304.550083 -158.269209 
L 304.867438 -157.837128 
L 305.184793 -157.403285 
L 305.502149 -156.968069 
L 305.819504 -156.531227 
L 306.13686 -156.092735 
L 306.454215 -155.651566 
L 306.77157 -155.207284 
L 307.088926 -154.75953 
L 307.406281 -154.305927 
L 307.723636 -153.847579 
L 308.040992 -153.379469 
L 308.358347 -152.895759 
L 308.675702 -152.393636 
L 308.993058 -151.877354 
L 309.310413 -151.350263 
L 309.627769 -150.816142 
L 309.945124 -150.279821 
L 310.262479 -149.744366 
L 310.579835 -149.213212 
L 310.89719 -148.689994 
L 311.214545 -148.17664 
L 311.531901 -147.675943 
L 311.849256 -147.188177 
L 312.166612 -146.711418 
L 312.483967 -146.245759 
L 312.801322 -145.786599 
L 313.118678 -145.327146 
L 313.436033 -144.859 
L 313.753388 -144.375167 
L 314.070744 -143.882395 
L 314.388099 -143.384324 
L 314.705455 -142.885205 
L 315.02281 -142.382317 
L 315.340165 -141.875184 
L 315.657521 -141.364409 
L 315.974876 -140.846827 
L 316.292231 -140.322434 
L 316.609587 -139.787684 
L 316.926942 -139.244912 
L 317.244298 -138.696421 
L 317.561653 -138.14337 
L 317.879008 -137.583657 
L 318.196364 -137.023189 
L 318.513719 -136.458636 
L 318.831074 -135.878891 
L 319.14843 -135.284488 
L 319.465785 -134.677048 
L 319.78314 -134.057926 
L 320.100496 -133.425763 
L 320.417851 -132.781969 
L 320.735207 -132.130006 
L 321.052562 -131.472766 
L 321.369917 -130.818128 
L 321.687273 -130.171838 
L 322.004628 -129.538199 
L 322.321983 -128.924704 
L 322.639339 -128.335263 
L 322.956694 -127.771471 
L 323.27405 -127.23412 
L 323.591405 -126.720245 
L 323.90876 -126.228072 
L 324.226116 -125.733698 
L 324.543471 -125.216965 
L 324.860826 -124.686388 
L 325.178182 -124.151511 
L 325.495537 -123.616307 
L 325.812893 -123.084434 
L 326.130248 -122.560197 
L 326.447603 -122.037488 
L 326.764959 -121.517743 
L 327.082314 -120.99052 
L 327.399669 -120.452813 
L 327.717025 -119.901578 
L 328.03438 -119.331778 
L 328.351736 -118.743572 
L 328.669091 -118.144594 
L 328.986446 -117.536525 
L 329.303802 -116.921802 
L 329.621157 -116.30221 
L 329.938512 -115.675868 
L 330.255868 -115.036783 
L 330.573223 -114.385838 
L 330.890579 -113.718916 
L 331.207934 -113.036936 
L 331.525289 -112.341493 
L 331.842645 -111.637182 
L 332.16 -110.928296 
L 332.477355 -110.223555 
L 332.794711 -109.52823 
L 333.112066 -108.856581 
L 333.429421 -108.212126 
L 333.746777 -107.602793 
L 334.064132 -107.026214 
L 334.381488 -106.454064 
L 334.698843 -105.861842 
L 335.016198 -105.238181 
L 335.333554 -104.598437 
L 335.650909 -103.949364 
L 335.968264 -103.29613 
L 336.28562 -102.646766 
L 336.602975 -102.002734 
L 336.920331 -101.372159 
L 337.237686 -100.755046 
L 337.555041 -100.148036 
L 337.872397 -99.551555 
L 338.189752 -98.972157 
L 338.507107 -98.400991 
L 338.824463 -97.83876 
L 339.141818 -97.29057 
L 339.459174 -96.748097 
L 339.776529 -96.20854 
L 340.093884 -95.686875 
L 340.41124 -95.195068 
L 340.728595 -94.733107 
L 341.04595 -94.295248 
L 341.363306 -93.871246 
L 341.680661 -93.450357 
L 341.998017 -93.021563 
L 342.315372 -92.579017 
L 342.632727 -92.118417 
L 342.950083 -91.638871 
L 343.267438 -91.151069 
L 343.584793 -90.663554 
L 343.902149 -90.196108 
L 344.219504 -89.76314 
L 344.53686 -89.39187 
L 344.854215 -89.104602 
L 345.17157 -88.857335 
L 345.488926 -88.60448 
L 345.806281 -88.310597 
L 346.123636 -87.973268 
L 346.440992 -87.597726 
L 346.758347 -87.212823 
L 347.075702 -86.815529 
L 347.393058 -86.431819 
L 347.710413 -86.061579 
L 348.027769 -85.706378 
L 348.345124 -85.366617 
L 348.662479 -85.03789 
L 348.979835 -84.71414 
L 349.29719 -84.392071 
L 349.614545 -84.047181 
L 349.931901 -83.662356 
L 350.249256 -83.242527 
L 350.566612 -82.812041 
L 350.883967 -82.374919 
L 351.201322 -81.944288 
L 351.518678 -81.508334 
L 351.836033 -81.065175 
L 352.153388 -80.602404 
L 352.470744 -80.116165 
L 352.788099 -79.597838 
L 353.105455 -79.045412 
L 353.42281 -78.450529 
L 353.740165 -77.834986 
L 354.057521 -77.203627 
L 354.374876 -76.5688 
L 354.692231 -75.964744 
L 355.009587 -75.41821 
L 355.326942 -74.923328 
L 355.644298 -74.436499 
L 355.961653 -73.924406 
L 356.279008 -73.388435 
L 356.596364 -72.840886 
L 356.913719 -72.3069 
L 357.231074 -71.776371 
L 357.54843 -71.254574 
L 357.865785 -70.727078 
L 358.18314 -70.18597 
L 358.500496 -69.614576 
L 358.817851 -69.006221 
L 359.135207 -68.363161 
L 359.452562 -67.686793 
L 359.769917 -66.995404 
L 360.087273 -66.295806 
L 360.404628 -65.569686 
L 360.721983 -64.808366 
L 361.039339 -64.024099 
L 361.356694 -63.231095 
L 361.67405 -62.45889 
L 361.991405 -61.72061 
L 362.30876 -61.036314 
L 362.626116 -60.41958 
L 362.943471 -59.871066 
L 363.260826 -59.382163 
L 363.578182 -58.932191 
L 363.895537 -58.495749 
L 364.212893 -58.047049 
L 364.530248 -57.548501 
L 364.847603 -56.980594 
L 365.164959 -56.329274 
L 365.482314 -55.658542 
L 365.799669 -55.042599 
L 366.117025 -54.539773 
L 366.43438 -54.154193 
L 366.751736 -53.852881 
L 367.069091 -53.585347 
L 367.386446 -53.337047 
L 367.703802 -53.06877 
L 368.021157 -52.764997 
L 368.338512 -52.424758 
L 368.655868 -52.050116 
L 368.973223 -51.656551 
L 369.290579 -51.253448 
L 369.607934 -50.866405 
L 369.925289 -50.537193 
L 370.242645 -50.305405 
L 370.56 -50.17127 
L 370.877355 -50.112 
L 371.194711 -50.115135 
L 371.512066 -50.17094 
L 371.829421 -50.293474 
L 372.146777 -50.492382 
L 372.464132 -50.778755 
L 372.781488 -51.150807 
L 373.098843 -51.614296 
L 373.416198 -52.161999 
L 373.733554 -52.781776 
L 374.050909 -53.445786 
L 374.368264 -54.128342 
L 374.68562 -54.823505 
L 375.002975 -55.50573 
L 375.320331 -56.171115 
L 375.637686 -56.84948 
L 375.955041 -57.596686 
L 376.272397 -58.47069 
L 376.589752 -59.455062 
L 376.907107 -60.516799 
L 377.224463 -61.584258 
L 377.541818 -62.660317 
L 377.859174 -63.71079 
L 378.176529 -64.756896 
L 378.493884 -65.797845 
L 378.81124 -66.890964 
L 379.128595 -68.063203 
L 379.44595 -69.31385 
L 379.763306 -70.643141 
L 380.080661 -72.037999 
L 380.398017 -73.489589 
L 380.715372 -74.997788 
L 381.032727 -76.558068 
L 381.350083 -78.155104 
L 381.667438 -79.775551 
L 381.984793 -81.397135 
L 382.302149 -83.00873 
L 382.619504 -84.596319 
L 382.93686 -86.147347 
L 383.254215 -87.659011 
L 383.57157 -89.137701 
L 383.888926 -90.592553 
L 384.206281 -92.041389 
L 384.523636 -93.495789 
L 384.840992 -94.981204 
L 385.158347 -96.505498 
L 385.475702 -98.073057 
L 385.793058 -99.648837 
L 386.110413 -101.189311 
L 386.427769 -102.663438 
L 386.745124 -104.063372 
L 387.062479 -105.410772 
L 387.379835 -106.731673 
L 387.69719 -108.041606 
L 388.014545 -109.362989 
L 388.331901 -110.712718 
L 388.649256 -112.093501 
L 388.966612 -113.913975 
L 389.283967 -115.775927 
L 389.601322 -117.67254 
L 389.918678 -119.581147 
L 390.236033 -121.476579 
L 390.553388 -123.330399 
L 390.870744 -125.13514 
L 391.188099 -126.890505 
L 391.505455 -128.601485 
L 391.82281 -130.266027 
L 392.140165 -131.878614 
L 392.457521 -133.429434 
L 392.774876 -134.91409 
L 393.092231 -136.335331 
L 393.409587 -137.690688 
L 393.726942 -138.985873 
L 394.044298 -140.232892 
L 394.361653 -141.440784 
L 394.679008 -142.627891 
L 394.996364 -143.794156 
L 395.313719 -144.949998 
L 395.631074 -146.091263 
L 395.94843 -147.19997 
L 396.265785 -148.250714 
L 396.58314 -149.212615 
L 396.900496 -150.09607 
L 397.217851 -150.918606 
L 397.535207 -151.726748 
L 397.852562 -152.525762 
L 398.169917 -153.345689 
L 398.487273 -171.072 
L 398.487273 -171.072 
L 398.487273 -171.072 
L 398.169917 -171.072 
L 397.852562 -171.072 
L 397.535207 -171.072 
L 397.217851 -171.072 
L 396.900496 -171.072 
L 396.58314 -171.072 
L 396.265785 -171.072 
L 395.94843 -171.072 
L 395.631074 -171.072 
L 395.313719 -171.072 
L 394.996364 -171.072 
L 394.679008 -171.072 
L 394.361653 -171.072 
L 394.044298 -171.072 
L 393.726942 -171.072 
L 393.409587 -171.072 
L 393.092231 -171.072 
L 392.774876 -171.072 
L 392.457521 -171.072 
L 392.140165 -171.072 
L 391.82281 -171.072 
L 391.505455 -171.072 
L 391.188099 -171.072 
L 390.870744 -171.072 
L 390.553388 -171.072 
L 390.236033 -171.072 
L 389.918678 -171.072 
L 389.601322 -171.072 
L 389.283967 -171.072 
L 388.966612 -171.072 
L 388.649256 -171.072 
L 388.331901 -171.072 
L 388.014545 -171.072 
L 387.69719 -171.072 
L 387.379835 -171.072 
L 387.062479 -171.072 
L 386.745124 -171.072 
L 386.427769 -171.072 
L 386.110413 -171.072 
L 385.793058 -171.072 
L 385.475702 -171.072 
L 385.158347 -171.072 
L 384.840992 -171.072 
L 384.523636 -171.072 
L 384.206281 -171.072 
L 383.888926 -171.072 
L 383.57157 -171.072 
L 383.254215 -171.072 
L 382.93686 -171.072 
L 382.619504 -171.072 
L 382.302149 -171.072 
L 381.984793 -171.072 
L 381.667438 -171.072 
L 381.350083 -171.072 
L 381.032727 -171.072 
L 380.715372 -171.072 
L 380.398017 -171.072 
L 380.080661 -171.072 
L 379.763306 -171.072 
L 379.44595 -171.072 
L 379.128595 -171.072 
L 378.81124 -171.072 
L 378.493884 -171.072 
L 378.176529 -171.072 
L 377.859174 -171.072 
L 377.541818 -171.072 
L 377.224463 -171.072 
L 376.907107 -171.072 
L 376.589752 -171.072 
L 376.272397 -171.072 
L 375.955041 -171.072 
L 375.637686 -171.072 
L 375.320331 -171.072 
L 375.002975 -171.072 
L 374.68562 -171.072 
L 374.368264 -171.072 
L 374.050909 -171.072 
L 373.733554 -171.072 
L 373.416198 -171.072 
L 373.098843 -171.072 
L 372.781488 -171.072 
L 372.464132 -171.072 
L 372.146777 -171.072 
L 371.829421 -171.072 
L 371.512066 -171.072 
L 371.194711 -171.072 
L 370.877355 -171.072 
L 370.56 -171.072 
L 370.242645 -171.072 
L 369.925289 -171.072 
L 369.607934 -171.072 
L 369.290579 -171.072 
L 368.973223 -171.072 
L 368.655868 -171.072 
L 368.338512 -171.072 
L 368.021157 -171.072 
L 367.703802 -171.072 
L 367.386446 -171.072 
L 367.069091 -171.072 
L 366.751736 -171.072 
L 366.43438 -171.072 
L 366.117025 -171.072 
L 365.799669 -171.072 
L 365.482314 -171.072 
L 365.164959 -171.072 
L 364.847603 -171.072 
L 364.530248 -171.072 
L 364.212893 -171.072 
L 363.895537 -171.072 
L 363.578182 -171.072 
L 363.260826 -171.072 
L 362.943471 -171.072 
L 362.626116 -171.072 
L 362.30876 -171.072 
L 361.991405 -171.072 
L 361.67405 -171.072 
L 361.356694 -171.072 
L 361.039339 -171.072 
L 360.721983 -171.072 
L 360.404628 -171.072 
L 360.087273 -171.072 
L 359.769917 -171.072 
L 359.452562 -171.072 
L 359.135207 -171.072 
L 358.817851 -171.072 
L 358.500496 -171.072 
L 358.18314 -171.072 
L 357.865785 -171.072 
L 357.54843 -171.072 
L 357.231074 -171.072 
L 356.913719 -171.072 
L 356.596364 -171.072 
L 356.279008 -171.072 
L 355.961653 -171.072 
L 355.644298 -171.072 
L 355.326942 -171.072 
L 355.009587 -171.072 
L 354.692231 -171.072 
L 354.374876 -171.072 
L 354.057521 -171.072 
L 353.740165 -171.072 
L 353.42281 -171.072 
L 353.105455 -171.072 
L 352.788099 -171.072 
L 352.470744 -171.072 
L 352.153388 -171.072 
L 351.836033 -171.072 
L 351.518678 -171.072 
L 351.201322 -171.072 
L 350.883967 -171.072 
L 350.566612 -171.072 
L 350.249256 -171.072 
L 349.931901 -171.072 
L 349.614545 -171.072 
L 349.29719 -171.072 
L 348.979835 -171.072 
L 348.662479 -171.072 
L 348.345124 -171.072 
L 348.027769 -171.072 
L 347.710413 -171.072 
L 347.393058 -171.072 
L 347.075702 -171.072 
L 346.758347 -171.072 
L 346.440992 -171.072 
L 346.123636 -171.072 
L 345.806281 -171.072 
L 345.488926 -171.072 
L 345.17157 -171.072 
L 344.854215 -171.072 
L 344.53686 -171.072 
L 344.219504 -171.072 
L 343.902149 -171.072 
L 343.584793 -171.072 
L 343.267438 -171.072 
L 342.950083 -171.072 
L 342.632727 -171.072 
L 342.315372 -171.072 
L 341.998017 -171.072 
L 341.680661 -171.072 
L 341.363306 -171.072 
L 341.04595 -171.072 
L 340.728595 -171.072 
L 340.41124 -171.072 
L 340.093884 -171.072 
L 339.776529 -171.072 
L 339.459174 -171.072 
L 339.141818 -171.072 
L 338.824463 -171.072 
L 338.507107 -171.072 
L 338.189752 -171.072 
L 337.872397 -171.072 
L 337.555041 -171.072 
L 337.237686 -171.072 
L 336.920331 -171.072 
L 336.602975 -171.072 
L 336.28562 -171.072 
L 335.968264 -171.072 
L 335.650909 -171.072 
L 335.333554 -171.072 
L 335.016198 -171.072 
L 334.698843 -171.072 
L 334.381488 -171.072 
L 334.064132 -171.072 
L 333.746777 -171.072 
L 333.429421 -171.072 
L 333.112066 -171.072 
L 332.794711 -171.072 
L 332.477355 -171.072 
L 332.16 -171.072 
L 331.842645 -171.072 
L 331.525289 -171.072 
L 331.207934 -171.072 
L 330.890579 -171.072 
L 330.573223 -171.072 
L 330.255868 -171.072 
L 329.938512 -171.072 
L 329.621157 -171.072 
L 329.303802 -171.072 
L 328.986446 -171.072 
L 328.669091 -171.072 
L 328.351736 -171.072 
L 328.03438 -171.072 
L 327.717025 -171.072 
L 327.399669 -171.072 
L 327.082314 -171.072 
L 326.764959 -171.072 
L 326.447603 -171.072 
L 326.130248 -171.072 
L 325.812893 -171.072 
L 325.495537 -171.072 
L 325.178182 -171.072 
L 324.860826 -171.072 
L 324.543471 -171.072 
L 324.226116 -171.072 
L 323.90876 -171.072 
L 323.591405 -171.072 
L 323.27405 -171.072 
L 322.956694 -171.072 
L 322.639339 -171.072 
L 322.321983 -171.072 
L 322.004628 -171.072 
L 321.687273 -171.072 
L 321.369917 -171.072 
L 321.052562 -171.072 
L 320.735207 -171.072 
L 320.417851 -171.072 
L 320.100496 -171.072 
L 319.78314 -171.072 
L 319.465785 -171.072 
L 319.14843 -171.072 
L 318.831074 -171.072 
L 318.513719 -171.072 
L 318.196364 -171.072 
L 317.879008 -171.072 
L 317.561653 -171.072 
L 317.244298 -171.072 
L 316.926942 -171.072 
L 316.609587 -171.072 
L 316.292231 -171.072 
L 315.974876 -171.072 
L 315.657521 -171.072 
L 315.340165 -171.072 
L 315.02281 -171.072 
L 314.705455 -171.072 
L 314.388099 -171.072 
L 314.070744 -171.072 
L 313.753388 -171.072 
L 313.436033 -171.072 
L 313.118678 -171.072 
L 312.801322 -171.072 
L 312.483967 -171.072 
L 312.166612 -171.072 
L 311.849256 -171.072 
L 311.531901 -171.072 
L 311.214545 -171.072 
L 310.89719 -171.072 
L 310.579835 -171.072 
L 310.262479 -171.072 
L 309.945124 -171.072 
L 309.627769 -171.072 
L 309.310413 -171.072 
L 308.993058 -171.072 
L 308.675702 -171.072 
L 308.358347 -171.072 
L 308.040992 -171.072 
L 307.723636 -171.072 
L 307.406281 -171.072 
L 307.088926 -171.072 
L 306.77157 -171.072 
L 306.454215 -171.072 
L 306.13686 -171.072 
L 305.819504 -171.072 
L 305.502149 -171.072 
L 305.184793 -171.072 
L 304.867438 -171.072 
L 304.550083 -171.072 
L 304.232727 -171.072 
L 303.915372 -171.072 
L 303.598017 -171.072 
L 303.280661 -171.072 
L 302.963306 -171.072 
L 302.64595 -171.072 
L 302.328595 -171.072 
L 302.01124 -171.072 
L 301.693884 -171.072 
L 301.376529 -171.072 
L 301.059174 -171.072 
L 300.741818 -171.072 
L 300.424463 -171.072 
L 300.107107 -171.072 
L 299.789752 -171.072 
L 299.472397 -171.072 
L 299.155041 -171.072 
L 298.837686 -171.072 
L 298.520331 -171.072 
L 298.202975 -171.072 
L 297.88562 -171.072 
L 297.568264 -171.072 
L 297.250909 -171.072 
L 296.933554 -171.072 
L 296.616198 -171.072 
L 296.298843 -171.072 
L 295.981488 -171.072 
L 295.664132 -171.072 
L 295.346777 -171.072 
L 295.029421 -171.072 
L 294.712066 -171.072 
L 294.394711 -171.072 
L 294.077355 -171.072 
L 293.76 -171.072 
L 293.442645 -171.072 
L 293.125289 -171.072 
L 292.807934 -171.072 
L 292.490579 -171.072 
L 292.173223 -171.072 
L 291.855868 -171.072 
L 291.538512 -171.072 
L 291.221157 -171.072 
L 290.903802 -171.072 
L 290.586446 -171.072 
L 290.269091 -171.072 
L 289.951736 -171.072 
L 289.63438 -171.072 
L 289.317025 -171.072 
L 288.999669 -171.072 
L 288.682314 -171.072 
L 288.364959 -171.072 
L 288.047603 -171.072 
L 287.730248 -171.072 
L 287.412893 -171.072 
L 287.095537 -171.072 
L 286.778182 -171.072 
L 286.460826 -171.072 
L 286.143471 -171.072 
L 285.826116 -171.072 
L 285.50876 -171.072 
L 285.191405 -171.072 
L 284.87405 -171.072 
L 284.556694 -171.072 
L 284.239339 -171.072 
L 283.921983 -171.072 
L 283.604628 -171.072 
L 283.287273 -171.072 
L 282.969917 -171.072 
L 282.652562 -171.072 
L 282.335207 -171.072 
L 282.017851 -171.072 
L 281.700496 -171.072 
L 281.38314 -171.072 
L 281.065785 -171.072 
L 280.74843 -171.072 
L 280.431074 -171.072 
L 280.113719 -171.072 
L 279.796364 -171.072 
L 279.479008 -171.072 
L 279.161653 -171.072 
L 278.844298 -171.072 
L 278.526942 -171.072 
L 278.209587 -171.072 
L 277.892231 -171.072 
L 277.574876 -171.072 
L 277.257521 -171.072 
L 276.940165 -171.072 
L 276.62281 -171.072 
L 276.305455 -171.072 
L 275.988099 -171.072 
L 275.670744 -171.072 
L 275.353388 -171.072 
L 275.036033 -171.072 
L 274.718678 -171.072 
L 274.401322 -171.072 
L 274.083967 -171.072 
L 273.766612 -171.072 
L 273.449256 -171.072 
L 273.131901 -171.072 
L 272.814545 -171.072 
L 272.49719 -171.072 
L 272.179835 -171.072 
L 271.862479 -171.072 
L 271.545124 -171.072 
L 271.227769 -171.072 
L 270.910413 -171.072 
L 270.593058 -171.072 
L 270.275702 -171.072 
L 269.958347 -171.072 
L 269.640992 -171.072 
L 269.323636 -171.072 
L 269.006281 -171.072 
L 268.688926 -171.072 
L 268.37157 -171.072 
L 268.054215 -171.072 
L 267.73686 -171.072 
L 267.419504 -171.072 
L 267.102149 -171.072 
L 266.784793 -171.072 
L 266.467438 -171.072 
L 266.150083 -171.072 
L 265.832727 -171.072 
L 265.515372 -171.072 
L 265.198017 -171.072 
L 264.880661 -171.072 
L 264.563306 -171.072 
L 264.24595 -171.072 
L 263.928595 -171.072 
L 263.61124 -171.072 
L 263.293884 -171.072 
L 262.976529 -171.072 
L 262.659174 -171.072 
L 262.341818 -171.072 
L 262.024463 -171.072 
L 261.707107 -171.072 
L 261.389752 -171.072 
L 261.072397 -171.072 
L 260.755041 -171.072 
L 260.437686 -171.072 
L 260.120331 -171.072 
L 259.802975 -171.072 
L 259.48562 -171.072 
L 259.168264 -171.072 
L 258.850909 -171.072 
L 258.533554 -171.072 
L 258.216198 -171.072 
L 257.898843 -171.072 
L 257.581488 -171.072 
L 257.264132 -171.072 
L 256.946777 -171.072 
L 256.629421 -171.072 
L 256.312066 -171.072 
L 255.994711 -171.072 
L 255.677355 -171.072 
L 255.36 -171.072 
L 255.042645 -171.072 
L 254.725289 -171.072 
L 254.407934 -171.072 
L 254.090579 -171.072 
L 253.773223 -171.072 
L 253.455868 -171.072 
L 253.138512 -171.072 
L 252.821157 -171.072 
L 252.503802 -171.072 
L 252.186446 -171.072 
L 251.869091 -171.072 
L 251.551736 -171.072 
L 251.23438 -171.072 
L 250.917025 -171.072 
L 250.599669 -171.072 
L 250.282314 -171.072 
L 249.964959 -171.072 
L 249.647603 -171.072 
L 249.330248 -171.072 
L 249.012893 -171.072 
L 248.695537 -171.072 
L 248.378182 -171.072 
L 248.060826 -171.072 
L 247.743471 -171.072 
L 247.426116 -171.072 
L 247.10876 -171.072 
L 246.791405 -171.072 
L 246.47405 -171.072 
L 246.156694 -171.072 
L 245.839339 -171.072 
L 245.521983 -171.072 
L 245.204628 -171.072 
L 244.887273 -171.072 
L 244.569917 -171.072 
L 244.252562 -171.072 
L 243.935207 -171.072 
L 243.617851 -171.072 
L 243.300496 -171.072 
L 242.98314 -171.072 
L 242.665785 -171.072 
L 242.34843 -171.072 
L 242.031074 -171.072 
L 241.713719 -171.072 
L 241.396364 -171.072 
L 241.079008 -171.072 
L 240.761653 -171.072 
L 240.444298 -171.072 
L 240.126942 -171.072 
L 239.809587 -171.072 
L 239.492231 -171.072 
L 239.174876 -171.072 
L 238.857521 -171.072 
L 238.540165 -171.072 
L 238.22281 -171.072 
L 237.905455 -171.072 
L 237.588099 -171.072 
L 237.270744 -171.072 
L 236.953388 -171.072 
L 236.636033 -171.072 
L 236.318678 -171.072 
L 236.001322 -171.072 
L 235.683967 -171.072 
L 235.366612 -171.072 
L 235.049256 -171.072 
L 234.731901 -171.072 
L 234.414545 -171.072 
L 234.09719 -171.072 
L 233.779835 -171.072 
L 233.462479 -171.072 
L 233.145124 -171.072 
L 232.827769 -171.072 
L 232.510413 -171.072 
L 232.193058 -171.072 
L 231.875702 -171.072 
L 231.558347 -171.072 
L 231.240992 -171.072 
L 230.923636 -171.072 
L 230.606281 -171.072 
L 230.288926 -171.072 
L 229.97157 -171.072 
L 229.654215 -171.072 
L 229.33686 -171.072 
L 229.019504 -171.072 
L 228.702149 -171.072 
L 228.384793 -171.072 
L 228.067438 -171.072 
L 227.750083 -171.072 
L 227.432727 -171.072 
L 227.115372 -171.072 
L 226.798017 -171.072 
L 226.480661 -171.072 
L 226.163306 -171.072 
L 225.84595 -171.072 
L 225.528595 -171.072 
L 225.21124 -171.072 
L 224.893884 -171.072 
L 224.576529 -171.072 
L 224.259174 -171.072 
L 223.941818 -171.072 
L 223.624463 -171.072 
L 223.307107 -171.072 
L 222.989752 -171.072 
L 222.672397 -171.072 
L 222.355041 -171.072 
L 222.037686 -171.072 
L 221.720331 -171.072 
L 221.402975 -171.072 
L 221.08562 -171.072 
L 220.768264 -171.072 
L 220.450909 -171.072 
L 220.133554 -171.072 
L 219.816198 -171.072 
L 219.498843 -171.072 
L 219.181488 -171.072 
L 218.864132 -171.072 
L 218.546777 -171.072 
L 218.229421 -171.072 
L 217.912066 -171.072 
L 217.594711 -171.072 
L 217.277355 -171.072 
L 216.96 -171.072 
L 216.642645 -171.072 
L 216.325289 -171.072 
L 216.007934 -171.072 
L 215.690579 -171.072 
L 215.373223 -171.072 
L 215.055868 -171.072 
L 214.738512 -171.072 
L 214.421157 -171.072 
L 214.103802 -171.072 
L 213.786446 -171.072 
L 213.469091 -171.072 
L 213.151736 -171.072 
L 212.83438 -171.072 
L 212.517025 -171.072 
L 212.199669 -171.072 
L 211.882314 -171.072 
L 211.564959 -171.072 
L 211.247603 -171.072 
L 210.930248 -171.072 
L 210.612893 -171.072 
L 210.295537 -171.072 
L 209.978182 -171.072 
L 209.660826 -171.072 
L 209.343471 -171.072 
L 209.026116 -171.072 
L 208.70876 -171.072 
L 208.391405 -171.072 
L 208.07405 -171.072 
L 207.756694 -171.072 
L 207.439339 -171.072 
L 207.121983 -171.072 
L 206.804628 -171.072 
L 206.487273 -171.072 
L 206.169917 -171.072 
L 205.852562 -171.072 
L 205.535207 -171.072 
L 205.217851 -171.072 
L 204.900496 -171.072 
L 204.58314 -171.072 
L 204.265785 -171.072 
L 203.94843 -171.072 
L 203.631074 -171.072 
L 203.313719 -171.072 
L 202.996364 -171.072 
L 202.679008 -171.072 
L 202.361653 -171.072 
L 202.044298 -171.072 
L 201.726942 -171.072 
L 201.409587 -171.072 
L 201.092231 -171.072 
L 200.774876 -171.072 
L 200.457521 -171.072 
L 200.140165 -171.072 
L 199.82281 -171.072 
L 199.505455 -171.072 
L 199.188099 -171.072 
L 198.870744 -171.072 
L 198.553388 -171.072 
L 198.236033 -171.072 
L 197.918678 -171.072 
L 197.601322 -171.072 
L 197.283967 -171.072 
L 196.966612 -171.072 
L 196.649256 -171.072 
L 196.331901 -171.072 
L 196.014545 -171.072 
L 195.69719 -171.072 
L 195.379835 -171.072 
L 195.062479 -171.072 
L 194.745124 -171.072 
L 194.427769 -171.072 
L 194.110413 -171.072 
L 193.793058 -171.072 
L 193.475702 -171.072 
L 193.158347 -171.072 
L 192.840992 -171.072 
L 192.523636 -171.072 
L 192.206281 -171.072 
L 191.888926 -171.072 
L 191.57157 -171.072 
L 191.254215 -171.072 
L 190.93686 -171.072 
L 190.619504 -171.072 
L 190.302149 -171.072 
L 189.984793 -171.072 
L 189.667438 -171.072 
L 189.350083 -171.072 
L 189.032727 -171.072 
L 188.715372 -171.072 
L 188.398017 -171.072 
L 188.080661 -171.072 
L 187.763306 -171.072 
L 187.44595 -171.072 
L 187.128595 -171.072 
L 186.81124 -171.072 
L 186.493884 -171.072 
L 186.176529 -171.072 
L 185.859174 -171.072 
L 185.541818 -171.072 
L 185.224463 -171.072 
L 184.907107 -171.072 
L 184.589752 -171.072 
L 184.272397 -171.072 
L 183.955041 -171.072 
L 183.637686 -171.072 
L 183.320331 -171.072 
L 183.002975 -171.072 
L 182.68562 -171.072 
L 182.368264 -171.072 
L 182.050909 -171.072 
L 181.733554 -171.072 
L 181.416198 -171.072 
L 181.098843 -171.072 
L 180.781488 -171.072 
L 180.464132 -171.072 
L 180.146777 -171.072 
L 179.829421 -171.072 
L 179.512066 -171.072 
L 179.194711 -171.072 
L 178.877355 -171.072 
L 178.56 -171.072 
L 178.242645 -171.072 
L 177.925289 -171.072 
L 177.607934 -171.072 
L 177.290579 -171.072 
L 176.973223 -171.072 
L 176.655868 -171.072 
L 176.338512 -171.072 
L 176.021157 -171.072 
L 175.703802 -171.072 
L 175.386446 -171.072 
L 175.069091 -171.072 
L 174.751736 -171.072 
L 174.43438 -171.072 
L 174.117025 -171.072 
L 173.799669 -171.072 
L 173.482314 -171.072 
L 173.164959 -171.072 
L 172.847603 -171.072 
L 172.530248 -171.072 
L 172.212893 -171.072 
L 171.895537 -171.072 
L 171.578182 -171.072 
L 171.260826 -171.072 
L 170.943471 -171.072 
L 170.626116 -171.072 
L 170.30876 -171.072 
L 169.991405 -171.072 
L 169.67405 -171.072 
L 169.356694 -171.072 
L 169.039339 -171.072 
L 168.721983 -171.072 
L 168.404628 -171.072 
L 168.087273 -171.072 
L 167.769917 -171.072 
L 167.452562 -171.072 
L 167.135207 -171.072 
L 166.817851 -171.072 
L 166.500496 -171.072 
L 166.18314 -171.072 
L 165.865785 -171.072 
L 165.54843 -171.072 
L 165.231074 -171.072 
L 164.913719 -171.072 
L 164.596364 -171.072 
L 164.279008 -171.072 
L 163.961653 -171.072 
L 163.644298 -171.072 
L 163.326942 -171.072 
L 163.009587 -171.072 
L 162.692231 -171.072 
L 162.374876 -171.072 
L 162.057521 -171.072 
L 161.740165 -171.072 
L 161.42281 -171.072 
L 161.105455 -171.072 
L 160.788099 -171.072 
L 160.470744 -171.072 
L 160.153388 -171.072 
L 159.836033 -171.072 
L 159.518678 -171.072 
L 159.201322 -171.072 
L 158.883967 -171.072 
L 158.566612 -171.072 
L 158.249256 -171.072 
L 157.931901 -171.072 
L 157.614545 -171.072 
L 157.29719 -171.072 
L 156.979835 -171.072 
L 156.662479 -171.072 
L 156.345124 -171.072 
L 156.027769 -171.072 
L 155.710413 -171.072 
L 155.393058 -171.072 
L 155.075702 -171.072 
L 154.758347 -171.072 
L 154.440992 -171.072 
L 154.123636 -171.072 
L 153.806281 -171.072 
L 153.488926 -171.072 
L 153.17157 -171.072 
L 152.854215 -171.072 
L 152.53686 -171.072 
L 152.219504 -171.072 
L 151.902149 -171.072 
L 151.584793 -171.072 
L 151.267438 -171.072 
L 150.950083 -171.072 
L 150.632727 -171.072 
L 150.315372 -171.072 
L 149.998017 -171.072 
L 149.680661 -171.072 
L 149.363306 -171.072 
L 149.04595 -171.072 
L 148.728595 -171.072 
L 148.41124 -171.072 
L 148.093884 -171.072 
L 147.776529 -171.072 
L 147.459174 -171.072 
L 147.141818 -171.072 
L 146.824463 -171.072 
L 146.507107 -171.072 
L 146.189752 -171.072 
L 145.872397 -171.072 
L 145.555041 -171.072 
L 145.237686 -171.072 
L 144.920331 -171.072 
L 144.602975 -171.072 
L 144.28562 -171.072 
L 143.968264 -171.072 
L 143.650909 -171.072 
L 143.333554 -171.072 
L 143.016198 -171.072 
L 142.698843 -171.072 
L 142.381488 -171.072 
L 142.064132 -171.072 
L 141.746777 -171.072 
L 141.429421 -171.072 
L 141.112066 -171.072 
L 140.794711 -171.072 
L 140.477355 -171.072 
L 140.16 -171.072 
L 139.842645 -171.072 
L 139.525289 -171.072 
L 139.207934 -171.072 
L 138.890579 -171.072 
L 138.573223 -171.072 
L 138.255868 -171.072 
L 137.938512 -171.072 
L 137.621157 -171.072 
L 137.303802 -171.072 
L 136.986446 -171.072 
L 136.669091 -171.072 
L 136.351736 -171.072 
L 136.03438 -171.072 
L 135.717025 -171.072 
L 135.399669 -171.072 
L 135.082314 -171.072 
L 134.764959 -171.072 
L 134.447603 -171.072 
L 134.130248 -171.072 
L 133.812893 -171.072 
L 133.495537 -171.072 
L 133.178182 -171.072 
L 132.860826 -171.072 
L 132.543471 -171.072 
L 132.226116 -171.072 
L 131.90876 -171.072 
L 131.591405 -171.072 
L 131.27405 -171.072 
L 130.956694 -171.072 
L 130.639339 -171.072 
L 130.321983 -171.072 
L 130.004628 -171.072 
L 129.687273 -171.072 
L 129.369917 -171.072 
L 129.052562 -171.072 
L 128.735207 -171.072 
L 128.417851 -171.072 
L 128.100496 -171.072 
L 127.78314 -171.072 
L 127.465785 -171.072 
L 127.14843 -171.072 
L 126.831074 -171.072 
L 126.513719 -171.072 
L 126.196364 -171.072 
L 125.879008 -171.072 
L 125.561653 -171.072 
L 125.244298 -171.072 
L 124.926942 -171.072 
L 124.609587 -171.072 
L 124.292231 -171.072 
L 123.974876 -171.072 
L 123.657521 -171.072 
L 123.340165 -171.072 
L 123.02281 -171.072 
L 122.705455 -171.072 
L 122.388099 -171.072 
L 122.070744 -171.072 
L 121.753388 -171.072 
L 121.436033 -171.072 
L 121.118678 -171.072 
L 120.801322 -171.072 
L 120.483967 -171.072 
L 120.166612 -171.072 
L 119.849256 -171.072 
L 119.531901 -171.072 
L 119.214545 -171.072 
L 118.89719 -171.072 
L 118.579835 -171.072 
L 118.262479 -171.072 
L 117.945124 -171.072 
L 117.627769 -171.072 
L 117.310413 -171.072 
L 116.993058 -171.072 
L 116.675702 -171.072 
L 116.358347 -171.072 
L 116.040992 -171.072 
L 115.723636 -171.072 
L 115.406281 -171.072 
L 115.088926 -171.072 
L 114.77157 -171.072 
L 114.454215 -171.072 
L 114.13686 -171.072 
L 113.819504 -171.072 
L 113.502149 -171.072 
L 113.184793 -171.072 
L 112.867438 -171.072 
L 112.550083 -171.072 
L 112.232727 -171.072 
L 111.915372 -171.072 
L 111.598017 -171.072 
L 111.280661 -171.072 
L 110.963306 -171.072 
L 110.64595 -171.072 
L 110.328595 -171.072 
L 110.01124 -171.072 
L 109.693884 -171.072 
L 109.376529 -171.072 
L 109.059174 -171.072 
L 108.741818 -171.072 
L 108.424463 -171.072 
L 108.107107 -171.072 
L 107.789752 -171.072 
L 107.472397 -171.072 
L 107.155041 -171.072 
L 106.837686 -171.072 
L 106.520331 -171.072 
L 106.202975 -171.072 
L 105.88562 -171.072 
L 105.568264 -171.072 
L 105.250909 -171.072 
L 104.933554 -171.072 
L 104.616198 -171.072 
L 104.298843 -171.072 
L 103.981488 -171.072 
L 103.664132 -171.072 
L 103.346777 -171.072 
L 103.029421 -171.072 
L 102.712066 -171.072 
L 102.394711 -171.072 
L 102.077355 -171.072 
L 101.76 -171.072 
L 101.442645 -171.072 
L 101.125289 -171.072 
L 100.807934 -171.072 
L 100.490579 -171.072 
L 100.173223 -171.072 
L 99.855868 -171.072 
L 99.538512 -171.072 
L 99.221157 -171.072 
L 98.903802 -171.072 
L 98.586446 -171.072 
L 98.269091 -171.072 
L 97.951736 -171.072 
L 97.63438 -171.072 
L 97.317025 -171.072 
L 96.999669 -171.072 
L 96.682314 -171.072 
L 96.364959 -171.072 
L 96.047603 -171.072 
L 95.730248 -171.072 
L 95.412893 -171.072 
L 95.095537 -171.072 
L 94.778182 -171.072 
L 94.460826 -171.072 
L 94.143471 -171.072 
L 93.826116 -171.072 
L 93.50876 -171.072 
L 93.191405 -171.072 
L 92.87405 -171.072 
L 92.556694 -171.072 
L 92.239339 -171.072 
L 91.921983 -171.072 
L 91.604628 -171.072 
L 91.287273 -171.072 
L 90.969917 -171.072 
L 90.652562 -171.072 
L 90.335207 -171.072 
L 90.017851 -171.072 
L 89.700496 -171.072 
L 89.38314 -171.072 
L 89.065785 -171.072 
L 88.74843 -171.072 
L 88.431074 -171.072 
L 88.113719 -171.072 
L 87.796364 -171.072 
L 87.479008 -171.072 
L 87.161653 -171.072 
L 86.844298 -171.072 
L 86.526942 -171.072 
L 86.209587 -171.072 
L 85.892231 -171.072 
L 85.574876 -171.072 
L 85.257521 -171.072 
L 84.940165 -171.072 
L 84.62281 -171.072 
L 84.305455 -171.072 
L 83.988099 -171.072 
L 83.670744 -171.072 
L 83.353388 -171.072 
L 83.036033 -171.072 
L 82.718678 -171.072 
L 82.401322 -171.072 
L 82.083967 -171.072 
L 81.766612 -171.072 
L 81.449256 -171.072 
L 81.131901 -171.072 
L 80.814545 -171.072 
L 80.49719 -171.072 
L 80.179835 -171.072 
L 79.862479 -171.072 
L 79.545124 -171.072 
L 79.227769 -171.072 
L 78.910413 -171.072 
L 78.593058 -171.072 
L 78.275702 -171.072 
L 77.958347 -171.072 
L 77.640992 -171.072 
L 77.323636 -171.072 
L 77.006281 -171.072 
L 76.688926 -171.072 
L 76.37157 -171.072 
L 76.054215 -171.072 
L 75.73686 -171.072 
L 75.419504 -171.072 
L 75.102149 -171.072 
L 74.784793 -171.072 
L 74.467438 -171.072 
L 74.150083 -171.072 
L 73.832727 -171.072 
z
" style="stroke: #87ceeb; stroke-opacity: 0.75"/>
    </defs>
    <g clip-path="url(#p6804613dcb)">
     <use xlink:href="#m013f8cd5ca" x="0" y="345.6" style="fill: #87ceeb; fill-opacity: 0.75; stroke: #87ceeb; stroke-opacity: 0.75"/>
    </g>
   </g>
   <g id="matplotlib.axis_1">
    <g id="xtick_1">
     <g id="line2d_1">
      <defs>
       <path id="m60c16941ad" d="M 0 0 
L 0 3.5 
" style="stroke: #000000; stroke-width: 0.8"/>
      </defs>
      <g>
       <use xlink:href="#m60c16941ad" x="73.832727" y="307.584" style="stroke: #000000; stroke-width: 0.8"/>
      </g>
     </g>
     <g id="text_1">
      <!-- 0 -->
      <g transform="translate(70.531868 322.161969) scale(0.11 -0.11)">
       <defs>
        <path id="AndaleMono-30" d="M 1913 4494 
Q 2613 4494 2989 3892 
Q 3366 3291 3366 2203 
Q 3366 1150 3000 533 
Q 2634 -84 1913 -84 
Q 1216 -84 837 516 
Q 459 1116 459 2203 
Q 459 3259 826 3876 
Q 1194 4494 1913 4494 
z
M 1913 366 
Q 2375 366 2598 805 
Q 2822 1244 2822 2203 
Q 2822 3166 2598 3602 
Q 2375 4038 1913 4038 
Q 1456 4038 1231 3591 
Q 1006 3144 1006 2203 
Q 1006 1250 1229 808 
Q 1453 366 1913 366 
z
M 1900 2672 
Q 2097 2672 2233 2536 
Q 2369 2400 2369 2203 
Q 2369 2000 2231 1854 
Q 2094 1709 1900 1709 
Q 1709 1709 1573 1854 
Q 1438 2000 1438 2203 
Q 1438 2403 1570 2537 
Q 1703 2672 1900 2672 
z
" transform="scale(0.015625)"/>
       </defs>
       <use xlink:href="#AndaleMono-30"/>
      </g>
     </g>
    </g>
    <g id="xtick_2">
     <g id="line2d_2">
      <g>
       <use xlink:href="#m60c16941ad" x="137.303802" y="307.584" style="stroke: #000000; stroke-width: 0.8"/>
      </g>
     </g>
     <g id="text_2">
      <!-- 200 -->
      <g transform="translate(127.401224 322.161969) scale(0.11 -0.11)">
       <defs>
        <path id="AndaleMono-32" d="M 3066 0 
L 641 0 
L 641 372 
Q 1563 1400 1838 1750 
Q 2113 2100 2284 2484 
Q 2456 2869 2456 3250 
Q 2456 3619 2232 3831 
Q 2009 4044 1606 4044 
Q 1297 4044 775 3853 
L 703 4294 
Q 1175 4494 1691 4494 
Q 2281 4494 2642 4161 
Q 3003 3828 3003 3272 
Q 3003 2875 2817 2484 
Q 2631 2094 2340 1734 
Q 2050 1375 1209 447 
L 3066 447 
L 3066 0 
z
" transform="scale(0.015625)"/>
       </defs>
       <use xlink:href="#AndaleMono-32"/>
       <use xlink:href="#AndaleMono-30" x="60.009766"/>
       <use xlink:href="#AndaleMono-30" x="120.019531"/>
      </g>
     </g>
    </g>
    <g id="xtick_3">
     <g id="line2d_3">
      <g>
       <use xlink:href="#m60c16941ad" x="200.774876" y="307.584" style="stroke: #000000; stroke-width: 0.8"/>
      </g>
     </g>
     <g id="text_3">
      <!-- 400 -->
      <g transform="translate(190.872298 322.161969) scale(0.11 -0.11)">
       <defs>
        <path id="AndaleMono-34" d="M 3353 1019 
L 2809 1019 
L 2809 0 
L 2297 0 
L 2297 1019 
L 378 1019 
L 378 1409 
L 2119 4409 
L 2809 4409 
L 2809 1466 
L 3353 1466 
L 3353 1019 
z
M 2297 1466 
L 2297 3903 
L 897 1466 
L 2297 1466 
z
" transform="scale(0.015625)"/>
       </defs>
       <use xlink:href="#AndaleMono-34"/>
       <use xlink:href="#AndaleMono-30" x="60.009766"/>
       <use xlink:href="#AndaleMono-30" x="120.019531"/>
      </g>
     </g>
    </g>
    <g id="xtick_4">
     <g id="line2d_4">
      <g>
       <use xlink:href="#m60c16941ad" x="264.24595" y="307.584" style="stroke: #000000; stroke-width: 0.8"/>
      </g>
     </g>
     <g id="text_4">
      <!-- 600 -->
      <g transform="translate(254.343372 322.161969) scale(0.11 -0.11)">
       <defs>
        <path id="AndaleMono-36" d="M 1131 2297 
Q 1544 2631 2028 2631 
Q 2588 2631 2961 2273 
Q 3334 1916 3334 1350 
Q 3334 728 3003 322 
Q 2672 -84 2119 -84 
Q 1413 -84 1000 564 
Q 588 1213 588 2150 
Q 588 3150 1017 3822 
Q 1447 4494 2194 4494 
Q 2709 4494 3084 4341 
L 3003 3884 
Q 2569 4044 2209 4044 
Q 1700 4044 1415 3556 
Q 1131 3069 1131 2297 
z
M 1147 1856 
Q 1147 1291 1412 828 
Q 1678 366 2081 366 
Q 2422 366 2606 616 
Q 2791 866 2791 1306 
Q 2791 1713 2587 1947 
Q 2384 2181 2016 2181 
Q 1538 2181 1147 1856 
z
" transform="scale(0.015625)"/>
       </defs>
       <use xlink:href="#AndaleMono-36"/>
       <use xlink:href="#AndaleMono-30" x="60.009766"/>
       <use xlink:href="#AndaleMono-30" x="120.019531"/>
      </g>
     </g>
    </g>
    <g id="xtick_5">
     <g id="line2d_5">
      <g>
       <use xlink:href="#m60c16941ad" x="327.717025" y="307.584" style="stroke: #000000; stroke-width: 0.8"/>
      </g>
     </g>
     <g id="text_5">
      <!-- 800 -->
      <g transform="translate(317.814447 322.161969) scale(0.11 -0.11)">
       <defs>
        <path id="AndaleMono-38" d="M 2363 2419 
Q 2813 2288 3061 1972 
Q 3309 1656 3309 1234 
Q 3309 628 2907 272 
Q 2506 -84 1919 -84 
Q 1303 -84 908 275 
Q 513 634 513 1228 
Q 513 1647 769 1965 
Q 1025 2284 1484 2419 
Q 1119 2513 898 2780 
Q 678 3047 678 3378 
Q 678 3803 1015 4148 
Q 1353 4494 1906 4494 
Q 2453 4494 2811 4150 
Q 3169 3806 3169 3378 
Q 3169 3056 2944 2786 
Q 2719 2516 2363 2419 
z
M 1906 2631 
Q 1922 2631 2056 2668 
Q 2191 2706 2286 2761 
Q 2381 2816 2462 2900 
Q 2544 2984 2594 3098 
Q 2644 3213 2644 3353 
Q 2644 3653 2428 3851 
Q 2213 4050 1906 4050 
Q 1609 4050 1396 3847 
Q 1184 3644 1184 3353 
Q 1184 3169 1261 3031 
Q 1338 2894 1452 2809 
Q 1566 2725 1714 2678 
Q 1863 2631 1906 2631 
z
M 1906 2194 
Q 1050 1944 1050 1253 
Q 1050 850 1309 608 
Q 1569 366 1919 366 
Q 2281 366 2529 605 
Q 2778 844 2778 1253 
Q 2778 1563 2606 1808 
Q 2434 2053 1906 2194 
z
" transform="scale(0.015625)"/>
       </defs>
       <use xlink:href="#AndaleMono-38"/>
       <use xlink:href="#AndaleMono-30" x="60.009766"/>
       <use xlink:href="#AndaleMono-30" x="120.019531"/>
      </g>
     </g>
    </g>
    <g id="xtick_6">
     <g id="line2d_6">
      <g>
       <use xlink:href="#m60c16941ad" x="391.188099" y="307.584" style="stroke: #000000; stroke-width: 0.8"/>
      </g>
     </g>
     <g id="text_6">
      <!-- 1000 -->
      <g transform="translate(377.984662 322.161969) scale(0.11 -0.11)">
       <defs>
        <path id="AndaleMono-31" d="M 3181 0 
L 863 0 
L 863 447 
L 1797 447 
L 1797 3872 
L 916 3431 
L 916 3944 
L 1869 4434 
L 2309 4434 
L 2309 447 
L 3181 447 
L 3181 0 
z
" transform="scale(0.015625)"/>
       </defs>
       <use xlink:href="#AndaleMono-31"/>
       <use xlink:href="#AndaleMono-30" x="60.009766"/>
       <use xlink:href="#AndaleMono-30" x="120.019531"/>
       <use xlink:href="#AndaleMono-30" x="180.029297"/>
      </g>
     </g>
    </g>
   </g>
   <g id="matplotlib.axis_2">
    <g id="ytick_1">
     <g id="line2d_7">
      <defs>
       <path id="m8309598434" d="M 0 0 
L -3.5 0 
" style="stroke: #000000; stroke-width: 0.8"/>
      </defs>
      <g>
       <use xlink:href="#m8309598434" x="57.6" y="295.488" style="stroke: #000000; stroke-width: 0.8"/>
      </g>
     </g>
     <g id="text_7">
      <!-- 1.00 -->
      <g transform="translate(17.591406 299.276984) scale(0.11 -0.11)">
       <defs>
        <path id="AndaleMono-2212" d="M 3397 2047 
L 441 2047 
L 441 2456 
L 3397 2456 
L 3397 2047 
z
" transform="scale(0.015625)"/>
        <path id="AndaleMono-2e" d="M 1900 716 
Q 2066 716 2178 603 
Q 2291 491 2291 325 
Q 2291 156 2177 36 
Q 2063 -84 1900 -84 
Q 1741 -84 1628 36 
Q 1516 156 1516 325 
Q 1516 494 1627 605 
Q 1738 716 1900 716 
z
" transform="scale(0.015625)"/>
       </defs>
       <use xlink:href="#AndaleMono-2212"/>
       <use xlink:href="#AndaleMono-31" x="60.009766"/>
       <use xlink:href="#AndaleMono-2e" x="120.019531"/>
       <use xlink:href="#AndaleMono-30" x="180.029297"/>
       <use xlink:href="#AndaleMono-30" x="240.039062"/>
      </g>
     </g>
    </g>
    <g id="ytick_2">
     <g id="line2d_8">
      <g>
       <use xlink:href="#m8309598434" x="57.6" y="265.248" style="stroke: #000000; stroke-width: 0.8"/>
      </g>
     </g>
     <g id="text_8">
      <!-- 0.75 -->
      <g transform="translate(17.591406 269.036984) scale(0.11 -0.11)">
       <defs>
        <path id="AndaleMono-37" d="M 3238 4044 
L 1491 0 
L 966 0 
L 2688 3963 
L 622 3963 
L 622 4409 
L 3238 4409 
L 3238 4044 
z
" transform="scale(0.015625)"/>
        <path id="AndaleMono-35" d="M 1356 2631 
Q 1569 2688 1772 2688 
Q 2397 2688 2759 2305 
Q 3122 1922 3122 1350 
Q 3122 750 2700 333 
Q 2278 -84 1672 -84 
Q 1094 -84 703 109 
L 806 544 
Q 1231 366 1684 366 
Q 2088 366 2336 625 
Q 2584 884 2584 1350 
Q 2584 1791 2350 2028 
Q 2116 2266 1747 2266 
Q 1478 2266 1216 2163 
L 909 2303 
L 909 4409 
L 2925 4409 
L 2925 3963 
L 1356 3963 
L 1356 2631 
z
" transform="scale(0.015625)"/>
       </defs>
       <use xlink:href="#AndaleMono-2212"/>
       <use xlink:href="#AndaleMono-30" x="60.009766"/>
       <use xlink:href="#AndaleMono-2e" x="120.019531"/>
       <use xlink:href="#AndaleMono-37" x="180.029297"/>
       <use xlink:href="#AndaleMono-35" x="240.039062"/>
      </g>
     </g>
    </g>
    <g id="ytick_3">
     <g id="line2d_9">
      <g>
       <use xlink:href="#m8309598434" x="57.6" y="235.008" style="stroke: #000000; stroke-width: 0.8"/>
      </g>
     </g>
     <g id="text_9">
      <!-- 0.50 -->
      <g transform="translate(17.591406 238.796984) scale(0.11 -0.11)">
       <use xlink:href="#AndaleMono-2212"/>
       <use xlink:href="#AndaleMono-30" x="60.009766"/>
       <use xlink:href="#AndaleMono-2e" x="120.019531"/>
       <use xlink:href="#AndaleMono-35" x="180.029297"/>
       <use xlink:href="#AndaleMono-30" x="240.039062"/>
      </g>
     </g>
    </g>
    <g id="ytick_4">
     <g id="line2d_10">
      <g>
       <use xlink:href="#m8309598434" x="57.6" y="204.768" style="stroke: #000000; stroke-width: 0.8"/>
      </g>
     </g>
     <g id="text_10">
      <!-- 0.25 -->
      <g transform="translate(17.591406 208.556984) scale(0.11 -0.11)">
       <use xlink:href="#AndaleMono-2212"/>
       <use xlink:href="#AndaleMono-30" x="60.009766"/>
       <use xlink:href="#AndaleMono-2e" x="120.019531"/>
       <use xlink:href="#AndaleMono-32" x="180.029297"/>
       <use xlink:href="#AndaleMono-35" x="240.039062"/>
      </g>
     </g>
    </g>
    <g id="ytick_5">
     <g id="line2d_11">
      <g>
       <use xlink:href="#m8309598434" x="57.6" y="174.528" style="stroke: #000000; stroke-width: 0.8"/>
      </g>
     </g>
     <g id="text_11">
      <!-- 0.00 -->
      <g transform="translate(24.193125 178.316984) scale(0.11 -0.11)">
       <use xlink:href="#AndaleMono-30"/>
       <use xlink:href="#AndaleMono-2e" x="60.009766"/>
       <use xlink:href="#AndaleMono-30" x="120.019531"/>
       <use xlink:href="#AndaleMono-30" x="180.029297"/>
      </g>
     </g>
    </g>
    <g id="ytick_6">
     <g id="line2d_12">
      <g>
       <use xlink:href="#m8309598434" x="57.6" y="144.288" style="stroke: #000000; stroke-width: 0.8"/>
      </g>
     </g>
     <g id="text_12">
      <!-- 0.25 -->
      <g transform="translate(24.193125 148.076984) scale(0.11 -0.11)">
       <use xlink:href="#AndaleMono-30"/>
       <use xlink:href="#AndaleMono-2e" x="60.009766"/>
       <use xlink:href="#AndaleMono-32" x="120.019531"/>
       <use xlink:href="#AndaleMono-35" x="180.029297"/>
      </g>
     </g>
    </g>
    <g id="ytick_7">
     <g id="line2d_13">
      <g>
       <use xlink:href="#m8309598434" x="57.6" y="114.048" style="stroke: #000000; stroke-width: 0.8"/>
      </g>
     </g>
     <g id="text_13">
      <!-- 0.50 -->
      <g transform="translate(24.193125 117.836984) scale(0.11 -0.11)">
       <use xlink:href="#AndaleMono-30"/>
       <use xlink:href="#AndaleMono-2e" x="60.009766"/>
       <use xlink:href="#AndaleMono-35" x="120.019531"/>
       <use xlink:href="#AndaleMono-30" x="180.029297"/>
      </g>
     </g>
    </g>
    <g id="ytick_8">
     <g id="line2d_14">
      <g>
       <use xlink:href="#m8309598434" x="57.6" y="83.808" style="stroke: #000000; stroke-width: 0.8"/>
      </g>
     </g>
     <g id="text_14">
      <!-- 0.75 -->
      <g transform="translate(24.193125 87.596984) scale(0.11 -0.11)">
       <use xlink:href="#AndaleMono-30"/>
       <use xlink:href="#AndaleMono-2e" x="60.009766"/>
       <use xlink:href="#AndaleMono-37" x="120.019531"/>
       <use xlink:href="#AndaleMono-35" x="180.029297"/>
      </g>
     </g>
    </g>
    <g id="ytick_9">
     <g id="line2d_15">
      <g>
       <use xlink:href="#m8309598434" x="57.6" y="53.568" style="stroke: #000000; stroke-width: 0.8"/>
      </g>
     </g>
     <g id="text_15">
      <!-- 1.00 -->
      <g transform="translate(24.193125 57.356984) scale(0.11 -0.11)">
       <use xlink:href="#AndaleMono-31"/>
       <use xlink:href="#AndaleMono-2e" x="60.009766"/>
       <use xlink:href="#AndaleMono-30" x="120.019531"/>
       <use xlink:href="#AndaleMono-30" x="180.029297"/>
      </g>
     </g>
    </g>
   </g>
   <g id="line2d_16">
    <path d="M 73.832727 174.528 
L 74.150083 157.666468 
L 76.054215 152.571492 
L 77.640992 146.948669 
L 79.227769 140.65611 
L 80.49719 134.586805 
L 82.083967 125.797357 
L 83.988099 114.642759 
L 86.526942 103.625706 
L 89.065785 91.535074 
L 91.287273 80.265942 
L 92.87405 72.876315 
L 94.143471 68.212896 
L 96.364959 61.052686 
L 97.951736 57.584342 
L 99.221157 55.070296 
L 99.855868 54.234755 
L 100.490579 53.749474 
L 101.125289 53.571135 
L 101.76 53.62727 
L 102.394711 53.993193 
L 103.346777 55.112551 
L 104.616198 56.52477 
L 106.202975 57.995773 
L 106.837686 59.114542 
L 107.789752 61.004501 
L 110.328595 65.17661 
L 113.819504 73.070576 
L 116.040992 76.844435 
L 118.579835 81.290986 
L 119.849256 83.572165 
L 121.436033 85.830919 
L 123.02281 87.848071 
L 124.926942 89.887819 
L 126.831074 92.06048 
L 127.78314 92.84787 
L 128.735207 94.119554 
L 130.639339 96.906357 
L 132.226116 99.142875 
L 134.447603 103.007555 
L 136.669091 107.405364 
L 138.573223 111.058793 
L 139.842645 113.679555 
L 142.698843 119.75821 
L 144.920331 123.908813 
L 150.950083 134.274128 
L 153.806281 139.914636 
L 156.662479 144.820409 
L 159.518678 149.242599 
L 161.42281 152.145994 
L 165.231074 158.21553 
L 168.721983 162.983623 
L 169.991405 164.431935 
L 172.212893 166.579691 
L 174.117025 168.196301 
L 175.386446 169.017613 
L 177.290579 169.909595 
L 180.464132 171.195023 
L 182.68562 171.736989 
L 186.176529 172.418192 
L 190.302149 172.827291 
L 196.649256 173.14404 
L 210.612893 173.677678 
L 224.259174 173.991528 
L 230.606281 174.22462 
L 247.10876 175.044364 
L 270.910413 175.665499 
L 284.239339 176.429015 
L 287.412893 176.837721 
L 291.221157 177.684416 
L 292.807934 178.19607 
L 296.298843 179.713991 
L 297.568264 180.414762 
L 298.837686 181.362586 
L 301.059174 183.365068 
L 302.963306 185.310121 
L 304.232727 186.902696 
L 308.040992 192.220531 
L 309.945124 195.320179 
L 312.166612 198.888582 
L 315.340165 203.724816 
L 317.879008 208.016343 
L 319.78314 211.542074 
L 323.27405 218.36588 
L 328.03438 226.268222 
L 330.255868 230.563217 
L 332.16 234.671704 
L 333.746777 237.997207 
L 335.650909 241.650636 
L 338.189752 246.627843 
L 340.41124 250.404932 
L 344.219504 255.83686 
L 344.854215 256.495398 
L 345.806281 257.289403 
L 347.075702 258.784471 
L 348.662479 260.56211 
L 349.931901 261.937644 
L 352.153388 264.997596 
L 353.105455 266.554588 
L 355.961653 271.675594 
L 359.135207 277.236839 
L 360.721983 280.791634 
L 362.30876 284.563686 
L 363.260826 286.217837 
L 364.847603 288.619406 
L 366.117025 291.060227 
L 366.751736 291.747119 
L 368.338512 293.175242 
L 370.242645 295.294595 
L 370.877355 295.488 
L 371.512066 295.42906 
L 372.146777 295.107618 
L 372.781488 294.449193 
L 373.416198 293.438001 
L 374.68562 290.776495 
L 376.272397 287.12931 
L 377.859174 281.88921 
L 379.44595 276.28615 
L 380.715372 270.602212 
L 386.427769 242.936562 
L 388.966612 231.686025 
L 392.140165 213.721386 
L 393.409587 207.909312 
L 394.996364 201.805844 
L 396.58314 196.387385 
L 398.169917 192.254311 
L 398.487273 174.528 
L 398.487273 174.528 
" clip-path="url(#p6804613dcb)" style="fill: none; stroke: #87ceeb; stroke-opacity: 0.75; stroke-linecap: square"/>
   </g>
   <g id="patch_3">
    <path d="M 57.6 307.584 
L 57.6 41.472 
" style="fill: none; stroke: #000000; stroke-width: 0.8; stroke-linejoin: miter; stroke-linecap: square"/>
   </g>
   <g id="patch_4">
    <path d="M 414.72 307.584 
L 414.72 41.472 
" style="fill: none; stroke: #000000; stroke-width: 0.8; stroke-linejoin: miter; stroke-linecap: square"/>
   </g>
   <g id="patch_5">
    <path d="M 57.6 307.584 
L 414.72 307.584 
" style="fill: none; stroke: #000000; stroke-width: 0.8; stroke-linejoin: miter; stroke-linecap: square"/>
   </g>
   <g id="patch_6">
    <path d="M 57.6 41.472 
L 414.72 41.472 
" style="fill: none; stroke: #000000; stroke-width: 0.8; stroke-linejoin: miter; stroke-linecap: square"/>
   </g>
  </g>
 </g>
 <defs>
  <clipPath id="p6804613dcb">
   <rect x="57.6" y="41.472" width="357.12" height="266.112"/>
  </clipPath>
 </defs>
</svg>
