<?xml version="1.0" encoding="utf-8" standalone="no"?>
<!DOCTYPE svg PUBLIC "-//W3C//DTD SVG 1.1//EN"
  "http://www.w3.org/Graphics/SVG/1.1/DTD/svg11.dtd">
<svg xmlns:xlink="http://www.w3.org/1999/xlink" width="460.8pt" height="345.6pt" viewBox="0 0 460.8 345.6" xmlns="http://www.w3.org/2000/svg" version="1.1">
 <metadata>
  <rdf:RDF xmlns:dc="http://purl.org/dc/elements/1.1/" xmlns:cc="http://creativecommons.org/ns#" xmlns:rdf="http://www.w3.org/1999/02/22-rdf-syntax-ns#">
   <cc:Work>
    <dc:type rdf:resource="http://purl.org/dc/dcmitype/StillImage"/>
    <dc:date>2024-04-23T11:13:05.422990</dc:date>
    <dc:format>image/svg+xml</dc:format>
    <dc:creator>
     <cc:Agent>
      <dc:title>Matplotlib v3.8.3, https://matplotlib.org/</dc:title>
     </cc:Agent>
    </dc:creator>
   </cc:Work>
  </rdf:RDF>
 </metadata>
 <defs>
  <style type="text/css">*{stroke-linejoin: round; stroke-linecap: butt}</style>
 </defs>
 <g id="figure_1">
  <g id="patch_1">
   <path d="M 0 345.6 
L 460.8 345.6 
L 460.8 0 
L 0 0 
z
" style="fill: #ffffff"/>
  </g>
  <g id="axes_1">
   <g id="patch_2">
    <path d="M 57.6 307.584 
L 414.72 307.584 
L 414.72 41.472 
L 57.6 41.472 
z
" style="fill: #ffffff"/>
   </g>
   <g id="PolyCollection_1">
    <defs>
     <path id="mdedecb1766" d="M 73.832727 -171.072 
L 73.832727 -171.072 
L 74.150083 -175.472507 
L 74.467438 -175.584273 
L 74.784793 -175.693167 
L 75.102149 -175.806219 
L 75.419504 -175.925762 
L 75.73686 -176.042916 
L 76.054215 -176.155091 
L 76.37157 -176.264695 
L 76.688926 -176.377629 
L 77.006281 -176.490911 
L 77.323636 -176.603129 
L 77.640992 -176.708662 
L 77.958347 -176.816039 
L 78.275702 -176.92747 
L 78.593058 -177.047971 
L 78.910413 -177.166177 
L 79.227769 -177.276886 
L 79.545124 -177.384984 
L 79.862479 -177.49341 
L 80.179835 -177.603149 
L 80.49719 -177.713497 
L 80.814545 -177.827272 
L 81.131901 -177.942303 
L 81.449256 -178.059347 
L 81.766612 -178.179235 
L 82.083967 -178.303035 
L 82.401322 -178.431537 
L 82.718678 -178.552847 
L 83.036033 -178.679668 
L 83.353388 -178.810297 
L 83.670744 -178.944917 
L 83.988099 -179.077654 
L 84.305455 -179.063969 
L 84.62281 -179.051493 
L 84.940165 -179.043824 
L 85.257521 -179.041213 
L 85.574876 -179.037113 
L 85.892231 -179.035814 
L 86.209587 -179.038766 
L 86.526942 -179.042586 
L 86.844298 -179.045984 
L 87.161653 -179.051229 
L 87.479008 -179.063386 
L 87.796364 -179.075886 
L 88.113719 -179.085736 
L 88.431074 -179.09358 
L 88.74843 -179.102556 
L 89.065785 -179.114111 
L 89.38314 -179.123404 
L 89.700496 -179.130478 
L 90.017851 -179.141094 
L 90.335207 -179.152545 
L 90.652562 -179.165224 
L 90.969917 -179.178596 
L 91.287273 -179.197012 
L 91.604628 -179.217981 
L 91.921983 -179.24092 
L 92.239339 -179.262687 
L 92.556694 -179.285027 
L 92.87405 -179.307739 
L 93.191405 -179.329085 
L 93.50876 -179.354722 
L 93.826116 -179.382683 
L 94.143471 -179.416243 
L 94.460826 -179.445667 
L 94.778182 -179.472827 
L 95.095537 -179.508657 
L 95.412893 -179.539472 
L 95.730248 -179.565505 
L 96.047603 -179.594349 
L 96.364959 -179.635612 
L 96.682314 -179.679892 
L 96.999669 -179.716283 
L 97.317025 -179.743958 
L 97.63438 -179.76537 
L 97.951736 -179.791975 
L 98.269091 -179.812764 
L 98.586446 -179.829053 
L 98.903802 -179.832808 
L 99.221157 -179.839362 
L 99.538512 -179.863698 
L 99.855868 -179.899763 
L 100.173223 -179.942547 
L 100.490579 -179.990858 
L 100.807934 -180.042564 
L 101.125289 -180.084558 
L 101.442645 -180.125219 
L 101.76 -180.162466 
L 102.077355 -180.195204 
L 102.394711 -180.217817 
L 102.712066 -180.235058 
L 103.029421 -180.26871 
L 103.346777 -180.306559 
L 103.664132 -180.349617 
L 103.981488 -180.399331 
L 104.298843 -180.467277 
L 104.616198 -180.554546 
L 104.933554 -180.648628 
L 105.250909 -180.735951 
L 105.568264 -180.808272 
L 105.88562 -180.884319 
L 106.202975 -180.963776 
L 106.520331 -181.050099 
L 106.837686 -181.136787 
L 107.155041 -181.227019 
L 107.472397 -181.325527 
L 107.789752 -181.437565 
L 108.107107 -181.567448 
L 108.424463 -181.719689 
L 108.741818 -181.896405 
L 109.059174 -182.084308 
L 109.376529 -182.269859 
L 109.693884 -182.459827 
L 110.01124 -182.64956 
L 110.328595 -182.833968 
L 110.64595 -183.021341 
L 110.963306 -183.210796 
L 111.280661 -183.402936 
L 111.598017 -183.596216 
L 111.915372 -183.79993 
L 112.232727 -184.021221 
L 112.550083 -184.277314 
L 112.867438 -184.55686 
L 113.184793 -184.852508 
L 113.502149 -185.157561 
L 113.819504 -185.463003 
L 114.13686 -185.766034 
L 114.454215 -186.058554 
L 114.77157 -186.364758 
L 115.088926 -186.682145 
L 115.406281 -187.00808 
L 115.723636 -187.360768 
L 116.040992 -187.741213 
L 116.358347 -188.152767 
L 116.675702 -188.592688 
L 116.993058 -189.073028 
L 117.310413 -189.593049 
L 117.627769 -190.147317 
L 117.945124 -190.72983 
L 118.262479 -191.327424 
L 118.579835 -191.93359 
L 118.89719 -192.541886 
L 119.214545 -193.15962 
L 119.531901 -193.780886 
L 119.849256 -194.394124 
L 120.166612 -194.999005 
L 120.483967 -195.618149 
L 120.801322 -196.26836 
L 121.118678 -196.962768 
L 121.436033 -197.72359 
L 121.753388 -198.521607 
L 122.070744 -199.332752 
L 122.388099 -200.148405 
L 122.705455 -200.972214 
L 123.02281 -201.802529 
L 123.340165 -202.634424 
L 123.657521 -203.471327 
L 123.974876 -204.327013 
L 124.292231 -205.213878 
L 124.609587 -206.140326 
L 124.926942 -207.121389 
L 125.244298 -208.155429 
L 125.561653 -209.245828 
L 125.879008 -210.397898 
L 126.196364 -211.585381 
L 126.513719 -212.791502 
L 126.831074 -213.999698 
L 127.14843 -215.231828 
L 127.465785 -216.492579 
L 127.78314 -217.763155 
L 128.100496 -219.016219 
L 128.417851 -220.252838 
L 128.735207 -221.479779 
L 129.052562 -222.702649 
L 129.369917 -223.952585 
L 129.687273 -225.263953 
L 130.004628 -226.616834 
L 130.321983 -227.99845 
L 130.639339 -229.389554 
L 130.956694 -230.772733 
L 131.27405 -232.143077 
L 131.591405 -233.508254 
L 131.90876 -234.875835 
L 132.226116 -236.248954 
L 132.543471 -237.622836 
L 132.860826 -238.97943 
L 133.178182 -240.345553 
L 133.495537 -241.749766 
L 133.812893 -243.210612 
L 134.130248 -244.723103 
L 134.447603 -246.285629 
L 134.764959 -247.893653 
L 135.082314 -249.527563 
L 135.399669 -251.175465 
L 135.717025 -252.821704 
L 136.03438 -254.440414 
L 136.351736 -256.01118 
L 136.669091 -257.52056 
L 136.986446 -258.947498 
L 137.303802 -260.274445 
L 137.621157 -261.516527 
L 137.938512 -262.691664 
L 138.255868 -263.816573 
L 138.573223 -264.92284 
L 138.890579 -266.048787 
L 139.207934 -267.213739 
L 139.525289 -268.386149 
L 139.842645 -269.558905 
L 140.16 -270.720748 
L 140.477355 -271.864933 
L 140.794711 -272.955965 
L 141.112066 -273.965788 
L 141.429421 -274.884084 
L 141.746777 -275.700394 
L 142.064132 -276.463359 
L 142.381488 -277.233217 
L 142.698843 -278.04813 
L 143.016198 -278.930224 
L 143.333554 -279.880941 
L 143.650909 -280.890514 
L 143.968264 -281.941702 
L 144.28562 -283.001503 
L 144.602975 -284.033069 
L 144.920331 -284.996584 
L 145.237686 -285.845896 
L 145.555041 -286.582312 
L 145.872397 -287.215438 
L 146.189752 -287.749406 
L 146.507107 -288.198996 
L 146.824463 -288.582104 
L 147.141818 -288.921417 
L 147.459174 -289.221269 
L 147.776529 -289.485978 
L 148.093884 -289.747877 
L 148.41124 -290.049237 
L 148.728595 -290.387615 
L 149.04595 -290.72086 
L 149.363306 -291.0107 
L 149.680661 -291.206866 
L 149.998017 -291.255973 
L 150.315372 -291.190445 
L 150.632727 -291.054984 
L 150.950083 -290.906697 
L 151.267438 -290.793984 
L 151.584793 -290.752961 
L 151.902149 -290.791167 
L 152.219504 -290.905014 
L 152.53686 -291.084921 
L 152.854215 -291.309077 
L 153.17157 -291.560434 
L 153.488926 -291.795401 
L 153.806281 -291.963538 
L 154.123636 -292.032 
L 154.440992 -292.001597 
L 154.758347 -291.873625 
L 155.075702 -291.658916 
L 155.393058 -291.367217 
L 155.710413 -291.008844 
L 156.027769 -290.590182 
L 156.345124 -290.128753 
L 156.662479 -289.650931 
L 156.979835 -289.192818 
L 157.29719 -288.797986 
L 157.614545 -288.500929 
L 157.931901 -288.306858 
L 158.249256 -288.187878 
L 158.566612 -288.10449 
L 158.883967 -288.001687 
L 159.201322 -287.820871 
L 159.518678 -287.523148 
L 159.836033 -287.163883 
L 160.153388 -286.777478 
L 160.470744 -286.410427 
L 160.788099 -286.107325 
L 161.105455 -285.911466 
L 161.42281 -285.846946 
L 161.740165 -285.913359 
L 162.057521 -286.097447 
L 162.374876 -286.352339 
L 162.692231 -286.620574 
L 163.009587 -286.847593 
L 163.326942 -286.98999 
L 163.644298 -287.026707 
L 163.961653 -286.956036 
L 164.279008 -286.787955 
L 164.596364 -286.541699 
L 164.913719 -286.238306 
L 165.231074 -285.89771 
L 165.54843 -285.556362 
L 165.865785 -285.230594 
L 166.18314 -284.928754 
L 166.500496 -284.662322 
L 166.817851 -284.456661 
L 167.135207 -284.330899 
L 167.452562 -284.279702 
L 167.769917 -284.255909 
L 168.087273 -284.220756 
L 168.404628 -284.124264 
L 168.721983 -283.913738 
L 169.039339 -283.59263 
L 169.356694 -283.22187 
L 169.67405 -282.862386 
L 169.991405 -282.575166 
L 170.30876 -282.418993 
L 170.626116 -282.40088 
L 170.943471 -282.504812 
L 171.260826 -282.690765 
L 171.578182 -282.910344 
L 171.895537 -283.107575 
L 172.212893 -283.245336 
L 172.530248 -283.288527 
L 172.847603 -283.212437 
L 173.164959 -283.031655 
L 173.482314 -282.76327 
L 173.799669 -282.432541 
L 174.117025 -282.07043 
L 174.43438 -281.701993 
L 174.751736 -281.337637 
L 175.069091 -280.987431 
L 175.386446 -280.664315 
L 175.703802 -280.385685 
L 176.021157 -280.166067 
L 176.338512 -280.029018 
L 176.655868 -279.978365 
L 176.973223 -279.991155 
L 177.290579 -280.016416 
L 177.607934 -279.999507 
L 177.925289 -279.895859 
L 178.242645 -279.667154 
L 178.56 -279.353799 
L 178.877355 -279.013642 
L 179.194711 -278.709678 
L 179.512066 -278.498872 
L 179.829421 -278.424665 
L 180.146777 -278.472877 
L 180.464132 -278.623061 
L 180.781488 -278.826898 
L 181.098843 -279.027441 
L 181.416198 -279.174718 
L 181.733554 -279.235895 
L 182.050909 -279.193802 
L 182.368264 -279.047756 
L 182.68562 -278.819931 
L 183.002975 -278.531735 
L 183.320331 -278.207653 
L 183.637686 -277.869464 
L 183.955041 -277.53152 
L 184.272397 -277.20036 
L 184.589752 -276.882967 
L 184.907107 -276.584212 
L 185.224463 -276.309923 
L 185.541818 -276.075955 
L 185.859174 -275.884925 
L 186.176529 -275.732624 
L 186.493884 -275.606382 
L 186.81124 -275.489199 
L 187.128595 -275.330563 
L 187.44595 -275.078502 
L 187.763306 -274.710775 
L 188.080661 -274.269395 
L 188.398017 -273.798364 
L 188.715372 -273.344368 
L 189.032727 -272.948224 
L 189.350083 -272.623239 
L 189.667438 -272.351763 
L 189.984793 -272.105833 
L 190.302149 -271.850322 
L 190.619504 -271.554372 
L 190.93686 -271.188685 
L 191.254215 -270.721674 
L 191.57157 -270.132577 
L 191.888926 -269.419139 
L 192.206281 -268.605304 
L 192.523636 -267.714258 
L 192.840992 -266.779862 
L 193.158347 -265.833573 
L 193.475702 -264.888696 
L 193.793058 -263.959194 
L 194.110413 -263.055359 
L 194.427769 -262.18629 
L 194.745124 -261.358413 
L 195.062479 -260.576858 
L 195.379835 -259.842166 
L 195.69719 -259.136003 
L 196.014545 -258.425677 
L 196.331901 -257.681025 
L 196.649256 -256.861438 
L 196.966612 -255.949899 
L 197.283967 -254.97297 
L 197.601322 -253.972027 
L 197.918678 -252.993055 
L 198.236033 -252.071993 
L 198.553388 -251.243907 
L 198.870744 -250.494678 
L 199.188099 -249.79631 
L 199.505455 -249.114155 
L 199.82281 -248.413043 
L 200.140165 -247.663188 
L 200.457521 -246.839759 
L 200.774876 -245.922738 
L 201.092231 -244.923834 
L 201.409587 -243.863965 
L 201.726942 -242.765127 
L 202.044298 -241.647044 
L 202.361653 -240.525423 
L 202.679008 -239.414969 
L 202.996364 -238.315364 
L 203.313719 -237.230262 
L 203.631074 -236.162994 
L 203.94843 -235.115743 
L 204.265785 -234.092499 
L 204.58314 -233.095807 
L 204.900496 -232.124735 
L 205.217851 -231.173307 
L 205.535207 -230.233773 
L 205.852562 -229.291493 
L 206.169917 -228.333772 
L 206.487273 -227.350305 
L 206.804628 -226.335098 
L 207.121983 -225.288152 
L 207.439339 -224.238899 
L 207.756694 -223.221338 
L 208.07405 -222.258177 
L 208.391405 -221.344722 
L 208.70876 -220.470151 
L 209.026116 -219.621164 
L 209.343471 -218.786479 
L 209.660826 -217.952345 
L 209.978182 -217.106707 
L 210.295537 -216.242716 
L 210.612893 -215.358128 
L 210.930248 -214.449681 
L 211.247603 -213.516703 
L 211.564959 -212.582996 
L 211.882314 -211.676321 
L 212.199669 -210.816163 
L 212.517025 -210.008821 
L 212.83438 -209.257419 
L 213.151736 -208.559542 
L 213.469091 -207.910103 
L 213.786446 -207.301855 
L 214.103802 -206.724065 
L 214.421157 -206.165846 
L 214.738512 -205.613516 
L 215.055868 -205.054821 
L 215.373223 -204.477123 
L 215.690579 -203.869942 
L 216.007934 -203.235867 
L 216.325289 -202.591252 
L 216.642645 -201.953403 
L 216.96 -201.345551 
L 217.277355 -200.780295 
L 217.594711 -200.246953 
L 217.912066 -199.732124 
L 218.229421 -199.21875 
L 218.546777 -198.693912 
L 218.864132 -198.146248 
L 219.181488 -197.568205 
L 219.498843 -196.956671 
L 219.816198 -196.312138 
L 220.133554 -195.640097 
L 220.450909 -194.947034 
L 220.768264 -194.24127 
L 221.08562 -193.538754 
L 221.402975 -192.84436 
L 221.720331 -192.15957 
L 222.037686 -191.485389 
L 222.355041 -190.823391 
L 222.672397 -190.176179 
L 222.989752 -189.542238 
L 223.307107 -188.922508 
L 223.624463 -188.315905 
L 223.941818 -187.720511 
L 224.259174 -187.134554 
L 224.576529 -186.554491 
L 224.893884 -185.976311 
L 225.21124 -185.395183 
L 225.528595 -184.812002 
L 225.84595 -184.231111 
L 226.163306 -183.657308 
L 226.480661 -183.095385 
L 226.798017 -182.551463 
L 227.115372 -182.03236 
L 227.432727 -181.543184 
L 227.750083 -181.08122 
L 228.067438 -180.641787 
L 228.384793 -180.219774 
L 228.702149 -179.808834 
L 229.019504 -179.403143 
L 229.33686 -178.9975 
L 229.654215 -178.588359 
L 229.97157 -178.175717 
L 230.288926 -177.761581 
L 230.606281 -177.348724 
L 230.923636 -176.941505 
L 231.240992 -176.544621 
L 231.558347 -176.164942 
L 231.875702 -175.798157 
L 232.193058 -175.441396 
L 232.510413 -175.091624 
L 232.827769 -174.745869 
L 233.145124 -174.401596 
L 233.462479 -174.056693 
L 233.779835 -173.709633 
L 234.09719 -173.359813 
L 234.414545 -173.007471 
L 234.731901 -172.653227 
L 235.049256 -172.298386 
L 235.366612 -171.943977 
L 235.683967 -171.591979 
L 236.001322 -171.24439 
L 236.318678 -170.89961 
L 236.636033 -170.552021 
L 236.953388 -170.200023 
L 237.270744 -169.845614 
L 237.588099 -169.490773 
L 237.905455 -169.136529 
L 238.22281 -168.784187 
L 238.540165 -168.434367 
L 238.857521 -168.087307 
L 239.174876 -167.742404 
L 239.492231 -167.398131 
L 239.809587 -167.052376 
L 240.126942 -166.702604 
L 240.444298 -166.345843 
L 240.761653 -165.979058 
L 241.079008 -165.599379 
L 241.396364 -165.202495 
L 241.713719 -164.795276 
L 242.031074 -164.382419 
L 242.34843 -163.968283 
L 242.665785 -163.555641 
L 242.98314 -163.1465 
L 243.300496 -162.740857 
L 243.617851 -162.335166 
L 243.935207 -161.924226 
L 244.252562 -161.502213 
L 244.569917 -161.06278 
L 244.887273 -160.600816 
L 245.204628 -160.11164 
L 245.521983 -159.592537 
L 245.839339 -159.048615 
L 246.156694 -158.486692 
L 246.47405 -157.912889 
L 246.791405 -157.331998 
L 247.10876 -156.748817 
L 247.426116 -156.167689 
L 247.743471 -155.589509 
L 248.060826 -155.009446 
L 248.378182 -154.423489 
L 248.695537 -153.828095 
L 249.012893 -153.221492 
L 249.330248 -152.601762 
L 249.647603 -151.967821 
L 249.964959 -151.320609 
L 250.282314 -150.658611 
L 250.599669 -149.98443 
L 250.917025 -149.29964 
L 251.23438 -148.605246 
L 251.551736 -147.90273 
L 251.869091 -147.196966 
L 252.186446 -146.503903 
L 252.503802 -145.831862 
L 252.821157 -145.187329 
L 253.138512 -144.575795 
L 253.455868 -143.997752 
L 253.773223 -143.450088 
L 254.090579 -142.92525 
L 254.407934 -142.411876 
L 254.725289 -141.897047 
L 255.042645 -141.363705 
L 255.36 -140.798449 
L 255.677355 -140.190597 
L 255.994711 -139.552748 
L 256.312066 -138.908133 
L 256.629421 -138.274058 
L 256.946777 -137.666877 
L 257.264132 -137.089179 
L 257.581488 -136.530484 
L 257.898843 -135.978154 
L 258.216198 -135.419935 
L 258.533554 -134.842145 
L 258.850909 -134.233897 
L 259.168264 -133.584458 
L 259.48562 -132.886581 
L 259.802975 -132.135179 
L 260.120331 -131.327837 
L 260.437686 -130.467679 
L 260.755041 -129.561004 
L 261.072397 -128.627297 
L 261.389752 -127.694319 
L 261.707107 -126.785872 
L 262.024463 -125.901284 
L 262.341818 -125.037293 
L 262.659174 -124.191655 
L 262.976529 -123.357521 
L 263.293884 -122.522836 
L 263.61124 -121.673849 
L 263.928595 -120.799278 
L 264.24595 -119.885823 
L 264.563306 -118.922662 
L 264.880661 -117.905101 
L 265.198017 -116.855848 
L 265.515372 -115.808902 
L 265.832727 -114.793695 
L 266.150083 -113.810228 
L 266.467438 -112.852507 
L 266.784793 -111.910227 
L 267.102149 -110.970693 
L 267.419504 -110.019265 
L 267.73686 -109.048193 
L 268.054215 -108.051501 
L 268.37157 -107.028257 
L 268.688926 -105.981006 
L 269.006281 -104.913738 
L 269.323636 -103.828636 
L 269.640992 -102.729031 
L 269.958347 -101.618577 
L 270.275702 -100.496956 
L 270.593058 -99.378873 
L 270.910413 -98.280035 
L 271.227769 -97.220166 
L 271.545124 -96.221262 
L 271.862479 -95.304241 
L 272.179835 -94.480812 
L 272.49719 -93.730957 
L 272.814545 -93.029845 
L 273.131901 -92.34769 
L 273.449256 -91.649322 
L 273.766612 -90.900093 
L 274.083967 -90.072007 
L 274.401322 -89.150945 
L 274.718678 -88.171973 
L 275.036033 -87.17103 
L 275.353388 -86.194101 
L 275.670744 -85.282562 
L 275.988099 -84.462975 
L 276.305455 -83.718323 
L 276.62281 -83.007997 
L 276.940165 -82.301834 
L 277.257521 -81.567142 
L 277.574876 -80.785587 
L 277.892231 -79.95771 
L 278.209587 -79.088641 
L 278.526942 -78.184806 
L 278.844298 -77.255304 
L 279.161653 -76.310427 
L 279.479008 -75.364138 
L 279.796364 -74.429742 
L 280.113719 -73.538696 
L 280.431074 -72.724861 
L 280.74843 -72.011423 
L 281.065785 -71.422326 
L 281.38314 -70.955315 
L 281.700496 -70.589628 
L 282.017851 -70.293678 
L 282.335207 -70.038167 
L 282.652562 -69.792237 
L 282.969917 -69.520761 
L 283.287273 -69.195776 
L 283.604628 -68.799632 
L 283.921983 -68.345636 
L 284.239339 -67.874605 
L 284.556694 -67.433225 
L 284.87405 -67.065498 
L 285.191405 -66.813437 
L 285.50876 -66.654801 
L 285.826116 -66.537618 
L 286.143471 -66.411376 
L 286.460826 -66.259075 
L 286.778182 -66.068045 
L 287.095537 -65.834077 
L 287.412893 -65.559788 
L 287.730248 -65.261033 
L 288.047603 -64.94364 
L 288.364959 -64.61248 
L 288.682314 -64.274536 
L 288.999669 -63.936347 
L 289.317025 -63.612265 
L 289.63438 -63.324069 
L 289.951736 -63.096244 
L 290.269091 -62.950198 
L 290.586446 -62.908105 
L 290.903802 -62.969282 
L 291.221157 -63.116559 
L 291.538512 -63.317102 
L 291.855868 -63.520939 
L 292.173223 -63.671123 
L 292.490579 -63.719335 
L 292.807934 -63.645128 
L 293.125289 -63.434322 
L 293.442645 -63.130358 
L 293.76 -62.790201 
L 294.077355 -62.476846 
L 294.394711 -62.248141 
L 294.712066 -62.144493 
L 295.029421 -62.127584 
L 295.346777 -62.152845 
L 295.664132 -62.165635 
L 295.981488 -62.114982 
L 296.298843 -61.977933 
L 296.616198 -61.758315 
L 296.933554 -61.479685 
L 297.250909 -61.156569 
L 297.568264 -60.806363 
L 297.88562 -60.442007 
L 298.202975 -60.07357 
L 298.520331 -59.711459 
L 298.837686 -59.38073 
L 299.155041 -59.112345 
L 299.472397 -58.931563 
L 299.789752 -58.855473 
L 300.107107 -58.898664 
L 300.424463 -59.036425 
L 300.741818 -59.233656 
L 301.059174 -59.453235 
L 301.376529 -59.639188 
L 301.693884 -59.74312 
L 302.01124 -59.725007 
L 302.328595 -59.568834 
L 302.64595 -59.281614 
L 302.963306 -58.92213 
L 303.280661 -58.55137 
L 303.598017 -58.230262 
L 303.915372 -58.019736 
L 304.232727 -57.923244 
L 304.550083 -57.888091 
L 304.867438 -57.864298 
L 305.184793 -57.813101 
L 305.502149 -57.687339 
L 305.819504 -57.481678 
L 306.13686 -57.215246 
L 306.454215 -56.913406 
L 306.77157 -56.587638 
L 307.088926 -56.24629 
L 307.406281 -55.905694 
L 307.723636 -55.602301 
L 308.040992 -55.356045 
L 308.358347 -55.187964 
L 308.675702 -55.117293 
L 308.993058 -55.15401 
L 309.310413 -55.296407 
L 309.627769 -55.523426 
L 309.945124 -55.791661 
L 310.262479 -56.046553 
L 310.579835 -56.230641 
L 310.89719 -56.297054 
L 311.214545 -56.232534 
L 311.531901 -56.036675 
L 311.849256 -55.733573 
L 312.166612 -55.366522 
L 312.483967 -54.980117 
L 312.801322 -54.620852 
L 313.118678 -54.323129 
L 313.436033 -54.142313 
L 313.753388 -54.03951 
L 314.070744 -53.956122 
L 314.388099 -53.837142 
L 314.705455 -53.643071 
L 315.02281 -53.346014 
L 315.340165 -52.951182 
L 315.657521 -52.493069 
L 315.974876 -52.015247 
L 316.292231 -51.553818 
L 316.609587 -51.135156 
L 316.926942 -50.776783 
L 317.244298 -50.485084 
L 317.561653 -50.270375 
L 317.879008 -50.142403 
L 318.196364 -50.112 
L 318.513719 -50.180462 
L 318.831074 -50.348599 
L 319.14843 -50.583566 
L 319.465785 -50.834923 
L 319.78314 -51.059079 
L 320.100496 -51.238986 
L 320.417851 -51.352833 
L 320.735207 -51.391039 
L 321.052562 -51.350016 
L 321.369917 -51.237303 
L 321.687273 -51.089016 
L 322.004628 -50.953555 
L 322.321983 -50.888027 
L 322.639339 -50.937134 
L 322.956694 -51.1333 
L 323.27405 -51.42314 
L 323.591405 -51.756385 
L 323.90876 -52.094763 
L 324.226116 -52.396123 
L 324.543471 -52.658022 
L 324.860826 -52.922731 
L 325.178182 -53.222583 
L 325.495537 -53.561896 
L 325.812893 -53.945004 
L 326.130248 -54.394594 
L 326.447603 -54.928562 
L 326.764959 -55.561688 
L 327.082314 -56.298104 
L 327.399669 -57.147416 
L 327.717025 -58.110931 
L 328.03438 -59.142497 
L 328.351736 -60.202298 
L 328.669091 -61.253486 
L 328.986446 -62.263059 
L 329.303802 -63.213776 
L 329.621157 -64.09587 
L 329.938512 -64.910783 
L 330.255868 -65.680641 
L 330.573223 -66.443606 
L 330.890579 -67.259916 
L 331.207934 -68.178212 
L 331.525289 -69.188035 
L 331.842645 -70.279067 
L 332.16 -71.423252 
L 332.477355 -72.585095 
L 332.794711 -73.757851 
L 333.112066 -74.930261 
L 333.429421 -76.095213 
L 333.746777 -77.22116 
L 334.064132 -78.327427 
L 334.381488 -79.452336 
L 334.698843 -80.627473 
L 335.016198 -81.869555 
L 335.333554 -83.196502 
L 335.650909 -84.62344 
L 335.968264 -86.13282 
L 336.28562 -87.703586 
L 336.602975 -89.322296 
L 336.920331 -90.968535 
L 337.237686 -92.616437 
L 337.555041 -94.250347 
L 337.872397 -95.858371 
L 338.189752 -97.420897 
L 338.507107 -98.933388 
L 338.824463 -100.394234 
L 339.141818 -101.798447 
L 339.459174 -103.16457 
L 339.776529 -104.521164 
L 340.093884 -105.895046 
L 340.41124 -107.268165 
L 340.728595 -108.635746 
L 341.04595 -110.000923 
L 341.363306 -111.371267 
L 341.680661 -112.754446 
L 341.998017 -114.14555 
L 342.315372 -115.527166 
L 342.632727 -116.880047 
L 342.950083 -118.191415 
L 343.267438 -119.441351 
L 343.584793 -120.664221 
L 343.902149 -121.891162 
L 344.219504 -123.127781 
L 344.53686 -124.380845 
L 344.854215 -125.651421 
L 345.17157 -126.912172 
L 345.488926 -128.144302 
L 345.806281 -129.352498 
L 346.123636 -130.558619 
L 346.440992 -131.746102 
L 346.758347 -132.898172 
L 347.075702 -133.988571 
L 347.393058 -135.022611 
L 347.710413 -136.003674 
L 348.027769 -136.930122 
L 348.345124 -137.816987 
L 348.662479 -138.672673 
L 348.979835 -139.509576 
L 349.29719 -140.341471 
L 349.614545 -141.171786 
L 349.931901 -141.995595 
L 350.249256 -142.811248 
L 350.566612 -143.622393 
L 350.883967 -144.42041 
L 351.201322 -145.181232 
L 351.518678 -145.87564 
L 351.836033 -146.525851 
L 352.153388 -147.144995 
L 352.470744 -147.749876 
L 352.788099 -148.363114 
L 353.105455 -148.98438 
L 353.42281 -149.602114 
L 353.740165 -150.21041 
L 354.057521 -150.816576 
L 354.374876 -151.41417 
L 354.692231 -151.996683 
L 355.009587 -152.550951 
L 355.326942 -153.070972 
L 355.644298 -153.551312 
L 355.961653 -153.991233 
L 356.279008 -154.402787 
L 356.596364 -154.783232 
L 356.913719 -155.13592 
L 357.231074 -155.461855 
L 357.54843 -155.779242 
L 357.865785 -156.085446 
L 358.18314 -156.377966 
L 358.500496 -156.680997 
L 358.817851 -156.986439 
L 359.135207 -157.291492 
L 359.452562 -157.58714 
L 359.769917 -157.866686 
L 360.087273 -158.122779 
L 360.404628 -158.34407 
L 360.721983 -158.547784 
L 361.039339 -158.741064 
L 361.356694 -158.933204 
L 361.67405 -159.122659 
L 361.991405 -159.310032 
L 362.30876 -159.49444 
L 362.626116 -159.684173 
L 362.943471 -159.874141 
L 363.260826 -160.059692 
L 363.578182 -160.247595 
L 363.895537 -160.424311 
L 364.212893 -160.576552 
L 364.530248 -160.706435 
L 364.847603 -160.818473 
L 365.164959 -160.916981 
L 365.482314 -161.007213 
L 365.799669 -161.093901 
L 366.117025 -161.180224 
L 366.43438 -161.259681 
L 366.751736 -161.335728 
L 367.069091 -161.408049 
L 367.386446 -161.495372 
L 367.703802 -161.589454 
L 368.021157 -161.676723 
L 368.338512 -161.744669 
L 368.655868 -161.794383 
L 368.973223 -161.837441 
L 369.290579 -161.87529 
L 369.607934 -161.908942 
L 369.925289 -161.926183 
L 370.242645 -161.948796 
L 370.56 -161.981534 
L 370.877355 -162.018781 
L 371.194711 -162.059442 
L 371.512066 -162.101436 
L 371.829421 -162.153142 
L 372.146777 -162.201453 
L 372.464132 -162.244237 
L 372.781488 -162.280302 
L 373.098843 -162.304638 
L 373.416198 -162.311192 
L 373.733554 -162.314947 
L 374.050909 -162.331236 
L 374.368264 -162.352025 
L 374.68562 -162.37863 
L 375.002975 -162.400042 
L 375.320331 -162.427717 
L 375.637686 -162.464108 
L 375.955041 -162.508388 
L 376.272397 -162.549651 
L 376.589752 -162.578495 
L 376.907107 -162.604528 
L 377.224463 -162.635343 
L 377.541818 -162.671173 
L 377.859174 -162.698333 
L 378.176529 -162.727757 
L 378.493884 -162.761876 
L 378.81124 -162.790995 
L 379.128595 -162.817841 
L 379.44595 -162.840437 
L 379.763306 -162.864434 
L 380.080661 -162.888088 
L 380.398017 -162.91119 
L 380.715372 -162.935477 
L 381.032727 -162.957801 
L 381.350083 -162.977573 
L 381.667438 -162.992293 
L 381.984793 -163.006306 
L 382.302149 -163.019069 
L 382.619504 -163.030969 
L 382.93686 -163.039291 
L 383.254215 -163.04979 
L 383.57157 -163.0625 
L 383.888926 -163.072575 
L 384.206281 -163.081454 
L 384.523636 -163.092269 
L 384.840992 -163.105655 
L 385.158347 -163.118613 
L 385.475702 -163.124566 
L 385.793058 -163.128574 
L 386.110413 -163.132897 
L 386.427769 -163.136238 
L 386.745124 -163.135209 
L 387.062479 -163.131251 
L 387.379835 -163.128647 
L 387.69719 -163.120844 
L 388.014545 -163.108084 
L 388.331901 -163.09396 
L 388.649256 -163.083292 
L 388.966612 -163.217912 
L 389.283967 -163.348541 
L 389.601322 -163.475363 
L 389.918678 -163.596673 
L 390.236033 -163.725174 
L 390.553388 -163.848974 
L 390.870744 -163.968862 
L 391.188099 -164.085906 
L 391.505455 -164.200937 
L 391.82281 -164.314712 
L 392.140165 -164.42506 
L 392.457521 -164.534799 
L 392.774876 -164.643225 
L 393.092231 -164.751323 
L 393.409587 -164.862032 
L 393.726942 -164.980238 
L 394.044298 -165.10074 
L 394.361653 -165.21217 
L 394.679008 -165.319547 
L 394.996364 -165.42508 
L 395.313719 -165.537299 
L 395.631074 -165.650581 
L 395.94843 -165.763514 
L 396.265785 -165.873118 
L 396.58314 -165.985293 
L 396.900496 -166.102448 
L 397.217851 -166.22199 
L 397.535207 -166.335042 
L 397.852562 -166.443936 
L 398.169917 -166.555702 
L 398.487273 -171.072 
L 398.487273 -171.072 
L 398.487273 -171.072 
L 398.169917 -171.072 
L 397.852562 -171.072 
L 397.535207 -171.072 
L 397.217851 -171.072 
L 396.900496 -171.072 
L 396.58314 -171.072 
L 396.265785 -171.072 
L 395.94843 -171.072 
L 395.631074 -171.072 
L 395.313719 -171.072 
L 394.996364 -171.072 
L 394.679008 -171.072 
L 394.361653 -171.072 
L 394.044298 -171.072 
L 393.726942 -171.072 
L 393.409587 -171.072 
L 393.092231 -171.072 
L 392.774876 -171.072 
L 392.457521 -171.072 
L 392.140165 -171.072 
L 391.82281 -171.072 
L 391.505455 -171.072 
L 391.188099 -171.072 
L 390.870744 -171.072 
L 390.553388 -171.072 
L 390.236033 -171.072 
L 389.918678 -171.072 
L 389.601322 -171.072 
L 389.283967 -171.072 
L 388.966612 -171.072 
L 388.649256 -171.072 
L 388.331901 -171.072 
L 388.014545 -171.072 
L 387.69719 -171.072 
L 387.379835 -171.072 
L 387.062479 -171.072 
L 386.745124 -171.072 
L 386.427769 -171.072 
L 386.110413 -171.072 
L 385.793058 -171.072 
L 385.475702 -171.072 
L 385.158347 -171.072 
L 384.840992 -171.072 
L 384.523636 -171.072 
L 384.206281 -171.072 
L 383.888926 -171.072 
L 383.57157 -171.072 
L 383.254215 -171.072 
L 382.93686 -171.072 
L 382.619504 -171.072 
L 382.302149 -171.072 
L 381.984793 -171.072 
L 381.667438 -171.072 
L 381.350083 -171.072 
L 381.032727 -171.072 
L 380.715372 -171.072 
L 380.398017 -171.072 
L 380.080661 -171.072 
L 379.763306 -171.072 
L 379.44595 -171.072 
L 379.128595 -171.072 
L 378.81124 -171.072 
L 378.493884 -171.072 
L 378.176529 -171.072 
L 377.859174 -171.072 
L 377.541818 -171.072 
L 377.224463 -171.072 
L 376.907107 -171.072 
L 376.589752 -171.072 
L 376.272397 -171.072 
L 375.955041 -171.072 
L 375.637686 -171.072 
L 375.320331 -171.072 
L 375.002975 -171.072 
L 374.68562 -171.072 
L 374.368264 -171.072 
L 374.050909 -171.072 
L 373.733554 -171.072 
L 373.416198 -171.072 
L 373.098843 -171.072 
L 372.781488 -171.072 
L 372.464132 -171.072 
L 372.146777 -171.072 
L 371.829421 -171.072 
L 371.512066 -171.072 
L 371.194711 -171.072 
L 370.877355 -171.072 
L 370.56 -171.072 
L 370.242645 -171.072 
L 369.925289 -171.072 
L 369.607934 -171.072 
L 369.290579 -171.072 
L 368.973223 -171.072 
L 368.655868 -171.072 
L 368.338512 -171.072 
L 368.021157 -171.072 
L 367.703802 -171.072 
L 367.386446 -171.072 
L 367.069091 -171.072 
L 366.751736 -171.072 
L 366.43438 -171.072 
L 366.117025 -171.072 
L 365.799669 -171.072 
L 365.482314 -171.072 
L 365.164959 -171.072 
L 364.847603 -171.072 
L 364.530248 -171.072 
L 364.212893 -171.072 
L 363.895537 -171.072 
L 363.578182 -171.072 
L 363.260826 -171.072 
L 362.943471 -171.072 
L 362.626116 -171.072 
L 362.30876 -171.072 
L 361.991405 -171.072 
L 361.67405 -171.072 
L 361.356694 -171.072 
L 361.039339 -171.072 
L 360.721983 -171.072 
L 360.404628 -171.072 
L 360.087273 -171.072 
L 359.769917 -171.072 
L 359.452562 -171.072 
L 359.135207 -171.072 
L 358.817851 -171.072 
L 358.500496 -171.072 
L 358.18314 -171.072 
L 357.865785 -171.072 
L 357.54843 -171.072 
L 357.231074 -171.072 
L 356.913719 -171.072 
L 356.596364 -171.072 
L 356.279008 -171.072 
L 355.961653 -171.072 
L 355.644298 -171.072 
L 355.326942 -171.072 
L 355.009587 -171.072 
L 354.692231 -171.072 
L 354.374876 -171.072 
L 354.057521 -171.072 
L 353.740165 -171.072 
L 353.42281 -171.072 
L 353.105455 -171.072 
L 352.788099 -171.072 
L 352.470744 -171.072 
L 352.153388 -171.072 
L 351.836033 -171.072 
L 351.518678 -171.072 
L 351.201322 -171.072 
L 350.883967 -171.072 
L 350.566612 -171.072 
L 350.249256 -171.072 
L 349.931901 -171.072 
L 349.614545 -171.072 
L 349.29719 -171.072 
L 348.979835 -171.072 
L 348.662479 -171.072 
L 348.345124 -171.072 
L 348.027769 -171.072 
L 347.710413 -171.072 
L 347.393058 -171.072 
L 347.075702 -171.072 
L 346.758347 -171.072 
L 346.440992 -171.072 
L 346.123636 -171.072 
L 345.806281 -171.072 
L 345.488926 -171.072 
L 345.17157 -171.072 
L 344.854215 -171.072 
L 344.53686 -171.072 
L 344.219504 -171.072 
L 343.902149 -171.072 
L 343.584793 -171.072 
L 343.267438 -171.072 
L 342.950083 -171.072 
L 342.632727 -171.072 
L 342.315372 -171.072 
L 341.998017 -171.072 
L 341.680661 -171.072 
L 341.363306 -171.072 
L 341.04595 -171.072 
L 340.728595 -171.072 
L 340.41124 -171.072 
L 340.093884 -171.072 
L 339.776529 -171.072 
L 339.459174 -171.072 
L 339.141818 -171.072 
L 338.824463 -171.072 
L 338.507107 -171.072 
L 338.189752 -171.072 
L 337.872397 -171.072 
L 337.555041 -171.072 
L 337.237686 -171.072 
L 336.920331 -171.072 
L 336.602975 -171.072 
L 336.28562 -171.072 
L 335.968264 -171.072 
L 335.650909 -171.072 
L 335.333554 -171.072 
L 335.016198 -171.072 
L 334.698843 -171.072 
L 334.381488 -171.072 
L 334.064132 -171.072 
L 333.746777 -171.072 
L 333.429421 -171.072 
L 333.112066 -171.072 
L 332.794711 -171.072 
L 332.477355 -171.072 
L 332.16 -171.072 
L 331.842645 -171.072 
L 331.525289 -171.072 
L 331.207934 -171.072 
L 330.890579 -171.072 
L 330.573223 -171.072 
L 330.255868 -171.072 
L 329.938512 -171.072 
L 329.621157 -171.072 
L 329.303802 -171.072 
L 328.986446 -171.072 
L 328.669091 -171.072 
L 328.351736 -171.072 
L 328.03438 -171.072 
L 327.717025 -171.072 
L 327.399669 -171.072 
L 327.082314 -171.072 
L 326.764959 -171.072 
L 326.447603 -171.072 
L 326.130248 -171.072 
L 325.812893 -171.072 
L 325.495537 -171.072 
L 325.178182 -171.072 
L 324.860826 -171.072 
L 324.543471 -171.072 
L 324.226116 -171.072 
L 323.90876 -171.072 
L 323.591405 -171.072 
L 323.27405 -171.072 
L 322.956694 -171.072 
L 322.639339 -171.072 
L 322.321983 -171.072 
L 322.004628 -171.072 
L 321.687273 -171.072 
L 321.369917 -171.072 
L 321.052562 -171.072 
L 320.735207 -171.072 
L 320.417851 -171.072 
L 320.100496 -171.072 
L 319.78314 -171.072 
L 319.465785 -171.072 
L 319.14843 -171.072 
L 318.831074 -171.072 
L 318.513719 -171.072 
L 318.196364 -171.072 
L 317.879008 -171.072 
L 317.561653 -171.072 
L 317.244298 -171.072 
L 316.926942 -171.072 
L 316.609587 -171.072 
L 316.292231 -171.072 
L 315.974876 -171.072 
L 315.657521 -171.072 
L 315.340165 -171.072 
L 315.02281 -171.072 
L 314.705455 -171.072 
L 314.388099 -171.072 
L 314.070744 -171.072 
L 313.753388 -171.072 
L 313.436033 -171.072 
L 313.118678 -171.072 
L 312.801322 -171.072 
L 312.483967 -171.072 
L 312.166612 -171.072 
L 311.849256 -171.072 
L 311.531901 -171.072 
L 311.214545 -171.072 
L 310.89719 -171.072 
L 310.579835 -171.072 
L 310.262479 -171.072 
L 309.945124 -171.072 
L 309.627769 -171.072 
L 309.310413 -171.072 
L 308.993058 -171.072 
L 308.675702 -171.072 
L 308.358347 -171.072 
L 308.040992 -171.072 
L 307.723636 -171.072 
L 307.406281 -171.072 
L 307.088926 -171.072 
L 306.77157 -171.072 
L 306.454215 -171.072 
L 306.13686 -171.072 
L 305.819504 -171.072 
L 305.502149 -171.072 
L 305.184793 -171.072 
L 304.867438 -171.072 
L 304.550083 -171.072 
L 304.232727 -171.072 
L 303.915372 -171.072 
L 303.598017 -171.072 
L 303.280661 -171.072 
L 302.963306 -171.072 
L 302.64595 -171.072 
L 302.328595 -171.072 
L 302.01124 -171.072 
L 301.693884 -171.072 
L 301.376529 -171.072 
L 301.059174 -171.072 
L 300.741818 -171.072 
L 300.424463 -171.072 
L 300.107107 -171.072 
L 299.789752 -171.072 
L 299.472397 -171.072 
L 299.155041 -171.072 
L 298.837686 -171.072 
L 298.520331 -171.072 
L 298.202975 -171.072 
L 297.88562 -171.072 
L 297.568264 -171.072 
L 297.250909 -171.072 
L 296.933554 -171.072 
L 296.616198 -171.072 
L 296.298843 -171.072 
L 295.981488 -171.072 
L 295.664132 -171.072 
L 295.346777 -171.072 
L 295.029421 -171.072 
L 294.712066 -171.072 
L 294.394711 -171.072 
L 294.077355 -171.072 
L 293.76 -171.072 
L 293.442645 -171.072 
L 293.125289 -171.072 
L 292.807934 -171.072 
L 292.490579 -171.072 
L 292.173223 -171.072 
L 291.855868 -171.072 
L 291.538512 -171.072 
L 291.221157 -171.072 
L 290.903802 -171.072 
L 290.586446 -171.072 
L 290.269091 -171.072 
L 289.951736 -171.072 
L 289.63438 -171.072 
L 289.317025 -171.072 
L 288.999669 -171.072 
L 288.682314 -171.072 
L 288.364959 -171.072 
L 288.047603 -171.072 
L 287.730248 -171.072 
L 287.412893 -171.072 
L 287.095537 -171.072 
L 286.778182 -171.072 
L 286.460826 -171.072 
L 286.143471 -171.072 
L 285.826116 -171.072 
L 285.50876 -171.072 
L 285.191405 -171.072 
L 284.87405 -171.072 
L 284.556694 -171.072 
L 284.239339 -171.072 
L 283.921983 -171.072 
L 283.604628 -171.072 
L 283.287273 -171.072 
L 282.969917 -171.072 
L 282.652562 -171.072 
L 282.335207 -171.072 
L 282.017851 -171.072 
L 281.700496 -171.072 
L 281.38314 -171.072 
L 281.065785 -171.072 
L 280.74843 -171.072 
L 280.431074 -171.072 
L 280.113719 -171.072 
L 279.796364 -171.072 
L 279.479008 -171.072 
L 279.161653 -171.072 
L 278.844298 -171.072 
L 278.526942 -171.072 
L 278.209587 -171.072 
L 277.892231 -171.072 
L 277.574876 -171.072 
L 277.257521 -171.072 
L 276.940165 -171.072 
L 276.62281 -171.072 
L 276.305455 -171.072 
L 275.988099 -171.072 
L 275.670744 -171.072 
L 275.353388 -171.072 
L 275.036033 -171.072 
L 274.718678 -171.072 
L 274.401322 -171.072 
L 274.083967 -171.072 
L 273.766612 -171.072 
L 273.449256 -171.072 
L 273.131901 -171.072 
L 272.814545 -171.072 
L 272.49719 -171.072 
L 272.179835 -171.072 
L 271.862479 -171.072 
L 271.545124 -171.072 
L 271.227769 -171.072 
L 270.910413 -171.072 
L 270.593058 -171.072 
L 270.275702 -171.072 
L 269.958347 -171.072 
L 269.640992 -171.072 
L 269.323636 -171.072 
L 269.006281 -171.072 
L 268.688926 -171.072 
L 268.37157 -171.072 
L 268.054215 -171.072 
L 267.73686 -171.072 
L 267.419504 -171.072 
L 267.102149 -171.072 
L 266.784793 -171.072 
L 266.467438 -171.072 
L 266.150083 -171.072 
L 265.832727 -171.072 
L 265.515372 -171.072 
L 265.198017 -171.072 
L 264.880661 -171.072 
L 264.563306 -171.072 
L 264.24595 -171.072 
L 263.928595 -171.072 
L 263.61124 -171.072 
L 263.293884 -171.072 
L 262.976529 -171.072 
L 262.659174 -171.072 
L 262.341818 -171.072 
L 262.024463 -171.072 
L 261.707107 -171.072 
L 261.389752 -171.072 
L 261.072397 -171.072 
L 260.755041 -171.072 
L 260.437686 -171.072 
L 260.120331 -171.072 
L 259.802975 -171.072 
L 259.48562 -171.072 
L 259.168264 -171.072 
L 258.850909 -171.072 
L 258.533554 -171.072 
L 258.216198 -171.072 
L 257.898843 -171.072 
L 257.581488 -171.072 
L 257.264132 -171.072 
L 256.946777 -171.072 
L 256.629421 -171.072 
L 256.312066 -171.072 
L 255.994711 -171.072 
L 255.677355 -171.072 
L 255.36 -171.072 
L 255.042645 -171.072 
L 254.725289 -171.072 
L 254.407934 -171.072 
L 254.090579 -171.072 
L 253.773223 -171.072 
L 253.455868 -171.072 
L 253.138512 -171.072 
L 252.821157 -171.072 
L 252.503802 -171.072 
L 252.186446 -171.072 
L 251.869091 -171.072 
L 251.551736 -171.072 
L 251.23438 -171.072 
L 250.917025 -171.072 
L 250.599669 -171.072 
L 250.282314 -171.072 
L 249.964959 -171.072 
L 249.647603 -171.072 
L 249.330248 -171.072 
L 249.012893 -171.072 
L 248.695537 -171.072 
L 248.378182 -171.072 
L 248.060826 -171.072 
L 247.743471 -171.072 
L 247.426116 -171.072 
L 247.10876 -171.072 
L 246.791405 -171.072 
L 246.47405 -171.072 
L 246.156694 -171.072 
L 245.839339 -171.072 
L 245.521983 -171.072 
L 245.204628 -171.072 
L 244.887273 -171.072 
L 244.569917 -171.072 
L 244.252562 -171.072 
L 243.935207 -171.072 
L 243.617851 -171.072 
L 243.300496 -171.072 
L 242.98314 -171.072 
L 242.665785 -171.072 
L 242.34843 -171.072 
L 242.031074 -171.072 
L 241.713719 -171.072 
L 241.396364 -171.072 
L 241.079008 -171.072 
L 240.761653 -171.072 
L 240.444298 -171.072 
L 240.126942 -171.072 
L 239.809587 -171.072 
L 239.492231 -171.072 
L 239.174876 -171.072 
L 238.857521 -171.072 
L 238.540165 -171.072 
L 238.22281 -171.072 
L 237.905455 -171.072 
L 237.588099 -171.072 
L 237.270744 -171.072 
L 236.953388 -171.072 
L 236.636033 -171.072 
L 236.318678 -171.072 
L 236.001322 -171.072 
L 235.683967 -171.072 
L 235.366612 -171.072 
L 235.049256 -171.072 
L 234.731901 -171.072 
L 234.414545 -171.072 
L 234.09719 -171.072 
L 233.779835 -171.072 
L 233.462479 -171.072 
L 233.145124 -171.072 
L 232.827769 -171.072 
L 232.510413 -171.072 
L 232.193058 -171.072 
L 231.875702 -171.072 
L 231.558347 -171.072 
L 231.240992 -171.072 
L 230.923636 -171.072 
L 230.606281 -171.072 
L 230.288926 -171.072 
L 229.97157 -171.072 
L 229.654215 -171.072 
L 229.33686 -171.072 
L 229.019504 -171.072 
L 228.702149 -171.072 
L 228.384793 -171.072 
L 228.067438 -171.072 
L 227.750083 -171.072 
L 227.432727 -171.072 
L 227.115372 -171.072 
L 226.798017 -171.072 
L 226.480661 -171.072 
L 226.163306 -171.072 
L 225.84595 -171.072 
L 225.528595 -171.072 
L 225.21124 -171.072 
L 224.893884 -171.072 
L 224.576529 -171.072 
L 224.259174 -171.072 
L 223.941818 -171.072 
L 223.624463 -171.072 
L 223.307107 -171.072 
L 222.989752 -171.072 
L 222.672397 -171.072 
L 222.355041 -171.072 
L 222.037686 -171.072 
L 221.720331 -171.072 
L 221.402975 -171.072 
L 221.08562 -171.072 
L 220.768264 -171.072 
L 220.450909 -171.072 
L 220.133554 -171.072 
L 219.816198 -171.072 
L 219.498843 -171.072 
L 219.181488 -171.072 
L 218.864132 -171.072 
L 218.546777 -171.072 
L 218.229421 -171.072 
L 217.912066 -171.072 
L 217.594711 -171.072 
L 217.277355 -171.072 
L 216.96 -171.072 
L 216.642645 -171.072 
L 216.325289 -171.072 
L 216.007934 -171.072 
L 215.690579 -171.072 
L 215.373223 -171.072 
L 215.055868 -171.072 
L 214.738512 -171.072 
L 214.421157 -171.072 
L 214.103802 -171.072 
L 213.786446 -171.072 
L 213.469091 -171.072 
L 213.151736 -171.072 
L 212.83438 -171.072 
L 212.517025 -171.072 
L 212.199669 -171.072 
L 211.882314 -171.072 
L 211.564959 -171.072 
L 211.247603 -171.072 
L 210.930248 -171.072 
L 210.612893 -171.072 
L 210.295537 -171.072 
L 209.978182 -171.072 
L 209.660826 -171.072 
L 209.343471 -171.072 
L 209.026116 -171.072 
L 208.70876 -171.072 
L 208.391405 -171.072 
L 208.07405 -171.072 
L 207.756694 -171.072 
L 207.439339 -171.072 
L 207.121983 -171.072 
L 206.804628 -171.072 
L 206.487273 -171.072 
L 206.169917 -171.072 
L 205.852562 -171.072 
L 205.535207 -171.072 
L 205.217851 -171.072 
L 204.900496 -171.072 
L 204.58314 -171.072 
L 204.265785 -171.072 
L 203.94843 -171.072 
L 203.631074 -171.072 
L 203.313719 -171.072 
L 202.996364 -171.072 
L 202.679008 -171.072 
L 202.361653 -171.072 
L 202.044298 -171.072 
L 201.726942 -171.072 
L 201.409587 -171.072 
L 201.092231 -171.072 
L 200.774876 -171.072 
L 200.457521 -171.072 
L 200.140165 -171.072 
L 199.82281 -171.072 
L 199.505455 -171.072 
L 199.188099 -171.072 
L 198.870744 -171.072 
L 198.553388 -171.072 
L 198.236033 -171.072 
L 197.918678 -171.072 
L 197.601322 -171.072 
L 197.283967 -171.072 
L 196.966612 -171.072 
L 196.649256 -171.072 
L 196.331901 -171.072 
L 196.014545 -171.072 
L 195.69719 -171.072 
L 195.379835 -171.072 
L 195.062479 -171.072 
L 194.745124 -171.072 
L 194.427769 -171.072 
L 194.110413 -171.072 
L 193.793058 -171.072 
L 193.475702 -171.072 
L 193.158347 -171.072 
L 192.840992 -171.072 
L 192.523636 -171.072 
L 192.206281 -171.072 
L 191.888926 -171.072 
L 191.57157 -171.072 
L 191.254215 -171.072 
L 190.93686 -171.072 
L 190.619504 -171.072 
L 190.302149 -171.072 
L 189.984793 -171.072 
L 189.667438 -171.072 
L 189.350083 -171.072 
L 189.032727 -171.072 
L 188.715372 -171.072 
L 188.398017 -171.072 
L 188.080661 -171.072 
L 187.763306 -171.072 
L 187.44595 -171.072 
L 187.128595 -171.072 
L 186.81124 -171.072 
L 186.493884 -171.072 
L 186.176529 -171.072 
L 185.859174 -171.072 
L 185.541818 -171.072 
L 185.224463 -171.072 
L 184.907107 -171.072 
L 184.589752 -171.072 
L 184.272397 -171.072 
L 183.955041 -171.072 
L 183.637686 -171.072 
L 183.320331 -171.072 
L 183.002975 -171.072 
L 182.68562 -171.072 
L 182.368264 -171.072 
L 182.050909 -171.072 
L 181.733554 -171.072 
L 181.416198 -171.072 
L 181.098843 -171.072 
L 180.781488 -171.072 
L 180.464132 -171.072 
L 180.146777 -171.072 
L 179.829421 -171.072 
L 179.512066 -171.072 
L 179.194711 -171.072 
L 178.877355 -171.072 
L 178.56 -171.072 
L 178.242645 -171.072 
L 177.925289 -171.072 
L 177.607934 -171.072 
L 177.290579 -171.072 
L 176.973223 -171.072 
L 176.655868 -171.072 
L 176.338512 -171.072 
L 176.021157 -171.072 
L 175.703802 -171.072 
L 175.386446 -171.072 
L 175.069091 -171.072 
L 174.751736 -171.072 
L 174.43438 -171.072 
L 174.117025 -171.072 
L 173.799669 -171.072 
L 173.482314 -171.072 
L 173.164959 -171.072 
L 172.847603 -171.072 
L 172.530248 -171.072 
L 172.212893 -171.072 
L 171.895537 -171.072 
L 171.578182 -171.072 
L 171.260826 -171.072 
L 170.943471 -171.072 
L 170.626116 -171.072 
L 170.30876 -171.072 
L 169.991405 -171.072 
L 169.67405 -171.072 
L 169.356694 -171.072 
L 169.039339 -171.072 
L 168.721983 -171.072 
L 168.404628 -171.072 
L 168.087273 -171.072 
L 167.769917 -171.072 
L 167.452562 -171.072 
L 167.135207 -171.072 
L 166.817851 -171.072 
L 166.500496 -171.072 
L 166.18314 -171.072 
L 165.865785 -171.072 
L 165.54843 -171.072 
L 165.231074 -171.072 
L 164.913719 -171.072 
L 164.596364 -171.072 
L 164.279008 -171.072 
L 163.961653 -171.072 
L 163.644298 -171.072 
L 163.326942 -171.072 
L 163.009587 -171.072 
L 162.692231 -171.072 
L 162.374876 -171.072 
L 162.057521 -171.072 
L 161.740165 -171.072 
L 161.42281 -171.072 
L 161.105455 -171.072 
L 160.788099 -171.072 
L 160.470744 -171.072 
L 160.153388 -171.072 
L 159.836033 -171.072 
L 159.518678 -171.072 
L 159.201322 -171.072 
L 158.883967 -171.072 
L 158.566612 -171.072 
L 158.249256 -171.072 
L 157.931901 -171.072 
L 157.614545 -171.072 
L 157.29719 -171.072 
L 156.979835 -171.072 
L 156.662479 -171.072 
L 156.345124 -171.072 
L 156.027769 -171.072 
L 155.710413 -171.072 
L 155.393058 -171.072 
L 155.075702 -171.072 
L 154.758347 -171.072 
L 154.440992 -171.072 
L 154.123636 -171.072 
L 153.806281 -171.072 
L 153.488926 -171.072 
L 153.17157 -171.072 
L 152.854215 -171.072 
L 152.53686 -171.072 
L 152.219504 -171.072 
L 151.902149 -171.072 
L 151.584793 -171.072 
L 151.267438 -171.072 
L 150.950083 -171.072 
L 150.632727 -171.072 
L 150.315372 -171.072 
L 149.998017 -171.072 
L 149.680661 -171.072 
L 149.363306 -171.072 
L 149.04595 -171.072 
L 148.728595 -171.072 
L 148.41124 -171.072 
L 148.093884 -171.072 
L 147.776529 -171.072 
L 147.459174 -171.072 
L 147.141818 -171.072 
L 146.824463 -171.072 
L 146.507107 -171.072 
L 146.189752 -171.072 
L 145.872397 -171.072 
L 145.555041 -171.072 
L 145.237686 -171.072 
L 144.920331 -171.072 
L 144.602975 -171.072 
L 144.28562 -171.072 
L 143.968264 -171.072 
L 143.650909 -171.072 
L 143.333554 -171.072 
L 143.016198 -171.072 
L 142.698843 -171.072 
L 142.381488 -171.072 
L 142.064132 -171.072 
L 141.746777 -171.072 
L 141.429421 -171.072 
L 141.112066 -171.072 
L 140.794711 -171.072 
L 140.477355 -171.072 
L 140.16 -171.072 
L 139.842645 -171.072 
L 139.525289 -171.072 
L 139.207934 -171.072 
L 138.890579 -171.072 
L 138.573223 -171.072 
L 138.255868 -171.072 
L 137.938512 -171.072 
L 137.621157 -171.072 
L 137.303802 -171.072 
L 136.986446 -171.072 
L 136.669091 -171.072 
L 136.351736 -171.072 
L 136.03438 -171.072 
L 135.717025 -171.072 
L 135.399669 -171.072 
L 135.082314 -171.072 
L 134.764959 -171.072 
L 134.447603 -171.072 
L 134.130248 -171.072 
L 133.812893 -171.072 
L 133.495537 -171.072 
L 133.178182 -171.072 
L 132.860826 -171.072 
L 132.543471 -171.072 
L 132.226116 -171.072 
L 131.90876 -171.072 
L 131.591405 -171.072 
L 131.27405 -171.072 
L 130.956694 -171.072 
L 130.639339 -171.072 
L 130.321983 -171.072 
L 130.004628 -171.072 
L 129.687273 -171.072 
L 129.369917 -171.072 
L 129.052562 -171.072 
L 128.735207 -171.072 
L 128.417851 -171.072 
L 128.100496 -171.072 
L 127.78314 -171.072 
L 127.465785 -171.072 
L 127.14843 -171.072 
L 126.831074 -171.072 
L 126.513719 -171.072 
L 126.196364 -171.072 
L 125.879008 -171.072 
L 125.561653 -171.072 
L 125.244298 -171.072 
L 124.926942 -171.072 
L 124.609587 -171.072 
L 124.292231 -171.072 
L 123.974876 -171.072 
L 123.657521 -171.072 
L 123.340165 -171.072 
L 123.02281 -171.072 
L 122.705455 -171.072 
L 122.388099 -171.072 
L 122.070744 -171.072 
L 121.753388 -171.072 
L 121.436033 -171.072 
L 121.118678 -171.072 
L 120.801322 -171.072 
L 120.483967 -171.072 
L 120.166612 -171.072 
L 119.849256 -171.072 
L 119.531901 -171.072 
L 119.214545 -171.072 
L 118.89719 -171.072 
L 118.579835 -171.072 
L 118.262479 -171.072 
L 117.945124 -171.072 
L 117.627769 -171.072 
L 117.310413 -171.072 
L 116.993058 -171.072 
L 116.675702 -171.072 
L 116.358347 -171.072 
L 116.040992 -171.072 
L 115.723636 -171.072 
L 115.406281 -171.072 
L 115.088926 -171.072 
L 114.77157 -171.072 
L 114.454215 -171.072 
L 114.13686 -171.072 
L 113.819504 -171.072 
L 113.502149 -171.072 
L 113.184793 -171.072 
L 112.867438 -171.072 
L 112.550083 -171.072 
L 112.232727 -171.072 
L 111.915372 -171.072 
L 111.598017 -171.072 
L 111.280661 -171.072 
L 110.963306 -171.072 
L 110.64595 -171.072 
L 110.328595 -171.072 
L 110.01124 -171.072 
L 109.693884 -171.072 
L 109.376529 -171.072 
L 109.059174 -171.072 
L 108.741818 -171.072 
L 108.424463 -171.072 
L 108.107107 -171.072 
L 107.789752 -171.072 
L 107.472397 -171.072 
L 107.155041 -171.072 
L 106.837686 -171.072 
L 106.520331 -171.072 
L 106.202975 -171.072 
L 105.88562 -171.072 
L 105.568264 -171.072 
L 105.250909 -171.072 
L 104.933554 -171.072 
L 104.616198 -171.072 
L 104.298843 -171.072 
L 103.981488 -171.072 
L 103.664132 -171.072 
L 103.346777 -171.072 
L 103.029421 -171.072 
L 102.712066 -171.072 
L 102.394711 -171.072 
L 102.077355 -171.072 
L 101.76 -171.072 
L 101.442645 -171.072 
L 101.125289 -171.072 
L 100.807934 -171.072 
L 100.490579 -171.072 
L 100.173223 -171.072 
L 99.855868 -171.072 
L 99.538512 -171.072 
L 99.221157 -171.072 
L 98.903802 -171.072 
L 98.586446 -171.072 
L 98.269091 -171.072 
L 97.951736 -171.072 
L 97.63438 -171.072 
L 97.317025 -171.072 
L 96.999669 -171.072 
L 96.682314 -171.072 
L 96.364959 -171.072 
L 96.047603 -171.072 
L 95.730248 -171.072 
L 95.412893 -171.072 
L 95.095537 -171.072 
L 94.778182 -171.072 
L 94.460826 -171.072 
L 94.143471 -171.072 
L 93.826116 -171.072 
L 93.50876 -171.072 
L 93.191405 -171.072 
L 92.87405 -171.072 
L 92.556694 -171.072 
L 92.239339 -171.072 
L 91.921983 -171.072 
L 91.604628 -171.072 
L 91.287273 -171.072 
L 90.969917 -171.072 
L 90.652562 -171.072 
L 90.335207 -171.072 
L 90.017851 -171.072 
L 89.700496 -171.072 
L 89.38314 -171.072 
L 89.065785 -171.072 
L 88.74843 -171.072 
L 88.431074 -171.072 
L 88.113719 -171.072 
L 87.796364 -171.072 
L 87.479008 -171.072 
L 87.161653 -171.072 
L 86.844298 -171.072 
L 86.526942 -171.072 
L 86.209587 -171.072 
L 85.892231 -171.072 
L 85.574876 -171.072 
L 85.257521 -171.072 
L 84.940165 -171.072 
L 84.62281 -171.072 
L 84.305455 -171.072 
L 83.988099 -171.072 
L 83.670744 -171.072 
L 83.353388 -171.072 
L 83.036033 -171.072 
L 82.718678 -171.072 
L 82.401322 -171.072 
L 82.083967 -171.072 
L 81.766612 -171.072 
L 81.449256 -171.072 
L 81.131901 -171.072 
L 80.814545 -171.072 
L 80.49719 -171.072 
L 80.179835 -171.072 
L 79.862479 -171.072 
L 79.545124 -171.072 
L 79.227769 -171.072 
L 78.910413 -171.072 
L 78.593058 -171.072 
L 78.275702 -171.072 
L 77.958347 -171.072 
L 77.640992 -171.072 
L 77.323636 -171.072 
L 77.006281 -171.072 
L 76.688926 -171.072 
L 76.37157 -171.072 
L 76.054215 -171.072 
L 75.73686 -171.072 
L 75.419504 -171.072 
L 75.102149 -171.072 
L 74.784793 -171.072 
L 74.467438 -171.072 
L 74.150083 -171.072 
L 73.832727 -171.072 
z
" style="stroke: #87ceeb; stroke-opacity: 0.75"/>
    </defs>
    <g clip-path="url(#p0facf899f2)">
     <use xlink:href="#mdedecb1766" x="0" y="345.6" style="fill: #87ceeb; fill-opacity: 0.75; stroke: #87ceeb; stroke-opacity: 0.75"/>
    </g>
   </g>
   <g id="matplotlib.axis_1">
    <g id="xtick_1">
     <g id="line2d_1">
      <defs>
       <path id="mf51e249c07" d="M 0 0 
L 0 3.5 
" style="stroke: #000000; stroke-width: 0.8"/>
      </defs>
      <g>
       <use xlink:href="#mf51e249c07" x="73.832727" y="307.584" style="stroke: #000000; stroke-width: 0.8"/>
      </g>
     </g>
     <g id="text_1">
      <!-- 0 -->
      <g transform="translate(70.531868 322.161969) scale(0.11 -0.11)">
       <defs>
        <path id="AndaleMono-30" d="M 1913 4494 
Q 2613 4494 2989 3892 
Q 3366 3291 3366 2203 
Q 3366 1150 3000 533 
Q 2634 -84 1913 -84 
Q 1216 -84 837 516 
Q 459 1116 459 2203 
Q 459 3259 826 3876 
Q 1194 4494 1913 4494 
z
M 1913 366 
Q 2375 366 2598 805 
Q 2822 1244 2822 2203 
Q 2822 3166 2598 3602 
Q 2375 4038 1913 4038 
Q 1456 4038 1231 3591 
Q 1006 3144 1006 2203 
Q 1006 1250 1229 808 
Q 1453 366 1913 366 
z
M 1900 2672 
Q 2097 2672 2233 2536 
Q 2369 2400 2369 2203 
Q 2369 2000 2231 1854 
Q 2094 1709 1900 1709 
Q 1709 1709 1573 1854 
Q 1438 2000 1438 2203 
Q 1438 2403 1570 2537 
Q 1703 2672 1900 2672 
z
" transform="scale(0.015625)"/>
       </defs>
       <use xlink:href="#AndaleMono-30"/>
      </g>
     </g>
    </g>
    <g id="xtick_2">
     <g id="line2d_2">
      <g>
       <use xlink:href="#mf51e249c07" x="137.303802" y="307.584" style="stroke: #000000; stroke-width: 0.8"/>
      </g>
     </g>
     <g id="text_2">
      <!-- 200 -->
      <g transform="translate(127.401224 322.161969) scale(0.11 -0.11)">
       <defs>
        <path id="AndaleMono-32" d="M 3066 0 
L 641 0 
L 641 372 
Q 1563 1400 1838 1750 
Q 2113 2100 2284 2484 
Q 2456 2869 2456 3250 
Q 2456 3619 2232 3831 
Q 2009 4044 1606 4044 
Q 1297 4044 775 3853 
L 703 4294 
Q 1175 4494 1691 4494 
Q 2281 4494 2642 4161 
Q 3003 3828 3003 3272 
Q 3003 2875 2817 2484 
Q 2631 2094 2340 1734 
Q 2050 1375 1209 447 
L 3066 447 
L 3066 0 
z
" transform="scale(0.015625)"/>
       </defs>
       <use xlink:href="#AndaleMono-32"/>
       <use xlink:href="#AndaleMono-30" x="60.009766"/>
       <use xlink:href="#AndaleMono-30" x="120.019531"/>
      </g>
     </g>
    </g>
    <g id="xtick_3">
     <g id="line2d_3">
      <g>
       <use xlink:href="#mf51e249c07" x="200.774876" y="307.584" style="stroke: #000000; stroke-width: 0.8"/>
      </g>
     </g>
     <g id="text_3">
      <!-- 400 -->
      <g transform="translate(190.872298 322.161969) scale(0.11 -0.11)">
       <defs>
        <path id="AndaleMono-34" d="M 3353 1019 
L 2809 1019 
L 2809 0 
L 2297 0 
L 2297 1019 
L 378 1019 
L 378 1409 
L 2119 4409 
L 2809 4409 
L 2809 1466 
L 3353 1466 
L 3353 1019 
z
M 2297 1466 
L 2297 3903 
L 897 1466 
L 2297 1466 
z
" transform="scale(0.015625)"/>
       </defs>
       <use xlink:href="#AndaleMono-34"/>
       <use xlink:href="#AndaleMono-30" x="60.009766"/>
       <use xlink:href="#AndaleMono-30" x="120.019531"/>
      </g>
     </g>
    </g>
    <g id="xtick_4">
     <g id="line2d_4">
      <g>
       <use xlink:href="#mf51e249c07" x="264.24595" y="307.584" style="stroke: #000000; stroke-width: 0.8"/>
      </g>
     </g>
     <g id="text_4">
      <!-- 600 -->
      <g transform="translate(254.343372 322.161969) scale(0.11 -0.11)">
       <defs>
        <path id="AndaleMono-36" d="M 1131 2297 
Q 1544 2631 2028 2631 
Q 2588 2631 2961 2273 
Q 3334 1916 3334 1350 
Q 3334 728 3003 322 
Q 2672 -84 2119 -84 
Q 1413 -84 1000 564 
Q 588 1213 588 2150 
Q 588 3150 1017 3822 
Q 1447 4494 2194 4494 
Q 2709 4494 3084 4341 
L 3003 3884 
Q 2569 4044 2209 4044 
Q 1700 4044 1415 3556 
Q 1131 3069 1131 2297 
z
M 1147 1856 
Q 1147 1291 1412 828 
Q 1678 366 2081 366 
Q 2422 366 2606 616 
Q 2791 866 2791 1306 
Q 2791 1713 2587 1947 
Q 2384 2181 2016 2181 
Q 1538 2181 1147 1856 
z
" transform="scale(0.015625)"/>
       </defs>
       <use xlink:href="#AndaleMono-36"/>
       <use xlink:href="#AndaleMono-30" x="60.009766"/>
       <use xlink:href="#AndaleMono-30" x="120.019531"/>
      </g>
     </g>
    </g>
    <g id="xtick_5">
     <g id="line2d_5">
      <g>
       <use xlink:href="#mf51e249c07" x="327.717025" y="307.584" style="stroke: #000000; stroke-width: 0.8"/>
      </g>
     </g>
     <g id="text_5">
      <!-- 800 -->
      <g transform="translate(317.814447 322.161969) scale(0.11 -0.11)">
       <defs>
        <path id="AndaleMono-38" d="M 2363 2419 
Q 2813 2288 3061 1972 
Q 3309 1656 3309 1234 
Q 3309 628 2907 272 
Q 2506 -84 1919 -84 
Q 1303 -84 908 275 
Q 513 634 513 1228 
Q 513 1647 769 1965 
Q 1025 2284 1484 2419 
Q 1119 2513 898 2780 
Q 678 3047 678 3378 
Q 678 3803 1015 4148 
Q 1353 4494 1906 4494 
Q 2453 4494 2811 4150 
Q 3169 3806 3169 3378 
Q 3169 3056 2944 2786 
Q 2719 2516 2363 2419 
z
M 1906 2631 
Q 1922 2631 2056 2668 
Q 2191 2706 2286 2761 
Q 2381 2816 2462 2900 
Q 2544 2984 2594 3098 
Q 2644 3213 2644 3353 
Q 2644 3653 2428 3851 
Q 2213 4050 1906 4050 
Q 1609 4050 1396 3847 
Q 1184 3644 1184 3353 
Q 1184 3169 1261 3031 
Q 1338 2894 1452 2809 
Q 1566 2725 1714 2678 
Q 1863 2631 1906 2631 
z
M 1906 2194 
Q 1050 1944 1050 1253 
Q 1050 850 1309 608 
Q 1569 366 1919 366 
Q 2281 366 2529 605 
Q 2778 844 2778 1253 
Q 2778 1563 2606 1808 
Q 2434 2053 1906 2194 
z
" transform="scale(0.015625)"/>
       </defs>
       <use xlink:href="#AndaleMono-38"/>
       <use xlink:href="#AndaleMono-30" x="60.009766"/>
       <use xlink:href="#AndaleMono-30" x="120.019531"/>
      </g>
     </g>
    </g>
    <g id="xtick_6">
     <g id="line2d_6">
      <g>
       <use xlink:href="#mf51e249c07" x="391.188099" y="307.584" style="stroke: #000000; stroke-width: 0.8"/>
      </g>
     </g>
     <g id="text_6">
      <!-- 1000 -->
      <g transform="translate(377.984662 322.161969) scale(0.11 -0.11)">
       <defs>
        <path id="AndaleMono-31" d="M 3181 0 
L 863 0 
L 863 447 
L 1797 447 
L 1797 3872 
L 916 3431 
L 916 3944 
L 1869 4434 
L 2309 4434 
L 2309 447 
L 3181 447 
L 3181 0 
z
" transform="scale(0.015625)"/>
       </defs>
       <use xlink:href="#AndaleMono-31"/>
       <use xlink:href="#AndaleMono-30" x="60.009766"/>
       <use xlink:href="#AndaleMono-30" x="120.019531"/>
       <use xlink:href="#AndaleMono-30" x="180.029297"/>
      </g>
     </g>
    </g>
   </g>
   <g id="matplotlib.axis_2">
    <g id="ytick_1">
     <g id="line2d_7">
      <defs>
       <path id="mc33f2b1eaf" d="M 0 0 
L -3.5 0 
" style="stroke: #000000; stroke-width: 0.8"/>
      </defs>
      <g>
       <use xlink:href="#mc33f2b1eaf" x="57.6" y="295.488" style="stroke: #000000; stroke-width: 0.8"/>
      </g>
     </g>
     <g id="text_7">
      <!-- 1.00 -->
      <g transform="translate(17.591406 299.276984) scale(0.11 -0.11)">
       <defs>
        <path id="AndaleMono-2212" d="M 3397 2047 
L 441 2047 
L 441 2456 
L 3397 2456 
L 3397 2047 
z
" transform="scale(0.015625)"/>
        <path id="AndaleMono-2e" d="M 1900 716 
Q 2066 716 2178 603 
Q 2291 491 2291 325 
Q 2291 156 2177 36 
Q 2063 -84 1900 -84 
Q 1741 -84 1628 36 
Q 1516 156 1516 325 
Q 1516 494 1627 605 
Q 1738 716 1900 716 
z
" transform="scale(0.015625)"/>
       </defs>
       <use xlink:href="#AndaleMono-2212"/>
       <use xlink:href="#AndaleMono-31" x="60.009766"/>
       <use xlink:href="#AndaleMono-2e" x="120.019531"/>
       <use xlink:href="#AndaleMono-30" x="180.029297"/>
       <use xlink:href="#AndaleMono-30" x="240.039062"/>
      </g>
     </g>
    </g>
    <g id="ytick_2">
     <g id="line2d_8">
      <g>
       <use xlink:href="#mc33f2b1eaf" x="57.6" y="265.248" style="stroke: #000000; stroke-width: 0.8"/>
      </g>
     </g>
     <g id="text_8">
      <!-- 0.75 -->
      <g transform="translate(17.591406 269.036984) scale(0.11 -0.11)">
       <defs>
        <path id="AndaleMono-37" d="M 3238 4044 
L 1491 0 
L 966 0 
L 2688 3963 
L 622 3963 
L 622 4409 
L 3238 4409 
L 3238 4044 
z
" transform="scale(0.015625)"/>
        <path id="AndaleMono-35" d="M 1356 2631 
Q 1569 2688 1772 2688 
Q 2397 2688 2759 2305 
Q 3122 1922 3122 1350 
Q 3122 750 2700 333 
Q 2278 -84 1672 -84 
Q 1094 -84 703 109 
L 806 544 
Q 1231 366 1684 366 
Q 2088 366 2336 625 
Q 2584 884 2584 1350 
Q 2584 1791 2350 2028 
Q 2116 2266 1747 2266 
Q 1478 2266 1216 2163 
L 909 2303 
L 909 4409 
L 2925 4409 
L 2925 3963 
L 1356 3963 
L 1356 2631 
z
" transform="scale(0.015625)"/>
       </defs>
       <use xlink:href="#AndaleMono-2212"/>
       <use xlink:href="#AndaleMono-30" x="60.009766"/>
       <use xlink:href="#AndaleMono-2e" x="120.019531"/>
       <use xlink:href="#AndaleMono-37" x="180.029297"/>
       <use xlink:href="#AndaleMono-35" x="240.039062"/>
      </g>
     </g>
    </g>
    <g id="ytick_3">
     <g id="line2d_9">
      <g>
       <use xlink:href="#mc33f2b1eaf" x="57.6" y="235.008" style="stroke: #000000; stroke-width: 0.8"/>
      </g>
     </g>
     <g id="text_9">
      <!-- 0.50 -->
      <g transform="translate(17.591406 238.796984) scale(0.11 -0.11)">
       <use xlink:href="#AndaleMono-2212"/>
       <use xlink:href="#AndaleMono-30" x="60.009766"/>
       <use xlink:href="#AndaleMono-2e" x="120.019531"/>
       <use xlink:href="#AndaleMono-35" x="180.029297"/>
       <use xlink:href="#AndaleMono-30" x="240.039062"/>
      </g>
     </g>
    </g>
    <g id="ytick_4">
     <g id="line2d_10">
      <g>
       <use xlink:href="#mc33f2b1eaf" x="57.6" y="204.768" style="stroke: #000000; stroke-width: 0.8"/>
      </g>
     </g>
     <g id="text_10">
      <!-- 0.25 -->
      <g transform="translate(17.591406 208.556984) scale(0.11 -0.11)">
       <use xlink:href="#AndaleMono-2212"/>
       <use xlink:href="#AndaleMono-30" x="60.009766"/>
       <use xlink:href="#AndaleMono-2e" x="120.019531"/>
       <use xlink:href="#AndaleMono-32" x="180.029297"/>
       <use xlink:href="#AndaleMono-35" x="240.039062"/>
      </g>
     </g>
    </g>
    <g id="ytick_5">
     <g id="line2d_11">
      <g>
       <use xlink:href="#mc33f2b1eaf" x="57.6" y="174.528" style="stroke: #000000; stroke-width: 0.8"/>
      </g>
     </g>
     <g id="text_11">
      <!-- 0.00 -->
      <g transform="translate(24.193125 178.316984) scale(0.11 -0.11)">
       <use xlink:href="#AndaleMono-30"/>
       <use xlink:href="#AndaleMono-2e" x="60.009766"/>
       <use xlink:href="#AndaleMono-30" x="120.019531"/>
       <use xlink:href="#AndaleMono-30" x="180.029297"/>
      </g>
     </g>
    </g>
    <g id="ytick_6">
     <g id="line2d_12">
      <g>
       <use xlink:href="#mc33f2b1eaf" x="57.6" y="144.288" style="stroke: #000000; stroke-width: 0.8"/>
      </g>
     </g>
     <g id="text_12">
      <!-- 0.25 -->
      <g transform="translate(24.193125 148.076984) scale(0.11 -0.11)">
       <use xlink:href="#AndaleMono-30"/>
       <use xlink:href="#AndaleMono-2e" x="60.009766"/>
       <use xlink:href="#AndaleMono-32" x="120.019531"/>
       <use xlink:href="#AndaleMono-35" x="180.029297"/>
      </g>
     </g>
    </g>
    <g id="ytick_7">
     <g id="line2d_13">
      <g>
       <use xlink:href="#mc33f2b1eaf" x="57.6" y="114.048" style="stroke: #000000; stroke-width: 0.8"/>
      </g>
     </g>
     <g id="text_13">
      <!-- 0.50 -->
      <g transform="translate(24.193125 117.836984) scale(0.11 -0.11)">
       <use xlink:href="#AndaleMono-30"/>
       <use xlink:href="#AndaleMono-2e" x="60.009766"/>
       <use xlink:href="#AndaleMono-35" x="120.019531"/>
       <use xlink:href="#AndaleMono-30" x="180.029297"/>
      </g>
     </g>
    </g>
    <g id="ytick_8">
     <g id="line2d_14">
      <g>
       <use xlink:href="#mc33f2b1eaf" x="57.6" y="83.808" style="stroke: #000000; stroke-width: 0.8"/>
      </g>
     </g>
     <g id="text_14">
      <!-- 0.75 -->
      <g transform="translate(24.193125 87.596984) scale(0.11 -0.11)">
       <use xlink:href="#AndaleMono-30"/>
       <use xlink:href="#AndaleMono-2e" x="60.009766"/>
       <use xlink:href="#AndaleMono-37" x="120.019531"/>
       <use xlink:href="#AndaleMono-35" x="180.029297"/>
      </g>
     </g>
    </g>
    <g id="ytick_9">
     <g id="line2d_15">
      <g>
       <use xlink:href="#mc33f2b1eaf" x="57.6" y="53.568" style="stroke: #000000; stroke-width: 0.8"/>
      </g>
     </g>
     <g id="text_15">
      <!-- 1.00 -->
      <g transform="translate(24.193125 57.356984) scale(0.11 -0.11)">
       <use xlink:href="#AndaleMono-31"/>
       <use xlink:href="#AndaleMono-2e" x="60.009766"/>
       <use xlink:href="#AndaleMono-30" x="120.019531"/>
       <use xlink:href="#AndaleMono-30" x="180.029297"/>
      </g>
     </g>
    </g>
   </g>
   <g id="line2d_16">
    <path d="M 73.832727 174.528 
L 74.150083 170.127493 
L 83.353388 166.789703 
L 83.988099 166.522346 
L 87.161653 166.548771 
L 94.143471 166.183757 
L 104.298843 165.132723 
L 108.107107 164.032552 
L 109.376529 163.330141 
L 112.550083 161.322686 
L 114.77157 159.235242 
L 116.040992 157.858787 
L 116.993058 156.526972 
L 118.262479 154.272576 
L 121.118678 148.637232 
L 123.02281 143.797471 
L 124.609587 139.459674 
L 125.879008 135.202102 
L 129.052562 122.897351 
L 130.639339 116.210446 
L 134.447603 99.314371 
L 137.303802 85.325555 
L 138.890579 79.551213 
L 141.112066 71.634212 
L 142.064132 69.136641 
L 143.016198 66.669776 
L 144.602975 61.566931 
L 145.555041 59.017688 
L 146.189752 57.850594 
L 147.141818 56.678583 
L 149.680661 54.393134 
L 149.998017 54.344027 
L 150.632727 54.545016 
L 151.267438 54.806016 
L 151.902149 54.808833 
L 152.53686 54.515079 
L 153.806281 53.636462 
L 154.440992 53.598403 
L 155.075702 53.941084 
L 155.710413 54.591156 
L 157.614545 57.099071 
L 158.249256 57.412122 
L 158.883967 57.598313 
L 159.518678 58.076852 
L 160.788099 59.492675 
L 161.105455 59.688534 
L 161.42281 59.753054 
L 161.740165 59.686641 
L 162.374876 59.247661 
L 163.009587 58.752407 
L 163.644298 58.573293 
L 164.279008 58.812045 
L 164.913719 59.361694 
L 166.500496 60.937678 
L 167.135207 61.269101 
L 168.404628 61.475736 
L 169.039339 62.00737 
L 169.991405 63.024834 
L 170.30876 63.181007 
L 170.626116 63.19912 
L 171.260826 62.909235 
L 172.212893 62.354664 
L 172.530248 62.311473 
L 173.164959 62.568345 
L 173.799669 63.167459 
L 175.703802 65.214315 
L 176.338512 65.570982 
L 176.973223 65.608845 
L 177.607934 65.600493 
L 177.925289 65.704141 
L 178.56 66.246201 
L 179.194711 66.890322 
L 179.512066 67.101128 
L 179.829421 67.175335 
L 180.464132 66.976939 
L 181.416198 66.425282 
L 182.050909 66.406198 
L 182.68562 66.780069 
L 183.955041 68.06848 
L 185.224463 69.290077 
L 186.176529 69.867376 
L 187.128595 70.269437 
L 187.763306 70.889225 
L 189.350083 72.976761 
L 190.93686 74.411315 
L 191.57157 75.467423 
L 192.206281 76.994696 
L 195.379835 85.757834 
L 196.649256 88.738562 
L 199.188099 95.80369 
L 200.457521 98.760241 
L 201.409587 101.736035 
L 204.900496 113.475265 
L 207.756694 122.378662 
L 209.026116 125.978836 
L 211.247603 132.083297 
L 212.517025 135.591179 
L 213.469091 137.689897 
L 217.277355 144.819705 
L 219.816198 149.287862 
L 224.259174 158.465446 
L 227.432727 164.056816 
L 229.019504 166.196857 
L 232.510413 170.508376 
L 241.079008 180.000621 
L 244.569917 184.53722 
L 245.839339 186.551385 
L 249.012893 192.378508 
L 250.917025 196.30036 
L 253.455868 201.602248 
L 256.312066 206.691867 
L 257.898843 209.621846 
L 259.168264 212.015542 
L 260.120331 214.272163 
L 264.24595 225.714177 
L 268.37157 238.571743 
L 272.49719 251.869043 
L 274.083967 255.527993 
L 276.62281 262.592003 
L 277.892231 265.64229 
L 279.796364 271.170258 
L 280.74843 273.588577 
L 281.38314 274.644685 
L 282.017851 275.306322 
L 283.287273 276.404224 
L 284.239339 277.725395 
L 284.87405 278.534502 
L 285.50876 278.945199 
L 286.778182 279.531955 
L 287.730248 280.338967 
L 289.951736 282.503756 
L 290.586446 282.691895 
L 291.221157 282.483441 
L 292.173223 281.928877 
L 292.490579 281.880665 
L 292.807934 281.954872 
L 293.442645 282.469642 
L 294.394711 283.351859 
L 295.029421 283.472416 
L 295.981488 283.485018 
L 296.616198 283.841685 
L 297.568264 284.793637 
L 299.155041 286.487655 
L 299.789752 286.744527 
L 300.424463 286.563575 
L 301.693884 285.85688 
L 302.01124 285.874993 
L 302.328595 286.031166 
L 302.963306 286.67787 
L 303.598017 287.369738 
L 304.232727 287.676756 
L 305.502149 287.912661 
L 306.13686 288.384754 
L 308.358347 290.412036 
L 308.993058 290.44599 
L 309.627769 290.076574 
L 310.579835 289.369359 
L 310.89719 289.302946 
L 311.214545 289.367466 
L 311.849256 289.866427 
L 313.118678 291.276871 
L 313.753388 291.56049 
L 314.388099 291.762858 
L 315.02281 292.253986 
L 315.974876 293.584753 
L 316.926942 294.823217 
L 317.561653 295.329625 
L 318.196364 295.488 
L 318.831074 295.251401 
L 320.100496 294.361014 
L 320.735207 294.208961 
L 321.369917 294.362697 
L 322.321983 294.711973 
L 322.639339 294.662866 
L 323.27405 294.17686 
L 324.543471 292.941978 
L 325.495537 292.038104 
L 326.130248 291.205406 
L 326.764959 290.038312 
L 327.399669 288.452584 
L 330.573223 279.156394 
L 331.525289 276.411965 
L 333.746777 268.37884 
L 335.016198 263.730445 
L 335.968264 259.46718 
L 339.776529 241.078836 
L 343.902149 223.708838 
L 347.075702 211.611429 
L 348.345124 207.783013 
L 350.883967 201.17959 
L 351.836033 199.074149 
L 355.009587 193.049049 
L 355.961653 191.608767 
L 357.231074 190.138145 
L 359.769917 187.733314 
L 360.721983 187.052216 
L 364.212893 185.023448 
L 365.482314 184.592787 
L 368.655868 183.805617 
L 373.098843 183.295362 
L 375.637686 183.135892 
L 378.493884 182.838124 
L 382.619504 182.569031 
L 388.966612 182.382088 
L 392.457521 181.065201 
L 398.169917 179.044298 
L 398.487273 174.528 
L 398.487273 174.528 
" clip-path="url(#p0facf899f2)" style="fill: none; stroke: #87ceeb; stroke-opacity: 0.75; stroke-linecap: square"/>
   </g>
   <g id="patch_3">
    <path d="M 57.6 307.584 
L 57.6 41.472 
" style="fill: none; stroke: #000000; stroke-width: 0.8; stroke-linejoin: miter; stroke-linecap: square"/>
   </g>
   <g id="patch_4">
    <path d="M 414.72 307.584 
L 414.72 41.472 
" style="fill: none; stroke: #000000; stroke-width: 0.8; stroke-linejoin: miter; stroke-linecap: square"/>
   </g>
   <g id="patch_5">
    <path d="M 57.6 307.584 
L 414.72 307.584 
" style="fill: none; stroke: #000000; stroke-width: 0.8; stroke-linejoin: miter; stroke-linecap: square"/>
   </g>
   <g id="patch_6">
    <path d="M 57.6 41.472 
L 414.72 41.472 
" style="fill: none; stroke: #000000; stroke-width: 0.8; stroke-linejoin: miter; stroke-linecap: square"/>
   </g>
  </g>
 </g>
 <defs>
  <clipPath id="p0facf899f2">
   <rect x="57.6" y="41.472" width="357.12" height="266.112"/>
  </clipPath>
 </defs>
</svg>
