<?xml version="1.0" encoding="utf-8" standalone="no"?>
<!DOCTYPE svg PUBLIC "-//W3C//DTD SVG 1.1//EN"
  "http://www.w3.org/Graphics/SVG/1.1/DTD/svg11.dtd">
<svg xmlns:xlink="http://www.w3.org/1999/xlink" width="460.8pt" height="345.6pt" viewBox="0 0 460.8 345.6" xmlns="http://www.w3.org/2000/svg" version="1.1">
 <metadata>
  <rdf:RDF xmlns:dc="http://purl.org/dc/elements/1.1/" xmlns:cc="http://creativecommons.org/ns#" xmlns:rdf="http://www.w3.org/1999/02/22-rdf-syntax-ns#">
   <cc:Work>
    <dc:type rdf:resource="http://purl.org/dc/dcmitype/StillImage"/>
    <dc:date>2024-04-23T11:13:04.946266</dc:date>
    <dc:format>image/svg+xml</dc:format>
    <dc:creator>
     <cc:Agent>
      <dc:title>Matplotlib v3.8.3, https://matplotlib.org/</dc:title>
     </cc:Agent>
    </dc:creator>
   </cc:Work>
  </rdf:RDF>
 </metadata>
 <defs>
  <style type="text/css">*{stroke-linejoin: round; stroke-linecap: butt}</style>
 </defs>
 <g id="figure_1">
  <g id="patch_1">
   <path d="M 0 345.6 
L 460.8 345.6 
L 460.8 0 
L 0 0 
z
" style="fill: #ffffff"/>
  </g>
  <g id="axes_1">
   <g id="patch_2">
    <path d="M 57.6 307.584 
L 414.72 307.584 
L 414.72 41.472 
L 57.6 41.472 
z
" style="fill: #ffffff"/>
   </g>
   <g id="PolyCollection_1">
    <defs>
     <path id="m362b6d9bbb" d="M 73.832727 -171.072 
L 73.832727 -171.072 
L 74.150083 -177.52751 
L 74.467438 -177.775676 
L 74.784793 -178.017886 
L 75.102149 -178.260957 
L 75.419504 -178.524271 
L 75.73686 -178.798971 
L 76.054215 -179.080196 
L 76.37157 -179.358336 
L 76.688926 -179.634961 
L 77.006281 -179.915716 
L 77.323636 -180.205538 
L 77.640992 -180.512503 
L 77.958347 -180.83303 
L 78.275702 -181.137326 
L 78.593058 -181.425008 
L 78.910413 -181.704458 
L 79.227769 -181.987076 
L 79.545124 -182.309524 
L 79.862479 -182.65426 
L 80.179835 -182.999426 
L 80.49719 -183.344073 
L 80.814545 -183.704081 
L 81.131901 -184.08838 
L 81.449256 -184.511451 
L 81.766612 -184.982566 
L 82.083967 -185.464219 
L 82.401322 -185.947943 
L 82.718678 -186.422201 
L 83.036033 -186.916748 
L 83.353388 -187.474958 
L 83.670744 -188.077169 
L 83.988099 -188.696177 
L 84.305455 -189.234751 
L 84.62281 -189.780678 
L 84.940165 -190.350395 
L 85.257521 -190.967533 
L 85.574876 -191.650103 
L 85.892231 -192.360747 
L 86.209587 -193.07678 
L 86.526942 -193.790967 
L 86.844298 -194.526814 
L 87.161653 -195.31342 
L 87.479008 -196.157153 
L 87.796364 -197.033843 
L 88.113719 -197.935078 
L 88.431074 -198.857732 
L 88.74843 -199.809512 
L 89.065785 -200.800901 
L 89.38314 -201.847895 
L 89.700496 -202.958988 
L 90.017851 -204.092663 
L 90.335207 -205.227818 
L 90.652562 -206.355163 
L 90.969917 -207.497422 
L 91.287273 -208.687684 
L 91.604628 -209.937162 
L 91.921983 -211.205128 
L 92.239339 -212.486777 
L 92.556694 -213.794004 
L 92.87405 -215.125405 
L 93.191405 -216.488961 
L 93.50876 -217.90408 
L 93.826116 -219.370337 
L 94.143471 -220.83917 
L 94.460826 -222.301692 
L 94.778182 -223.752943 
L 95.095537 -225.200445 
L 95.412893 -226.696801 
L 95.730248 -228.195804 
L 96.047603 -229.673712 
L 96.364959 -231.151449 
L 96.682314 -232.636724 
L 96.999669 -234.122802 
L 97.317025 -235.620035 
L 97.63438 -237.138549 
L 97.951736 -238.656734 
L 98.269091 -240.153208 
L 98.586446 -241.655377 
L 98.903802 -243.149035 
L 99.221157 -244.631062 
L 99.538512 -246.146057 
L 99.855868 -247.621208 
L 100.173223 -249.057993 
L 100.490579 -250.506688 
L 100.807934 -251.972517 
L 101.125289 -253.431467 
L 101.442645 -254.884666 
L 101.76 -256.312728 
L 102.077355 -257.696676 
L 102.394711 -259.072345 
L 102.712066 -260.44134 
L 103.029421 -261.809594 
L 103.346777 -263.144754 
L 103.664132 -264.420311 
L 103.981488 -265.662404 
L 104.298843 -266.889852 
L 104.616198 -268.11798 
L 104.933554 -269.343642 
L 105.250909 -270.534089 
L 105.568264 -271.656966 
L 105.88562 -272.697199 
L 106.202975 -273.725955 
L 106.520331 -274.763503 
L 106.837686 -275.806963 
L 107.155041 -276.809717 
L 107.472397 -277.717369 
L 107.789752 -278.562006 
L 108.107107 -279.397404 
L 108.424463 -280.219539 
L 108.741818 -281.024252 
L 109.059174 -281.800308 
L 109.376529 -282.524123 
L 109.693884 -283.169112 
L 110.01124 -283.733983 
L 110.328595 -284.300224 
L 110.64595 -284.877749 
L 110.963306 -285.479649 
L 111.280661 -286.055117 
L 111.598017 -286.527944 
L 111.915372 -286.924869 
L 112.232727 -287.330424 
L 112.550083 -287.715875 
L 112.867438 -288.074813 
L 113.184793 -288.408857 
L 113.502149 -288.698814 
L 113.819504 -288.913218 
L 114.13686 -289.058165 
L 114.454215 -289.227674 
L 114.77157 -289.413252 
L 115.088926 -289.631573 
L 115.406281 -289.864736 
L 115.723636 -289.99084 
L 116.040992 -290.094415 
L 116.358347 -290.224412 
L 116.675702 -290.33656 
L 116.993058 -290.447423 
L 117.310413 -290.57409 
L 117.627769 -290.679831 
L 117.945124 -290.734022 
L 118.262479 -290.752992 
L 118.579835 -290.789784 
L 118.89719 -290.846679 
L 119.214545 -290.950252 
L 119.531901 -291.084025 
L 119.849256 -291.132591 
L 120.166612 -291.179237 
L 120.483967 -291.292445 
L 120.801322 -291.395288 
L 121.118678 -291.479323 
L 121.436033 -291.567612 
L 121.753388 -291.629957 
L 122.070744 -291.655452 
L 122.388099 -291.654957 
L 122.705455 -291.666311 
L 123.02281 -291.690678 
L 123.340165 -291.741907 
L 123.657521 -291.803251 
L 123.974876 -291.82745 
L 124.292231 -291.855714 
L 124.609587 -291.90429 
L 124.926942 -291.932909 
L 125.244298 -291.947171 
L 125.561653 -291.973129 
L 125.879008 -292.008029 
L 126.196364 -292.032 
L 126.513719 -292.021125 
L 126.831074 -291.993082 
L 127.14843 -291.95548 
L 127.465785 -291.941654 
L 127.78314 -291.968651 
L 128.100496 -291.948931 
L 128.417851 -291.899178 
L 128.735207 -291.836972 
L 129.052562 -291.758057 
L 129.369917 -291.668235 
L 129.687273 -291.586987 
L 130.004628 -291.519419 
L 130.321983 -291.444106 
L 130.639339 -291.315023 
L 130.956694 -291.163194 
L 131.27405 -290.980426 
L 131.591405 -290.805729 
L 131.90876 -290.686605 
L 132.226116 -290.557196 
L 132.543471 -290.410119 
L 132.860826 -290.270601 
L 133.178182 -290.117323 
L 133.495537 -289.95911 
L 133.812893 -289.817709 
L 134.130248 -289.699117 
L 134.447603 -289.588324 
L 134.764959 -289.432071 
L 135.082314 -289.2588 
L 135.399669 -289.065153 
L 135.717025 -288.87457 
L 136.03438 -288.745397 
L 136.351736 -288.591359 
L 136.669091 -288.446754 
L 136.986446 -288.336075 
L 137.303802 -288.220507 
L 137.621157 -288.090314 
L 137.938512 -287.975378 
L 138.255868 -287.886361 
L 138.573223 -287.809732 
L 138.890579 -287.716573 
L 139.207934 -287.601123 
L 139.525289 -287.451546 
L 139.842645 -287.287925 
L 140.16 -287.198145 
L 140.477355 -287.143449 
L 140.794711 -287.01805 
L 141.112066 -286.887581 
L 141.429421 -286.765268 
L 141.746777 -286.626255 
L 142.064132 -286.498166 
L 142.381488 -286.405917 
L 142.698843 -286.339513 
L 143.016198 -286.253072 
L 143.333554 -286.146423 
L 143.650909 -286.012536 
L 143.968264 -285.883481 
L 144.28562 -285.790063 
L 144.602975 -285.677758 
L 144.920331 -285.553497 
L 145.237686 -285.426752 
L 145.555041 -285.294491 
L 145.872397 -285.150834 
L 146.189752 -285.020449 
L 146.507107 -284.921098 
L 146.824463 -284.832927 
L 147.141818 -284.71776 
L 147.459174 -284.577108 
L 147.776529 -284.414748 
L 148.093884 -284.256594 
L 148.41124 -284.186493 
L 148.728595 -284.12044 
L 149.04595 -284.028756 
L 149.363306 -283.94199 
L 149.680661 -283.859556 
L 149.998017 -283.782572 
L 150.315372 -283.727148 
L 150.632727 -283.71013 
L 150.950083 -283.705465 
L 151.267438 -283.661059 
L 151.584793 -283.602361 
L 151.902149 -283.53915 
L 152.219504 -283.498561 
L 152.53686 -283.518565 
L 152.854215 -283.500503 
L 153.17157 -283.467792 
L 153.488926 -283.443761 
L 153.806281 -283.419154 
L 154.123636 -283.388769 
L 154.440992 -283.372248 
L 154.758347 -283.377459 
L 155.075702 -283.363254 
L 155.393058 -283.30452 
L 155.710413 -283.213776 
L 156.027769 -283.104544 
L 156.345124 -283.019993 
L 156.662479 -282.988328 
L 156.979835 -282.889244 
L 157.29719 -282.734871 
L 157.614545 -282.565296 
L 157.931901 -282.383963 
L 158.249256 -282.188491 
L 158.566612 -281.990504 
L 158.883967 -281.790934 
L 159.201322 -281.541226 
L 159.518678 -281.25539 
L 159.836033 -280.947188 
L 160.153388 -280.644005 
L 160.470744 -280.34043 
L 160.788099 -279.976738 
L 161.105455 -279.597556 
L 161.42281 -279.203403 
L 161.740165 -278.786213 
L 162.057521 -278.362123 
L 162.374876 -277.937394 
L 162.692231 -277.510604 
L 163.009587 -277.048148 
L 163.326942 -276.523172 
L 163.644298 -275.96072 
L 163.961653 -275.394838 
L 164.279008 -274.856965 
L 164.596364 -274.359919 
L 164.913719 -273.832202 
L 165.231074 -273.245027 
L 165.54843 -272.658736 
L 165.865785 -272.086919 
L 166.18314 -271.536907 
L 166.500496 -271.005504 
L 166.817851 -270.463571 
L 167.135207 -269.877544 
L 167.452562 -269.272619 
L 167.769917 -268.68079 
L 168.087273 -268.121744 
L 168.404628 -267.610078 
L 168.721983 -267.058421 
L 169.039339 -266.472352 
L 169.356694 -265.906341 
L 169.67405 -265.361686 
L 169.991405 -264.854845 
L 170.30876 -264.382534 
L 170.626116 -263.911129 
L 170.943471 -263.398824 
L 171.260826 -262.866232 
L 171.578182 -262.371423 
L 171.895537 -261.926374 
L 172.212893 -261.550657 
L 172.530248 -261.162968 
L 172.847603 -260.718391 
L 173.164959 -260.283178 
L 173.482314 -259.868705 
L 173.799669 -259.493822 
L 174.117025 -259.169108 
L 174.43438 -258.879725 
L 174.751736 -258.568844 
L 175.069091 -258.202764 
L 175.386446 -257.843183 
L 175.703802 -257.540065 
L 176.021157 -257.334316 
L 176.338512 -257.162099 
L 176.655868 -256.949694 
L 176.973223 -256.678845 
L 177.290579 -256.450334 
L 177.607934 -256.284052 
L 177.925289 -256.180606 
L 178.242645 -256.127516 
L 178.56 -256.079148 
L 178.877355 -255.993041 
L 179.194711 -255.866927 
L 179.512066 -255.786797 
L 179.829421 -255.792442 
L 180.146777 -255.870886 
L 180.464132 -255.950168 
L 180.781488 -255.978196 
L 181.098843 -256.019309 
L 181.416198 -256.112864 
L 181.733554 -256.256687 
L 182.050909 -256.457144 
L 182.368264 -256.679473 
L 182.68562 -256.874614 
L 183.002975 -256.99931 
L 183.320331 -257.135546 
L 183.637686 -257.367455 
L 183.955041 -257.680362 
L 184.272397 -258.010879 
L 184.589752 -258.293521 
L 184.907107 -258.506046 
L 185.224463 -258.771321 
L 185.541818 -259.125156 
L 185.859174 -259.534969 
L 186.176529 -259.948697 
L 186.493884 -260.32169 
L 186.81124 -260.610253 
L 187.128595 -260.860911 
L 187.44595 -261.168075 
L 187.763306 -261.566783 
L 188.080661 -261.995411 
L 188.398017 -262.395228 
L 188.715372 -262.707348 
L 189.032727 -263.025069 
L 189.350083 -263.40514 
L 189.667438 -263.830195 
L 189.984793 -264.27897 
L 190.302149 -264.685246 
L 190.619504 -265.005166 
L 190.93686 -265.25971 
L 191.254215 -265.52446 
L 191.57157 -265.857746 
L 191.888926 -266.256039 
L 192.206281 -266.63153 
L 192.523636 -266.889836 
L 192.840992 -267.122355 
L 193.158347 -267.397485 
L 193.475702 -267.723143 
L 193.793058 -268.079193 
L 194.110413 -268.405286 
L 194.427769 -268.647628 
L 194.745124 -268.793833 
L 195.062479 -268.919523 
L 195.379835 -269.108662 
L 195.69719 -269.381616 
L 196.014545 -269.645754 
L 196.331901 -269.8007 
L 196.649256 -269.920458 
L 196.966612 -270.07283 
L 197.283967 -270.284123 
L 197.601322 -270.521865 
L 197.918678 -270.750869 
L 198.236033 -270.908012 
L 198.553388 -270.967436 
L 198.870744 -270.983373 
L 199.188099 -271.030037 
L 199.505455 -271.158154 
L 199.82281 -271.331721 
L 200.140165 -271.443276 
L 200.457521 -271.488602 
L 200.774876 -271.535464 
L 201.092231 -271.627733 
L 201.409587 -271.756181 
L 201.726942 -271.88873 
L 202.044298 -271.986166 
L 202.361653 -272.000033 
L 202.679008 -271.961071 
L 202.996364 -271.929024 
L 203.313719 -271.976608 
L 203.631074 -272.088367 
L 203.94843 -272.155345 
L 204.265785 -272.164728 
L 204.58314 -272.174487 
L 204.900496 -272.225648 
L 205.217851 -272.328245 
L 205.535207 -272.43093 
L 205.852562 -272.507222 
L 206.169917 -272.513974 
L 206.487273 -272.480536 
L 206.804628 -272.449523 
L 207.121983 -272.479431 
L 207.439339 -272.568029 
L 207.756694 -272.665321 
L 208.07405 -272.709098 
L 208.391405 -272.734128 
L 208.70876 -272.772727 
L 209.026116 -272.853106 
L 209.343471 -272.933989 
L 209.660826 -272.992228 
L 209.978182 -273.018017 
L 210.295537 -272.98243 
L 210.612893 -272.932585 
L 210.930248 -272.919783 
L 211.247603 -272.956122 
L 211.564959 -273.016356 
L 211.882314 -273.066662 
L 212.199669 -273.036828 
L 212.517025 -272.997462 
L 212.83438 -273.02077 
L 213.151736 -273.071475 
L 213.469091 -273.10973 
L 213.786446 -273.115698 
L 214.103802 -273.074654 
L 214.421157 -273.023586 
L 214.738512 -273.002504 
L 215.055868 -273.040226 
L 215.373223 -273.104163 
L 215.690579 -273.130479 
L 216.007934 -273.093828 
L 216.325289 -273.115258 
L 216.642645 -273.276349 
L 216.96 -273.52899 
L 217.277355 -273.810742 
L 217.594711 -274.078516 
L 217.912066 -274.286391 
L 218.229421 -274.413571 
L 218.546777 -274.539296 
L 218.864132 -274.72075 
L 219.181488 -274.961276 
L 219.498843 -275.214534 
L 219.816198 -275.405653 
L 220.133554 -275.488797 
L 220.450909 -275.519214 
L 220.768264 -275.54983 
L 221.08562 -275.556887 
L 221.402975 -275.499679 
L 221.720331 -275.337209 
L 222.037686 -275.022909 
L 222.355041 -274.571658 
L 222.672397 -274.065568 
L 222.989752 -273.535334 
L 223.307107 -272.966622 
L 223.624463 -272.308501 
L 223.941818 -271.488315 
L 224.259174 -270.567932 
L 224.576529 -269.573245 
L 224.893884 -268.496228 
L 225.21124 -267.315139 
L 225.528595 -266.01521 
L 225.84595 -264.577162 
L 226.163306 -262.96344 
L 226.480661 -261.205479 
L 226.798017 -259.353459 
L 227.115372 -257.42492 
L 227.432727 -255.409397 
L 227.750083 -253.293504 
L 228.067438 -251.055064 
L 228.384793 -248.701899 
L 228.702149 -246.22988 
L 229.019504 -243.680765 
L 229.33686 -241.067204 
L 229.654215 -238.380098 
L 229.97157 -235.585499 
L 230.288926 -232.639996 
L 230.606281 -229.582684 
L 230.923636 -226.462873 
L 231.240992 -223.306435 
L 231.558347 -220.129425 
L 231.875702 -216.912642 
L 232.193058 -213.593656 
L 232.510413 -210.224889 
L 232.827769 -206.83592 
L 233.145124 -203.445027 
L 233.462479 -200.053873 
L 233.779835 -196.650154 
L 234.09719 -193.217393 
L 234.414545 -189.731369 
L 234.731901 -186.216818 
L 235.049256 -182.724439 
L 235.366612 -179.282704 
L 235.683967 -175.921119 
L 236.001322 -172.66673 
L 236.318678 -169.47727 
L 236.636033 -166.222881 
L 236.953388 -162.861296 
L 237.270744 -159.419561 
L 237.588099 -155.927182 
L 237.905455 -152.412631 
L 238.22281 -148.926607 
L 238.540165 -145.493846 
L 238.857521 -142.090127 
L 239.174876 -138.698973 
L 239.492231 -135.30808 
L 239.809587 -131.919111 
L 240.126942 -128.550344 
L 240.444298 -125.231358 
L 240.761653 -122.014575 
L 241.079008 -118.837565 
L 241.396364 -115.681127 
L 241.713719 -112.561316 
L 242.031074 -109.504004 
L 242.34843 -106.558501 
L 242.665785 -103.763902 
L 242.98314 -101.076796 
L 243.300496 -98.463235 
L 243.617851 -95.91412 
L 243.935207 -93.442101 
L 244.252562 -91.088936 
L 244.569917 -88.850496 
L 244.887273 -86.734603 
L 245.204628 -84.71908 
L 245.521983 -82.790541 
L 245.839339 -80.938521 
L 246.156694 -79.18056 
L 246.47405 -77.566838 
L 246.791405 -76.12879 
L 247.10876 -74.828861 
L 247.426116 -73.647772 
L 247.743471 -72.570755 
L 248.060826 -71.576068 
L 248.378182 -70.655685 
L 248.695537 -69.835499 
L 249.012893 -69.177378 
L 249.330248 -68.608666 
L 249.647603 -68.078432 
L 249.964959 -67.572342 
L 250.282314 -67.121091 
L 250.599669 -66.806791 
L 250.917025 -66.644321 
L 251.23438 -66.587113 
L 251.551736 -66.59417 
L 251.869091 -66.624786 
L 252.186446 -66.655203 
L 252.503802 -66.738347 
L 252.821157 -66.929466 
L 253.138512 -67.182724 
L 253.455868 -67.42325 
L 253.773223 -67.604704 
L 254.090579 -67.730429 
L 254.407934 -67.857609 
L 254.725289 -68.065484 
L 255.042645 -68.333258 
L 255.36 -68.61501 
L 255.677355 -68.867651 
L 255.994711 -69.028742 
L 256.312066 -69.050172 
L 256.629421 -69.013521 
L 256.946777 -69.039837 
L 257.264132 -69.103774 
L 257.581488 -69.141496 
L 257.898843 -69.120414 
L 258.216198 -69.069346 
L 258.533554 -69.028302 
L 258.850909 -69.03427 
L 259.168264 -69.072525 
L 259.48562 -69.12323 
L 259.802975 -69.146538 
L 260.120331 -69.107172 
L 260.437686 -69.077338 
L 260.755041 -69.127644 
L 261.072397 -69.187878 
L 261.389752 -69.224217 
L 261.707107 -69.211415 
L 262.024463 -69.16157 
L 262.341818 -69.125983 
L 262.659174 -69.151772 
L 262.976529 -69.210011 
L 263.293884 -69.290894 
L 263.61124 -69.371273 
L 263.928595 -69.409872 
L 264.24595 -69.434902 
L 264.563306 -69.478679 
L 264.880661 -69.575971 
L 265.198017 -69.664569 
L 265.515372 -69.694477 
L 265.832727 -69.663464 
L 266.150083 -69.630026 
L 266.467438 -69.636778 
L 266.784793 -69.71307 
L 267.102149 -69.815755 
L 267.419504 -69.918352 
L 267.73686 -69.969513 
L 268.054215 -69.979272 
L 268.37157 -69.988655 
L 268.688926 -70.055633 
L 269.006281 -70.167392 
L 269.323636 -70.214976 
L 269.640992 -70.182929 
L 269.958347 -70.143967 
L 270.275702 -70.157834 
L 270.593058 -70.25527 
L 270.910413 -70.387819 
L 271.227769 -70.516267 
L 271.545124 -70.608536 
L 271.862479 -70.655398 
L 272.179835 -70.700724 
L 272.49719 -70.812279 
L 272.814545 -70.985846 
L 273.131901 -71.113963 
L 273.449256 -71.160627 
L 273.766612 -71.176564 
L 274.083967 -71.235988 
L 274.401322 -71.393131 
L 274.718678 -71.622135 
L 275.036033 -71.859877 
L 275.353388 -72.07117 
L 275.670744 -72.223542 
L 275.988099 -72.3433 
L 276.305455 -72.498246 
L 276.62281 -72.762384 
L 276.940165 -73.035338 
L 277.257521 -73.224477 
L 277.574876 -73.350167 
L 277.892231 -73.496372 
L 278.209587 -73.738714 
L 278.526942 -74.064807 
L 278.844298 -74.420857 
L 279.161653 -74.746515 
L 279.479008 -75.021645 
L 279.796364 -75.254164 
L 280.113719 -75.51247 
L 280.431074 -75.887961 
L 280.74843 -76.286254 
L 281.065785 -76.61954 
L 281.38314 -76.88429 
L 281.700496 -77.138834 
L 282.017851 -77.458754 
L 282.335207 -77.86503 
L 282.652562 -78.313805 
L 282.969917 -78.73886 
L 283.287273 -79.118931 
L 283.604628 -79.436652 
L 283.921983 -79.748772 
L 284.239339 -80.148589 
L 284.556694 -80.577217 
L 284.87405 -80.975925 
L 285.191405 -81.283089 
L 285.50876 -81.533747 
L 285.826116 -81.82231 
L 286.143471 -82.195303 
L 286.460826 -82.609031 
L 286.778182 -83.018844 
L 287.095537 -83.372679 
L 287.412893 -83.637954 
L 287.730248 -83.850479 
L 288.047603 -84.133121 
L 288.364959 -84.463638 
L 288.682314 -84.776545 
L 288.999669 -85.008454 
L 289.317025 -85.14469 
L 289.63438 -85.269386 
L 289.951736 -85.464527 
L 290.269091 -85.686856 
L 290.586446 -85.887313 
L 290.903802 -86.031136 
L 291.221157 -86.124691 
L 291.538512 -86.165804 
L 291.855868 -86.193832 
L 292.173223 -86.273114 
L 292.490579 -86.351558 
L 292.807934 -86.357203 
L 293.125289 -86.277073 
L 293.442645 -86.150959 
L 293.76 -86.064852 
L 294.077355 -86.016484 
L 294.394711 -85.963394 
L 294.712066 -85.859948 
L 295.029421 -85.693666 
L 295.346777 -85.465155 
L 295.664132 -85.194306 
L 295.981488 -84.981901 
L 296.298843 -84.809684 
L 296.616198 -84.603935 
L 296.933554 -84.300817 
L 297.250909 -83.941236 
L 297.568264 -83.575156 
L 297.88562 -83.264275 
L 298.202975 -82.974892 
L 298.520331 -82.650178 
L 298.837686 -82.275295 
L 299.155041 -81.860822 
L 299.472397 -81.425609 
L 299.789752 -80.981032 
L 300.107107 -80.593343 
L 300.424463 -80.217626 
L 300.741818 -79.772577 
L 301.059174 -79.277768 
L 301.376529 -78.745176 
L 301.693884 -78.232871 
L 302.01124 -77.761466 
L 302.328595 -77.289155 
L 302.64595 -76.782314 
L 302.963306 -76.237659 
L 303.280661 -75.671648 
L 303.598017 -75.085579 
L 303.915372 -74.533922 
L 304.232727 -74.022256 
L 304.550083 -73.46321 
L 304.867438 -72.871381 
L 305.184793 -72.266456 
L 305.502149 -71.680429 
L 305.819504 -71.138496 
L 306.13686 -70.607093 
L 306.454215 -70.057081 
L 306.77157 -69.485264 
L 307.088926 -68.898973 
L 307.406281 -68.311798 
L 307.723636 -67.784081 
L 308.040992 -67.287035 
L 308.358347 -66.749162 
L 308.675702 -66.18328 
L 308.993058 -65.620828 
L 309.310413 -65.095852 
L 309.627769 -64.633396 
L 309.945124 -64.206606 
L 310.262479 -63.781877 
L 310.579835 -63.357787 
L 310.89719 -62.940597 
L 311.214545 -62.546444 
L 311.531901 -62.167262 
L 311.849256 -61.80357 
L 312.166612 -61.499995 
L 312.483967 -61.196812 
L 312.801322 -60.88861 
L 313.118678 -60.602774 
L 313.436033 -60.353066 
L 313.753388 -60.153496 
L 314.070744 -59.955509 
L 314.388099 -59.760037 
L 314.705455 -59.578704 
L 315.02281 -59.409129 
L 315.340165 -59.254756 
L 315.657521 -59.155672 
L 315.974876 -59.124007 
L 316.292231 -59.039456 
L 316.609587 -58.930224 
L 316.926942 -58.83948 
L 317.244298 -58.780746 
L 317.561653 -58.766541 
L 317.879008 -58.771752 
L 318.196364 -58.755231 
L 318.513719 -58.724846 
L 318.831074 -58.700239 
L 319.14843 -58.676208 
L 319.465785 -58.643497 
L 319.78314 -58.625435 
L 320.100496 -58.645439 
L 320.417851 -58.60485 
L 320.735207 -58.541639 
L 321.052562 -58.482941 
L 321.369917 -58.438535 
L 321.687273 -58.43387 
L 322.004628 -58.416852 
L 322.321983 -58.361428 
L 322.639339 -58.284444 
L 322.956694 -58.20201 
L 323.27405 -58.115244 
L 323.591405 -58.02356 
L 323.90876 -57.957507 
L 324.226116 -57.887406 
L 324.543471 -57.729252 
L 324.860826 -57.566892 
L 325.178182 -57.42624 
L 325.495537 -57.311073 
L 325.812893 -57.222902 
L 326.130248 -57.123551 
L 326.447603 -56.993166 
L 326.764959 -56.849509 
L 327.082314 -56.717248 
L 327.399669 -56.590503 
L 327.717025 -56.466242 
L 328.03438 -56.353937 
L 328.351736 -56.260519 
L 328.669091 -56.131464 
L 328.986446 -55.997577 
L 329.303802 -55.890928 
L 329.621157 -55.804487 
L 329.938512 -55.738083 
L 330.255868 -55.645834 
L 330.573223 -55.517745 
L 330.890579 -55.378732 
L 331.207934 -55.256419 
L 331.525289 -55.12595 
L 331.842645 -55.000551 
L 332.16 -54.945855 
L 332.477355 -54.856075 
L 332.794711 -54.692454 
L 333.112066 -54.542877 
L 333.429421 -54.427427 
L 333.746777 -54.334268 
L 334.064132 -54.257639 
L 334.381488 -54.168622 
L 334.698843 -54.053686 
L 335.016198 -53.923493 
L 335.333554 -53.807925 
L 335.650909 -53.697246 
L 335.968264 -53.552641 
L 336.28562 -53.398603 
L 336.602975 -53.26943 
L 336.920331 -53.078847 
L 337.237686 -52.8852 
L 337.555041 -52.711929 
L 337.872397 -52.555676 
L 338.189752 -52.444883 
L 338.507107 -52.326291 
L 338.824463 -52.18489 
L 339.141818 -52.026677 
L 339.459174 -51.873399 
L 339.776529 -51.733881 
L 340.093884 -51.586804 
L 340.41124 -51.457395 
L 340.728595 -51.338271 
L 341.04595 -51.163574 
L 341.363306 -50.980806 
L 341.680661 -50.828977 
L 341.998017 -50.699894 
L 342.315372 -50.624581 
L 342.632727 -50.557013 
L 342.950083 -50.475765 
L 343.267438 -50.385943 
L 343.584793 -50.307028 
L 343.902149 -50.244822 
L 344.219504 -50.195069 
L 344.53686 -50.175349 
L 344.854215 -50.202346 
L 345.17157 -50.18852 
L 345.488926 -50.150918 
L 345.806281 -50.122875 
L 346.123636 -50.112 
L 346.440992 -50.135971 
L 346.758347 -50.170871 
L 347.075702 -50.196829 
L 347.393058 -50.211091 
L 347.710413 -50.23971 
L 348.027769 -50.288286 
L 348.345124 -50.31655 
L 348.662479 -50.340749 
L 348.979835 -50.402093 
L 349.29719 -50.453322 
L 349.614545 -50.477689 
L 349.931901 -50.489043 
L 350.249256 -50.488548 
L 350.566612 -50.514043 
L 350.883967 -50.576388 
L 351.201322 -50.664677 
L 351.518678 -50.748712 
L 351.836033 -50.851555 
L 352.153388 -50.964763 
L 352.470744 -51.011409 
L 352.788099 -51.059975 
L 353.105455 -51.193748 
L 353.42281 -51.297321 
L 353.740165 -51.354216 
L 354.057521 -51.391008 
L 354.374876 -51.409978 
L 354.692231 -51.464169 
L 355.009587 -51.56991 
L 355.326942 -51.696577 
L 355.644298 -51.80744 
L 355.961653 -51.919588 
L 356.279008 -52.049585 
L 356.596364 -52.15316 
L 356.913719 -52.279264 
L 357.231074 -52.512427 
L 357.54843 -52.730748 
L 357.865785 -52.916326 
L 358.18314 -53.085835 
L 358.500496 -53.230782 
L 358.817851 -53.445186 
L 359.135207 -53.735143 
L 359.452562 -54.069187 
L 359.769917 -54.428125 
L 360.087273 -54.813576 
L 360.404628 -55.219131 
L 360.721983 -55.616056 
L 361.039339 -56.088883 
L 361.356694 -56.664351 
L 361.67405 -57.266251 
L 361.991405 -57.843776 
L 362.30876 -58.410017 
L 362.626116 -58.974888 
L 362.943471 -59.619877 
L 363.260826 -60.343692 
L 363.578182 -61.119748 
L 363.895537 -61.924461 
L 364.212893 -62.746596 
L 364.530248 -63.581994 
L 364.847603 -64.426631 
L 365.164959 -65.334283 
L 365.482314 -66.337037 
L 365.799669 -67.380497 
L 366.117025 -68.418045 
L 366.43438 -69.446801 
L 366.751736 -70.487034 
L 367.069091 -71.609911 
L 367.386446 -72.800358 
L 367.703802 -74.02602 
L 368.021157 -75.254148 
L 368.338512 -76.481596 
L 368.655868 -77.723689 
L 368.973223 -78.999246 
L 369.290579 -80.334406 
L 369.607934 -81.70266 
L 369.925289 -83.071655 
L 370.242645 -84.447324 
L 370.56 -85.831272 
L 370.877355 -87.259334 
L 371.194711 -88.712533 
L 371.512066 -90.171483 
L 371.829421 -91.637312 
L 372.146777 -93.086007 
L 372.464132 -94.522792 
L 372.781488 -95.997943 
L 373.098843 -97.512938 
L 373.416198 -98.994965 
L 373.733554 -100.488623 
L 374.050909 -101.990792 
L 374.368264 -103.487266 
L 374.68562 -105.005451 
L 375.002975 -106.523965 
L 375.320331 -108.021198 
L 375.637686 -109.507276 
L 375.955041 -110.992551 
L 376.272397 -112.470288 
L 376.589752 -113.948196 
L 376.907107 -115.447199 
L 377.224463 -116.943555 
L 377.541818 -118.391057 
L 377.859174 -119.842308 
L 378.176529 -121.30483 
L 378.493884 -122.772274 
L 378.81124 -124.235828 
L 379.128595 -125.648321 
L 379.44595 -127.009305 
L 379.763306 -128.338164 
L 380.080661 -129.642857 
L 380.398017 -130.921956 
L 380.715372 -132.187332 
L 381.032727 -133.434156 
L 381.350083 -134.621677 
L 381.667438 -135.761085 
L 381.984793 -136.885444 
L 382.302149 -138.017456 
L 382.619504 -139.147807 
L 382.93686 -140.255371 
L 383.254215 -141.298608 
L 383.57157 -142.285988 
L 383.888926 -143.233483 
L 384.206281 -144.151554 
L 384.523636 -145.047883 
L 384.840992 -145.919321 
L 385.158347 -146.757434 
L 385.475702 -147.538025 
L 385.793058 -148.267441 
L 386.110413 -148.974757 
L 386.427769 -149.683455 
L 386.745124 -150.386277 
L 387.062479 -151.060515 
L 387.379835 -151.668786 
L 387.69719 -152.229078 
L 388.014545 -152.764998 
L 388.331901 -153.292962 
L 388.649256 -153.815318 
L 388.966612 -154.417529 
L 389.283967 -154.975739 
L 389.601322 -155.470286 
L 389.918678 -155.944543 
L 390.236033 -156.428268 
L 390.553388 -156.90992 
L 390.870744 -157.381036 
L 391.188099 -157.804107 
L 391.505455 -158.188406 
L 391.82281 -158.548414 
L 392.140165 -158.893061 
L 392.457521 -159.238227 
L 392.774876 -159.582963 
L 393.092231 -159.905411 
L 393.409587 -160.188029 
L 393.726942 -160.467479 
L 394.044298 -160.75516 
L 394.361653 -161.059457 
L 394.679008 -161.379984 
L 394.996364 -161.686949 
L 395.313719 -161.976771 
L 395.631074 -162.257525 
L 395.94843 -162.534151 
L 396.265785 -162.812291 
L 396.58314 -163.093516 
L 396.900496 -163.368216 
L 397.217851 -163.63153 
L 397.535207 -163.874601 
L 397.852562 -164.116811 
L 398.169917 -164.364977 
L 398.487273 -171.072 
L 398.487273 -171.072 
L 398.487273 -171.072 
L 398.169917 -171.072 
L 397.852562 -171.072 
L 397.535207 -171.072 
L 397.217851 -171.072 
L 396.900496 -171.072 
L 396.58314 -171.072 
L 396.265785 -171.072 
L 395.94843 -171.072 
L 395.631074 -171.072 
L 395.313719 -171.072 
L 394.996364 -171.072 
L 394.679008 -171.072 
L 394.361653 -171.072 
L 394.044298 -171.072 
L 393.726942 -171.072 
L 393.409587 -171.072 
L 393.092231 -171.072 
L 392.774876 -171.072 
L 392.457521 -171.072 
L 392.140165 -171.072 
L 391.82281 -171.072 
L 391.505455 -171.072 
L 391.188099 -171.072 
L 390.870744 -171.072 
L 390.553388 -171.072 
L 390.236033 -171.072 
L 389.918678 -171.072 
L 389.601322 -171.072 
L 389.283967 -171.072 
L 388.966612 -171.072 
L 388.649256 -171.072 
L 388.331901 -171.072 
L 388.014545 -171.072 
L 387.69719 -171.072 
L 387.379835 -171.072 
L 387.062479 -171.072 
L 386.745124 -171.072 
L 386.427769 -171.072 
L 386.110413 -171.072 
L 385.793058 -171.072 
L 385.475702 -171.072 
L 385.158347 -171.072 
L 384.840992 -171.072 
L 384.523636 -171.072 
L 384.206281 -171.072 
L 383.888926 -171.072 
L 383.57157 -171.072 
L 383.254215 -171.072 
L 382.93686 -171.072 
L 382.619504 -171.072 
L 382.302149 -171.072 
L 381.984793 -171.072 
L 381.667438 -171.072 
L 381.350083 -171.072 
L 381.032727 -171.072 
L 380.715372 -171.072 
L 380.398017 -171.072 
L 380.080661 -171.072 
L 379.763306 -171.072 
L 379.44595 -171.072 
L 379.128595 -171.072 
L 378.81124 -171.072 
L 378.493884 -171.072 
L 378.176529 -171.072 
L 377.859174 -171.072 
L 377.541818 -171.072 
L 377.224463 -171.072 
L 376.907107 -171.072 
L 376.589752 -171.072 
L 376.272397 -171.072 
L 375.955041 -171.072 
L 375.637686 -171.072 
L 375.320331 -171.072 
L 375.002975 -171.072 
L 374.68562 -171.072 
L 374.368264 -171.072 
L 374.050909 -171.072 
L 373.733554 -171.072 
L 373.416198 -171.072 
L 373.098843 -171.072 
L 372.781488 -171.072 
L 372.464132 -171.072 
L 372.146777 -171.072 
L 371.829421 -171.072 
L 371.512066 -171.072 
L 371.194711 -171.072 
L 370.877355 -171.072 
L 370.56 -171.072 
L 370.242645 -171.072 
L 369.925289 -171.072 
L 369.607934 -171.072 
L 369.290579 -171.072 
L 368.973223 -171.072 
L 368.655868 -171.072 
L 368.338512 -171.072 
L 368.021157 -171.072 
L 367.703802 -171.072 
L 367.386446 -171.072 
L 367.069091 -171.072 
L 366.751736 -171.072 
L 366.43438 -171.072 
L 366.117025 -171.072 
L 365.799669 -171.072 
L 365.482314 -171.072 
L 365.164959 -171.072 
L 364.847603 -171.072 
L 364.530248 -171.072 
L 364.212893 -171.072 
L 363.895537 -171.072 
L 363.578182 -171.072 
L 363.260826 -171.072 
L 362.943471 -171.072 
L 362.626116 -171.072 
L 362.30876 -171.072 
L 361.991405 -171.072 
L 361.67405 -171.072 
L 361.356694 -171.072 
L 361.039339 -171.072 
L 360.721983 -171.072 
L 360.404628 -171.072 
L 360.087273 -171.072 
L 359.769917 -171.072 
L 359.452562 -171.072 
L 359.135207 -171.072 
L 358.817851 -171.072 
L 358.500496 -171.072 
L 358.18314 -171.072 
L 357.865785 -171.072 
L 357.54843 -171.072 
L 357.231074 -171.072 
L 356.913719 -171.072 
L 356.596364 -171.072 
L 356.279008 -171.072 
L 355.961653 -171.072 
L 355.644298 -171.072 
L 355.326942 -171.072 
L 355.009587 -171.072 
L 354.692231 -171.072 
L 354.374876 -171.072 
L 354.057521 -171.072 
L 353.740165 -171.072 
L 353.42281 -171.072 
L 353.105455 -171.072 
L 352.788099 -171.072 
L 352.470744 -171.072 
L 352.153388 -171.072 
L 351.836033 -171.072 
L 351.518678 -171.072 
L 351.201322 -171.072 
L 350.883967 -171.072 
L 350.566612 -171.072 
L 350.249256 -171.072 
L 349.931901 -171.072 
L 349.614545 -171.072 
L 349.29719 -171.072 
L 348.979835 -171.072 
L 348.662479 -171.072 
L 348.345124 -171.072 
L 348.027769 -171.072 
L 347.710413 -171.072 
L 347.393058 -171.072 
L 347.075702 -171.072 
L 346.758347 -171.072 
L 346.440992 -171.072 
L 346.123636 -171.072 
L 345.806281 -171.072 
L 345.488926 -171.072 
L 345.17157 -171.072 
L 344.854215 -171.072 
L 344.53686 -171.072 
L 344.219504 -171.072 
L 343.902149 -171.072 
L 343.584793 -171.072 
L 343.267438 -171.072 
L 342.950083 -171.072 
L 342.632727 -171.072 
L 342.315372 -171.072 
L 341.998017 -171.072 
L 341.680661 -171.072 
L 341.363306 -171.072 
L 341.04595 -171.072 
L 340.728595 -171.072 
L 340.41124 -171.072 
L 340.093884 -171.072 
L 339.776529 -171.072 
L 339.459174 -171.072 
L 339.141818 -171.072 
L 338.824463 -171.072 
L 338.507107 -171.072 
L 338.189752 -171.072 
L 337.872397 -171.072 
L 337.555041 -171.072 
L 337.237686 -171.072 
L 336.920331 -171.072 
L 336.602975 -171.072 
L 336.28562 -171.072 
L 335.968264 -171.072 
L 335.650909 -171.072 
L 335.333554 -171.072 
L 335.016198 -171.072 
L 334.698843 -171.072 
L 334.381488 -171.072 
L 334.064132 -171.072 
L 333.746777 -171.072 
L 333.429421 -171.072 
L 333.112066 -171.072 
L 332.794711 -171.072 
L 332.477355 -171.072 
L 332.16 -171.072 
L 331.842645 -171.072 
L 331.525289 -171.072 
L 331.207934 -171.072 
L 330.890579 -171.072 
L 330.573223 -171.072 
L 330.255868 -171.072 
L 329.938512 -171.072 
L 329.621157 -171.072 
L 329.303802 -171.072 
L 328.986446 -171.072 
L 328.669091 -171.072 
L 328.351736 -171.072 
L 328.03438 -171.072 
L 327.717025 -171.072 
L 327.399669 -171.072 
L 327.082314 -171.072 
L 326.764959 -171.072 
L 326.447603 -171.072 
L 326.130248 -171.072 
L 325.812893 -171.072 
L 325.495537 -171.072 
L 325.178182 -171.072 
L 324.860826 -171.072 
L 324.543471 -171.072 
L 324.226116 -171.072 
L 323.90876 -171.072 
L 323.591405 -171.072 
L 323.27405 -171.072 
L 322.956694 -171.072 
L 322.639339 -171.072 
L 322.321983 -171.072 
L 322.004628 -171.072 
L 321.687273 -171.072 
L 321.369917 -171.072 
L 321.052562 -171.072 
L 320.735207 -171.072 
L 320.417851 -171.072 
L 320.100496 -171.072 
L 319.78314 -171.072 
L 319.465785 -171.072 
L 319.14843 -171.072 
L 318.831074 -171.072 
L 318.513719 -171.072 
L 318.196364 -171.072 
L 317.879008 -171.072 
L 317.561653 -171.072 
L 317.244298 -171.072 
L 316.926942 -171.072 
L 316.609587 -171.072 
L 316.292231 -171.072 
L 315.974876 -171.072 
L 315.657521 -171.072 
L 315.340165 -171.072 
L 315.02281 -171.072 
L 314.705455 -171.072 
L 314.388099 -171.072 
L 314.070744 -171.072 
L 313.753388 -171.072 
L 313.436033 -171.072 
L 313.118678 -171.072 
L 312.801322 -171.072 
L 312.483967 -171.072 
L 312.166612 -171.072 
L 311.849256 -171.072 
L 311.531901 -171.072 
L 311.214545 -171.072 
L 310.89719 -171.072 
L 310.579835 -171.072 
L 310.262479 -171.072 
L 309.945124 -171.072 
L 309.627769 -171.072 
L 309.310413 -171.072 
L 308.993058 -171.072 
L 308.675702 -171.072 
L 308.358347 -171.072 
L 308.040992 -171.072 
L 307.723636 -171.072 
L 307.406281 -171.072 
L 307.088926 -171.072 
L 306.77157 -171.072 
L 306.454215 -171.072 
L 306.13686 -171.072 
L 305.819504 -171.072 
L 305.502149 -171.072 
L 305.184793 -171.072 
L 304.867438 -171.072 
L 304.550083 -171.072 
L 304.232727 -171.072 
L 303.915372 -171.072 
L 303.598017 -171.072 
L 303.280661 -171.072 
L 302.963306 -171.072 
L 302.64595 -171.072 
L 302.328595 -171.072 
L 302.01124 -171.072 
L 301.693884 -171.072 
L 301.376529 -171.072 
L 301.059174 -171.072 
L 300.741818 -171.072 
L 300.424463 -171.072 
L 300.107107 -171.072 
L 299.789752 -171.072 
L 299.472397 -171.072 
L 299.155041 -171.072 
L 298.837686 -171.072 
L 298.520331 -171.072 
L 298.202975 -171.072 
L 297.88562 -171.072 
L 297.568264 -171.072 
L 297.250909 -171.072 
L 296.933554 -171.072 
L 296.616198 -171.072 
L 296.298843 -171.072 
L 295.981488 -171.072 
L 295.664132 -171.072 
L 295.346777 -171.072 
L 295.029421 -171.072 
L 294.712066 -171.072 
L 294.394711 -171.072 
L 294.077355 -171.072 
L 293.76 -171.072 
L 293.442645 -171.072 
L 293.125289 -171.072 
L 292.807934 -171.072 
L 292.490579 -171.072 
L 292.173223 -171.072 
L 291.855868 -171.072 
L 291.538512 -171.072 
L 291.221157 -171.072 
L 290.903802 -171.072 
L 290.586446 -171.072 
L 290.269091 -171.072 
L 289.951736 -171.072 
L 289.63438 -171.072 
L 289.317025 -171.072 
L 288.999669 -171.072 
L 288.682314 -171.072 
L 288.364959 -171.072 
L 288.047603 -171.072 
L 287.730248 -171.072 
L 287.412893 -171.072 
L 287.095537 -171.072 
L 286.778182 -171.072 
L 286.460826 -171.072 
L 286.143471 -171.072 
L 285.826116 -171.072 
L 285.50876 -171.072 
L 285.191405 -171.072 
L 284.87405 -171.072 
L 284.556694 -171.072 
L 284.239339 -171.072 
L 283.921983 -171.072 
L 283.604628 -171.072 
L 283.287273 -171.072 
L 282.969917 -171.072 
L 282.652562 -171.072 
L 282.335207 -171.072 
L 282.017851 -171.072 
L 281.700496 -171.072 
L 281.38314 -171.072 
L 281.065785 -171.072 
L 280.74843 -171.072 
L 280.431074 -171.072 
L 280.113719 -171.072 
L 279.796364 -171.072 
L 279.479008 -171.072 
L 279.161653 -171.072 
L 278.844298 -171.072 
L 278.526942 -171.072 
L 278.209587 -171.072 
L 277.892231 -171.072 
L 277.574876 -171.072 
L 277.257521 -171.072 
L 276.940165 -171.072 
L 276.62281 -171.072 
L 276.305455 -171.072 
L 275.988099 -171.072 
L 275.670744 -171.072 
L 275.353388 -171.072 
L 275.036033 -171.072 
L 274.718678 -171.072 
L 274.401322 -171.072 
L 274.083967 -171.072 
L 273.766612 -171.072 
L 273.449256 -171.072 
L 273.131901 -171.072 
L 272.814545 -171.072 
L 272.49719 -171.072 
L 272.179835 -171.072 
L 271.862479 -171.072 
L 271.545124 -171.072 
L 271.227769 -171.072 
L 270.910413 -171.072 
L 270.593058 -171.072 
L 270.275702 -171.072 
L 269.958347 -171.072 
L 269.640992 -171.072 
L 269.323636 -171.072 
L 269.006281 -171.072 
L 268.688926 -171.072 
L 268.37157 -171.072 
L 268.054215 -171.072 
L 267.73686 -171.072 
L 267.419504 -171.072 
L 267.102149 -171.072 
L 266.784793 -171.072 
L 266.467438 -171.072 
L 266.150083 -171.072 
L 265.832727 -171.072 
L 265.515372 -171.072 
L 265.198017 -171.072 
L 264.880661 -171.072 
L 264.563306 -171.072 
L 264.24595 -171.072 
L 263.928595 -171.072 
L 263.61124 -171.072 
L 263.293884 -171.072 
L 262.976529 -171.072 
L 262.659174 -171.072 
L 262.341818 -171.072 
L 262.024463 -171.072 
L 261.707107 -171.072 
L 261.389752 -171.072 
L 261.072397 -171.072 
L 260.755041 -171.072 
L 260.437686 -171.072 
L 260.120331 -171.072 
L 259.802975 -171.072 
L 259.48562 -171.072 
L 259.168264 -171.072 
L 258.850909 -171.072 
L 258.533554 -171.072 
L 258.216198 -171.072 
L 257.898843 -171.072 
L 257.581488 -171.072 
L 257.264132 -171.072 
L 256.946777 -171.072 
L 256.629421 -171.072 
L 256.312066 -171.072 
L 255.994711 -171.072 
L 255.677355 -171.072 
L 255.36 -171.072 
L 255.042645 -171.072 
L 254.725289 -171.072 
L 254.407934 -171.072 
L 254.090579 -171.072 
L 253.773223 -171.072 
L 253.455868 -171.072 
L 253.138512 -171.072 
L 252.821157 -171.072 
L 252.503802 -171.072 
L 252.186446 -171.072 
L 251.869091 -171.072 
L 251.551736 -171.072 
L 251.23438 -171.072 
L 250.917025 -171.072 
L 250.599669 -171.072 
L 250.282314 -171.072 
L 249.964959 -171.072 
L 249.647603 -171.072 
L 249.330248 -171.072 
L 249.012893 -171.072 
L 248.695537 -171.072 
L 248.378182 -171.072 
L 248.060826 -171.072 
L 247.743471 -171.072 
L 247.426116 -171.072 
L 247.10876 -171.072 
L 246.791405 -171.072 
L 246.47405 -171.072 
L 246.156694 -171.072 
L 245.839339 -171.072 
L 245.521983 -171.072 
L 245.204628 -171.072 
L 244.887273 -171.072 
L 244.569917 -171.072 
L 244.252562 -171.072 
L 243.935207 -171.072 
L 243.617851 -171.072 
L 243.300496 -171.072 
L 242.98314 -171.072 
L 242.665785 -171.072 
L 242.34843 -171.072 
L 242.031074 -171.072 
L 241.713719 -171.072 
L 241.396364 -171.072 
L 241.079008 -171.072 
L 240.761653 -171.072 
L 240.444298 -171.072 
L 240.126942 -171.072 
L 239.809587 -171.072 
L 239.492231 -171.072 
L 239.174876 -171.072 
L 238.857521 -171.072 
L 238.540165 -171.072 
L 238.22281 -171.072 
L 237.905455 -171.072 
L 237.588099 -171.072 
L 237.270744 -171.072 
L 236.953388 -171.072 
L 236.636033 -171.072 
L 236.318678 -171.072 
L 236.001322 -171.072 
L 235.683967 -171.072 
L 235.366612 -171.072 
L 235.049256 -171.072 
L 234.731901 -171.072 
L 234.414545 -171.072 
L 234.09719 -171.072 
L 233.779835 -171.072 
L 233.462479 -171.072 
L 233.145124 -171.072 
L 232.827769 -171.072 
L 232.510413 -171.072 
L 232.193058 -171.072 
L 231.875702 -171.072 
L 231.558347 -171.072 
L 231.240992 -171.072 
L 230.923636 -171.072 
L 230.606281 -171.072 
L 230.288926 -171.072 
L 229.97157 -171.072 
L 229.654215 -171.072 
L 229.33686 -171.072 
L 229.019504 -171.072 
L 228.702149 -171.072 
L 228.384793 -171.072 
L 228.067438 -171.072 
L 227.750083 -171.072 
L 227.432727 -171.072 
L 227.115372 -171.072 
L 226.798017 -171.072 
L 226.480661 -171.072 
L 226.163306 -171.072 
L 225.84595 -171.072 
L 225.528595 -171.072 
L 225.21124 -171.072 
L 224.893884 -171.072 
L 224.576529 -171.072 
L 224.259174 -171.072 
L 223.941818 -171.072 
L 223.624463 -171.072 
L 223.307107 -171.072 
L 222.989752 -171.072 
L 222.672397 -171.072 
L 222.355041 -171.072 
L 222.037686 -171.072 
L 221.720331 -171.072 
L 221.402975 -171.072 
L 221.08562 -171.072 
L 220.768264 -171.072 
L 220.450909 -171.072 
L 220.133554 -171.072 
L 219.816198 -171.072 
L 219.498843 -171.072 
L 219.181488 -171.072 
L 218.864132 -171.072 
L 218.546777 -171.072 
L 218.229421 -171.072 
L 217.912066 -171.072 
L 217.594711 -171.072 
L 217.277355 -171.072 
L 216.96 -171.072 
L 216.642645 -171.072 
L 216.325289 -171.072 
L 216.007934 -171.072 
L 215.690579 -171.072 
L 215.373223 -171.072 
L 215.055868 -171.072 
L 214.738512 -171.072 
L 214.421157 -171.072 
L 214.103802 -171.072 
L 213.786446 -171.072 
L 213.469091 -171.072 
L 213.151736 -171.072 
L 212.83438 -171.072 
L 212.517025 -171.072 
L 212.199669 -171.072 
L 211.882314 -171.072 
L 211.564959 -171.072 
L 211.247603 -171.072 
L 210.930248 -171.072 
L 210.612893 -171.072 
L 210.295537 -171.072 
L 209.978182 -171.072 
L 209.660826 -171.072 
L 209.343471 -171.072 
L 209.026116 -171.072 
L 208.70876 -171.072 
L 208.391405 -171.072 
L 208.07405 -171.072 
L 207.756694 -171.072 
L 207.439339 -171.072 
L 207.121983 -171.072 
L 206.804628 -171.072 
L 206.487273 -171.072 
L 206.169917 -171.072 
L 205.852562 -171.072 
L 205.535207 -171.072 
L 205.217851 -171.072 
L 204.900496 -171.072 
L 204.58314 -171.072 
L 204.265785 -171.072 
L 203.94843 -171.072 
L 203.631074 -171.072 
L 203.313719 -171.072 
L 202.996364 -171.072 
L 202.679008 -171.072 
L 202.361653 -171.072 
L 202.044298 -171.072 
L 201.726942 -171.072 
L 201.409587 -171.072 
L 201.092231 -171.072 
L 200.774876 -171.072 
L 200.457521 -171.072 
L 200.140165 -171.072 
L 199.82281 -171.072 
L 199.505455 -171.072 
L 199.188099 -171.072 
L 198.870744 -171.072 
L 198.553388 -171.072 
L 198.236033 -171.072 
L 197.918678 -171.072 
L 197.601322 -171.072 
L 197.283967 -171.072 
L 196.966612 -171.072 
L 196.649256 -171.072 
L 196.331901 -171.072 
L 196.014545 -171.072 
L 195.69719 -171.072 
L 195.379835 -171.072 
L 195.062479 -171.072 
L 194.745124 -171.072 
L 194.427769 -171.072 
L 194.110413 -171.072 
L 193.793058 -171.072 
L 193.475702 -171.072 
L 193.158347 -171.072 
L 192.840992 -171.072 
L 192.523636 -171.072 
L 192.206281 -171.072 
L 191.888926 -171.072 
L 191.57157 -171.072 
L 191.254215 -171.072 
L 190.93686 -171.072 
L 190.619504 -171.072 
L 190.302149 -171.072 
L 189.984793 -171.072 
L 189.667438 -171.072 
L 189.350083 -171.072 
L 189.032727 -171.072 
L 188.715372 -171.072 
L 188.398017 -171.072 
L 188.080661 -171.072 
L 187.763306 -171.072 
L 187.44595 -171.072 
L 187.128595 -171.072 
L 186.81124 -171.072 
L 186.493884 -171.072 
L 186.176529 -171.072 
L 185.859174 -171.072 
L 185.541818 -171.072 
L 185.224463 -171.072 
L 184.907107 -171.072 
L 184.589752 -171.072 
L 184.272397 -171.072 
L 183.955041 -171.072 
L 183.637686 -171.072 
L 183.320331 -171.072 
L 183.002975 -171.072 
L 182.68562 -171.072 
L 182.368264 -171.072 
L 182.050909 -171.072 
L 181.733554 -171.072 
L 181.416198 -171.072 
L 181.098843 -171.072 
L 180.781488 -171.072 
L 180.464132 -171.072 
L 180.146777 -171.072 
L 179.829421 -171.072 
L 179.512066 -171.072 
L 179.194711 -171.072 
L 178.877355 -171.072 
L 178.56 -171.072 
L 178.242645 -171.072 
L 177.925289 -171.072 
L 177.607934 -171.072 
L 177.290579 -171.072 
L 176.973223 -171.072 
L 176.655868 -171.072 
L 176.338512 -171.072 
L 176.021157 -171.072 
L 175.703802 -171.072 
L 175.386446 -171.072 
L 175.069091 -171.072 
L 174.751736 -171.072 
L 174.43438 -171.072 
L 174.117025 -171.072 
L 173.799669 -171.072 
L 173.482314 -171.072 
L 173.164959 -171.072 
L 172.847603 -171.072 
L 172.530248 -171.072 
L 172.212893 -171.072 
L 171.895537 -171.072 
L 171.578182 -171.072 
L 171.260826 -171.072 
L 170.943471 -171.072 
L 170.626116 -171.072 
L 170.30876 -171.072 
L 169.991405 -171.072 
L 169.67405 -171.072 
L 169.356694 -171.072 
L 169.039339 -171.072 
L 168.721983 -171.072 
L 168.404628 -171.072 
L 168.087273 -171.072 
L 167.769917 -171.072 
L 167.452562 -171.072 
L 167.135207 -171.072 
L 166.817851 -171.072 
L 166.500496 -171.072 
L 166.18314 -171.072 
L 165.865785 -171.072 
L 165.54843 -171.072 
L 165.231074 -171.072 
L 164.913719 -171.072 
L 164.596364 -171.072 
L 164.279008 -171.072 
L 163.961653 -171.072 
L 163.644298 -171.072 
L 163.326942 -171.072 
L 163.009587 -171.072 
L 162.692231 -171.072 
L 162.374876 -171.072 
L 162.057521 -171.072 
L 161.740165 -171.072 
L 161.42281 -171.072 
L 161.105455 -171.072 
L 160.788099 -171.072 
L 160.470744 -171.072 
L 160.153388 -171.072 
L 159.836033 -171.072 
L 159.518678 -171.072 
L 159.201322 -171.072 
L 158.883967 -171.072 
L 158.566612 -171.072 
L 158.249256 -171.072 
L 157.931901 -171.072 
L 157.614545 -171.072 
L 157.29719 -171.072 
L 156.979835 -171.072 
L 156.662479 -171.072 
L 156.345124 -171.072 
L 156.027769 -171.072 
L 155.710413 -171.072 
L 155.393058 -171.072 
L 155.075702 -171.072 
L 154.758347 -171.072 
L 154.440992 -171.072 
L 154.123636 -171.072 
L 153.806281 -171.072 
L 153.488926 -171.072 
L 153.17157 -171.072 
L 152.854215 -171.072 
L 152.53686 -171.072 
L 152.219504 -171.072 
L 151.902149 -171.072 
L 151.584793 -171.072 
L 151.267438 -171.072 
L 150.950083 -171.072 
L 150.632727 -171.072 
L 150.315372 -171.072 
L 149.998017 -171.072 
L 149.680661 -171.072 
L 149.363306 -171.072 
L 149.04595 -171.072 
L 148.728595 -171.072 
L 148.41124 -171.072 
L 148.093884 -171.072 
L 147.776529 -171.072 
L 147.459174 -171.072 
L 147.141818 -171.072 
L 146.824463 -171.072 
L 146.507107 -171.072 
L 146.189752 -171.072 
L 145.872397 -171.072 
L 145.555041 -171.072 
L 145.237686 -171.072 
L 144.920331 -171.072 
L 144.602975 -171.072 
L 144.28562 -171.072 
L 143.968264 -171.072 
L 143.650909 -171.072 
L 143.333554 -171.072 
L 143.016198 -171.072 
L 142.698843 -171.072 
L 142.381488 -171.072 
L 142.064132 -171.072 
L 141.746777 -171.072 
L 141.429421 -171.072 
L 141.112066 -171.072 
L 140.794711 -171.072 
L 140.477355 -171.072 
L 140.16 -171.072 
L 139.842645 -171.072 
L 139.525289 -171.072 
L 139.207934 -171.072 
L 138.890579 -171.072 
L 138.573223 -171.072 
L 138.255868 -171.072 
L 137.938512 -171.072 
L 137.621157 -171.072 
L 137.303802 -171.072 
L 136.986446 -171.072 
L 136.669091 -171.072 
L 136.351736 -171.072 
L 136.03438 -171.072 
L 135.717025 -171.072 
L 135.399669 -171.072 
L 135.082314 -171.072 
L 134.764959 -171.072 
L 134.447603 -171.072 
L 134.130248 -171.072 
L 133.812893 -171.072 
L 133.495537 -171.072 
L 133.178182 -171.072 
L 132.860826 -171.072 
L 132.543471 -171.072 
L 132.226116 -171.072 
L 131.90876 -171.072 
L 131.591405 -171.072 
L 131.27405 -171.072 
L 130.956694 -171.072 
L 130.639339 -171.072 
L 130.321983 -171.072 
L 130.004628 -171.072 
L 129.687273 -171.072 
L 129.369917 -171.072 
L 129.052562 -171.072 
L 128.735207 -171.072 
L 128.417851 -171.072 
L 128.100496 -171.072 
L 127.78314 -171.072 
L 127.465785 -171.072 
L 127.14843 -171.072 
L 126.831074 -171.072 
L 126.513719 -171.072 
L 126.196364 -171.072 
L 125.879008 -171.072 
L 125.561653 -171.072 
L 125.244298 -171.072 
L 124.926942 -171.072 
L 124.609587 -171.072 
L 124.292231 -171.072 
L 123.974876 -171.072 
L 123.657521 -171.072 
L 123.340165 -171.072 
L 123.02281 -171.072 
L 122.705455 -171.072 
L 122.388099 -171.072 
L 122.070744 -171.072 
L 121.753388 -171.072 
L 121.436033 -171.072 
L 121.118678 -171.072 
L 120.801322 -171.072 
L 120.483967 -171.072 
L 120.166612 -171.072 
L 119.849256 -171.072 
L 119.531901 -171.072 
L 119.214545 -171.072 
L 118.89719 -171.072 
L 118.579835 -171.072 
L 118.262479 -171.072 
L 117.945124 -171.072 
L 117.627769 -171.072 
L 117.310413 -171.072 
L 116.993058 -171.072 
L 116.675702 -171.072 
L 116.358347 -171.072 
L 116.040992 -171.072 
L 115.723636 -171.072 
L 115.406281 -171.072 
L 115.088926 -171.072 
L 114.77157 -171.072 
L 114.454215 -171.072 
L 114.13686 -171.072 
L 113.819504 -171.072 
L 113.502149 -171.072 
L 113.184793 -171.072 
L 112.867438 -171.072 
L 112.550083 -171.072 
L 112.232727 -171.072 
L 111.915372 -171.072 
L 111.598017 -171.072 
L 111.280661 -171.072 
L 110.963306 -171.072 
L 110.64595 -171.072 
L 110.328595 -171.072 
L 110.01124 -171.072 
L 109.693884 -171.072 
L 109.376529 -171.072 
L 109.059174 -171.072 
L 108.741818 -171.072 
L 108.424463 -171.072 
L 108.107107 -171.072 
L 107.789752 -171.072 
L 107.472397 -171.072 
L 107.155041 -171.072 
L 106.837686 -171.072 
L 106.520331 -171.072 
L 106.202975 -171.072 
L 105.88562 -171.072 
L 105.568264 -171.072 
L 105.250909 -171.072 
L 104.933554 -171.072 
L 104.616198 -171.072 
L 104.298843 -171.072 
L 103.981488 -171.072 
L 103.664132 -171.072 
L 103.346777 -171.072 
L 103.029421 -171.072 
L 102.712066 -171.072 
L 102.394711 -171.072 
L 102.077355 -171.072 
L 101.76 -171.072 
L 101.442645 -171.072 
L 101.125289 -171.072 
L 100.807934 -171.072 
L 100.490579 -171.072 
L 100.173223 -171.072 
L 99.855868 -171.072 
L 99.538512 -171.072 
L 99.221157 -171.072 
L 98.903802 -171.072 
L 98.586446 -171.072 
L 98.269091 -171.072 
L 97.951736 -171.072 
L 97.63438 -171.072 
L 97.317025 -171.072 
L 96.999669 -171.072 
L 96.682314 -171.072 
L 96.364959 -171.072 
L 96.047603 -171.072 
L 95.730248 -171.072 
L 95.412893 -171.072 
L 95.095537 -171.072 
L 94.778182 -171.072 
L 94.460826 -171.072 
L 94.143471 -171.072 
L 93.826116 -171.072 
L 93.50876 -171.072 
L 93.191405 -171.072 
L 92.87405 -171.072 
L 92.556694 -171.072 
L 92.239339 -171.072 
L 91.921983 -171.072 
L 91.604628 -171.072 
L 91.287273 -171.072 
L 90.969917 -171.072 
L 90.652562 -171.072 
L 90.335207 -171.072 
L 90.017851 -171.072 
L 89.700496 -171.072 
L 89.38314 -171.072 
L 89.065785 -171.072 
L 88.74843 -171.072 
L 88.431074 -171.072 
L 88.113719 -171.072 
L 87.796364 -171.072 
L 87.479008 -171.072 
L 87.161653 -171.072 
L 86.844298 -171.072 
L 86.526942 -171.072 
L 86.209587 -171.072 
L 85.892231 -171.072 
L 85.574876 -171.072 
L 85.257521 -171.072 
L 84.940165 -171.072 
L 84.62281 -171.072 
L 84.305455 -171.072 
L 83.988099 -171.072 
L 83.670744 -171.072 
L 83.353388 -171.072 
L 83.036033 -171.072 
L 82.718678 -171.072 
L 82.401322 -171.072 
L 82.083967 -171.072 
L 81.766612 -171.072 
L 81.449256 -171.072 
L 81.131901 -171.072 
L 80.814545 -171.072 
L 80.49719 -171.072 
L 80.179835 -171.072 
L 79.862479 -171.072 
L 79.545124 -171.072 
L 79.227769 -171.072 
L 78.910413 -171.072 
L 78.593058 -171.072 
L 78.275702 -171.072 
L 77.958347 -171.072 
L 77.640992 -171.072 
L 77.323636 -171.072 
L 77.006281 -171.072 
L 76.688926 -171.072 
L 76.37157 -171.072 
L 76.054215 -171.072 
L 75.73686 -171.072 
L 75.419504 -171.072 
L 75.102149 -171.072 
L 74.784793 -171.072 
L 74.467438 -171.072 
L 74.150083 -171.072 
L 73.832727 -171.072 
z
" style="stroke: #87ceeb; stroke-opacity: 0.75"/>
    </defs>
    <g clip-path="url(#p0275979912)">
     <use xlink:href="#m362b6d9bbb" x="0" y="345.6" style="fill: #87ceeb; fill-opacity: 0.75; stroke: #87ceeb; stroke-opacity: 0.75"/>
    </g>
   </g>
   <g id="matplotlib.axis_1">
    <g id="xtick_1">
     <g id="line2d_1">
      <defs>
       <path id="mb01aaf5fc5" d="M 0 0 
L 0 3.5 
" style="stroke: #000000; stroke-width: 0.8"/>
      </defs>
      <g>
       <use xlink:href="#mb01aaf5fc5" x="73.832727" y="307.584" style="stroke: #000000; stroke-width: 0.8"/>
      </g>
     </g>
     <g id="text_1">
      <!-- 0 -->
      <g transform="translate(70.531868 322.161969) scale(0.11 -0.11)">
       <defs>
        <path id="AndaleMono-30" d="M 1913 4494 
Q 2613 4494 2989 3892 
Q 3366 3291 3366 2203 
Q 3366 1150 3000 533 
Q 2634 -84 1913 -84 
Q 1216 -84 837 516 
Q 459 1116 459 2203 
Q 459 3259 826 3876 
Q 1194 4494 1913 4494 
z
M 1913 366 
Q 2375 366 2598 805 
Q 2822 1244 2822 2203 
Q 2822 3166 2598 3602 
Q 2375 4038 1913 4038 
Q 1456 4038 1231 3591 
Q 1006 3144 1006 2203 
Q 1006 1250 1229 808 
Q 1453 366 1913 366 
z
M 1900 2672 
Q 2097 2672 2233 2536 
Q 2369 2400 2369 2203 
Q 2369 2000 2231 1854 
Q 2094 1709 1900 1709 
Q 1709 1709 1573 1854 
Q 1438 2000 1438 2203 
Q 1438 2403 1570 2537 
Q 1703 2672 1900 2672 
z
" transform="scale(0.015625)"/>
       </defs>
       <use xlink:href="#AndaleMono-30"/>
      </g>
     </g>
    </g>
    <g id="xtick_2">
     <g id="line2d_2">
      <g>
       <use xlink:href="#mb01aaf5fc5" x="137.303802" y="307.584" style="stroke: #000000; stroke-width: 0.8"/>
      </g>
     </g>
     <g id="text_2">
      <!-- 200 -->
      <g transform="translate(127.401224 322.161969) scale(0.11 -0.11)">
       <defs>
        <path id="AndaleMono-32" d="M 3066 0 
L 641 0 
L 641 372 
Q 1563 1400 1838 1750 
Q 2113 2100 2284 2484 
Q 2456 2869 2456 3250 
Q 2456 3619 2232 3831 
Q 2009 4044 1606 4044 
Q 1297 4044 775 3853 
L 703 4294 
Q 1175 4494 1691 4494 
Q 2281 4494 2642 4161 
Q 3003 3828 3003 3272 
Q 3003 2875 2817 2484 
Q 2631 2094 2340 1734 
Q 2050 1375 1209 447 
L 3066 447 
L 3066 0 
z
" transform="scale(0.015625)"/>
       </defs>
       <use xlink:href="#AndaleMono-32"/>
       <use xlink:href="#AndaleMono-30" x="60.009766"/>
       <use xlink:href="#AndaleMono-30" x="120.019531"/>
      </g>
     </g>
    </g>
    <g id="xtick_3">
     <g id="line2d_3">
      <g>
       <use xlink:href="#mb01aaf5fc5" x="200.774876" y="307.584" style="stroke: #000000; stroke-width: 0.8"/>
      </g>
     </g>
     <g id="text_3">
      <!-- 400 -->
      <g transform="translate(190.872298 322.161969) scale(0.11 -0.11)">
       <defs>
        <path id="AndaleMono-34" d="M 3353 1019 
L 2809 1019 
L 2809 0 
L 2297 0 
L 2297 1019 
L 378 1019 
L 378 1409 
L 2119 4409 
L 2809 4409 
L 2809 1466 
L 3353 1466 
L 3353 1019 
z
M 2297 1466 
L 2297 3903 
L 897 1466 
L 2297 1466 
z
" transform="scale(0.015625)"/>
       </defs>
       <use xlink:href="#AndaleMono-34"/>
       <use xlink:href="#AndaleMono-30" x="60.009766"/>
       <use xlink:href="#AndaleMono-30" x="120.019531"/>
      </g>
     </g>
    </g>
    <g id="xtick_4">
     <g id="line2d_4">
      <g>
       <use xlink:href="#mb01aaf5fc5" x="264.24595" y="307.584" style="stroke: #000000; stroke-width: 0.8"/>
      </g>
     </g>
     <g id="text_4">
      <!-- 600 -->
      <g transform="translate(254.343372 322.161969) scale(0.11 -0.11)">
       <defs>
        <path id="AndaleMono-36" d="M 1131 2297 
Q 1544 2631 2028 2631 
Q 2588 2631 2961 2273 
Q 3334 1916 3334 1350 
Q 3334 728 3003 322 
Q 2672 -84 2119 -84 
Q 1413 -84 1000 564 
Q 588 1213 588 2150 
Q 588 3150 1017 3822 
Q 1447 4494 2194 4494 
Q 2709 4494 3084 4341 
L 3003 3884 
Q 2569 4044 2209 4044 
Q 1700 4044 1415 3556 
Q 1131 3069 1131 2297 
z
M 1147 1856 
Q 1147 1291 1412 828 
Q 1678 366 2081 366 
Q 2422 366 2606 616 
Q 2791 866 2791 1306 
Q 2791 1713 2587 1947 
Q 2384 2181 2016 2181 
Q 1538 2181 1147 1856 
z
" transform="scale(0.015625)"/>
       </defs>
       <use xlink:href="#AndaleMono-36"/>
       <use xlink:href="#AndaleMono-30" x="60.009766"/>
       <use xlink:href="#AndaleMono-30" x="120.019531"/>
      </g>
     </g>
    </g>
    <g id="xtick_5">
     <g id="line2d_5">
      <g>
       <use xlink:href="#mb01aaf5fc5" x="327.717025" y="307.584" style="stroke: #000000; stroke-width: 0.8"/>
      </g>
     </g>
     <g id="text_5">
      <!-- 800 -->
      <g transform="translate(317.814447 322.161969) scale(0.11 -0.11)">
       <defs>
        <path id="AndaleMono-38" d="M 2363 2419 
Q 2813 2288 3061 1972 
Q 3309 1656 3309 1234 
Q 3309 628 2907 272 
Q 2506 -84 1919 -84 
Q 1303 -84 908 275 
Q 513 634 513 1228 
Q 513 1647 769 1965 
Q 1025 2284 1484 2419 
Q 1119 2513 898 2780 
Q 678 3047 678 3378 
Q 678 3803 1015 4148 
Q 1353 4494 1906 4494 
Q 2453 4494 2811 4150 
Q 3169 3806 3169 3378 
Q 3169 3056 2944 2786 
Q 2719 2516 2363 2419 
z
M 1906 2631 
Q 1922 2631 2056 2668 
Q 2191 2706 2286 2761 
Q 2381 2816 2462 2900 
Q 2544 2984 2594 3098 
Q 2644 3213 2644 3353 
Q 2644 3653 2428 3851 
Q 2213 4050 1906 4050 
Q 1609 4050 1396 3847 
Q 1184 3644 1184 3353 
Q 1184 3169 1261 3031 
Q 1338 2894 1452 2809 
Q 1566 2725 1714 2678 
Q 1863 2631 1906 2631 
z
M 1906 2194 
Q 1050 1944 1050 1253 
Q 1050 850 1309 608 
Q 1569 366 1919 366 
Q 2281 366 2529 605 
Q 2778 844 2778 1253 
Q 2778 1563 2606 1808 
Q 2434 2053 1906 2194 
z
" transform="scale(0.015625)"/>
       </defs>
       <use xlink:href="#AndaleMono-38"/>
       <use xlink:href="#AndaleMono-30" x="60.009766"/>
       <use xlink:href="#AndaleMono-30" x="120.019531"/>
      </g>
     </g>
    </g>
    <g id="xtick_6">
     <g id="line2d_6">
      <g>
       <use xlink:href="#mb01aaf5fc5" x="391.188099" y="307.584" style="stroke: #000000; stroke-width: 0.8"/>
      </g>
     </g>
     <g id="text_6">
      <!-- 1000 -->
      <g transform="translate(377.984662 322.161969) scale(0.11 -0.11)">
       <defs>
        <path id="AndaleMono-31" d="M 3181 0 
L 863 0 
L 863 447 
L 1797 447 
L 1797 3872 
L 916 3431 
L 916 3944 
L 1869 4434 
L 2309 4434 
L 2309 447 
L 3181 447 
L 3181 0 
z
" transform="scale(0.015625)"/>
       </defs>
       <use xlink:href="#AndaleMono-31"/>
       <use xlink:href="#AndaleMono-30" x="60.009766"/>
       <use xlink:href="#AndaleMono-30" x="120.019531"/>
       <use xlink:href="#AndaleMono-30" x="180.029297"/>
      </g>
     </g>
    </g>
   </g>
   <g id="matplotlib.axis_2">
    <g id="ytick_1">
     <g id="line2d_7">
      <defs>
       <path id="m0928e02b6b" d="M 0 0 
L -3.5 0 
" style="stroke: #000000; stroke-width: 0.8"/>
      </defs>
      <g>
       <use xlink:href="#m0928e02b6b" x="57.6" y="295.488" style="stroke: #000000; stroke-width: 0.8"/>
      </g>
     </g>
     <g id="text_7">
      <!-- 1.00 -->
      <g transform="translate(17.591406 299.276984) scale(0.11 -0.11)">
       <defs>
        <path id="AndaleMono-2212" d="M 3397 2047 
L 441 2047 
L 441 2456 
L 3397 2456 
L 3397 2047 
z
" transform="scale(0.015625)"/>
        <path id="AndaleMono-2e" d="M 1900 716 
Q 2066 716 2178 603 
Q 2291 491 2291 325 
Q 2291 156 2177 36 
Q 2063 -84 1900 -84 
Q 1741 -84 1628 36 
Q 1516 156 1516 325 
Q 1516 494 1627 605 
Q 1738 716 1900 716 
z
" transform="scale(0.015625)"/>
       </defs>
       <use xlink:href="#AndaleMono-2212"/>
       <use xlink:href="#AndaleMono-31" x="60.009766"/>
       <use xlink:href="#AndaleMono-2e" x="120.019531"/>
       <use xlink:href="#AndaleMono-30" x="180.029297"/>
       <use xlink:href="#AndaleMono-30" x="240.039062"/>
      </g>
     </g>
    </g>
    <g id="ytick_2">
     <g id="line2d_8">
      <g>
       <use xlink:href="#m0928e02b6b" x="57.6" y="265.248" style="stroke: #000000; stroke-width: 0.8"/>
      </g>
     </g>
     <g id="text_8">
      <!-- 0.75 -->
      <g transform="translate(17.591406 269.036984) scale(0.11 -0.11)">
       <defs>
        <path id="AndaleMono-37" d="M 3238 4044 
L 1491 0 
L 966 0 
L 2688 3963 
L 622 3963 
L 622 4409 
L 3238 4409 
L 3238 4044 
z
" transform="scale(0.015625)"/>
        <path id="AndaleMono-35" d="M 1356 2631 
Q 1569 2688 1772 2688 
Q 2397 2688 2759 2305 
Q 3122 1922 3122 1350 
Q 3122 750 2700 333 
Q 2278 -84 1672 -84 
Q 1094 -84 703 109 
L 806 544 
Q 1231 366 1684 366 
Q 2088 366 2336 625 
Q 2584 884 2584 1350 
Q 2584 1791 2350 2028 
Q 2116 2266 1747 2266 
Q 1478 2266 1216 2163 
L 909 2303 
L 909 4409 
L 2925 4409 
L 2925 3963 
L 1356 3963 
L 1356 2631 
z
" transform="scale(0.015625)"/>
       </defs>
       <use xlink:href="#AndaleMono-2212"/>
       <use xlink:href="#AndaleMono-30" x="60.009766"/>
       <use xlink:href="#AndaleMono-2e" x="120.019531"/>
       <use xlink:href="#AndaleMono-37" x="180.029297"/>
       <use xlink:href="#AndaleMono-35" x="240.039062"/>
      </g>
     </g>
    </g>
    <g id="ytick_3">
     <g id="line2d_9">
      <g>
       <use xlink:href="#m0928e02b6b" x="57.6" y="235.008" style="stroke: #000000; stroke-width: 0.8"/>
      </g>
     </g>
     <g id="text_9">
      <!-- 0.50 -->
      <g transform="translate(17.591406 238.796984) scale(0.11 -0.11)">
       <use xlink:href="#AndaleMono-2212"/>
       <use xlink:href="#AndaleMono-30" x="60.009766"/>
       <use xlink:href="#AndaleMono-2e" x="120.019531"/>
       <use xlink:href="#AndaleMono-35" x="180.029297"/>
       <use xlink:href="#AndaleMono-30" x="240.039062"/>
      </g>
     </g>
    </g>
    <g id="ytick_4">
     <g id="line2d_10">
      <g>
       <use xlink:href="#m0928e02b6b" x="57.6" y="204.768" style="stroke: #000000; stroke-width: 0.8"/>
      </g>
     </g>
     <g id="text_10">
      <!-- 0.25 -->
      <g transform="translate(17.591406 208.556984) scale(0.11 -0.11)">
       <use xlink:href="#AndaleMono-2212"/>
       <use xlink:href="#AndaleMono-30" x="60.009766"/>
       <use xlink:href="#AndaleMono-2e" x="120.019531"/>
       <use xlink:href="#AndaleMono-32" x="180.029297"/>
       <use xlink:href="#AndaleMono-35" x="240.039062"/>
      </g>
     </g>
    </g>
    <g id="ytick_5">
     <g id="line2d_11">
      <g>
       <use xlink:href="#m0928e02b6b" x="57.6" y="174.528" style="stroke: #000000; stroke-width: 0.8"/>
      </g>
     </g>
     <g id="text_11">
      <!-- 0.00 -->
      <g transform="translate(24.193125 178.316984) scale(0.11 -0.11)">
       <use xlink:href="#AndaleMono-30"/>
       <use xlink:href="#AndaleMono-2e" x="60.009766"/>
       <use xlink:href="#AndaleMono-30" x="120.019531"/>
       <use xlink:href="#AndaleMono-30" x="180.029297"/>
      </g>
     </g>
    </g>
    <g id="ytick_6">
     <g id="line2d_12">
      <g>
       <use xlink:href="#m0928e02b6b" x="57.6" y="144.288" style="stroke: #000000; stroke-width: 0.8"/>
      </g>
     </g>
     <g id="text_12">
      <!-- 0.25 -->
      <g transform="translate(24.193125 148.076984) scale(0.11 -0.11)">
       <use xlink:href="#AndaleMono-30"/>
       <use xlink:href="#AndaleMono-2e" x="60.009766"/>
       <use xlink:href="#AndaleMono-32" x="120.019531"/>
       <use xlink:href="#AndaleMono-35" x="180.029297"/>
      </g>
     </g>
    </g>
    <g id="ytick_7">
     <g id="line2d_13">
      <g>
       <use xlink:href="#m0928e02b6b" x="57.6" y="114.048" style="stroke: #000000; stroke-width: 0.8"/>
      </g>
     </g>
     <g id="text_13">
      <!-- 0.50 -->
      <g transform="translate(24.193125 117.836984) scale(0.11 -0.11)">
       <use xlink:href="#AndaleMono-30"/>
       <use xlink:href="#AndaleMono-2e" x="60.009766"/>
       <use xlink:href="#AndaleMono-35" x="120.019531"/>
       <use xlink:href="#AndaleMono-30" x="180.029297"/>
      </g>
     </g>
    </g>
    <g id="ytick_8">
     <g id="line2d_14">
      <g>
       <use xlink:href="#m0928e02b6b" x="57.6" y="83.808" style="stroke: #000000; stroke-width: 0.8"/>
      </g>
     </g>
     <g id="text_14">
      <!-- 0.75 -->
      <g transform="translate(24.193125 87.596984) scale(0.11 -0.11)">
       <use xlink:href="#AndaleMono-30"/>
       <use xlink:href="#AndaleMono-2e" x="60.009766"/>
       <use xlink:href="#AndaleMono-37" x="120.019531"/>
       <use xlink:href="#AndaleMono-35" x="180.029297"/>
      </g>
     </g>
    </g>
    <g id="ytick_9">
     <g id="line2d_15">
      <g>
       <use xlink:href="#m0928e02b6b" x="57.6" y="53.568" style="stroke: #000000; stroke-width: 0.8"/>
      </g>
     </g>
     <g id="text_15">
      <!-- 1.00 -->
      <g transform="translate(24.193125 57.356984) scale(0.11 -0.11)">
       <use xlink:href="#AndaleMono-31"/>
       <use xlink:href="#AndaleMono-2e" x="60.009766"/>
       <use xlink:href="#AndaleMono-30" x="120.019531"/>
       <use xlink:href="#AndaleMono-30" x="180.029297"/>
      </g>
     </g>
    </g>
   </g>
   <g id="line2d_16">
    <path d="M 73.832727 174.528 
L 74.150083 168.07249 
L 76.688926 165.965039 
L 79.545124 163.290476 
L 81.449256 161.088549 
L 83.353388 158.125042 
L 86.209587 152.52322 
L 87.479008 149.442847 
L 89.065785 144.799099 
L 90.652562 139.244837 
L 91.921983 134.394872 
L 93.50876 127.69592 
L 103.664132 81.179689 
L 105.88562 72.902801 
L 107.789752 67.037994 
L 109.376529 63.075877 
L 110.64595 60.722251 
L 111.598017 59.072056 
L 113.184793 57.191143 
L 113.819504 56.686782 
L 114.77157 56.186748 
L 115.723636 55.60916 
L 118.262479 54.847008 
L 119.214545 54.649748 
L 119.849256 54.467409 
L 120.483967 54.307555 
L 121.753388 53.970043 
L 127.14843 53.64452 
L 128.735207 53.763028 
L 130.639339 54.284977 
L 137.621157 57.509686 
L 143.016198 59.346928 
L 145.555041 60.305509 
L 146.824463 60.767073 
L 149.998017 61.817428 
L 152.219504 62.101439 
L 153.17157 62.132208 
L 155.710413 62.386224 
L 157.931901 63.216037 
L 159.201322 64.058774 
L 160.788099 65.623262 
L 162.374876 67.662606 
L 163.326942 69.076828 
L 169.991405 80.745155 
L 173.164959 85.316822 
L 174.117025 86.430892 
L 175.069091 87.397236 
L 175.703802 88.059935 
L 177.925289 89.419394 
L 179.194711 89.733073 
L 179.829421 89.807558 
L 181.733554 89.343313 
L 183.955041 87.919638 
L 184.589752 87.306479 
L 185.224463 86.828679 
L 189.667438 81.769805 
L 190.619504 80.594834 
L 191.57157 79.742254 
L 192.523636 78.710164 
L 193.475702 77.876857 
L 194.427769 76.952372 
L 195.379835 76.491338 
L 196.331901 75.7993 
L 196.966612 75.52717 
L 198.236033 74.691988 
L 199.505455 74.441846 
L 200.140165 74.156724 
L 201.092231 73.972267 
L 202.044298 73.613834 
L 204.58314 73.425513 
L 205.535207 73.16907 
L 206.169917 73.086026 
L 207.121983 73.120569 
L 208.391405 72.865872 
L 210.612893 72.667415 
L 211.247603 72.643878 
L 212.199669 72.563172 
L 212.83438 72.57923 
L 213.786446 72.484302 
L 215.055868 72.559774 
L 215.690579 72.469521 
L 216.325289 72.484742 
L 216.96 72.07101 
L 217.912066 71.313609 
L 218.864132 70.87925 
L 219.816198 70.194347 
L 220.768264 70.05017 
L 221.402975 70.100321 
L 221.720331 70.262791 
L 222.355041 71.028342 
L 223.307107 72.633378 
L 223.941818 74.111685 
L 224.893884 77.103772 
L 225.84595 81.022838 
L 226.798017 86.246541 
L 228.067438 94.544936 
L 229.33686 104.532796 
L 230.606281 116.017316 
L 232.827769 138.76408 
L 242.031074 236.095996 
L 243.300496 247.136765 
L 244.569917 256.749504 
L 245.839339 264.661479 
L 246.791405 269.47121 
L 247.743471 273.029245 
L 248.695537 275.764501 
L 249.647603 277.521568 
L 250.282314 278.478909 
L 250.917025 278.955679 
L 251.551736 279.00583 
L 252.503802 278.861653 
L 255.042645 277.266742 
L 255.677355 276.732349 
L 255.994711 276.571258 
L 258.216198 276.530654 
L 258.850909 276.56573 
L 260.120331 276.492828 
L 260.755041 276.472356 
L 261.707107 276.388585 
L 262.659174 276.448228 
L 265.832727 275.936536 
L 266.467438 275.963222 
L 268.37157 275.611345 
L 269.640992 275.417071 
L 270.275702 275.442166 
L 274.718678 273.977865 
L 275.670744 273.376458 
L 276.305455 273.101754 
L 277.257521 272.375523 
L 277.892231 272.103628 
L 278.526942 271.535193 
L 279.479008 270.578355 
L 280.113719 270.08753 
L 281.38314 268.71571 
L 282.017851 268.141246 
L 284.87405 264.624075 
L 286.460826 262.990969 
L 287.095537 262.227321 
L 289.317025 260.45531 
L 289.951736 260.135473 
L 290.903802 259.568864 
L 291.538512 259.434196 
L 293.125289 259.322927 
L 294.077355 259.583516 
L 294.712066 259.740052 
L 295.346777 260.134845 
L 295.981488 260.618099 
L 296.616198 260.996065 
L 298.520331 262.949822 
L 299.789752 264.618968 
L 301.059174 266.322232 
L 306.77157 276.114736 
L 308.675702 279.41672 
L 309.627769 280.966604 
L 311.849256 283.79643 
L 313.436033 285.246934 
L 315.340165 286.345244 
L 316.926942 286.76052 
L 317.879008 286.828248 
L 320.735207 287.058361 
L 322.004628 287.183148 
L 323.27405 287.484756 
L 324.860826 288.033108 
L 326.130248 288.476449 
L 329.621157 289.795513 
L 330.573223 290.082255 
L 331.842645 290.599449 
L 332.477355 290.743925 
L 333.429421 291.172573 
L 335.650909 291.902754 
L 337.555041 292.888071 
L 339.776529 293.866119 
L 342.315372 294.975419 
L 344.53686 295.424651 
L 345.488926 295.449082 
L 346.440992 295.464029 
L 351.518678 294.851288 
L 353.740165 294.245784 
L 355.009587 294.03009 
L 357.231074 293.087573 
L 358.18314 292.514165 
L 358.817851 292.154814 
L 359.769917 291.171875 
L 361.039339 289.511117 
L 363.260826 285.256308 
L 364.847603 281.173369 
L 365.799669 278.219503 
L 367.386446 272.799642 
L 369.607934 263.89734 
L 372.146777 252.513993 
L 375.002975 239.076035 
L 379.44595 218.590695 
L 381.350083 210.978323 
L 383.57157 203.314012 
L 385.158347 198.842566 
L 386.745124 195.213723 
L 387.69719 193.370922 
L 390.870744 188.218964 
L 392.140165 186.706939 
L 393.726942 185.132521 
L 398.169917 181.235023 
L 398.487273 174.528 
L 398.487273 174.528 
" clip-path="url(#p0275979912)" style="fill: none; stroke: #87ceeb; stroke-opacity: 0.75; stroke-linecap: square"/>
   </g>
   <g id="patch_3">
    <path d="M 57.6 307.584 
L 57.6 41.472 
" style="fill: none; stroke: #000000; stroke-width: 0.8; stroke-linejoin: miter; stroke-linecap: square"/>
   </g>
   <g id="patch_4">
    <path d="M 414.72 307.584 
L 414.72 41.472 
" style="fill: none; stroke: #000000; stroke-width: 0.8; stroke-linejoin: miter; stroke-linecap: square"/>
   </g>
   <g id="patch_5">
    <path d="M 57.6 307.584 
L 414.72 307.584 
" style="fill: none; stroke: #000000; stroke-width: 0.8; stroke-linejoin: miter; stroke-linecap: square"/>
   </g>
   <g id="patch_6">
    <path d="M 57.6 41.472 
L 414.72 41.472 
" style="fill: none; stroke: #000000; stroke-width: 0.8; stroke-linejoin: miter; stroke-linecap: square"/>
   </g>
  </g>
 </g>
 <defs>
  <clipPath id="p0275979912">
   <rect x="57.6" y="41.472" width="357.12" height="266.112"/>
  </clipPath>
 </defs>
</svg>
