<?xml version="1.0" encoding="utf-8" standalone="no"?>
<!DOCTYPE svg PUBLIC "-//W3C//DTD SVG 1.1//EN"
  "http://www.w3.org/Graphics/SVG/1.1/DTD/svg11.dtd">
<svg xmlns:xlink="http://www.w3.org/1999/xlink" width="460.8pt" height="345.6pt" viewBox="0 0 460.8 345.6" xmlns="http://www.w3.org/2000/svg" version="1.1">
 <metadata>
  <rdf:RDF xmlns:dc="http://purl.org/dc/elements/1.1/" xmlns:cc="http://creativecommons.org/ns#" xmlns:rdf="http://www.w3.org/1999/02/22-rdf-syntax-ns#">
   <cc:Work>
    <dc:type rdf:resource="http://purl.org/dc/dcmitype/StillImage"/>
    <dc:date>2024-04-23T11:13:07.011393</dc:date>
    <dc:format>image/svg+xml</dc:format>
    <dc:creator>
     <cc:Agent>
      <dc:title>Matplotlib v3.8.3, https://matplotlib.org/</dc:title>
     </cc:Agent>
    </dc:creator>
   </cc:Work>
  </rdf:RDF>
 </metadata>
 <defs>
  <style type="text/css">*{stroke-linejoin: round; stroke-linecap: butt}</style>
 </defs>
 <g id="figure_1">
  <g id="patch_1">
   <path d="M 0 345.6 
L 460.8 345.6 
L 460.8 0 
L 0 0 
z
" style="fill: #ffffff"/>
  </g>
  <g id="axes_1">
   <g id="patch_2">
    <path d="M 57.6 307.584 
L 414.72 307.584 
L 414.72 41.472 
L 57.6 41.472 
z
" style="fill: #ffffff"/>
   </g>
   <g id="PolyCollection_1">
    <defs>
     <path id="md1b2f7bd1e" d="M 73.832727 -170.92996 
L 73.832727 -170.92996 
L 74.150083 -245.188144 
L 74.467438 -246.554427 
L 74.784793 -247.828464 
L 75.102149 -249.024293 
L 75.419504 -250.154991 
L 75.73686 -251.246983 
L 76.054215 -252.33317 
L 76.37157 -253.4327 
L 76.688926 -254.569593 
L 77.006281 -255.765857 
L 77.323636 -257.034916 
L 77.640992 -258.387319 
L 77.958347 -259.817595 
L 78.275702 -261.298344 
L 78.593058 -262.794316 
L 78.910413 -264.287715 
L 79.227769 -265.803103 
L 79.545124 -267.352479 
L 79.862479 -268.947801 
L 80.179835 -270.586897 
L 80.49719 -272.262727 
L 80.814545 -273.968713 
L 81.131901 -275.693966 
L 81.449256 -277.440465 
L 81.766612 -279.206473 
L 82.083967 -280.998927 
L 82.401322 -282.811027 
L 82.718678 -284.651549 
L 83.036033 -286.508475 
L 83.353388 -288.365728 
L 83.670744 -290.203148 
L 83.988099 -292.032 
L 84.305455 -291.134879 
L 84.62281 -290.206082 
L 84.940165 -289.23664 
L 85.257521 -288.240205 
L 85.574876 -287.204142 
L 85.892231 -286.139907 
L 86.209587 -285.044354 
L 86.526942 -283.921509 
L 86.844298 -282.784489 
L 87.161653 -281.646176 
L 87.479008 -280.505127 
L 87.796364 -279.378516 
L 88.113719 -278.269056 
L 88.431074 -277.174567 
L 88.74843 -276.088592 
L 89.065785 -274.995315 
L 89.38314 -273.876567 
L 89.700496 -272.747174 
L 90.017851 -271.622105 
L 90.335207 -270.51956 
L 90.652562 -269.455967 
L 90.969917 -268.444974 
L 91.287273 -267.474333 
L 91.604628 -266.549081 
L 91.921983 -265.671433 
L 92.239339 -264.82175 
L 92.556694 -263.995463 
L 92.87405 -263.188828 
L 93.191405 -262.392692 
L 93.50876 -261.617016 
L 93.826116 -260.870239 
L 94.143471 -260.155094 
L 94.460826 -259.551811 
L 94.778182 -259.029185 
L 95.095537 -258.603519 
L 95.412893 -258.263556 
L 95.730248 -257.996409 
L 96.047603 -257.781107 
L 96.364959 -257.579173 
L 96.682314 -257.374681 
L 96.999669 -257.142168 
L 97.317025 -256.857416 
L 97.63438 -256.502346 
L 97.951736 -256.066634 
L 98.269091 -255.539014 
L 98.586446 -254.952536 
L 98.903802 -254.329732 
L 99.221157 -253.683891 
L 99.538512 -252.988622 
L 99.855868 -252.233388 
L 100.173223 -251.4177 
L 100.490579 -250.550013 
L 100.807934 -249.649051 
L 101.125289 -248.730439 
L 101.442645 -247.811571 
L 101.76 -246.877624 
L 102.077355 -245.926559 
L 102.394711 -244.935398 
L 102.712066 -243.901337 
L 103.029421 -242.802034 
L 103.346777 -241.651298 
L 103.664132 -240.472299 
L 103.981488 -239.30383 
L 104.298843 -238.128227 
L 104.616198 -236.982145 
L 104.933554 -235.848462 
L 105.250909 -234.744547 
L 105.568264 -233.661604 
L 105.88562 -232.629838 
L 106.202975 -231.632159 
L 106.520331 -230.685867 
L 106.837686 -229.794345 
L 107.155041 -228.941417 
L 107.472397 -228.112611 
L 107.789752 -227.323185 
L 108.107107 -226.541199 
L 108.424463 -225.772836 
L 108.741818 -225.027586 
L 109.059174 -224.313716 
L 109.376529 -223.650458 
L 109.693884 -223.053885 
L 110.01124 -222.507629 
L 110.328595 -221.986298 
L 110.64595 -221.475031 
L 110.963306 -220.96455 
L 111.280661 -220.450834 
L 111.598017 -219.95453 
L 111.915372 -219.477682 
L 112.232727 -219.016395 
L 112.550083 -218.595394 
L 112.867438 -218.210397 
L 113.184793 -217.863921 
L 113.502149 -217.556178 
L 113.819504 -217.274332 
L 114.13686 -217.007921 
L 114.454215 -216.749313 
L 114.77157 -216.488244 
L 115.088926 -216.223638 
L 115.406281 -215.95764 
L 115.723636 -215.684194 
L 116.040992 -215.403234 
L 116.358347 -215.1032 
L 116.675702 -214.792867 
L 116.993058 -214.474294 
L 117.310413 -214.151935 
L 117.627769 -213.821804 
L 117.945124 -213.490773 
L 118.262479 -213.148932 
L 118.579835 -212.82092 
L 118.89719 -212.499342 
L 119.214545 -212.196518 
L 119.531901 -211.92818 
L 119.849256 -211.694992 
L 120.166612 -211.488324 
L 120.483967 -211.297113 
L 120.801322 -211.10262 
L 121.118678 -210.888464 
L 121.436033 -210.64101 
L 121.753388 -210.363702 
L 122.070744 -210.064397 
L 122.388099 -209.759579 
L 122.705455 -209.465823 
L 123.02281 -209.20555 
L 123.340165 -208.985127 
L 123.657521 -208.806687 
L 123.974876 -208.657871 
L 124.292231 -208.511112 
L 124.609587 -208.371083 
L 124.926942 -208.223356 
L 125.244298 -208.096067 
L 125.561653 -207.994343 
L 125.879008 -207.922712 
L 126.196364 -207.863973 
L 126.513719 -207.832239 
L 126.831074 -207.813236 
L 127.14843 -207.802417 
L 127.465785 -207.802129 
L 127.78314 -207.819083 
L 128.100496 -207.831643 
L 128.417851 -207.866122 
L 128.735207 -207.903718 
L 129.052562 -207.93848 
L 129.369917 -207.976074 
L 129.687273 -208.001387 
L 130.004628 -208.020714 
L 130.321983 -208.035092 
L 130.639339 -208.056119 
L 130.956694 -208.080595 
L 131.27405 -208.101128 
L 131.591405 -208.110944 
L 131.90876 -208.105685 
L 132.226116 -208.070532 
L 132.543471 -208.005299 
L 132.860826 -207.907269 
L 133.178182 -207.792451 
L 133.495537 -207.658624 
L 133.812893 -207.51728 
L 134.130248 -207.373097 
L 134.447603 -207.220172 
L 134.764959 -207.061784 
L 135.082314 -206.897562 
L 135.399669 -206.731743 
L 135.717025 -206.545258 
L 136.03438 -206.349454 
L 136.351736 -206.152513 
L 136.669091 -205.96569 
L 136.986446 -205.794996 
L 137.303802 -205.622384 
L 137.621157 -205.442619 
L 137.938512 -205.272858 
L 138.255868 -205.106541 
L 138.573223 -204.955645 
L 138.890579 -204.813025 
L 139.207934 -204.676423 
L 139.525289 -204.542887 
L 139.842645 -204.390421 
L 140.16 -204.216162 
L 140.477355 -204.029383 
L 140.794711 -203.830808 
L 141.112066 -203.640119 
L 141.429421 -203.473621 
L 141.746777 -203.339407 
L 142.064132 -203.22593 
L 142.381488 -203.142342 
L 142.698843 -203.07335 
L 143.016198 -203.023483 
L 143.333554 -202.976131 
L 143.650909 -202.946079 
L 143.968264 -202.918286 
L 144.28562 -202.904651 
L 144.602975 -202.913497 
L 144.920331 -202.948155 
L 145.237686 -203.004884 
L 145.555041 -203.059155 
L 145.872397 -203.098134 
L 146.189752 -203.113937 
L 146.507107 -203.115089 
L 146.824463 -203.092466 
L 147.141818 -203.046548 
L 147.459174 -202.984959 
L 147.776529 -202.911735 
L 148.093884 -202.823535 
L 148.41124 -202.731406 
L 148.728595 -202.624282 
L 149.04595 -202.519282 
L 149.363306 -202.414905 
L 149.680661 -202.302551 
L 149.998017 -202.197779 
L 150.315372 -202.091047 
L 150.632727 -201.986787 
L 150.950083 -201.881376 
L 151.267438 -201.771146 
L 151.584793 -201.654251 
L 151.902149 -201.521279 
L 152.219504 -201.37168 
L 152.53686 -201.212174 
L 152.854215 -201.056513 
L 153.17157 -200.904102 
L 153.488926 -200.747355 
L 153.806281 -200.593848 
L 154.123636 -200.436592 
L 154.440992 -200.272961 
L 154.758347 -200.114355 
L 155.075702 -199.95871 
L 155.393058 -199.81234 
L 155.710413 -199.659491 
L 156.027769 -199.512219 
L 156.345124 -199.354118 
L 156.662479 -199.178708 
L 156.979835 -198.98193 
L 157.29719 -198.752892 
L 157.614545 -198.510207 
L 157.931901 -198.265856 
L 158.249256 -198.005734 
L 158.566612 -197.744034 
L 158.883967 -197.477368 
L 159.201322 -197.209504 
L 159.518678 -196.942134 
L 159.836033 -196.678708 
L 160.153388 -196.43278 
L 160.470744 -196.21443 
L 160.788099 -196.020548 
L 161.105455 -195.847491 
L 161.42281 -195.692107 
L 161.740165 -195.528177 
L 162.057521 -195.351215 
L 162.374876 -195.154533 
L 162.692231 -194.944139 
L 163.009587 -194.722 
L 163.326942 -194.48911 
L 163.644298 -194.255903 
L 163.961653 -194.010641 
L 164.279008 -193.773934 
L 164.596364 -193.533 
L 164.913719 -193.288392 
L 165.231074 -193.026107 
L 165.54843 -192.745173 
L 165.865785 -192.459495 
L 166.18314 -192.179132 
L 166.500496 -191.903371 
L 166.817851 -191.631019 
L 167.135207 -191.370886 
L 167.452562 -191.129904 
L 167.769917 -190.897542 
L 168.087273 -190.676428 
L 168.404628 -190.462529 
L 168.721983 -190.25414 
L 169.039339 -190.054095 
L 169.356694 -189.853265 
L 169.67405 -189.651421 
L 169.991405 -189.450906 
L 170.30876 -189.254387 
L 170.626116 -189.070163 
L 170.943471 -188.892105 
L 171.260826 -188.725386 
L 171.578182 -188.575459 
L 171.895537 -188.444274 
L 172.212893 -188.342584 
L 172.530248 -188.255541 
L 172.847603 -188.184866 
L 173.164959 -188.118167 
L 173.482314 -188.052295 
L 173.799669 -187.987431 
L 174.117025 -187.921147 
L 174.43438 -187.87016 
L 174.751736 -187.832572 
L 175.069091 -187.807637 
L 175.386446 -187.798072 
L 175.703802 -187.798063 
L 176.021157 -187.812391 
L 176.338512 -187.841814 
L 176.655868 -187.892162 
L 176.973223 -187.96526 
L 177.290579 -188.062916 
L 177.607934 -188.183421 
L 177.925289 -188.323026 
L 178.242645 -188.471568 
L 178.56 -188.629781 
L 178.877355 -188.788126 
L 179.194711 -188.946004 
L 179.512066 -189.092822 
L 179.829421 -189.226279 
L 180.146777 -189.352724 
L 180.464132 -189.469042 
L 180.781488 -189.567703 
L 181.098843 -189.652078 
L 181.416198 -189.727335 
L 181.733554 -189.786581 
L 182.050909 -189.850064 
L 182.368264 -189.91821 
L 182.68562 -190.001915 
L 183.002975 -190.086916 
L 183.320331 -190.172273 
L 183.637686 -190.247672 
L 183.955041 -190.301794 
L 184.272397 -190.339077 
L 184.589752 -190.348299 
L 184.907107 -190.341615 
L 185.224463 -190.32126 
L 185.541818 -190.308473 
L 185.859174 -190.306183 
L 186.176529 -190.304136 
L 186.493884 -190.299191 
L 186.81124 -190.29314 
L 187.128595 -190.276843 
L 187.44595 -190.246971 
L 187.763306 -190.203623 
L 188.080661 -190.147679 
L 188.398017 -190.078677 
L 188.715372 -190.005394 
L 189.032727 -189.931449 
L 189.350083 -189.854395 
L 189.667438 -189.780451 
L 189.984793 -189.71145 
L 190.302149 -189.644773 
L 190.619504 -189.568558 
L 190.93686 -189.485761 
L 191.254215 -189.396266 
L 191.57157 -189.295581 
L 191.888926 -189.188286 
L 192.206281 -189.080716 
L 192.523636 -188.970237 
L 192.840992 -188.879081 
L 193.158347 -188.810365 
L 193.475702 -188.760617 
L 193.793058 -188.725913 
L 194.110413 -188.705305 
L 194.427769 -188.695478 
L 194.745124 -188.681291 
L 195.062479 -188.665322 
L 195.379835 -188.643287 
L 195.69719 -188.621002 
L 196.014545 -188.59675 
L 196.331901 -188.582428 
L 196.649256 -188.570329 
L 196.966612 -188.563746 
L 197.283967 -188.556335 
L 197.601322 -188.543823 
L 197.918678 -188.534487 
L 198.236033 -188.531225 
L 198.553388 -188.532137 
L 198.870744 -188.534636 
L 199.188099 -188.535998 
L 199.505455 -188.531842 
L 199.82281 -188.534644 
L 200.140165 -188.5545 
L 200.457521 -188.579482 
L 200.774876 -188.607166 
L 201.092231 -188.637299 
L 201.409587 -188.665535 
L 201.726942 -188.687165 
L 202.044298 -188.702607 
L 202.361653 -188.701876 
L 202.679008 -188.688881 
L 202.996364 -188.657511 
L 203.313719 -188.609353 
L 203.631074 -188.551278 
L 203.94843 -188.495559 
L 204.265785 -188.444774 
L 204.58314 -188.400102 
L 204.900496 -188.366671 
L 205.217851 -188.336246 
L 205.535207 -188.309406 
L 205.852562 -188.27438 
L 206.169917 -188.235433 
L 206.487273 -188.197156 
L 206.804628 -188.148259 
L 207.121983 -188.09799 
L 207.439339 -188.05446 
L 207.756694 -188.020594 
L 208.07405 -187.991975 
L 208.391405 -187.966639 
L 208.70876 -187.937639 
L 209.026116 -187.901498 
L 209.343471 -187.851598 
L 209.660826 -187.790547 
L 209.978182 -187.717103 
L 210.295537 -187.638735 
L 210.612893 -187.563663 
L 210.930248 -187.502393 
L 211.247603 -187.447445 
L 211.564959 -187.41011 
L 211.882314 -187.393951 
L 212.199669 -187.389022 
L 212.517025 -187.382998 
L 212.83438 -187.373284 
L 213.151736 -187.34507 
L 213.469091 -187.293737 
L 213.786446 -187.222766 
L 214.103802 -187.148831 
L 214.421157 -187.077108 
L 214.738512 -187.012665 
L 215.055868 -186.953776 
L 215.373223 -186.906319 
L 215.690579 -186.869054 
L 216.007934 -186.834167 
L 216.325289 -186.804944 
L 216.642645 -186.776421 
L 216.96 -186.754172 
L 217.277355 -186.742703 
L 217.594711 -186.742637 
L 217.912066 -186.756646 
L 218.229421 -186.773359 
L 218.546777 -186.783962 
L 218.864132 -186.784383 
L 219.181488 -186.779208 
L 219.498843 -186.762234 
L 219.816198 -186.744027 
L 220.133554 -186.709119 
L 220.450909 -186.649889 
L 220.768264 -186.570458 
L 221.08562 -186.475962 
L 221.402975 -186.365585 
L 221.720331 -186.24113 
L 222.037686 -186.10231 
L 222.355041 -185.956775 
L 222.672397 -185.812891 
L 222.989752 -185.664282 
L 223.307107 -185.517434 
L 223.624463 -185.380727 
L 223.941818 -185.247928 
L 224.259174 -185.099288 
L 224.576529 -184.939266 
L 224.893884 -184.771691 
L 225.21124 -184.589009 
L 225.528595 -184.393961 
L 225.84595 -184.1755 
L 226.163306 -183.937722 
L 226.480661 -183.676392 
L 226.798017 -183.390239 
L 227.115372 -183.096435 
L 227.432727 -182.787609 
L 227.750083 -182.465975 
L 228.067438 -182.122991 
L 228.384793 -181.757593 
L 228.702149 -181.386687 
L 229.019504 -181.016462 
L 229.33686 -180.641575 
L 229.654215 -180.263863 
L 229.97157 -179.885991 
L 230.288926 -179.503764 
L 230.606281 -179.105657 
L 230.923636 -178.689616 
L 231.240992 -178.252831 
L 231.558347 -177.80138 
L 231.875702 -177.325637 
L 232.193058 -176.826657 
L 232.510413 -176.31129 
L 232.827769 -175.795757 
L 233.145124 -175.277404 
L 233.462479 -174.769352 
L 233.779835 -174.273149 
L 234.09719 -173.79578 
L 234.414545 -173.329566 
L 234.731901 -172.876654 
L 235.049256 -172.431706 
L 235.366612 -172.000564 
L 235.683967 -171.571154 
L 236.001322 -171.14322 
L 236.318678 -170.7167 
L 236.636033 -170.288767 
L 236.953388 -169.859356 
L 237.270744 -169.428214 
L 237.588099 -168.983267 
L 237.905455 -168.530354 
L 238.22281 -168.06414 
L 238.540165 -167.586771 
L 238.857521 -167.090568 
L 239.174876 -166.582516 
L 239.492231 -166.064163 
L 239.809587 -165.54863 
L 240.126942 -165.033263 
L 240.444298 -164.534283 
L 240.761653 -164.05854 
L 241.079008 -163.607089 
L 241.396364 -163.170304 
L 241.713719 -162.754263 
L 242.031074 -162.356156 
L 242.34843 -161.973929 
L 242.665785 -161.596057 
L 242.98314 -161.218345 
L 243.300496 -160.843458 
L 243.617851 -160.473234 
L 243.935207 -160.102327 
L 244.252562 -159.736929 
L 244.569917 -159.393945 
L 244.887273 -159.072311 
L 245.204628 -158.763485 
L 245.521983 -158.469681 
L 245.839339 -158.183528 
L 246.156694 -157.922199 
L 246.47405 -157.68442 
L 246.791405 -157.465959 
L 247.10876 -157.270911 
L 247.426116 -157.088229 
L 247.743471 -156.920654 
L 248.060826 -156.760632 
L 248.378182 -156.611992 
L 248.695537 -156.479193 
L 249.012893 -156.342486 
L 249.330248 -156.195638 
L 249.647603 -156.047029 
L 249.964959 -155.903145 
L 250.282314 -155.75761 
L 250.599669 -155.61879 
L 250.917025 -155.494335 
L 251.23438 -155.383958 
L 251.551736 -155.289462 
L 251.869091 -155.210031 
L 252.186446 -155.150801 
L 252.503802 -155.115893 
L 252.821157 -155.097687 
L 253.138512 -155.080712 
L 253.455868 -155.075537 
L 253.773223 -155.075958 
L 254.090579 -155.086561 
L 254.407934 -155.103274 
L 254.725289 -155.117283 
L 255.042645 -155.117217 
L 255.36 -155.105748 
L 255.677355 -155.0835 
L 255.994711 -155.054976 
L 256.312066 -155.025753 
L 256.629421 -154.990866 
L 256.946777 -154.953601 
L 257.264132 -154.906144 
L 257.581488 -154.847255 
L 257.898843 -154.782812 
L 258.216198 -154.711089 
L 258.533554 -154.637154 
L 258.850909 -154.566183 
L 259.168264 -154.51485 
L 259.48562 -154.486636 
L 259.802975 -154.476922 
L 260.120331 -154.470898 
L 260.437686 -154.465969 
L 260.755041 -154.44981 
L 261.072397 -154.412475 
L 261.389752 -154.357527 
L 261.707107 -154.296257 
L 262.024463 -154.221185 
L 262.341818 -154.142818 
L 262.659174 -154.069374 
L 262.976529 -154.008322 
L 263.293884 -153.958422 
L 263.61124 -153.922281 
L 263.928595 -153.893281 
L 264.24595 -153.867945 
L 264.563306 -153.839326 
L 264.880661 -153.80546 
L 265.198017 -153.76193 
L 265.515372 -153.711661 
L 265.832727 -153.662764 
L 266.150083 -153.624487 
L 266.467438 -153.58554 
L 266.784793 -153.550514 
L 267.102149 -153.523674 
L 267.419504 -153.493249 
L 267.73686 -153.459818 
L 268.054215 -153.415146 
L 268.37157 -153.364361 
L 268.688926 -153.308642 
L 269.006281 -153.250568 
L 269.323636 -153.20241 
L 269.640992 -153.171039 
L 269.958347 -153.158044 
L 270.275702 -153.157313 
L 270.593058 -153.172755 
L 270.910413 -153.194385 
L 271.227769 -153.222621 
L 271.545124 -153.252755 
L 271.862479 -153.280438 
L 272.179835 -153.30542 
L 272.49719 -153.325276 
L 272.814545 -153.328078 
L 273.131901 -153.323922 
L 273.449256 -153.325284 
L 273.766612 -153.327783 
L 274.083967 -153.328695 
L 274.401322 -153.325433 
L 274.718678 -153.316097 
L 275.036033 -153.303585 
L 275.353388 -153.296174 
L 275.670744 -153.289591 
L 275.988099 -153.277493 
L 276.305455 -153.26317 
L 276.62281 -153.238918 
L 276.940165 -153.216633 
L 277.257521 -153.194598 
L 277.574876 -153.178629 
L 277.892231 -153.164443 
L 278.209587 -153.154616 
L 278.526942 -153.134008 
L 278.844298 -153.099303 
L 279.161653 -153.049555 
L 279.479008 -152.98084 
L 279.796364 -152.889683 
L 280.113719 -152.779204 
L 280.431074 -152.671634 
L 280.74843 -152.564339 
L 281.065785 -152.463654 
L 281.38314 -152.374159 
L 281.700496 -152.291362 
L 282.017851 -152.215148 
L 282.335207 -152.14847 
L 282.652562 -152.07947 
L 282.969917 -152.005525 
L 283.287273 -151.928471 
L 283.604628 -151.854526 
L 283.921983 -151.781243 
L 284.239339 -151.712241 
L 284.556694 -151.656297 
L 284.87405 -151.612949 
L 285.191405 -151.583077 
L 285.50876 -151.56678 
L 285.826116 -151.560729 
L 286.143471 -151.555784 
L 286.460826 -151.553738 
L 286.778182 -151.551447 
L 287.095537 -151.53866 
L 287.412893 -151.518305 
L 287.730248 -151.511621 
L 288.047603 -151.520843 
L 288.364959 -151.558126 
L 288.682314 -151.612248 
L 288.999669 -151.687647 
L 289.317025 -151.773004 
L 289.63438 -151.858006 
L 289.951736 -151.94171 
L 290.269091 -152.009856 
L 290.586446 -152.073339 
L 290.903802 -152.132585 
L 291.221157 -152.207842 
L 291.538512 -152.292218 
L 291.855868 -152.390878 
L 292.173223 -152.507196 
L 292.490579 -152.633641 
L 292.807934 -152.767098 
L 293.125289 -152.913916 
L 293.442645 -153.071794 
L 293.76 -153.230139 
L 294.077355 -153.388352 
L 294.394711 -153.536894 
L 294.712066 -153.6765 
L 295.029421 -153.797004 
L 295.346777 -153.89466 
L 295.664132 -153.967758 
L 295.981488 -154.018106 
L 296.298843 -154.047529 
L 296.616198 -154.061857 
L 296.933554 -154.061848 
L 297.250909 -154.052283 
L 297.568264 -154.027348 
L 297.88562 -153.98976 
L 298.202975 -153.938773 
L 298.520331 -153.872489 
L 298.837686 -153.807625 
L 299.155041 -153.741753 
L 299.472397 -153.675054 
L 299.789752 -153.604379 
L 300.107107 -153.517336 
L 300.424463 -153.415646 
L 300.741818 -153.284461 
L 301.059174 -153.134534 
L 301.376529 -152.967815 
L 301.693884 -152.789757 
L 302.01124 -152.605533 
L 302.328595 -152.409014 
L 302.64595 -152.208499 
L 302.963306 -152.006655 
L 303.280661 -151.805825 
L 303.598017 -151.60578 
L 303.915372 -151.397391 
L 304.232727 -151.183492 
L 304.550083 -150.962378 
L 304.867438 -150.730017 
L 305.184793 -150.489034 
L 305.502149 -150.228901 
L 305.819504 -149.956549 
L 306.13686 -149.680788 
L 306.454215 -149.400425 
L 306.77157 -149.114747 
L 307.088926 -148.833813 
L 307.406281 -148.571528 
L 307.723636 -148.32692 
L 308.040992 -148.085986 
L 308.358347 -147.849279 
L 308.675702 -147.604017 
L 308.993058 -147.370811 
L 309.310413 -147.13792 
L 309.627769 -146.915781 
L 309.945124 -146.705387 
L 310.262479 -146.508705 
L 310.579835 -146.331743 
L 310.89719 -146.167813 
L 311.214545 -146.012429 
L 311.531901 -145.839372 
L 311.849256 -145.64549 
L 312.166612 -145.42714 
L 312.483967 -145.181212 
L 312.801322 -144.917786 
L 313.118678 -144.650416 
L 313.436033 -144.382552 
L 313.753388 -144.115886 
L 314.070744 -143.854186 
L 314.388099 -143.594064 
L 314.705455 -143.349713 
L 315.02281 -143.107028 
L 315.340165 -142.87799 
L 315.657521 -142.681212 
L 315.974876 -142.505802 
L 316.292231 -142.347702 
L 316.609587 -142.200429 
L 316.926942 -142.04758 
L 317.244298 -141.90121 
L 317.561653 -141.745565 
L 317.879008 -141.586959 
L 318.196364 -141.423328 
L 318.513719 -141.266072 
L 318.831074 -141.112565 
L 319.14843 -140.955818 
L 319.465785 -140.803407 
L 319.78314 -140.647746 
L 320.100496 -140.48824 
L 320.417851 -140.338642 
L 320.735207 -140.205669 
L 321.052562 -140.088774 
L 321.369917 -139.978544 
L 321.687273 -139.873133 
L 322.004628 -139.768873 
L 322.321983 -139.662141 
L 322.639339 -139.557369 
L 322.956694 -139.445015 
L 323.27405 -139.340638 
L 323.591405 -139.235638 
L 323.90876 -139.128514 
L 324.226116 -139.036385 
L 324.543471 -138.948185 
L 324.860826 -138.874961 
L 325.178182 -138.813373 
L 325.495537 -138.767454 
L 325.812893 -138.744831 
L 326.130248 -138.745983 
L 326.447603 -138.761786 
L 326.764959 -138.800765 
L 327.082314 -138.855037 
L 327.399669 -138.911765 
L 327.717025 -138.946423 
L 328.03438 -138.955269 
L 328.351736 -138.941634 
L 328.669091 -138.913841 
L 328.986446 -138.883789 
L 329.303802 -138.836437 
L 329.621157 -138.78657 
L 329.938512 -138.717578 
L 330.255868 -138.63399 
L 330.573223 -138.520514 
L 330.890579 -138.386299 
L 331.207934 -138.219801 
L 331.525289 -138.029112 
L 331.842645 -137.830537 
L 332.16 -137.643758 
L 332.477355 -137.469499 
L 332.794711 -137.317033 
L 333.112066 -137.183497 
L 333.429421 -137.046895 
L 333.746777 -136.904275 
L 334.064132 -136.753379 
L 334.381488 -136.587062 
L 334.698843 -136.417301 
L 335.016198 -136.237536 
L 335.333554 -136.064924 
L 335.650909 -135.89423 
L 335.968264 -135.707407 
L 336.28562 -135.510466 
L 336.602975 -135.314663 
L 336.920331 -135.128177 
L 337.237686 -134.962358 
L 337.555041 -134.798136 
L 337.872397 -134.639748 
L 338.189752 -134.486823 
L 338.507107 -134.34264 
L 338.824463 -134.201296 
L 339.141818 -134.067469 
L 339.459174 -133.952651 
L 339.776529 -133.854621 
L 340.093884 -133.789388 
L 340.41124 -133.754235 
L 340.728595 -133.748976 
L 341.04595 -133.758792 
L 341.363306 -133.779325 
L 341.680661 -133.803801 
L 341.998017 -133.824828 
L 342.315372 -133.839206 
L 342.632727 -133.858533 
L 342.950083 -133.883846 
L 343.267438 -133.92144 
L 343.584793 -133.956202 
L 343.902149 -133.993799 
L 344.219504 -134.028277 
L 344.53686 -134.040837 
L 344.854215 -134.057792 
L 345.17157 -134.057504 
L 345.488926 -134.046684 
L 345.806281 -134.027681 
L 346.123636 -133.995947 
L 346.440992 -133.937208 
L 346.758347 -133.865577 
L 347.075702 -133.763853 
L 347.393058 -133.636564 
L 347.710413 -133.488837 
L 348.027769 -133.348808 
L 348.345124 -133.202049 
L 348.662479 -133.053233 
L 348.979835 -132.874793 
L 349.29719 -132.65437 
L 349.614545 -132.394097 
L 349.931901 -132.100341 
L 350.249256 -131.795524 
L 350.566612 -131.496218 
L 350.883967 -131.218911 
L 351.201322 -130.971456 
L 351.518678 -130.7573 
L 351.836033 -130.562807 
L 352.153388 -130.371596 
L 352.470744 -130.164928 
L 352.788099 -129.93174 
L 353.105455 -129.663402 
L 353.42281 -129.360578 
L 353.740165 -129.039 
L 354.057521 -128.710988 
L 354.374876 -128.369147 
L 354.692231 -128.038116 
L 355.009587 -127.707985 
L 355.326942 -127.385626 
L 355.644298 -127.067053 
L 355.961653 -126.756721 
L 356.279008 -126.456686 
L 356.596364 -126.175726 
L 356.913719 -125.90228 
L 357.231074 -125.636282 
L 357.54843 -125.371677 
L 357.865785 -125.110607 
L 358.18314 -124.851999 
L 358.500496 -124.585588 
L 358.817851 -124.303742 
L 359.135207 -123.995999 
L 359.452562 -123.649523 
L 359.769917 -123.264526 
L 360.087273 -122.843525 
L 360.404628 -122.382238 
L 360.721983 -121.905391 
L 361.039339 -121.409086 
L 361.356694 -120.89537 
L 361.67405 -120.384889 
L 361.991405 -119.873622 
L 362.30876 -119.352291 
L 362.626116 -118.806035 
L 362.943471 -118.209463 
L 363.260826 -117.546204 
L 363.578182 -116.832334 
L 363.895537 -116.087084 
L 364.212893 -115.318721 
L 364.530248 -114.536736 
L 364.847603 -113.747309 
L 365.164959 -112.918503 
L 365.482314 -112.065575 
L 365.799669 -111.174053 
L 366.117025 -110.227761 
L 366.43438 -109.230082 
L 366.751736 -108.198316 
L 367.069091 -107.115374 
L 367.386446 -106.011458 
L 367.703802 -104.877775 
L 368.021157 -103.731694 
L 368.338512 -102.55609 
L 368.655868 -101.387621 
L 368.973223 -100.208622 
L 369.290579 -99.057886 
L 369.607934 -97.958583 
L 369.925289 -96.924522 
L 370.242645 -95.933361 
L 370.56 -94.982296 
L 370.877355 -94.04835 
L 371.194711 -93.129481 
L 371.512066 -92.210869 
L 371.829421 -91.309907 
L 372.146777 -90.442221 
L 372.464132 -89.626532 
L 372.781488 -88.871298 
L 373.098843 -88.176029 
L 373.416198 -87.530188 
L 373.733554 -86.907384 
L 374.050909 -86.320906 
L 374.368264 -85.793286 
L 374.68562 -85.357574 
L 375.002975 -85.002504 
L 375.320331 -84.717752 
L 375.637686 -84.485239 
L 375.955041 -84.280747 
L 376.272397 -84.078813 
L 376.589752 -83.863511 
L 376.907107 -83.596365 
L 377.224463 -83.256401 
L 377.541818 -82.830735 
L 377.859174 -82.308109 
L 378.176529 -81.704826 
L 378.493884 -81.012692 
L 378.81124 -80.313216 
L 379.128595 -79.586354 
L 379.44595 -78.840311 
L 379.763306 -78.084819 
L 380.080661 -77.310494 
L 380.398017 -76.513358 
L 380.715372 -75.688613 
L 381.032727 -74.816386 
L 381.350083 -73.898663 
L 381.667438 -72.940249 
L 381.984793 -71.928664 
L 382.302149 -70.877323 
L 382.619504 -69.802427 
L 382.93686 -68.72194 
L 383.254215 -67.650602 
L 383.57157 -66.603007 
L 383.888926 -65.560754 
L 384.206281 -64.507796 
L 384.523636 -63.437445 
L 384.840992 -62.34729 
L 385.158347 -61.239811 
L 385.475702 -60.131951 
L 385.793058 -59.022035 
L 386.110413 -57.922715 
L 386.427769 -56.846877 
L 386.745124 -55.798313 
L 387.062479 -54.773648 
L 387.379835 -53.784105 
L 387.69719 -52.816819 
L 388.014545 -51.885209 
L 388.331901 -50.980075 
L 388.649256 -50.112 
L 388.966612 -51.94942 
L 389.283967 -53.806673 
L 389.601322 -55.6636 
L 389.918678 -57.504121 
L 390.236033 -59.316221 
L 390.553388 -61.108675 
L 390.870744 -62.874684 
L 391.188099 -64.621182 
L 391.505455 -66.346435 
L 391.82281 -68.052421 
L 392.140165 -69.728251 
L 392.457521 -71.367347 
L 392.774876 -72.96267 
L 393.092231 -74.512045 
L 393.409587 -76.027433 
L 393.726942 -77.520832 
L 394.044298 -79.016804 
L 394.361653 -80.497553 
L 394.679008 -81.92783 
L 394.996364 -83.280232 
L 395.313719 -84.549291 
L 395.631074 -85.745555 
L 395.94843 -86.882448 
L 396.265785 -87.981978 
L 396.58314 -89.068165 
L 396.900496 -90.160157 
L 397.217851 -91.290855 
L 397.535207 -92.486685 
L 397.852562 -93.760722 
L 398.169917 -95.127004 
L 398.487273 -170.92996 
L 398.487273 -170.92996 
L 398.487273 -170.92996 
L 398.169917 -170.92996 
L 397.852562 -170.92996 
L 397.535207 -170.92996 
L 397.217851 -170.92996 
L 396.900496 -170.92996 
L 396.58314 -170.92996 
L 396.265785 -170.92996 
L 395.94843 -170.92996 
L 395.631074 -170.92996 
L 395.313719 -170.92996 
L 394.996364 -170.92996 
L 394.679008 -170.92996 
L 394.361653 -170.92996 
L 394.044298 -170.92996 
L 393.726942 -170.92996 
L 393.409587 -170.92996 
L 393.092231 -170.92996 
L 392.774876 -170.92996 
L 392.457521 -170.92996 
L 392.140165 -170.92996 
L 391.82281 -170.92996 
L 391.505455 -170.92996 
L 391.188099 -170.92996 
L 390.870744 -170.92996 
L 390.553388 -170.92996 
L 390.236033 -170.92996 
L 389.918678 -170.92996 
L 389.601322 -170.92996 
L 389.283967 -170.92996 
L 388.966612 -170.92996 
L 388.649256 -170.92996 
L 388.331901 -170.92996 
L 388.014545 -170.92996 
L 387.69719 -170.92996 
L 387.379835 -170.92996 
L 387.062479 -170.92996 
L 386.745124 -170.92996 
L 386.427769 -170.92996 
L 386.110413 -170.92996 
L 385.793058 -170.92996 
L 385.475702 -170.92996 
L 385.158347 -170.92996 
L 384.840992 -170.92996 
L 384.523636 -170.92996 
L 384.206281 -170.92996 
L 383.888926 -170.92996 
L 383.57157 -170.92996 
L 383.254215 -170.92996 
L 382.93686 -170.92996 
L 382.619504 -170.92996 
L 382.302149 -170.92996 
L 381.984793 -170.92996 
L 381.667438 -170.92996 
L 381.350083 -170.92996 
L 381.032727 -170.92996 
L 380.715372 -170.92996 
L 380.398017 -170.92996 
L 380.080661 -170.92996 
L 379.763306 -170.92996 
L 379.44595 -170.92996 
L 379.128595 -170.92996 
L 378.81124 -170.92996 
L 378.493884 -170.92996 
L 378.176529 -170.92996 
L 377.859174 -170.92996 
L 377.541818 -170.92996 
L 377.224463 -170.92996 
L 376.907107 -170.92996 
L 376.589752 -170.92996 
L 376.272397 -170.92996 
L 375.955041 -170.92996 
L 375.637686 -170.92996 
L 375.320331 -170.92996 
L 375.002975 -170.92996 
L 374.68562 -170.92996 
L 374.368264 -170.92996 
L 374.050909 -170.92996 
L 373.733554 -170.92996 
L 373.416198 -170.92996 
L 373.098843 -170.92996 
L 372.781488 -170.92996 
L 372.464132 -170.92996 
L 372.146777 -170.92996 
L 371.829421 -170.92996 
L 371.512066 -170.92996 
L 371.194711 -170.92996 
L 370.877355 -170.92996 
L 370.56 -170.92996 
L 370.242645 -170.92996 
L 369.925289 -170.92996 
L 369.607934 -170.92996 
L 369.290579 -170.92996 
L 368.973223 -170.92996 
L 368.655868 -170.92996 
L 368.338512 -170.92996 
L 368.021157 -170.92996 
L 367.703802 -170.92996 
L 367.386446 -170.92996 
L 367.069091 -170.92996 
L 366.751736 -170.92996 
L 366.43438 -170.92996 
L 366.117025 -170.92996 
L 365.799669 -170.92996 
L 365.482314 -170.92996 
L 365.164959 -170.92996 
L 364.847603 -170.92996 
L 364.530248 -170.92996 
L 364.212893 -170.92996 
L 363.895537 -170.92996 
L 363.578182 -170.92996 
L 363.260826 -170.92996 
L 362.943471 -170.92996 
L 362.626116 -170.92996 
L 362.30876 -170.92996 
L 361.991405 -170.92996 
L 361.67405 -170.92996 
L 361.356694 -170.92996 
L 361.039339 -170.92996 
L 360.721983 -170.92996 
L 360.404628 -170.92996 
L 360.087273 -170.92996 
L 359.769917 -170.92996 
L 359.452562 -170.92996 
L 359.135207 -170.92996 
L 358.817851 -170.92996 
L 358.500496 -170.92996 
L 358.18314 -170.92996 
L 357.865785 -170.92996 
L 357.54843 -170.92996 
L 357.231074 -170.92996 
L 356.913719 -170.92996 
L 356.596364 -170.92996 
L 356.279008 -170.92996 
L 355.961653 -170.92996 
L 355.644298 -170.92996 
L 355.326942 -170.92996 
L 355.009587 -170.92996 
L 354.692231 -170.92996 
L 354.374876 -170.92996 
L 354.057521 -170.92996 
L 353.740165 -170.92996 
L 353.42281 -170.92996 
L 353.105455 -170.92996 
L 352.788099 -170.92996 
L 352.470744 -170.92996 
L 352.153388 -170.92996 
L 351.836033 -170.92996 
L 351.518678 -170.92996 
L 351.201322 -170.92996 
L 350.883967 -170.92996 
L 350.566612 -170.92996 
L 350.249256 -170.92996 
L 349.931901 -170.92996 
L 349.614545 -170.92996 
L 349.29719 -170.92996 
L 348.979835 -170.92996 
L 348.662479 -170.92996 
L 348.345124 -170.92996 
L 348.027769 -170.92996 
L 347.710413 -170.92996 
L 347.393058 -170.92996 
L 347.075702 -170.92996 
L 346.758347 -170.92996 
L 346.440992 -170.92996 
L 346.123636 -170.92996 
L 345.806281 -170.92996 
L 345.488926 -170.92996 
L 345.17157 -170.92996 
L 344.854215 -170.92996 
L 344.53686 -170.92996 
L 344.219504 -170.92996 
L 343.902149 -170.92996 
L 343.584793 -170.92996 
L 343.267438 -170.92996 
L 342.950083 -170.92996 
L 342.632727 -170.92996 
L 342.315372 -170.92996 
L 341.998017 -170.92996 
L 341.680661 -170.92996 
L 341.363306 -170.92996 
L 341.04595 -170.92996 
L 340.728595 -170.92996 
L 340.41124 -170.92996 
L 340.093884 -170.92996 
L 339.776529 -170.92996 
L 339.459174 -170.92996 
L 339.141818 -170.92996 
L 338.824463 -170.92996 
L 338.507107 -170.92996 
L 338.189752 -170.92996 
L 337.872397 -170.92996 
L 337.555041 -170.92996 
L 337.237686 -170.92996 
L 336.920331 -170.92996 
L 336.602975 -170.92996 
L 336.28562 -170.92996 
L 335.968264 -170.92996 
L 335.650909 -170.92996 
L 335.333554 -170.92996 
L 335.016198 -170.92996 
L 334.698843 -170.92996 
L 334.381488 -170.92996 
L 334.064132 -170.92996 
L 333.746777 -170.92996 
L 333.429421 -170.92996 
L 333.112066 -170.92996 
L 332.794711 -170.92996 
L 332.477355 -170.92996 
L 332.16 -170.92996 
L 331.842645 -170.92996 
L 331.525289 -170.92996 
L 331.207934 -170.92996 
L 330.890579 -170.92996 
L 330.573223 -170.92996 
L 330.255868 -170.92996 
L 329.938512 -170.92996 
L 329.621157 -170.92996 
L 329.303802 -170.92996 
L 328.986446 -170.92996 
L 328.669091 -170.92996 
L 328.351736 -170.92996 
L 328.03438 -170.92996 
L 327.717025 -170.92996 
L 327.399669 -170.92996 
L 327.082314 -170.92996 
L 326.764959 -170.92996 
L 326.447603 -170.92996 
L 326.130248 -170.92996 
L 325.812893 -170.92996 
L 325.495537 -170.92996 
L 325.178182 -170.92996 
L 324.860826 -170.92996 
L 324.543471 -170.92996 
L 324.226116 -170.92996 
L 323.90876 -170.92996 
L 323.591405 -170.92996 
L 323.27405 -170.92996 
L 322.956694 -170.92996 
L 322.639339 -170.92996 
L 322.321983 -170.92996 
L 322.004628 -170.92996 
L 321.687273 -170.92996 
L 321.369917 -170.92996 
L 321.052562 -170.92996 
L 320.735207 -170.92996 
L 320.417851 -170.92996 
L 320.100496 -170.92996 
L 319.78314 -170.92996 
L 319.465785 -170.92996 
L 319.14843 -170.92996 
L 318.831074 -170.92996 
L 318.513719 -170.92996 
L 318.196364 -170.92996 
L 317.879008 -170.92996 
L 317.561653 -170.92996 
L 317.244298 -170.92996 
L 316.926942 -170.92996 
L 316.609587 -170.92996 
L 316.292231 -170.92996 
L 315.974876 -170.92996 
L 315.657521 -170.92996 
L 315.340165 -170.92996 
L 315.02281 -170.92996 
L 314.705455 -170.92996 
L 314.388099 -170.92996 
L 314.070744 -170.92996 
L 313.753388 -170.92996 
L 313.436033 -170.92996 
L 313.118678 -170.92996 
L 312.801322 -170.92996 
L 312.483967 -170.92996 
L 312.166612 -170.92996 
L 311.849256 -170.92996 
L 311.531901 -170.92996 
L 311.214545 -170.92996 
L 310.89719 -170.92996 
L 310.579835 -170.92996 
L 310.262479 -170.92996 
L 309.945124 -170.92996 
L 309.627769 -170.92996 
L 309.310413 -170.92996 
L 308.993058 -170.92996 
L 308.675702 -170.92996 
L 308.358347 -170.92996 
L 308.040992 -170.92996 
L 307.723636 -170.92996 
L 307.406281 -170.92996 
L 307.088926 -170.92996 
L 306.77157 -170.92996 
L 306.454215 -170.92996 
L 306.13686 -170.92996 
L 305.819504 -170.92996 
L 305.502149 -170.92996 
L 305.184793 -170.92996 
L 304.867438 -170.92996 
L 304.550083 -170.92996 
L 304.232727 -170.92996 
L 303.915372 -170.92996 
L 303.598017 -170.92996 
L 303.280661 -170.92996 
L 302.963306 -170.92996 
L 302.64595 -170.92996 
L 302.328595 -170.92996 
L 302.01124 -170.92996 
L 301.693884 -170.92996 
L 301.376529 -170.92996 
L 301.059174 -170.92996 
L 300.741818 -170.92996 
L 300.424463 -170.92996 
L 300.107107 -170.92996 
L 299.789752 -170.92996 
L 299.472397 -170.92996 
L 299.155041 -170.92996 
L 298.837686 -170.92996 
L 298.520331 -170.92996 
L 298.202975 -170.92996 
L 297.88562 -170.92996 
L 297.568264 -170.92996 
L 297.250909 -170.92996 
L 296.933554 -170.92996 
L 296.616198 -170.92996 
L 296.298843 -170.92996 
L 295.981488 -170.92996 
L 295.664132 -170.92996 
L 295.346777 -170.92996 
L 295.029421 -170.92996 
L 294.712066 -170.92996 
L 294.394711 -170.92996 
L 294.077355 -170.92996 
L 293.76 -170.92996 
L 293.442645 -170.92996 
L 293.125289 -170.92996 
L 292.807934 -170.92996 
L 292.490579 -170.92996 
L 292.173223 -170.92996 
L 291.855868 -170.92996 
L 291.538512 -170.92996 
L 291.221157 -170.92996 
L 290.903802 -170.92996 
L 290.586446 -170.92996 
L 290.269091 -170.92996 
L 289.951736 -170.92996 
L 289.63438 -170.92996 
L 289.317025 -170.92996 
L 288.999669 -170.92996 
L 288.682314 -170.92996 
L 288.364959 -170.92996 
L 288.047603 -170.92996 
L 287.730248 -170.92996 
L 287.412893 -170.92996 
L 287.095537 -170.92996 
L 286.778182 -170.92996 
L 286.460826 -170.92996 
L 286.143471 -170.92996 
L 285.826116 -170.92996 
L 285.50876 -170.92996 
L 285.191405 -170.92996 
L 284.87405 -170.92996 
L 284.556694 -170.92996 
L 284.239339 -170.92996 
L 283.921983 -170.92996 
L 283.604628 -170.92996 
L 283.287273 -170.92996 
L 282.969917 -170.92996 
L 282.652562 -170.92996 
L 282.335207 -170.92996 
L 282.017851 -170.92996 
L 281.700496 -170.92996 
L 281.38314 -170.92996 
L 281.065785 -170.92996 
L 280.74843 -170.92996 
L 280.431074 -170.92996 
L 280.113719 -170.92996 
L 279.796364 -170.92996 
L 279.479008 -170.92996 
L 279.161653 -170.92996 
L 278.844298 -170.92996 
L 278.526942 -170.92996 
L 278.209587 -170.92996 
L 277.892231 -170.92996 
L 277.574876 -170.92996 
L 277.257521 -170.92996 
L 276.940165 -170.92996 
L 276.62281 -170.92996 
L 276.305455 -170.92996 
L 275.988099 -170.92996 
L 275.670744 -170.92996 
L 275.353388 -170.92996 
L 275.036033 -170.92996 
L 274.718678 -170.92996 
L 274.401322 -170.92996 
L 274.083967 -170.92996 
L 273.766612 -170.92996 
L 273.449256 -170.92996 
L 273.131901 -170.92996 
L 272.814545 -170.92996 
L 272.49719 -170.92996 
L 272.179835 -170.92996 
L 271.862479 -170.92996 
L 271.545124 -170.92996 
L 271.227769 -170.92996 
L 270.910413 -170.92996 
L 270.593058 -170.92996 
L 270.275702 -170.92996 
L 269.958347 -170.92996 
L 269.640992 -170.92996 
L 269.323636 -170.92996 
L 269.006281 -170.92996 
L 268.688926 -170.92996 
L 268.37157 -170.92996 
L 268.054215 -170.92996 
L 267.73686 -170.92996 
L 267.419504 -170.92996 
L 267.102149 -170.92996 
L 266.784793 -170.92996 
L 266.467438 -170.92996 
L 266.150083 -170.92996 
L 265.832727 -170.92996 
L 265.515372 -170.92996 
L 265.198017 -170.92996 
L 264.880661 -170.92996 
L 264.563306 -170.92996 
L 264.24595 -170.92996 
L 263.928595 -170.92996 
L 263.61124 -170.92996 
L 263.293884 -170.92996 
L 262.976529 -170.92996 
L 262.659174 -170.92996 
L 262.341818 -170.92996 
L 262.024463 -170.92996 
L 261.707107 -170.92996 
L 261.389752 -170.92996 
L 261.072397 -170.92996 
L 260.755041 -170.92996 
L 260.437686 -170.92996 
L 260.120331 -170.92996 
L 259.802975 -170.92996 
L 259.48562 -170.92996 
L 259.168264 -170.92996 
L 258.850909 -170.92996 
L 258.533554 -170.92996 
L 258.216198 -170.92996 
L 257.898843 -170.92996 
L 257.581488 -170.92996 
L 257.264132 -170.92996 
L 256.946777 -170.92996 
L 256.629421 -170.92996 
L 256.312066 -170.92996 
L 255.994711 -170.92996 
L 255.677355 -170.92996 
L 255.36 -170.92996 
L 255.042645 -170.92996 
L 254.725289 -170.92996 
L 254.407934 -170.92996 
L 254.090579 -170.92996 
L 253.773223 -170.92996 
L 253.455868 -170.92996 
L 253.138512 -170.92996 
L 252.821157 -170.92996 
L 252.503802 -170.92996 
L 252.186446 -170.92996 
L 251.869091 -170.92996 
L 251.551736 -170.92996 
L 251.23438 -170.92996 
L 250.917025 -170.92996 
L 250.599669 -170.92996 
L 250.282314 -170.92996 
L 249.964959 -170.92996 
L 249.647603 -170.92996 
L 249.330248 -170.92996 
L 249.012893 -170.92996 
L 248.695537 -170.92996 
L 248.378182 -170.92996 
L 248.060826 -170.92996 
L 247.743471 -170.92996 
L 247.426116 -170.92996 
L 247.10876 -170.92996 
L 246.791405 -170.92996 
L 246.47405 -170.92996 
L 246.156694 -170.92996 
L 245.839339 -170.92996 
L 245.521983 -170.92996 
L 245.204628 -170.92996 
L 244.887273 -170.92996 
L 244.569917 -170.92996 
L 244.252562 -170.92996 
L 243.935207 -170.92996 
L 243.617851 -170.92996 
L 243.300496 -170.92996 
L 242.98314 -170.92996 
L 242.665785 -170.92996 
L 242.34843 -170.92996 
L 242.031074 -170.92996 
L 241.713719 -170.92996 
L 241.396364 -170.92996 
L 241.079008 -170.92996 
L 240.761653 -170.92996 
L 240.444298 -170.92996 
L 240.126942 -170.92996 
L 239.809587 -170.92996 
L 239.492231 -170.92996 
L 239.174876 -170.92996 
L 238.857521 -170.92996 
L 238.540165 -170.92996 
L 238.22281 -170.92996 
L 237.905455 -170.92996 
L 237.588099 -170.92996 
L 237.270744 -170.92996 
L 236.953388 -170.92996 
L 236.636033 -170.92996 
L 236.318678 -170.92996 
L 236.001322 -170.92996 
L 235.683967 -170.92996 
L 235.366612 -170.92996 
L 235.049256 -170.92996 
L 234.731901 -170.92996 
L 234.414545 -170.92996 
L 234.09719 -170.92996 
L 233.779835 -170.92996 
L 233.462479 -170.92996 
L 233.145124 -170.92996 
L 232.827769 -170.92996 
L 232.510413 -170.92996 
L 232.193058 -170.92996 
L 231.875702 -170.92996 
L 231.558347 -170.92996 
L 231.240992 -170.92996 
L 230.923636 -170.92996 
L 230.606281 -170.92996 
L 230.288926 -170.92996 
L 229.97157 -170.92996 
L 229.654215 -170.92996 
L 229.33686 -170.92996 
L 229.019504 -170.92996 
L 228.702149 -170.92996 
L 228.384793 -170.92996 
L 228.067438 -170.92996 
L 227.750083 -170.92996 
L 227.432727 -170.92996 
L 227.115372 -170.92996 
L 226.798017 -170.92996 
L 226.480661 -170.92996 
L 226.163306 -170.92996 
L 225.84595 -170.92996 
L 225.528595 -170.92996 
L 225.21124 -170.92996 
L 224.893884 -170.92996 
L 224.576529 -170.92996 
L 224.259174 -170.92996 
L 223.941818 -170.92996 
L 223.624463 -170.92996 
L 223.307107 -170.92996 
L 222.989752 -170.92996 
L 222.672397 -170.92996 
L 222.355041 -170.92996 
L 222.037686 -170.92996 
L 221.720331 -170.92996 
L 221.402975 -170.92996 
L 221.08562 -170.92996 
L 220.768264 -170.92996 
L 220.450909 -170.92996 
L 220.133554 -170.92996 
L 219.816198 -170.92996 
L 219.498843 -170.92996 
L 219.181488 -170.92996 
L 218.864132 -170.92996 
L 218.546777 -170.92996 
L 218.229421 -170.92996 
L 217.912066 -170.92996 
L 217.594711 -170.92996 
L 217.277355 -170.92996 
L 216.96 -170.92996 
L 216.642645 -170.92996 
L 216.325289 -170.92996 
L 216.007934 -170.92996 
L 215.690579 -170.92996 
L 215.373223 -170.92996 
L 215.055868 -170.92996 
L 214.738512 -170.92996 
L 214.421157 -170.92996 
L 214.103802 -170.92996 
L 213.786446 -170.92996 
L 213.469091 -170.92996 
L 213.151736 -170.92996 
L 212.83438 -170.92996 
L 212.517025 -170.92996 
L 212.199669 -170.92996 
L 211.882314 -170.92996 
L 211.564959 -170.92996 
L 211.247603 -170.92996 
L 210.930248 -170.92996 
L 210.612893 -170.92996 
L 210.295537 -170.92996 
L 209.978182 -170.92996 
L 209.660826 -170.92996 
L 209.343471 -170.92996 
L 209.026116 -170.92996 
L 208.70876 -170.92996 
L 208.391405 -170.92996 
L 208.07405 -170.92996 
L 207.756694 -170.92996 
L 207.439339 -170.92996 
L 207.121983 -170.92996 
L 206.804628 -170.92996 
L 206.487273 -170.92996 
L 206.169917 -170.92996 
L 205.852562 -170.92996 
L 205.535207 -170.92996 
L 205.217851 -170.92996 
L 204.900496 -170.92996 
L 204.58314 -170.92996 
L 204.265785 -170.92996 
L 203.94843 -170.92996 
L 203.631074 -170.92996 
L 203.313719 -170.92996 
L 202.996364 -170.92996 
L 202.679008 -170.92996 
L 202.361653 -170.92996 
L 202.044298 -170.92996 
L 201.726942 -170.92996 
L 201.409587 -170.92996 
L 201.092231 -170.92996 
L 200.774876 -170.92996 
L 200.457521 -170.92996 
L 200.140165 -170.92996 
L 199.82281 -170.92996 
L 199.505455 -170.92996 
L 199.188099 -170.92996 
L 198.870744 -170.92996 
L 198.553388 -170.92996 
L 198.236033 -170.92996 
L 197.918678 -170.92996 
L 197.601322 -170.92996 
L 197.283967 -170.92996 
L 196.966612 -170.92996 
L 196.649256 -170.92996 
L 196.331901 -170.92996 
L 196.014545 -170.92996 
L 195.69719 -170.92996 
L 195.379835 -170.92996 
L 195.062479 -170.92996 
L 194.745124 -170.92996 
L 194.427769 -170.92996 
L 194.110413 -170.92996 
L 193.793058 -170.92996 
L 193.475702 -170.92996 
L 193.158347 -170.92996 
L 192.840992 -170.92996 
L 192.523636 -170.92996 
L 192.206281 -170.92996 
L 191.888926 -170.92996 
L 191.57157 -170.92996 
L 191.254215 -170.92996 
L 190.93686 -170.92996 
L 190.619504 -170.92996 
L 190.302149 -170.92996 
L 189.984793 -170.92996 
L 189.667438 -170.92996 
L 189.350083 -170.92996 
L 189.032727 -170.92996 
L 188.715372 -170.92996 
L 188.398017 -170.92996 
L 188.080661 -170.92996 
L 187.763306 -170.92996 
L 187.44595 -170.92996 
L 187.128595 -170.92996 
L 186.81124 -170.92996 
L 186.493884 -170.92996 
L 186.176529 -170.92996 
L 185.859174 -170.92996 
L 185.541818 -170.92996 
L 185.224463 -170.92996 
L 184.907107 -170.92996 
L 184.589752 -170.92996 
L 184.272397 -170.92996 
L 183.955041 -170.92996 
L 183.637686 -170.92996 
L 183.320331 -170.92996 
L 183.002975 -170.92996 
L 182.68562 -170.92996 
L 182.368264 -170.92996 
L 182.050909 -170.92996 
L 181.733554 -170.92996 
L 181.416198 -170.92996 
L 181.098843 -170.92996 
L 180.781488 -170.92996 
L 180.464132 -170.92996 
L 180.146777 -170.92996 
L 179.829421 -170.92996 
L 179.512066 -170.92996 
L 179.194711 -170.92996 
L 178.877355 -170.92996 
L 178.56 -170.92996 
L 178.242645 -170.92996 
L 177.925289 -170.92996 
L 177.607934 -170.92996 
L 177.290579 -170.92996 
L 176.973223 -170.92996 
L 176.655868 -170.92996 
L 176.338512 -170.92996 
L 176.021157 -170.92996 
L 175.703802 -170.92996 
L 175.386446 -170.92996 
L 175.069091 -170.92996 
L 174.751736 -170.92996 
L 174.43438 -170.92996 
L 174.117025 -170.92996 
L 173.799669 -170.92996 
L 173.482314 -170.92996 
L 173.164959 -170.92996 
L 172.847603 -170.92996 
L 172.530248 -170.92996 
L 172.212893 -170.92996 
L 171.895537 -170.92996 
L 171.578182 -170.92996 
L 171.260826 -170.92996 
L 170.943471 -170.92996 
L 170.626116 -170.92996 
L 170.30876 -170.92996 
L 169.991405 -170.92996 
L 169.67405 -170.92996 
L 169.356694 -170.92996 
L 169.039339 -170.92996 
L 168.721983 -170.92996 
L 168.404628 -170.92996 
L 168.087273 -170.92996 
L 167.769917 -170.92996 
L 167.452562 -170.92996 
L 167.135207 -170.92996 
L 166.817851 -170.92996 
L 166.500496 -170.92996 
L 166.18314 -170.92996 
L 165.865785 -170.92996 
L 165.54843 -170.92996 
L 165.231074 -170.92996 
L 164.913719 -170.92996 
L 164.596364 -170.92996 
L 164.279008 -170.92996 
L 163.961653 -170.92996 
L 163.644298 -170.92996 
L 163.326942 -170.92996 
L 163.009587 -170.92996 
L 162.692231 -170.92996 
L 162.374876 -170.92996 
L 162.057521 -170.92996 
L 161.740165 -170.92996 
L 161.42281 -170.92996 
L 161.105455 -170.92996 
L 160.788099 -170.92996 
L 160.470744 -170.92996 
L 160.153388 -170.92996 
L 159.836033 -170.92996 
L 159.518678 -170.92996 
L 159.201322 -170.92996 
L 158.883967 -170.92996 
L 158.566612 -170.92996 
L 158.249256 -170.92996 
L 157.931901 -170.92996 
L 157.614545 -170.92996 
L 157.29719 -170.92996 
L 156.979835 -170.92996 
L 156.662479 -170.92996 
L 156.345124 -170.92996 
L 156.027769 -170.92996 
L 155.710413 -170.92996 
L 155.393058 -170.92996 
L 155.075702 -170.92996 
L 154.758347 -170.92996 
L 154.440992 -170.92996 
L 154.123636 -170.92996 
L 153.806281 -170.92996 
L 153.488926 -170.92996 
L 153.17157 -170.92996 
L 152.854215 -170.92996 
L 152.53686 -170.92996 
L 152.219504 -170.92996 
L 151.902149 -170.92996 
L 151.584793 -170.92996 
L 151.267438 -170.92996 
L 150.950083 -170.92996 
L 150.632727 -170.92996 
L 150.315372 -170.92996 
L 149.998017 -170.92996 
L 149.680661 -170.92996 
L 149.363306 -170.92996 
L 149.04595 -170.92996 
L 148.728595 -170.92996 
L 148.41124 -170.92996 
L 148.093884 -170.92996 
L 147.776529 -170.92996 
L 147.459174 -170.92996 
L 147.141818 -170.92996 
L 146.824463 -170.92996 
L 146.507107 -170.92996 
L 146.189752 -170.92996 
L 145.872397 -170.92996 
L 145.555041 -170.92996 
L 145.237686 -170.92996 
L 144.920331 -170.92996 
L 144.602975 -170.92996 
L 144.28562 -170.92996 
L 143.968264 -170.92996 
L 143.650909 -170.92996 
L 143.333554 -170.92996 
L 143.016198 -170.92996 
L 142.698843 -170.92996 
L 142.381488 -170.92996 
L 142.064132 -170.92996 
L 141.746777 -170.92996 
L 141.429421 -170.92996 
L 141.112066 -170.92996 
L 140.794711 -170.92996 
L 140.477355 -170.92996 
L 140.16 -170.92996 
L 139.842645 -170.92996 
L 139.525289 -170.92996 
L 139.207934 -170.92996 
L 138.890579 -170.92996 
L 138.573223 -170.92996 
L 138.255868 -170.92996 
L 137.938512 -170.92996 
L 137.621157 -170.92996 
L 137.303802 -170.92996 
L 136.986446 -170.92996 
L 136.669091 -170.92996 
L 136.351736 -170.92996 
L 136.03438 -170.92996 
L 135.717025 -170.92996 
L 135.399669 -170.92996 
L 135.082314 -170.92996 
L 134.764959 -170.92996 
L 134.447603 -170.92996 
L 134.130248 -170.92996 
L 133.812893 -170.92996 
L 133.495537 -170.92996 
L 133.178182 -170.92996 
L 132.860826 -170.92996 
L 132.543471 -170.92996 
L 132.226116 -170.92996 
L 131.90876 -170.92996 
L 131.591405 -170.92996 
L 131.27405 -170.92996 
L 130.956694 -170.92996 
L 130.639339 -170.92996 
L 130.321983 -170.92996 
L 130.004628 -170.92996 
L 129.687273 -170.92996 
L 129.369917 -170.92996 
L 129.052562 -170.92996 
L 128.735207 -170.92996 
L 128.417851 -170.92996 
L 128.100496 -170.92996 
L 127.78314 -170.92996 
L 127.465785 -170.92996 
L 127.14843 -170.92996 
L 126.831074 -170.92996 
L 126.513719 -170.92996 
L 126.196364 -170.92996 
L 125.879008 -170.92996 
L 125.561653 -170.92996 
L 125.244298 -170.92996 
L 124.926942 -170.92996 
L 124.609587 -170.92996 
L 124.292231 -170.92996 
L 123.974876 -170.92996 
L 123.657521 -170.92996 
L 123.340165 -170.92996 
L 123.02281 -170.92996 
L 122.705455 -170.92996 
L 122.388099 -170.92996 
L 122.070744 -170.92996 
L 121.753388 -170.92996 
L 121.436033 -170.92996 
L 121.118678 -170.92996 
L 120.801322 -170.92996 
L 120.483967 -170.92996 
L 120.166612 -170.92996 
L 119.849256 -170.92996 
L 119.531901 -170.92996 
L 119.214545 -170.92996 
L 118.89719 -170.92996 
L 118.579835 -170.92996 
L 118.262479 -170.92996 
L 117.945124 -170.92996 
L 117.627769 -170.92996 
L 117.310413 -170.92996 
L 116.993058 -170.92996 
L 116.675702 -170.92996 
L 116.358347 -170.92996 
L 116.040992 -170.92996 
L 115.723636 -170.92996 
L 115.406281 -170.92996 
L 115.088926 -170.92996 
L 114.77157 -170.92996 
L 114.454215 -170.92996 
L 114.13686 -170.92996 
L 113.819504 -170.92996 
L 113.502149 -170.92996 
L 113.184793 -170.92996 
L 112.867438 -170.92996 
L 112.550083 -170.92996 
L 112.232727 -170.92996 
L 111.915372 -170.92996 
L 111.598017 -170.92996 
L 111.280661 -170.92996 
L 110.963306 -170.92996 
L 110.64595 -170.92996 
L 110.328595 -170.92996 
L 110.01124 -170.92996 
L 109.693884 -170.92996 
L 109.376529 -170.92996 
L 109.059174 -170.92996 
L 108.741818 -170.92996 
L 108.424463 -170.92996 
L 108.107107 -170.92996 
L 107.789752 -170.92996 
L 107.472397 -170.92996 
L 107.155041 -170.92996 
L 106.837686 -170.92996 
L 106.520331 -170.92996 
L 106.202975 -170.92996 
L 105.88562 -170.92996 
L 105.568264 -170.92996 
L 105.250909 -170.92996 
L 104.933554 -170.92996 
L 104.616198 -170.92996 
L 104.298843 -170.92996 
L 103.981488 -170.92996 
L 103.664132 -170.92996 
L 103.346777 -170.92996 
L 103.029421 -170.92996 
L 102.712066 -170.92996 
L 102.394711 -170.92996 
L 102.077355 -170.92996 
L 101.76 -170.92996 
L 101.442645 -170.92996 
L 101.125289 -170.92996 
L 100.807934 -170.92996 
L 100.490579 -170.92996 
L 100.173223 -170.92996 
L 99.855868 -170.92996 
L 99.538512 -170.92996 
L 99.221157 -170.92996 
L 98.903802 -170.92996 
L 98.586446 -170.92996 
L 98.269091 -170.92996 
L 97.951736 -170.92996 
L 97.63438 -170.92996 
L 97.317025 -170.92996 
L 96.999669 -170.92996 
L 96.682314 -170.92996 
L 96.364959 -170.92996 
L 96.047603 -170.92996 
L 95.730248 -170.92996 
L 95.412893 -170.92996 
L 95.095537 -170.92996 
L 94.778182 -170.92996 
L 94.460826 -170.92996 
L 94.143471 -170.92996 
L 93.826116 -170.92996 
L 93.50876 -170.92996 
L 93.191405 -170.92996 
L 92.87405 -170.92996 
L 92.556694 -170.92996 
L 92.239339 -170.92996 
L 91.921983 -170.92996 
L 91.604628 -170.92996 
L 91.287273 -170.92996 
L 90.969917 -170.92996 
L 90.652562 -170.92996 
L 90.335207 -170.92996 
L 90.017851 -170.92996 
L 89.700496 -170.92996 
L 89.38314 -170.92996 
L 89.065785 -170.92996 
L 88.74843 -170.92996 
L 88.431074 -170.92996 
L 88.113719 -170.92996 
L 87.796364 -170.92996 
L 87.479008 -170.92996 
L 87.161653 -170.92996 
L 86.844298 -170.92996 
L 86.526942 -170.92996 
L 86.209587 -170.92996 
L 85.892231 -170.92996 
L 85.574876 -170.92996 
L 85.257521 -170.92996 
L 84.940165 -170.92996 
L 84.62281 -170.92996 
L 84.305455 -170.92996 
L 83.988099 -170.92996 
L 83.670744 -170.92996 
L 83.353388 -170.92996 
L 83.036033 -170.92996 
L 82.718678 -170.92996 
L 82.401322 -170.92996 
L 82.083967 -170.92996 
L 81.766612 -170.92996 
L 81.449256 -170.92996 
L 81.131901 -170.92996 
L 80.814545 -170.92996 
L 80.49719 -170.92996 
L 80.179835 -170.92996 
L 79.862479 -170.92996 
L 79.545124 -170.92996 
L 79.227769 -170.92996 
L 78.910413 -170.92996 
L 78.593058 -170.92996 
L 78.275702 -170.92996 
L 77.958347 -170.92996 
L 77.640992 -170.92996 
L 77.323636 -170.92996 
L 77.006281 -170.92996 
L 76.688926 -170.92996 
L 76.37157 -170.92996 
L 76.054215 -170.92996 
L 75.73686 -170.92996 
L 75.419504 -170.92996 
L 75.102149 -170.92996 
L 74.784793 -170.92996 
L 74.467438 -170.92996 
L 74.150083 -170.92996 
L 73.832727 -170.92996 
z
" style="stroke: #87ceeb; stroke-opacity: 0.75"/>
    </defs>
    <g clip-path="url(#ped03cb876f)">
     <use xlink:href="#md1b2f7bd1e" x="0" y="345.6" style="fill: #87ceeb; fill-opacity: 0.75; stroke: #87ceeb; stroke-opacity: 0.75"/>
    </g>
   </g>
   <g id="matplotlib.axis_1">
    <g id="xtick_1">
     <g id="line2d_1">
      <defs>
       <path id="m10ec3674bc" d="M 0 0 
L 0 3.5 
" style="stroke: #000000; stroke-width: 0.8"/>
      </defs>
      <g>
       <use xlink:href="#m10ec3674bc" x="73.832727" y="307.584" style="stroke: #000000; stroke-width: 0.8"/>
      </g>
     </g>
     <g id="text_1">
      <!-- 0 -->
      <g transform="translate(70.531868 322.161969) scale(0.11 -0.11)">
       <defs>
        <path id="AndaleMono-30" d="M 1913 4494 
Q 2613 4494 2989 3892 
Q 3366 3291 3366 2203 
Q 3366 1150 3000 533 
Q 2634 -84 1913 -84 
Q 1216 -84 837 516 
Q 459 1116 459 2203 
Q 459 3259 826 3876 
Q 1194 4494 1913 4494 
z
M 1913 366 
Q 2375 366 2598 805 
Q 2822 1244 2822 2203 
Q 2822 3166 2598 3602 
Q 2375 4038 1913 4038 
Q 1456 4038 1231 3591 
Q 1006 3144 1006 2203 
Q 1006 1250 1229 808 
Q 1453 366 1913 366 
z
M 1900 2672 
Q 2097 2672 2233 2536 
Q 2369 2400 2369 2203 
Q 2369 2000 2231 1854 
Q 2094 1709 1900 1709 
Q 1709 1709 1573 1854 
Q 1438 2000 1438 2203 
Q 1438 2403 1570 2537 
Q 1703 2672 1900 2672 
z
" transform="scale(0.015625)"/>
       </defs>
       <use xlink:href="#AndaleMono-30"/>
      </g>
     </g>
    </g>
    <g id="xtick_2">
     <g id="line2d_2">
      <g>
       <use xlink:href="#m10ec3674bc" x="137.303802" y="307.584" style="stroke: #000000; stroke-width: 0.8"/>
      </g>
     </g>
     <g id="text_2">
      <!-- 200 -->
      <g transform="translate(127.401224 322.161969) scale(0.11 -0.11)">
       <defs>
        <path id="AndaleMono-32" d="M 3066 0 
L 641 0 
L 641 372 
Q 1563 1400 1838 1750 
Q 2113 2100 2284 2484 
Q 2456 2869 2456 3250 
Q 2456 3619 2232 3831 
Q 2009 4044 1606 4044 
Q 1297 4044 775 3853 
L 703 4294 
Q 1175 4494 1691 4494 
Q 2281 4494 2642 4161 
Q 3003 3828 3003 3272 
Q 3003 2875 2817 2484 
Q 2631 2094 2340 1734 
Q 2050 1375 1209 447 
L 3066 447 
L 3066 0 
z
" transform="scale(0.015625)"/>
       </defs>
       <use xlink:href="#AndaleMono-32"/>
       <use xlink:href="#AndaleMono-30" x="60.009766"/>
       <use xlink:href="#AndaleMono-30" x="120.019531"/>
      </g>
     </g>
    </g>
    <g id="xtick_3">
     <g id="line2d_3">
      <g>
       <use xlink:href="#m10ec3674bc" x="200.774876" y="307.584" style="stroke: #000000; stroke-width: 0.8"/>
      </g>
     </g>
     <g id="text_3">
      <!-- 400 -->
      <g transform="translate(190.872298 322.161969) scale(0.11 -0.11)">
       <defs>
        <path id="AndaleMono-34" d="M 3353 1019 
L 2809 1019 
L 2809 0 
L 2297 0 
L 2297 1019 
L 378 1019 
L 378 1409 
L 2119 4409 
L 2809 4409 
L 2809 1466 
L 3353 1466 
L 3353 1019 
z
M 2297 1466 
L 2297 3903 
L 897 1466 
L 2297 1466 
z
" transform="scale(0.015625)"/>
       </defs>
       <use xlink:href="#AndaleMono-34"/>
       <use xlink:href="#AndaleMono-30" x="60.009766"/>
       <use xlink:href="#AndaleMono-30" x="120.019531"/>
      </g>
     </g>
    </g>
    <g id="xtick_4">
     <g id="line2d_4">
      <g>
       <use xlink:href="#m10ec3674bc" x="264.24595" y="307.584" style="stroke: #000000; stroke-width: 0.8"/>
      </g>
     </g>
     <g id="text_4">
      <!-- 600 -->
      <g transform="translate(254.343372 322.161969) scale(0.11 -0.11)">
       <defs>
        <path id="AndaleMono-36" d="M 1131 2297 
Q 1544 2631 2028 2631 
Q 2588 2631 2961 2273 
Q 3334 1916 3334 1350 
Q 3334 728 3003 322 
Q 2672 -84 2119 -84 
Q 1413 -84 1000 564 
Q 588 1213 588 2150 
Q 588 3150 1017 3822 
Q 1447 4494 2194 4494 
Q 2709 4494 3084 4341 
L 3003 3884 
Q 2569 4044 2209 4044 
Q 1700 4044 1415 3556 
Q 1131 3069 1131 2297 
z
M 1147 1856 
Q 1147 1291 1412 828 
Q 1678 366 2081 366 
Q 2422 366 2606 616 
Q 2791 866 2791 1306 
Q 2791 1713 2587 1947 
Q 2384 2181 2016 2181 
Q 1538 2181 1147 1856 
z
" transform="scale(0.015625)"/>
       </defs>
       <use xlink:href="#AndaleMono-36"/>
       <use xlink:href="#AndaleMono-30" x="60.009766"/>
       <use xlink:href="#AndaleMono-30" x="120.019531"/>
      </g>
     </g>
    </g>
    <g id="xtick_5">
     <g id="line2d_5">
      <g>
       <use xlink:href="#m10ec3674bc" x="327.717025" y="307.584" style="stroke: #000000; stroke-width: 0.8"/>
      </g>
     </g>
     <g id="text_5">
      <!-- 800 -->
      <g transform="translate(317.814447 322.161969) scale(0.11 -0.11)">
       <defs>
        <path id="AndaleMono-38" d="M 2363 2419 
Q 2813 2288 3061 1972 
Q 3309 1656 3309 1234 
Q 3309 628 2907 272 
Q 2506 -84 1919 -84 
Q 1303 -84 908 275 
Q 513 634 513 1228 
Q 513 1647 769 1965 
Q 1025 2284 1484 2419 
Q 1119 2513 898 2780 
Q 678 3047 678 3378 
Q 678 3803 1015 4148 
Q 1353 4494 1906 4494 
Q 2453 4494 2811 4150 
Q 3169 3806 3169 3378 
Q 3169 3056 2944 2786 
Q 2719 2516 2363 2419 
z
M 1906 2631 
Q 1922 2631 2056 2668 
Q 2191 2706 2286 2761 
Q 2381 2816 2462 2900 
Q 2544 2984 2594 3098 
Q 2644 3213 2644 3353 
Q 2644 3653 2428 3851 
Q 2213 4050 1906 4050 
Q 1609 4050 1396 3847 
Q 1184 3644 1184 3353 
Q 1184 3169 1261 3031 
Q 1338 2894 1452 2809 
Q 1566 2725 1714 2678 
Q 1863 2631 1906 2631 
z
M 1906 2194 
Q 1050 1944 1050 1253 
Q 1050 850 1309 608 
Q 1569 366 1919 366 
Q 2281 366 2529 605 
Q 2778 844 2778 1253 
Q 2778 1563 2606 1808 
Q 2434 2053 1906 2194 
z
" transform="scale(0.015625)"/>
       </defs>
       <use xlink:href="#AndaleMono-38"/>
       <use xlink:href="#AndaleMono-30" x="60.009766"/>
       <use xlink:href="#AndaleMono-30" x="120.019531"/>
      </g>
     </g>
    </g>
    <g id="xtick_6">
     <g id="line2d_6">
      <g>
       <use xlink:href="#m10ec3674bc" x="391.188099" y="307.584" style="stroke: #000000; stroke-width: 0.8"/>
      </g>
     </g>
     <g id="text_6">
      <!-- 1000 -->
      <g transform="translate(377.984662 322.161969) scale(0.11 -0.11)">
       <defs>
        <path id="AndaleMono-31" d="M 3181 0 
L 863 0 
L 863 447 
L 1797 447 
L 1797 3872 
L 916 3431 
L 916 3944 
L 1869 4434 
L 2309 4434 
L 2309 447 
L 3181 447 
L 3181 0 
z
" transform="scale(0.015625)"/>
       </defs>
       <use xlink:href="#AndaleMono-31"/>
       <use xlink:href="#AndaleMono-30" x="60.009766"/>
       <use xlink:href="#AndaleMono-30" x="120.019531"/>
       <use xlink:href="#AndaleMono-30" x="180.029297"/>
      </g>
     </g>
    </g>
   </g>
   <g id="matplotlib.axis_2">
    <g id="ytick_1">
     <g id="line2d_7">
      <defs>
       <path id="m4a6b755281" d="M 0 0 
L -3.5 0 
" style="stroke: #000000; stroke-width: 0.8"/>
      </defs>
      <g>
       <use xlink:href="#m4a6b755281" x="57.6" y="295.77208" style="stroke: #000000; stroke-width: 0.8"/>
      </g>
     </g>
     <g id="text_7">
      <!-- 1.00 -->
      <g transform="translate(17.591406 299.561064) scale(0.11 -0.11)">
       <defs>
        <path id="AndaleMono-2212" d="M 3397 2047 
L 441 2047 
L 441 2456 
L 3397 2456 
L 3397 2047 
z
" transform="scale(0.015625)"/>
        <path id="AndaleMono-2e" d="M 1900 716 
Q 2066 716 2178 603 
Q 2291 491 2291 325 
Q 2291 156 2177 36 
Q 2063 -84 1900 -84 
Q 1741 -84 1628 36 
Q 1516 156 1516 325 
Q 1516 494 1627 605 
Q 1738 716 1900 716 
z
" transform="scale(0.015625)"/>
       </defs>
       <use xlink:href="#AndaleMono-2212"/>
       <use xlink:href="#AndaleMono-31" x="60.009766"/>
       <use xlink:href="#AndaleMono-2e" x="120.019531"/>
       <use xlink:href="#AndaleMono-30" x="180.029297"/>
       <use xlink:href="#AndaleMono-30" x="240.039062"/>
      </g>
     </g>
    </g>
    <g id="ytick_2">
     <g id="line2d_8">
      <g>
       <use xlink:href="#m4a6b755281" x="57.6" y="265.49657" style="stroke: #000000; stroke-width: 0.8"/>
      </g>
     </g>
     <g id="text_8">
      <!-- 0.75 -->
      <g transform="translate(17.591406 269.285554) scale(0.11 -0.11)">
       <defs>
        <path id="AndaleMono-37" d="M 3238 4044 
L 1491 0 
L 966 0 
L 2688 3963 
L 622 3963 
L 622 4409 
L 3238 4409 
L 3238 4044 
z
" transform="scale(0.015625)"/>
        <path id="AndaleMono-35" d="M 1356 2631 
Q 1569 2688 1772 2688 
Q 2397 2688 2759 2305 
Q 3122 1922 3122 1350 
Q 3122 750 2700 333 
Q 2278 -84 1672 -84 
Q 1094 -84 703 109 
L 806 544 
Q 1231 366 1684 366 
Q 2088 366 2336 625 
Q 2584 884 2584 1350 
Q 2584 1791 2350 2028 
Q 2116 2266 1747 2266 
Q 1478 2266 1216 2163 
L 909 2303 
L 909 4409 
L 2925 4409 
L 2925 3963 
L 1356 3963 
L 1356 2631 
z
" transform="scale(0.015625)"/>
       </defs>
       <use xlink:href="#AndaleMono-2212"/>
       <use xlink:href="#AndaleMono-30" x="60.009766"/>
       <use xlink:href="#AndaleMono-2e" x="120.019531"/>
       <use xlink:href="#AndaleMono-37" x="180.029297"/>
       <use xlink:href="#AndaleMono-35" x="240.039062"/>
      </g>
     </g>
    </g>
    <g id="ytick_3">
     <g id="line2d_9">
      <g>
       <use xlink:href="#m4a6b755281" x="57.6" y="235.22106" style="stroke: #000000; stroke-width: 0.8"/>
      </g>
     </g>
     <g id="text_9">
      <!-- 0.50 -->
      <g transform="translate(17.591406 239.010044) scale(0.11 -0.11)">
       <use xlink:href="#AndaleMono-2212"/>
       <use xlink:href="#AndaleMono-30" x="60.009766"/>
       <use xlink:href="#AndaleMono-2e" x="120.019531"/>
       <use xlink:href="#AndaleMono-35" x="180.029297"/>
       <use xlink:href="#AndaleMono-30" x="240.039062"/>
      </g>
     </g>
    </g>
    <g id="ytick_4">
     <g id="line2d_10">
      <g>
       <use xlink:href="#m4a6b755281" x="57.6" y="204.94555" style="stroke: #000000; stroke-width: 0.8"/>
      </g>
     </g>
     <g id="text_10">
      <!-- 0.25 -->
      <g transform="translate(17.591406 208.734534) scale(0.11 -0.11)">
       <use xlink:href="#AndaleMono-2212"/>
       <use xlink:href="#AndaleMono-30" x="60.009766"/>
       <use xlink:href="#AndaleMono-2e" x="120.019531"/>
       <use xlink:href="#AndaleMono-32" x="180.029297"/>
       <use xlink:href="#AndaleMono-35" x="240.039062"/>
      </g>
     </g>
    </g>
    <g id="ytick_5">
     <g id="line2d_11">
      <g>
       <use xlink:href="#m4a6b755281" x="57.6" y="174.67004" style="stroke: #000000; stroke-width: 0.8"/>
      </g>
     </g>
     <g id="text_11">
      <!-- 0.00 -->
      <g transform="translate(24.193125 178.459024) scale(0.11 -0.11)">
       <use xlink:href="#AndaleMono-30"/>
       <use xlink:href="#AndaleMono-2e" x="60.009766"/>
       <use xlink:href="#AndaleMono-30" x="120.019531"/>
       <use xlink:href="#AndaleMono-30" x="180.029297"/>
      </g>
     </g>
    </g>
    <g id="ytick_6">
     <g id="line2d_12">
      <g>
       <use xlink:href="#m4a6b755281" x="57.6" y="144.39453" style="stroke: #000000; stroke-width: 0.8"/>
      </g>
     </g>
     <g id="text_12">
      <!-- 0.25 -->
      <g transform="translate(24.193125 148.183514) scale(0.11 -0.11)">
       <use xlink:href="#AndaleMono-30"/>
       <use xlink:href="#AndaleMono-2e" x="60.009766"/>
       <use xlink:href="#AndaleMono-32" x="120.019531"/>
       <use xlink:href="#AndaleMono-35" x="180.029297"/>
      </g>
     </g>
    </g>
    <g id="ytick_7">
     <g id="line2d_13">
      <g>
       <use xlink:href="#m4a6b755281" x="57.6" y="114.11902" style="stroke: #000000; stroke-width: 0.8"/>
      </g>
     </g>
     <g id="text_13">
      <!-- 0.50 -->
      <g transform="translate(24.193125 117.908004) scale(0.11 -0.11)">
       <use xlink:href="#AndaleMono-30"/>
       <use xlink:href="#AndaleMono-2e" x="60.009766"/>
       <use xlink:href="#AndaleMono-35" x="120.019531"/>
       <use xlink:href="#AndaleMono-30" x="180.029297"/>
      </g>
     </g>
    </g>
    <g id="ytick_8">
     <g id="line2d_14">
      <g>
       <use xlink:href="#m4a6b755281" x="57.6" y="83.84351" style="stroke: #000000; stroke-width: 0.8"/>
      </g>
     </g>
     <g id="text_14">
      <!-- 0.75 -->
      <g transform="translate(24.193125 87.632494) scale(0.11 -0.11)">
       <use xlink:href="#AndaleMono-30"/>
       <use xlink:href="#AndaleMono-2e" x="60.009766"/>
       <use xlink:href="#AndaleMono-37" x="120.019531"/>
       <use xlink:href="#AndaleMono-35" x="180.029297"/>
      </g>
     </g>
    </g>
    <g id="ytick_9">
     <g id="line2d_15">
      <g>
       <use xlink:href="#m4a6b755281" x="57.6" y="53.568" style="stroke: #000000; stroke-width: 0.8"/>
      </g>
     </g>
     <g id="text_15">
      <!-- 1.00 -->
      <g transform="translate(24.193125 57.356984) scale(0.11 -0.11)">
       <use xlink:href="#AndaleMono-31"/>
       <use xlink:href="#AndaleMono-2e" x="60.009766"/>
       <use xlink:href="#AndaleMono-30" x="120.019531"/>
       <use xlink:href="#AndaleMono-30" x="180.029297"/>
      </g>
     </g>
    </g>
   </g>
   <g id="line2d_16">
    <path d="M 73.832727 174.67004 
L 74.150083 100.411856 
L 75.102149 96.575707 
L 77.640992 87.212681 
L 79.545124 78.247521 
L 81.449256 68.159535 
L 83.988099 53.568 
L 85.257521 57.359795 
L 87.161653 63.953824 
L 90.652562 76.144033 
L 91.921983 79.928567 
L 93.826116 84.729761 
L 94.460826 86.048189 
L 95.095537 86.996481 
L 95.730248 87.603591 
L 97.317025 88.742584 
L 97.951736 89.533366 
L 98.903802 91.270268 
L 99.855868 93.366612 
L 101.125289 96.869561 
L 102.712066 101.698663 
L 106.837686 115.805655 
L 108.424463 119.827164 
L 109.693884 122.546115 
L 111.598017 125.64547 
L 112.867438 127.389603 
L 113.819504 128.325668 
L 116.993058 131.125706 
L 119.849256 133.905008 
L 121.753388 135.236298 
L 123.340165 136.614873 
L 124.609587 137.228917 
L 125.561653 137.605657 
L 126.831074 137.786764 
L 128.417851 137.733878 
L 131.27405 137.498872 
L 132.226116 137.529468 
L 133.178182 137.807549 
L 135.082314 138.702438 
L 137.303802 139.977616 
L 138.890579 140.786975 
L 140.477355 141.570617 
L 141.746777 142.260593 
L 142.698843 142.52665 
L 144.28562 142.695349 
L 145.237686 142.595116 
L 146.507107 142.484911 
L 147.459174 142.615041 
L 149.04595 143.080718 
L 152.219504 144.22832 
L 157.29719 146.847108 
L 161.42281 149.907893 
L 162.692231 150.655861 
L 164.913719 152.311608 
L 168.721983 155.34586 
L 171.578182 157.024541 
L 172.530248 157.344459 
L 174.751736 157.767428 
L 176.021157 157.787609 
L 176.973223 157.63474 
L 178.242645 157.128432 
L 180.464132 156.130958 
L 182.050909 155.749936 
L 184.589752 155.251701 
L 187.763306 155.396377 
L 190.302149 155.955227 
L 192.206281 156.519284 
L 193.158347 156.789635 
L 194.427769 156.904522 
L 199.82281 157.065356 
L 202.996364 156.942489 
L 208.07405 157.608025 
L 209.660826 157.809453 
L 211.564959 158.18989 
L 213.786446 158.377234 
L 215.690579 158.730946 
L 217.594711 158.857363 
L 219.816198 158.855973 
L 220.768264 159.029542 
L 222.037686 159.49769 
L 225.528595 161.206039 
L 226.798017 162.209761 
L 228.067438 163.477009 
L 230.923636 166.910384 
L 232.193058 168.773343 
L 234.731901 172.723346 
L 239.492231 179.535837 
L 241.396364 182.429696 
L 243.300496 184.756542 
L 245.204628 186.836515 
L 246.47405 187.91558 
L 247.743471 188.679346 
L 250.282314 189.84239 
L 251.551736 190.310538 
L 252.503802 190.484107 
L 254.407934 190.496726 
L 255.677355 190.5165 
L 257.898843 190.817188 
L 259.48562 191.113364 
L 261.389752 191.242473 
L 264.563306 191.760674 
L 268.688926 192.291358 
L 269.958347 192.441956 
L 271.545124 192.347245 
L 273.449256 192.274716 
L 276.305455 192.33683 
L 279.796364 192.710317 
L 282.017851 193.384852 
L 285.50876 194.03322 
L 288.682314 193.987752 
L 292.173223 193.092804 
L 293.76 192.369861 
L 295.029421 191.802996 
L 295.981488 191.581894 
L 297.250909 191.547717 
L 298.520331 191.727511 
L 300.424463 192.184354 
L 301.693884 192.810243 
L 303.915372 194.202609 
L 305.502149 195.371099 
L 308.993058 198.229189 
L 310.579835 199.268257 
L 312.166612 200.17286 
L 316.292231 203.252298 
L 322.321983 205.937859 
L 325.178182 206.786627 
L 326.130248 206.854017 
L 327.399669 206.688235 
L 328.351736 206.658366 
L 329.938512 206.882422 
L 330.890579 207.213701 
L 339.459174 211.647349 
L 340.41124 211.845765 
L 341.998017 211.775172 
L 346.440992 211.662792 
L 347.393058 211.963436 
L 349.29719 212.94563 
L 354.374876 217.230853 
L 356.596364 219.424274 
L 359.452562 221.950477 
L 360.404628 223.217762 
L 362.30876 226.247709 
L 363.260826 228.053796 
L 364.847603 231.852691 
L 366.117025 235.372239 
L 367.703802 240.722225 
L 370.242645 249.666639 
L 372.464132 255.973468 
L 373.416198 258.069812 
L 374.368264 259.806714 
L 375.002975 260.597496 
L 375.955041 261.319253 
L 376.907107 262.003635 
L 377.541818 262.769265 
L 378.176529 263.895174 
L 380.080661 268.289506 
L 381.350083 271.701337 
L 382.619504 275.797573 
L 387.69719 292.783181 
L 388.649256 295.488 
L 392.140165 275.871749 
L 394.044298 266.583196 
L 395.313719 261.050709 
L 396.900496 255.439843 
L 397.852562 251.839278 
L 398.169917 250.472996 
L 398.487273 174.67004 
L 398.487273 174.67004 
" clip-path="url(#ped03cb876f)" style="fill: none; stroke: #87ceeb; stroke-opacity: 0.75; stroke-linecap: square"/>
   </g>
   <g id="patch_3">
    <path d="M 57.6 307.584 
L 57.6 41.472 
" style="fill: none; stroke: #000000; stroke-width: 0.8; stroke-linejoin: miter; stroke-linecap: square"/>
   </g>
   <g id="patch_4">
    <path d="M 414.72 307.584 
L 414.72 41.472 
" style="fill: none; stroke: #000000; stroke-width: 0.8; stroke-linejoin: miter; stroke-linecap: square"/>
   </g>
   <g id="patch_5">
    <path d="M 57.6 307.584 
L 414.72 307.584 
" style="fill: none; stroke: #000000; stroke-width: 0.8; stroke-linejoin: miter; stroke-linecap: square"/>
   </g>
   <g id="patch_6">
    <path d="M 57.6 41.472 
L 414.72 41.472 
" style="fill: none; stroke: #000000; stroke-width: 0.8; stroke-linejoin: miter; stroke-linecap: square"/>
   </g>
  </g>
 </g>
 <defs>
  <clipPath id="ped03cb876f">
   <rect x="57.6" y="41.472" width="357.12" height="266.112"/>
  </clipPath>
 </defs>
</svg>
