<?xml version="1.0" encoding="utf-8" standalone="no"?>
<!DOCTYPE svg PUBLIC "-//W3C//DTD SVG 1.1//EN"
  "http://www.w3.org/Graphics/SVG/1.1/DTD/svg11.dtd">
<svg xmlns:xlink="http://www.w3.org/1999/xlink" width="460.8pt" height="345.6pt" viewBox="0 0 460.8 345.6" xmlns="http://www.w3.org/2000/svg" version="1.1">
 <metadata>
  <rdf:RDF xmlns:dc="http://purl.org/dc/elements/1.1/" xmlns:cc="http://creativecommons.org/ns#" xmlns:rdf="http://www.w3.org/1999/02/22-rdf-syntax-ns#">
   <cc:Work>
    <dc:type rdf:resource="http://purl.org/dc/dcmitype/StillImage"/>
    <dc:date>2024-04-23T11:13:05.447744</dc:date>
    <dc:format>image/svg+xml</dc:format>
    <dc:creator>
     <cc:Agent>
      <dc:title>Matplotlib v3.8.3, https://matplotlib.org/</dc:title>
     </cc:Agent>
    </dc:creator>
   </cc:Work>
  </rdf:RDF>
 </metadata>
 <defs>
  <style type="text/css">*{stroke-linejoin: round; stroke-linecap: butt}</style>
 </defs>
 <g id="figure_1">
  <g id="patch_1">
   <path d="M 0 345.6 
L 460.8 345.6 
L 460.8 0 
L 0 0 
z
" style="fill: #ffffff"/>
  </g>
  <g id="axes_1">
   <g id="patch_2">
    <path d="M 57.6 307.584 
L 414.72 307.584 
L 414.72 41.472 
L 57.6 41.472 
z
" style="fill: #ffffff"/>
   </g>
   <g id="PolyCollection_1">
    <defs>
     <path id="mc184a2a6e2" d="M 73.832727 -171.072 
L 73.832727 -171.072 
L 74.150083 -174.180369 
L 74.467438 -174.26377 
L 74.784793 -174.344253 
L 75.102149 -174.422796 
L 75.419504 -174.499759 
L 75.73686 -174.5768 
L 76.054215 -174.653354 
L 76.37157 -174.729019 
L 76.688926 -174.803149 
L 77.006281 -174.875894 
L 77.323636 -174.945885 
L 77.640992 -175.012638 
L 77.958347 -175.076133 
L 78.275702 -175.13962 
L 78.593058 -175.205473 
L 78.910413 -175.274724 
L 79.227769 -175.346927 
L 79.545124 -175.421792 
L 79.862479 -175.499176 
L 80.179835 -175.578185 
L 80.49719 -175.657593 
L 80.814545 -175.736138 
L 81.131901 -175.812163 
L 81.449256 -175.885809 
L 81.766612 -175.957972 
L 82.083967 -176.029315 
L 82.401322 -176.100759 
L 82.718678 -176.173124 
L 83.036033 -176.247274 
L 83.353388 -176.323015 
L 83.670744 -176.399107 
L 83.988099 -176.474939 
L 84.305455 -176.508081 
L 84.62281 -176.529631 
L 84.940165 -176.540202 
L 85.257521 -176.540711 
L 85.574876 -176.532921 
L 85.892231 -176.518181 
L 86.209587 -176.498634 
L 86.526942 -176.47526 
L 86.844298 -176.448667 
L 87.161653 -176.418626 
L 87.479008 -176.385157 
L 87.796364 -176.348073 
L 88.113719 -176.306945 
L 88.431074 -176.261998 
L 88.74843 -176.214008 
L 89.065785 -176.164234 
L 89.38314 -176.113769 
L 89.700496 -176.062865 
L 90.017851 -176.012271 
L 90.335207 -175.96262 
L 90.652562 -175.913328 
L 90.969917 -175.86386 
L 91.287273 -175.814035 
L 91.604628 -175.763979 
L 91.921983 -175.714272 
L 92.239339 -175.664997 
L 92.556694 -175.616032 
L 92.87405 -175.567823 
L 93.191405 -175.521142 
L 93.50876 -175.476604 
L 93.826116 -175.434395 
L 94.143471 -175.394733 
L 94.460826 -175.360066 
L 94.778182 -175.328073 
L 95.095537 -175.298976 
L 95.412893 -175.271171 
L 95.730248 -175.243794 
L 96.047603 -175.214461 
L 96.364959 -175.183981 
L 96.682314 -175.1537 
L 96.999669 -175.125431 
L 97.317025 -175.098765 
L 97.63438 -175.07548 
L 97.951736 -175.055967 
L 98.269091 -175.040042 
L 98.586446 -175.023614 
L 98.903802 -175.003537 
L 99.221157 -174.978348 
L 99.538512 -174.948717 
L 99.855868 -174.91487 
L 100.173223 -174.876642 
L 100.490579 -174.834629 
L 100.807934 -174.790294 
L 101.125289 -174.745246 
L 101.442645 -174.701538 
L 101.76 -174.660077 
L 102.077355 -174.620052 
L 102.394711 -174.580649 
L 102.712066 -174.54081 
L 103.029421 -174.499308 
L 103.346777 -174.454727 
L 103.664132 -174.40634 
L 103.981488 -174.355818 
L 104.298843 -174.303691 
L 104.616198 -174.251726 
L 104.933554 -174.202697 
L 105.250909 -174.157413 
L 105.568264 -174.115877 
L 105.88562 -174.077106 
L 106.202975 -174.039738 
L 106.520331 -174.001373 
L 106.837686 -173.960848 
L 107.155041 -173.917801 
L 107.472397 -173.872905 
L 107.789752 -173.82693 
L 108.107107 -173.781416 
L 108.424463 -173.736746 
L 108.741818 -173.693224 
L 109.059174 -173.651027 
L 109.376529 -173.609627 
L 109.693884 -173.568618 
L 110.01124 -173.528318 
L 110.328595 -173.488427 
L 110.64595 -173.448526 
L 110.963306 -173.408817 
L 111.280661 -173.369784 
L 111.598017 -173.331754 
L 111.915372 -173.295351 
L 112.232727 -173.261437 
L 112.550083 -173.230086 
L 112.867438 -173.201882 
L 113.184793 -173.176023 
L 113.502149 -173.151119 
L 113.819504 -173.125761 
L 114.13686 -173.099851 
L 114.454215 -173.07384 
L 114.77157 -173.047703 
L 115.088926 -173.022517 
L 115.406281 -172.997881 
L 115.723636 -172.974263 
L 116.040992 -172.952414 
L 116.358347 -172.932824 
L 116.675702 -172.915435 
L 116.993058 -172.898979 
L 117.310413 -172.881803 
L 117.627769 -172.864359 
L 117.945124 -172.846322 
L 118.262479 -172.82762 
L 118.579835 -172.808657 
L 118.89719 -172.790035 
L 119.214545 -172.772027 
L 119.531901 -172.755695 
L 119.849256 -172.740771 
L 120.166612 -172.727415 
L 120.483967 -172.716599 
L 120.801322 -172.708478 
L 121.118678 -172.702341 
L 121.436033 -172.696828 
L 121.753388 -172.691751 
L 122.070744 -172.685894 
L 122.388099 -172.679428 
L 122.705455 -172.672857 
L 123.02281 -172.666216 
L 123.340165 -172.6596 
L 123.657521 -172.653621 
L 123.974876 -172.649426 
L 124.292231 -172.647111 
L 124.609587 -172.6469 
L 124.926942 -172.648721 
L 125.244298 -172.651271 
L 125.561653 -172.653462 
L 125.879008 -172.654736 
L 126.196364 -172.654223 
L 126.513719 -172.652488 
L 126.831074 -172.650945 
L 127.14843 -172.650946 
L 127.465785 -172.652701 
L 127.78314 -172.656471 
L 128.100496 -172.661947 
L 128.417851 -172.667697 
L 128.735207 -172.67404 
L 129.052562 -172.680732 
L 129.369917 -172.686793 
L 129.687273 -172.69184 
L 130.004628 -172.695473 
L 130.321983 -172.697464 
L 130.639339 -172.69808 
L 130.956694 -172.697368 
L 131.27405 -172.696191 
L 131.591405 -172.695041 
L 131.90876 -172.693907 
L 132.226116 -172.692324 
L 132.543471 -172.688266 
L 132.860826 -172.681586 
L 133.178182 -172.671678 
L 133.495537 -172.659196 
L 133.812893 -172.645413 
L 134.130248 -172.631934 
L 134.447603 -172.618363 
L 134.764959 -172.60436 
L 135.082314 -172.589377 
L 135.399669 -172.573117 
L 135.717025 -172.556161 
L 136.03438 -172.538886 
L 136.351736 -172.520454 
L 136.669091 -172.50065 
L 136.986446 -172.478934 
L 137.303802 -172.455748 
L 137.621157 -172.432249 
L 137.938512 -172.408608 
L 138.255868 -172.3856 
L 138.573223 -172.363562 
L 138.890579 -172.342545 
L 139.207934 -172.322811 
L 139.525289 -172.305424 
L 139.842645 -172.289156 
L 140.16 -172.274189 
L 140.477355 -172.260216 
L 140.794711 -172.246169 
L 141.112066 -172.231619 
L 141.429421 -172.217604 
L 141.746777 -172.205496 
L 142.064132 -172.195246 
L 142.381488 -172.187116 
L 142.698843 -172.180723 
L 143.016198 -172.17558 
L 143.333554 -172.171731 
L 143.650909 -172.169958 
L 143.968264 -172.169761 
L 144.28562 -172.170699 
L 144.602975 -172.172061 
L 144.920331 -172.173892 
L 145.237686 -172.175544 
L 145.555041 -172.176963 
L 145.872397 -172.178279 
L 146.189752 -172.179927 
L 146.507107 -172.182539 
L 146.824463 -172.185698 
L 147.141818 -172.188934 
L 147.459174 -172.191492 
L 147.776529 -172.193535 
L 148.093884 -172.195062 
L 148.41124 -172.196103 
L 148.728595 -172.196995 
L 149.04595 -172.197718 
L 149.363306 -172.198298 
L 149.680661 -172.199181 
L 149.998017 -172.20063 
L 150.315372 -172.202666 
L 150.632727 -172.205236 
L 150.950083 -172.20777 
L 151.267438 -172.209547 
L 151.584793 -172.210407 
L 151.902149 -172.209931 
L 152.219504 -172.209103 
L 152.53686 -172.20763 
L 152.854215 -172.206462 
L 153.17157 -172.205685 
L 153.488926 -172.205678 
L 153.806281 -172.206319 
L 154.123636 -172.206802 
L 154.440992 -172.206891 
L 154.758347 -172.207113 
L 155.075702 -172.207439 
L 155.393058 -172.208831 
L 155.710413 -172.210876 
L 156.027769 -172.212766 
L 156.345124 -172.214121 
L 156.662479 -172.215929 
L 156.979835 -172.219051 
L 157.29719 -172.224256 
L 157.614545 -172.231336 
L 157.931901 -172.239863 
L 158.249256 -172.24949 
L 158.566612 -172.258999 
L 158.883967 -172.268145 
L 159.201322 -172.276481 
L 159.518678 -172.283808 
L 159.836033 -172.28916 
L 160.153388 -172.293356 
L 160.470744 -172.296087 
L 160.788099 -172.297766 
L 161.105455 -172.29875 
L 161.42281 -172.300015 
L 161.740165 -172.300477 
L 162.057521 -172.300102 
L 162.374876 -172.298582 
L 162.692231 -172.296128 
L 163.009587 -172.291925 
L 163.326942 -172.287192 
L 163.644298 -172.280615 
L 163.961653 -172.272093 
L 164.279008 -172.261564 
L 164.596364 -172.249901 
L 164.913719 -172.234962 
L 165.231074 -172.219717 
L 165.54843 -172.202256 
L 165.865785 -172.184063 
L 166.18314 -172.162842 
L 166.500496 -172.140255 
L 166.817851 -172.104091 
L 167.135207 -172.026243 
L 167.452562 -171.918805 
L 167.769917 -171.827982 
L 168.087273 -171.487933 
L 168.404628 -171.054921 
L 168.721983 -170.608915 
L 169.039339 -170.160975 
L 169.356694 -169.745073 
L 169.67405 -169.40711 
L 169.991405 -169.183002 
L 170.30876 -168.942336 
L 170.626116 -168.742091 
L 170.943471 -168.661366 
L 171.260826 -168.687087 
L 171.578182 -168.83314 
L 171.895537 -169.082091 
L 172.212893 -169.31989 
L 172.530248 -169.676571 
L 172.847603 -170.174673 
L 173.164959 -170.782301 
L 173.482314 -171.432773 
L 173.799669 -172.255227 
L 174.117025 -173.241556 
L 174.43438 -174.366028 
L 174.751736 -175.652876 
L 175.069091 -177.065258 
L 175.386446 -178.600777 
L 175.703802 -180.258043 
L 176.021157 -182.008802 
L 176.338512 -183.900511 
L 176.655868 -185.911657 
L 176.973223 -187.993447 
L 177.290579 -190.192247 
L 177.607934 -192.442938 
L 177.925289 -194.745407 
L 178.242645 -197.156017 
L 178.56 -199.640488 
L 178.877355 -202.216354 
L 179.194711 -204.871756 
L 179.512066 -207.564476 
L 179.829421 -210.284418 
L 180.146777 -213.043237 
L 180.464132 -215.812645 
L 180.781488 -218.618285 
L 181.098843 -221.448161 
L 181.416198 -224.266324 
L 181.733554 -227.096246 
L 182.050909 -229.917154 
L 182.368264 -232.730584 
L 182.68562 -235.523334 
L 183.002975 -238.263017 
L 183.320331 -240.98897 
L 183.637686 -243.678318 
L 183.955041 -246.31463 
L 184.272397 -248.87484 
L 184.589752 -251.361085 
L 184.907107 -253.773624 
L 185.224463 -256.082327 
L 185.541818 -258.276506 
L 185.859174 -260.363084 
L 186.176529 -262.332749 
L 186.493884 -264.159659 
L 186.81124 -265.833151 
L 187.128595 -267.389707 
L 187.44595 -268.867719 
L 187.763306 -270.226709 
L 188.080661 -271.384046 
L 188.398017 -272.907008 
L 188.715372 -274.560671 
L 189.032727 -276.19985 
L 189.350083 -277.809786 
L 189.667438 -279.369418 
L 189.984793 -280.793152 
L 190.302149 -282.034579 
L 190.619504 -283.333274 
L 190.93686 -284.611505 
L 191.254215 -285.740019 
L 191.57157 -286.740222 
L 191.888926 -287.585074 
L 192.206281 -288.3093 
L 192.523636 -289.161714 
L 192.840992 -289.911345 
L 193.158347 -290.487054 
L 193.475702 -290.97128 
L 193.793058 -291.516445 
L 194.110413 -291.84974 
L 194.427769 -292.005805 
L 194.745124 -292.032 
L 195.062479 -291.871539 
L 195.379835 -291.575764 
L 195.69719 -291.141703 
L 196.014545 -290.562757 
L 196.331901 -289.886452 
L 196.649256 -289.000276 
L 196.966612 -287.965532 
L 197.283967 -286.870686 
L 197.601322 -285.629064 
L 197.918678 -284.341366 
L 198.236033 -283.037181 
L 198.553388 -281.586435 
L 198.870744 -280.064476 
L 199.188099 -278.427097 
L 199.505455 -276.677287 
L 199.82281 -274.888534 
L 200.140165 -273.092047 
L 200.457521 -271.256873 
L 200.774876 -269.427232 
L 201.092231 -267.540385 
L 201.409587 -265.610126 
L 201.726942 -263.708078 
L 202.044298 -261.777327 
L 202.361653 -259.849854 
L 202.679008 -257.921246 
L 202.996364 -256.003432 
L 203.313719 -254.13724 
L 203.631074 -252.257422 
L 203.94843 -250.393226 
L 204.265785 -248.555226 
L 204.58314 -246.780431 
L 204.900496 -245.075008 
L 205.217851 -243.40247 
L 205.535207 -241.832163 
L 205.852562 -240.373782 
L 206.169917 -238.99021 
L 206.487273 -237.700539 
L 206.804628 -236.532484 
L 207.121983 -235.513339 
L 207.439339 -234.591178 
L 207.756694 -233.766832 
L 208.07405 -233.103277 
L 208.391405 -232.625303 
L 208.70876 -232.031747 
L 209.026116 -231.390444 
L 209.343471 -230.787275 
L 209.660826 -230.23658 
L 209.978182 -229.707509 
L 210.295537 -229.253653 
L 210.612893 -228.85336 
L 210.930248 -228.412064 
L 211.247603 -227.96607 
L 211.564959 -227.531001 
L 211.882314 -227.096618 
L 212.199669 -226.697083 
L 212.517025 -226.310383 
L 212.83438 -225.805643 
L 213.151736 -225.267902 
L 213.469091 -224.769484 
L 213.786446 -224.231748 
L 214.103802 -223.578964 
L 214.421157 -222.977316 
L 214.738512 -222.377778 
L 215.055868 -221.757032 
L 215.373223 -221.128805 
L 215.690579 -220.500105 
L 216.007934 -219.881046 
L 216.325289 -219.282023 
L 216.642645 -218.696444 
L 216.96 -218.216481 
L 217.277355 -217.761856 
L 217.594711 -217.300591 
L 217.912066 -216.863462 
L 218.229421 -216.436489 
L 218.546777 -215.979193 
L 218.864132 -215.564191 
L 219.181488 -215.130648 
L 219.498843 -214.699738 
L 219.816198 -214.288629 
L 220.133554 -213.86517 
L 220.450909 -213.411559 
L 220.768264 -212.938337 
L 221.08562 -212.417864 
L 221.402975 -211.910867 
L 221.720331 -211.394563 
L 222.037686 -210.825662 
L 222.355041 -210.247498 
L 222.672397 -209.652891 
L 222.989752 -209.023558 
L 223.307107 -208.368248 
L 223.624463 -207.703203 
L 223.941818 -207.034238 
L 224.259174 -206.34661 
L 224.576529 -205.67205 
L 224.893884 -204.989834 
L 225.21124 -204.268373 
L 225.528595 -203.582727 
L 225.84595 -202.862837 
L 226.163306 -202.116959 
L 226.480661 -201.377417 
L 226.798017 -200.622587 
L 227.115372 -199.88626 
L 227.432727 -199.110499 
L 227.750083 -198.346827 
L 228.067438 -197.59101 
L 228.384793 -196.783849 
L 228.702149 -195.944408 
L 229.019504 -195.093373 
L 229.33686 -194.216403 
L 229.654215 -193.28549 
L 229.97157 -192.311054 
L 230.288926 -191.307726 
L 230.606281 -190.251443 
L 230.923636 -189.182009 
L 231.240992 -188.1054 
L 231.558347 -186.982669 
L 231.875702 -185.859902 
L 232.193058 -184.748354 
L 232.510413 -183.624653 
L 232.827769 -182.494572 
L 233.145124 -181.346253 
L 233.462479 -180.200581 
L 233.779835 -179.053823 
L 234.09719 -177.934777 
L 234.414545 -176.844614 
L 234.731901 -175.73875 
L 235.049256 -174.648766 
L 235.366612 -173.568544 
L 235.683967 -172.557096 
L 236.001322 -171.566023 
L 236.318678 -170.577977 
L 236.636033 -169.586904 
L 236.953388 -168.575456 
L 237.270744 -167.495234 
L 237.588099 -166.40525 
L 237.905455 -165.299386 
L 238.22281 -164.209223 
L 238.540165 -163.090177 
L 238.857521 -161.943419 
L 239.174876 -160.797747 
L 239.492231 -159.649428 
L 239.809587 -158.519347 
L 240.126942 -157.395646 
L 240.444298 -156.284098 
L 240.761653 -155.161331 
L 241.079008 -154.0386 
L 241.396364 -152.961991 
L 241.713719 -151.892557 
L 242.031074 -150.836274 
L 242.34843 -149.832946 
L 242.665785 -148.85851 
L 242.98314 -147.927597 
L 243.300496 -147.050627 
L 243.617851 -146.199592 
L 243.935207 -145.360151 
L 244.252562 -144.55299 
L 244.569917 -143.797173 
L 244.887273 -143.033501 
L 245.204628 -142.25774 
L 245.521983 -141.521413 
L 245.839339 -140.766583 
L 246.156694 -140.027041 
L 246.47405 -139.281163 
L 246.791405 -138.561273 
L 247.10876 -137.875627 
L 247.426116 -137.154166 
L 247.743471 -136.47195 
L 248.060826 -135.79739 
L 248.378182 -135.109762 
L 248.695537 -134.440797 
L 249.012893 -133.775752 
L 249.330248 -133.120442 
L 249.647603 -132.491109 
L 249.964959 -131.896502 
L 250.282314 -131.318338 
L 250.599669 -130.749437 
L 250.917025 -130.233133 
L 251.23438 -129.726136 
L 251.551736 -129.205663 
L 251.869091 -128.732441 
L 252.186446 -128.27883 
L 252.503802 -127.855371 
L 252.821157 -127.444262 
L 253.138512 -127.013352 
L 253.455868 -126.579809 
L 253.773223 -126.164807 
L 254.090579 -125.707511 
L 254.407934 -125.280538 
L 254.725289 -124.843409 
L 255.042645 -124.382144 
L 255.36 -123.927519 
L 255.677355 -123.447556 
L 255.994711 -122.861977 
L 256.312066 -122.262954 
L 256.629421 -121.643895 
L 256.946777 -121.015195 
L 257.264132 -120.386968 
L 257.581488 -119.766222 
L 257.898843 -119.166684 
L 258.216198 -118.565036 
L 258.533554 -117.912252 
L 258.850909 -117.374516 
L 259.168264 -116.876098 
L 259.48562 -116.338357 
L 259.802975 -115.833617 
L 260.120331 -115.446917 
L 260.437686 -115.047382 
L 260.755041 -114.612999 
L 261.072397 -114.17793 
L 261.389752 -113.731936 
L 261.707107 -113.29064 
L 262.024463 -112.890347 
L 262.341818 -112.436491 
L 262.659174 -111.90742 
L 262.976529 -111.356725 
L 263.293884 -110.753556 
L 263.61124 -110.112253 
L 263.928595 -109.518697 
L 264.24595 -109.040723 
L 264.563306 -108.377168 
L 264.880661 -107.552822 
L 265.198017 -106.630661 
L 265.515372 -105.611516 
L 265.832727 -104.443461 
L 266.150083 -103.15379 
L 266.467438 -101.770218 
L 266.784793 -100.311837 
L 267.102149 -98.74153 
L 267.419504 -97.068992 
L 267.73686 -95.363569 
L 268.054215 -93.588774 
L 268.37157 -91.750774 
L 268.688926 -89.886578 
L 269.006281 -88.00676 
L 269.323636 -86.140568 
L 269.640992 -84.222754 
L 269.958347 -82.294146 
L 270.275702 -80.366673 
L 270.593058 -78.435922 
L 270.910413 -76.533874 
L 271.227769 -74.603615 
L 271.545124 -72.716768 
L 271.862479 -70.887127 
L 272.179835 -69.051953 
L 272.49719 -67.255466 
L 272.814545 -65.466713 
L 273.131901 -63.716903 
L 273.449256 -62.079524 
L 273.766612 -60.557565 
L 274.083967 -59.106819 
L 274.401322 -57.802634 
L 274.718678 -56.514936 
L 275.036033 -55.273314 
L 275.353388 -54.178468 
L 275.670744 -53.143724 
L 275.988099 -52.257548 
L 276.305455 -51.581243 
L 276.62281 -51.002297 
L 276.940165 -50.568236 
L 277.257521 -50.272461 
L 277.574876 -50.112 
L 277.892231 -50.138195 
L 278.209587 -50.29426 
L 278.526942 -50.627555 
L 278.844298 -51.17272 
L 279.161653 -51.656946 
L 279.479008 -52.232655 
L 279.796364 -52.982286 
L 280.113719 -53.8347 
L 280.431074 -54.558926 
L 280.74843 -55.403778 
L 281.065785 -56.403981 
L 281.38314 -57.532495 
L 281.700496 -58.810726 
L 282.017851 -60.109421 
L 282.335207 -61.350848 
L 282.652562 -62.774582 
L 282.969917 -64.334214 
L 283.287273 -65.94415 
L 283.604628 -67.583329 
L 283.921983 -69.236992 
L 284.239339 -70.759954 
L 284.556694 -71.917291 
L 284.87405 -73.276281 
L 285.191405 -74.754293 
L 285.50876 -76.310849 
L 285.826116 -77.984341 
L 286.143471 -79.811251 
L 286.460826 -81.780916 
L 286.778182 -83.867494 
L 287.095537 -86.061673 
L 287.412893 -88.370376 
L 287.730248 -90.782915 
L 288.047603 -93.26916 
L 288.364959 -95.82937 
L 288.682314 -98.465682 
L 288.999669 -101.15503 
L 289.317025 -103.880983 
L 289.63438 -106.620666 
L 289.951736 -109.413416 
L 290.269091 -112.226846 
L 290.586446 -115.047754 
L 290.903802 -117.877676 
L 291.221157 -120.695839 
L 291.538512 -123.525715 
L 291.855868 -126.331355 
L 292.173223 -129.100763 
L 292.490579 -131.859582 
L 292.807934 -134.579524 
L 293.125289 -137.272244 
L 293.442645 -139.927646 
L 293.76 -142.503512 
L 294.077355 -144.987983 
L 294.394711 -147.398593 
L 294.712066 -149.701062 
L 295.029421 -151.951753 
L 295.346777 -154.150553 
L 295.664132 -156.232343 
L 295.981488 -158.243489 
L 296.298843 -160.135198 
L 296.616198 -161.885957 
L 296.933554 -163.543223 
L 297.250909 -165.078742 
L 297.568264 -166.491124 
L 297.88562 -167.777972 
L 298.202975 -168.902444 
L 298.520331 -169.888773 
L 298.837686 -170.711227 
L 299.155041 -171.361699 
L 299.472397 -171.969327 
L 299.789752 -172.467429 
L 300.107107 -172.82411 
L 300.424463 -173.061909 
L 300.741818 -173.31086 
L 301.059174 -173.456913 
L 301.376529 -173.482634 
L 301.693884 -173.401909 
L 302.01124 -173.201664 
L 302.328595 -172.960998 
L 302.64595 -172.73689 
L 302.963306 -172.398927 
L 303.280661 -171.983025 
L 303.598017 -171.535085 
L 303.915372 -171.089079 
L 304.232727 -170.656067 
L 304.550083 -170.316018 
L 304.867438 -170.225195 
L 305.184793 -170.117757 
L 305.502149 -170.039909 
L 305.819504 -170.003745 
L 306.13686 -169.981158 
L 306.454215 -169.959937 
L 306.77157 -169.941744 
L 307.088926 -169.924283 
L 307.406281 -169.909038 
L 307.723636 -169.894099 
L 308.040992 -169.882436 
L 308.358347 -169.871907 
L 308.675702 -169.863385 
L 308.993058 -169.856808 
L 309.310413 -169.852075 
L 309.627769 -169.847872 
L 309.945124 -169.845418 
L 310.262479 -169.843898 
L 310.579835 -169.843523 
L 310.89719 -169.843985 
L 311.214545 -169.84525 
L 311.531901 -169.846234 
L 311.849256 -169.847913 
L 312.166612 -169.850644 
L 312.483967 -169.85484 
L 312.801322 -169.860192 
L 313.118678 -169.867519 
L 313.436033 -169.875855 
L 313.753388 -169.885001 
L 314.070744 -169.89451 
L 314.388099 -169.904137 
L 314.705455 -169.912664 
L 315.02281 -169.919744 
L 315.340165 -169.924949 
L 315.657521 -169.928071 
L 315.974876 -169.929879 
L 316.292231 -169.931234 
L 316.609587 -169.933124 
L 316.926942 -169.935169 
L 317.244298 -169.936561 
L 317.561653 -169.936887 
L 317.879008 -169.937109 
L 318.196364 -169.937198 
L 318.513719 -169.937681 
L 318.831074 -169.938322 
L 319.14843 -169.938315 
L 319.465785 -169.937538 
L 319.78314 -169.93637 
L 320.100496 -169.934897 
L 320.417851 -169.934069 
L 320.735207 -169.933593 
L 321.052562 -169.934453 
L 321.369917 -169.93623 
L 321.687273 -169.938764 
L 322.004628 -169.941334 
L 322.321983 -169.94337 
L 322.639339 -169.944819 
L 322.956694 -169.945702 
L 323.27405 -169.946282 
L 323.591405 -169.947005 
L 323.90876 -169.947897 
L 324.226116 -169.948938 
L 324.543471 -169.950465 
L 324.860826 -169.952508 
L 325.178182 -169.955066 
L 325.495537 -169.958302 
L 325.812893 -169.961461 
L 326.130248 -169.964073 
L 326.447603 -169.965721 
L 326.764959 -169.967037 
L 327.082314 -169.968456 
L 327.399669 -169.970108 
L 327.717025 -169.971939 
L 328.03438 -169.973301 
L 328.351736 -169.974239 
L 328.669091 -169.974042 
L 328.986446 -169.972269 
L 329.303802 -169.96842 
L 329.621157 -169.963277 
L 329.938512 -169.956884 
L 330.255868 -169.948754 
L 330.573223 -169.938504 
L 330.890579 -169.926396 
L 331.207934 -169.912381 
L 331.525289 -169.897831 
L 331.842645 -169.883784 
L 332.16 -169.869811 
L 332.477355 -169.854844 
L 332.794711 -169.838576 
L 333.112066 -169.821189 
L 333.429421 -169.801455 
L 333.746777 -169.780438 
L 334.064132 -169.7584 
L 334.381488 -169.735392 
L 334.698843 -169.711751 
L 335.016198 -169.688252 
L 335.333554 -169.665066 
L 335.650909 -169.64335 
L 335.968264 -169.623546 
L 336.28562 -169.605114 
L 336.602975 -169.587839 
L 336.920331 -169.570883 
L 337.237686 -169.554623 
L 337.555041 -169.53964 
L 337.872397 -169.525637 
L 338.189752 -169.512066 
L 338.507107 -169.498587 
L 338.824463 -169.484804 
L 339.141818 -169.472322 
L 339.459174 -169.462414 
L 339.776529 -169.455734 
L 340.093884 -169.451676 
L 340.41124 -169.450093 
L 340.728595 -169.448959 
L 341.04595 -169.447809 
L 341.363306 -169.446632 
L 341.680661 -169.44592 
L 341.998017 -169.446536 
L 342.315372 -169.448527 
L 342.632727 -169.45216 
L 342.950083 -169.457207 
L 343.267438 -169.463268 
L 343.584793 -169.46996 
L 343.902149 -169.476303 
L 344.219504 -169.482053 
L 344.53686 -169.487529 
L 344.854215 -169.491299 
L 345.17157 -169.493054 
L 345.488926 -169.493055 
L 345.806281 -169.491512 
L 346.123636 -169.489777 
L 346.440992 -169.489264 
L 346.758347 -169.490538 
L 347.075702 -169.492729 
L 347.393058 -169.495279 
L 347.710413 -169.4971 
L 348.027769 -169.496889 
L 348.345124 -169.494574 
L 348.662479 -169.490379 
L 348.979835 -169.4844 
L 349.29719 -169.477784 
L 349.614545 -169.471143 
L 349.931901 -169.464572 
L 350.249256 -169.458106 
L 350.566612 -169.452249 
L 350.883967 -169.447172 
L 351.201322 -169.441659 
L 351.518678 -169.435522 
L 351.836033 -169.427401 
L 352.153388 -169.416585 
L 352.470744 -169.403229 
L 352.788099 -169.388305 
L 353.105455 -169.371973 
L 353.42281 -169.353965 
L 353.740165 -169.335343 
L 354.057521 -169.31638 
L 354.374876 -169.297678 
L 354.692231 -169.279641 
L 355.009587 -169.262197 
L 355.326942 -169.245021 
L 355.644298 -169.228565 
L 355.961653 -169.211176 
L 356.279008 -169.191586 
L 356.596364 -169.169737 
L 356.913719 -169.146119 
L 357.231074 -169.121483 
L 357.54843 -169.096297 
L 357.865785 -169.07016 
L 358.18314 -169.044149 
L 358.500496 -169.018239 
L 358.817851 -168.992881 
L 359.135207 -168.967977 
L 359.452562 -168.942118 
L 359.769917 -168.913914 
L 360.087273 -168.882563 
L 360.404628 -168.848649 
L 360.721983 -168.812246 
L 361.039339 -168.774216 
L 361.356694 -168.735183 
L 361.67405 -168.695474 
L 361.991405 -168.655573 
L 362.30876 -168.615682 
L 362.626116 -168.575382 
L 362.943471 -168.534373 
L 363.260826 -168.492973 
L 363.578182 -168.450776 
L 363.895537 -168.407254 
L 364.212893 -168.362584 
L 364.530248 -168.31707 
L 364.847603 -168.271095 
L 365.164959 -168.226199 
L 365.482314 -168.183152 
L 365.799669 -168.142627 
L 366.117025 -168.104262 
L 366.43438 -168.066894 
L 366.751736 -168.028123 
L 367.069091 -167.986587 
L 367.386446 -167.941303 
L 367.703802 -167.892274 
L 368.021157 -167.840309 
L 368.338512 -167.788182 
L 368.655868 -167.73766 
L 368.973223 -167.689273 
L 369.290579 -167.644692 
L 369.607934 -167.60319 
L 369.925289 -167.563351 
L 370.242645 -167.523948 
L 370.56 -167.483923 
L 370.877355 -167.442462 
L 371.194711 -167.398754 
L 371.512066 -167.353706 
L 371.829421 -167.309371 
L 372.146777 -167.267358 
L 372.464132 -167.22913 
L 372.781488 -167.195283 
L 373.098843 -167.165652 
L 373.416198 -167.140463 
L 373.733554 -167.120386 
L 374.050909 -167.103958 
L 374.368264 -167.088033 
L 374.68562 -167.06852 
L 375.002975 -167.045235 
L 375.320331 -167.018569 
L 375.637686 -166.9903 
L 375.955041 -166.960019 
L 376.272397 -166.929539 
L 376.589752 -166.900206 
L 376.907107 -166.872829 
L 377.224463 -166.845024 
L 377.541818 -166.815927 
L 377.859174 -166.783934 
L 378.176529 -166.749267 
L 378.493884 -166.710821 
L 378.81124 -166.671006 
L 379.128595 -166.628793 
L 379.44595 -166.584349 
L 379.763306 -166.538269 
L 380.080661 -166.491302 
L 380.398017 -166.443875 
L 380.715372 -166.395846 
L 381.032727 -166.347276 
L 381.350083 -166.298725 
L 381.667438 -166.250298 
L 381.984793 -166.201795 
L 382.302149 -166.152659 
L 382.619504 -166.102286 
L 382.93686 -166.051289 
L 383.254215 -166.000395 
L 383.57157 -165.949836 
L 383.888926 -165.900685 
L 384.206281 -165.85418 
L 384.523636 -165.811077 
L 384.840992 -165.77158 
L 385.158347 -165.735239 
L 385.475702 -165.701848 
L 385.793058 -165.671404 
L 386.110413 -165.643659 
L 386.427769 -165.6192 
L 386.745124 -165.598988 
L 387.062479 -165.585143 
L 387.379835 -165.578994 
L 387.69719 -165.582284 
L 388.014545 -165.595912 
L 388.331901 -165.620465 
L 388.649256 -165.655135 
L 388.966612 -165.731226 
L 389.283967 -165.806968 
L 389.601322 -165.881118 
L 389.918678 -165.953483 
L 390.236033 -166.024927 
L 390.553388 -166.09627 
L 390.870744 -166.168433 
L 391.188099 -166.242078 
L 391.505455 -166.318104 
L 391.82281 -166.396649 
L 392.140165 -166.476057 
L 392.457521 -166.555066 
L 392.774876 -166.632449 
L 393.092231 -166.707314 
L 393.409587 -166.779518 
L 393.726942 -166.848768 
L 394.044298 -166.914622 
L 394.361653 -166.978109 
L 394.679008 -167.041604 
L 394.996364 -167.108356 
L 395.313719 -167.178347 
L 395.631074 -167.251092 
L 395.94843 -167.325222 
L 396.265785 -167.400888 
L 396.58314 -167.477442 
L 396.900496 -167.554483 
L 397.217851 -167.631446 
L 397.535207 -167.709988 
L 397.852562 -167.790472 
L 398.169917 -167.873873 
L 398.487273 -171.072 
L 398.487273 -171.072 
L 398.487273 -171.072 
L 398.169917 -171.072 
L 397.852562 -171.072 
L 397.535207 -171.072 
L 397.217851 -171.072 
L 396.900496 -171.072 
L 396.58314 -171.072 
L 396.265785 -171.072 
L 395.94843 -171.072 
L 395.631074 -171.072 
L 395.313719 -171.072 
L 394.996364 -171.072 
L 394.679008 -171.072 
L 394.361653 -171.072 
L 394.044298 -171.072 
L 393.726942 -171.072 
L 393.409587 -171.072 
L 393.092231 -171.072 
L 392.774876 -171.072 
L 392.457521 -171.072 
L 392.140165 -171.072 
L 391.82281 -171.072 
L 391.505455 -171.072 
L 391.188099 -171.072 
L 390.870744 -171.072 
L 390.553388 -171.072 
L 390.236033 -171.072 
L 389.918678 -171.072 
L 389.601322 -171.072 
L 389.283967 -171.072 
L 388.966612 -171.072 
L 388.649256 -171.072 
L 388.331901 -171.072 
L 388.014545 -171.072 
L 387.69719 -171.072 
L 387.379835 -171.072 
L 387.062479 -171.072 
L 386.745124 -171.072 
L 386.427769 -171.072 
L 386.110413 -171.072 
L 385.793058 -171.072 
L 385.475702 -171.072 
L 385.158347 -171.072 
L 384.840992 -171.072 
L 384.523636 -171.072 
L 384.206281 -171.072 
L 383.888926 -171.072 
L 383.57157 -171.072 
L 383.254215 -171.072 
L 382.93686 -171.072 
L 382.619504 -171.072 
L 382.302149 -171.072 
L 381.984793 -171.072 
L 381.667438 -171.072 
L 381.350083 -171.072 
L 381.032727 -171.072 
L 380.715372 -171.072 
L 380.398017 -171.072 
L 380.080661 -171.072 
L 379.763306 -171.072 
L 379.44595 -171.072 
L 379.128595 -171.072 
L 378.81124 -171.072 
L 378.493884 -171.072 
L 378.176529 -171.072 
L 377.859174 -171.072 
L 377.541818 -171.072 
L 377.224463 -171.072 
L 376.907107 -171.072 
L 376.589752 -171.072 
L 376.272397 -171.072 
L 375.955041 -171.072 
L 375.637686 -171.072 
L 375.320331 -171.072 
L 375.002975 -171.072 
L 374.68562 -171.072 
L 374.368264 -171.072 
L 374.050909 -171.072 
L 373.733554 -171.072 
L 373.416198 -171.072 
L 373.098843 -171.072 
L 372.781488 -171.072 
L 372.464132 -171.072 
L 372.146777 -171.072 
L 371.829421 -171.072 
L 371.512066 -171.072 
L 371.194711 -171.072 
L 370.877355 -171.072 
L 370.56 -171.072 
L 370.242645 -171.072 
L 369.925289 -171.072 
L 369.607934 -171.072 
L 369.290579 -171.072 
L 368.973223 -171.072 
L 368.655868 -171.072 
L 368.338512 -171.072 
L 368.021157 -171.072 
L 367.703802 -171.072 
L 367.386446 -171.072 
L 367.069091 -171.072 
L 366.751736 -171.072 
L 366.43438 -171.072 
L 366.117025 -171.072 
L 365.799669 -171.072 
L 365.482314 -171.072 
L 365.164959 -171.072 
L 364.847603 -171.072 
L 364.530248 -171.072 
L 364.212893 -171.072 
L 363.895537 -171.072 
L 363.578182 -171.072 
L 363.260826 -171.072 
L 362.943471 -171.072 
L 362.626116 -171.072 
L 362.30876 -171.072 
L 361.991405 -171.072 
L 361.67405 -171.072 
L 361.356694 -171.072 
L 361.039339 -171.072 
L 360.721983 -171.072 
L 360.404628 -171.072 
L 360.087273 -171.072 
L 359.769917 -171.072 
L 359.452562 -171.072 
L 359.135207 -171.072 
L 358.817851 -171.072 
L 358.500496 -171.072 
L 358.18314 -171.072 
L 357.865785 -171.072 
L 357.54843 -171.072 
L 357.231074 -171.072 
L 356.913719 -171.072 
L 356.596364 -171.072 
L 356.279008 -171.072 
L 355.961653 -171.072 
L 355.644298 -171.072 
L 355.326942 -171.072 
L 355.009587 -171.072 
L 354.692231 -171.072 
L 354.374876 -171.072 
L 354.057521 -171.072 
L 353.740165 -171.072 
L 353.42281 -171.072 
L 353.105455 -171.072 
L 352.788099 -171.072 
L 352.470744 -171.072 
L 352.153388 -171.072 
L 351.836033 -171.072 
L 351.518678 -171.072 
L 351.201322 -171.072 
L 350.883967 -171.072 
L 350.566612 -171.072 
L 350.249256 -171.072 
L 349.931901 -171.072 
L 349.614545 -171.072 
L 349.29719 -171.072 
L 348.979835 -171.072 
L 348.662479 -171.072 
L 348.345124 -171.072 
L 348.027769 -171.072 
L 347.710413 -171.072 
L 347.393058 -171.072 
L 347.075702 -171.072 
L 346.758347 -171.072 
L 346.440992 -171.072 
L 346.123636 -171.072 
L 345.806281 -171.072 
L 345.488926 -171.072 
L 345.17157 -171.072 
L 344.854215 -171.072 
L 344.53686 -171.072 
L 344.219504 -171.072 
L 343.902149 -171.072 
L 343.584793 -171.072 
L 343.267438 -171.072 
L 342.950083 -171.072 
L 342.632727 -171.072 
L 342.315372 -171.072 
L 341.998017 -171.072 
L 341.680661 -171.072 
L 341.363306 -171.072 
L 341.04595 -171.072 
L 340.728595 -171.072 
L 340.41124 -171.072 
L 340.093884 -171.072 
L 339.776529 -171.072 
L 339.459174 -171.072 
L 339.141818 -171.072 
L 338.824463 -171.072 
L 338.507107 -171.072 
L 338.189752 -171.072 
L 337.872397 -171.072 
L 337.555041 -171.072 
L 337.237686 -171.072 
L 336.920331 -171.072 
L 336.602975 -171.072 
L 336.28562 -171.072 
L 335.968264 -171.072 
L 335.650909 -171.072 
L 335.333554 -171.072 
L 335.016198 -171.072 
L 334.698843 -171.072 
L 334.381488 -171.072 
L 334.064132 -171.072 
L 333.746777 -171.072 
L 333.429421 -171.072 
L 333.112066 -171.072 
L 332.794711 -171.072 
L 332.477355 -171.072 
L 332.16 -171.072 
L 331.842645 -171.072 
L 331.525289 -171.072 
L 331.207934 -171.072 
L 330.890579 -171.072 
L 330.573223 -171.072 
L 330.255868 -171.072 
L 329.938512 -171.072 
L 329.621157 -171.072 
L 329.303802 -171.072 
L 328.986446 -171.072 
L 328.669091 -171.072 
L 328.351736 -171.072 
L 328.03438 -171.072 
L 327.717025 -171.072 
L 327.399669 -171.072 
L 327.082314 -171.072 
L 326.764959 -171.072 
L 326.447603 -171.072 
L 326.130248 -171.072 
L 325.812893 -171.072 
L 325.495537 -171.072 
L 325.178182 -171.072 
L 324.860826 -171.072 
L 324.543471 -171.072 
L 324.226116 -171.072 
L 323.90876 -171.072 
L 323.591405 -171.072 
L 323.27405 -171.072 
L 322.956694 -171.072 
L 322.639339 -171.072 
L 322.321983 -171.072 
L 322.004628 -171.072 
L 321.687273 -171.072 
L 321.369917 -171.072 
L 321.052562 -171.072 
L 320.735207 -171.072 
L 320.417851 -171.072 
L 320.100496 -171.072 
L 319.78314 -171.072 
L 319.465785 -171.072 
L 319.14843 -171.072 
L 318.831074 -171.072 
L 318.513719 -171.072 
L 318.196364 -171.072 
L 317.879008 -171.072 
L 317.561653 -171.072 
L 317.244298 -171.072 
L 316.926942 -171.072 
L 316.609587 -171.072 
L 316.292231 -171.072 
L 315.974876 -171.072 
L 315.657521 -171.072 
L 315.340165 -171.072 
L 315.02281 -171.072 
L 314.705455 -171.072 
L 314.388099 -171.072 
L 314.070744 -171.072 
L 313.753388 -171.072 
L 313.436033 -171.072 
L 313.118678 -171.072 
L 312.801322 -171.072 
L 312.483967 -171.072 
L 312.166612 -171.072 
L 311.849256 -171.072 
L 311.531901 -171.072 
L 311.214545 -171.072 
L 310.89719 -171.072 
L 310.579835 -171.072 
L 310.262479 -171.072 
L 309.945124 -171.072 
L 309.627769 -171.072 
L 309.310413 -171.072 
L 308.993058 -171.072 
L 308.675702 -171.072 
L 308.358347 -171.072 
L 308.040992 -171.072 
L 307.723636 -171.072 
L 307.406281 -171.072 
L 307.088926 -171.072 
L 306.77157 -171.072 
L 306.454215 -171.072 
L 306.13686 -171.072 
L 305.819504 -171.072 
L 305.502149 -171.072 
L 305.184793 -171.072 
L 304.867438 -171.072 
L 304.550083 -171.072 
L 304.232727 -171.072 
L 303.915372 -171.072 
L 303.598017 -171.072 
L 303.280661 -171.072 
L 302.963306 -171.072 
L 302.64595 -171.072 
L 302.328595 -171.072 
L 302.01124 -171.072 
L 301.693884 -171.072 
L 301.376529 -171.072 
L 301.059174 -171.072 
L 300.741818 -171.072 
L 300.424463 -171.072 
L 300.107107 -171.072 
L 299.789752 -171.072 
L 299.472397 -171.072 
L 299.155041 -171.072 
L 298.837686 -171.072 
L 298.520331 -171.072 
L 298.202975 -171.072 
L 297.88562 -171.072 
L 297.568264 -171.072 
L 297.250909 -171.072 
L 296.933554 -171.072 
L 296.616198 -171.072 
L 296.298843 -171.072 
L 295.981488 -171.072 
L 295.664132 -171.072 
L 295.346777 -171.072 
L 295.029421 -171.072 
L 294.712066 -171.072 
L 294.394711 -171.072 
L 294.077355 -171.072 
L 293.76 -171.072 
L 293.442645 -171.072 
L 293.125289 -171.072 
L 292.807934 -171.072 
L 292.490579 -171.072 
L 292.173223 -171.072 
L 291.855868 -171.072 
L 291.538512 -171.072 
L 291.221157 -171.072 
L 290.903802 -171.072 
L 290.586446 -171.072 
L 290.269091 -171.072 
L 289.951736 -171.072 
L 289.63438 -171.072 
L 289.317025 -171.072 
L 288.999669 -171.072 
L 288.682314 -171.072 
L 288.364959 -171.072 
L 288.047603 -171.072 
L 287.730248 -171.072 
L 287.412893 -171.072 
L 287.095537 -171.072 
L 286.778182 -171.072 
L 286.460826 -171.072 
L 286.143471 -171.072 
L 285.826116 -171.072 
L 285.50876 -171.072 
L 285.191405 -171.072 
L 284.87405 -171.072 
L 284.556694 -171.072 
L 284.239339 -171.072 
L 283.921983 -171.072 
L 283.604628 -171.072 
L 283.287273 -171.072 
L 282.969917 -171.072 
L 282.652562 -171.072 
L 282.335207 -171.072 
L 282.017851 -171.072 
L 281.700496 -171.072 
L 281.38314 -171.072 
L 281.065785 -171.072 
L 280.74843 -171.072 
L 280.431074 -171.072 
L 280.113719 -171.072 
L 279.796364 -171.072 
L 279.479008 -171.072 
L 279.161653 -171.072 
L 278.844298 -171.072 
L 278.526942 -171.072 
L 278.209587 -171.072 
L 277.892231 -171.072 
L 277.574876 -171.072 
L 277.257521 -171.072 
L 276.940165 -171.072 
L 276.62281 -171.072 
L 276.305455 -171.072 
L 275.988099 -171.072 
L 275.670744 -171.072 
L 275.353388 -171.072 
L 275.036033 -171.072 
L 274.718678 -171.072 
L 274.401322 -171.072 
L 274.083967 -171.072 
L 273.766612 -171.072 
L 273.449256 -171.072 
L 273.131901 -171.072 
L 272.814545 -171.072 
L 272.49719 -171.072 
L 272.179835 -171.072 
L 271.862479 -171.072 
L 271.545124 -171.072 
L 271.227769 -171.072 
L 270.910413 -171.072 
L 270.593058 -171.072 
L 270.275702 -171.072 
L 269.958347 -171.072 
L 269.640992 -171.072 
L 269.323636 -171.072 
L 269.006281 -171.072 
L 268.688926 -171.072 
L 268.37157 -171.072 
L 268.054215 -171.072 
L 267.73686 -171.072 
L 267.419504 -171.072 
L 267.102149 -171.072 
L 266.784793 -171.072 
L 266.467438 -171.072 
L 266.150083 -171.072 
L 265.832727 -171.072 
L 265.515372 -171.072 
L 265.198017 -171.072 
L 264.880661 -171.072 
L 264.563306 -171.072 
L 264.24595 -171.072 
L 263.928595 -171.072 
L 263.61124 -171.072 
L 263.293884 -171.072 
L 262.976529 -171.072 
L 262.659174 -171.072 
L 262.341818 -171.072 
L 262.024463 -171.072 
L 261.707107 -171.072 
L 261.389752 -171.072 
L 261.072397 -171.072 
L 260.755041 -171.072 
L 260.437686 -171.072 
L 260.120331 -171.072 
L 259.802975 -171.072 
L 259.48562 -171.072 
L 259.168264 -171.072 
L 258.850909 -171.072 
L 258.533554 -171.072 
L 258.216198 -171.072 
L 257.898843 -171.072 
L 257.581488 -171.072 
L 257.264132 -171.072 
L 256.946777 -171.072 
L 256.629421 -171.072 
L 256.312066 -171.072 
L 255.994711 -171.072 
L 255.677355 -171.072 
L 255.36 -171.072 
L 255.042645 -171.072 
L 254.725289 -171.072 
L 254.407934 -171.072 
L 254.090579 -171.072 
L 253.773223 -171.072 
L 253.455868 -171.072 
L 253.138512 -171.072 
L 252.821157 -171.072 
L 252.503802 -171.072 
L 252.186446 -171.072 
L 251.869091 -171.072 
L 251.551736 -171.072 
L 251.23438 -171.072 
L 250.917025 -171.072 
L 250.599669 -171.072 
L 250.282314 -171.072 
L 249.964959 -171.072 
L 249.647603 -171.072 
L 249.330248 -171.072 
L 249.012893 -171.072 
L 248.695537 -171.072 
L 248.378182 -171.072 
L 248.060826 -171.072 
L 247.743471 -171.072 
L 247.426116 -171.072 
L 247.10876 -171.072 
L 246.791405 -171.072 
L 246.47405 -171.072 
L 246.156694 -171.072 
L 245.839339 -171.072 
L 245.521983 -171.072 
L 245.204628 -171.072 
L 244.887273 -171.072 
L 244.569917 -171.072 
L 244.252562 -171.072 
L 243.935207 -171.072 
L 243.617851 -171.072 
L 243.300496 -171.072 
L 242.98314 -171.072 
L 242.665785 -171.072 
L 242.34843 -171.072 
L 242.031074 -171.072 
L 241.713719 -171.072 
L 241.396364 -171.072 
L 241.079008 -171.072 
L 240.761653 -171.072 
L 240.444298 -171.072 
L 240.126942 -171.072 
L 239.809587 -171.072 
L 239.492231 -171.072 
L 239.174876 -171.072 
L 238.857521 -171.072 
L 238.540165 -171.072 
L 238.22281 -171.072 
L 237.905455 -171.072 
L 237.588099 -171.072 
L 237.270744 -171.072 
L 236.953388 -171.072 
L 236.636033 -171.072 
L 236.318678 -171.072 
L 236.001322 -171.072 
L 235.683967 -171.072 
L 235.366612 -171.072 
L 235.049256 -171.072 
L 234.731901 -171.072 
L 234.414545 -171.072 
L 234.09719 -171.072 
L 233.779835 -171.072 
L 233.462479 -171.072 
L 233.145124 -171.072 
L 232.827769 -171.072 
L 232.510413 -171.072 
L 232.193058 -171.072 
L 231.875702 -171.072 
L 231.558347 -171.072 
L 231.240992 -171.072 
L 230.923636 -171.072 
L 230.606281 -171.072 
L 230.288926 -171.072 
L 229.97157 -171.072 
L 229.654215 -171.072 
L 229.33686 -171.072 
L 229.019504 -171.072 
L 228.702149 -171.072 
L 228.384793 -171.072 
L 228.067438 -171.072 
L 227.750083 -171.072 
L 227.432727 -171.072 
L 227.115372 -171.072 
L 226.798017 -171.072 
L 226.480661 -171.072 
L 226.163306 -171.072 
L 225.84595 -171.072 
L 225.528595 -171.072 
L 225.21124 -171.072 
L 224.893884 -171.072 
L 224.576529 -171.072 
L 224.259174 -171.072 
L 223.941818 -171.072 
L 223.624463 -171.072 
L 223.307107 -171.072 
L 222.989752 -171.072 
L 222.672397 -171.072 
L 222.355041 -171.072 
L 222.037686 -171.072 
L 221.720331 -171.072 
L 221.402975 -171.072 
L 221.08562 -171.072 
L 220.768264 -171.072 
L 220.450909 -171.072 
L 220.133554 -171.072 
L 219.816198 -171.072 
L 219.498843 -171.072 
L 219.181488 -171.072 
L 218.864132 -171.072 
L 218.546777 -171.072 
L 218.229421 -171.072 
L 217.912066 -171.072 
L 217.594711 -171.072 
L 217.277355 -171.072 
L 216.96 -171.072 
L 216.642645 -171.072 
L 216.325289 -171.072 
L 216.007934 -171.072 
L 215.690579 -171.072 
L 215.373223 -171.072 
L 215.055868 -171.072 
L 214.738512 -171.072 
L 214.421157 -171.072 
L 214.103802 -171.072 
L 213.786446 -171.072 
L 213.469091 -171.072 
L 213.151736 -171.072 
L 212.83438 -171.072 
L 212.517025 -171.072 
L 212.199669 -171.072 
L 211.882314 -171.072 
L 211.564959 -171.072 
L 211.247603 -171.072 
L 210.930248 -171.072 
L 210.612893 -171.072 
L 210.295537 -171.072 
L 209.978182 -171.072 
L 209.660826 -171.072 
L 209.343471 -171.072 
L 209.026116 -171.072 
L 208.70876 -171.072 
L 208.391405 -171.072 
L 208.07405 -171.072 
L 207.756694 -171.072 
L 207.439339 -171.072 
L 207.121983 -171.072 
L 206.804628 -171.072 
L 206.487273 -171.072 
L 206.169917 -171.072 
L 205.852562 -171.072 
L 205.535207 -171.072 
L 205.217851 -171.072 
L 204.900496 -171.072 
L 204.58314 -171.072 
L 204.265785 -171.072 
L 203.94843 -171.072 
L 203.631074 -171.072 
L 203.313719 -171.072 
L 202.996364 -171.072 
L 202.679008 -171.072 
L 202.361653 -171.072 
L 202.044298 -171.072 
L 201.726942 -171.072 
L 201.409587 -171.072 
L 201.092231 -171.072 
L 200.774876 -171.072 
L 200.457521 -171.072 
L 200.140165 -171.072 
L 199.82281 -171.072 
L 199.505455 -171.072 
L 199.188099 -171.072 
L 198.870744 -171.072 
L 198.553388 -171.072 
L 198.236033 -171.072 
L 197.918678 -171.072 
L 197.601322 -171.072 
L 197.283967 -171.072 
L 196.966612 -171.072 
L 196.649256 -171.072 
L 196.331901 -171.072 
L 196.014545 -171.072 
L 195.69719 -171.072 
L 195.379835 -171.072 
L 195.062479 -171.072 
L 194.745124 -171.072 
L 194.427769 -171.072 
L 194.110413 -171.072 
L 193.793058 -171.072 
L 193.475702 -171.072 
L 193.158347 -171.072 
L 192.840992 -171.072 
L 192.523636 -171.072 
L 192.206281 -171.072 
L 191.888926 -171.072 
L 191.57157 -171.072 
L 191.254215 -171.072 
L 190.93686 -171.072 
L 190.619504 -171.072 
L 190.302149 -171.072 
L 189.984793 -171.072 
L 189.667438 -171.072 
L 189.350083 -171.072 
L 189.032727 -171.072 
L 188.715372 -171.072 
L 188.398017 -171.072 
L 188.080661 -171.072 
L 187.763306 -171.072 
L 187.44595 -171.072 
L 187.128595 -171.072 
L 186.81124 -171.072 
L 186.493884 -171.072 
L 186.176529 -171.072 
L 185.859174 -171.072 
L 185.541818 -171.072 
L 185.224463 -171.072 
L 184.907107 -171.072 
L 184.589752 -171.072 
L 184.272397 -171.072 
L 183.955041 -171.072 
L 183.637686 -171.072 
L 183.320331 -171.072 
L 183.002975 -171.072 
L 182.68562 -171.072 
L 182.368264 -171.072 
L 182.050909 -171.072 
L 181.733554 -171.072 
L 181.416198 -171.072 
L 181.098843 -171.072 
L 180.781488 -171.072 
L 180.464132 -171.072 
L 180.146777 -171.072 
L 179.829421 -171.072 
L 179.512066 -171.072 
L 179.194711 -171.072 
L 178.877355 -171.072 
L 178.56 -171.072 
L 178.242645 -171.072 
L 177.925289 -171.072 
L 177.607934 -171.072 
L 177.290579 -171.072 
L 176.973223 -171.072 
L 176.655868 -171.072 
L 176.338512 -171.072 
L 176.021157 -171.072 
L 175.703802 -171.072 
L 175.386446 -171.072 
L 175.069091 -171.072 
L 174.751736 -171.072 
L 174.43438 -171.072 
L 174.117025 -171.072 
L 173.799669 -171.072 
L 173.482314 -171.072 
L 173.164959 -171.072 
L 172.847603 -171.072 
L 172.530248 -171.072 
L 172.212893 -171.072 
L 171.895537 -171.072 
L 171.578182 -171.072 
L 171.260826 -171.072 
L 170.943471 -171.072 
L 170.626116 -171.072 
L 170.30876 -171.072 
L 169.991405 -171.072 
L 169.67405 -171.072 
L 169.356694 -171.072 
L 169.039339 -171.072 
L 168.721983 -171.072 
L 168.404628 -171.072 
L 168.087273 -171.072 
L 167.769917 -171.072 
L 167.452562 -171.072 
L 167.135207 -171.072 
L 166.817851 -171.072 
L 166.500496 -171.072 
L 166.18314 -171.072 
L 165.865785 -171.072 
L 165.54843 -171.072 
L 165.231074 -171.072 
L 164.913719 -171.072 
L 164.596364 -171.072 
L 164.279008 -171.072 
L 163.961653 -171.072 
L 163.644298 -171.072 
L 163.326942 -171.072 
L 163.009587 -171.072 
L 162.692231 -171.072 
L 162.374876 -171.072 
L 162.057521 -171.072 
L 161.740165 -171.072 
L 161.42281 -171.072 
L 161.105455 -171.072 
L 160.788099 -171.072 
L 160.470744 -171.072 
L 160.153388 -171.072 
L 159.836033 -171.072 
L 159.518678 -171.072 
L 159.201322 -171.072 
L 158.883967 -171.072 
L 158.566612 -171.072 
L 158.249256 -171.072 
L 157.931901 -171.072 
L 157.614545 -171.072 
L 157.29719 -171.072 
L 156.979835 -171.072 
L 156.662479 -171.072 
L 156.345124 -171.072 
L 156.027769 -171.072 
L 155.710413 -171.072 
L 155.393058 -171.072 
L 155.075702 -171.072 
L 154.758347 -171.072 
L 154.440992 -171.072 
L 154.123636 -171.072 
L 153.806281 -171.072 
L 153.488926 -171.072 
L 153.17157 -171.072 
L 152.854215 -171.072 
L 152.53686 -171.072 
L 152.219504 -171.072 
L 151.902149 -171.072 
L 151.584793 -171.072 
L 151.267438 -171.072 
L 150.950083 -171.072 
L 150.632727 -171.072 
L 150.315372 -171.072 
L 149.998017 -171.072 
L 149.680661 -171.072 
L 149.363306 -171.072 
L 149.04595 -171.072 
L 148.728595 -171.072 
L 148.41124 -171.072 
L 148.093884 -171.072 
L 147.776529 -171.072 
L 147.459174 -171.072 
L 147.141818 -171.072 
L 146.824463 -171.072 
L 146.507107 -171.072 
L 146.189752 -171.072 
L 145.872397 -171.072 
L 145.555041 -171.072 
L 145.237686 -171.072 
L 144.920331 -171.072 
L 144.602975 -171.072 
L 144.28562 -171.072 
L 143.968264 -171.072 
L 143.650909 -171.072 
L 143.333554 -171.072 
L 143.016198 -171.072 
L 142.698843 -171.072 
L 142.381488 -171.072 
L 142.064132 -171.072 
L 141.746777 -171.072 
L 141.429421 -171.072 
L 141.112066 -171.072 
L 140.794711 -171.072 
L 140.477355 -171.072 
L 140.16 -171.072 
L 139.842645 -171.072 
L 139.525289 -171.072 
L 139.207934 -171.072 
L 138.890579 -171.072 
L 138.573223 -171.072 
L 138.255868 -171.072 
L 137.938512 -171.072 
L 137.621157 -171.072 
L 137.303802 -171.072 
L 136.986446 -171.072 
L 136.669091 -171.072 
L 136.351736 -171.072 
L 136.03438 -171.072 
L 135.717025 -171.072 
L 135.399669 -171.072 
L 135.082314 -171.072 
L 134.764959 -171.072 
L 134.447603 -171.072 
L 134.130248 -171.072 
L 133.812893 -171.072 
L 133.495537 -171.072 
L 133.178182 -171.072 
L 132.860826 -171.072 
L 132.543471 -171.072 
L 132.226116 -171.072 
L 131.90876 -171.072 
L 131.591405 -171.072 
L 131.27405 -171.072 
L 130.956694 -171.072 
L 130.639339 -171.072 
L 130.321983 -171.072 
L 130.004628 -171.072 
L 129.687273 -171.072 
L 129.369917 -171.072 
L 129.052562 -171.072 
L 128.735207 -171.072 
L 128.417851 -171.072 
L 128.100496 -171.072 
L 127.78314 -171.072 
L 127.465785 -171.072 
L 127.14843 -171.072 
L 126.831074 -171.072 
L 126.513719 -171.072 
L 126.196364 -171.072 
L 125.879008 -171.072 
L 125.561653 -171.072 
L 125.244298 -171.072 
L 124.926942 -171.072 
L 124.609587 -171.072 
L 124.292231 -171.072 
L 123.974876 -171.072 
L 123.657521 -171.072 
L 123.340165 -171.072 
L 123.02281 -171.072 
L 122.705455 -171.072 
L 122.388099 -171.072 
L 122.070744 -171.072 
L 121.753388 -171.072 
L 121.436033 -171.072 
L 121.118678 -171.072 
L 120.801322 -171.072 
L 120.483967 -171.072 
L 120.166612 -171.072 
L 119.849256 -171.072 
L 119.531901 -171.072 
L 119.214545 -171.072 
L 118.89719 -171.072 
L 118.579835 -171.072 
L 118.262479 -171.072 
L 117.945124 -171.072 
L 117.627769 -171.072 
L 117.310413 -171.072 
L 116.993058 -171.072 
L 116.675702 -171.072 
L 116.358347 -171.072 
L 116.040992 -171.072 
L 115.723636 -171.072 
L 115.406281 -171.072 
L 115.088926 -171.072 
L 114.77157 -171.072 
L 114.454215 -171.072 
L 114.13686 -171.072 
L 113.819504 -171.072 
L 113.502149 -171.072 
L 113.184793 -171.072 
L 112.867438 -171.072 
L 112.550083 -171.072 
L 112.232727 -171.072 
L 111.915372 -171.072 
L 111.598017 -171.072 
L 111.280661 -171.072 
L 110.963306 -171.072 
L 110.64595 -171.072 
L 110.328595 -171.072 
L 110.01124 -171.072 
L 109.693884 -171.072 
L 109.376529 -171.072 
L 109.059174 -171.072 
L 108.741818 -171.072 
L 108.424463 -171.072 
L 108.107107 -171.072 
L 107.789752 -171.072 
L 107.472397 -171.072 
L 107.155041 -171.072 
L 106.837686 -171.072 
L 106.520331 -171.072 
L 106.202975 -171.072 
L 105.88562 -171.072 
L 105.568264 -171.072 
L 105.250909 -171.072 
L 104.933554 -171.072 
L 104.616198 -171.072 
L 104.298843 -171.072 
L 103.981488 -171.072 
L 103.664132 -171.072 
L 103.346777 -171.072 
L 103.029421 -171.072 
L 102.712066 -171.072 
L 102.394711 -171.072 
L 102.077355 -171.072 
L 101.76 -171.072 
L 101.442645 -171.072 
L 101.125289 -171.072 
L 100.807934 -171.072 
L 100.490579 -171.072 
L 100.173223 -171.072 
L 99.855868 -171.072 
L 99.538512 -171.072 
L 99.221157 -171.072 
L 98.903802 -171.072 
L 98.586446 -171.072 
L 98.269091 -171.072 
L 97.951736 -171.072 
L 97.63438 -171.072 
L 97.317025 -171.072 
L 96.999669 -171.072 
L 96.682314 -171.072 
L 96.364959 -171.072 
L 96.047603 -171.072 
L 95.730248 -171.072 
L 95.412893 -171.072 
L 95.095537 -171.072 
L 94.778182 -171.072 
L 94.460826 -171.072 
L 94.143471 -171.072 
L 93.826116 -171.072 
L 93.50876 -171.072 
L 93.191405 -171.072 
L 92.87405 -171.072 
L 92.556694 -171.072 
L 92.239339 -171.072 
L 91.921983 -171.072 
L 91.604628 -171.072 
L 91.287273 -171.072 
L 90.969917 -171.072 
L 90.652562 -171.072 
L 90.335207 -171.072 
L 90.017851 -171.072 
L 89.700496 -171.072 
L 89.38314 -171.072 
L 89.065785 -171.072 
L 88.74843 -171.072 
L 88.431074 -171.072 
L 88.113719 -171.072 
L 87.796364 -171.072 
L 87.479008 -171.072 
L 87.161653 -171.072 
L 86.844298 -171.072 
L 86.526942 -171.072 
L 86.209587 -171.072 
L 85.892231 -171.072 
L 85.574876 -171.072 
L 85.257521 -171.072 
L 84.940165 -171.072 
L 84.62281 -171.072 
L 84.305455 -171.072 
L 83.988099 -171.072 
L 83.670744 -171.072 
L 83.353388 -171.072 
L 83.036033 -171.072 
L 82.718678 -171.072 
L 82.401322 -171.072 
L 82.083967 -171.072 
L 81.766612 -171.072 
L 81.449256 -171.072 
L 81.131901 -171.072 
L 80.814545 -171.072 
L 80.49719 -171.072 
L 80.179835 -171.072 
L 79.862479 -171.072 
L 79.545124 -171.072 
L 79.227769 -171.072 
L 78.910413 -171.072 
L 78.593058 -171.072 
L 78.275702 -171.072 
L 77.958347 -171.072 
L 77.640992 -171.072 
L 77.323636 -171.072 
L 77.006281 -171.072 
L 76.688926 -171.072 
L 76.37157 -171.072 
L 76.054215 -171.072 
L 75.73686 -171.072 
L 75.419504 -171.072 
L 75.102149 -171.072 
L 74.784793 -171.072 
L 74.467438 -171.072 
L 74.150083 -171.072 
L 73.832727 -171.072 
z
" style="stroke: #87ceeb; stroke-opacity: 0.75"/>
    </defs>
    <g clip-path="url(#p724fbd74da)">
     <use xlink:href="#mc184a2a6e2" x="0" y="345.6" style="fill: #87ceeb; fill-opacity: 0.75; stroke: #87ceeb; stroke-opacity: 0.75"/>
    </g>
   </g>
   <g id="matplotlib.axis_1">
    <g id="xtick_1">
     <g id="line2d_1">
      <defs>
       <path id="m102ae4ddbf" d="M 0 0 
L 0 3.5 
" style="stroke: #000000; stroke-width: 0.8"/>
      </defs>
      <g>
       <use xlink:href="#m102ae4ddbf" x="73.832727" y="307.584" style="stroke: #000000; stroke-width: 0.8"/>
      </g>
     </g>
     <g id="text_1">
      <!-- 0 -->
      <g transform="translate(70.531868 322.161969) scale(0.11 -0.11)">
       <defs>
        <path id="AndaleMono-30" d="M 1913 4494 
Q 2613 4494 2989 3892 
Q 3366 3291 3366 2203 
Q 3366 1150 3000 533 
Q 2634 -84 1913 -84 
Q 1216 -84 837 516 
Q 459 1116 459 2203 
Q 459 3259 826 3876 
Q 1194 4494 1913 4494 
z
M 1913 366 
Q 2375 366 2598 805 
Q 2822 1244 2822 2203 
Q 2822 3166 2598 3602 
Q 2375 4038 1913 4038 
Q 1456 4038 1231 3591 
Q 1006 3144 1006 2203 
Q 1006 1250 1229 808 
Q 1453 366 1913 366 
z
M 1900 2672 
Q 2097 2672 2233 2536 
Q 2369 2400 2369 2203 
Q 2369 2000 2231 1854 
Q 2094 1709 1900 1709 
Q 1709 1709 1573 1854 
Q 1438 2000 1438 2203 
Q 1438 2403 1570 2537 
Q 1703 2672 1900 2672 
z
" transform="scale(0.015625)"/>
       </defs>
       <use xlink:href="#AndaleMono-30"/>
      </g>
     </g>
    </g>
    <g id="xtick_2">
     <g id="line2d_2">
      <g>
       <use xlink:href="#m102ae4ddbf" x="137.303802" y="307.584" style="stroke: #000000; stroke-width: 0.8"/>
      </g>
     </g>
     <g id="text_2">
      <!-- 200 -->
      <g transform="translate(127.401224 322.161969) scale(0.11 -0.11)">
       <defs>
        <path id="AndaleMono-32" d="M 3066 0 
L 641 0 
L 641 372 
Q 1563 1400 1838 1750 
Q 2113 2100 2284 2484 
Q 2456 2869 2456 3250 
Q 2456 3619 2232 3831 
Q 2009 4044 1606 4044 
Q 1297 4044 775 3853 
L 703 4294 
Q 1175 4494 1691 4494 
Q 2281 4494 2642 4161 
Q 3003 3828 3003 3272 
Q 3003 2875 2817 2484 
Q 2631 2094 2340 1734 
Q 2050 1375 1209 447 
L 3066 447 
L 3066 0 
z
" transform="scale(0.015625)"/>
       </defs>
       <use xlink:href="#AndaleMono-32"/>
       <use xlink:href="#AndaleMono-30" x="60.009766"/>
       <use xlink:href="#AndaleMono-30" x="120.019531"/>
      </g>
     </g>
    </g>
    <g id="xtick_3">
     <g id="line2d_3">
      <g>
       <use xlink:href="#m102ae4ddbf" x="200.774876" y="307.584" style="stroke: #000000; stroke-width: 0.8"/>
      </g>
     </g>
     <g id="text_3">
      <!-- 400 -->
      <g transform="translate(190.872298 322.161969) scale(0.11 -0.11)">
       <defs>
        <path id="AndaleMono-34" d="M 3353 1019 
L 2809 1019 
L 2809 0 
L 2297 0 
L 2297 1019 
L 378 1019 
L 378 1409 
L 2119 4409 
L 2809 4409 
L 2809 1466 
L 3353 1466 
L 3353 1019 
z
M 2297 1466 
L 2297 3903 
L 897 1466 
L 2297 1466 
z
" transform="scale(0.015625)"/>
       </defs>
       <use xlink:href="#AndaleMono-34"/>
       <use xlink:href="#AndaleMono-30" x="60.009766"/>
       <use xlink:href="#AndaleMono-30" x="120.019531"/>
      </g>
     </g>
    </g>
    <g id="xtick_4">
     <g id="line2d_4">
      <g>
       <use xlink:href="#m102ae4ddbf" x="264.24595" y="307.584" style="stroke: #000000; stroke-width: 0.8"/>
      </g>
     </g>
     <g id="text_4">
      <!-- 600 -->
      <g transform="translate(254.343372 322.161969) scale(0.11 -0.11)">
       <defs>
        <path id="AndaleMono-36" d="M 1131 2297 
Q 1544 2631 2028 2631 
Q 2588 2631 2961 2273 
Q 3334 1916 3334 1350 
Q 3334 728 3003 322 
Q 2672 -84 2119 -84 
Q 1413 -84 1000 564 
Q 588 1213 588 2150 
Q 588 3150 1017 3822 
Q 1447 4494 2194 4494 
Q 2709 4494 3084 4341 
L 3003 3884 
Q 2569 4044 2209 4044 
Q 1700 4044 1415 3556 
Q 1131 3069 1131 2297 
z
M 1147 1856 
Q 1147 1291 1412 828 
Q 1678 366 2081 366 
Q 2422 366 2606 616 
Q 2791 866 2791 1306 
Q 2791 1713 2587 1947 
Q 2384 2181 2016 2181 
Q 1538 2181 1147 1856 
z
" transform="scale(0.015625)"/>
       </defs>
       <use xlink:href="#AndaleMono-36"/>
       <use xlink:href="#AndaleMono-30" x="60.009766"/>
       <use xlink:href="#AndaleMono-30" x="120.019531"/>
      </g>
     </g>
    </g>
    <g id="xtick_5">
     <g id="line2d_5">
      <g>
       <use xlink:href="#m102ae4ddbf" x="327.717025" y="307.584" style="stroke: #000000; stroke-width: 0.8"/>
      </g>
     </g>
     <g id="text_5">
      <!-- 800 -->
      <g transform="translate(317.814447 322.161969) scale(0.11 -0.11)">
       <defs>
        <path id="AndaleMono-38" d="M 2363 2419 
Q 2813 2288 3061 1972 
Q 3309 1656 3309 1234 
Q 3309 628 2907 272 
Q 2506 -84 1919 -84 
Q 1303 -84 908 275 
Q 513 634 513 1228 
Q 513 1647 769 1965 
Q 1025 2284 1484 2419 
Q 1119 2513 898 2780 
Q 678 3047 678 3378 
Q 678 3803 1015 4148 
Q 1353 4494 1906 4494 
Q 2453 4494 2811 4150 
Q 3169 3806 3169 3378 
Q 3169 3056 2944 2786 
Q 2719 2516 2363 2419 
z
M 1906 2631 
Q 1922 2631 2056 2668 
Q 2191 2706 2286 2761 
Q 2381 2816 2462 2900 
Q 2544 2984 2594 3098 
Q 2644 3213 2644 3353 
Q 2644 3653 2428 3851 
Q 2213 4050 1906 4050 
Q 1609 4050 1396 3847 
Q 1184 3644 1184 3353 
Q 1184 3169 1261 3031 
Q 1338 2894 1452 2809 
Q 1566 2725 1714 2678 
Q 1863 2631 1906 2631 
z
M 1906 2194 
Q 1050 1944 1050 1253 
Q 1050 850 1309 608 
Q 1569 366 1919 366 
Q 2281 366 2529 605 
Q 2778 844 2778 1253 
Q 2778 1563 2606 1808 
Q 2434 2053 1906 2194 
z
" transform="scale(0.015625)"/>
       </defs>
       <use xlink:href="#AndaleMono-38"/>
       <use xlink:href="#AndaleMono-30" x="60.009766"/>
       <use xlink:href="#AndaleMono-30" x="120.019531"/>
      </g>
     </g>
    </g>
    <g id="xtick_6">
     <g id="line2d_6">
      <g>
       <use xlink:href="#m102ae4ddbf" x="391.188099" y="307.584" style="stroke: #000000; stroke-width: 0.8"/>
      </g>
     </g>
     <g id="text_6">
      <!-- 1000 -->
      <g transform="translate(377.984662 322.161969) scale(0.11 -0.11)">
       <defs>
        <path id="AndaleMono-31" d="M 3181 0 
L 863 0 
L 863 447 
L 1797 447 
L 1797 3872 
L 916 3431 
L 916 3944 
L 1869 4434 
L 2309 4434 
L 2309 447 
L 3181 447 
L 3181 0 
z
" transform="scale(0.015625)"/>
       </defs>
       <use xlink:href="#AndaleMono-31"/>
       <use xlink:href="#AndaleMono-30" x="60.009766"/>
       <use xlink:href="#AndaleMono-30" x="120.019531"/>
       <use xlink:href="#AndaleMono-30" x="180.029297"/>
      </g>
     </g>
    </g>
   </g>
   <g id="matplotlib.axis_2">
    <g id="ytick_1">
     <g id="line2d_7">
      <defs>
       <path id="m8a6c45698e" d="M 0 0 
L -3.5 0 
" style="stroke: #000000; stroke-width: 0.8"/>
      </defs>
      <g>
       <use xlink:href="#m8a6c45698e" x="57.6" y="295.488" style="stroke: #000000; stroke-width: 0.8"/>
      </g>
     </g>
     <g id="text_7">
      <!-- 1.00 -->
      <g transform="translate(17.591406 299.276984) scale(0.11 -0.11)">
       <defs>
        <path id="AndaleMono-2212" d="M 3397 2047 
L 441 2047 
L 441 2456 
L 3397 2456 
L 3397 2047 
z
" transform="scale(0.015625)"/>
        <path id="AndaleMono-2e" d="M 1900 716 
Q 2066 716 2178 603 
Q 2291 491 2291 325 
Q 2291 156 2177 36 
Q 2063 -84 1900 -84 
Q 1741 -84 1628 36 
Q 1516 156 1516 325 
Q 1516 494 1627 605 
Q 1738 716 1900 716 
z
" transform="scale(0.015625)"/>
       </defs>
       <use xlink:href="#AndaleMono-2212"/>
       <use xlink:href="#AndaleMono-31" x="60.009766"/>
       <use xlink:href="#AndaleMono-2e" x="120.019531"/>
       <use xlink:href="#AndaleMono-30" x="180.029297"/>
       <use xlink:href="#AndaleMono-30" x="240.039062"/>
      </g>
     </g>
    </g>
    <g id="ytick_2">
     <g id="line2d_8">
      <g>
       <use xlink:href="#m8a6c45698e" x="57.6" y="265.248" style="stroke: #000000; stroke-width: 0.8"/>
      </g>
     </g>
     <g id="text_8">
      <!-- 0.75 -->
      <g transform="translate(17.591406 269.036984) scale(0.11 -0.11)">
       <defs>
        <path id="AndaleMono-37" d="M 3238 4044 
L 1491 0 
L 966 0 
L 2688 3963 
L 622 3963 
L 622 4409 
L 3238 4409 
L 3238 4044 
z
" transform="scale(0.015625)"/>
        <path id="AndaleMono-35" d="M 1356 2631 
Q 1569 2688 1772 2688 
Q 2397 2688 2759 2305 
Q 3122 1922 3122 1350 
Q 3122 750 2700 333 
Q 2278 -84 1672 -84 
Q 1094 -84 703 109 
L 806 544 
Q 1231 366 1684 366 
Q 2088 366 2336 625 
Q 2584 884 2584 1350 
Q 2584 1791 2350 2028 
Q 2116 2266 1747 2266 
Q 1478 2266 1216 2163 
L 909 2303 
L 909 4409 
L 2925 4409 
L 2925 3963 
L 1356 3963 
L 1356 2631 
z
" transform="scale(0.015625)"/>
       </defs>
       <use xlink:href="#AndaleMono-2212"/>
       <use xlink:href="#AndaleMono-30" x="60.009766"/>
       <use xlink:href="#AndaleMono-2e" x="120.019531"/>
       <use xlink:href="#AndaleMono-37" x="180.029297"/>
       <use xlink:href="#AndaleMono-35" x="240.039062"/>
      </g>
     </g>
    </g>
    <g id="ytick_3">
     <g id="line2d_9">
      <g>
       <use xlink:href="#m8a6c45698e" x="57.6" y="235.008" style="stroke: #000000; stroke-width: 0.8"/>
      </g>
     </g>
     <g id="text_9">
      <!-- 0.50 -->
      <g transform="translate(17.591406 238.796984) scale(0.11 -0.11)">
       <use xlink:href="#AndaleMono-2212"/>
       <use xlink:href="#AndaleMono-30" x="60.009766"/>
       <use xlink:href="#AndaleMono-2e" x="120.019531"/>
       <use xlink:href="#AndaleMono-35" x="180.029297"/>
       <use xlink:href="#AndaleMono-30" x="240.039062"/>
      </g>
     </g>
    </g>
    <g id="ytick_4">
     <g id="line2d_10">
      <g>
       <use xlink:href="#m8a6c45698e" x="57.6" y="204.768" style="stroke: #000000; stroke-width: 0.8"/>
      </g>
     </g>
     <g id="text_10">
      <!-- 0.25 -->
      <g transform="translate(17.591406 208.556984) scale(0.11 -0.11)">
       <use xlink:href="#AndaleMono-2212"/>
       <use xlink:href="#AndaleMono-30" x="60.009766"/>
       <use xlink:href="#AndaleMono-2e" x="120.019531"/>
       <use xlink:href="#AndaleMono-32" x="180.029297"/>
       <use xlink:href="#AndaleMono-35" x="240.039062"/>
      </g>
     </g>
    </g>
    <g id="ytick_5">
     <g id="line2d_11">
      <g>
       <use xlink:href="#m8a6c45698e" x="57.6" y="174.528" style="stroke: #000000; stroke-width: 0.8"/>
      </g>
     </g>
     <g id="text_11">
      <!-- 0.00 -->
      <g transform="translate(24.193125 178.316984) scale(0.11 -0.11)">
       <use xlink:href="#AndaleMono-30"/>
       <use xlink:href="#AndaleMono-2e" x="60.009766"/>
       <use xlink:href="#AndaleMono-30" x="120.019531"/>
       <use xlink:href="#AndaleMono-30" x="180.029297"/>
      </g>
     </g>
    </g>
    <g id="ytick_6">
     <g id="line2d_12">
      <g>
       <use xlink:href="#m8a6c45698e" x="57.6" y="144.288" style="stroke: #000000; stroke-width: 0.8"/>
      </g>
     </g>
     <g id="text_12">
      <!-- 0.25 -->
      <g transform="translate(24.193125 148.076984) scale(0.11 -0.11)">
       <use xlink:href="#AndaleMono-30"/>
       <use xlink:href="#AndaleMono-2e" x="60.009766"/>
       <use xlink:href="#AndaleMono-32" x="120.019531"/>
       <use xlink:href="#AndaleMono-35" x="180.029297"/>
      </g>
     </g>
    </g>
    <g id="ytick_7">
     <g id="line2d_13">
      <g>
       <use xlink:href="#m8a6c45698e" x="57.6" y="114.048" style="stroke: #000000; stroke-width: 0.8"/>
      </g>
     </g>
     <g id="text_13">
      <!-- 0.50 -->
      <g transform="translate(24.193125 117.836984) scale(0.11 -0.11)">
       <use xlink:href="#AndaleMono-30"/>
       <use xlink:href="#AndaleMono-2e" x="60.009766"/>
       <use xlink:href="#AndaleMono-35" x="120.019531"/>
       <use xlink:href="#AndaleMono-30" x="180.029297"/>
      </g>
     </g>
    </g>
    <g id="ytick_8">
     <g id="line2d_14">
      <g>
       <use xlink:href="#m8a6c45698e" x="57.6" y="83.808" style="stroke: #000000; stroke-width: 0.8"/>
      </g>
     </g>
     <g id="text_14">
      <!-- 0.75 -->
      <g transform="translate(24.193125 87.596984) scale(0.11 -0.11)">
       <use xlink:href="#AndaleMono-30"/>
       <use xlink:href="#AndaleMono-2e" x="60.009766"/>
       <use xlink:href="#AndaleMono-37" x="120.019531"/>
       <use xlink:href="#AndaleMono-35" x="180.029297"/>
      </g>
     </g>
    </g>
    <g id="ytick_9">
     <g id="line2d_15">
      <g>
       <use xlink:href="#m8a6c45698e" x="57.6" y="53.568" style="stroke: #000000; stroke-width: 0.8"/>
      </g>
     </g>
     <g id="text_15">
      <!-- 1.00 -->
      <g transform="translate(24.193125 57.356984) scale(0.11 -0.11)">
       <use xlink:href="#AndaleMono-31"/>
       <use xlink:href="#AndaleMono-2e" x="60.009766"/>
       <use xlink:href="#AndaleMono-30" x="120.019531"/>
       <use xlink:href="#AndaleMono-30" x="180.029297"/>
      </g>
     </g>
    </g>
   </g>
   <g id="line2d_16">
    <path d="M 73.832727 174.528 
L 74.150083 171.419631 
L 77.958347 170.523867 
L 81.449256 169.714191 
L 84.62281 169.070369 
L 86.209587 169.101366 
L 88.74843 169.385992 
L 95.412893 170.328829 
L 102.712066 171.05919 
L 115.088926 172.577483 
L 120.166612 172.872585 
L 125.561653 172.946538 
L 135.082314 173.010623 
L 145.237686 173.424456 
L 166.18314 173.437158 
L 167.135207 173.573757 
L 167.769917 173.772018 
L 168.404628 174.545079 
L 169.67405 176.19289 
L 170.626116 176.857909 
L 171.260826 176.912913 
L 171.895537 176.517909 
L 172.530248 175.923429 
L 173.164959 174.817699 
L 173.799669 173.344773 
L 174.43438 171.233972 
L 175.386446 166.999223 
L 176.338512 161.699489 
L 177.607934 153.157062 
L 178.877355 143.383646 
L 181.416198 121.333676 
L 184.272397 96.72516 
L 185.541818 87.323494 
L 186.493884 81.440341 
L 187.44595 76.732281 
L 188.715372 71.039329 
L 189.984793 64.806848 
L 191.57157 58.859778 
L 192.840992 55.688655 
L 193.793058 54.083555 
L 194.110413 53.75026 
L 194.427769 53.594195 
L 194.745124 53.568 
L 195.062479 53.728461 
L 195.69719 54.458297 
L 196.331901 55.713548 
L 196.966612 57.634468 
L 197.918678 61.258634 
L 198.870744 65.535524 
L 200.140165 72.507953 
L 203.631074 93.342578 
L 205.217851 102.19753 
L 206.169917 106.60979 
L 207.121983 110.086661 
L 207.756694 111.833168 
L 208.70876 113.568253 
L 209.978182 115.892491 
L 212.199669 118.902917 
L 212.83438 119.794357 
L 214.738512 123.222222 
L 216.96 127.383519 
L 219.816198 131.311371 
L 221.08562 133.182136 
L 222.355041 135.352502 
L 223.624463 137.896797 
L 226.163306 143.483041 
L 228.702149 149.655592 
L 229.97157 153.288946 
L 231.558347 158.617331 
L 236.001322 174.033977 
L 237.905455 180.300614 
L 243.300496 198.549373 
L 245.204628 203.34226 
L 248.378182 210.490238 
L 250.282314 214.281662 
L 251.551736 216.394337 
L 253.138512 218.586648 
L 255.677355 222.152444 
L 258.216198 227.034964 
L 258.850909 228.225484 
L 260.437686 230.552618 
L 262.659174 233.69258 
L 264.24595 236.559277 
L 264.880661 238.047178 
L 265.515372 239.988484 
L 266.467438 243.829782 
L 267.419504 248.531008 
L 269.006281 257.59324 
L 273.766612 285.042435 
L 275.036033 290.326686 
L 275.988099 293.342452 
L 276.62281 294.597703 
L 277.257521 295.327539 
L 277.574876 295.488 
L 277.892231 295.461805 
L 278.209587 295.30574 
L 278.526942 294.972445 
L 279.796364 292.617714 
L 281.38314 288.067505 
L 282.969917 281.265786 
L 284.556694 273.682709 
L 285.50876 269.289151 
L 286.460826 263.819084 
L 287.730248 254.817085 
L 289.317025 241.719017 
L 294.712066 195.898938 
L 295.981488 187.356511 
L 296.933554 182.056777 
L 297.88562 177.822028 
L 298.520331 175.711227 
L 299.155041 174.238301 
L 299.789752 173.132571 
L 300.424463 172.538091 
L 301.059174 172.143087 
L 301.693884 172.198091 
L 302.64595 172.86311 
L 303.280661 173.616975 
L 304.550083 175.283982 
L 305.819504 175.596255 
L 309.310413 175.747925 
L 314.070744 175.70549 
L 319.14843 175.661685 
L 333.429421 175.798545 
L 340.41124 176.149907 
L 354.374876 176.302322 
L 360.404628 176.751351 
L 367.386446 177.658697 
L 373.098843 178.434348 
L 379.763306 179.061731 
L 386.745124 180.001012 
L 388.331901 179.979535 
L 389.283967 179.793032 
L 398.169917 177.726127 
L 398.487273 174.528 
L 398.487273 174.528 
" clip-path="url(#p724fbd74da)" style="fill: none; stroke: #87ceeb; stroke-opacity: 0.75; stroke-linecap: square"/>
   </g>
   <g id="patch_3">
    <path d="M 57.6 307.584 
L 57.6 41.472 
" style="fill: none; stroke: #000000; stroke-width: 0.8; stroke-linejoin: miter; stroke-linecap: square"/>
   </g>
   <g id="patch_4">
    <path d="M 414.72 307.584 
L 414.72 41.472 
" style="fill: none; stroke: #000000; stroke-width: 0.8; stroke-linejoin: miter; stroke-linecap: square"/>
   </g>
   <g id="patch_5">
    <path d="M 57.6 307.584 
L 414.72 307.584 
" style="fill: none; stroke: #000000; stroke-width: 0.8; stroke-linejoin: miter; stroke-linecap: square"/>
   </g>
   <g id="patch_6">
    <path d="M 57.6 41.472 
L 414.72 41.472 
" style="fill: none; stroke: #000000; stroke-width: 0.8; stroke-linejoin: miter; stroke-linecap: square"/>
   </g>
  </g>
 </g>
 <defs>
  <clipPath id="p724fbd74da">
   <rect x="57.6" y="41.472" width="357.12" height="266.112"/>
  </clipPath>
 </defs>
</svg>
