<?xml version="1.0" encoding="utf-8" standalone="no"?>
<!DOCTYPE svg PUBLIC "-//W3C//DTD SVG 1.1//EN"
  "http://www.w3.org/Graphics/SVG/1.1/DTD/svg11.dtd">
<svg xmlns:xlink="http://www.w3.org/1999/xlink" width="460.8pt" height="345.6pt" viewBox="0 0 460.8 345.6" xmlns="http://www.w3.org/2000/svg" version="1.1">
 <metadata>
  <rdf:RDF xmlns:dc="http://purl.org/dc/elements/1.1/" xmlns:cc="http://creativecommons.org/ns#" xmlns:rdf="http://www.w3.org/1999/02/22-rdf-syntax-ns#">
   <cc:Work>
    <dc:type rdf:resource="http://purl.org/dc/dcmitype/StillImage"/>
    <dc:date>2024-04-23T11:13:05.374264</dc:date>
    <dc:format>image/svg+xml</dc:format>
    <dc:creator>
     <cc:Agent>
      <dc:title>Matplotlib v3.8.3, https://matplotlib.org/</dc:title>
     </cc:Agent>
    </dc:creator>
   </cc:Work>
  </rdf:RDF>
 </metadata>
 <defs>
  <style type="text/css">*{stroke-linejoin: round; stroke-linecap: butt}</style>
 </defs>
 <g id="figure_1">
  <g id="patch_1">
   <path d="M 0 345.6 
L 460.8 345.6 
L 460.8 0 
L 0 0 
z
" style="fill: #ffffff"/>
  </g>
  <g id="axes_1">
   <g id="patch_2">
    <path d="M 57.6 307.584 
L 414.72 307.584 
L 414.72 41.472 
L 57.6 41.472 
z
" style="fill: #ffffff"/>
   </g>
   <g id="PolyCollection_1">
    <defs>
     <path id="mb2f4808310" d="M 73.832727 -171.072 
L 73.832727 -171.072 
L 74.150083 -226.19756 
L 74.467438 -227.290514 
L 74.784793 -228.357834 
L 75.102149 -229.387782 
L 75.419504 -230.358093 
L 75.73686 -231.256183 
L 76.054215 -232.131762 
L 76.37157 -232.999934 
L 76.688926 -233.854572 
L 77.006281 -234.665158 
L 77.323636 -235.407157 
L 77.640992 -236.108324 
L 77.958347 -236.812242 
L 78.275702 -237.535147 
L 78.593058 -238.259452 
L 78.910413 -238.987436 
L 79.227769 -239.730505 
L 79.545124 -240.52184 
L 79.862479 -241.364695 
L 80.179835 -242.232736 
L 80.49719 -243.137768 
L 80.814545 -244.046472 
L 81.131901 -244.957563 
L 81.449256 -245.856723 
L 81.766612 -246.769212 
L 82.083967 -247.676052 
L 82.401322 -248.543931 
L 82.718678 -249.408057 
L 83.036033 -250.264076 
L 83.353388 -251.152162 
L 83.670744 -252.083804 
L 83.988099 -253.022332 
L 84.305455 -253.050857 
L 84.62281 -252.924783 
L 84.940165 -252.653136 
L 85.257521 -252.237454 
L 85.574876 -251.686943 
L 85.892231 -251.047405 
L 86.209587 -250.307647 
L 86.526942 -249.464369 
L 86.844298 -248.591114 
L 87.161653 -247.66559 
L 87.479008 -246.684236 
L 87.796364 -245.647544 
L 88.113719 -244.565135 
L 88.431074 -243.461035 
L 88.74843 -242.32256 
L 89.065785 -241.158222 
L 89.38314 -239.99163 
L 89.700496 -238.800418 
L 90.017851 -237.597089 
L 90.335207 -236.386252 
L 90.652562 -235.187093 
L 90.969917 -233.998352 
L 91.287273 -232.849881 
L 91.604628 -231.711959 
L 91.921983 -230.606872 
L 92.239339 -229.526712 
L 92.556694 -228.48649 
L 92.87405 -227.516298 
L 93.191405 -226.578029 
L 93.50876 -225.698264 
L 93.826116 -224.873638 
L 94.143471 -224.079774 
L 94.460826 -223.395876 
L 94.778182 -222.76653 
L 95.095537 -222.144308 
L 95.412893 -221.549506 
L 95.730248 -221.012991 
L 96.047603 -220.552198 
L 96.364959 -220.086155 
L 96.682314 -219.631661 
L 96.999669 -219.209477 
L 97.317025 -218.835141 
L 97.63438 -218.517367 
L 97.951736 -218.226937 
L 98.269091 -217.922994 
L 98.586446 -217.61208 
L 98.903802 -217.324639 
L 99.221157 -217.038052 
L 99.538512 -216.738479 
L 99.855868 -216.387272 
L 100.173223 -215.997232 
L 100.490579 -215.58318 
L 100.807934 -215.138957 
L 101.125289 -214.686059 
L 101.442645 -214.222879 
L 101.76 -213.784853 
L 102.077355 -213.328006 
L 102.394711 -212.89094 
L 102.712066 -212.525058 
L 103.029421 -212.146955 
L 103.346777 -211.783049 
L 103.664132 -211.396659 
L 103.981488 -210.972654 
L 104.298843 -210.537215 
L 104.616198 -210.081647 
L 104.933554 -209.615978 
L 105.250909 -209.151246 
L 105.568264 -208.700197 
L 105.88562 -208.282752 
L 106.202975 -207.8593 
L 106.520331 -207.462557 
L 106.837686 -207.096588 
L 107.155041 -206.695322 
L 107.472397 -206.294016 
L 107.789752 -205.895239 
L 108.107107 -205.514001 
L 108.424463 -205.168002 
L 108.741818 -204.828486 
L 109.059174 -204.516162 
L 109.376529 -204.241338 
L 109.693884 -203.971821 
L 110.01124 -203.759918 
L 110.328595 -203.582081 
L 110.64595 -203.451558 
L 110.963306 -203.343544 
L 111.280661 -203.259191 
L 111.598017 -203.17656 
L 111.915372 -203.131678 
L 112.232727 -203.1053 
L 112.550083 -203.104905 
L 112.867438 -203.116445 
L 113.184793 -203.106464 
L 113.502149 -203.120817 
L 113.819504 -203.130077 
L 114.13686 -203.153908 
L 114.454215 -203.229089 
L 114.77157 -203.29754 
L 115.088926 -203.351878 
L 115.406281 -203.40756 
L 115.723636 -203.464134 
L 116.040992 -203.514232 
L 116.358347 -203.54871 
L 116.675702 -203.610862 
L 116.993058 -203.650185 
L 117.310413 -203.655598 
L 117.627769 -203.630884 
L 117.945124 -203.630265 
L 118.262479 -203.640168 
L 118.579835 -203.657605 
L 118.89719 -203.658815 
L 119.214545 -203.638513 
L 119.531901 -203.601161 
L 119.849256 -203.53522 
L 120.166612 -203.470717 
L 120.483967 -203.375905 
L 120.801322 -203.292229 
L 121.118678 -203.185492 
L 121.436033 -203.087034 
L 121.753388 -202.993844 
L 122.070744 -202.882534 
L 122.388099 -202.766152 
L 122.705455 -202.623893 
L 123.02281 -202.440408 
L 123.340165 -202.30149 
L 123.657521 -202.156459 
L 123.974876 -202.004316 
L 124.292231 -201.854531 
L 124.609587 -201.711096 
L 124.926942 -201.574233 
L 125.244298 -201.456457 
L 125.561653 -201.350755 
L 125.879008 -201.246388 
L 126.196364 -201.122251 
L 126.513719 -200.985294 
L 126.831074 -200.810357 
L 127.14843 -200.659219 
L 127.465785 -200.518726 
L 127.78314 -200.382758 
L 128.100496 -200.266224 
L 128.417851 -200.163143 
L 128.735207 -200.049882 
L 129.052562 -199.928393 
L 129.369917 -199.812383 
L 129.687273 -199.68129 
L 130.004628 -199.560444 
L 130.321983 -199.407465 
L 130.639339 -199.2657 
L 130.956694 -199.12025 
L 131.27405 -198.98606 
L 131.591405 -198.860157 
L 131.90876 -198.733028 
L 132.226116 -198.606581 
L 132.543471 -198.480604 
L 132.860826 -198.355351 
L 133.178182 -198.234722 
L 133.495537 -198.123294 
L 133.812893 -198.027083 
L 134.130248 -197.939682 
L 134.447603 -197.853561 
L 134.764959 -197.743493 
L 135.082314 -197.618723 
L 135.399669 -197.515121 
L 135.717025 -197.434131 
L 136.03438 -197.357434 
L 136.351736 -197.277634 
L 136.669091 -197.213439 
L 136.986446 -197.141946 
L 137.303802 -197.089953 
L 137.621157 -197.049322 
L 137.938512 -197.051121 
L 138.255868 -197.03939 
L 138.573223 -197.019333 
L 138.890579 -196.985268 
L 139.207934 -196.941116 
L 139.525289 -196.882941 
L 139.842645 -196.826709 
L 140.16 -196.798152 
L 140.477355 -196.764204 
L 140.794711 -196.738392 
L 141.112066 -196.666624 
L 141.429421 -196.62258 
L 141.746777 -196.570616 
L 142.064132 -196.532484 
L 142.381488 -196.499388 
L 142.698843 -196.490127 
L 143.016198 -196.507304 
L 143.333554 -196.547736 
L 143.650909 -196.537176 
L 143.968264 -196.518152 
L 144.28562 -196.489462 
L 144.602975 -196.447534 
L 144.920331 -196.406308 
L 145.237686 -196.3565 
L 145.555041 -196.289298 
L 145.872397 -196.222258 
L 146.189752 -196.161711 
L 146.507107 -196.097832 
L 146.824463 -196.048227 
L 147.141818 -196.042977 
L 147.459174 -195.991084 
L 147.776529 -195.930561 
L 148.093884 -195.863852 
L 148.41124 -195.784634 
L 148.728595 -195.704472 
L 149.04595 -195.623803 
L 149.363306 -195.558939 
L 149.680661 -195.495107 
L 149.998017 -195.430939 
L 150.315372 -195.373424 
L 150.632727 -195.348372 
L 150.950083 -195.316675 
L 151.267438 -195.278615 
L 151.584793 -195.221944 
L 151.902149 -194.761523 
L 152.219504 -194.355004 
L 152.53686 -193.885063 
L 152.854215 -193.455141 
L 153.17157 -193.109233 
L 153.488926 -192.700079 
L 153.806281 -192.394398 
L 154.123636 -192.157198 
L 154.440992 -191.942732 
L 154.758347 -191.765959 
L 155.075702 -191.730444 
L 155.393058 -191.646505 
L 155.710413 -191.649223 
L 156.027769 -191.671627 
L 156.345124 -191.862182 
L 156.662479 -192.208573 
L 156.979835 -192.737333 
L 157.29719 -193.433987 
L 157.614545 -194.217401 
L 157.931901 -195.163399 
L 158.249256 -196.25328 
L 158.566612 -197.507782 
L 158.883967 -198.916004 
L 159.201322 -200.471358 
L 159.518678 -202.180032 
L 159.836033 -203.992146 
L 160.153388 -205.907641 
L 160.470744 -207.926818 
L 160.788099 -210.036749 
L 161.105455 -212.259893 
L 161.42281 -214.586038 
L 161.740165 -216.983225 
L 162.057521 -219.448906 
L 162.374876 -221.983407 
L 162.692231 -224.584188 
L 163.009587 -227.224851 
L 163.326942 -229.870312 
L 163.644298 -232.508072 
L 163.961653 -235.182316 
L 164.279008 -237.892055 
L 164.596364 -240.630339 
L 164.913719 -243.377706 
L 165.231074 -246.12817 
L 165.54843 -248.887803 
L 165.865785 -251.633759 
L 166.18314 -254.330395 
L 166.500496 -256.973288 
L 166.817851 -259.580114 
L 167.135207 -262.085187 
L 167.452562 -264.48805 
L 167.769917 -266.850003 
L 168.087273 -269.116037 
L 168.404628 -271.284368 
L 168.721983 -273.35735 
L 169.039339 -275.284122 
L 169.356694 -277.069997 
L 169.67405 -278.715541 
L 169.991405 -280.204231 
L 170.30876 -281.553233 
L 170.626116 -282.719702 
L 170.943471 -283.691337 
L 171.260826 -284.467094 
L 171.578182 -285.034085 
L 171.895537 -285.402188 
L 172.212893 -286.4282 
L 172.530248 -287.260513 
L 172.847603 -288.143689 
L 173.164959 -288.914174 
L 173.482314 -289.490531 
L 173.799669 -290.170457 
L 174.117025 -290.652385 
L 174.43438 -290.973604 
L 174.751736 -291.252274 
L 175.069091 -291.475816 
L 175.386446 -291.480763 
L 175.703802 -291.692203 
L 176.021157 -291.8073 
L 176.338512 -292.013084 
L 176.655868 -292.032 
L 176.973223 -291.913309 
L 177.290579 -291.566604 
L 177.607934 -291.044552 
L 177.925289 -290.461753 
L 178.242645 -289.702761 
L 178.56 -288.755268 
L 178.877355 -287.610703 
L 179.194711 -286.303466 
L 179.512066 -284.858849 
L 179.829421 -283.254679 
L 180.146777 -281.533208 
L 180.464132 -279.736194 
L 180.781488 -277.828499 
L 181.098843 -275.850077 
L 181.416198 -273.760827 
L 181.733554 -271.638391 
L 182.050909 -269.442376 
L 182.368264 -267.208733 
L 182.68562 -264.891749 
L 183.002975 -262.488523 
L 183.320331 -260.027848 
L 183.637686 -257.553607 
L 183.955041 -255.091159 
L 184.272397 -252.637471 
L 184.589752 -250.148598 
L 184.907107 -247.619542 
L 185.224463 -245.113089 
L 185.541818 -242.586758 
L 185.859174 -240.047353 
L 186.176529 -237.537874 
L 186.493884 -235.044076 
L 186.81124 -232.590874 
L 187.128595 -230.180424 
L 187.44595 -227.919065 
L 187.763306 -225.776433 
L 188.080661 -223.725954 
L 188.398017 -221.793136 
L 188.715372 -219.985184 
L 189.032727 -218.294528 
L 189.350083 -216.770633 
L 189.667438 -215.418318 
L 189.984793 -214.226161 
L 190.302149 -213.204662 
L 190.619504 -212.344654 
L 190.93686 -211.634613 
L 191.254215 -211.113858 
L 191.57157 -210.797198 
L 191.888926 -210.707837 
L 192.206281 -210.827089 
L 192.523636 -210.697601 
L 192.840992 -210.710972 
L 193.158347 -210.763859 
L 193.475702 -210.876234 
L 193.793058 -211.109685 
L 194.110413 -211.318331 
L 194.427769 -211.619058 
L 194.745124 -212.007799 
L 195.062479 -212.422969 
L 195.379835 -212.81384 
L 195.69719 -213.290924 
L 196.014545 -213.628383 
L 196.331901 -213.98332 
L 196.649256 -214.212056 
L 196.966612 -214.454269 
L 197.283967 -214.655073 
L 197.601322 -214.887486 
L 197.918678 -215.120887 
L 198.236033 -215.345222 
L 198.553388 -215.571351 
L 198.870744 -215.828586 
L 199.188099 -216.102442 
L 199.505455 -216.388327 
L 199.82281 -216.669709 
L 200.140165 -216.942144 
L 200.457521 -217.252831 
L 200.774876 -217.527536 
L 201.092231 -217.790277 
L 201.409587 -217.998305 
L 201.726942 -218.187606 
L 202.044298 -218.333112 
L 202.361653 -218.422005 
L 202.679008 -218.457217 
L 202.996364 -218.46618 
L 203.313719 -218.476511 
L 203.631074 -218.446403 
L 203.94843 -218.39171 
L 204.265785 -218.279503 
L 204.58314 -218.119519 
L 204.900496 -217.951713 
L 205.217851 -217.822881 
L 205.535207 -217.643006 
L 205.852562 -217.487501 
L 206.169917 -217.352837 
L 206.487273 -217.1897 
L 206.804628 -217.073895 
L 207.121983 -216.988324 
L 207.439339 -216.923009 
L 207.756694 -216.800038 
L 208.07405 -216.635624 
L 208.391405 -216.425662 
L 208.70876 -216.180037 
L 209.026116 -215.902601 
L 209.343471 -215.599034 
L 209.660826 -215.268277 
L 209.978182 -214.891975 
L 210.295537 -214.4657 
L 210.612893 -213.99871 
L 210.930248 -213.502398 
L 211.247603 -213.051095 
L 211.564959 -212.582278 
L 211.882314 -212.101834 
L 212.199669 -211.595192 
L 212.517025 -211.100838 
L 212.83438 -210.575716 
L 213.151736 -210.06626 
L 213.469091 -209.52814 
L 213.786446 -209.018111 
L 214.103802 -208.488664 
L 214.421157 -207.945661 
L 214.738512 -207.41843 
L 215.055868 -206.885826 
L 215.373223 -206.346267 
L 215.690579 -205.873463 
L 216.007934 -205.396865 
L 216.325289 -204.932847 
L 216.642645 -204.457035 
L 216.96 -203.993733 
L 217.277355 -203.541775 
L 217.594711 -203.141785 
L 217.912066 -202.74789 
L 218.229421 -202.37239 
L 218.546777 -201.972068 
L 218.864132 -201.587217 
L 219.181488 -201.186138 
L 219.498843 -200.811402 
L 219.816198 -200.422035 
L 220.133554 -200.028008 
L 220.450909 -199.643995 
L 220.768264 -199.231392 
L 221.08562 -198.815955 
L 221.402975 -198.387806 
L 221.720331 -198.00145 
L 222.037686 -197.630081 
L 222.355041 -197.233825 
L 222.672397 -196.877177 
L 222.989752 -196.516561 
L 223.307107 -196.154354 
L 223.624463 -195.795547 
L 223.941818 -195.463842 
L 224.259174 -195.118785 
L 224.576529 -194.793494 
L 224.893884 -194.481773 
L 225.21124 -194.17876 
L 225.528595 -193.828153 
L 225.84595 -193.483973 
L 226.163306 -193.096918 
L 226.480661 -192.666261 
L 226.798017 -192.232131 
L 227.115372 -191.743114 
L 227.432727 -191.220322 
L 227.750083 -190.665362 
L 228.067438 -190.089953 
L 228.384793 -189.482399 
L 228.702149 -188.867192 
L 229.019504 -188.245971 
L 229.33686 -187.595377 
L 229.654215 -186.91789 
L 229.97157 -186.228574 
L 230.288926 -185.516905 
L 230.606281 -184.815668 
L 230.923636 -184.134157 
L 231.240992 -183.434193 
L 231.558347 -182.688908 
L 231.875702 -181.93454 
L 232.193058 -181.160557 
L 232.510413 -180.377226 
L 232.827769 -179.557541 
L 233.145124 -178.770692 
L 233.462479 -177.956482 
L 233.779835 -177.145147 
L 234.09719 -176.314306 
L 234.414545 -175.502612 
L 234.731901 -174.688814 
L 235.049256 -173.885194 
L 235.366612 -173.086436 
L 235.683967 -172.294907 
L 236.001322 -171.474771 
L 236.318678 -170.669229 
L 236.636033 -169.849093 
L 236.953388 -169.057564 
L 237.270744 -168.258806 
L 237.588099 -167.455186 
L 237.905455 -166.641388 
L 238.22281 -165.829694 
L 238.540165 -164.998853 
L 238.857521 -164.187518 
L 239.174876 -163.373308 
L 239.492231 -162.586459 
L 239.809587 -161.766774 
L 240.126942 -160.983443 
L 240.444298 -160.20946 
L 240.761653 -159.455092 
L 241.079008 -158.709807 
L 241.396364 -158.009843 
L 241.713719 -157.328332 
L 242.031074 -156.627095 
L 242.34843 -155.915426 
L 242.665785 -155.22611 
L 242.98314 -154.548623 
L 243.300496 -153.898029 
L 243.617851 -153.276808 
L 243.935207 -152.661601 
L 244.252562 -152.054047 
L 244.569917 -151.478638 
L 244.887273 -150.923678 
L 245.204628 -150.400886 
L 245.521983 -149.911869 
L 245.839339 -149.477739 
L 246.156694 -149.047082 
L 246.47405 -148.660027 
L 246.791405 -148.315847 
L 247.10876 -147.96524 
L 247.426116 -147.662227 
L 247.743471 -147.350506 
L 248.060826 -147.025215 
L 248.378182 -146.680158 
L 248.695537 -146.348453 
L 249.012893 -145.989646 
L 249.330248 -145.627439 
L 249.647603 -145.266823 
L 249.964959 -144.910175 
L 250.282314 -144.513919 
L 250.599669 -144.14255 
L 250.917025 -143.756194 
L 251.23438 -143.328045 
L 251.551736 -142.912608 
L 251.869091 -142.500005 
L 252.186446 -142.115992 
L 252.503802 -141.721965 
L 252.821157 -141.332598 
L 253.138512 -140.957862 
L 253.455868 -140.556783 
L 253.773223 -140.171932 
L 254.090579 -139.77161 
L 254.407934 -139.39611 
L 254.725289 -139.002215 
L 255.042645 -138.602225 
L 255.36 -138.150267 
L 255.677355 -137.686965 
L 255.994711 -137.211153 
L 256.312066 -136.747135 
L 256.629421 -136.270537 
L 256.946777 -135.797733 
L 257.264132 -135.258174 
L 257.581488 -134.72557 
L 257.898843 -134.198339 
L 258.216198 -133.655336 
L 258.533554 -133.125889 
L 258.850909 -132.61586 
L 259.168264 -132.07774 
L 259.48562 -131.568284 
L 259.802975 -131.043162 
L 260.120331 -130.548808 
L 260.437686 -130.042166 
L 260.755041 -129.561722 
L 261.072397 -129.092905 
L 261.389752 -128.641602 
L 261.707107 -128.14529 
L 262.024463 -127.6783 
L 262.341818 -127.252025 
L 262.659174 -126.875723 
L 262.976529 -126.544966 
L 263.293884 -126.241399 
L 263.61124 -125.963963 
L 263.928595 -125.718338 
L 264.24595 -125.508376 
L 264.563306 -125.343962 
L 264.880661 -125.220991 
L 265.198017 -125.155676 
L 265.515372 -125.070105 
L 265.832727 -124.9543 
L 266.150083 -124.791163 
L 266.467438 -124.656499 
L 266.784793 -124.500994 
L 267.102149 -124.321119 
L 267.419504 -124.192287 
L 267.73686 -124.024481 
L 268.054215 -123.864497 
L 268.37157 -123.75229 
L 268.688926 -123.697597 
L 269.006281 -123.667489 
L 269.323636 -123.67782 
L 269.640992 -123.686783 
L 269.958347 -123.721995 
L 270.275702 -123.810888 
L 270.593058 -123.956394 
L 270.910413 -124.145695 
L 271.227769 -124.353723 
L 271.545124 -124.616464 
L 271.862479 -124.891169 
L 272.179835 -125.201856 
L 272.49719 -125.474291 
L 272.814545 -125.755673 
L 273.131901 -126.041558 
L 273.449256 -126.315414 
L 273.766612 -126.572649 
L 274.083967 -126.798778 
L 274.401322 -127.023113 
L 274.718678 -127.256514 
L 275.036033 -127.488927 
L 275.353388 -127.689731 
L 275.670744 -127.931944 
L 275.988099 -128.16068 
L 276.305455 -128.515617 
L 276.62281 -128.853076 
L 276.940165 -129.33016 
L 277.257521 -129.721031 
L 277.574876 -130.136201 
L 277.892231 -130.524942 
L 278.209587 -130.825669 
L 278.526942 -131.034315 
L 278.844298 -131.267766 
L 279.161653 -131.380141 
L 279.479008 -131.433028 
L 279.796364 -131.446399 
L 280.113719 -131.316911 
L 280.431074 -131.436163 
L 280.74843 -131.346802 
L 281.065785 -131.030142 
L 281.38314 -130.509387 
L 281.700496 -129.799346 
L 282.017851 -128.939338 
L 282.335207 -127.917839 
L 282.652562 -126.725682 
L 282.969917 -125.373367 
L 283.287273 -123.849472 
L 283.604628 -122.158816 
L 283.921983 -120.350864 
L 284.239339 -118.418046 
L 284.556694 -116.367567 
L 284.87405 -114.224935 
L 285.191405 -111.963576 
L 285.50876 -109.553126 
L 285.826116 -107.099924 
L 286.143471 -104.606126 
L 286.460826 -102.096647 
L 286.778182 -99.557242 
L 287.095537 -97.030911 
L 287.412893 -94.524458 
L 287.730248 -91.995402 
L 288.047603 -89.506529 
L 288.364959 -87.052841 
L 288.682314 -84.590393 
L 288.999669 -82.116152 
L 289.317025 -79.655477 
L 289.63438 -77.252251 
L 289.951736 -74.935267 
L 290.269091 -72.701624 
L 290.586446 -70.505609 
L 290.903802 -68.383173 
L 291.221157 -66.293923 
L 291.538512 -64.315501 
L 291.855868 -62.407806 
L 292.173223 -60.610792 
L 292.490579 -58.889321 
L 292.807934 -57.285151 
L 293.125289 -55.840534 
L 293.442645 -54.533297 
L 293.76 -53.388732 
L 294.077355 -52.441239 
L 294.394711 -51.682247 
L 294.712066 -51.099448 
L 295.029421 -50.577396 
L 295.346777 -50.230691 
L 295.664132 -50.112 
L 295.981488 -50.130916 
L 296.298843 -50.3367 
L 296.616198 -50.451797 
L 296.933554 -50.663237 
L 297.250909 -50.668184 
L 297.568264 -50.891726 
L 297.88562 -51.170396 
L 298.202975 -51.491615 
L 298.520331 -51.973543 
L 298.837686 -52.653469 
L 299.155041 -53.229826 
L 299.472397 -54.000311 
L 299.789752 -54.883487 
L 300.107107 -55.7158 
L 300.424463 -56.741812 
L 300.741818 -57.109915 
L 301.059174 -57.676906 
L 301.376529 -58.452663 
L 301.693884 -59.424298 
L 302.01124 -60.590767 
L 302.328595 -61.939769 
L 302.64595 -63.428459 
L 302.963306 -65.074003 
L 303.280661 -66.859878 
L 303.598017 -68.78665 
L 303.915372 -70.859632 
L 304.232727 -73.027963 
L 304.550083 -75.293997 
L 304.867438 -77.65595 
L 305.184793 -80.058813 
L 305.502149 -82.563886 
L 305.819504 -85.170712 
L 306.13686 -87.813605 
L 306.454215 -90.510241 
L 306.77157 -93.256197 
L 307.088926 -96.01583 
L 307.406281 -98.766294 
L 307.723636 -101.513661 
L 308.040992 -104.251945 
L 308.358347 -106.961684 
L 308.675702 -109.635928 
L 308.993058 -112.273688 
L 309.310413 -114.919149 
L 309.627769 -117.559812 
L 309.945124 -120.160593 
L 310.262479 -122.695094 
L 310.579835 -125.160775 
L 310.89719 -127.557962 
L 311.214545 -129.884107 
L 311.531901 -132.107251 
L 311.849256 -134.217182 
L 312.166612 -136.236359 
L 312.483967 -138.151854 
L 312.801322 -139.963968 
L 313.118678 -141.672642 
L 313.436033 -143.227996 
L 313.753388 -144.636218 
L 314.070744 -145.89072 
L 314.388099 -146.980601 
L 314.705455 -147.926599 
L 315.02281 -148.710013 
L 315.340165 -149.406667 
L 315.657521 -149.935427 
L 315.974876 -150.281818 
L 316.292231 -150.472373 
L 316.609587 -150.494777 
L 316.926942 -150.497495 
L 317.244298 -150.413556 
L 317.561653 -150.378041 
L 317.879008 -150.201268 
L 318.196364 -149.986802 
L 318.513719 -149.749602 
L 318.831074 -149.443921 
L 319.14843 -149.034767 
L 319.465785 -148.688859 
L 319.78314 -148.258937 
L 320.100496 -147.788996 
L 320.417851 -147.382477 
L 320.735207 -146.922056 
L 321.052562 -146.865385 
L 321.369917 -146.827325 
L 321.687273 -146.795628 
L 322.004628 -146.770576 
L 322.321983 -146.713061 
L 322.639339 -146.648893 
L 322.956694 -146.585061 
L 323.27405 -146.520197 
L 323.591405 -146.439528 
L 323.90876 -146.359366 
L 324.226116 -146.280148 
L 324.543471 -146.213439 
L 324.860826 -146.152916 
L 325.178182 -146.101023 
L 325.495537 -146.095773 
L 325.812893 -146.046168 
L 326.130248 -145.982289 
L 326.447603 -145.921742 
L 326.764959 -145.854702 
L 327.082314 -145.7875 
L 327.399669 -145.737692 
L 327.717025 -145.696466 
L 328.03438 -145.654538 
L 328.351736 -145.625848 
L 328.669091 -145.606824 
L 328.986446 -145.596264 
L 329.303802 -145.636696 
L 329.621157 -145.653873 
L 329.938512 -145.644612 
L 330.255868 -145.611516 
L 330.573223 -145.573384 
L 330.890579 -145.52142 
L 331.207934 -145.477376 
L 331.525289 -145.405608 
L 331.842645 -145.379796 
L 332.16 -145.345848 
L 332.477355 -145.317291 
L 332.794711 -145.261059 
L 333.112066 -145.202884 
L 333.429421 -145.158732 
L 333.746777 -145.124667 
L 334.064132 -145.10461 
L 334.381488 -145.092879 
L 334.698843 -145.094678 
L 335.016198 -145.054047 
L 335.333554 -145.002054 
L 335.650909 -144.930561 
L 335.968264 -144.866366 
L 336.28562 -144.786566 
L 336.602975 -144.709869 
L 336.920331 -144.628879 
L 337.237686 -144.525277 
L 337.555041 -144.400507 
L 337.872397 -144.290439 
L 338.189752 -144.204318 
L 338.507107 -144.116917 
L 338.824463 -144.020706 
L 339.141818 -143.909278 
L 339.459174 -143.788649 
L 339.776529 -143.663396 
L 340.093884 -143.537419 
L 340.41124 -143.410972 
L 340.728595 -143.283843 
L 341.04595 -143.15794 
L 341.363306 -143.02375 
L 341.680661 -142.8783 
L 341.998017 -142.736535 
L 342.315372 -142.583556 
L 342.632727 -142.46271 
L 342.950083 -142.331617 
L 343.267438 -142.215607 
L 343.584793 -142.094118 
L 343.902149 -141.980857 
L 344.219504 -141.877776 
L 344.53686 -141.761242 
L 344.854215 -141.625274 
L 345.17157 -141.484781 
L 345.488926 -141.333643 
L 345.806281 -141.158706 
L 346.123636 -141.021749 
L 346.440992 -140.897612 
L 346.758347 -140.793245 
L 347.075702 -140.687543 
L 347.393058 -140.569767 
L 347.710413 -140.432904 
L 348.027769 -140.289469 
L 348.345124 -140.139684 
L 348.662479 -139.987541 
L 348.979835 -139.84251 
L 349.29719 -139.703592 
L 349.614545 -139.520107 
L 349.931901 -139.377848 
L 350.249256 -139.261466 
L 350.566612 -139.150156 
L 350.883967 -139.056966 
L 351.201322 -138.958508 
L 351.518678 -138.851771 
L 351.836033 -138.768095 
L 352.153388 -138.673283 
L 352.470744 -138.60878 
L 352.788099 -138.542839 
L 353.105455 -138.505487 
L 353.42281 -138.485185 
L 353.740165 -138.486395 
L 354.057521 -138.503832 
L 354.374876 -138.513735 
L 354.692231 -138.513116 
L 355.009587 -138.488402 
L 355.326942 -138.493815 
L 355.644298 -138.533138 
L 355.961653 -138.59529 
L 356.279008 -138.629768 
L 356.596364 -138.679866 
L 356.913719 -138.73644 
L 357.231074 -138.792122 
L 357.54843 -138.84646 
L 357.865785 -138.914911 
L 358.18314 -138.990092 
L 358.500496 -139.013923 
L 358.817851 -139.023183 
L 359.135207 -139.037536 
L 359.452562 -139.027555 
L 359.769917 -139.039095 
L 360.087273 -139.0387 
L 360.404628 -139.012322 
L 360.721983 -138.96744 
L 361.039339 -138.884809 
L 361.356694 -138.800456 
L 361.67405 -138.692442 
L 361.991405 -138.561919 
L 362.30876 -138.384082 
L 362.626116 -138.172179 
L 362.943471 -137.902662 
L 363.260826 -137.627838 
L 363.578182 -137.315514 
L 363.895537 -136.975998 
L 364.212893 -136.629999 
L 364.530248 -136.248761 
L 364.847603 -135.849984 
L 365.164959 -135.448678 
L 365.482314 -135.047412 
L 365.799669 -134.681443 
L 366.117025 -134.2847 
L 366.43438 -133.861248 
L 366.751736 -133.443803 
L 367.069091 -132.992754 
L 367.386446 -132.528022 
L 367.703802 -132.062353 
L 368.021157 -131.606785 
L 368.338512 -131.171346 
L 368.655868 -130.747341 
L 368.973223 -130.360951 
L 369.290579 -129.997045 
L 369.607934 -129.618942 
L 369.925289 -129.25306 
L 370.242645 -128.815994 
L 370.56 -128.359147 
L 370.877355 -127.921121 
L 371.194711 -127.457941 
L 371.512066 -127.005043 
L 371.829421 -126.56082 
L 372.146777 -126.146768 
L 372.464132 -125.756728 
L 372.781488 -125.405521 
L 373.098843 -125.105948 
L 373.416198 -124.819361 
L 373.733554 -124.53192 
L 374.050909 -124.221006 
L 374.368264 -123.917063 
L 374.68562 -123.626633 
L 375.002975 -123.308859 
L 375.320331 -122.934523 
L 375.637686 -122.512339 
L 375.955041 -122.057845 
L 376.272397 -121.591802 
L 376.589752 -121.131009 
L 376.907107 -120.594494 
L 377.224463 -119.999692 
L 377.541818 -119.37747 
L 377.859174 -118.748124 
L 378.176529 -118.064226 
L 378.493884 -117.304766 
L 378.81124 -116.548803 
L 379.128595 -115.737105 
L 379.44595 -114.865818 
L 379.763306 -113.961039 
L 380.080661 -112.984172 
L 380.398017 -111.964824 
L 380.715372 -110.917519 
L 381.032727 -109.833865 
L 381.350083 -108.735657 
L 381.667438 -107.592693 
L 381.984793 -106.434335 
L 382.302149 -105.258837 
L 382.619504 -104.0849 
L 382.93686 -102.916646 
L 383.254215 -101.766091 
L 383.57157 -100.610383 
L 383.888926 -99.472644 
L 384.206281 -98.360902 
L 384.523636 -97.261984 
L 384.840992 -96.19943 
L 385.158347 -95.182376 
L 385.475702 -94.210826 
L 385.793058 -93.280734 
L 386.110413 -92.369321 
L 386.427769 -91.549643 
L 386.745124 -90.817915 
L 387.062479 -90.162456 
L 387.379835 -89.628584 
L 387.69719 -89.225016 
L 388.014545 -88.952804 
L 388.331901 -88.82049 
L 388.649256 -88.832995 
L 388.966612 -89.764638 
L 389.283967 -90.652723 
L 389.601322 -91.508742 
L 389.918678 -92.372869 
L 390.236033 -93.240748 
L 390.553388 -94.147588 
L 390.870744 -95.060076 
L 391.188099 -95.959236 
L 391.505455 -96.870327 
L 391.82281 -97.779031 
L 392.140165 -98.684063 
L 392.457521 -99.552104 
L 392.774876 -100.394959 
L 393.092231 -101.186294 
L 393.409587 -101.929363 
L 393.726942 -102.657347 
L 394.044298 -103.381653 
L 394.361653 -104.104557 
L 394.679008 -104.808475 
L 394.996364 -105.509642 
L 395.313719 -106.251641 
L 395.631074 -107.062227 
L 395.94843 -107.916865 
L 396.265785 -108.785038 
L 396.58314 -109.660616 
L 396.900496 -110.558706 
L 397.217851 -111.529017 
L 397.535207 -112.558965 
L 397.852562 -113.626285 
L 398.169917 -114.719239 
L 398.487273 -171.072 
L 398.487273 -171.072 
L 398.487273 -171.072 
L 398.169917 -171.072 
L 397.852562 -171.072 
L 397.535207 -171.072 
L 397.217851 -171.072 
L 396.900496 -171.072 
L 396.58314 -171.072 
L 396.265785 -171.072 
L 395.94843 -171.072 
L 395.631074 -171.072 
L 395.313719 -171.072 
L 394.996364 -171.072 
L 394.679008 -171.072 
L 394.361653 -171.072 
L 394.044298 -171.072 
L 393.726942 -171.072 
L 393.409587 -171.072 
L 393.092231 -171.072 
L 392.774876 -171.072 
L 392.457521 -171.072 
L 392.140165 -171.072 
L 391.82281 -171.072 
L 391.505455 -171.072 
L 391.188099 -171.072 
L 390.870744 -171.072 
L 390.553388 -171.072 
L 390.236033 -171.072 
L 389.918678 -171.072 
L 389.601322 -171.072 
L 389.283967 -171.072 
L 388.966612 -171.072 
L 388.649256 -171.072 
L 388.331901 -171.072 
L 388.014545 -171.072 
L 387.69719 -171.072 
L 387.379835 -171.072 
L 387.062479 -171.072 
L 386.745124 -171.072 
L 386.427769 -171.072 
L 386.110413 -171.072 
L 385.793058 -171.072 
L 385.475702 -171.072 
L 385.158347 -171.072 
L 384.840992 -171.072 
L 384.523636 -171.072 
L 384.206281 -171.072 
L 383.888926 -171.072 
L 383.57157 -171.072 
L 383.254215 -171.072 
L 382.93686 -171.072 
L 382.619504 -171.072 
L 382.302149 -171.072 
L 381.984793 -171.072 
L 381.667438 -171.072 
L 381.350083 -171.072 
L 381.032727 -171.072 
L 380.715372 -171.072 
L 380.398017 -171.072 
L 380.080661 -171.072 
L 379.763306 -171.072 
L 379.44595 -171.072 
L 379.128595 -171.072 
L 378.81124 -171.072 
L 378.493884 -171.072 
L 378.176529 -171.072 
L 377.859174 -171.072 
L 377.541818 -171.072 
L 377.224463 -171.072 
L 376.907107 -171.072 
L 376.589752 -171.072 
L 376.272397 -171.072 
L 375.955041 -171.072 
L 375.637686 -171.072 
L 375.320331 -171.072 
L 375.002975 -171.072 
L 374.68562 -171.072 
L 374.368264 -171.072 
L 374.050909 -171.072 
L 373.733554 -171.072 
L 373.416198 -171.072 
L 373.098843 -171.072 
L 372.781488 -171.072 
L 372.464132 -171.072 
L 372.146777 -171.072 
L 371.829421 -171.072 
L 371.512066 -171.072 
L 371.194711 -171.072 
L 370.877355 -171.072 
L 370.56 -171.072 
L 370.242645 -171.072 
L 369.925289 -171.072 
L 369.607934 -171.072 
L 369.290579 -171.072 
L 368.973223 -171.072 
L 368.655868 -171.072 
L 368.338512 -171.072 
L 368.021157 -171.072 
L 367.703802 -171.072 
L 367.386446 -171.072 
L 367.069091 -171.072 
L 366.751736 -171.072 
L 366.43438 -171.072 
L 366.117025 -171.072 
L 365.799669 -171.072 
L 365.482314 -171.072 
L 365.164959 -171.072 
L 364.847603 -171.072 
L 364.530248 -171.072 
L 364.212893 -171.072 
L 363.895537 -171.072 
L 363.578182 -171.072 
L 363.260826 -171.072 
L 362.943471 -171.072 
L 362.626116 -171.072 
L 362.30876 -171.072 
L 361.991405 -171.072 
L 361.67405 -171.072 
L 361.356694 -171.072 
L 361.039339 -171.072 
L 360.721983 -171.072 
L 360.404628 -171.072 
L 360.087273 -171.072 
L 359.769917 -171.072 
L 359.452562 -171.072 
L 359.135207 -171.072 
L 358.817851 -171.072 
L 358.500496 -171.072 
L 358.18314 -171.072 
L 357.865785 -171.072 
L 357.54843 -171.072 
L 357.231074 -171.072 
L 356.913719 -171.072 
L 356.596364 -171.072 
L 356.279008 -171.072 
L 355.961653 -171.072 
L 355.644298 -171.072 
L 355.326942 -171.072 
L 355.009587 -171.072 
L 354.692231 -171.072 
L 354.374876 -171.072 
L 354.057521 -171.072 
L 353.740165 -171.072 
L 353.42281 -171.072 
L 353.105455 -171.072 
L 352.788099 -171.072 
L 352.470744 -171.072 
L 352.153388 -171.072 
L 351.836033 -171.072 
L 351.518678 -171.072 
L 351.201322 -171.072 
L 350.883967 -171.072 
L 350.566612 -171.072 
L 350.249256 -171.072 
L 349.931901 -171.072 
L 349.614545 -171.072 
L 349.29719 -171.072 
L 348.979835 -171.072 
L 348.662479 -171.072 
L 348.345124 -171.072 
L 348.027769 -171.072 
L 347.710413 -171.072 
L 347.393058 -171.072 
L 347.075702 -171.072 
L 346.758347 -171.072 
L 346.440992 -171.072 
L 346.123636 -171.072 
L 345.806281 -171.072 
L 345.488926 -171.072 
L 345.17157 -171.072 
L 344.854215 -171.072 
L 344.53686 -171.072 
L 344.219504 -171.072 
L 343.902149 -171.072 
L 343.584793 -171.072 
L 343.267438 -171.072 
L 342.950083 -171.072 
L 342.632727 -171.072 
L 342.315372 -171.072 
L 341.998017 -171.072 
L 341.680661 -171.072 
L 341.363306 -171.072 
L 341.04595 -171.072 
L 340.728595 -171.072 
L 340.41124 -171.072 
L 340.093884 -171.072 
L 339.776529 -171.072 
L 339.459174 -171.072 
L 339.141818 -171.072 
L 338.824463 -171.072 
L 338.507107 -171.072 
L 338.189752 -171.072 
L 337.872397 -171.072 
L 337.555041 -171.072 
L 337.237686 -171.072 
L 336.920331 -171.072 
L 336.602975 -171.072 
L 336.28562 -171.072 
L 335.968264 -171.072 
L 335.650909 -171.072 
L 335.333554 -171.072 
L 335.016198 -171.072 
L 334.698843 -171.072 
L 334.381488 -171.072 
L 334.064132 -171.072 
L 333.746777 -171.072 
L 333.429421 -171.072 
L 333.112066 -171.072 
L 332.794711 -171.072 
L 332.477355 -171.072 
L 332.16 -171.072 
L 331.842645 -171.072 
L 331.525289 -171.072 
L 331.207934 -171.072 
L 330.890579 -171.072 
L 330.573223 -171.072 
L 330.255868 -171.072 
L 329.938512 -171.072 
L 329.621157 -171.072 
L 329.303802 -171.072 
L 328.986446 -171.072 
L 328.669091 -171.072 
L 328.351736 -171.072 
L 328.03438 -171.072 
L 327.717025 -171.072 
L 327.399669 -171.072 
L 327.082314 -171.072 
L 326.764959 -171.072 
L 326.447603 -171.072 
L 326.130248 -171.072 
L 325.812893 -171.072 
L 325.495537 -171.072 
L 325.178182 -171.072 
L 324.860826 -171.072 
L 324.543471 -171.072 
L 324.226116 -171.072 
L 323.90876 -171.072 
L 323.591405 -171.072 
L 323.27405 -171.072 
L 322.956694 -171.072 
L 322.639339 -171.072 
L 322.321983 -171.072 
L 322.004628 -171.072 
L 321.687273 -171.072 
L 321.369917 -171.072 
L 321.052562 -171.072 
L 320.735207 -171.072 
L 320.417851 -171.072 
L 320.100496 -171.072 
L 319.78314 -171.072 
L 319.465785 -171.072 
L 319.14843 -171.072 
L 318.831074 -171.072 
L 318.513719 -171.072 
L 318.196364 -171.072 
L 317.879008 -171.072 
L 317.561653 -171.072 
L 317.244298 -171.072 
L 316.926942 -171.072 
L 316.609587 -171.072 
L 316.292231 -171.072 
L 315.974876 -171.072 
L 315.657521 -171.072 
L 315.340165 -171.072 
L 315.02281 -171.072 
L 314.705455 -171.072 
L 314.388099 -171.072 
L 314.070744 -171.072 
L 313.753388 -171.072 
L 313.436033 -171.072 
L 313.118678 -171.072 
L 312.801322 -171.072 
L 312.483967 -171.072 
L 312.166612 -171.072 
L 311.849256 -171.072 
L 311.531901 -171.072 
L 311.214545 -171.072 
L 310.89719 -171.072 
L 310.579835 -171.072 
L 310.262479 -171.072 
L 309.945124 -171.072 
L 309.627769 -171.072 
L 309.310413 -171.072 
L 308.993058 -171.072 
L 308.675702 -171.072 
L 308.358347 -171.072 
L 308.040992 -171.072 
L 307.723636 -171.072 
L 307.406281 -171.072 
L 307.088926 -171.072 
L 306.77157 -171.072 
L 306.454215 -171.072 
L 306.13686 -171.072 
L 305.819504 -171.072 
L 305.502149 -171.072 
L 305.184793 -171.072 
L 304.867438 -171.072 
L 304.550083 -171.072 
L 304.232727 -171.072 
L 303.915372 -171.072 
L 303.598017 -171.072 
L 303.280661 -171.072 
L 302.963306 -171.072 
L 302.64595 -171.072 
L 302.328595 -171.072 
L 302.01124 -171.072 
L 301.693884 -171.072 
L 301.376529 -171.072 
L 301.059174 -171.072 
L 300.741818 -171.072 
L 300.424463 -171.072 
L 300.107107 -171.072 
L 299.789752 -171.072 
L 299.472397 -171.072 
L 299.155041 -171.072 
L 298.837686 -171.072 
L 298.520331 -171.072 
L 298.202975 -171.072 
L 297.88562 -171.072 
L 297.568264 -171.072 
L 297.250909 -171.072 
L 296.933554 -171.072 
L 296.616198 -171.072 
L 296.298843 -171.072 
L 295.981488 -171.072 
L 295.664132 -171.072 
L 295.346777 -171.072 
L 295.029421 -171.072 
L 294.712066 -171.072 
L 294.394711 -171.072 
L 294.077355 -171.072 
L 293.76 -171.072 
L 293.442645 -171.072 
L 293.125289 -171.072 
L 292.807934 -171.072 
L 292.490579 -171.072 
L 292.173223 -171.072 
L 291.855868 -171.072 
L 291.538512 -171.072 
L 291.221157 -171.072 
L 290.903802 -171.072 
L 290.586446 -171.072 
L 290.269091 -171.072 
L 289.951736 -171.072 
L 289.63438 -171.072 
L 289.317025 -171.072 
L 288.999669 -171.072 
L 288.682314 -171.072 
L 288.364959 -171.072 
L 288.047603 -171.072 
L 287.730248 -171.072 
L 287.412893 -171.072 
L 287.095537 -171.072 
L 286.778182 -171.072 
L 286.460826 -171.072 
L 286.143471 -171.072 
L 285.826116 -171.072 
L 285.50876 -171.072 
L 285.191405 -171.072 
L 284.87405 -171.072 
L 284.556694 -171.072 
L 284.239339 -171.072 
L 283.921983 -171.072 
L 283.604628 -171.072 
L 283.287273 -171.072 
L 282.969917 -171.072 
L 282.652562 -171.072 
L 282.335207 -171.072 
L 282.017851 -171.072 
L 281.700496 -171.072 
L 281.38314 -171.072 
L 281.065785 -171.072 
L 280.74843 -171.072 
L 280.431074 -171.072 
L 280.113719 -171.072 
L 279.796364 -171.072 
L 279.479008 -171.072 
L 279.161653 -171.072 
L 278.844298 -171.072 
L 278.526942 -171.072 
L 278.209587 -171.072 
L 277.892231 -171.072 
L 277.574876 -171.072 
L 277.257521 -171.072 
L 276.940165 -171.072 
L 276.62281 -171.072 
L 276.305455 -171.072 
L 275.988099 -171.072 
L 275.670744 -171.072 
L 275.353388 -171.072 
L 275.036033 -171.072 
L 274.718678 -171.072 
L 274.401322 -171.072 
L 274.083967 -171.072 
L 273.766612 -171.072 
L 273.449256 -171.072 
L 273.131901 -171.072 
L 272.814545 -171.072 
L 272.49719 -171.072 
L 272.179835 -171.072 
L 271.862479 -171.072 
L 271.545124 -171.072 
L 271.227769 -171.072 
L 270.910413 -171.072 
L 270.593058 -171.072 
L 270.275702 -171.072 
L 269.958347 -171.072 
L 269.640992 -171.072 
L 269.323636 -171.072 
L 269.006281 -171.072 
L 268.688926 -171.072 
L 268.37157 -171.072 
L 268.054215 -171.072 
L 267.73686 -171.072 
L 267.419504 -171.072 
L 267.102149 -171.072 
L 266.784793 -171.072 
L 266.467438 -171.072 
L 266.150083 -171.072 
L 265.832727 -171.072 
L 265.515372 -171.072 
L 265.198017 -171.072 
L 264.880661 -171.072 
L 264.563306 -171.072 
L 264.24595 -171.072 
L 263.928595 -171.072 
L 263.61124 -171.072 
L 263.293884 -171.072 
L 262.976529 -171.072 
L 262.659174 -171.072 
L 262.341818 -171.072 
L 262.024463 -171.072 
L 261.707107 -171.072 
L 261.389752 -171.072 
L 261.072397 -171.072 
L 260.755041 -171.072 
L 260.437686 -171.072 
L 260.120331 -171.072 
L 259.802975 -171.072 
L 259.48562 -171.072 
L 259.168264 -171.072 
L 258.850909 -171.072 
L 258.533554 -171.072 
L 258.216198 -171.072 
L 257.898843 -171.072 
L 257.581488 -171.072 
L 257.264132 -171.072 
L 256.946777 -171.072 
L 256.629421 -171.072 
L 256.312066 -171.072 
L 255.994711 -171.072 
L 255.677355 -171.072 
L 255.36 -171.072 
L 255.042645 -171.072 
L 254.725289 -171.072 
L 254.407934 -171.072 
L 254.090579 -171.072 
L 253.773223 -171.072 
L 253.455868 -171.072 
L 253.138512 -171.072 
L 252.821157 -171.072 
L 252.503802 -171.072 
L 252.186446 -171.072 
L 251.869091 -171.072 
L 251.551736 -171.072 
L 251.23438 -171.072 
L 250.917025 -171.072 
L 250.599669 -171.072 
L 250.282314 -171.072 
L 249.964959 -171.072 
L 249.647603 -171.072 
L 249.330248 -171.072 
L 249.012893 -171.072 
L 248.695537 -171.072 
L 248.378182 -171.072 
L 248.060826 -171.072 
L 247.743471 -171.072 
L 247.426116 -171.072 
L 247.10876 -171.072 
L 246.791405 -171.072 
L 246.47405 -171.072 
L 246.156694 -171.072 
L 245.839339 -171.072 
L 245.521983 -171.072 
L 245.204628 -171.072 
L 244.887273 -171.072 
L 244.569917 -171.072 
L 244.252562 -171.072 
L 243.935207 -171.072 
L 243.617851 -171.072 
L 243.300496 -171.072 
L 242.98314 -171.072 
L 242.665785 -171.072 
L 242.34843 -171.072 
L 242.031074 -171.072 
L 241.713719 -171.072 
L 241.396364 -171.072 
L 241.079008 -171.072 
L 240.761653 -171.072 
L 240.444298 -171.072 
L 240.126942 -171.072 
L 239.809587 -171.072 
L 239.492231 -171.072 
L 239.174876 -171.072 
L 238.857521 -171.072 
L 238.540165 -171.072 
L 238.22281 -171.072 
L 237.905455 -171.072 
L 237.588099 -171.072 
L 237.270744 -171.072 
L 236.953388 -171.072 
L 236.636033 -171.072 
L 236.318678 -171.072 
L 236.001322 -171.072 
L 235.683967 -171.072 
L 235.366612 -171.072 
L 235.049256 -171.072 
L 234.731901 -171.072 
L 234.414545 -171.072 
L 234.09719 -171.072 
L 233.779835 -171.072 
L 233.462479 -171.072 
L 233.145124 -171.072 
L 232.827769 -171.072 
L 232.510413 -171.072 
L 232.193058 -171.072 
L 231.875702 -171.072 
L 231.558347 -171.072 
L 231.240992 -171.072 
L 230.923636 -171.072 
L 230.606281 -171.072 
L 230.288926 -171.072 
L 229.97157 -171.072 
L 229.654215 -171.072 
L 229.33686 -171.072 
L 229.019504 -171.072 
L 228.702149 -171.072 
L 228.384793 -171.072 
L 228.067438 -171.072 
L 227.750083 -171.072 
L 227.432727 -171.072 
L 227.115372 -171.072 
L 226.798017 -171.072 
L 226.480661 -171.072 
L 226.163306 -171.072 
L 225.84595 -171.072 
L 225.528595 -171.072 
L 225.21124 -171.072 
L 224.893884 -171.072 
L 224.576529 -171.072 
L 224.259174 -171.072 
L 223.941818 -171.072 
L 223.624463 -171.072 
L 223.307107 -171.072 
L 222.989752 -171.072 
L 222.672397 -171.072 
L 222.355041 -171.072 
L 222.037686 -171.072 
L 221.720331 -171.072 
L 221.402975 -171.072 
L 221.08562 -171.072 
L 220.768264 -171.072 
L 220.450909 -171.072 
L 220.133554 -171.072 
L 219.816198 -171.072 
L 219.498843 -171.072 
L 219.181488 -171.072 
L 218.864132 -171.072 
L 218.546777 -171.072 
L 218.229421 -171.072 
L 217.912066 -171.072 
L 217.594711 -171.072 
L 217.277355 -171.072 
L 216.96 -171.072 
L 216.642645 -171.072 
L 216.325289 -171.072 
L 216.007934 -171.072 
L 215.690579 -171.072 
L 215.373223 -171.072 
L 215.055868 -171.072 
L 214.738512 -171.072 
L 214.421157 -171.072 
L 214.103802 -171.072 
L 213.786446 -171.072 
L 213.469091 -171.072 
L 213.151736 -171.072 
L 212.83438 -171.072 
L 212.517025 -171.072 
L 212.199669 -171.072 
L 211.882314 -171.072 
L 211.564959 -171.072 
L 211.247603 -171.072 
L 210.930248 -171.072 
L 210.612893 -171.072 
L 210.295537 -171.072 
L 209.978182 -171.072 
L 209.660826 -171.072 
L 209.343471 -171.072 
L 209.026116 -171.072 
L 208.70876 -171.072 
L 208.391405 -171.072 
L 208.07405 -171.072 
L 207.756694 -171.072 
L 207.439339 -171.072 
L 207.121983 -171.072 
L 206.804628 -171.072 
L 206.487273 -171.072 
L 206.169917 -171.072 
L 205.852562 -171.072 
L 205.535207 -171.072 
L 205.217851 -171.072 
L 204.900496 -171.072 
L 204.58314 -171.072 
L 204.265785 -171.072 
L 203.94843 -171.072 
L 203.631074 -171.072 
L 203.313719 -171.072 
L 202.996364 -171.072 
L 202.679008 -171.072 
L 202.361653 -171.072 
L 202.044298 -171.072 
L 201.726942 -171.072 
L 201.409587 -171.072 
L 201.092231 -171.072 
L 200.774876 -171.072 
L 200.457521 -171.072 
L 200.140165 -171.072 
L 199.82281 -171.072 
L 199.505455 -171.072 
L 199.188099 -171.072 
L 198.870744 -171.072 
L 198.553388 -171.072 
L 198.236033 -171.072 
L 197.918678 -171.072 
L 197.601322 -171.072 
L 197.283967 -171.072 
L 196.966612 -171.072 
L 196.649256 -171.072 
L 196.331901 -171.072 
L 196.014545 -171.072 
L 195.69719 -171.072 
L 195.379835 -171.072 
L 195.062479 -171.072 
L 194.745124 -171.072 
L 194.427769 -171.072 
L 194.110413 -171.072 
L 193.793058 -171.072 
L 193.475702 -171.072 
L 193.158347 -171.072 
L 192.840992 -171.072 
L 192.523636 -171.072 
L 192.206281 -171.072 
L 191.888926 -171.072 
L 191.57157 -171.072 
L 191.254215 -171.072 
L 190.93686 -171.072 
L 190.619504 -171.072 
L 190.302149 -171.072 
L 189.984793 -171.072 
L 189.667438 -171.072 
L 189.350083 -171.072 
L 189.032727 -171.072 
L 188.715372 -171.072 
L 188.398017 -171.072 
L 188.080661 -171.072 
L 187.763306 -171.072 
L 187.44595 -171.072 
L 187.128595 -171.072 
L 186.81124 -171.072 
L 186.493884 -171.072 
L 186.176529 -171.072 
L 185.859174 -171.072 
L 185.541818 -171.072 
L 185.224463 -171.072 
L 184.907107 -171.072 
L 184.589752 -171.072 
L 184.272397 -171.072 
L 183.955041 -171.072 
L 183.637686 -171.072 
L 183.320331 -171.072 
L 183.002975 -171.072 
L 182.68562 -171.072 
L 182.368264 -171.072 
L 182.050909 -171.072 
L 181.733554 -171.072 
L 181.416198 -171.072 
L 181.098843 -171.072 
L 180.781488 -171.072 
L 180.464132 -171.072 
L 180.146777 -171.072 
L 179.829421 -171.072 
L 179.512066 -171.072 
L 179.194711 -171.072 
L 178.877355 -171.072 
L 178.56 -171.072 
L 178.242645 -171.072 
L 177.925289 -171.072 
L 177.607934 -171.072 
L 177.290579 -171.072 
L 176.973223 -171.072 
L 176.655868 -171.072 
L 176.338512 -171.072 
L 176.021157 -171.072 
L 175.703802 -171.072 
L 175.386446 -171.072 
L 175.069091 -171.072 
L 174.751736 -171.072 
L 174.43438 -171.072 
L 174.117025 -171.072 
L 173.799669 -171.072 
L 173.482314 -171.072 
L 173.164959 -171.072 
L 172.847603 -171.072 
L 172.530248 -171.072 
L 172.212893 -171.072 
L 171.895537 -171.072 
L 171.578182 -171.072 
L 171.260826 -171.072 
L 170.943471 -171.072 
L 170.626116 -171.072 
L 170.30876 -171.072 
L 169.991405 -171.072 
L 169.67405 -171.072 
L 169.356694 -171.072 
L 169.039339 -171.072 
L 168.721983 -171.072 
L 168.404628 -171.072 
L 168.087273 -171.072 
L 167.769917 -171.072 
L 167.452562 -171.072 
L 167.135207 -171.072 
L 166.817851 -171.072 
L 166.500496 -171.072 
L 166.18314 -171.072 
L 165.865785 -171.072 
L 165.54843 -171.072 
L 165.231074 -171.072 
L 164.913719 -171.072 
L 164.596364 -171.072 
L 164.279008 -171.072 
L 163.961653 -171.072 
L 163.644298 -171.072 
L 163.326942 -171.072 
L 163.009587 -171.072 
L 162.692231 -171.072 
L 162.374876 -171.072 
L 162.057521 -171.072 
L 161.740165 -171.072 
L 161.42281 -171.072 
L 161.105455 -171.072 
L 160.788099 -171.072 
L 160.470744 -171.072 
L 160.153388 -171.072 
L 159.836033 -171.072 
L 159.518678 -171.072 
L 159.201322 -171.072 
L 158.883967 -171.072 
L 158.566612 -171.072 
L 158.249256 -171.072 
L 157.931901 -171.072 
L 157.614545 -171.072 
L 157.29719 -171.072 
L 156.979835 -171.072 
L 156.662479 -171.072 
L 156.345124 -171.072 
L 156.027769 -171.072 
L 155.710413 -171.072 
L 155.393058 -171.072 
L 155.075702 -171.072 
L 154.758347 -171.072 
L 154.440992 -171.072 
L 154.123636 -171.072 
L 153.806281 -171.072 
L 153.488926 -171.072 
L 153.17157 -171.072 
L 152.854215 -171.072 
L 152.53686 -171.072 
L 152.219504 -171.072 
L 151.902149 -171.072 
L 151.584793 -171.072 
L 151.267438 -171.072 
L 150.950083 -171.072 
L 150.632727 -171.072 
L 150.315372 -171.072 
L 149.998017 -171.072 
L 149.680661 -171.072 
L 149.363306 -171.072 
L 149.04595 -171.072 
L 148.728595 -171.072 
L 148.41124 -171.072 
L 148.093884 -171.072 
L 147.776529 -171.072 
L 147.459174 -171.072 
L 147.141818 -171.072 
L 146.824463 -171.072 
L 146.507107 -171.072 
L 146.189752 -171.072 
L 145.872397 -171.072 
L 145.555041 -171.072 
L 145.237686 -171.072 
L 144.920331 -171.072 
L 144.602975 -171.072 
L 144.28562 -171.072 
L 143.968264 -171.072 
L 143.650909 -171.072 
L 143.333554 -171.072 
L 143.016198 -171.072 
L 142.698843 -171.072 
L 142.381488 -171.072 
L 142.064132 -171.072 
L 141.746777 -171.072 
L 141.429421 -171.072 
L 141.112066 -171.072 
L 140.794711 -171.072 
L 140.477355 -171.072 
L 140.16 -171.072 
L 139.842645 -171.072 
L 139.525289 -171.072 
L 139.207934 -171.072 
L 138.890579 -171.072 
L 138.573223 -171.072 
L 138.255868 -171.072 
L 137.938512 -171.072 
L 137.621157 -171.072 
L 137.303802 -171.072 
L 136.986446 -171.072 
L 136.669091 -171.072 
L 136.351736 -171.072 
L 136.03438 -171.072 
L 135.717025 -171.072 
L 135.399669 -171.072 
L 135.082314 -171.072 
L 134.764959 -171.072 
L 134.447603 -171.072 
L 134.130248 -171.072 
L 133.812893 -171.072 
L 133.495537 -171.072 
L 133.178182 -171.072 
L 132.860826 -171.072 
L 132.543471 -171.072 
L 132.226116 -171.072 
L 131.90876 -171.072 
L 131.591405 -171.072 
L 131.27405 -171.072 
L 130.956694 -171.072 
L 130.639339 -171.072 
L 130.321983 -171.072 
L 130.004628 -171.072 
L 129.687273 -171.072 
L 129.369917 -171.072 
L 129.052562 -171.072 
L 128.735207 -171.072 
L 128.417851 -171.072 
L 128.100496 -171.072 
L 127.78314 -171.072 
L 127.465785 -171.072 
L 127.14843 -171.072 
L 126.831074 -171.072 
L 126.513719 -171.072 
L 126.196364 -171.072 
L 125.879008 -171.072 
L 125.561653 -171.072 
L 125.244298 -171.072 
L 124.926942 -171.072 
L 124.609587 -171.072 
L 124.292231 -171.072 
L 123.974876 -171.072 
L 123.657521 -171.072 
L 123.340165 -171.072 
L 123.02281 -171.072 
L 122.705455 -171.072 
L 122.388099 -171.072 
L 122.070744 -171.072 
L 121.753388 -171.072 
L 121.436033 -171.072 
L 121.118678 -171.072 
L 120.801322 -171.072 
L 120.483967 -171.072 
L 120.166612 -171.072 
L 119.849256 -171.072 
L 119.531901 -171.072 
L 119.214545 -171.072 
L 118.89719 -171.072 
L 118.579835 -171.072 
L 118.262479 -171.072 
L 117.945124 -171.072 
L 117.627769 -171.072 
L 117.310413 -171.072 
L 116.993058 -171.072 
L 116.675702 -171.072 
L 116.358347 -171.072 
L 116.040992 -171.072 
L 115.723636 -171.072 
L 115.406281 -171.072 
L 115.088926 -171.072 
L 114.77157 -171.072 
L 114.454215 -171.072 
L 114.13686 -171.072 
L 113.819504 -171.072 
L 113.502149 -171.072 
L 113.184793 -171.072 
L 112.867438 -171.072 
L 112.550083 -171.072 
L 112.232727 -171.072 
L 111.915372 -171.072 
L 111.598017 -171.072 
L 111.280661 -171.072 
L 110.963306 -171.072 
L 110.64595 -171.072 
L 110.328595 -171.072 
L 110.01124 -171.072 
L 109.693884 -171.072 
L 109.376529 -171.072 
L 109.059174 -171.072 
L 108.741818 -171.072 
L 108.424463 -171.072 
L 108.107107 -171.072 
L 107.789752 -171.072 
L 107.472397 -171.072 
L 107.155041 -171.072 
L 106.837686 -171.072 
L 106.520331 -171.072 
L 106.202975 -171.072 
L 105.88562 -171.072 
L 105.568264 -171.072 
L 105.250909 -171.072 
L 104.933554 -171.072 
L 104.616198 -171.072 
L 104.298843 -171.072 
L 103.981488 -171.072 
L 103.664132 -171.072 
L 103.346777 -171.072 
L 103.029421 -171.072 
L 102.712066 -171.072 
L 102.394711 -171.072 
L 102.077355 -171.072 
L 101.76 -171.072 
L 101.442645 -171.072 
L 101.125289 -171.072 
L 100.807934 -171.072 
L 100.490579 -171.072 
L 100.173223 -171.072 
L 99.855868 -171.072 
L 99.538512 -171.072 
L 99.221157 -171.072 
L 98.903802 -171.072 
L 98.586446 -171.072 
L 98.269091 -171.072 
L 97.951736 -171.072 
L 97.63438 -171.072 
L 97.317025 -171.072 
L 96.999669 -171.072 
L 96.682314 -171.072 
L 96.364959 -171.072 
L 96.047603 -171.072 
L 95.730248 -171.072 
L 95.412893 -171.072 
L 95.095537 -171.072 
L 94.778182 -171.072 
L 94.460826 -171.072 
L 94.143471 -171.072 
L 93.826116 -171.072 
L 93.50876 -171.072 
L 93.191405 -171.072 
L 92.87405 -171.072 
L 92.556694 -171.072 
L 92.239339 -171.072 
L 91.921983 -171.072 
L 91.604628 -171.072 
L 91.287273 -171.072 
L 90.969917 -171.072 
L 90.652562 -171.072 
L 90.335207 -171.072 
L 90.017851 -171.072 
L 89.700496 -171.072 
L 89.38314 -171.072 
L 89.065785 -171.072 
L 88.74843 -171.072 
L 88.431074 -171.072 
L 88.113719 -171.072 
L 87.796364 -171.072 
L 87.479008 -171.072 
L 87.161653 -171.072 
L 86.844298 -171.072 
L 86.526942 -171.072 
L 86.209587 -171.072 
L 85.892231 -171.072 
L 85.574876 -171.072 
L 85.257521 -171.072 
L 84.940165 -171.072 
L 84.62281 -171.072 
L 84.305455 -171.072 
L 83.988099 -171.072 
L 83.670744 -171.072 
L 83.353388 -171.072 
L 83.036033 -171.072 
L 82.718678 -171.072 
L 82.401322 -171.072 
L 82.083967 -171.072 
L 81.766612 -171.072 
L 81.449256 -171.072 
L 81.131901 -171.072 
L 80.814545 -171.072 
L 80.49719 -171.072 
L 80.179835 -171.072 
L 79.862479 -171.072 
L 79.545124 -171.072 
L 79.227769 -171.072 
L 78.910413 -171.072 
L 78.593058 -171.072 
L 78.275702 -171.072 
L 77.958347 -171.072 
L 77.640992 -171.072 
L 77.323636 -171.072 
L 77.006281 -171.072 
L 76.688926 -171.072 
L 76.37157 -171.072 
L 76.054215 -171.072 
L 75.73686 -171.072 
L 75.419504 -171.072 
L 75.102149 -171.072 
L 74.784793 -171.072 
L 74.467438 -171.072 
L 74.150083 -171.072 
L 73.832727 -171.072 
z
" style="stroke: #87ceeb; stroke-opacity: 0.75"/>
    </defs>
    <g clip-path="url(#pabab33031f)">
     <use xlink:href="#mb2f4808310" x="0" y="345.6" style="fill: #87ceeb; fill-opacity: 0.75; stroke: #87ceeb; stroke-opacity: 0.75"/>
    </g>
   </g>
   <g id="matplotlib.axis_1">
    <g id="xtick_1">
     <g id="line2d_1">
      <defs>
       <path id="mbf817b2101" d="M 0 0 
L 0 3.5 
" style="stroke: #000000; stroke-width: 0.8"/>
      </defs>
      <g>
       <use xlink:href="#mbf817b2101" x="73.832727" y="307.584" style="stroke: #000000; stroke-width: 0.8"/>
      </g>
     </g>
     <g id="text_1">
      <!-- 0 -->
      <g transform="translate(70.531868 322.161969) scale(0.11 -0.11)">
       <defs>
        <path id="AndaleMono-30" d="M 1913 4494 
Q 2613 4494 2989 3892 
Q 3366 3291 3366 2203 
Q 3366 1150 3000 533 
Q 2634 -84 1913 -84 
Q 1216 -84 837 516 
Q 459 1116 459 2203 
Q 459 3259 826 3876 
Q 1194 4494 1913 4494 
z
M 1913 366 
Q 2375 366 2598 805 
Q 2822 1244 2822 2203 
Q 2822 3166 2598 3602 
Q 2375 4038 1913 4038 
Q 1456 4038 1231 3591 
Q 1006 3144 1006 2203 
Q 1006 1250 1229 808 
Q 1453 366 1913 366 
z
M 1900 2672 
Q 2097 2672 2233 2536 
Q 2369 2400 2369 2203 
Q 2369 2000 2231 1854 
Q 2094 1709 1900 1709 
Q 1709 1709 1573 1854 
Q 1438 2000 1438 2203 
Q 1438 2403 1570 2537 
Q 1703 2672 1900 2672 
z
" transform="scale(0.015625)"/>
       </defs>
       <use xlink:href="#AndaleMono-30"/>
      </g>
     </g>
    </g>
    <g id="xtick_2">
     <g id="line2d_2">
      <g>
       <use xlink:href="#mbf817b2101" x="137.303802" y="307.584" style="stroke: #000000; stroke-width: 0.8"/>
      </g>
     </g>
     <g id="text_2">
      <!-- 200 -->
      <g transform="translate(127.401224 322.161969) scale(0.11 -0.11)">
       <defs>
        <path id="AndaleMono-32" d="M 3066 0 
L 641 0 
L 641 372 
Q 1563 1400 1838 1750 
Q 2113 2100 2284 2484 
Q 2456 2869 2456 3250 
Q 2456 3619 2232 3831 
Q 2009 4044 1606 4044 
Q 1297 4044 775 3853 
L 703 4294 
Q 1175 4494 1691 4494 
Q 2281 4494 2642 4161 
Q 3003 3828 3003 3272 
Q 3003 2875 2817 2484 
Q 2631 2094 2340 1734 
Q 2050 1375 1209 447 
L 3066 447 
L 3066 0 
z
" transform="scale(0.015625)"/>
       </defs>
       <use xlink:href="#AndaleMono-32"/>
       <use xlink:href="#AndaleMono-30" x="60.009766"/>
       <use xlink:href="#AndaleMono-30" x="120.019531"/>
      </g>
     </g>
    </g>
    <g id="xtick_3">
     <g id="line2d_3">
      <g>
       <use xlink:href="#mbf817b2101" x="200.774876" y="307.584" style="stroke: #000000; stroke-width: 0.8"/>
      </g>
     </g>
     <g id="text_3">
      <!-- 400 -->
      <g transform="translate(190.872298 322.161969) scale(0.11 -0.11)">
       <defs>
        <path id="AndaleMono-34" d="M 3353 1019 
L 2809 1019 
L 2809 0 
L 2297 0 
L 2297 1019 
L 378 1019 
L 378 1409 
L 2119 4409 
L 2809 4409 
L 2809 1466 
L 3353 1466 
L 3353 1019 
z
M 2297 1466 
L 2297 3903 
L 897 1466 
L 2297 1466 
z
" transform="scale(0.015625)"/>
       </defs>
       <use xlink:href="#AndaleMono-34"/>
       <use xlink:href="#AndaleMono-30" x="60.009766"/>
       <use xlink:href="#AndaleMono-30" x="120.019531"/>
      </g>
     </g>
    </g>
    <g id="xtick_4">
     <g id="line2d_4">
      <g>
       <use xlink:href="#mbf817b2101" x="264.24595" y="307.584" style="stroke: #000000; stroke-width: 0.8"/>
      </g>
     </g>
     <g id="text_4">
      <!-- 600 -->
      <g transform="translate(254.343372 322.161969) scale(0.11 -0.11)">
       <defs>
        <path id="AndaleMono-36" d="M 1131 2297 
Q 1544 2631 2028 2631 
Q 2588 2631 2961 2273 
Q 3334 1916 3334 1350 
Q 3334 728 3003 322 
Q 2672 -84 2119 -84 
Q 1413 -84 1000 564 
Q 588 1213 588 2150 
Q 588 3150 1017 3822 
Q 1447 4494 2194 4494 
Q 2709 4494 3084 4341 
L 3003 3884 
Q 2569 4044 2209 4044 
Q 1700 4044 1415 3556 
Q 1131 3069 1131 2297 
z
M 1147 1856 
Q 1147 1291 1412 828 
Q 1678 366 2081 366 
Q 2422 366 2606 616 
Q 2791 866 2791 1306 
Q 2791 1713 2587 1947 
Q 2384 2181 2016 2181 
Q 1538 2181 1147 1856 
z
" transform="scale(0.015625)"/>
       </defs>
       <use xlink:href="#AndaleMono-36"/>
       <use xlink:href="#AndaleMono-30" x="60.009766"/>
       <use xlink:href="#AndaleMono-30" x="120.019531"/>
      </g>
     </g>
    </g>
    <g id="xtick_5">
     <g id="line2d_5">
      <g>
       <use xlink:href="#mbf817b2101" x="327.717025" y="307.584" style="stroke: #000000; stroke-width: 0.8"/>
      </g>
     </g>
     <g id="text_5">
      <!-- 800 -->
      <g transform="translate(317.814447 322.161969) scale(0.11 -0.11)">
       <defs>
        <path id="AndaleMono-38" d="M 2363 2419 
Q 2813 2288 3061 1972 
Q 3309 1656 3309 1234 
Q 3309 628 2907 272 
Q 2506 -84 1919 -84 
Q 1303 -84 908 275 
Q 513 634 513 1228 
Q 513 1647 769 1965 
Q 1025 2284 1484 2419 
Q 1119 2513 898 2780 
Q 678 3047 678 3378 
Q 678 3803 1015 4148 
Q 1353 4494 1906 4494 
Q 2453 4494 2811 4150 
Q 3169 3806 3169 3378 
Q 3169 3056 2944 2786 
Q 2719 2516 2363 2419 
z
M 1906 2631 
Q 1922 2631 2056 2668 
Q 2191 2706 2286 2761 
Q 2381 2816 2462 2900 
Q 2544 2984 2594 3098 
Q 2644 3213 2644 3353 
Q 2644 3653 2428 3851 
Q 2213 4050 1906 4050 
Q 1609 4050 1396 3847 
Q 1184 3644 1184 3353 
Q 1184 3169 1261 3031 
Q 1338 2894 1452 2809 
Q 1566 2725 1714 2678 
Q 1863 2631 1906 2631 
z
M 1906 2194 
Q 1050 1944 1050 1253 
Q 1050 850 1309 608 
Q 1569 366 1919 366 
Q 2281 366 2529 605 
Q 2778 844 2778 1253 
Q 2778 1563 2606 1808 
Q 2434 2053 1906 2194 
z
" transform="scale(0.015625)"/>
       </defs>
       <use xlink:href="#AndaleMono-38"/>
       <use xlink:href="#AndaleMono-30" x="60.009766"/>
       <use xlink:href="#AndaleMono-30" x="120.019531"/>
      </g>
     </g>
    </g>
    <g id="xtick_6">
     <g id="line2d_6">
      <g>
       <use xlink:href="#mbf817b2101" x="391.188099" y="307.584" style="stroke: #000000; stroke-width: 0.8"/>
      </g>
     </g>
     <g id="text_6">
      <!-- 1000 -->
      <g transform="translate(377.984662 322.161969) scale(0.11 -0.11)">
       <defs>
        <path id="AndaleMono-31" d="M 3181 0 
L 863 0 
L 863 447 
L 1797 447 
L 1797 3872 
L 916 3431 
L 916 3944 
L 1869 4434 
L 2309 4434 
L 2309 447 
L 3181 447 
L 3181 0 
z
" transform="scale(0.015625)"/>
       </defs>
       <use xlink:href="#AndaleMono-31"/>
       <use xlink:href="#AndaleMono-30" x="60.009766"/>
       <use xlink:href="#AndaleMono-30" x="120.019531"/>
       <use xlink:href="#AndaleMono-30" x="180.029297"/>
      </g>
     </g>
    </g>
   </g>
   <g id="matplotlib.axis_2">
    <g id="ytick_1">
     <g id="line2d_7">
      <defs>
       <path id="m65212be0bd" d="M 0 0 
L -3.5 0 
" style="stroke: #000000; stroke-width: 0.8"/>
      </defs>
      <g>
       <use xlink:href="#m65212be0bd" x="57.6" y="295.488" style="stroke: #000000; stroke-width: 0.8"/>
      </g>
     </g>
     <g id="text_7">
      <!-- 1.00 -->
      <g transform="translate(17.591406 299.276984) scale(0.11 -0.11)">
       <defs>
        <path id="AndaleMono-2212" d="M 3397 2047 
L 441 2047 
L 441 2456 
L 3397 2456 
L 3397 2047 
z
" transform="scale(0.015625)"/>
        <path id="AndaleMono-2e" d="M 1900 716 
Q 2066 716 2178 603 
Q 2291 491 2291 325 
Q 2291 156 2177 36 
Q 2063 -84 1900 -84 
Q 1741 -84 1628 36 
Q 1516 156 1516 325 
Q 1516 494 1627 605 
Q 1738 716 1900 716 
z
" transform="scale(0.015625)"/>
       </defs>
       <use xlink:href="#AndaleMono-2212"/>
       <use xlink:href="#AndaleMono-31" x="60.009766"/>
       <use xlink:href="#AndaleMono-2e" x="120.019531"/>
       <use xlink:href="#AndaleMono-30" x="180.029297"/>
       <use xlink:href="#AndaleMono-30" x="240.039062"/>
      </g>
     </g>
    </g>
    <g id="ytick_2">
     <g id="line2d_8">
      <g>
       <use xlink:href="#m65212be0bd" x="57.6" y="265.248" style="stroke: #000000; stroke-width: 0.8"/>
      </g>
     </g>
     <g id="text_8">
      <!-- 0.75 -->
      <g transform="translate(17.591406 269.036984) scale(0.11 -0.11)">
       <defs>
        <path id="AndaleMono-37" d="M 3238 4044 
L 1491 0 
L 966 0 
L 2688 3963 
L 622 3963 
L 622 4409 
L 3238 4409 
L 3238 4044 
z
" transform="scale(0.015625)"/>
        <path id="AndaleMono-35" d="M 1356 2631 
Q 1569 2688 1772 2688 
Q 2397 2688 2759 2305 
Q 3122 1922 3122 1350 
Q 3122 750 2700 333 
Q 2278 -84 1672 -84 
Q 1094 -84 703 109 
L 806 544 
Q 1231 366 1684 366 
Q 2088 366 2336 625 
Q 2584 884 2584 1350 
Q 2584 1791 2350 2028 
Q 2116 2266 1747 2266 
Q 1478 2266 1216 2163 
L 909 2303 
L 909 4409 
L 2925 4409 
L 2925 3963 
L 1356 3963 
L 1356 2631 
z
" transform="scale(0.015625)"/>
       </defs>
       <use xlink:href="#AndaleMono-2212"/>
       <use xlink:href="#AndaleMono-30" x="60.009766"/>
       <use xlink:href="#AndaleMono-2e" x="120.019531"/>
       <use xlink:href="#AndaleMono-37" x="180.029297"/>
       <use xlink:href="#AndaleMono-35" x="240.039062"/>
      </g>
     </g>
    </g>
    <g id="ytick_3">
     <g id="line2d_9">
      <g>
       <use xlink:href="#m65212be0bd" x="57.6" y="235.008" style="stroke: #000000; stroke-width: 0.8"/>
      </g>
     </g>
     <g id="text_9">
      <!-- 0.50 -->
      <g transform="translate(17.591406 238.796984) scale(0.11 -0.11)">
       <use xlink:href="#AndaleMono-2212"/>
       <use xlink:href="#AndaleMono-30" x="60.009766"/>
       <use xlink:href="#AndaleMono-2e" x="120.019531"/>
       <use xlink:href="#AndaleMono-35" x="180.029297"/>
       <use xlink:href="#AndaleMono-30" x="240.039062"/>
      </g>
     </g>
    </g>
    <g id="ytick_4">
     <g id="line2d_10">
      <g>
       <use xlink:href="#m65212be0bd" x="57.6" y="204.768" style="stroke: #000000; stroke-width: 0.8"/>
      </g>
     </g>
     <g id="text_10">
      <!-- 0.25 -->
      <g transform="translate(17.591406 208.556984) scale(0.11 -0.11)">
       <use xlink:href="#AndaleMono-2212"/>
       <use xlink:href="#AndaleMono-30" x="60.009766"/>
       <use xlink:href="#AndaleMono-2e" x="120.019531"/>
       <use xlink:href="#AndaleMono-32" x="180.029297"/>
       <use xlink:href="#AndaleMono-35" x="240.039062"/>
      </g>
     </g>
    </g>
    <g id="ytick_5">
     <g id="line2d_11">
      <g>
       <use xlink:href="#m65212be0bd" x="57.6" y="174.528" style="stroke: #000000; stroke-width: 0.8"/>
      </g>
     </g>
     <g id="text_11">
      <!-- 0.00 -->
      <g transform="translate(24.193125 178.316984) scale(0.11 -0.11)">
       <use xlink:href="#AndaleMono-30"/>
       <use xlink:href="#AndaleMono-2e" x="60.009766"/>
       <use xlink:href="#AndaleMono-30" x="120.019531"/>
       <use xlink:href="#AndaleMono-30" x="180.029297"/>
      </g>
     </g>
    </g>
    <g id="ytick_6">
     <g id="line2d_12">
      <g>
       <use xlink:href="#m65212be0bd" x="57.6" y="144.288" style="stroke: #000000; stroke-width: 0.8"/>
      </g>
     </g>
     <g id="text_12">
      <!-- 0.25 -->
      <g transform="translate(24.193125 148.076984) scale(0.11 -0.11)">
       <use xlink:href="#AndaleMono-30"/>
       <use xlink:href="#AndaleMono-2e" x="60.009766"/>
       <use xlink:href="#AndaleMono-32" x="120.019531"/>
       <use xlink:href="#AndaleMono-35" x="180.029297"/>
      </g>
     </g>
    </g>
    <g id="ytick_7">
     <g id="line2d_13">
      <g>
       <use xlink:href="#m65212be0bd" x="57.6" y="114.048" style="stroke: #000000; stroke-width: 0.8"/>
      </g>
     </g>
     <g id="text_13">
      <!-- 0.50 -->
      <g transform="translate(24.193125 117.836984) scale(0.11 -0.11)">
       <use xlink:href="#AndaleMono-30"/>
       <use xlink:href="#AndaleMono-2e" x="60.009766"/>
       <use xlink:href="#AndaleMono-35" x="120.019531"/>
       <use xlink:href="#AndaleMono-30" x="180.029297"/>
      </g>
     </g>
    </g>
    <g id="ytick_8">
     <g id="line2d_14">
      <g>
       <use xlink:href="#m65212be0bd" x="57.6" y="83.808" style="stroke: #000000; stroke-width: 0.8"/>
      </g>
     </g>
     <g id="text_14">
      <!-- 0.75 -->
      <g transform="translate(24.193125 87.596984) scale(0.11 -0.11)">
       <use xlink:href="#AndaleMono-30"/>
       <use xlink:href="#AndaleMono-2e" x="60.009766"/>
       <use xlink:href="#AndaleMono-37" x="120.019531"/>
       <use xlink:href="#AndaleMono-35" x="180.029297"/>
      </g>
     </g>
    </g>
    <g id="ytick_9">
     <g id="line2d_15">
      <g>
       <use xlink:href="#m65212be0bd" x="57.6" y="53.568" style="stroke: #000000; stroke-width: 0.8"/>
      </g>
     </g>
     <g id="text_15">
      <!-- 1.00 -->
      <g transform="translate(24.193125 57.356984) scale(0.11 -0.11)">
       <use xlink:href="#AndaleMono-31"/>
       <use xlink:href="#AndaleMono-2e" x="60.009766"/>
       <use xlink:href="#AndaleMono-30" x="120.019531"/>
       <use xlink:href="#AndaleMono-30" x="180.029297"/>
      </g>
     </g>
    </g>
   </g>
   <g id="line2d_16">
    <path d="M 73.832727 174.528 
L 74.150083 119.40244 
L 75.419504 115.241907 
L 77.006281 110.934842 
L 80.179835 103.367264 
L 83.988099 92.577668 
L 84.305455 92.549143 
L 84.62281 92.675217 
L 85.257521 93.362546 
L 85.892231 94.552595 
L 86.844298 97.008886 
L 88.113719 101.034865 
L 90.017851 108.002911 
L 92.239339 116.073288 
L 93.50876 119.901736 
L 94.460826 122.204124 
L 95.730248 124.587009 
L 97.317025 126.764859 
L 100.490579 130.01682 
L 103.029421 133.453045 
L 104.298843 135.062785 
L 106.520331 138.137443 
L 109.693884 141.628179 
L 110.64595 142.148442 
L 111.915372 142.468322 
L 113.184793 142.493536 
L 114.454215 142.370911 
L 116.675702 141.989138 
L 117.627769 141.969116 
L 119.849256 142.06478 
L 121.118678 142.414508 
L 122.705455 142.976107 
L 123.974876 143.595684 
L 125.561653 144.249245 
L 126.513719 144.614706 
L 127.78314 145.217242 
L 131.27405 146.61394 
L 134.130248 147.660318 
L 137.621157 148.550678 
L 138.890579 148.614732 
L 143.016198 149.092696 
L 143.968264 149.081848 
L 145.555041 149.310702 
L 150.315372 150.226576 
L 151.584793 150.378056 
L 153.17157 152.490767 
L 153.806281 153.205602 
L 154.758347 153.834041 
L 156.027769 153.928373 
L 156.345124 153.737818 
L 156.662479 153.391427 
L 157.29719 152.166013 
L 157.931901 150.436601 
L 158.566612 148.092218 
L 159.518678 143.419968 
L 160.788099 135.563251 
L 162.057521 126.151094 
L 164.279008 107.707945 
L 167.452562 81.11195 
L 168.721983 72.24265 
L 169.67405 66.884459 
L 170.626116 62.880298 
L 171.260826 61.132906 
L 171.895537 60.197812 
L 172.847603 57.456311 
L 173.799669 55.429543 
L 174.43438 54.626396 
L 175.069091 54.124184 
L 175.386446 54.119237 
L 176.338512 53.586916 
L 176.655868 53.568 
L 176.973223 53.686691 
L 177.290579 54.033396 
L 177.925289 55.138247 
L 178.56 56.844732 
L 179.194711 59.296534 
L 180.146777 64.066792 
L 181.416198 71.839173 
L 183.002975 83.111477 
L 188.080661 121.874046 
L 189.032727 127.305472 
L 189.984793 131.373839 
L 190.619504 133.255346 
L 191.254215 134.486142 
L 191.57157 134.802802 
L 191.888926 134.892163 
L 192.206281 134.772911 
L 192.523636 134.902399 
L 193.158347 134.836141 
L 193.475702 134.723766 
L 194.427769 133.980942 
L 196.649256 131.387944 
L 200.457521 128.347169 
L 201.409587 127.601695 
L 202.044298 127.266888 
L 202.679008 127.142783 
L 203.94843 127.20829 
L 204.900496 127.648287 
L 208.391405 129.174338 
L 209.343471 130.000966 
L 210.295537 131.1343 
L 213.151736 135.53374 
L 216.007934 140.203135 
L 217.912066 142.85211 
L 220.768264 146.368608 
L 222.672397 148.722823 
L 224.893884 151.118227 
L 225.84595 152.116027 
L 226.798017 153.367869 
L 228.067438 155.510047 
L 229.97157 159.371426 
L 232.827769 166.042459 
L 237.270744 177.341194 
L 241.396364 187.590157 
L 244.252562 193.545953 
L 245.521983 195.688131 
L 246.791405 197.284153 
L 251.551736 202.687392 
L 254.090579 205.82839 
L 255.36 207.449733 
L 257.581488 210.87443 
L 261.072397 216.507095 
L 262.976529 219.055034 
L 263.928595 219.881662 
L 264.880661 220.379009 
L 265.832727 220.6457 
L 268.37157 221.84771 
L 269.323636 221.92218 
L 270.275702 221.789112 
L 271.227769 221.246277 
L 276.62281 216.746924 
L 277.574876 215.463799 
L 278.209587 214.774331 
L 279.161653 214.219859 
L 279.796364 214.153601 
L 280.113719 214.283089 
L 280.431074 214.163837 
L 280.74843 214.253198 
L 281.065785 214.569858 
L 281.700496 215.800654 
L 282.335207 217.682161 
L 282.969917 220.226633 
L 283.921983 225.249136 
L 285.191405 233.636424 
L 288.364959 258.547159 
L 290.586446 275.094391 
L 292.173223 284.989208 
L 293.125289 289.759466 
L 293.76 292.211268 
L 294.394711 293.917753 
L 295.029421 295.022604 
L 295.346777 295.369309 
L 295.664132 295.488 
L 295.981488 295.469084 
L 296.933554 294.936763 
L 297.250909 294.931816 
L 297.88562 294.429604 
L 298.202975 294.108385 
L 298.837686 292.946531 
L 299.472397 291.599689 
L 300.424463 288.858188 
L 300.741818 288.490085 
L 301.376529 287.147337 
L 302.01124 285.009233 
L 302.963306 280.525997 
L 303.915372 274.740368 
L 305.184793 265.541187 
L 306.77157 252.343803 
L 310.262479 222.904906 
L 311.849256 211.382818 
L 313.118678 203.927358 
L 314.070744 199.70928 
L 314.705455 197.673401 
L 315.340165 196.193333 
L 315.974876 195.318182 
L 316.292231 195.127627 
L 316.926942 195.102505 
L 317.879008 195.398732 
L 318.831074 196.156079 
L 320.735207 198.677944 
L 328.669091 199.993176 
L 331.525289 200.194392 
L 335.333554 200.597946 
L 337.555041 201.199493 
L 341.680661 202.7217 
L 343.902149 203.619143 
L 345.17157 204.115219 
L 347.075702 204.912457 
L 348.662479 205.612459 
L 350.883967 206.543034 
L 352.788099 207.057161 
L 354.057521 207.096168 
L 356.596364 206.920134 
L 359.135207 206.562464 
L 361.039339 206.715191 
L 361.991405 207.038081 
L 362.943471 207.697338 
L 363.895537 208.624002 
L 365.164959 210.151322 
L 367.703802 213.537647 
L 368.973223 215.239049 
L 370.242645 216.784006 
L 372.464132 219.843272 
L 373.416198 220.780639 
L 375.002975 222.291141 
L 375.955041 223.542155 
L 377.224463 225.600308 
L 378.493884 228.295234 
L 379.44595 230.734182 
L 380.715372 234.682481 
L 382.619504 241.5151 
L 384.840992 249.40057 
L 386.110413 253.230679 
L 387.062479 255.437544 
L 387.69719 256.374984 
L 388.331901 256.77951 
L 388.649256 256.767005 
L 391.188099 249.640764 
L 393.092231 244.413706 
L 396.265785 236.814962 
L 397.535207 233.041035 
L 398.169917 230.880761 
L 398.487273 174.528 
L 398.487273 174.528 
" clip-path="url(#pabab33031f)" style="fill: none; stroke: #87ceeb; stroke-opacity: 0.75; stroke-linecap: square"/>
   </g>
   <g id="patch_3">
    <path d="M 57.6 307.584 
L 57.6 41.472 
" style="fill: none; stroke: #000000; stroke-width: 0.8; stroke-linejoin: miter; stroke-linecap: square"/>
   </g>
   <g id="patch_4">
    <path d="M 414.72 307.584 
L 414.72 41.472 
" style="fill: none; stroke: #000000; stroke-width: 0.8; stroke-linejoin: miter; stroke-linecap: square"/>
   </g>
   <g id="patch_5">
    <path d="M 57.6 307.584 
L 414.72 307.584 
" style="fill: none; stroke: #000000; stroke-width: 0.8; stroke-linejoin: miter; stroke-linecap: square"/>
   </g>
   <g id="patch_6">
    <path d="M 57.6 41.472 
L 414.72 41.472 
" style="fill: none; stroke: #000000; stroke-width: 0.8; stroke-linejoin: miter; stroke-linecap: square"/>
   </g>
  </g>
 </g>
 <defs>
  <clipPath id="pabab33031f">
   <rect x="57.6" y="41.472" width="357.12" height="266.112"/>
  </clipPath>
 </defs>
</svg>
