<?xml version="1.0" encoding="utf-8" standalone="no"?>
<!DOCTYPE svg PUBLIC "-//W3C//DTD SVG 1.1//EN"
  "http://www.w3.org/Graphics/SVG/1.1/DTD/svg11.dtd">
<svg xmlns:xlink="http://www.w3.org/1999/xlink" width="460.8pt" height="345.6pt" viewBox="0 0 460.8 345.6" xmlns="http://www.w3.org/2000/svg" version="1.1">
 <metadata>
  <rdf:RDF xmlns:dc="http://purl.org/dc/elements/1.1/" xmlns:cc="http://creativecommons.org/ns#" xmlns:rdf="http://www.w3.org/1999/02/22-rdf-syntax-ns#">
   <cc:Work>
    <dc:type rdf:resource="http://purl.org/dc/dcmitype/StillImage"/>
    <dc:date>2024-04-23T11:13:05.204109</dc:date>
    <dc:format>image/svg+xml</dc:format>
    <dc:creator>
     <cc:Agent>
      <dc:title>Matplotlib v3.8.3, https://matplotlib.org/</dc:title>
     </cc:Agent>
    </dc:creator>
   </cc:Work>
  </rdf:RDF>
 </metadata>
 <defs>
  <style type="text/css">*{stroke-linejoin: round; stroke-linecap: butt}</style>
 </defs>
 <g id="figure_1">
  <g id="patch_1">
   <path d="M 0 345.6 
L 460.8 345.6 
L 460.8 0 
L 0 0 
z
" style="fill: #ffffff"/>
  </g>
  <g id="axes_1">
   <g id="patch_2">
    <path d="M 57.6 307.584 
L 414.72 307.584 
L 414.72 41.472 
L 57.6 41.472 
z
" style="fill: #ffffff"/>
   </g>
   <g id="PolyCollection_1">
    <defs>
     <path id="me5abc82e02" d="M 73.832727 -171.072 
L 73.832727 -171.072 
L 74.150083 -179.240245 
L 74.467438 -179.46182 
L 74.784793 -179.675898 
L 75.102149 -179.883509 
L 75.419504 -180.083754 
L 75.73686 -180.277769 
L 76.054215 -180.467847 
L 76.37157 -180.650205 
L 76.688926 -180.828408 
L 77.006281 -181.009206 
L 77.323636 -181.190748 
L 77.640992 -181.378609 
L 77.958347 -181.572637 
L 78.275702 -181.763125 
L 78.593058 -181.943503 
L 78.910413 -182.114079 
L 79.227769 -182.271605 
L 79.545124 -182.421848 
L 79.862479 -182.56991 
L 80.179835 -182.707084 
L 80.49719 -182.833878 
L 80.814545 -182.958537 
L 81.131901 -183.076123 
L 81.449256 -183.190022 
L 81.766612 -183.304821 
L 82.083967 -183.4267 
L 82.401322 -183.561161 
L 82.718678 -183.714103 
L 83.036033 -183.875195 
L 83.353388 -184.045397 
L 83.670744 -184.21852 
L 83.988099 -184.406676 
L 84.305455 -184.569462 
L 84.62281 -184.715403 
L 84.940165 -184.845686 
L 85.257521 -184.962795 
L 85.574876 -185.07219 
L 85.892231 -185.164133 
L 86.209587 -185.237944 
L 86.526942 -185.298881 
L 86.844298 -185.35052 
L 87.161653 -185.387479 
L 87.479008 -185.412087 
L 87.796364 -185.428958 
L 88.113719 -185.445661 
L 88.431074 -185.460359 
L 88.74843 -185.483291 
L 89.065785 -185.519786 
L 89.38314 -185.561902 
L 89.700496 -185.606402 
L 90.017851 -185.652045 
L 90.335207 -185.69678 
L 90.652562 -185.738767 
L 90.969917 -185.785344 
L 91.287273 -185.836176 
L 91.604628 -185.896182 
L 91.921983 -185.964953 
L 92.239339 -186.046043 
L 92.556694 -186.143075 
L 92.87405 -186.264075 
L 93.191405 -186.405432 
L 93.50876 -186.566609 
L 93.826116 -186.757023 
L 94.143471 -186.976667 
L 94.460826 -187.222981 
L 94.778182 -187.484752 
L 95.095537 -187.77015 
L 95.412893 -188.073585 
L 95.730248 -188.394223 
L 96.047603 -188.726118 
L 96.364959 -189.065766 
L 96.682314 -189.416974 
L 96.999669 -189.77437 
L 97.317025 -190.127573 
L 97.63438 -190.476139 
L 97.951736 -190.807161 
L 98.269091 -191.12015 
L 98.586446 -191.429535 
L 98.903802 -191.737978 
L 99.221157 -192.040122 
L 99.538512 -192.339021 
L 99.855868 -192.625294 
L 100.173223 -192.894815 
L 100.490579 -193.166022 
L 100.807934 -193.441066 
L 101.125289 -193.71396 
L 101.442645 -193.995428 
L 101.76 -194.282999 
L 102.077355 -194.573272 
L 102.394711 -194.859299 
L 102.712066 -195.133928 
L 103.029421 -195.384258 
L 103.346777 -195.625217 
L 103.664132 -195.857142 
L 103.981488 -196.087344 
L 104.298843 -196.290401 
L 104.616198 -196.468549 
L 104.933554 -196.614664 
L 105.250909 -196.728877 
L 105.568264 -196.806476 
L 105.88562 -196.852682 
L 106.202975 -196.891489 
L 106.520331 -196.933807 
L 106.837686 -196.972731 
L 107.155041 -197.00078 
L 107.472397 -197.028028 
L 107.789752 -197.058791 
L 108.107107 -197.090515 
L 108.424463 -197.106568 
L 108.741818 -197.11549 
L 109.059174 -197.103455 
L 109.376529 -197.060616 
L 109.693884 -197.0007 
L 110.01124 -196.937525 
L 110.328595 -196.872169 
L 110.64595 -196.821053 
L 110.963306 -196.793159 
L 111.280661 -196.783358 
L 111.598017 -196.792989 
L 111.915372 -196.817182 
L 112.232727 -196.8592 
L 112.550083 -196.917465 
L 112.867438 -196.97877 
L 113.184793 -197.03814 
L 113.502149 -197.100016 
L 113.819504 -197.164599 
L 114.13686 -197.212975 
L 114.454215 -197.240319 
L 114.77157 -197.252918 
L 115.088926 -197.255575 
L 115.406281 -197.238211 
L 115.723636 -197.206085 
L 116.040992 -197.150331 
L 116.358347 -197.07744 
L 116.675702 -196.992054 
L 116.993058 -196.892526 
L 117.310413 -196.77761 
L 117.627769 -196.648582 
L 117.945124 -196.505803 
L 118.262479 -196.355513 
L 118.579835 -196.197436 
L 118.89719 -196.022587 
L 119.214545 -195.837591 
L 119.531901 -195.652926 
L 119.849256 -195.473098 
L 120.166612 -195.309984 
L 120.483967 -195.159123 
L 120.801322 -195.004472 
L 121.118678 -194.851223 
L 121.436033 -194.696482 
L 121.753388 -194.53781 
L 122.070744 -194.382059 
L 122.388099 -194.223859 
L 122.705455 -194.054633 
L 123.02281 -193.875404 
L 123.340165 -193.696386 
L 123.657521 -193.517292 
L 123.974876 -193.337453 
L 124.292231 -193.162873 
L 124.609587 -193.010533 
L 124.926942 -192.875715 
L 125.244298 -192.760802 
L 125.561653 -192.665694 
L 125.879008 -192.598926 
L 126.196364 -192.547649 
L 126.513719 -192.496647 
L 126.831074 -192.432652 
L 127.14843 -192.361366 
L 127.465785 -192.284482 
L 127.78314 -192.207303 
L 128.100496 -192.130794 
L 128.417851 -192.055943 
L 128.735207 -191.994905 
L 129.052562 -191.948678 
L 129.369917 -191.922241 
L 129.687273 -191.922073 
L 130.004628 -191.94791 
L 130.321983 -191.985811 
L 130.639339 -192.041846 
L 130.956694 -192.09033 
L 131.27405 -192.126207 
L 131.591405 -192.141854 
L 131.90876 -192.146563 
L 132.226116 -192.134762 
L 132.543471 -192.100144 
L 132.860826 -192.041143 
L 133.178182 -191.976581 
L 133.495537 -191.894517 
L 133.812893 -191.793268 
L 134.130248 -191.673896 
L 134.447603 -191.54243 
L 134.764959 -191.397533 
L 135.082314 -191.243705 
L 135.399669 -191.079899 
L 135.717025 -190.904508 
L 136.03438 -190.710478 
L 136.351736 -190.521018 
L 136.669091 -190.336416 
L 136.986446 -190.153297 
L 137.303802 -189.976598 
L 137.621157 -189.812236 
L 137.938512 -189.659845 
L 138.255868 -189.522745 
L 138.573223 -189.397755 
L 138.890579 -189.286861 
L 139.207934 -189.191305 
L 139.525289 -189.106205 
L 139.842645 -189.035435 
L 140.16 -188.975643 
L 140.477355 -188.924204 
L 140.794711 -188.889718 
L 141.112066 -188.893147 
L 141.429421 -188.926375 
L 141.746777 -188.988337 
L 142.064132 -189.068858 
L 142.381488 -189.149309 
L 142.698843 -189.236985 
L 143.016198 -189.346554 
L 143.333554 -189.476288 
L 143.650909 -189.603141 
L 143.968264 -189.724713 
L 144.28562 -189.843469 
L 144.602975 -189.942389 
L 144.920331 -190.020851 
L 145.237686 -190.093909 
L 145.555041 -190.172661 
L 145.872397 -190.260328 
L 146.189752 -190.348448 
L 146.507107 -190.439552 
L 146.824463 -190.534921 
L 147.141818 -190.641867 
L 147.459174 -190.755842 
L 147.776529 -190.893047 
L 148.093884 -191.044109 
L 148.41124 -191.191459 
L 148.728595 -191.338387 
L 149.04595 -191.486375 
L 149.363306 -191.61761 
L 149.680661 -191.734293 
L 149.998017 -191.835458 
L 150.315372 -191.914012 
L 150.632727 -191.978527 
L 150.950083 -192.023781 
L 151.267438 -192.067884 
L 151.584793 -192.110253 
L 151.902149 -192.153018 
L 152.219504 -192.186107 
L 152.53686 -192.219499 
L 152.854215 -192.253595 
L 153.17157 -192.285717 
L 153.488926 -192.303346 
L 153.806281 -192.31665 
L 154.123636 -192.329386 
L 154.440992 -192.332833 
L 154.758347 -192.337284 
L 155.075702 -192.359699 
L 155.393058 -192.379595 
L 155.710413 -192.402119 
L 156.027769 -192.43317 
L 156.345124 -192.484492 
L 156.662479 -192.551246 
L 156.979835 -192.626993 
L 157.29719 -192.708848 
L 157.614545 -192.791395 
L 157.931901 -192.869105 
L 158.249256 -192.94403 
L 158.566612 -193.009702 
L 158.883967 -193.07468 
L 159.201322 -193.139504 
L 159.518678 -193.211641 
L 159.836033 -193.305366 
L 160.153388 -193.405685 
L 160.470744 -193.520648 
L 160.788099 -193.633522 
L 161.105455 -193.739953 
L 161.42281 -193.811136 
L 161.740165 -193.84758 
L 162.057521 -193.853391 
L 162.374876 -193.832173 
L 162.692231 -193.80054 
L 163.009587 -193.745082 
L 163.326942 -193.658083 
L 163.644298 -193.545907 
L 163.961653 -193.443287 
L 164.279008 -193.351842 
L 164.596364 -193.262871 
L 164.913719 -193.202604 
L 165.231074 -193.160834 
L 165.54843 -193.11819 
L 165.865785 -193.065351 
L 166.18314 -192.992461 
L 166.500496 -192.913435 
L 166.817851 -192.838048 
L 167.135207 -192.759351 
L 167.452562 -192.674256 
L 167.769917 -192.593186 
L 168.087273 -192.501938 
L 168.404628 -192.398374 
L 168.721983 -192.300172 
L 169.039339 -192.192774 
L 169.356694 -192.077914 
L 169.67405 -191.975893 
L 169.991405 -191.881627 
L 170.30876 -191.796566 
L 170.626116 -191.72411 
L 170.943471 -191.65366 
L 171.260826 -191.586403 
L 171.578182 -191.507285 
L 171.895537 -191.416224 
L 172.212893 -191.319153 
L 172.530248 -191.220042 
L 172.847603 -191.111038 
L 173.164959 -190.998354 
L 173.482314 -190.888047 
L 173.799669 -190.784127 
L 174.117025 -190.687852 
L 174.43438 -190.587996 
L 174.751736 -190.494721 
L 175.069091 -190.398443 
L 175.386446 -190.283286 
L 175.703802 -190.1811 
L 176.021157 -190.082391 
L 176.338512 -189.992533 
L 176.655868 -189.91232 
L 176.973223 -189.826318 
L 177.290579 -189.7261 
L 177.607934 -189.627128 
L 177.925289 -189.535134 
L 178.242645 -189.454674 
L 178.56 -189.376662 
L 178.877355 -189.310207 
L 179.194711 -189.246151 
L 179.512066 -189.192287 
L 179.829421 -189.133146 
L 180.146777 -189.062593 
L 180.464132 -188.992912 
L 180.781488 -188.915328 
L 181.098843 -188.82179 
L 181.416198 -188.725807 
L 181.733554 -188.648017 
L 182.050909 -188.590431 
L 182.368264 -188.54104 
L 182.68562 -188.519719 
L 183.002975 -188.508359 
L 183.320331 -188.533097 
L 183.637686 -188.600339 
L 183.955041 -188.696105 
L 184.272397 -188.817227 
L 184.589752 -188.950711 
L 184.907107 -189.106018 
L 185.224463 -189.258155 
L 185.541818 -189.392917 
L 185.859174 -189.549256 
L 186.176529 -189.719007 
L 186.493884 -189.884812 
L 186.81124 -190.036138 
L 187.128595 -190.189864 
L 187.44595 -190.368868 
L 187.763306 -190.569645 
L 188.080661 -190.755336 
L 188.398017 -190.950122 
L 188.715372 -191.155923 
L 189.032727 -191.364581 
L 189.350083 -191.60354 
L 189.667438 -191.858574 
L 189.984793 -192.096958 
L 190.302149 -192.335622 
L 190.619504 -192.560408 
L 190.93686 -192.7897 
L 191.254215 -193.010087 
L 191.57157 -193.241042 
L 191.888926 -193.485603 
L 192.206281 -193.759746 
L 192.523636 -194.030224 
L 192.840992 -194.321208 
L 193.158347 -194.637243 
L 193.475702 -194.969433 
L 193.793058 -195.306372 
L 194.110413 -195.650372 
L 194.427769 -195.981168 
L 194.745124 -196.327334 
L 195.062479 -196.69236 
L 195.379835 -197.04885 
L 195.69719 -197.43354 
L 196.014545 -197.813034 
L 196.331901 -198.215707 
L 196.649256 -198.595244 
L 196.966612 -198.940491 
L 197.283967 -199.280843 
L 197.601322 -199.65978 
L 197.918678 -200.042363 
L 198.236033 -200.421962 
L 198.553388 -200.800337 
L 198.870744 -201.199554 
L 199.188099 -201.563512 
L 199.505455 -201.95592 
L 199.82281 -202.26974 
L 200.140165 -202.638777 
L 200.457521 -203.044405 
L 200.774876 -203.478399 
L 201.092231 -203.891622 
L 201.409587 -204.275787 
L 201.726942 -204.651511 
L 202.044298 -205.05267 
L 202.361653 -205.437921 
L 202.679008 -205.906513 
L 202.996364 -206.360527 
L 203.313719 -206.893276 
L 203.631074 -207.461041 
L 203.94843 -207.984707 
L 204.265785 -208.47507 
L 204.58314 -208.955149 
L 204.900496 -209.480292 
L 205.217851 -210.034562 
L 205.535207 -210.607349 
L 205.852562 -211.165913 
L 206.169917 -211.75931 
L 206.487273 -212.371507 
L 206.804628 -213.036139 
L 207.121983 -213.848552 
L 207.439339 -214.691368 
L 207.756694 -215.539383 
L 208.07405 -216.474973 
L 208.391405 -217.43036 
L 208.70876 -218.482036 
L 209.026116 -219.6202 
L 209.343471 -220.777911 
L 209.660826 -222.002649 
L 209.978182 -223.237847 
L 210.295537 -224.52102 
L 210.612893 -225.880827 
L 210.930248 -227.348506 
L 211.247603 -228.886849 
L 211.564959 -230.469932 
L 211.882314 -232.030784 
L 212.199669 -233.670196 
L 212.517025 -235.351278 
L 212.83438 -237.126355 
L 213.151736 -238.911608 
L 213.469091 -240.700767 
L 213.786446 -242.516124 
L 214.103802 -244.335425 
L 214.421157 -246.157496 
L 214.738512 -247.986261 
L 215.055868 -249.836609 
L 215.373223 -251.687648 
L 215.690579 -253.536904 
L 216.007934 -255.360506 
L 216.325289 -257.274359 
L 216.642645 -259.244648 
L 216.96 -261.268188 
L 217.277355 -263.344798 
L 217.594711 -265.472396 
L 217.912066 -267.561411 
L 218.229421 -269.639679 
L 218.546777 -271.66146 
L 218.864132 -273.617576 
L 219.181488 -275.472593 
L 219.498843 -277.307987 
L 219.816198 -279.001899 
L 220.133554 -280.751294 
L 220.450909 -282.402222 
L 220.768264 -283.920956 
L 221.08562 -285.227546 
L 221.402975 -286.416964 
L 221.720331 -287.586528 
L 222.037686 -288.72047 
L 222.355041 -289.720688 
L 222.672397 -290.598468 
L 222.989752 -291.258097 
L 223.307107 -291.771126 
L 223.624463 -291.980878 
L 223.941818 -292.032 
L 224.259174 -291.945592 
L 224.576529 -291.814663 
L 224.893884 -291.555645 
L 225.21124 -291.012471 
L 225.528595 -290.285526 
L 225.84595 -289.373908 
L 226.163306 -288.405019 
L 226.480661 -287.298965 
L 226.798017 -286.006885 
L 227.115372 -284.540634 
L 227.432727 -282.717813 
L 227.750083 -280.741356 
L 228.067438 -278.671352 
L 228.384793 -276.336147 
L 228.702149 -273.886603 
L 229.019504 -271.107579 
L 229.33686 -268.086188 
L 229.654215 -264.901452 
L 229.97157 -261.494577 
L 230.288926 -257.959609 
L 230.606281 -254.341005 
L 230.923636 -250.577151 
L 231.240992 -246.580159 
L 231.558347 -242.322417 
L 231.875702 -237.931586 
L 232.193058 -233.500972 
L 232.510413 -228.967379 
L 232.827769 -224.252108 
L 233.145124 -219.397513 
L 233.462479 -214.43062 
L 233.779835 -209.380569 
L 234.09719 -204.237156 
L 234.414545 -199.079732 
L 234.731901 -193.901554 
L 235.049256 -188.776015 
L 235.366612 -183.648816 
L 235.683967 -178.540771 
L 236.001322 -173.528348 
L 236.318678 -168.615652 
L 236.636033 -163.603229 
L 236.953388 -158.495184 
L 237.270744 -153.367985 
L 237.588099 -148.242446 
L 237.905455 -143.064268 
L 238.22281 -137.906844 
L 238.540165 -132.763431 
L 238.857521 -127.71338 
L 239.174876 -122.746487 
L 239.492231 -117.891892 
L 239.809587 -113.176621 
L 240.126942 -108.643028 
L 240.444298 -104.212414 
L 240.761653 -99.821583 
L 241.079008 -95.563841 
L 241.396364 -91.566849 
L 241.713719 -87.802995 
L 242.031074 -84.184391 
L 242.34843 -80.649423 
L 242.665785 -77.242548 
L 242.98314 -74.057812 
L 243.300496 -71.036421 
L 243.617851 -68.257397 
L 243.935207 -65.807853 
L 244.252562 -63.472648 
L 244.569917 -61.402644 
L 244.887273 -59.426187 
L 245.204628 -57.603366 
L 245.521983 -56.137115 
L 245.839339 -54.845035 
L 246.156694 -53.738981 
L 246.47405 -52.770092 
L 246.791405 -51.858474 
L 247.10876 -51.131529 
L 247.426116 -50.588355 
L 247.743471 -50.329337 
L 248.060826 -50.198408 
L 248.378182 -50.112 
L 248.695537 -50.163122 
L 249.012893 -50.372874 
L 249.330248 -50.885903 
L 249.647603 -51.545532 
L 249.964959 -52.423312 
L 250.282314 -53.42353 
L 250.599669 -54.557472 
L 250.917025 -55.727036 
L 251.23438 -56.916454 
L 251.551736 -58.223044 
L 251.869091 -59.741778 
L 252.186446 -61.392706 
L 252.503802 -63.142101 
L 252.821157 -64.836013 
L 253.138512 -66.671407 
L 253.455868 -68.526424 
L 253.773223 -70.48254 
L 254.090579 -72.504321 
L 254.407934 -74.582589 
L 254.725289 -76.671604 
L 255.042645 -78.799202 
L 255.36 -80.875812 
L 255.677355 -82.899352 
L 255.994711 -84.869641 
L 256.312066 -86.783494 
L 256.629421 -88.607096 
L 256.946777 -90.456352 
L 257.264132 -92.307391 
L 257.581488 -94.157739 
L 257.898843 -95.986504 
L 258.216198 -97.808575 
L 258.533554 -99.627876 
L 258.850909 -101.443233 
L 259.168264 -103.232392 
L 259.48562 -105.017645 
L 259.802975 -106.792722 
L 260.120331 -108.473804 
L 260.437686 -110.113216 
L 260.755041 -111.674068 
L 261.072397 -113.257151 
L 261.389752 -114.795494 
L 261.707107 -116.263173 
L 262.024463 -117.62298 
L 262.341818 -118.906153 
L 262.659174 -120.141351 
L 262.976529 -121.366089 
L 263.293884 -122.5238 
L 263.61124 -123.661964 
L 263.928595 -124.71364 
L 264.24595 -125.669027 
L 264.563306 -126.604617 
L 264.880661 -127.452632 
L 265.198017 -128.295448 
L 265.515372 -129.107861 
L 265.832727 -129.772493 
L 266.150083 -130.38469 
L 266.467438 -130.978087 
L 266.784793 -131.536651 
L 267.102149 -132.109438 
L 267.419504 -132.663708 
L 267.73686 -133.188851 
L 268.054215 -133.66893 
L 268.37157 -134.159293 
L 268.688926 -134.682959 
L 269.006281 -135.250724 
L 269.323636 -135.783473 
L 269.640992 -136.237487 
L 269.958347 -136.706079 
L 270.275702 -137.09133 
L 270.593058 -137.492489 
L 270.910413 -137.868213 
L 271.227769 -138.252378 
L 271.545124 -138.665601 
L 271.862479 -139.099595 
L 272.179835 -139.505223 
L 272.49719 -139.87426 
L 272.814545 -140.18808 
L 273.131901 -140.580488 
L 273.449256 -140.944446 
L 273.766612 -141.343663 
L 274.083967 -141.722038 
L 274.401322 -142.101637 
L 274.718678 -142.48422 
L 275.036033 -142.863157 
L 275.353388 -143.203509 
L 275.670744 -143.548756 
L 275.988099 -143.928293 
L 276.305455 -144.330966 
L 276.62281 -144.71046 
L 276.940165 -145.09515 
L 277.257521 -145.45164 
L 277.574876 -145.816666 
L 277.892231 -146.162832 
L 278.209587 -146.493628 
L 278.526942 -146.837628 
L 278.844298 -147.174567 
L 279.161653 -147.506757 
L 279.479008 -147.822792 
L 279.796364 -148.113776 
L 280.113719 -148.384254 
L 280.431074 -148.658397 
L 280.74843 -148.902958 
L 281.065785 -149.133913 
L 281.38314 -149.3543 
L 281.700496 -149.583592 
L 282.017851 -149.808378 
L 282.335207 -150.047042 
L 282.652562 -150.285426 
L 282.969917 -150.54046 
L 283.287273 -150.779419 
L 283.604628 -150.988077 
L 283.921983 -151.193878 
L 284.239339 -151.388664 
L 284.556694 -151.574355 
L 284.87405 -151.775132 
L 285.191405 -151.954136 
L 285.50876 -152.107862 
L 285.826116 -152.259188 
L 286.143471 -152.424993 
L 286.460826 -152.594744 
L 286.778182 -152.751083 
L 287.095537 -152.885845 
L 287.412893 -153.037982 
L 287.730248 -153.193289 
L 288.047603 -153.326773 
L 288.364959 -153.447895 
L 288.682314 -153.543661 
L 288.999669 -153.610903 
L 289.317025 -153.635641 
L 289.63438 -153.624281 
L 289.951736 -153.60296 
L 290.269091 -153.553569 
L 290.586446 -153.495983 
L 290.903802 -153.418193 
L 291.221157 -153.32221 
L 291.538512 -153.228672 
L 291.855868 -153.151088 
L 292.173223 -153.081407 
L 292.490579 -153.010854 
L 292.807934 -152.951713 
L 293.125289 -152.897849 
L 293.442645 -152.833793 
L 293.76 -152.767338 
L 294.077355 -152.689326 
L 294.394711 -152.608866 
L 294.712066 -152.516872 
L 295.029421 -152.4179 
L 295.346777 -152.317682 
L 295.664132 -152.23168 
L 295.981488 -152.151467 
L 296.298843 -152.061609 
L 296.616198 -151.9629 
L 296.933554 -151.860714 
L 297.250909 -151.745557 
L 297.568264 -151.649279 
L 297.88562 -151.556004 
L 298.202975 -151.456148 
L 298.520331 -151.359873 
L 298.837686 -151.255953 
L 299.155041 -151.145646 
L 299.472397 -151.032962 
L 299.789752 -150.923958 
L 300.107107 -150.824847 
L 300.424463 -150.727776 
L 300.741818 -150.636715 
L 301.059174 -150.557597 
L 301.376529 -150.49034 
L 301.693884 -150.41989 
L 302.01124 -150.347434 
L 302.328595 -150.262373 
L 302.64595 -150.168107 
L 302.963306 -150.066086 
L 303.280661 -149.951226 
L 303.598017 -149.843828 
L 303.915372 -149.745626 
L 304.232727 -149.642062 
L 304.550083 -149.550814 
L 304.867438 -149.469744 
L 305.184793 -149.384649 
L 305.502149 -149.305952 
L 305.819504 -149.230565 
L 306.13686 -149.151539 
L 306.454215 -149.078649 
L 306.77157 -149.02581 
L 307.088926 -148.983166 
L 307.406281 -148.941396 
L 307.723636 -148.881129 
L 308.040992 -148.792158 
L 308.358347 -148.700713 
L 308.675702 -148.598093 
L 308.993058 -148.485917 
L 309.310413 -148.398918 
L 309.627769 -148.34346 
L 309.945124 -148.311827 
L 310.262479 -148.290609 
L 310.579835 -148.29642 
L 310.89719 -148.332864 
L 311.214545 -148.404047 
L 311.531901 -148.510478 
L 311.849256 -148.623352 
L 312.166612 -148.738315 
L 312.483967 -148.838634 
L 312.801322 -148.932359 
L 313.118678 -149.004496 
L 313.436033 -149.06932 
L 313.753388 -149.134298 
L 314.070744 -149.19997 
L 314.388099 -149.274895 
L 314.705455 -149.352605 
L 315.02281 -149.435152 
L 315.340165 -149.517007 
L 315.657521 -149.592754 
L 315.974876 -149.659508 
L 316.292231 -149.71083 
L 316.609587 -149.741881 
L 316.926942 -149.764405 
L 317.244298 -149.784301 
L 317.561653 -149.806716 
L 317.879008 -149.811167 
L 318.196364 -149.814614 
L 318.513719 -149.82735 
L 318.831074 -149.840654 
L 319.14843 -149.858283 
L 319.465785 -149.890405 
L 319.78314 -149.924501 
L 320.100496 -149.957893 
L 320.417851 -149.990982 
L 320.735207 -150.033747 
L 321.052562 -150.076116 
L 321.369917 -150.120219 
L 321.687273 -150.165473 
L 322.004628 -150.229988 
L 322.321983 -150.308542 
L 322.639339 -150.409707 
L 322.956694 -150.52639 
L 323.27405 -150.657625 
L 323.591405 -150.805613 
L 323.90876 -150.952541 
L 324.226116 -151.099891 
L 324.543471 -151.250953 
L 324.860826 -151.388158 
L 325.178182 -151.502133 
L 325.495537 -151.609079 
L 325.812893 -151.704448 
L 326.130248 -151.795552 
L 326.447603 -151.883672 
L 326.764959 -151.971339 
L 327.082314 -152.050091 
L 327.399669 -152.123149 
L 327.717025 -152.201611 
L 328.03438 -152.300531 
L 328.351736 -152.419287 
L 328.669091 -152.540859 
L 328.986446 -152.667712 
L 329.303802 -152.797446 
L 329.621157 -152.907015 
L 329.938512 -152.994691 
L 330.255868 -153.075142 
L 330.573223 -153.155663 
L 330.890579 -153.217625 
L 331.207934 -153.250853 
L 331.525289 -153.254282 
L 331.842645 -153.219796 
L 332.16 -153.168357 
L 332.477355 -153.108565 
L 332.794711 -153.037795 
L 333.112066 -152.952695 
L 333.429421 -152.857139 
L 333.746777 -152.746245 
L 334.064132 -152.621255 
L 334.381488 -152.484155 
L 334.698843 -152.331764 
L 335.016198 -152.167402 
L 335.333554 -151.990703 
L 335.650909 -151.807584 
L 335.968264 -151.622982 
L 336.28562 -151.433522 
L 336.602975 -151.239492 
L 336.920331 -151.064101 
L 337.237686 -150.900295 
L 337.555041 -150.746467 
L 337.872397 -150.60157 
L 338.189752 -150.470104 
L 338.507107 -150.350732 
L 338.824463 -150.249483 
L 339.141818 -150.167419 
L 339.459174 -150.102857 
L 339.776529 -150.043856 
L 340.093884 -150.009238 
L 340.41124 -149.997437 
L 340.728595 -150.002146 
L 341.04595 -150.017793 
L 341.363306 -150.05367 
L 341.680661 -150.102154 
L 341.998017 -150.158189 
L 342.315372 -150.19609 
L 342.632727 -150.221927 
L 342.950083 -150.221759 
L 343.267438 -150.195322 
L 343.584793 -150.149095 
L 343.902149 -150.088057 
L 344.219504 -150.013206 
L 344.53686 -149.936697 
L 344.854215 -149.859518 
L 345.17157 -149.782634 
L 345.488926 -149.711348 
L 345.806281 -149.647353 
L 346.123636 -149.596351 
L 346.440992 -149.545074 
L 346.758347 -149.478306 
L 347.075702 -149.383198 
L 347.393058 -149.268285 
L 347.710413 -149.133467 
L 348.027769 -148.981127 
L 348.345124 -148.806547 
L 348.662479 -148.626708 
L 348.979835 -148.447614 
L 349.29719 -148.268596 
L 349.614545 -148.089367 
L 349.931901 -147.920141 
L 350.249256 -147.761941 
L 350.566612 -147.60619 
L 350.883967 -147.447518 
L 351.201322 -147.292777 
L 351.518678 -147.139528 
L 351.836033 -146.984877 
L 352.153388 -146.834016 
L 352.470744 -146.670902 
L 352.788099 -146.491074 
L 353.105455 -146.306409 
L 353.42281 -146.121413 
L 353.740165 -145.946564 
L 354.057521 -145.788487 
L 354.374876 -145.638197 
L 354.692231 -145.495418 
L 355.009587 -145.36639 
L 355.326942 -145.251474 
L 355.644298 -145.151946 
L 355.961653 -145.06656 
L 356.279008 -144.993669 
L 356.596364 -144.937915 
L 356.913719 -144.905789 
L 357.231074 -144.888425 
L 357.54843 -144.891082 
L 357.865785 -144.903681 
L 358.18314 -144.931025 
L 358.500496 -144.979401 
L 358.817851 -145.043984 
L 359.135207 -145.10586 
L 359.452562 -145.16523 
L 359.769917 -145.226535 
L 360.087273 -145.2848 
L 360.404628 -145.326818 
L 360.721983 -145.351011 
L 361.039339 -145.360642 
L 361.356694 -145.350841 
L 361.67405 -145.322947 
L 361.991405 -145.271831 
L 362.30876 -145.206475 
L 362.626116 -145.1433 
L 362.943471 -145.083384 
L 363.260826 -145.040545 
L 363.578182 -145.02851 
L 363.895537 -145.037432 
L 364.212893 -145.053485 
L 364.530248 -145.085209 
L 364.847603 -145.115972 
L 365.164959 -145.14322 
L 365.482314 -145.171269 
L 365.799669 -145.210193 
L 366.117025 -145.252511 
L 366.43438 -145.291318 
L 366.751736 -145.337524 
L 367.069091 -145.415123 
L 367.386446 -145.529336 
L 367.703802 -145.675451 
L 368.021157 -145.853599 
L 368.338512 -146.056656 
L 368.655868 -146.286858 
L 368.973223 -146.518783 
L 369.290579 -146.759742 
L 369.607934 -147.010072 
L 369.925289 -147.284701 
L 370.242645 -147.570728 
L 370.56 -147.861001 
L 370.877355 -148.148572 
L 371.194711 -148.43004 
L 371.512066 -148.702934 
L 371.829421 -148.977978 
L 372.146777 -149.249185 
L 372.464132 -149.518706 
L 372.781488 -149.804979 
L 373.098843 -150.103878 
L 373.416198 -150.406022 
L 373.733554 -150.714465 
L 374.050909 -151.02385 
L 374.368264 -151.336839 
L 374.68562 -151.667861 
L 375.002975 -152.016427 
L 375.320331 -152.36963 
L 375.637686 -152.727026 
L 375.955041 -153.078234 
L 376.272397 -153.417882 
L 376.589752 -153.749777 
L 376.907107 -154.070415 
L 377.224463 -154.37385 
L 377.541818 -154.659248 
L 377.859174 -154.921019 
L 378.176529 -155.167333 
L 378.493884 -155.391555 
L 378.81124 -155.590973 
L 379.128595 -155.760884 
L 379.44595 -155.910628 
L 379.763306 -156.039588 
L 380.080661 -156.144076 
L 380.398017 -156.232037 
L 380.715372 -156.307017 
L 381.032727 -156.372492 
L 381.350083 -156.427972 
L 381.667438 -156.4783 
L 381.984793 -156.52306 
L 382.302149 -156.569512 
L 382.619504 -156.615738 
L 382.93686 -156.659608 
L 383.254215 -156.699802 
L 383.57157 -156.733005 
L 383.888926 -156.751195 
L 384.206281 -156.759624 
L 384.523636 -156.768451 
L 384.840992 -156.77576 
L 385.158347 -156.789043 
L 385.475702 -156.812835 
L 385.793058 -156.849386 
L 386.110413 -156.893234 
L 386.427769 -156.947877 
L 386.745124 -157.018496 
L 387.062479 -157.104331 
L 387.379835 -157.195565 
L 387.69719 -157.29758 
L 388.014545 -157.412781 
L 388.331901 -157.542276 
L 388.649256 -157.691351 
L 388.966612 -157.864475 
L 389.283967 -158.034676 
L 389.601322 -158.195768 
L 389.918678 -158.34871 
L 390.236033 -158.483172 
L 390.553388 -158.605051 
L 390.870744 -158.719849 
L 391.188099 -158.833748 
L 391.505455 -158.951334 
L 391.82281 -159.075993 
L 392.140165 -159.202788 
L 392.457521 -159.339961 
L 392.774876 -159.488023 
L 393.092231 -159.638266 
L 393.409587 -159.795793 
L 393.726942 -159.966368 
L 394.044298 -160.146746 
L 394.361653 -160.337234 
L 394.679008 -160.531262 
L 394.996364 -160.719124 
L 395.313719 -160.900666 
L 395.631074 -161.081464 
L 395.94843 -161.259666 
L 396.265785 -161.442025 
L 396.58314 -161.632103 
L 396.900496 -161.826118 
L 397.217851 -162.026363 
L 397.535207 -162.233973 
L 397.852562 -162.448051 
L 398.169917 -162.669627 
L 398.487273 -171.072 
L 398.487273 -171.072 
L 398.487273 -171.072 
L 398.169917 -171.072 
L 397.852562 -171.072 
L 397.535207 -171.072 
L 397.217851 -171.072 
L 396.900496 -171.072 
L 396.58314 -171.072 
L 396.265785 -171.072 
L 395.94843 -171.072 
L 395.631074 -171.072 
L 395.313719 -171.072 
L 394.996364 -171.072 
L 394.679008 -171.072 
L 394.361653 -171.072 
L 394.044298 -171.072 
L 393.726942 -171.072 
L 393.409587 -171.072 
L 393.092231 -171.072 
L 392.774876 -171.072 
L 392.457521 -171.072 
L 392.140165 -171.072 
L 391.82281 -171.072 
L 391.505455 -171.072 
L 391.188099 -171.072 
L 390.870744 -171.072 
L 390.553388 -171.072 
L 390.236033 -171.072 
L 389.918678 -171.072 
L 389.601322 -171.072 
L 389.283967 -171.072 
L 388.966612 -171.072 
L 388.649256 -171.072 
L 388.331901 -171.072 
L 388.014545 -171.072 
L 387.69719 -171.072 
L 387.379835 -171.072 
L 387.062479 -171.072 
L 386.745124 -171.072 
L 386.427769 -171.072 
L 386.110413 -171.072 
L 385.793058 -171.072 
L 385.475702 -171.072 
L 385.158347 -171.072 
L 384.840992 -171.072 
L 384.523636 -171.072 
L 384.206281 -171.072 
L 383.888926 -171.072 
L 383.57157 -171.072 
L 383.254215 -171.072 
L 382.93686 -171.072 
L 382.619504 -171.072 
L 382.302149 -171.072 
L 381.984793 -171.072 
L 381.667438 -171.072 
L 381.350083 -171.072 
L 381.032727 -171.072 
L 380.715372 -171.072 
L 380.398017 -171.072 
L 380.080661 -171.072 
L 379.763306 -171.072 
L 379.44595 -171.072 
L 379.128595 -171.072 
L 378.81124 -171.072 
L 378.493884 -171.072 
L 378.176529 -171.072 
L 377.859174 -171.072 
L 377.541818 -171.072 
L 377.224463 -171.072 
L 376.907107 -171.072 
L 376.589752 -171.072 
L 376.272397 -171.072 
L 375.955041 -171.072 
L 375.637686 -171.072 
L 375.320331 -171.072 
L 375.002975 -171.072 
L 374.68562 -171.072 
L 374.368264 -171.072 
L 374.050909 -171.072 
L 373.733554 -171.072 
L 373.416198 -171.072 
L 373.098843 -171.072 
L 372.781488 -171.072 
L 372.464132 -171.072 
L 372.146777 -171.072 
L 371.829421 -171.072 
L 371.512066 -171.072 
L 371.194711 -171.072 
L 370.877355 -171.072 
L 370.56 -171.072 
L 370.242645 -171.072 
L 369.925289 -171.072 
L 369.607934 -171.072 
L 369.290579 -171.072 
L 368.973223 -171.072 
L 368.655868 -171.072 
L 368.338512 -171.072 
L 368.021157 -171.072 
L 367.703802 -171.072 
L 367.386446 -171.072 
L 367.069091 -171.072 
L 366.751736 -171.072 
L 366.43438 -171.072 
L 366.117025 -171.072 
L 365.799669 -171.072 
L 365.482314 -171.072 
L 365.164959 -171.072 
L 364.847603 -171.072 
L 364.530248 -171.072 
L 364.212893 -171.072 
L 363.895537 -171.072 
L 363.578182 -171.072 
L 363.260826 -171.072 
L 362.943471 -171.072 
L 362.626116 -171.072 
L 362.30876 -171.072 
L 361.991405 -171.072 
L 361.67405 -171.072 
L 361.356694 -171.072 
L 361.039339 -171.072 
L 360.721983 -171.072 
L 360.404628 -171.072 
L 360.087273 -171.072 
L 359.769917 -171.072 
L 359.452562 -171.072 
L 359.135207 -171.072 
L 358.817851 -171.072 
L 358.500496 -171.072 
L 358.18314 -171.072 
L 357.865785 -171.072 
L 357.54843 -171.072 
L 357.231074 -171.072 
L 356.913719 -171.072 
L 356.596364 -171.072 
L 356.279008 -171.072 
L 355.961653 -171.072 
L 355.644298 -171.072 
L 355.326942 -171.072 
L 355.009587 -171.072 
L 354.692231 -171.072 
L 354.374876 -171.072 
L 354.057521 -171.072 
L 353.740165 -171.072 
L 353.42281 -171.072 
L 353.105455 -171.072 
L 352.788099 -171.072 
L 352.470744 -171.072 
L 352.153388 -171.072 
L 351.836033 -171.072 
L 351.518678 -171.072 
L 351.201322 -171.072 
L 350.883967 -171.072 
L 350.566612 -171.072 
L 350.249256 -171.072 
L 349.931901 -171.072 
L 349.614545 -171.072 
L 349.29719 -171.072 
L 348.979835 -171.072 
L 348.662479 -171.072 
L 348.345124 -171.072 
L 348.027769 -171.072 
L 347.710413 -171.072 
L 347.393058 -171.072 
L 347.075702 -171.072 
L 346.758347 -171.072 
L 346.440992 -171.072 
L 346.123636 -171.072 
L 345.806281 -171.072 
L 345.488926 -171.072 
L 345.17157 -171.072 
L 344.854215 -171.072 
L 344.53686 -171.072 
L 344.219504 -171.072 
L 343.902149 -171.072 
L 343.584793 -171.072 
L 343.267438 -171.072 
L 342.950083 -171.072 
L 342.632727 -171.072 
L 342.315372 -171.072 
L 341.998017 -171.072 
L 341.680661 -171.072 
L 341.363306 -171.072 
L 341.04595 -171.072 
L 340.728595 -171.072 
L 340.41124 -171.072 
L 340.093884 -171.072 
L 339.776529 -171.072 
L 339.459174 -171.072 
L 339.141818 -171.072 
L 338.824463 -171.072 
L 338.507107 -171.072 
L 338.189752 -171.072 
L 337.872397 -171.072 
L 337.555041 -171.072 
L 337.237686 -171.072 
L 336.920331 -171.072 
L 336.602975 -171.072 
L 336.28562 -171.072 
L 335.968264 -171.072 
L 335.650909 -171.072 
L 335.333554 -171.072 
L 335.016198 -171.072 
L 334.698843 -171.072 
L 334.381488 -171.072 
L 334.064132 -171.072 
L 333.746777 -171.072 
L 333.429421 -171.072 
L 333.112066 -171.072 
L 332.794711 -171.072 
L 332.477355 -171.072 
L 332.16 -171.072 
L 331.842645 -171.072 
L 331.525289 -171.072 
L 331.207934 -171.072 
L 330.890579 -171.072 
L 330.573223 -171.072 
L 330.255868 -171.072 
L 329.938512 -171.072 
L 329.621157 -171.072 
L 329.303802 -171.072 
L 328.986446 -171.072 
L 328.669091 -171.072 
L 328.351736 -171.072 
L 328.03438 -171.072 
L 327.717025 -171.072 
L 327.399669 -171.072 
L 327.082314 -171.072 
L 326.764959 -171.072 
L 326.447603 -171.072 
L 326.130248 -171.072 
L 325.812893 -171.072 
L 325.495537 -171.072 
L 325.178182 -171.072 
L 324.860826 -171.072 
L 324.543471 -171.072 
L 324.226116 -171.072 
L 323.90876 -171.072 
L 323.591405 -171.072 
L 323.27405 -171.072 
L 322.956694 -171.072 
L 322.639339 -171.072 
L 322.321983 -171.072 
L 322.004628 -171.072 
L 321.687273 -171.072 
L 321.369917 -171.072 
L 321.052562 -171.072 
L 320.735207 -171.072 
L 320.417851 -171.072 
L 320.100496 -171.072 
L 319.78314 -171.072 
L 319.465785 -171.072 
L 319.14843 -171.072 
L 318.831074 -171.072 
L 318.513719 -171.072 
L 318.196364 -171.072 
L 317.879008 -171.072 
L 317.561653 -171.072 
L 317.244298 -171.072 
L 316.926942 -171.072 
L 316.609587 -171.072 
L 316.292231 -171.072 
L 315.974876 -171.072 
L 315.657521 -171.072 
L 315.340165 -171.072 
L 315.02281 -171.072 
L 314.705455 -171.072 
L 314.388099 -171.072 
L 314.070744 -171.072 
L 313.753388 -171.072 
L 313.436033 -171.072 
L 313.118678 -171.072 
L 312.801322 -171.072 
L 312.483967 -171.072 
L 312.166612 -171.072 
L 311.849256 -171.072 
L 311.531901 -171.072 
L 311.214545 -171.072 
L 310.89719 -171.072 
L 310.579835 -171.072 
L 310.262479 -171.072 
L 309.945124 -171.072 
L 309.627769 -171.072 
L 309.310413 -171.072 
L 308.993058 -171.072 
L 308.675702 -171.072 
L 308.358347 -171.072 
L 308.040992 -171.072 
L 307.723636 -171.072 
L 307.406281 -171.072 
L 307.088926 -171.072 
L 306.77157 -171.072 
L 306.454215 -171.072 
L 306.13686 -171.072 
L 305.819504 -171.072 
L 305.502149 -171.072 
L 305.184793 -171.072 
L 304.867438 -171.072 
L 304.550083 -171.072 
L 304.232727 -171.072 
L 303.915372 -171.072 
L 303.598017 -171.072 
L 303.280661 -171.072 
L 302.963306 -171.072 
L 302.64595 -171.072 
L 302.328595 -171.072 
L 302.01124 -171.072 
L 301.693884 -171.072 
L 301.376529 -171.072 
L 301.059174 -171.072 
L 300.741818 -171.072 
L 300.424463 -171.072 
L 300.107107 -171.072 
L 299.789752 -171.072 
L 299.472397 -171.072 
L 299.155041 -171.072 
L 298.837686 -171.072 
L 298.520331 -171.072 
L 298.202975 -171.072 
L 297.88562 -171.072 
L 297.568264 -171.072 
L 297.250909 -171.072 
L 296.933554 -171.072 
L 296.616198 -171.072 
L 296.298843 -171.072 
L 295.981488 -171.072 
L 295.664132 -171.072 
L 295.346777 -171.072 
L 295.029421 -171.072 
L 294.712066 -171.072 
L 294.394711 -171.072 
L 294.077355 -171.072 
L 293.76 -171.072 
L 293.442645 -171.072 
L 293.125289 -171.072 
L 292.807934 -171.072 
L 292.490579 -171.072 
L 292.173223 -171.072 
L 291.855868 -171.072 
L 291.538512 -171.072 
L 291.221157 -171.072 
L 290.903802 -171.072 
L 290.586446 -171.072 
L 290.269091 -171.072 
L 289.951736 -171.072 
L 289.63438 -171.072 
L 289.317025 -171.072 
L 288.999669 -171.072 
L 288.682314 -171.072 
L 288.364959 -171.072 
L 288.047603 -171.072 
L 287.730248 -171.072 
L 287.412893 -171.072 
L 287.095537 -171.072 
L 286.778182 -171.072 
L 286.460826 -171.072 
L 286.143471 -171.072 
L 285.826116 -171.072 
L 285.50876 -171.072 
L 285.191405 -171.072 
L 284.87405 -171.072 
L 284.556694 -171.072 
L 284.239339 -171.072 
L 283.921983 -171.072 
L 283.604628 -171.072 
L 283.287273 -171.072 
L 282.969917 -171.072 
L 282.652562 -171.072 
L 282.335207 -171.072 
L 282.017851 -171.072 
L 281.700496 -171.072 
L 281.38314 -171.072 
L 281.065785 -171.072 
L 280.74843 -171.072 
L 280.431074 -171.072 
L 280.113719 -171.072 
L 279.796364 -171.072 
L 279.479008 -171.072 
L 279.161653 -171.072 
L 278.844298 -171.072 
L 278.526942 -171.072 
L 278.209587 -171.072 
L 277.892231 -171.072 
L 277.574876 -171.072 
L 277.257521 -171.072 
L 276.940165 -171.072 
L 276.62281 -171.072 
L 276.305455 -171.072 
L 275.988099 -171.072 
L 275.670744 -171.072 
L 275.353388 -171.072 
L 275.036033 -171.072 
L 274.718678 -171.072 
L 274.401322 -171.072 
L 274.083967 -171.072 
L 273.766612 -171.072 
L 273.449256 -171.072 
L 273.131901 -171.072 
L 272.814545 -171.072 
L 272.49719 -171.072 
L 272.179835 -171.072 
L 271.862479 -171.072 
L 271.545124 -171.072 
L 271.227769 -171.072 
L 270.910413 -171.072 
L 270.593058 -171.072 
L 270.275702 -171.072 
L 269.958347 -171.072 
L 269.640992 -171.072 
L 269.323636 -171.072 
L 269.006281 -171.072 
L 268.688926 -171.072 
L 268.37157 -171.072 
L 268.054215 -171.072 
L 267.73686 -171.072 
L 267.419504 -171.072 
L 267.102149 -171.072 
L 266.784793 -171.072 
L 266.467438 -171.072 
L 266.150083 -171.072 
L 265.832727 -171.072 
L 265.515372 -171.072 
L 265.198017 -171.072 
L 264.880661 -171.072 
L 264.563306 -171.072 
L 264.24595 -171.072 
L 263.928595 -171.072 
L 263.61124 -171.072 
L 263.293884 -171.072 
L 262.976529 -171.072 
L 262.659174 -171.072 
L 262.341818 -171.072 
L 262.024463 -171.072 
L 261.707107 -171.072 
L 261.389752 -171.072 
L 261.072397 -171.072 
L 260.755041 -171.072 
L 260.437686 -171.072 
L 260.120331 -171.072 
L 259.802975 -171.072 
L 259.48562 -171.072 
L 259.168264 -171.072 
L 258.850909 -171.072 
L 258.533554 -171.072 
L 258.216198 -171.072 
L 257.898843 -171.072 
L 257.581488 -171.072 
L 257.264132 -171.072 
L 256.946777 -171.072 
L 256.629421 -171.072 
L 256.312066 -171.072 
L 255.994711 -171.072 
L 255.677355 -171.072 
L 255.36 -171.072 
L 255.042645 -171.072 
L 254.725289 -171.072 
L 254.407934 -171.072 
L 254.090579 -171.072 
L 253.773223 -171.072 
L 253.455868 -171.072 
L 253.138512 -171.072 
L 252.821157 -171.072 
L 252.503802 -171.072 
L 252.186446 -171.072 
L 251.869091 -171.072 
L 251.551736 -171.072 
L 251.23438 -171.072 
L 250.917025 -171.072 
L 250.599669 -171.072 
L 250.282314 -171.072 
L 249.964959 -171.072 
L 249.647603 -171.072 
L 249.330248 -171.072 
L 249.012893 -171.072 
L 248.695537 -171.072 
L 248.378182 -171.072 
L 248.060826 -171.072 
L 247.743471 -171.072 
L 247.426116 -171.072 
L 247.10876 -171.072 
L 246.791405 -171.072 
L 246.47405 -171.072 
L 246.156694 -171.072 
L 245.839339 -171.072 
L 245.521983 -171.072 
L 245.204628 -171.072 
L 244.887273 -171.072 
L 244.569917 -171.072 
L 244.252562 -171.072 
L 243.935207 -171.072 
L 243.617851 -171.072 
L 243.300496 -171.072 
L 242.98314 -171.072 
L 242.665785 -171.072 
L 242.34843 -171.072 
L 242.031074 -171.072 
L 241.713719 -171.072 
L 241.396364 -171.072 
L 241.079008 -171.072 
L 240.761653 -171.072 
L 240.444298 -171.072 
L 240.126942 -171.072 
L 239.809587 -171.072 
L 239.492231 -171.072 
L 239.174876 -171.072 
L 238.857521 -171.072 
L 238.540165 -171.072 
L 238.22281 -171.072 
L 237.905455 -171.072 
L 237.588099 -171.072 
L 237.270744 -171.072 
L 236.953388 -171.072 
L 236.636033 -171.072 
L 236.318678 -171.072 
L 236.001322 -171.072 
L 235.683967 -171.072 
L 235.366612 -171.072 
L 235.049256 -171.072 
L 234.731901 -171.072 
L 234.414545 -171.072 
L 234.09719 -171.072 
L 233.779835 -171.072 
L 233.462479 -171.072 
L 233.145124 -171.072 
L 232.827769 -171.072 
L 232.510413 -171.072 
L 232.193058 -171.072 
L 231.875702 -171.072 
L 231.558347 -171.072 
L 231.240992 -171.072 
L 230.923636 -171.072 
L 230.606281 -171.072 
L 230.288926 -171.072 
L 229.97157 -171.072 
L 229.654215 -171.072 
L 229.33686 -171.072 
L 229.019504 -171.072 
L 228.702149 -171.072 
L 228.384793 -171.072 
L 228.067438 -171.072 
L 227.750083 -171.072 
L 227.432727 -171.072 
L 227.115372 -171.072 
L 226.798017 -171.072 
L 226.480661 -171.072 
L 226.163306 -171.072 
L 225.84595 -171.072 
L 225.528595 -171.072 
L 225.21124 -171.072 
L 224.893884 -171.072 
L 224.576529 -171.072 
L 224.259174 -171.072 
L 223.941818 -171.072 
L 223.624463 -171.072 
L 223.307107 -171.072 
L 222.989752 -171.072 
L 222.672397 -171.072 
L 222.355041 -171.072 
L 222.037686 -171.072 
L 221.720331 -171.072 
L 221.402975 -171.072 
L 221.08562 -171.072 
L 220.768264 -171.072 
L 220.450909 -171.072 
L 220.133554 -171.072 
L 219.816198 -171.072 
L 219.498843 -171.072 
L 219.181488 -171.072 
L 218.864132 -171.072 
L 218.546777 -171.072 
L 218.229421 -171.072 
L 217.912066 -171.072 
L 217.594711 -171.072 
L 217.277355 -171.072 
L 216.96 -171.072 
L 216.642645 -171.072 
L 216.325289 -171.072 
L 216.007934 -171.072 
L 215.690579 -171.072 
L 215.373223 -171.072 
L 215.055868 -171.072 
L 214.738512 -171.072 
L 214.421157 -171.072 
L 214.103802 -171.072 
L 213.786446 -171.072 
L 213.469091 -171.072 
L 213.151736 -171.072 
L 212.83438 -171.072 
L 212.517025 -171.072 
L 212.199669 -171.072 
L 211.882314 -171.072 
L 211.564959 -171.072 
L 211.247603 -171.072 
L 210.930248 -171.072 
L 210.612893 -171.072 
L 210.295537 -171.072 
L 209.978182 -171.072 
L 209.660826 -171.072 
L 209.343471 -171.072 
L 209.026116 -171.072 
L 208.70876 -171.072 
L 208.391405 -171.072 
L 208.07405 -171.072 
L 207.756694 -171.072 
L 207.439339 -171.072 
L 207.121983 -171.072 
L 206.804628 -171.072 
L 206.487273 -171.072 
L 206.169917 -171.072 
L 205.852562 -171.072 
L 205.535207 -171.072 
L 205.217851 -171.072 
L 204.900496 -171.072 
L 204.58314 -171.072 
L 204.265785 -171.072 
L 203.94843 -171.072 
L 203.631074 -171.072 
L 203.313719 -171.072 
L 202.996364 -171.072 
L 202.679008 -171.072 
L 202.361653 -171.072 
L 202.044298 -171.072 
L 201.726942 -171.072 
L 201.409587 -171.072 
L 201.092231 -171.072 
L 200.774876 -171.072 
L 200.457521 -171.072 
L 200.140165 -171.072 
L 199.82281 -171.072 
L 199.505455 -171.072 
L 199.188099 -171.072 
L 198.870744 -171.072 
L 198.553388 -171.072 
L 198.236033 -171.072 
L 197.918678 -171.072 
L 197.601322 -171.072 
L 197.283967 -171.072 
L 196.966612 -171.072 
L 196.649256 -171.072 
L 196.331901 -171.072 
L 196.014545 -171.072 
L 195.69719 -171.072 
L 195.379835 -171.072 
L 195.062479 -171.072 
L 194.745124 -171.072 
L 194.427769 -171.072 
L 194.110413 -171.072 
L 193.793058 -171.072 
L 193.475702 -171.072 
L 193.158347 -171.072 
L 192.840992 -171.072 
L 192.523636 -171.072 
L 192.206281 -171.072 
L 191.888926 -171.072 
L 191.57157 -171.072 
L 191.254215 -171.072 
L 190.93686 -171.072 
L 190.619504 -171.072 
L 190.302149 -171.072 
L 189.984793 -171.072 
L 189.667438 -171.072 
L 189.350083 -171.072 
L 189.032727 -171.072 
L 188.715372 -171.072 
L 188.398017 -171.072 
L 188.080661 -171.072 
L 187.763306 -171.072 
L 187.44595 -171.072 
L 187.128595 -171.072 
L 186.81124 -171.072 
L 186.493884 -171.072 
L 186.176529 -171.072 
L 185.859174 -171.072 
L 185.541818 -171.072 
L 185.224463 -171.072 
L 184.907107 -171.072 
L 184.589752 -171.072 
L 184.272397 -171.072 
L 183.955041 -171.072 
L 183.637686 -171.072 
L 183.320331 -171.072 
L 183.002975 -171.072 
L 182.68562 -171.072 
L 182.368264 -171.072 
L 182.050909 -171.072 
L 181.733554 -171.072 
L 181.416198 -171.072 
L 181.098843 -171.072 
L 180.781488 -171.072 
L 180.464132 -171.072 
L 180.146777 -171.072 
L 179.829421 -171.072 
L 179.512066 -171.072 
L 179.194711 -171.072 
L 178.877355 -171.072 
L 178.56 -171.072 
L 178.242645 -171.072 
L 177.925289 -171.072 
L 177.607934 -171.072 
L 177.290579 -171.072 
L 176.973223 -171.072 
L 176.655868 -171.072 
L 176.338512 -171.072 
L 176.021157 -171.072 
L 175.703802 -171.072 
L 175.386446 -171.072 
L 175.069091 -171.072 
L 174.751736 -171.072 
L 174.43438 -171.072 
L 174.117025 -171.072 
L 173.799669 -171.072 
L 173.482314 -171.072 
L 173.164959 -171.072 
L 172.847603 -171.072 
L 172.530248 -171.072 
L 172.212893 -171.072 
L 171.895537 -171.072 
L 171.578182 -171.072 
L 171.260826 -171.072 
L 170.943471 -171.072 
L 170.626116 -171.072 
L 170.30876 -171.072 
L 169.991405 -171.072 
L 169.67405 -171.072 
L 169.356694 -171.072 
L 169.039339 -171.072 
L 168.721983 -171.072 
L 168.404628 -171.072 
L 168.087273 -171.072 
L 167.769917 -171.072 
L 167.452562 -171.072 
L 167.135207 -171.072 
L 166.817851 -171.072 
L 166.500496 -171.072 
L 166.18314 -171.072 
L 165.865785 -171.072 
L 165.54843 -171.072 
L 165.231074 -171.072 
L 164.913719 -171.072 
L 164.596364 -171.072 
L 164.279008 -171.072 
L 163.961653 -171.072 
L 163.644298 -171.072 
L 163.326942 -171.072 
L 163.009587 -171.072 
L 162.692231 -171.072 
L 162.374876 -171.072 
L 162.057521 -171.072 
L 161.740165 -171.072 
L 161.42281 -171.072 
L 161.105455 -171.072 
L 160.788099 -171.072 
L 160.470744 -171.072 
L 160.153388 -171.072 
L 159.836033 -171.072 
L 159.518678 -171.072 
L 159.201322 -171.072 
L 158.883967 -171.072 
L 158.566612 -171.072 
L 158.249256 -171.072 
L 157.931901 -171.072 
L 157.614545 -171.072 
L 157.29719 -171.072 
L 156.979835 -171.072 
L 156.662479 -171.072 
L 156.345124 -171.072 
L 156.027769 -171.072 
L 155.710413 -171.072 
L 155.393058 -171.072 
L 155.075702 -171.072 
L 154.758347 -171.072 
L 154.440992 -171.072 
L 154.123636 -171.072 
L 153.806281 -171.072 
L 153.488926 -171.072 
L 153.17157 -171.072 
L 152.854215 -171.072 
L 152.53686 -171.072 
L 152.219504 -171.072 
L 151.902149 -171.072 
L 151.584793 -171.072 
L 151.267438 -171.072 
L 150.950083 -171.072 
L 150.632727 -171.072 
L 150.315372 -171.072 
L 149.998017 -171.072 
L 149.680661 -171.072 
L 149.363306 -171.072 
L 149.04595 -171.072 
L 148.728595 -171.072 
L 148.41124 -171.072 
L 148.093884 -171.072 
L 147.776529 -171.072 
L 147.459174 -171.072 
L 147.141818 -171.072 
L 146.824463 -171.072 
L 146.507107 -171.072 
L 146.189752 -171.072 
L 145.872397 -171.072 
L 145.555041 -171.072 
L 145.237686 -171.072 
L 144.920331 -171.072 
L 144.602975 -171.072 
L 144.28562 -171.072 
L 143.968264 -171.072 
L 143.650909 -171.072 
L 143.333554 -171.072 
L 143.016198 -171.072 
L 142.698843 -171.072 
L 142.381488 -171.072 
L 142.064132 -171.072 
L 141.746777 -171.072 
L 141.429421 -171.072 
L 141.112066 -171.072 
L 140.794711 -171.072 
L 140.477355 -171.072 
L 140.16 -171.072 
L 139.842645 -171.072 
L 139.525289 -171.072 
L 139.207934 -171.072 
L 138.890579 -171.072 
L 138.573223 -171.072 
L 138.255868 -171.072 
L 137.938512 -171.072 
L 137.621157 -171.072 
L 137.303802 -171.072 
L 136.986446 -171.072 
L 136.669091 -171.072 
L 136.351736 -171.072 
L 136.03438 -171.072 
L 135.717025 -171.072 
L 135.399669 -171.072 
L 135.082314 -171.072 
L 134.764959 -171.072 
L 134.447603 -171.072 
L 134.130248 -171.072 
L 133.812893 -171.072 
L 133.495537 -171.072 
L 133.178182 -171.072 
L 132.860826 -171.072 
L 132.543471 -171.072 
L 132.226116 -171.072 
L 131.90876 -171.072 
L 131.591405 -171.072 
L 131.27405 -171.072 
L 130.956694 -171.072 
L 130.639339 -171.072 
L 130.321983 -171.072 
L 130.004628 -171.072 
L 129.687273 -171.072 
L 129.369917 -171.072 
L 129.052562 -171.072 
L 128.735207 -171.072 
L 128.417851 -171.072 
L 128.100496 -171.072 
L 127.78314 -171.072 
L 127.465785 -171.072 
L 127.14843 -171.072 
L 126.831074 -171.072 
L 126.513719 -171.072 
L 126.196364 -171.072 
L 125.879008 -171.072 
L 125.561653 -171.072 
L 125.244298 -171.072 
L 124.926942 -171.072 
L 124.609587 -171.072 
L 124.292231 -171.072 
L 123.974876 -171.072 
L 123.657521 -171.072 
L 123.340165 -171.072 
L 123.02281 -171.072 
L 122.705455 -171.072 
L 122.388099 -171.072 
L 122.070744 -171.072 
L 121.753388 -171.072 
L 121.436033 -171.072 
L 121.118678 -171.072 
L 120.801322 -171.072 
L 120.483967 -171.072 
L 120.166612 -171.072 
L 119.849256 -171.072 
L 119.531901 -171.072 
L 119.214545 -171.072 
L 118.89719 -171.072 
L 118.579835 -171.072 
L 118.262479 -171.072 
L 117.945124 -171.072 
L 117.627769 -171.072 
L 117.310413 -171.072 
L 116.993058 -171.072 
L 116.675702 -171.072 
L 116.358347 -171.072 
L 116.040992 -171.072 
L 115.723636 -171.072 
L 115.406281 -171.072 
L 115.088926 -171.072 
L 114.77157 -171.072 
L 114.454215 -171.072 
L 114.13686 -171.072 
L 113.819504 -171.072 
L 113.502149 -171.072 
L 113.184793 -171.072 
L 112.867438 -171.072 
L 112.550083 -171.072 
L 112.232727 -171.072 
L 111.915372 -171.072 
L 111.598017 -171.072 
L 111.280661 -171.072 
L 110.963306 -171.072 
L 110.64595 -171.072 
L 110.328595 -171.072 
L 110.01124 -171.072 
L 109.693884 -171.072 
L 109.376529 -171.072 
L 109.059174 -171.072 
L 108.741818 -171.072 
L 108.424463 -171.072 
L 108.107107 -171.072 
L 107.789752 -171.072 
L 107.472397 -171.072 
L 107.155041 -171.072 
L 106.837686 -171.072 
L 106.520331 -171.072 
L 106.202975 -171.072 
L 105.88562 -171.072 
L 105.568264 -171.072 
L 105.250909 -171.072 
L 104.933554 -171.072 
L 104.616198 -171.072 
L 104.298843 -171.072 
L 103.981488 -171.072 
L 103.664132 -171.072 
L 103.346777 -171.072 
L 103.029421 -171.072 
L 102.712066 -171.072 
L 102.394711 -171.072 
L 102.077355 -171.072 
L 101.76 -171.072 
L 101.442645 -171.072 
L 101.125289 -171.072 
L 100.807934 -171.072 
L 100.490579 -171.072 
L 100.173223 -171.072 
L 99.855868 -171.072 
L 99.538512 -171.072 
L 99.221157 -171.072 
L 98.903802 -171.072 
L 98.586446 -171.072 
L 98.269091 -171.072 
L 97.951736 -171.072 
L 97.63438 -171.072 
L 97.317025 -171.072 
L 96.999669 -171.072 
L 96.682314 -171.072 
L 96.364959 -171.072 
L 96.047603 -171.072 
L 95.730248 -171.072 
L 95.412893 -171.072 
L 95.095537 -171.072 
L 94.778182 -171.072 
L 94.460826 -171.072 
L 94.143471 -171.072 
L 93.826116 -171.072 
L 93.50876 -171.072 
L 93.191405 -171.072 
L 92.87405 -171.072 
L 92.556694 -171.072 
L 92.239339 -171.072 
L 91.921983 -171.072 
L 91.604628 -171.072 
L 91.287273 -171.072 
L 90.969917 -171.072 
L 90.652562 -171.072 
L 90.335207 -171.072 
L 90.017851 -171.072 
L 89.700496 -171.072 
L 89.38314 -171.072 
L 89.065785 -171.072 
L 88.74843 -171.072 
L 88.431074 -171.072 
L 88.113719 -171.072 
L 87.796364 -171.072 
L 87.479008 -171.072 
L 87.161653 -171.072 
L 86.844298 -171.072 
L 86.526942 -171.072 
L 86.209587 -171.072 
L 85.892231 -171.072 
L 85.574876 -171.072 
L 85.257521 -171.072 
L 84.940165 -171.072 
L 84.62281 -171.072 
L 84.305455 -171.072 
L 83.988099 -171.072 
L 83.670744 -171.072 
L 83.353388 -171.072 
L 83.036033 -171.072 
L 82.718678 -171.072 
L 82.401322 -171.072 
L 82.083967 -171.072 
L 81.766612 -171.072 
L 81.449256 -171.072 
L 81.131901 -171.072 
L 80.814545 -171.072 
L 80.49719 -171.072 
L 80.179835 -171.072 
L 79.862479 -171.072 
L 79.545124 -171.072 
L 79.227769 -171.072 
L 78.910413 -171.072 
L 78.593058 -171.072 
L 78.275702 -171.072 
L 77.958347 -171.072 
L 77.640992 -171.072 
L 77.323636 -171.072 
L 77.006281 -171.072 
L 76.688926 -171.072 
L 76.37157 -171.072 
L 76.054215 -171.072 
L 75.73686 -171.072 
L 75.419504 -171.072 
L 75.102149 -171.072 
L 74.784793 -171.072 
L 74.467438 -171.072 
L 74.150083 -171.072 
L 73.832727 -171.072 
z
" style="stroke: #87ceeb; stroke-opacity: 0.75"/>
    </defs>
    <g clip-path="url(#p68a8f7ef6e)">
     <use xlink:href="#me5abc82e02" x="0" y="345.6" style="fill: #87ceeb; fill-opacity: 0.75; stroke: #87ceeb; stroke-opacity: 0.75"/>
    </g>
   </g>
   <g id="matplotlib.axis_1">
    <g id="xtick_1">
     <g id="line2d_1">
      <defs>
       <path id="m7e61f390b5" d="M 0 0 
L 0 3.5 
" style="stroke: #000000; stroke-width: 0.8"/>
      </defs>
      <g>
       <use xlink:href="#m7e61f390b5" x="73.832727" y="307.584" style="stroke: #000000; stroke-width: 0.8"/>
      </g>
     </g>
     <g id="text_1">
      <!-- 0 -->
      <g transform="translate(70.531868 322.161969) scale(0.11 -0.11)">
       <defs>
        <path id="AndaleMono-30" d="M 1913 4494 
Q 2613 4494 2989 3892 
Q 3366 3291 3366 2203 
Q 3366 1150 3000 533 
Q 2634 -84 1913 -84 
Q 1216 -84 837 516 
Q 459 1116 459 2203 
Q 459 3259 826 3876 
Q 1194 4494 1913 4494 
z
M 1913 366 
Q 2375 366 2598 805 
Q 2822 1244 2822 2203 
Q 2822 3166 2598 3602 
Q 2375 4038 1913 4038 
Q 1456 4038 1231 3591 
Q 1006 3144 1006 2203 
Q 1006 1250 1229 808 
Q 1453 366 1913 366 
z
M 1900 2672 
Q 2097 2672 2233 2536 
Q 2369 2400 2369 2203 
Q 2369 2000 2231 1854 
Q 2094 1709 1900 1709 
Q 1709 1709 1573 1854 
Q 1438 2000 1438 2203 
Q 1438 2403 1570 2537 
Q 1703 2672 1900 2672 
z
" transform="scale(0.015625)"/>
       </defs>
       <use xlink:href="#AndaleMono-30"/>
      </g>
     </g>
    </g>
    <g id="xtick_2">
     <g id="line2d_2">
      <g>
       <use xlink:href="#m7e61f390b5" x="137.303802" y="307.584" style="stroke: #000000; stroke-width: 0.8"/>
      </g>
     </g>
     <g id="text_2">
      <!-- 200 -->
      <g transform="translate(127.401224 322.161969) scale(0.11 -0.11)">
       <defs>
        <path id="AndaleMono-32" d="M 3066 0 
L 641 0 
L 641 372 
Q 1563 1400 1838 1750 
Q 2113 2100 2284 2484 
Q 2456 2869 2456 3250 
Q 2456 3619 2232 3831 
Q 2009 4044 1606 4044 
Q 1297 4044 775 3853 
L 703 4294 
Q 1175 4494 1691 4494 
Q 2281 4494 2642 4161 
Q 3003 3828 3003 3272 
Q 3003 2875 2817 2484 
Q 2631 2094 2340 1734 
Q 2050 1375 1209 447 
L 3066 447 
L 3066 0 
z
" transform="scale(0.015625)"/>
       </defs>
       <use xlink:href="#AndaleMono-32"/>
       <use xlink:href="#AndaleMono-30" x="60.009766"/>
       <use xlink:href="#AndaleMono-30" x="120.019531"/>
      </g>
     </g>
    </g>
    <g id="xtick_3">
     <g id="line2d_3">
      <g>
       <use xlink:href="#m7e61f390b5" x="200.774876" y="307.584" style="stroke: #000000; stroke-width: 0.8"/>
      </g>
     </g>
     <g id="text_3">
      <!-- 400 -->
      <g transform="translate(190.872298 322.161969) scale(0.11 -0.11)">
       <defs>
        <path id="AndaleMono-34" d="M 3353 1019 
L 2809 1019 
L 2809 0 
L 2297 0 
L 2297 1019 
L 378 1019 
L 378 1409 
L 2119 4409 
L 2809 4409 
L 2809 1466 
L 3353 1466 
L 3353 1019 
z
M 2297 1466 
L 2297 3903 
L 897 1466 
L 2297 1466 
z
" transform="scale(0.015625)"/>
       </defs>
       <use xlink:href="#AndaleMono-34"/>
       <use xlink:href="#AndaleMono-30" x="60.009766"/>
       <use xlink:href="#AndaleMono-30" x="120.019531"/>
      </g>
     </g>
    </g>
    <g id="xtick_4">
     <g id="line2d_4">
      <g>
       <use xlink:href="#m7e61f390b5" x="264.24595" y="307.584" style="stroke: #000000; stroke-width: 0.8"/>
      </g>
     </g>
     <g id="text_4">
      <!-- 600 -->
      <g transform="translate(254.343372 322.161969) scale(0.11 -0.11)">
       <defs>
        <path id="AndaleMono-36" d="M 1131 2297 
Q 1544 2631 2028 2631 
Q 2588 2631 2961 2273 
Q 3334 1916 3334 1350 
Q 3334 728 3003 322 
Q 2672 -84 2119 -84 
Q 1413 -84 1000 564 
Q 588 1213 588 2150 
Q 588 3150 1017 3822 
Q 1447 4494 2194 4494 
Q 2709 4494 3084 4341 
L 3003 3884 
Q 2569 4044 2209 4044 
Q 1700 4044 1415 3556 
Q 1131 3069 1131 2297 
z
M 1147 1856 
Q 1147 1291 1412 828 
Q 1678 366 2081 366 
Q 2422 366 2606 616 
Q 2791 866 2791 1306 
Q 2791 1713 2587 1947 
Q 2384 2181 2016 2181 
Q 1538 2181 1147 1856 
z
" transform="scale(0.015625)"/>
       </defs>
       <use xlink:href="#AndaleMono-36"/>
       <use xlink:href="#AndaleMono-30" x="60.009766"/>
       <use xlink:href="#AndaleMono-30" x="120.019531"/>
      </g>
     </g>
    </g>
    <g id="xtick_5">
     <g id="line2d_5">
      <g>
       <use xlink:href="#m7e61f390b5" x="327.717025" y="307.584" style="stroke: #000000; stroke-width: 0.8"/>
      </g>
     </g>
     <g id="text_5">
      <!-- 800 -->
      <g transform="translate(317.814447 322.161969) scale(0.11 -0.11)">
       <defs>
        <path id="AndaleMono-38" d="M 2363 2419 
Q 2813 2288 3061 1972 
Q 3309 1656 3309 1234 
Q 3309 628 2907 272 
Q 2506 -84 1919 -84 
Q 1303 -84 908 275 
Q 513 634 513 1228 
Q 513 1647 769 1965 
Q 1025 2284 1484 2419 
Q 1119 2513 898 2780 
Q 678 3047 678 3378 
Q 678 3803 1015 4148 
Q 1353 4494 1906 4494 
Q 2453 4494 2811 4150 
Q 3169 3806 3169 3378 
Q 3169 3056 2944 2786 
Q 2719 2516 2363 2419 
z
M 1906 2631 
Q 1922 2631 2056 2668 
Q 2191 2706 2286 2761 
Q 2381 2816 2462 2900 
Q 2544 2984 2594 3098 
Q 2644 3213 2644 3353 
Q 2644 3653 2428 3851 
Q 2213 4050 1906 4050 
Q 1609 4050 1396 3847 
Q 1184 3644 1184 3353 
Q 1184 3169 1261 3031 
Q 1338 2894 1452 2809 
Q 1566 2725 1714 2678 
Q 1863 2631 1906 2631 
z
M 1906 2194 
Q 1050 1944 1050 1253 
Q 1050 850 1309 608 
Q 1569 366 1919 366 
Q 2281 366 2529 605 
Q 2778 844 2778 1253 
Q 2778 1563 2606 1808 
Q 2434 2053 1906 2194 
z
" transform="scale(0.015625)"/>
       </defs>
       <use xlink:href="#AndaleMono-38"/>
       <use xlink:href="#AndaleMono-30" x="60.009766"/>
       <use xlink:href="#AndaleMono-30" x="120.019531"/>
      </g>
     </g>
    </g>
    <g id="xtick_6">
     <g id="line2d_6">
      <g>
       <use xlink:href="#m7e61f390b5" x="391.188099" y="307.584" style="stroke: #000000; stroke-width: 0.8"/>
      </g>
     </g>
     <g id="text_6">
      <!-- 1000 -->
      <g transform="translate(377.984662 322.161969) scale(0.11 -0.11)">
       <defs>
        <path id="AndaleMono-31" d="M 3181 0 
L 863 0 
L 863 447 
L 1797 447 
L 1797 3872 
L 916 3431 
L 916 3944 
L 1869 4434 
L 2309 4434 
L 2309 447 
L 3181 447 
L 3181 0 
z
" transform="scale(0.015625)"/>
       </defs>
       <use xlink:href="#AndaleMono-31"/>
       <use xlink:href="#AndaleMono-30" x="60.009766"/>
       <use xlink:href="#AndaleMono-30" x="120.019531"/>
       <use xlink:href="#AndaleMono-30" x="180.029297"/>
      </g>
     </g>
    </g>
   </g>
   <g id="matplotlib.axis_2">
    <g id="ytick_1">
     <g id="line2d_7">
      <defs>
       <path id="m8696296732" d="M 0 0 
L -3.5 0 
" style="stroke: #000000; stroke-width: 0.8"/>
      </defs>
      <g>
       <use xlink:href="#m8696296732" x="57.6" y="295.488" style="stroke: #000000; stroke-width: 0.8"/>
      </g>
     </g>
     <g id="text_7">
      <!-- 1.00 -->
      <g transform="translate(17.591406 299.276984) scale(0.11 -0.11)">
       <defs>
        <path id="AndaleMono-2212" d="M 3397 2047 
L 441 2047 
L 441 2456 
L 3397 2456 
L 3397 2047 
z
" transform="scale(0.015625)"/>
        <path id="AndaleMono-2e" d="M 1900 716 
Q 2066 716 2178 603 
Q 2291 491 2291 325 
Q 2291 156 2177 36 
Q 2063 -84 1900 -84 
Q 1741 -84 1628 36 
Q 1516 156 1516 325 
Q 1516 494 1627 605 
Q 1738 716 1900 716 
z
" transform="scale(0.015625)"/>
       </defs>
       <use xlink:href="#AndaleMono-2212"/>
       <use xlink:href="#AndaleMono-31" x="60.009766"/>
       <use xlink:href="#AndaleMono-2e" x="120.019531"/>
       <use xlink:href="#AndaleMono-30" x="180.029297"/>
       <use xlink:href="#AndaleMono-30" x="240.039062"/>
      </g>
     </g>
    </g>
    <g id="ytick_2">
     <g id="line2d_8">
      <g>
       <use xlink:href="#m8696296732" x="57.6" y="265.248" style="stroke: #000000; stroke-width: 0.8"/>
      </g>
     </g>
     <g id="text_8">
      <!-- 0.75 -->
      <g transform="translate(17.591406 269.036984) scale(0.11 -0.11)">
       <defs>
        <path id="AndaleMono-37" d="M 3238 4044 
L 1491 0 
L 966 0 
L 2688 3963 
L 622 3963 
L 622 4409 
L 3238 4409 
L 3238 4044 
z
" transform="scale(0.015625)"/>
        <path id="AndaleMono-35" d="M 1356 2631 
Q 1569 2688 1772 2688 
Q 2397 2688 2759 2305 
Q 3122 1922 3122 1350 
Q 3122 750 2700 333 
Q 2278 -84 1672 -84 
Q 1094 -84 703 109 
L 806 544 
Q 1231 366 1684 366 
Q 2088 366 2336 625 
Q 2584 884 2584 1350 
Q 2584 1791 2350 2028 
Q 2116 2266 1747 2266 
Q 1478 2266 1216 2163 
L 909 2303 
L 909 4409 
L 2925 4409 
L 2925 3963 
L 1356 3963 
L 1356 2631 
z
" transform="scale(0.015625)"/>
       </defs>
       <use xlink:href="#AndaleMono-2212"/>
       <use xlink:href="#AndaleMono-30" x="60.009766"/>
       <use xlink:href="#AndaleMono-2e" x="120.019531"/>
       <use xlink:href="#AndaleMono-37" x="180.029297"/>
       <use xlink:href="#AndaleMono-35" x="240.039062"/>
      </g>
     </g>
    </g>
    <g id="ytick_3">
     <g id="line2d_9">
      <g>
       <use xlink:href="#m8696296732" x="57.6" y="235.008" style="stroke: #000000; stroke-width: 0.8"/>
      </g>
     </g>
     <g id="text_9">
      <!-- 0.50 -->
      <g transform="translate(17.591406 238.796984) scale(0.11 -0.11)">
       <use xlink:href="#AndaleMono-2212"/>
       <use xlink:href="#AndaleMono-30" x="60.009766"/>
       <use xlink:href="#AndaleMono-2e" x="120.019531"/>
       <use xlink:href="#AndaleMono-35" x="180.029297"/>
       <use xlink:href="#AndaleMono-30" x="240.039062"/>
      </g>
     </g>
    </g>
    <g id="ytick_4">
     <g id="line2d_10">
      <g>
       <use xlink:href="#m8696296732" x="57.6" y="204.768" style="stroke: #000000; stroke-width: 0.8"/>
      </g>
     </g>
     <g id="text_10">
      <!-- 0.25 -->
      <g transform="translate(17.591406 208.556984) scale(0.11 -0.11)">
       <use xlink:href="#AndaleMono-2212"/>
       <use xlink:href="#AndaleMono-30" x="60.009766"/>
       <use xlink:href="#AndaleMono-2e" x="120.019531"/>
       <use xlink:href="#AndaleMono-32" x="180.029297"/>
       <use xlink:href="#AndaleMono-35" x="240.039062"/>
      </g>
     </g>
    </g>
    <g id="ytick_5">
     <g id="line2d_11">
      <g>
       <use xlink:href="#m8696296732" x="57.6" y="174.528" style="stroke: #000000; stroke-width: 0.8"/>
      </g>
     </g>
     <g id="text_11">
      <!-- 0.00 -->
      <g transform="translate(24.193125 178.316984) scale(0.11 -0.11)">
       <use xlink:href="#AndaleMono-30"/>
       <use xlink:href="#AndaleMono-2e" x="60.009766"/>
       <use xlink:href="#AndaleMono-30" x="120.019531"/>
       <use xlink:href="#AndaleMono-30" x="180.029297"/>
      </g>
     </g>
    </g>
    <g id="ytick_6">
     <g id="line2d_12">
      <g>
       <use xlink:href="#m8696296732" x="57.6" y="144.288" style="stroke: #000000; stroke-width: 0.8"/>
      </g>
     </g>
     <g id="text_12">
      <!-- 0.25 -->
      <g transform="translate(24.193125 148.076984) scale(0.11 -0.11)">
       <use xlink:href="#AndaleMono-30"/>
       <use xlink:href="#AndaleMono-2e" x="60.009766"/>
       <use xlink:href="#AndaleMono-32" x="120.019531"/>
       <use xlink:href="#AndaleMono-35" x="180.029297"/>
      </g>
     </g>
    </g>
    <g id="ytick_7">
     <g id="line2d_13">
      <g>
       <use xlink:href="#m8696296732" x="57.6" y="114.048" style="stroke: #000000; stroke-width: 0.8"/>
      </g>
     </g>
     <g id="text_13">
      <!-- 0.50 -->
      <g transform="translate(24.193125 117.836984) scale(0.11 -0.11)">
       <use xlink:href="#AndaleMono-30"/>
       <use xlink:href="#AndaleMono-2e" x="60.009766"/>
       <use xlink:href="#AndaleMono-35" x="120.019531"/>
       <use xlink:href="#AndaleMono-30" x="180.029297"/>
      </g>
     </g>
    </g>
    <g id="ytick_8">
     <g id="line2d_14">
      <g>
       <use xlink:href="#m8696296732" x="57.6" y="83.808" style="stroke: #000000; stroke-width: 0.8"/>
      </g>
     </g>
     <g id="text_14">
      <!-- 0.75 -->
      <g transform="translate(24.193125 87.596984) scale(0.11 -0.11)">
       <use xlink:href="#AndaleMono-30"/>
       <use xlink:href="#AndaleMono-2e" x="60.009766"/>
       <use xlink:href="#AndaleMono-37" x="120.019531"/>
       <use xlink:href="#AndaleMono-35" x="180.029297"/>
      </g>
     </g>
    </g>
    <g id="ytick_9">
     <g id="line2d_15">
      <g>
       <use xlink:href="#m8696296732" x="57.6" y="53.568" style="stroke: #000000; stroke-width: 0.8"/>
      </g>
     </g>
     <g id="text_15">
      <!-- 1.00 -->
      <g transform="translate(24.193125 57.356984) scale(0.11 -0.11)">
       <use xlink:href="#AndaleMono-31"/>
       <use xlink:href="#AndaleMono-2e" x="60.009766"/>
       <use xlink:href="#AndaleMono-30" x="120.019531"/>
       <use xlink:href="#AndaleMono-30" x="180.029297"/>
      </g>
     </g>
    </g>
   </g>
   <g id="line2d_16">
    <path d="M 73.832727 174.528 
L 74.150083 166.359755 
L 76.054215 165.132153 
L 79.862479 163.03009 
L 86.209587 160.362056 
L 87.479008 160.187913 
L 90.017851 159.947955 
L 92.239339 159.553957 
L 93.191405 159.194568 
L 94.143471 158.623333 
L 95.412893 157.526415 
L 97.317025 155.472427 
L 98.903802 153.862022 
L 101.125289 151.88604 
L 103.664132 149.742858 
L 104.616198 149.131451 
L 105.568264 148.793524 
L 108.107107 148.509485 
L 109.376529 148.539384 
L 111.280661 148.816642 
L 112.550083 148.682535 
L 114.77157 148.347082 
L 115.723636 148.393915 
L 116.993058 148.707474 
L 118.262479 149.244487 
L 123.02281 151.724596 
L 124.926942 152.724285 
L 125.879008 153.001074 
L 128.100496 153.469206 
L 129.369917 153.677759 
L 130.321983 153.614189 
L 131.591405 153.458146 
L 132.543471 153.499856 
L 133.812893 153.806732 
L 135.399669 154.520101 
L 138.573223 156.202245 
L 139.842645 156.564565 
L 141.112066 156.706853 
L 142.064132 156.531142 
L 143.333554 156.123712 
L 144.920331 155.579149 
L 147.141818 154.958133 
L 148.41124 154.408541 
L 149.998017 153.764542 
L 151.267438 153.532116 
L 153.806281 153.28335 
L 156.345124 153.115508 
L 159.836033 152.294634 
L 161.740165 151.75242 
L 162.692231 151.79946 
L 163.644298 152.054093 
L 164.913719 152.397396 
L 166.500496 152.686565 
L 168.721983 153.299828 
L 170.943471 153.94634 
L 172.530248 154.379958 
L 176.655868 155.68768 
L 180.464132 156.607088 
L 182.68562 157.080281 
L 183.320331 157.066903 
L 184.272397 156.782773 
L 186.176529 155.880993 
L 188.715372 154.444077 
L 189.984793 153.503042 
L 192.840992 151.278792 
L 194.745124 149.272666 
L 200.457521 142.555595 
L 202.044298 140.54733 
L 202.996364 139.239473 
L 206.487273 133.228493 
L 207.121983 131.751448 
L 208.391405 128.16964 
L 209.660826 123.597351 
L 210.930248 118.251494 
L 212.83438 108.473645 
L 216.325289 88.325641 
L 220.450909 63.197778 
L 221.402975 59.183036 
L 222.355041 55.879312 
L 222.989752 54.341903 
L 223.307107 53.828874 
L 223.624463 53.619122 
L 223.941818 53.568 
L 224.576529 53.785337 
L 224.893884 54.044355 
L 225.528595 55.314474 
L 226.480661 58.301035 
L 227.115372 61.059366 
L 228.067438 66.928648 
L 229.019504 74.492421 
L 230.288926 87.640391 
L 231.558347 103.277583 
L 233.145124 126.202487 
L 237.588099 197.357554 
L 239.809587 232.423379 
L 241.396364 254.033151 
L 242.98314 271.542188 
L 243.935207 279.792147 
L 244.887273 286.173813 
L 245.521983 289.462885 
L 246.156694 291.861019 
L 247.10876 294.468471 
L 247.426116 295.011645 
L 248.060826 295.401592 
L 248.378182 295.488 
L 248.695537 295.436878 
L 249.012893 295.227126 
L 249.647603 294.054468 
L 250.282314 292.17647 
L 251.551736 287.376956 
L 252.821157 280.763987 
L 254.407934 271.017411 
L 256.629421 256.992904 
L 260.120331 237.126196 
L 261.707107 229.336827 
L 262.976529 224.233911 
L 264.24595 219.930973 
L 265.515372 216.492139 
L 266.784793 214.063349 
L 268.054215 211.93107 
L 270.593058 208.107511 
L 279.161653 198.093243 
L 280.431074 196.941603 
L 283.604628 194.611923 
L 285.50876 193.492138 
L 288.682314 192.056339 
L 289.317025 191.964359 
L 290.586446 192.104017 
L 296.933554 193.739286 
L 300.107107 194.775153 
L 302.01124 195.252566 
L 304.232727 195.957938 
L 306.77157 196.57419 
L 308.358347 196.899287 
L 309.627769 197.25654 
L 310.579835 197.30358 
L 311.531901 197.089522 
L 313.118678 196.595504 
L 317.561653 195.793284 
L 319.78314 195.675499 
L 322.004628 195.370012 
L 323.27405 194.942375 
L 325.495537 193.990921 
L 331.207934 192.349147 
L 332.16 192.431643 
L 333.429421 192.742861 
L 334.698843 193.268236 
L 338.824463 195.350517 
L 340.093884 195.590762 
L 341.363306 195.54633 
L 342.950083 195.378241 
L 344.219504 195.586794 
L 348.027769 196.618873 
L 352.153388 198.765984 
L 355.644298 200.448054 
L 356.913719 200.694211 
L 358.18314 200.668975 
L 361.356694 200.249159 
L 362.626116 200.4567 
L 363.578182 200.57149 
L 365.482314 200.428731 
L 367.069091 200.184877 
L 368.021157 199.746401 
L 369.290579 198.840258 
L 370.877355 197.451428 
L 374.68562 193.932139 
L 377.541818 190.940752 
L 378.81124 190.009027 
L 379.763306 189.560412 
L 381.032727 189.227508 
L 383.57157 188.866995 
L 386.745124 188.581504 
L 388.331901 188.057724 
L 391.82281 186.524007 
L 393.409587 185.804207 
L 396.265785 184.157975 
L 398.169917 182.930373 
L 398.487273 174.528 
L 398.487273 174.528 
" clip-path="url(#p68a8f7ef6e)" style="fill: none; stroke: #87ceeb; stroke-opacity: 0.75; stroke-linecap: square"/>
   </g>
   <g id="patch_3">
    <path d="M 57.6 307.584 
L 57.6 41.472 
" style="fill: none; stroke: #000000; stroke-width: 0.8; stroke-linejoin: miter; stroke-linecap: square"/>
   </g>
   <g id="patch_4">
    <path d="M 414.72 307.584 
L 414.72 41.472 
" style="fill: none; stroke: #000000; stroke-width: 0.8; stroke-linejoin: miter; stroke-linecap: square"/>
   </g>
   <g id="patch_5">
    <path d="M 57.6 307.584 
L 414.72 307.584 
" style="fill: none; stroke: #000000; stroke-width: 0.8; stroke-linejoin: miter; stroke-linecap: square"/>
   </g>
   <g id="patch_6">
    <path d="M 57.6 41.472 
L 414.72 41.472 
" style="fill: none; stroke: #000000; stroke-width: 0.8; stroke-linejoin: miter; stroke-linecap: square"/>
   </g>
  </g>
 </g>
 <defs>
  <clipPath id="p68a8f7ef6e">
   <rect x="57.6" y="41.472" width="357.12" height="266.112"/>
  </clipPath>
 </defs>
</svg>
