<?xml version="1.0" encoding="utf-8" standalone="no"?>
<!DOCTYPE svg PUBLIC "-//W3C//DTD SVG 1.1//EN"
  "http://www.w3.org/Graphics/SVG/1.1/DTD/svg11.dtd">
<svg xmlns:xlink="http://www.w3.org/1999/xlink" width="460.8pt" height="345.6pt" viewBox="0 0 460.8 345.6" xmlns="http://www.w3.org/2000/svg" version="1.1">
 <metadata>
  <rdf:RDF xmlns:dc="http://purl.org/dc/elements/1.1/" xmlns:cc="http://creativecommons.org/ns#" xmlns:rdf="http://www.w3.org/1999/02/22-rdf-syntax-ns#">
   <cc:Work>
    <dc:type rdf:resource="http://purl.org/dc/dcmitype/StillImage"/>
    <dc:date>2024-04-23T11:13:05.812700</dc:date>
    <dc:format>image/svg+xml</dc:format>
    <dc:creator>
     <cc:Agent>
      <dc:title>Matplotlib v3.8.3, https://matplotlib.org/</dc:title>
     </cc:Agent>
    </dc:creator>
   </cc:Work>
  </rdf:RDF>
 </metadata>
 <defs>
  <style type="text/css">*{stroke-linejoin: round; stroke-linecap: butt}</style>
 </defs>
 <g id="figure_1">
  <g id="patch_1">
   <path d="M 0 345.6 
L 460.8 345.6 
L 460.8 0 
L 0 0 
z
" style="fill: #ffffff"/>
  </g>
  <g id="axes_1">
   <g id="patch_2">
    <path d="M 57.6 307.584 
L 414.72 307.584 
L 414.72 41.472 
L 57.6 41.472 
z
" style="fill: #ffffff"/>
   </g>
   <g id="PolyCollection_1">
    <defs>
     <path id="m334547c2b8" d="M 73.832727 -171.072 
L 73.832727 -171.072 
L 74.150083 -177.015719 
L 74.467438 -177.30362 
L 74.784793 -177.598754 
L 75.102149 -177.911401 
L 75.419504 -178.231721 
L 75.73686 -178.549789 
L 76.054215 -178.877674 
L 76.37157 -179.220914 
L 76.688926 -179.571519 
L 77.006281 -179.939139 
L 77.323636 -180.326101 
L 77.640992 -180.728151 
L 77.958347 -181.143556 
L 78.275702 -181.561769 
L 78.593058 -181.988296 
L 78.910413 -182.418751 
L 79.227769 -182.840955 
L 79.545124 -183.269558 
L 79.862479 -183.716643 
L 80.179835 -184.183002 
L 80.49719 -184.664103 
L 80.814545 -185.157494 
L 81.131901 -185.666725 
L 81.449256 -186.194408 
L 81.766612 -186.715606 
L 82.083967 -187.223361 
L 82.401322 -187.722618 
L 82.718678 -188.215964 
L 83.036033 -188.709085 
L 83.353388 -189.204448 
L 83.670744 -189.708739 
L 83.988099 -190.230604 
L 84.305455 -190.559395 
L 84.62281 -190.918019 
L 84.940165 -191.298236 
L 85.257521 -191.696484 
L 85.574876 -192.11164 
L 85.892231 -192.541548 
L 86.209587 -192.988062 
L 86.526942 -193.44507 
L 86.844298 -193.904094 
L 87.161653 -194.357102 
L 87.479008 -194.79561 
L 87.796364 -195.223934 
L 88.113719 -195.628324 
L 88.431074 -196.017827 
L 88.74843 -196.403822 
L 89.065785 -196.77778 
L 89.38314 -197.137458 
L 89.700496 -197.491056 
L 90.017851 -197.841338 
L 90.335207 -198.196354 
L 90.652562 -198.553926 
L 90.969917 -198.919631 
L 91.287273 -199.289203 
L 91.604628 -199.676458 
L 91.921983 -200.06995 
L 92.239339 -200.465193 
L 92.556694 -200.853952 
L 92.87405 -201.23746 
L 93.191405 -201.601609 
L 93.50876 -201.95466 
L 93.826116 -202.299987 
L 94.143471 -202.643009 
L 94.460826 -202.968282 
L 94.778182 -203.267853 
L 95.095537 -203.553346 
L 95.412893 -203.806709 
L 95.730248 -204.043878 
L 96.047603 -204.293746 
L 96.364959 -204.535568 
L 96.682314 -204.756217 
L 96.999669 -204.968119 
L 97.317025 -205.155394 
L 97.63438 -205.314059 
L 97.951736 -205.446113 
L 98.269091 -205.554719 
L 98.586446 -205.659193 
L 98.903802 -205.738452 
L 99.221157 -205.808982 
L 99.538512 -205.893707 
L 99.855868 -205.974729 
L 100.173223 -206.018872 
L 100.490579 -206.020765 
L 100.807934 -205.984164 
L 101.125289 -205.918094 
L 101.442645 -205.823802 
L 101.76 -205.695725 
L 102.077355 -205.563205 
L 102.394711 -205.458896 
L 102.712066 -205.376764 
L 103.029421 -205.312209 
L 103.346777 -205.260376 
L 103.664132 -205.209017 
L 103.981488 -205.159332 
L 104.298843 -205.089063 
L 104.616198 -204.989798 
L 104.933554 -204.859222 
L 105.250909 -204.711914 
L 105.568264 -204.551755 
L 105.88562 -204.380957 
L 106.202975 -204.19382 
L 106.520331 -203.98235 
L 106.837686 -203.748832 
L 107.155041 -203.501372 
L 107.472397 -203.240633 
L 107.789752 -202.981788 
L 108.107107 -202.72145 
L 108.424463 -202.475738 
L 108.741818 -202.232205 
L 109.059174 -201.976357 
L 109.376529 -201.721977 
L 109.693884 -201.483016 
L 110.01124 -201.268962 
L 110.328595 -201.077364 
L 110.64595 -200.88741 
L 110.963306 -200.69406 
L 111.280661 -200.49654 
L 111.598017 -200.286753 
L 111.915372 -200.039248 
L 112.232727 -199.772605 
L 112.550083 -199.49111 
L 112.867438 -199.217553 
L 113.184793 -198.958281 
L 113.502149 -198.722443 
L 113.819504 -198.506555 
L 114.13686 -198.303802 
L 114.454215 -198.110062 
L 114.77157 -197.943143 
L 115.088926 -197.81592 
L 115.406281 -197.724078 
L 115.723636 -197.675293 
L 116.040992 -197.662933 
L 116.358347 -197.658392 
L 116.675702 -197.666872 
L 116.993058 -197.697071 
L 117.310413 -197.746413 
L 117.627769 -197.807163 
L 117.945124 -197.889415 
L 118.262479 -197.995097 
L 118.579835 -198.116928 
L 118.89719 -198.235638 
L 119.214545 -198.369506 
L 119.531901 -198.500783 
L 119.849256 -198.617866 
L 120.166612 -198.713404 
L 120.483967 -198.832534 
L 120.801322 -198.979949 
L 121.118678 -199.151511 
L 121.436033 -199.341669 
L 121.753388 -199.548683 
L 122.070744 -199.778611 
L 122.388099 -200.02973 
L 122.705455 -200.265934 
L 123.02281 -200.486854 
L 123.340165 -200.68232 
L 123.657521 -200.841622 
L 123.974876 -200.995421 
L 124.292231 -201.121204 
L 124.609587 -201.231795 
L 124.926942 -201.343093 
L 125.244298 -201.458731 
L 125.561653 -201.572701 
L 125.879008 -201.679218 
L 126.196364 -201.777755 
L 126.513719 -201.871226 
L 126.831074 -201.961911 
L 127.14843 -202.055072 
L 127.465785 -202.156997 
L 127.78314 -202.27629 
L 128.100496 -202.418161 
L 128.417851 -202.58319 
L 128.735207 -202.768597 
L 129.052562 -202.983768 
L 129.369917 -203.22789 
L 129.687273 -203.500299 
L 130.004628 -203.773918 
L 130.321983 -204.024754 
L 130.639339 -204.241626 
L 130.956694 -204.448644 
L 131.27405 -204.661433 
L 131.591405 -204.868477 
L 131.90876 -205.106722 
L 132.226116 -205.396758 
L 132.543471 -205.74259 
L 132.860826 -206.154219 
L 133.178182 -206.612284 
L 133.495537 -207.096172 
L 133.812893 -207.630529 
L 134.130248 -208.216284 
L 134.447603 -208.841926 
L 134.764959 -209.478826 
L 135.082314 -210.09557 
L 135.399669 -210.686859 
L 135.717025 -211.242388 
L 136.03438 -211.761241 
L 136.351736 -212.24292 
L 136.669091 -212.692734 
L 136.986446 -213.109916 
L 137.303802 -213.503757 
L 137.621157 -213.879114 
L 137.938512 -214.260582 
L 138.255868 -214.641025 
L 138.573223 -215.031319 
L 138.890579 -215.446609 
L 139.207934 -215.911883 
L 139.525289 -216.439084 
L 139.842645 -217.051958 
L 140.16 -217.759846 
L 140.477355 -218.597122 
L 140.794711 -219.536522 
L 141.112066 -220.586617 
L 141.429421 -221.755292 
L 141.746777 -223.042704 
L 142.064132 -224.431079 
L 142.381488 -225.916214 
L 142.698843 -227.48241 
L 143.016198 -229.117457 
L 143.333554 -230.821756 
L 143.650909 -232.596818 
L 143.968264 -234.456308 
L 144.28562 -236.366566 
L 144.602975 -238.339026 
L 144.920331 -240.37657 
L 145.237686 -242.464914 
L 145.555041 -244.598749 
L 145.872397 -246.760124 
L 146.189752 -248.949761 
L 146.507107 -251.157923 
L 146.824463 -253.385928 
L 147.141818 -255.629543 
L 147.459174 -257.872122 
L 147.776529 -260.095582 
L 148.093884 -262.297116 
L 148.41124 -264.444561 
L 148.728595 -266.526453 
L 149.04595 -268.539294 
L 149.363306 -270.476553 
L 149.680661 -272.338463 
L 149.998017 -274.11979 
L 150.315372 -275.841784 
L 150.632727 -277.500878 
L 150.950083 -279.112974 
L 151.267438 -280.668046 
L 151.584793 -282.168263 
L 151.902149 -283.631263 
L 152.219504 -285.023665 
L 152.53686 -286.332843 
L 152.854215 -287.534086 
L 153.17157 -288.601267 
L 153.488926 -289.536811 
L 153.806281 -290.346346 
L 154.123636 -290.998579 
L 154.440992 -291.464315 
L 154.758347 -291.761222 
L 155.075702 -291.933914 
L 155.393058 -292.020407 
L 155.710413 -292.032 
L 156.027769 -291.98245 
L 156.345124 -291.886408 
L 156.662479 -291.760988 
L 156.979835 -291.624437 
L 157.29719 -291.501021 
L 157.614545 -291.378126 
L 157.931901 -291.275824 
L 158.249256 -291.196818 
L 158.566612 -291.147776 
L 158.883967 -291.117773 
L 159.201322 -291.101371 
L 159.518678 -291.084679 
L 159.836033 -291.063312 
L 160.153388 -291.015044 
L 160.470744 -290.926954 
L 160.788099 -290.762753 
L 161.105455 -290.517092 
L 161.42281 -290.171923 
L 161.740165 -289.717214 
L 162.057521 -289.138191 
L 162.374876 -288.442118 
L 162.692231 -287.615486 
L 163.009587 -286.673072 
L 163.326942 -285.640417 
L 163.644298 -284.50957 
L 163.961653 -283.296865 
L 164.279008 -281.996017 
L 164.596364 -280.615296 
L 164.913719 -279.158559 
L 165.231074 -277.617111 
L 165.54843 -275.982992 
L 165.865785 -274.269282 
L 166.18314 -272.485346 
L 166.500496 -270.633816 
L 166.817851 -268.722428 
L 167.135207 -266.745044 
L 167.452562 -264.706901 
L 167.769917 -262.630703 
L 168.087273 -260.531612 
L 168.404628 -258.409756 
L 168.721983 -256.283618 
L 169.039339 -254.170305 
L 169.356694 -252.080276 
L 169.67405 -250.013846 
L 169.991405 -247.980338 
L 170.30876 -245.981274 
L 170.626116 -244.021047 
L 170.943471 -242.116038 
L 171.260826 -240.261215 
L 171.578182 -238.442451 
L 171.895537 -236.648306 
L 172.212893 -234.858366 
L 172.530248 -233.074311 
L 172.847603 -231.310074 
L 173.164959 -229.583977 
L 173.482314 -227.922918 
L 173.799669 -226.323316 
L 174.117025 -224.798286 
L 174.43438 -223.358395 
L 174.751736 -222.031569 
L 175.069091 -220.830741 
L 175.386446 -219.743859 
L 175.703802 -218.75908 
L 176.021157 -217.870564 
L 176.338512 -217.073337 
L 176.655868 -216.357481 
L 176.973223 -215.710776 
L 177.290579 -215.110396 
L 177.607934 -214.537679 
L 177.925289 -214.005781 
L 178.242645 -213.478982 
L 178.56 -212.941306 
L 178.877355 -212.381084 
L 179.194711 -211.799284 
L 179.512066 -211.186237 
L 179.829421 -210.540003 
L 180.146777 -209.841008 
L 180.464132 -209.093666 
L 180.781488 -208.308125 
L 181.098843 -207.491676 
L 181.416198 -206.657439 
L 181.733554 -205.817221 
L 182.050909 -204.980066 
L 182.368264 -204.164631 
L 182.68562 -203.374078 
L 183.002975 -202.620595 
L 183.320331 -201.897161 
L 183.637686 -201.201119 
L 183.955041 -200.53509 
L 184.272397 -199.892082 
L 184.589752 -199.278333 
L 184.907107 -198.694478 
L 185.224463 -198.143149 
L 185.541818 -197.633066 
L 185.859174 -197.17497 
L 186.176529 -196.760017 
L 186.493884 -196.396646 
L 186.81124 -196.076139 
L 187.128595 -195.79834 
L 187.44595 -195.575574 
L 187.763306 -195.410567 
L 188.080661 -195.284851 
L 188.398017 -195.189182 
L 188.715372 -195.12781 
L 189.032727 -195.109553 
L 189.350083 -195.120784 
L 189.667438 -195.158121 
L 189.984793 -195.218587 
L 190.302149 -195.294432 
L 190.619504 -195.381428 
L 190.93686 -195.466917 
L 191.254215 -195.533138 
L 191.57157 -195.582693 
L 191.888926 -195.631367 
L 192.206281 -195.675008 
L 192.523636 -195.734996 
L 192.840992 -195.830551 
L 193.158347 -195.950243 
L 193.475702 -196.082486 
L 193.793058 -196.218024 
L 194.110413 -196.366525 
L 194.427769 -196.519828 
L 194.745124 -196.690226 
L 195.062479 -196.873548 
L 195.379835 -197.044164 
L 195.69719 -197.20178 
L 196.014545 -197.33917 
L 196.331901 -197.451518 
L 196.649256 -197.549995 
L 196.966612 -197.627632 
L 197.283967 -197.670816 
L 197.601322 -197.69665 
L 197.918678 -197.705973 
L 198.236033 -197.681266 
L 198.553388 -197.613087 
L 198.870744 -197.50776 
L 199.188099 -197.36186 
L 199.505455 -197.182699 
L 199.82281 -196.977991 
L 200.140165 -196.761016 
L 200.457521 -196.55548 
L 200.774876 -196.360621 
L 201.092231 -196.170944 
L 201.409587 -196.003032 
L 201.726942 -195.848722 
L 202.044298 -195.697715 
L 202.361653 -195.540114 
L 202.679008 -195.35935 
L 202.996364 -195.169577 
L 203.313719 -194.970706 
L 203.631074 -194.770108 
L 203.94843 -194.567828 
L 204.265785 -194.373107 
L 204.58314 -194.194066 
L 204.900496 -194.023465 
L 205.217851 -193.86853 
L 205.535207 -193.720121 
L 205.852562 -193.559671 
L 206.169917 -193.400363 
L 206.487273 -193.236481 
L 206.804628 -193.069524 
L 207.121983 -192.92137 
L 207.439339 -192.779624 
L 207.756694 -192.644647 
L 208.07405 -192.521018 
L 208.391405 -192.419037 
L 208.70876 -192.342355 
L 209.026116 -192.278776 
L 209.343471 -192.218663 
L 209.660826 -192.1704 
L 209.978182 -192.1237 
L 210.295537 -192.072563 
L 210.612893 -192.032442 
L 210.930248 -192.005333 
L 211.247603 -191.99539 
L 211.564959 -192.012741 
L 211.882314 -192.055328 
L 212.199669 -192.138223 
L 212.517025 -192.253412 
L 212.83438 -192.382736 
L 213.151736 -192.501304 
L 213.469091 -192.60931 
L 213.786446 -192.720535 
L 214.103802 -192.833301 
L 214.421157 -192.955396 
L 214.738512 -193.09871 
L 215.055868 -193.251656 
L 215.373223 -193.419477 
L 215.690579 -193.598947 
L 216.007934 -193.782384 
L 216.325289 -193.996991 
L 216.642645 -194.236206 
L 216.96 -194.474799 
L 217.277355 -194.716751 
L 217.594711 -194.971414 
L 217.912066 -195.231758 
L 218.229421 -195.497884 
L 218.546777 -195.774713 
L 218.864132 -196.085732 
L 219.181488 -196.425832 
L 219.498843 -196.792314 
L 219.816198 -197.169056 
L 220.133554 -197.54864 
L 220.450909 -197.924967 
L 220.768264 -198.272637 
L 221.08562 -198.583273 
L 221.402975 -198.862667 
L 221.720331 -199.089444 
L 222.037686 -199.273986 
L 222.355041 -199.413044 
L 222.672397 -199.514379 
L 222.989752 -199.593251 
L 223.307107 -199.635048 
L 223.624463 -199.635248 
L 223.941818 -199.591054 
L 224.259174 -199.496033 
L 224.576529 -199.356194 
L 224.893884 -199.164949 
L 225.21124 -198.913244 
L 225.528595 -198.602177 
L 225.84595 -198.238262 
L 226.163306 -197.850514 
L 226.480661 -197.428474 
L 226.798017 -196.965995 
L 227.115372 -196.45954 
L 227.432727 -195.89245 
L 227.750083 -195.29015 
L 228.067438 -194.64841 
L 228.384793 -193.952861 
L 228.702149 -193.209258 
L 229.019504 -192.419887 
L 229.33686 -191.600191 
L 229.654215 -190.756573 
L 229.97157 -189.88245 
L 230.288926 -188.984221 
L 230.606281 -188.081338 
L 230.923636 -187.152874 
L 231.240992 -186.209407 
L 231.558347 -185.242399 
L 231.875702 -184.26109 
L 232.193058 -183.275242 
L 232.510413 -182.26029 
L 232.827769 -181.234143 
L 233.145124 -180.210671 
L 233.462479 -179.211905 
L 233.779835 -178.239697 
L 234.09719 -177.281466 
L 234.414545 -176.338733 
L 234.731901 -175.397248 
L 235.049256 -174.445969 
L 235.366612 -173.485235 
L 235.683967 -172.508428 
L 236.001322 -171.543457 
L 236.318678 -170.600543 
L 236.636033 -169.635572 
L 236.953388 -168.658765 
L 237.270744 -167.698031 
L 237.588099 -166.746752 
L 237.905455 -165.805267 
L 238.22281 -164.862534 
L 238.540165 -163.904303 
L 238.857521 -162.932095 
L 239.174876 -161.933329 
L 239.492231 -160.909857 
L 239.809587 -159.88371 
L 240.126942 -158.868758 
L 240.444298 -157.88291 
L 240.761653 -156.901601 
L 241.079008 -155.934593 
L 241.396364 -154.991126 
L 241.713719 -154.062662 
L 242.031074 -153.159779 
L 242.34843 -152.26155 
L 242.665785 -151.387427 
L 242.98314 -150.543809 
L 243.300496 -149.724113 
L 243.617851 -148.934742 
L 243.935207 -148.191139 
L 244.252562 -147.49559 
L 244.569917 -146.85385 
L 244.887273 -146.25155 
L 245.204628 -145.68446 
L 245.521983 -145.178005 
L 245.839339 -144.715526 
L 246.156694 -144.293486 
L 246.47405 -143.905738 
L 246.791405 -143.541823 
L 247.10876 -143.230756 
L 247.426116 -142.979051 
L 247.743471 -142.787806 
L 248.060826 -142.647967 
L 248.378182 -142.552946 
L 248.695537 -142.508752 
L 249.012893 -142.508952 
L 249.330248 -142.550749 
L 249.647603 -142.629621 
L 249.964959 -142.730956 
L 250.282314 -142.870014 
L 250.599669 -143.054556 
L 250.917025 -143.281333 
L 251.23438 -143.560727 
L 251.551736 -143.871363 
L 251.869091 -144.219033 
L 252.186446 -144.59536 
L 252.503802 -144.974944 
L 252.821157 -145.351686 
L 253.138512 -145.718168 
L 253.455868 -146.058268 
L 253.773223 -146.369287 
L 254.090579 -146.646116 
L 254.407934 -146.912242 
L 254.725289 -147.172586 
L 255.042645 -147.427249 
L 255.36 -147.669201 
L 255.677355 -147.907794 
L 255.994711 -148.147009 
L 256.312066 -148.361616 
L 256.629421 -148.545053 
L 256.946777 -148.724523 
L 257.264132 -148.892344 
L 257.581488 -149.04529 
L 257.898843 -149.188604 
L 258.216198 -149.310699 
L 258.533554 -149.423465 
L 258.850909 -149.53469 
L 259.168264 -149.642696 
L 259.48562 -149.761264 
L 259.802975 -149.890588 
L 260.120331 -150.005777 
L 260.437686 -150.088672 
L 260.755041 -150.131259 
L 261.072397 -150.14861 
L 261.389752 -150.138667 
L 261.707107 -150.111558 
L 262.024463 -150.071437 
L 262.341818 -150.0203 
L 262.659174 -149.9736 
L 262.976529 -149.925337 
L 263.293884 -149.865224 
L 263.61124 -149.801645 
L 263.928595 -149.724963 
L 264.24595 -149.622982 
L 264.563306 -149.499353 
L 264.880661 -149.364376 
L 265.198017 -149.22263 
L 265.515372 -149.074476 
L 265.832727 -148.907519 
L 266.150083 -148.743637 
L 266.467438 -148.584329 
L 266.784793 -148.423879 
L 267.102149 -148.27547 
L 267.419504 -148.120535 
L 267.73686 -147.949934 
L 268.054215 -147.770893 
L 268.37157 -147.576172 
L 268.688926 -147.373892 
L 269.006281 -147.173294 
L 269.323636 -146.974423 
L 269.640992 -146.78465 
L 269.958347 -146.603886 
L 270.275702 -146.446285 
L 270.593058 -146.295278 
L 270.910413 -146.140968 
L 271.227769 -145.973056 
L 271.545124 -145.783379 
L 271.862479 -145.58852 
L 272.179835 -145.382984 
L 272.49719 -145.166009 
L 272.814545 -144.961301 
L 273.131901 -144.78214 
L 273.449256 -144.63624 
L 273.766612 -144.530913 
L 274.083967 -144.462734 
L 274.401322 -144.438027 
L 274.718678 -144.44735 
L 275.036033 -144.473184 
L 275.353388 -144.516368 
L 275.670744 -144.594005 
L 275.988099 -144.692482 
L 276.305455 -144.80483 
L 276.62281 -144.94222 
L 276.940165 -145.099836 
L 277.257521 -145.270452 
L 277.574876 -145.453774 
L 277.892231 -145.624172 
L 278.209587 -145.777475 
L 278.526942 -145.925976 
L 278.844298 -146.061514 
L 279.161653 -146.193757 
L 279.479008 -146.313449 
L 279.796364 -146.409004 
L 280.113719 -146.468992 
L 280.431074 -146.512633 
L 280.74843 -146.561307 
L 281.065785 -146.610862 
L 281.38314 -146.677083 
L 281.700496 -146.762572 
L 282.017851 -146.849568 
L 282.335207 -146.925413 
L 282.652562 -146.985879 
L 282.969917 -147.023216 
L 283.287273 -147.034447 
L 283.604628 -147.01619 
L 283.921983 -146.954818 
L 284.239339 -146.859149 
L 284.556694 -146.733433 
L 284.87405 -146.568426 
L 285.191405 -146.34566 
L 285.50876 -146.067861 
L 285.826116 -145.747354 
L 286.143471 -145.383983 
L 286.460826 -144.96903 
L 286.778182 -144.510934 
L 287.095537 -144.000851 
L 287.412893 -143.449522 
L 287.730248 -142.865667 
L 288.047603 -142.251918 
L 288.364959 -141.60891 
L 288.682314 -140.942881 
L 288.999669 -140.246839 
L 289.317025 -139.523405 
L 289.63438 -138.769922 
L 289.951736 -137.979369 
L 290.269091 -137.163934 
L 290.586446 -136.326779 
L 290.903802 -135.486561 
L 291.221157 -134.652324 
L 291.538512 -133.835875 
L 291.855868 -133.050334 
L 292.173223 -132.302992 
L 292.490579 -131.603997 
L 292.807934 -130.957763 
L 293.125289 -130.344716 
L 293.442645 -129.762916 
L 293.76 -129.202694 
L 294.077355 -128.665018 
L 294.394711 -128.138219 
L 294.712066 -127.606321 
L 295.029421 -127.033604 
L 295.346777 -126.433224 
L 295.664132 -125.786519 
L 295.981488 -125.070663 
L 296.298843 -124.273436 
L 296.616198 -123.38492 
L 296.933554 -122.400141 
L 297.250909 -121.313259 
L 297.568264 -120.112431 
L 297.88562 -118.785605 
L 298.202975 -117.345714 
L 298.520331 -115.820684 
L 298.837686 -114.221082 
L 299.155041 -112.560023 
L 299.472397 -110.833926 
L 299.789752 -109.069689 
L 300.107107 -107.285634 
L 300.424463 -105.495694 
L 300.741818 -103.701549 
L 301.059174 -101.882785 
L 301.376529 -100.027962 
L 301.693884 -98.122953 
L 302.01124 -96.162726 
L 302.328595 -94.163662 
L 302.64595 -92.130154 
L 302.963306 -90.063724 
L 303.280661 -87.973695 
L 303.598017 -85.860382 
L 303.915372 -83.734244 
L 304.232727 -81.612388 
L 304.550083 -79.513297 
L 304.867438 -77.437099 
L 305.184793 -75.398956 
L 305.502149 -73.421572 
L 305.819504 -71.510184 
L 306.13686 -69.658654 
L 306.454215 -67.874718 
L 306.77157 -66.161008 
L 307.088926 -64.526889 
L 307.406281 -62.985441 
L 307.723636 -61.528704 
L 308.040992 -60.147983 
L 308.358347 -58.847135 
L 308.675702 -57.63443 
L 308.993058 -56.503583 
L 309.310413 -55.470928 
L 309.627769 -54.528514 
L 309.945124 -53.701882 
L 310.262479 -53.005809 
L 310.579835 -52.426786 
L 310.89719 -51.972077 
L 311.214545 -51.626908 
L 311.531901 -51.381247 
L 311.849256 -51.217046 
L 312.166612 -51.128956 
L 312.483967 -51.080688 
L 312.801322 -51.059321 
L 313.118678 -51.042629 
L 313.436033 -51.026227 
L 313.753388 -50.996224 
L 314.070744 -50.947182 
L 314.388099 -50.868176 
L 314.705455 -50.765874 
L 315.02281 -50.642979 
L 315.340165 -50.519563 
L 315.657521 -50.383012 
L 315.974876 -50.257592 
L 316.292231 -50.16155 
L 316.609587 -50.112 
L 316.926942 -50.123593 
L 317.244298 -50.210086 
L 317.561653 -50.382778 
L 317.879008 -50.679685 
L 318.196364 -51.145421 
L 318.513719 -51.797654 
L 318.831074 -52.607189 
L 319.14843 -53.542733 
L 319.465785 -54.609914 
L 319.78314 -55.811157 
L 320.100496 -57.120335 
L 320.417851 -58.512737 
L 320.735207 -59.975737 
L 321.052562 -61.475954 
L 321.369917 -63.031026 
L 321.687273 -64.643122 
L 322.004628 -66.302216 
L 322.321983 -68.02421 
L 322.639339 -69.805537 
L 322.956694 -71.667447 
L 323.27405 -73.604706 
L 323.591405 -75.617547 
L 323.90876 -77.699439 
L 324.226116 -79.846884 
L 324.543471 -82.048418 
L 324.860826 -84.271878 
L 325.178182 -86.514457 
L 325.495537 -88.758072 
L 325.812893 -90.986077 
L 326.130248 -93.194239 
L 326.447603 -95.383876 
L 326.764959 -97.545251 
L 327.082314 -99.679086 
L 327.399669 -101.76743 
L 327.717025 -103.804974 
L 328.03438 -105.777434 
L 328.351736 -107.687692 
L 328.669091 -109.547182 
L 328.986446 -111.322244 
L 329.303802 -113.026543 
L 329.621157 -114.66159 
L 329.938512 -116.227786 
L 330.255868 -117.712921 
L 330.573223 -119.101296 
L 330.890579 -120.388708 
L 331.207934 -121.557383 
L 331.525289 -122.607478 
L 331.842645 -123.546878 
L 332.16 -124.384154 
L 332.477355 -125.092042 
L 332.794711 -125.704916 
L 333.112066 -126.232117 
L 333.429421 -126.697391 
L 333.746777 -127.112681 
L 334.064132 -127.502975 
L 334.381488 -127.883418 
L 334.698843 -128.264886 
L 335.016198 -128.640243 
L 335.333554 -129.034084 
L 335.650909 -129.451266 
L 335.968264 -129.90108 
L 336.28562 -130.382759 
L 336.602975 -130.901612 
L 336.920331 -131.457141 
L 337.237686 -132.04843 
L 337.555041 -132.665174 
L 337.872397 -133.302074 
L 338.189752 -133.927716 
L 338.507107 -134.513471 
L 338.824463 -135.047828 
L 339.141818 -135.531716 
L 339.459174 -135.989781 
L 339.776529 -136.40141 
L 340.093884 -136.747242 
L 340.41124 -137.037278 
L 340.728595 -137.275523 
L 341.04595 -137.482567 
L 341.363306 -137.695356 
L 341.680661 -137.902374 
L 341.998017 -138.119246 
L 342.315372 -138.370082 
L 342.632727 -138.643701 
L 342.950083 -138.91611 
L 343.267438 -139.160232 
L 343.584793 -139.375403 
L 343.902149 -139.56081 
L 344.219504 -139.725839 
L 344.53686 -139.86771 
L 344.854215 -139.987003 
L 345.17157 -140.088928 
L 345.488926 -140.182089 
L 345.806281 -140.272774 
L 346.123636 -140.366245 
L 346.440992 -140.464782 
L 346.758347 -140.571299 
L 347.075702 -140.685269 
L 347.393058 -140.800907 
L 347.710413 -140.912205 
L 348.027769 -141.022796 
L 348.345124 -141.148579 
L 348.662479 -141.302378 
L 348.979835 -141.46168 
L 349.29719 -141.657146 
L 349.614545 -141.878066 
L 349.931901 -142.11427 
L 350.249256 -142.365389 
L 350.566612 -142.595317 
L 350.883967 -142.802331 
L 351.201322 -142.992489 
L 351.518678 -143.164051 
L 351.836033 -143.311466 
L 352.153388 -143.430596 
L 352.470744 -143.526134 
L 352.788099 -143.643217 
L 353.105455 -143.774494 
L 353.42281 -143.908362 
L 353.740165 -144.027072 
L 354.057521 -144.148903 
L 354.374876 -144.254585 
L 354.692231 -144.336837 
L 355.009587 -144.397587 
L 355.326942 -144.446929 
L 355.644298 -144.477128 
L 355.961653 -144.485608 
L 356.279008 -144.481067 
L 356.596364 -144.468707 
L 356.913719 -144.419922 
L 357.231074 -144.32808 
L 357.54843 -144.200857 
L 357.865785 -144.033938 
L 358.18314 -143.840198 
L 358.500496 -143.637445 
L 358.817851 -143.421557 
L 359.135207 -143.185719 
L 359.452562 -142.926447 
L 359.769917 -142.65289 
L 360.087273 -142.371395 
L 360.404628 -142.104752 
L 360.721983 -141.857247 
L 361.039339 -141.64746 
L 361.356694 -141.44994 
L 361.67405 -141.25659 
L 361.991405 -141.066636 
L 362.30876 -140.875038 
L 362.626116 -140.660984 
L 362.943471 -140.422023 
L 363.260826 -140.167643 
L 363.578182 -139.911795 
L 363.895537 -139.668262 
L 364.212893 -139.42255 
L 364.530248 -139.162212 
L 364.847603 -138.903367 
L 365.164959 -138.642628 
L 365.482314 -138.395168 
L 365.799669 -138.16165 
L 366.117025 -137.95018 
L 366.43438 -137.763043 
L 366.751736 -137.592245 
L 367.069091 -137.432086 
L 367.386446 -137.284778 
L 367.703802 -137.154202 
L 368.021157 -137.054937 
L 368.338512 -136.984668 
L 368.655868 -136.934983 
L 368.973223 -136.883624 
L 369.290579 -136.831791 
L 369.607934 -136.767236 
L 369.925289 -136.685104 
L 370.242645 -136.580795 
L 370.56 -136.448275 
L 370.877355 -136.320198 
L 371.194711 -136.225906 
L 371.512066 -136.159836 
L 371.829421 -136.123235 
L 372.146777 -136.125128 
L 372.464132 -136.169271 
L 372.781488 -136.250293 
L 373.098843 -136.335018 
L 373.416198 -136.405548 
L 373.733554 -136.484807 
L 374.050909 -136.589281 
L 374.368264 -136.697887 
L 374.68562 -136.829941 
L 375.002975 -136.988606 
L 375.320331 -137.175881 
L 375.637686 -137.387783 
L 375.955041 -137.608432 
L 376.272397 -137.850254 
L 376.589752 -138.100122 
L 376.907107 -138.337291 
L 377.224463 -138.590654 
L 377.541818 -138.876147 
L 377.859174 -139.175718 
L 378.176529 -139.500991 
L 378.493884 -139.838639 
L 378.81124 -140.173433 
L 379.128595 -140.516262 
L 379.44595 -140.870529 
L 379.763306 -141.244525 
L 380.080661 -141.624173 
L 380.398017 -142.010736 
L 380.715372 -142.39601 
L 381.032727 -142.775537 
L 381.350083 -143.137903 
L 381.667438 -143.496955 
L 381.984793 -143.848455 
L 382.302149 -144.198012 
L 382.619504 -144.543477 
L 382.93686 -144.892932 
L 383.254215 -145.249168 
L 383.57157 -145.620418 
L 383.888926 -146.004469 
L 384.206281 -146.392821 
L 384.523636 -146.796884 
L 384.840992 -147.225735 
L 385.158347 -147.665654 
L 385.475702 -148.120988 
L 385.793058 -148.583282 
L 386.110413 -149.044536 
L 386.427769 -149.496299 
L 386.745124 -149.932493 
L 387.062479 -150.355 
L 387.379835 -150.761695 
L 387.69719 -151.151485 
L 388.014545 -151.520838 
L 388.331901 -151.861544 
L 388.649256 -152.171475 
L 388.966612 -152.675766 
L 389.283967 -153.17113 
L 389.601322 -153.664251 
L 389.918678 -154.157596 
L 390.236033 -154.656853 
L 390.553388 -155.164608 
L 390.870744 -155.685806 
L 391.188099 -156.213489 
L 391.505455 -156.72272 
L 391.82281 -157.216111 
L 392.140165 -157.697212 
L 392.457521 -158.163571 
L 392.774876 -158.610656 
L 393.092231 -159.039259 
L 393.409587 -159.461463 
L 393.726942 -159.891919 
L 394.044298 -160.318445 
L 394.361653 -160.736658 
L 394.679008 -161.152064 
L 394.996364 -161.554113 
L 395.313719 -161.941076 
L 395.631074 -162.308695 
L 395.94843 -162.6593 
L 396.265785 -163.00254 
L 396.58314 -163.330425 
L 396.900496 -163.648494 
L 397.217851 -163.968813 
L 397.535207 -164.28146 
L 397.852562 -164.576594 
L 398.169917 -164.864496 
L 398.487273 -171.072 
L 398.487273 -171.072 
L 398.487273 -171.072 
L 398.169917 -171.072 
L 397.852562 -171.072 
L 397.535207 -171.072 
L 397.217851 -171.072 
L 396.900496 -171.072 
L 396.58314 -171.072 
L 396.265785 -171.072 
L 395.94843 -171.072 
L 395.631074 -171.072 
L 395.313719 -171.072 
L 394.996364 -171.072 
L 394.679008 -171.072 
L 394.361653 -171.072 
L 394.044298 -171.072 
L 393.726942 -171.072 
L 393.409587 -171.072 
L 393.092231 -171.072 
L 392.774876 -171.072 
L 392.457521 -171.072 
L 392.140165 -171.072 
L 391.82281 -171.072 
L 391.505455 -171.072 
L 391.188099 -171.072 
L 390.870744 -171.072 
L 390.553388 -171.072 
L 390.236033 -171.072 
L 389.918678 -171.072 
L 389.601322 -171.072 
L 389.283967 -171.072 
L 388.966612 -171.072 
L 388.649256 -171.072 
L 388.331901 -171.072 
L 388.014545 -171.072 
L 387.69719 -171.072 
L 387.379835 -171.072 
L 387.062479 -171.072 
L 386.745124 -171.072 
L 386.427769 -171.072 
L 386.110413 -171.072 
L 385.793058 -171.072 
L 385.475702 -171.072 
L 385.158347 -171.072 
L 384.840992 -171.072 
L 384.523636 -171.072 
L 384.206281 -171.072 
L 383.888926 -171.072 
L 383.57157 -171.072 
L 383.254215 -171.072 
L 382.93686 -171.072 
L 382.619504 -171.072 
L 382.302149 -171.072 
L 381.984793 -171.072 
L 381.667438 -171.072 
L 381.350083 -171.072 
L 381.032727 -171.072 
L 380.715372 -171.072 
L 380.398017 -171.072 
L 380.080661 -171.072 
L 379.763306 -171.072 
L 379.44595 -171.072 
L 379.128595 -171.072 
L 378.81124 -171.072 
L 378.493884 -171.072 
L 378.176529 -171.072 
L 377.859174 -171.072 
L 377.541818 -171.072 
L 377.224463 -171.072 
L 376.907107 -171.072 
L 376.589752 -171.072 
L 376.272397 -171.072 
L 375.955041 -171.072 
L 375.637686 -171.072 
L 375.320331 -171.072 
L 375.002975 -171.072 
L 374.68562 -171.072 
L 374.368264 -171.072 
L 374.050909 -171.072 
L 373.733554 -171.072 
L 373.416198 -171.072 
L 373.098843 -171.072 
L 372.781488 -171.072 
L 372.464132 -171.072 
L 372.146777 -171.072 
L 371.829421 -171.072 
L 371.512066 -171.072 
L 371.194711 -171.072 
L 370.877355 -171.072 
L 370.56 -171.072 
L 370.242645 -171.072 
L 369.925289 -171.072 
L 369.607934 -171.072 
L 369.290579 -171.072 
L 368.973223 -171.072 
L 368.655868 -171.072 
L 368.338512 -171.072 
L 368.021157 -171.072 
L 367.703802 -171.072 
L 367.386446 -171.072 
L 367.069091 -171.072 
L 366.751736 -171.072 
L 366.43438 -171.072 
L 366.117025 -171.072 
L 365.799669 -171.072 
L 365.482314 -171.072 
L 365.164959 -171.072 
L 364.847603 -171.072 
L 364.530248 -171.072 
L 364.212893 -171.072 
L 363.895537 -171.072 
L 363.578182 -171.072 
L 363.260826 -171.072 
L 362.943471 -171.072 
L 362.626116 -171.072 
L 362.30876 -171.072 
L 361.991405 -171.072 
L 361.67405 -171.072 
L 361.356694 -171.072 
L 361.039339 -171.072 
L 360.721983 -171.072 
L 360.404628 -171.072 
L 360.087273 -171.072 
L 359.769917 -171.072 
L 359.452562 -171.072 
L 359.135207 -171.072 
L 358.817851 -171.072 
L 358.500496 -171.072 
L 358.18314 -171.072 
L 357.865785 -171.072 
L 357.54843 -171.072 
L 357.231074 -171.072 
L 356.913719 -171.072 
L 356.596364 -171.072 
L 356.279008 -171.072 
L 355.961653 -171.072 
L 355.644298 -171.072 
L 355.326942 -171.072 
L 355.009587 -171.072 
L 354.692231 -171.072 
L 354.374876 -171.072 
L 354.057521 -171.072 
L 353.740165 -171.072 
L 353.42281 -171.072 
L 353.105455 -171.072 
L 352.788099 -171.072 
L 352.470744 -171.072 
L 352.153388 -171.072 
L 351.836033 -171.072 
L 351.518678 -171.072 
L 351.201322 -171.072 
L 350.883967 -171.072 
L 350.566612 -171.072 
L 350.249256 -171.072 
L 349.931901 -171.072 
L 349.614545 -171.072 
L 349.29719 -171.072 
L 348.979835 -171.072 
L 348.662479 -171.072 
L 348.345124 -171.072 
L 348.027769 -171.072 
L 347.710413 -171.072 
L 347.393058 -171.072 
L 347.075702 -171.072 
L 346.758347 -171.072 
L 346.440992 -171.072 
L 346.123636 -171.072 
L 345.806281 -171.072 
L 345.488926 -171.072 
L 345.17157 -171.072 
L 344.854215 -171.072 
L 344.53686 -171.072 
L 344.219504 -171.072 
L 343.902149 -171.072 
L 343.584793 -171.072 
L 343.267438 -171.072 
L 342.950083 -171.072 
L 342.632727 -171.072 
L 342.315372 -171.072 
L 341.998017 -171.072 
L 341.680661 -171.072 
L 341.363306 -171.072 
L 341.04595 -171.072 
L 340.728595 -171.072 
L 340.41124 -171.072 
L 340.093884 -171.072 
L 339.776529 -171.072 
L 339.459174 -171.072 
L 339.141818 -171.072 
L 338.824463 -171.072 
L 338.507107 -171.072 
L 338.189752 -171.072 
L 337.872397 -171.072 
L 337.555041 -171.072 
L 337.237686 -171.072 
L 336.920331 -171.072 
L 336.602975 -171.072 
L 336.28562 -171.072 
L 335.968264 -171.072 
L 335.650909 -171.072 
L 335.333554 -171.072 
L 335.016198 -171.072 
L 334.698843 -171.072 
L 334.381488 -171.072 
L 334.064132 -171.072 
L 333.746777 -171.072 
L 333.429421 -171.072 
L 333.112066 -171.072 
L 332.794711 -171.072 
L 332.477355 -171.072 
L 332.16 -171.072 
L 331.842645 -171.072 
L 331.525289 -171.072 
L 331.207934 -171.072 
L 330.890579 -171.072 
L 330.573223 -171.072 
L 330.255868 -171.072 
L 329.938512 -171.072 
L 329.621157 -171.072 
L 329.303802 -171.072 
L 328.986446 -171.072 
L 328.669091 -171.072 
L 328.351736 -171.072 
L 328.03438 -171.072 
L 327.717025 -171.072 
L 327.399669 -171.072 
L 327.082314 -171.072 
L 326.764959 -171.072 
L 326.447603 -171.072 
L 326.130248 -171.072 
L 325.812893 -171.072 
L 325.495537 -171.072 
L 325.178182 -171.072 
L 324.860826 -171.072 
L 324.543471 -171.072 
L 324.226116 -171.072 
L 323.90876 -171.072 
L 323.591405 -171.072 
L 323.27405 -171.072 
L 322.956694 -171.072 
L 322.639339 -171.072 
L 322.321983 -171.072 
L 322.004628 -171.072 
L 321.687273 -171.072 
L 321.369917 -171.072 
L 321.052562 -171.072 
L 320.735207 -171.072 
L 320.417851 -171.072 
L 320.100496 -171.072 
L 319.78314 -171.072 
L 319.465785 -171.072 
L 319.14843 -171.072 
L 318.831074 -171.072 
L 318.513719 -171.072 
L 318.196364 -171.072 
L 317.879008 -171.072 
L 317.561653 -171.072 
L 317.244298 -171.072 
L 316.926942 -171.072 
L 316.609587 -171.072 
L 316.292231 -171.072 
L 315.974876 -171.072 
L 315.657521 -171.072 
L 315.340165 -171.072 
L 315.02281 -171.072 
L 314.705455 -171.072 
L 314.388099 -171.072 
L 314.070744 -171.072 
L 313.753388 -171.072 
L 313.436033 -171.072 
L 313.118678 -171.072 
L 312.801322 -171.072 
L 312.483967 -171.072 
L 312.166612 -171.072 
L 311.849256 -171.072 
L 311.531901 -171.072 
L 311.214545 -171.072 
L 310.89719 -171.072 
L 310.579835 -171.072 
L 310.262479 -171.072 
L 309.945124 -171.072 
L 309.627769 -171.072 
L 309.310413 -171.072 
L 308.993058 -171.072 
L 308.675702 -171.072 
L 308.358347 -171.072 
L 308.040992 -171.072 
L 307.723636 -171.072 
L 307.406281 -171.072 
L 307.088926 -171.072 
L 306.77157 -171.072 
L 306.454215 -171.072 
L 306.13686 -171.072 
L 305.819504 -171.072 
L 305.502149 -171.072 
L 305.184793 -171.072 
L 304.867438 -171.072 
L 304.550083 -171.072 
L 304.232727 -171.072 
L 303.915372 -171.072 
L 303.598017 -171.072 
L 303.280661 -171.072 
L 302.963306 -171.072 
L 302.64595 -171.072 
L 302.328595 -171.072 
L 302.01124 -171.072 
L 301.693884 -171.072 
L 301.376529 -171.072 
L 301.059174 -171.072 
L 300.741818 -171.072 
L 300.424463 -171.072 
L 300.107107 -171.072 
L 299.789752 -171.072 
L 299.472397 -171.072 
L 299.155041 -171.072 
L 298.837686 -171.072 
L 298.520331 -171.072 
L 298.202975 -171.072 
L 297.88562 -171.072 
L 297.568264 -171.072 
L 297.250909 -171.072 
L 296.933554 -171.072 
L 296.616198 -171.072 
L 296.298843 -171.072 
L 295.981488 -171.072 
L 295.664132 -171.072 
L 295.346777 -171.072 
L 295.029421 -171.072 
L 294.712066 -171.072 
L 294.394711 -171.072 
L 294.077355 -171.072 
L 293.76 -171.072 
L 293.442645 -171.072 
L 293.125289 -171.072 
L 292.807934 -171.072 
L 292.490579 -171.072 
L 292.173223 -171.072 
L 291.855868 -171.072 
L 291.538512 -171.072 
L 291.221157 -171.072 
L 290.903802 -171.072 
L 290.586446 -171.072 
L 290.269091 -171.072 
L 289.951736 -171.072 
L 289.63438 -171.072 
L 289.317025 -171.072 
L 288.999669 -171.072 
L 288.682314 -171.072 
L 288.364959 -171.072 
L 288.047603 -171.072 
L 287.730248 -171.072 
L 287.412893 -171.072 
L 287.095537 -171.072 
L 286.778182 -171.072 
L 286.460826 -171.072 
L 286.143471 -171.072 
L 285.826116 -171.072 
L 285.50876 -171.072 
L 285.191405 -171.072 
L 284.87405 -171.072 
L 284.556694 -171.072 
L 284.239339 -171.072 
L 283.921983 -171.072 
L 283.604628 -171.072 
L 283.287273 -171.072 
L 282.969917 -171.072 
L 282.652562 -171.072 
L 282.335207 -171.072 
L 282.017851 -171.072 
L 281.700496 -171.072 
L 281.38314 -171.072 
L 281.065785 -171.072 
L 280.74843 -171.072 
L 280.431074 -171.072 
L 280.113719 -171.072 
L 279.796364 -171.072 
L 279.479008 -171.072 
L 279.161653 -171.072 
L 278.844298 -171.072 
L 278.526942 -171.072 
L 278.209587 -171.072 
L 277.892231 -171.072 
L 277.574876 -171.072 
L 277.257521 -171.072 
L 276.940165 -171.072 
L 276.62281 -171.072 
L 276.305455 -171.072 
L 275.988099 -171.072 
L 275.670744 -171.072 
L 275.353388 -171.072 
L 275.036033 -171.072 
L 274.718678 -171.072 
L 274.401322 -171.072 
L 274.083967 -171.072 
L 273.766612 -171.072 
L 273.449256 -171.072 
L 273.131901 -171.072 
L 272.814545 -171.072 
L 272.49719 -171.072 
L 272.179835 -171.072 
L 271.862479 -171.072 
L 271.545124 -171.072 
L 271.227769 -171.072 
L 270.910413 -171.072 
L 270.593058 -171.072 
L 270.275702 -171.072 
L 269.958347 -171.072 
L 269.640992 -171.072 
L 269.323636 -171.072 
L 269.006281 -171.072 
L 268.688926 -171.072 
L 268.37157 -171.072 
L 268.054215 -171.072 
L 267.73686 -171.072 
L 267.419504 -171.072 
L 267.102149 -171.072 
L 266.784793 -171.072 
L 266.467438 -171.072 
L 266.150083 -171.072 
L 265.832727 -171.072 
L 265.515372 -171.072 
L 265.198017 -171.072 
L 264.880661 -171.072 
L 264.563306 -171.072 
L 264.24595 -171.072 
L 263.928595 -171.072 
L 263.61124 -171.072 
L 263.293884 -171.072 
L 262.976529 -171.072 
L 262.659174 -171.072 
L 262.341818 -171.072 
L 262.024463 -171.072 
L 261.707107 -171.072 
L 261.389752 -171.072 
L 261.072397 -171.072 
L 260.755041 -171.072 
L 260.437686 -171.072 
L 260.120331 -171.072 
L 259.802975 -171.072 
L 259.48562 -171.072 
L 259.168264 -171.072 
L 258.850909 -171.072 
L 258.533554 -171.072 
L 258.216198 -171.072 
L 257.898843 -171.072 
L 257.581488 -171.072 
L 257.264132 -171.072 
L 256.946777 -171.072 
L 256.629421 -171.072 
L 256.312066 -171.072 
L 255.994711 -171.072 
L 255.677355 -171.072 
L 255.36 -171.072 
L 255.042645 -171.072 
L 254.725289 -171.072 
L 254.407934 -171.072 
L 254.090579 -171.072 
L 253.773223 -171.072 
L 253.455868 -171.072 
L 253.138512 -171.072 
L 252.821157 -171.072 
L 252.503802 -171.072 
L 252.186446 -171.072 
L 251.869091 -171.072 
L 251.551736 -171.072 
L 251.23438 -171.072 
L 250.917025 -171.072 
L 250.599669 -171.072 
L 250.282314 -171.072 
L 249.964959 -171.072 
L 249.647603 -171.072 
L 249.330248 -171.072 
L 249.012893 -171.072 
L 248.695537 -171.072 
L 248.378182 -171.072 
L 248.060826 -171.072 
L 247.743471 -171.072 
L 247.426116 -171.072 
L 247.10876 -171.072 
L 246.791405 -171.072 
L 246.47405 -171.072 
L 246.156694 -171.072 
L 245.839339 -171.072 
L 245.521983 -171.072 
L 245.204628 -171.072 
L 244.887273 -171.072 
L 244.569917 -171.072 
L 244.252562 -171.072 
L 243.935207 -171.072 
L 243.617851 -171.072 
L 243.300496 -171.072 
L 242.98314 -171.072 
L 242.665785 -171.072 
L 242.34843 -171.072 
L 242.031074 -171.072 
L 241.713719 -171.072 
L 241.396364 -171.072 
L 241.079008 -171.072 
L 240.761653 -171.072 
L 240.444298 -171.072 
L 240.126942 -171.072 
L 239.809587 -171.072 
L 239.492231 -171.072 
L 239.174876 -171.072 
L 238.857521 -171.072 
L 238.540165 -171.072 
L 238.22281 -171.072 
L 237.905455 -171.072 
L 237.588099 -171.072 
L 237.270744 -171.072 
L 236.953388 -171.072 
L 236.636033 -171.072 
L 236.318678 -171.072 
L 236.001322 -171.072 
L 235.683967 -171.072 
L 235.366612 -171.072 
L 235.049256 -171.072 
L 234.731901 -171.072 
L 234.414545 -171.072 
L 234.09719 -171.072 
L 233.779835 -171.072 
L 233.462479 -171.072 
L 233.145124 -171.072 
L 232.827769 -171.072 
L 232.510413 -171.072 
L 232.193058 -171.072 
L 231.875702 -171.072 
L 231.558347 -171.072 
L 231.240992 -171.072 
L 230.923636 -171.072 
L 230.606281 -171.072 
L 230.288926 -171.072 
L 229.97157 -171.072 
L 229.654215 -171.072 
L 229.33686 -171.072 
L 229.019504 -171.072 
L 228.702149 -171.072 
L 228.384793 -171.072 
L 228.067438 -171.072 
L 227.750083 -171.072 
L 227.432727 -171.072 
L 227.115372 -171.072 
L 226.798017 -171.072 
L 226.480661 -171.072 
L 226.163306 -171.072 
L 225.84595 -171.072 
L 225.528595 -171.072 
L 225.21124 -171.072 
L 224.893884 -171.072 
L 224.576529 -171.072 
L 224.259174 -171.072 
L 223.941818 -171.072 
L 223.624463 -171.072 
L 223.307107 -171.072 
L 222.989752 -171.072 
L 222.672397 -171.072 
L 222.355041 -171.072 
L 222.037686 -171.072 
L 221.720331 -171.072 
L 221.402975 -171.072 
L 221.08562 -171.072 
L 220.768264 -171.072 
L 220.450909 -171.072 
L 220.133554 -171.072 
L 219.816198 -171.072 
L 219.498843 -171.072 
L 219.181488 -171.072 
L 218.864132 -171.072 
L 218.546777 -171.072 
L 218.229421 -171.072 
L 217.912066 -171.072 
L 217.594711 -171.072 
L 217.277355 -171.072 
L 216.96 -171.072 
L 216.642645 -171.072 
L 216.325289 -171.072 
L 216.007934 -171.072 
L 215.690579 -171.072 
L 215.373223 -171.072 
L 215.055868 -171.072 
L 214.738512 -171.072 
L 214.421157 -171.072 
L 214.103802 -171.072 
L 213.786446 -171.072 
L 213.469091 -171.072 
L 213.151736 -171.072 
L 212.83438 -171.072 
L 212.517025 -171.072 
L 212.199669 -171.072 
L 211.882314 -171.072 
L 211.564959 -171.072 
L 211.247603 -171.072 
L 210.930248 -171.072 
L 210.612893 -171.072 
L 210.295537 -171.072 
L 209.978182 -171.072 
L 209.660826 -171.072 
L 209.343471 -171.072 
L 209.026116 -171.072 
L 208.70876 -171.072 
L 208.391405 -171.072 
L 208.07405 -171.072 
L 207.756694 -171.072 
L 207.439339 -171.072 
L 207.121983 -171.072 
L 206.804628 -171.072 
L 206.487273 -171.072 
L 206.169917 -171.072 
L 205.852562 -171.072 
L 205.535207 -171.072 
L 205.217851 -171.072 
L 204.900496 -171.072 
L 204.58314 -171.072 
L 204.265785 -171.072 
L 203.94843 -171.072 
L 203.631074 -171.072 
L 203.313719 -171.072 
L 202.996364 -171.072 
L 202.679008 -171.072 
L 202.361653 -171.072 
L 202.044298 -171.072 
L 201.726942 -171.072 
L 201.409587 -171.072 
L 201.092231 -171.072 
L 200.774876 -171.072 
L 200.457521 -171.072 
L 200.140165 -171.072 
L 199.82281 -171.072 
L 199.505455 -171.072 
L 199.188099 -171.072 
L 198.870744 -171.072 
L 198.553388 -171.072 
L 198.236033 -171.072 
L 197.918678 -171.072 
L 197.601322 -171.072 
L 197.283967 -171.072 
L 196.966612 -171.072 
L 196.649256 -171.072 
L 196.331901 -171.072 
L 196.014545 -171.072 
L 195.69719 -171.072 
L 195.379835 -171.072 
L 195.062479 -171.072 
L 194.745124 -171.072 
L 194.427769 -171.072 
L 194.110413 -171.072 
L 193.793058 -171.072 
L 193.475702 -171.072 
L 193.158347 -171.072 
L 192.840992 -171.072 
L 192.523636 -171.072 
L 192.206281 -171.072 
L 191.888926 -171.072 
L 191.57157 -171.072 
L 191.254215 -171.072 
L 190.93686 -171.072 
L 190.619504 -171.072 
L 190.302149 -171.072 
L 189.984793 -171.072 
L 189.667438 -171.072 
L 189.350083 -171.072 
L 189.032727 -171.072 
L 188.715372 -171.072 
L 188.398017 -171.072 
L 188.080661 -171.072 
L 187.763306 -171.072 
L 187.44595 -171.072 
L 187.128595 -171.072 
L 186.81124 -171.072 
L 186.493884 -171.072 
L 186.176529 -171.072 
L 185.859174 -171.072 
L 185.541818 -171.072 
L 185.224463 -171.072 
L 184.907107 -171.072 
L 184.589752 -171.072 
L 184.272397 -171.072 
L 183.955041 -171.072 
L 183.637686 -171.072 
L 183.320331 -171.072 
L 183.002975 -171.072 
L 182.68562 -171.072 
L 182.368264 -171.072 
L 182.050909 -171.072 
L 181.733554 -171.072 
L 181.416198 -171.072 
L 181.098843 -171.072 
L 180.781488 -171.072 
L 180.464132 -171.072 
L 180.146777 -171.072 
L 179.829421 -171.072 
L 179.512066 -171.072 
L 179.194711 -171.072 
L 178.877355 -171.072 
L 178.56 -171.072 
L 178.242645 -171.072 
L 177.925289 -171.072 
L 177.607934 -171.072 
L 177.290579 -171.072 
L 176.973223 -171.072 
L 176.655868 -171.072 
L 176.338512 -171.072 
L 176.021157 -171.072 
L 175.703802 -171.072 
L 175.386446 -171.072 
L 175.069091 -171.072 
L 174.751736 -171.072 
L 174.43438 -171.072 
L 174.117025 -171.072 
L 173.799669 -171.072 
L 173.482314 -171.072 
L 173.164959 -171.072 
L 172.847603 -171.072 
L 172.530248 -171.072 
L 172.212893 -171.072 
L 171.895537 -171.072 
L 171.578182 -171.072 
L 171.260826 -171.072 
L 170.943471 -171.072 
L 170.626116 -171.072 
L 170.30876 -171.072 
L 169.991405 -171.072 
L 169.67405 -171.072 
L 169.356694 -171.072 
L 169.039339 -171.072 
L 168.721983 -171.072 
L 168.404628 -171.072 
L 168.087273 -171.072 
L 167.769917 -171.072 
L 167.452562 -171.072 
L 167.135207 -171.072 
L 166.817851 -171.072 
L 166.500496 -171.072 
L 166.18314 -171.072 
L 165.865785 -171.072 
L 165.54843 -171.072 
L 165.231074 -171.072 
L 164.913719 -171.072 
L 164.596364 -171.072 
L 164.279008 -171.072 
L 163.961653 -171.072 
L 163.644298 -171.072 
L 163.326942 -171.072 
L 163.009587 -171.072 
L 162.692231 -171.072 
L 162.374876 -171.072 
L 162.057521 -171.072 
L 161.740165 -171.072 
L 161.42281 -171.072 
L 161.105455 -171.072 
L 160.788099 -171.072 
L 160.470744 -171.072 
L 160.153388 -171.072 
L 159.836033 -171.072 
L 159.518678 -171.072 
L 159.201322 -171.072 
L 158.883967 -171.072 
L 158.566612 -171.072 
L 158.249256 -171.072 
L 157.931901 -171.072 
L 157.614545 -171.072 
L 157.29719 -171.072 
L 156.979835 -171.072 
L 156.662479 -171.072 
L 156.345124 -171.072 
L 156.027769 -171.072 
L 155.710413 -171.072 
L 155.393058 -171.072 
L 155.075702 -171.072 
L 154.758347 -171.072 
L 154.440992 -171.072 
L 154.123636 -171.072 
L 153.806281 -171.072 
L 153.488926 -171.072 
L 153.17157 -171.072 
L 152.854215 -171.072 
L 152.53686 -171.072 
L 152.219504 -171.072 
L 151.902149 -171.072 
L 151.584793 -171.072 
L 151.267438 -171.072 
L 150.950083 -171.072 
L 150.632727 -171.072 
L 150.315372 -171.072 
L 149.998017 -171.072 
L 149.680661 -171.072 
L 149.363306 -171.072 
L 149.04595 -171.072 
L 148.728595 -171.072 
L 148.41124 -171.072 
L 148.093884 -171.072 
L 147.776529 -171.072 
L 147.459174 -171.072 
L 147.141818 -171.072 
L 146.824463 -171.072 
L 146.507107 -171.072 
L 146.189752 -171.072 
L 145.872397 -171.072 
L 145.555041 -171.072 
L 145.237686 -171.072 
L 144.920331 -171.072 
L 144.602975 -171.072 
L 144.28562 -171.072 
L 143.968264 -171.072 
L 143.650909 -171.072 
L 143.333554 -171.072 
L 143.016198 -171.072 
L 142.698843 -171.072 
L 142.381488 -171.072 
L 142.064132 -171.072 
L 141.746777 -171.072 
L 141.429421 -171.072 
L 141.112066 -171.072 
L 140.794711 -171.072 
L 140.477355 -171.072 
L 140.16 -171.072 
L 139.842645 -171.072 
L 139.525289 -171.072 
L 139.207934 -171.072 
L 138.890579 -171.072 
L 138.573223 -171.072 
L 138.255868 -171.072 
L 137.938512 -171.072 
L 137.621157 -171.072 
L 137.303802 -171.072 
L 136.986446 -171.072 
L 136.669091 -171.072 
L 136.351736 -171.072 
L 136.03438 -171.072 
L 135.717025 -171.072 
L 135.399669 -171.072 
L 135.082314 -171.072 
L 134.764959 -171.072 
L 134.447603 -171.072 
L 134.130248 -171.072 
L 133.812893 -171.072 
L 133.495537 -171.072 
L 133.178182 -171.072 
L 132.860826 -171.072 
L 132.543471 -171.072 
L 132.226116 -171.072 
L 131.90876 -171.072 
L 131.591405 -171.072 
L 131.27405 -171.072 
L 130.956694 -171.072 
L 130.639339 -171.072 
L 130.321983 -171.072 
L 130.004628 -171.072 
L 129.687273 -171.072 
L 129.369917 -171.072 
L 129.052562 -171.072 
L 128.735207 -171.072 
L 128.417851 -171.072 
L 128.100496 -171.072 
L 127.78314 -171.072 
L 127.465785 -171.072 
L 127.14843 -171.072 
L 126.831074 -171.072 
L 126.513719 -171.072 
L 126.196364 -171.072 
L 125.879008 -171.072 
L 125.561653 -171.072 
L 125.244298 -171.072 
L 124.926942 -171.072 
L 124.609587 -171.072 
L 124.292231 -171.072 
L 123.974876 -171.072 
L 123.657521 -171.072 
L 123.340165 -171.072 
L 123.02281 -171.072 
L 122.705455 -171.072 
L 122.388099 -171.072 
L 122.070744 -171.072 
L 121.753388 -171.072 
L 121.436033 -171.072 
L 121.118678 -171.072 
L 120.801322 -171.072 
L 120.483967 -171.072 
L 120.166612 -171.072 
L 119.849256 -171.072 
L 119.531901 -171.072 
L 119.214545 -171.072 
L 118.89719 -171.072 
L 118.579835 -171.072 
L 118.262479 -171.072 
L 117.945124 -171.072 
L 117.627769 -171.072 
L 117.310413 -171.072 
L 116.993058 -171.072 
L 116.675702 -171.072 
L 116.358347 -171.072 
L 116.040992 -171.072 
L 115.723636 -171.072 
L 115.406281 -171.072 
L 115.088926 -171.072 
L 114.77157 -171.072 
L 114.454215 -171.072 
L 114.13686 -171.072 
L 113.819504 -171.072 
L 113.502149 -171.072 
L 113.184793 -171.072 
L 112.867438 -171.072 
L 112.550083 -171.072 
L 112.232727 -171.072 
L 111.915372 -171.072 
L 111.598017 -171.072 
L 111.280661 -171.072 
L 110.963306 -171.072 
L 110.64595 -171.072 
L 110.328595 -171.072 
L 110.01124 -171.072 
L 109.693884 -171.072 
L 109.376529 -171.072 
L 109.059174 -171.072 
L 108.741818 -171.072 
L 108.424463 -171.072 
L 108.107107 -171.072 
L 107.789752 -171.072 
L 107.472397 -171.072 
L 107.155041 -171.072 
L 106.837686 -171.072 
L 106.520331 -171.072 
L 106.202975 -171.072 
L 105.88562 -171.072 
L 105.568264 -171.072 
L 105.250909 -171.072 
L 104.933554 -171.072 
L 104.616198 -171.072 
L 104.298843 -171.072 
L 103.981488 -171.072 
L 103.664132 -171.072 
L 103.346777 -171.072 
L 103.029421 -171.072 
L 102.712066 -171.072 
L 102.394711 -171.072 
L 102.077355 -171.072 
L 101.76 -171.072 
L 101.442645 -171.072 
L 101.125289 -171.072 
L 100.807934 -171.072 
L 100.490579 -171.072 
L 100.173223 -171.072 
L 99.855868 -171.072 
L 99.538512 -171.072 
L 99.221157 -171.072 
L 98.903802 -171.072 
L 98.586446 -171.072 
L 98.269091 -171.072 
L 97.951736 -171.072 
L 97.63438 -171.072 
L 97.317025 -171.072 
L 96.999669 -171.072 
L 96.682314 -171.072 
L 96.364959 -171.072 
L 96.047603 -171.072 
L 95.730248 -171.072 
L 95.412893 -171.072 
L 95.095537 -171.072 
L 94.778182 -171.072 
L 94.460826 -171.072 
L 94.143471 -171.072 
L 93.826116 -171.072 
L 93.50876 -171.072 
L 93.191405 -171.072 
L 92.87405 -171.072 
L 92.556694 -171.072 
L 92.239339 -171.072 
L 91.921983 -171.072 
L 91.604628 -171.072 
L 91.287273 -171.072 
L 90.969917 -171.072 
L 90.652562 -171.072 
L 90.335207 -171.072 
L 90.017851 -171.072 
L 89.700496 -171.072 
L 89.38314 -171.072 
L 89.065785 -171.072 
L 88.74843 -171.072 
L 88.431074 -171.072 
L 88.113719 -171.072 
L 87.796364 -171.072 
L 87.479008 -171.072 
L 87.161653 -171.072 
L 86.844298 -171.072 
L 86.526942 -171.072 
L 86.209587 -171.072 
L 85.892231 -171.072 
L 85.574876 -171.072 
L 85.257521 -171.072 
L 84.940165 -171.072 
L 84.62281 -171.072 
L 84.305455 -171.072 
L 83.988099 -171.072 
L 83.670744 -171.072 
L 83.353388 -171.072 
L 83.036033 -171.072 
L 82.718678 -171.072 
L 82.401322 -171.072 
L 82.083967 -171.072 
L 81.766612 -171.072 
L 81.449256 -171.072 
L 81.131901 -171.072 
L 80.814545 -171.072 
L 80.49719 -171.072 
L 80.179835 -171.072 
L 79.862479 -171.072 
L 79.545124 -171.072 
L 79.227769 -171.072 
L 78.910413 -171.072 
L 78.593058 -171.072 
L 78.275702 -171.072 
L 77.958347 -171.072 
L 77.640992 -171.072 
L 77.323636 -171.072 
L 77.006281 -171.072 
L 76.688926 -171.072 
L 76.37157 -171.072 
L 76.054215 -171.072 
L 75.73686 -171.072 
L 75.419504 -171.072 
L 75.102149 -171.072 
L 74.784793 -171.072 
L 74.467438 -171.072 
L 74.150083 -171.072 
L 73.832727 -171.072 
z
" style="stroke: #87ceeb; stroke-opacity: 0.75"/>
    </defs>
    <g clip-path="url(#pfa78e2b4ef)">
     <use xlink:href="#m334547c2b8" x="0" y="345.6" style="fill: #87ceeb; fill-opacity: 0.75; stroke: #87ceeb; stroke-opacity: 0.75"/>
    </g>
   </g>
   <g id="matplotlib.axis_1">
    <g id="xtick_1">
     <g id="line2d_1">
      <defs>
       <path id="m11e0c29474" d="M 0 0 
L 0 3.5 
" style="stroke: #000000; stroke-width: 0.8"/>
      </defs>
      <g>
       <use xlink:href="#m11e0c29474" x="73.832727" y="307.584" style="stroke: #000000; stroke-width: 0.8"/>
      </g>
     </g>
     <g id="text_1">
      <!-- 0 -->
      <g transform="translate(70.531868 322.161969) scale(0.11 -0.11)">
       <defs>
        <path id="AndaleMono-30" d="M 1913 4494 
Q 2613 4494 2989 3892 
Q 3366 3291 3366 2203 
Q 3366 1150 3000 533 
Q 2634 -84 1913 -84 
Q 1216 -84 837 516 
Q 459 1116 459 2203 
Q 459 3259 826 3876 
Q 1194 4494 1913 4494 
z
M 1913 366 
Q 2375 366 2598 805 
Q 2822 1244 2822 2203 
Q 2822 3166 2598 3602 
Q 2375 4038 1913 4038 
Q 1456 4038 1231 3591 
Q 1006 3144 1006 2203 
Q 1006 1250 1229 808 
Q 1453 366 1913 366 
z
M 1900 2672 
Q 2097 2672 2233 2536 
Q 2369 2400 2369 2203 
Q 2369 2000 2231 1854 
Q 2094 1709 1900 1709 
Q 1709 1709 1573 1854 
Q 1438 2000 1438 2203 
Q 1438 2403 1570 2537 
Q 1703 2672 1900 2672 
z
" transform="scale(0.015625)"/>
       </defs>
       <use xlink:href="#AndaleMono-30"/>
      </g>
     </g>
    </g>
    <g id="xtick_2">
     <g id="line2d_2">
      <g>
       <use xlink:href="#m11e0c29474" x="137.303802" y="307.584" style="stroke: #000000; stroke-width: 0.8"/>
      </g>
     </g>
     <g id="text_2">
      <!-- 200 -->
      <g transform="translate(127.401224 322.161969) scale(0.11 -0.11)">
       <defs>
        <path id="AndaleMono-32" d="M 3066 0 
L 641 0 
L 641 372 
Q 1563 1400 1838 1750 
Q 2113 2100 2284 2484 
Q 2456 2869 2456 3250 
Q 2456 3619 2232 3831 
Q 2009 4044 1606 4044 
Q 1297 4044 775 3853 
L 703 4294 
Q 1175 4494 1691 4494 
Q 2281 4494 2642 4161 
Q 3003 3828 3003 3272 
Q 3003 2875 2817 2484 
Q 2631 2094 2340 1734 
Q 2050 1375 1209 447 
L 3066 447 
L 3066 0 
z
" transform="scale(0.015625)"/>
       </defs>
       <use xlink:href="#AndaleMono-32"/>
       <use xlink:href="#AndaleMono-30" x="60.009766"/>
       <use xlink:href="#AndaleMono-30" x="120.019531"/>
      </g>
     </g>
    </g>
    <g id="xtick_3">
     <g id="line2d_3">
      <g>
       <use xlink:href="#m11e0c29474" x="200.774876" y="307.584" style="stroke: #000000; stroke-width: 0.8"/>
      </g>
     </g>
     <g id="text_3">
      <!-- 400 -->
      <g transform="translate(190.872298 322.161969) scale(0.11 -0.11)">
       <defs>
        <path id="AndaleMono-34" d="M 3353 1019 
L 2809 1019 
L 2809 0 
L 2297 0 
L 2297 1019 
L 378 1019 
L 378 1409 
L 2119 4409 
L 2809 4409 
L 2809 1466 
L 3353 1466 
L 3353 1019 
z
M 2297 1466 
L 2297 3903 
L 897 1466 
L 2297 1466 
z
" transform="scale(0.015625)"/>
       </defs>
       <use xlink:href="#AndaleMono-34"/>
       <use xlink:href="#AndaleMono-30" x="60.009766"/>
       <use xlink:href="#AndaleMono-30" x="120.019531"/>
      </g>
     </g>
    </g>
    <g id="xtick_4">
     <g id="line2d_4">
      <g>
       <use xlink:href="#m11e0c29474" x="264.24595" y="307.584" style="stroke: #000000; stroke-width: 0.8"/>
      </g>
     </g>
     <g id="text_4">
      <!-- 600 -->
      <g transform="translate(254.343372 322.161969) scale(0.11 -0.11)">
       <defs>
        <path id="AndaleMono-36" d="M 1131 2297 
Q 1544 2631 2028 2631 
Q 2588 2631 2961 2273 
Q 3334 1916 3334 1350 
Q 3334 728 3003 322 
Q 2672 -84 2119 -84 
Q 1413 -84 1000 564 
Q 588 1213 588 2150 
Q 588 3150 1017 3822 
Q 1447 4494 2194 4494 
Q 2709 4494 3084 4341 
L 3003 3884 
Q 2569 4044 2209 4044 
Q 1700 4044 1415 3556 
Q 1131 3069 1131 2297 
z
M 1147 1856 
Q 1147 1291 1412 828 
Q 1678 366 2081 366 
Q 2422 366 2606 616 
Q 2791 866 2791 1306 
Q 2791 1713 2587 1947 
Q 2384 2181 2016 2181 
Q 1538 2181 1147 1856 
z
" transform="scale(0.015625)"/>
       </defs>
       <use xlink:href="#AndaleMono-36"/>
       <use xlink:href="#AndaleMono-30" x="60.009766"/>
       <use xlink:href="#AndaleMono-30" x="120.019531"/>
      </g>
     </g>
    </g>
    <g id="xtick_5">
     <g id="line2d_5">
      <g>
       <use xlink:href="#m11e0c29474" x="327.717025" y="307.584" style="stroke: #000000; stroke-width: 0.8"/>
      </g>
     </g>
     <g id="text_5">
      <!-- 800 -->
      <g transform="translate(317.814447 322.161969) scale(0.11 -0.11)">
       <defs>
        <path id="AndaleMono-38" d="M 2363 2419 
Q 2813 2288 3061 1972 
Q 3309 1656 3309 1234 
Q 3309 628 2907 272 
Q 2506 -84 1919 -84 
Q 1303 -84 908 275 
Q 513 634 513 1228 
Q 513 1647 769 1965 
Q 1025 2284 1484 2419 
Q 1119 2513 898 2780 
Q 678 3047 678 3378 
Q 678 3803 1015 4148 
Q 1353 4494 1906 4494 
Q 2453 4494 2811 4150 
Q 3169 3806 3169 3378 
Q 3169 3056 2944 2786 
Q 2719 2516 2363 2419 
z
M 1906 2631 
Q 1922 2631 2056 2668 
Q 2191 2706 2286 2761 
Q 2381 2816 2462 2900 
Q 2544 2984 2594 3098 
Q 2644 3213 2644 3353 
Q 2644 3653 2428 3851 
Q 2213 4050 1906 4050 
Q 1609 4050 1396 3847 
Q 1184 3644 1184 3353 
Q 1184 3169 1261 3031 
Q 1338 2894 1452 2809 
Q 1566 2725 1714 2678 
Q 1863 2631 1906 2631 
z
M 1906 2194 
Q 1050 1944 1050 1253 
Q 1050 850 1309 608 
Q 1569 366 1919 366 
Q 2281 366 2529 605 
Q 2778 844 2778 1253 
Q 2778 1563 2606 1808 
Q 2434 2053 1906 2194 
z
" transform="scale(0.015625)"/>
       </defs>
       <use xlink:href="#AndaleMono-38"/>
       <use xlink:href="#AndaleMono-30" x="60.009766"/>
       <use xlink:href="#AndaleMono-30" x="120.019531"/>
      </g>
     </g>
    </g>
    <g id="xtick_6">
     <g id="line2d_6">
      <g>
       <use xlink:href="#m11e0c29474" x="391.188099" y="307.584" style="stroke: #000000; stroke-width: 0.8"/>
      </g>
     </g>
     <g id="text_6">
      <!-- 1000 -->
      <g transform="translate(377.984662 322.161969) scale(0.11 -0.11)">
       <defs>
        <path id="AndaleMono-31" d="M 3181 0 
L 863 0 
L 863 447 
L 1797 447 
L 1797 3872 
L 916 3431 
L 916 3944 
L 1869 4434 
L 2309 4434 
L 2309 447 
L 3181 447 
L 3181 0 
z
" transform="scale(0.015625)"/>
       </defs>
       <use xlink:href="#AndaleMono-31"/>
       <use xlink:href="#AndaleMono-30" x="60.009766"/>
       <use xlink:href="#AndaleMono-30" x="120.019531"/>
       <use xlink:href="#AndaleMono-30" x="180.029297"/>
      </g>
     </g>
    </g>
   </g>
   <g id="matplotlib.axis_2">
    <g id="ytick_1">
     <g id="line2d_7">
      <defs>
       <path id="m010c31ce40" d="M 0 0 
L -3.5 0 
" style="stroke: #000000; stroke-width: 0.8"/>
      </defs>
      <g>
       <use xlink:href="#m010c31ce40" x="57.6" y="295.488" style="stroke: #000000; stroke-width: 0.8"/>
      </g>
     </g>
     <g id="text_7">
      <!-- 1.00 -->
      <g transform="translate(17.591406 299.276984) scale(0.11 -0.11)">
       <defs>
        <path id="AndaleMono-2212" d="M 3397 2047 
L 441 2047 
L 441 2456 
L 3397 2456 
L 3397 2047 
z
" transform="scale(0.015625)"/>
        <path id="AndaleMono-2e" d="M 1900 716 
Q 2066 716 2178 603 
Q 2291 491 2291 325 
Q 2291 156 2177 36 
Q 2063 -84 1900 -84 
Q 1741 -84 1628 36 
Q 1516 156 1516 325 
Q 1516 494 1627 605 
Q 1738 716 1900 716 
z
" transform="scale(0.015625)"/>
       </defs>
       <use xlink:href="#AndaleMono-2212"/>
       <use xlink:href="#AndaleMono-31" x="60.009766"/>
       <use xlink:href="#AndaleMono-2e" x="120.019531"/>
       <use xlink:href="#AndaleMono-30" x="180.029297"/>
       <use xlink:href="#AndaleMono-30" x="240.039062"/>
      </g>
     </g>
    </g>
    <g id="ytick_2">
     <g id="line2d_8">
      <g>
       <use xlink:href="#m010c31ce40" x="57.6" y="265.248" style="stroke: #000000; stroke-width: 0.8"/>
      </g>
     </g>
     <g id="text_8">
      <!-- 0.75 -->
      <g transform="translate(17.591406 269.036984) scale(0.11 -0.11)">
       <defs>
        <path id="AndaleMono-37" d="M 3238 4044 
L 1491 0 
L 966 0 
L 2688 3963 
L 622 3963 
L 622 4409 
L 3238 4409 
L 3238 4044 
z
" transform="scale(0.015625)"/>
        <path id="AndaleMono-35" d="M 1356 2631 
Q 1569 2688 1772 2688 
Q 2397 2688 2759 2305 
Q 3122 1922 3122 1350 
Q 3122 750 2700 333 
Q 2278 -84 1672 -84 
Q 1094 -84 703 109 
L 806 544 
Q 1231 366 1684 366 
Q 2088 366 2336 625 
Q 2584 884 2584 1350 
Q 2584 1791 2350 2028 
Q 2116 2266 1747 2266 
Q 1478 2266 1216 2163 
L 909 2303 
L 909 4409 
L 2925 4409 
L 2925 3963 
L 1356 3963 
L 1356 2631 
z
" transform="scale(0.015625)"/>
       </defs>
       <use xlink:href="#AndaleMono-2212"/>
       <use xlink:href="#AndaleMono-30" x="60.009766"/>
       <use xlink:href="#AndaleMono-2e" x="120.019531"/>
       <use xlink:href="#AndaleMono-37" x="180.029297"/>
       <use xlink:href="#AndaleMono-35" x="240.039062"/>
      </g>
     </g>
    </g>
    <g id="ytick_3">
     <g id="line2d_9">
      <g>
       <use xlink:href="#m010c31ce40" x="57.6" y="235.008" style="stroke: #000000; stroke-width: 0.8"/>
      </g>
     </g>
     <g id="text_9">
      <!-- 0.50 -->
      <g transform="translate(17.591406 238.796984) scale(0.11 -0.11)">
       <use xlink:href="#AndaleMono-2212"/>
       <use xlink:href="#AndaleMono-30" x="60.009766"/>
       <use xlink:href="#AndaleMono-2e" x="120.019531"/>
       <use xlink:href="#AndaleMono-35" x="180.029297"/>
       <use xlink:href="#AndaleMono-30" x="240.039062"/>
      </g>
     </g>
    </g>
    <g id="ytick_4">
     <g id="line2d_10">
      <g>
       <use xlink:href="#m010c31ce40" x="57.6" y="204.768" style="stroke: #000000; stroke-width: 0.8"/>
      </g>
     </g>
     <g id="text_10">
      <!-- 0.25 -->
      <g transform="translate(17.591406 208.556984) scale(0.11 -0.11)">
       <use xlink:href="#AndaleMono-2212"/>
       <use xlink:href="#AndaleMono-30" x="60.009766"/>
       <use xlink:href="#AndaleMono-2e" x="120.019531"/>
       <use xlink:href="#AndaleMono-32" x="180.029297"/>
       <use xlink:href="#AndaleMono-35" x="240.039062"/>
      </g>
     </g>
    </g>
    <g id="ytick_5">
     <g id="line2d_11">
      <g>
       <use xlink:href="#m010c31ce40" x="57.6" y="174.528" style="stroke: #000000; stroke-width: 0.8"/>
      </g>
     </g>
     <g id="text_11">
      <!-- 0.00 -->
      <g transform="translate(24.193125 178.316984) scale(0.11 -0.11)">
       <use xlink:href="#AndaleMono-30"/>
       <use xlink:href="#AndaleMono-2e" x="60.009766"/>
       <use xlink:href="#AndaleMono-30" x="120.019531"/>
       <use xlink:href="#AndaleMono-30" x="180.029297"/>
      </g>
     </g>
    </g>
    <g id="ytick_6">
     <g id="line2d_12">
      <g>
       <use xlink:href="#m010c31ce40" x="57.6" y="144.288" style="stroke: #000000; stroke-width: 0.8"/>
      </g>
     </g>
     <g id="text_12">
      <!-- 0.25 -->
      <g transform="translate(24.193125 148.076984) scale(0.11 -0.11)">
       <use xlink:href="#AndaleMono-30"/>
       <use xlink:href="#AndaleMono-2e" x="60.009766"/>
       <use xlink:href="#AndaleMono-32" x="120.019531"/>
       <use xlink:href="#AndaleMono-35" x="180.029297"/>
      </g>
     </g>
    </g>
    <g id="ytick_7">
     <g id="line2d_13">
      <g>
       <use xlink:href="#m010c31ce40" x="57.6" y="114.048" style="stroke: #000000; stroke-width: 0.8"/>
      </g>
     </g>
     <g id="text_13">
      <!-- 0.50 -->
      <g transform="translate(24.193125 117.836984) scale(0.11 -0.11)">
       <use xlink:href="#AndaleMono-30"/>
       <use xlink:href="#AndaleMono-2e" x="60.009766"/>
       <use xlink:href="#AndaleMono-35" x="120.019531"/>
       <use xlink:href="#AndaleMono-30" x="180.029297"/>
      </g>
     </g>
    </g>
    <g id="ytick_8">
     <g id="line2d_14">
      <g>
       <use xlink:href="#m010c31ce40" x="57.6" y="83.808" style="stroke: #000000; stroke-width: 0.8"/>
      </g>
     </g>
     <g id="text_14">
      <!-- 0.75 -->
      <g transform="translate(24.193125 87.596984) scale(0.11 -0.11)">
       <use xlink:href="#AndaleMono-30"/>
       <use xlink:href="#AndaleMono-2e" x="60.009766"/>
       <use xlink:href="#AndaleMono-37" x="120.019531"/>
       <use xlink:href="#AndaleMono-35" x="180.029297"/>
      </g>
     </g>
    </g>
    <g id="ytick_9">
     <g id="line2d_15">
      <g>
       <use xlink:href="#m010c31ce40" x="57.6" y="53.568" style="stroke: #000000; stroke-width: 0.8"/>
      </g>
     </g>
     <g id="text_15">
      <!-- 1.00 -->
      <g transform="translate(24.193125 57.356984) scale(0.11 -0.11)">
       <use xlink:href="#AndaleMono-31"/>
       <use xlink:href="#AndaleMono-2e" x="60.009766"/>
       <use xlink:href="#AndaleMono-30" x="120.019531"/>
       <use xlink:href="#AndaleMono-30" x="180.029297"/>
      </g>
     </g>
    </g>
   </g>
   <g id="line2d_16">
    <path d="M 73.832727 174.528 
L 74.150083 168.584281 
L 76.054215 166.722326 
L 77.640992 164.871849 
L 80.179835 161.416998 
L 83.036033 156.890915 
L 84.305455 155.040605 
L 85.574876 153.48836 
L 89.38314 148.462542 
L 92.239339 145.134807 
L 94.143471 142.956991 
L 95.412893 141.793291 
L 97.317025 140.444606 
L 98.269091 140.045281 
L 99.855868 139.625271 
L 100.490579 139.579235 
L 101.442645 139.776198 
L 102.712066 140.223236 
L 104.933554 140.740778 
L 106.202975 141.40618 
L 107.472397 142.359367 
L 110.01124 144.331038 
L 111.915372 145.560752 
L 114.13686 147.296198 
L 115.088926 147.78408 
L 115.723636 147.924707 
L 116.993058 147.902929 
L 118.262479 147.604903 
L 121.118678 146.448489 
L 122.388099 145.57027 
L 123.657521 144.758378 
L 124.926942 144.256907 
L 128.735207 142.831403 
L 129.687273 142.099701 
L 130.956694 141.151356 
L 132.226116 140.203242 
L 132.860826 139.445781 
L 133.812893 137.969471 
L 136.669091 132.907266 
L 139.525289 129.160916 
L 140.16 127.840154 
L 140.794711 126.063478 
L 141.746777 122.557296 
L 142.698843 118.11759 
L 143.968264 111.143692 
L 145.555041 101.001251 
L 149.998017 71.48021 
L 151.584793 63.431737 
L 152.854215 58.065914 
L 153.806281 55.253654 
L 154.440992 54.135685 
L 155.075702 53.666086 
L 155.710413 53.568 
L 156.345124 53.713592 
L 158.249256 54.403182 
L 159.836033 54.536688 
L 160.470744 54.673046 
L 161.105455 55.082908 
L 161.740165 55.882786 
L 162.374876 57.157882 
L 163.009587 58.926928 
L 163.961653 62.303135 
L 164.913719 66.441441 
L 166.18314 73.114654 
L 167.769917 82.969297 
L 171.260826 105.338785 
L 173.799669 119.276684 
L 174.751736 123.568431 
L 175.703802 126.84092 
L 176.655868 129.242519 
L 177.925289 131.594219 
L 179.512066 134.413763 
L 180.464132 136.506334 
L 184.272397 145.707918 
L 185.541818 147.966934 
L 186.493884 149.203354 
L 187.44595 150.024426 
L 188.398017 150.410818 
L 189.032727 150.490447 
L 189.984793 150.381413 
L 193.793058 149.381976 
L 196.966612 147.972368 
L 197.918678 147.894027 
L 198.553388 147.986913 
L 199.505455 148.417301 
L 201.726942 149.751278 
L 203.313719 150.629294 
L 205.217851 151.73147 
L 208.70876 153.257645 
L 210.930248 153.594667 
L 211.882314 153.544672 
L 213.151736 153.098696 
L 215.055868 152.348344 
L 216.325289 151.603009 
L 218.546777 149.825287 
L 219.816198 148.430944 
L 221.08562 147.016727 
L 222.037686 146.326014 
L 222.989752 146.006749 
L 223.624463 145.964752 
L 224.259174 146.103967 
L 224.893884 146.435051 
L 225.528595 146.997823 
L 226.480661 148.171526 
L 227.432727 149.70755 
L 228.384793 151.647139 
L 229.654215 154.843427 
L 231.558347 160.357601 
L 242.031074 192.440221 
L 243.617851 196.665258 
L 244.569917 198.74615 
L 245.521983 200.421995 
L 246.47405 201.694262 
L 247.426116 202.620949 
L 248.060826 202.952033 
L 248.695537 203.091248 
L 249.330248 203.049251 
L 250.282314 202.729986 
L 250.917025 202.318667 
L 251.869091 201.380967 
L 253.773223 199.230713 
L 255.677355 197.692206 
L 256.629421 197.054947 
L 257.898843 196.411396 
L 260.437686 195.511328 
L 261.389752 195.461333 
L 263.293884 195.734776 
L 264.563306 196.100647 
L 266.467438 197.015671 
L 268.688926 198.226108 
L 270.593058 199.304722 
L 271.862479 200.01148 
L 273.449256 200.96376 
L 274.083967 201.137266 
L 275.036033 201.126816 
L 275.988099 200.907518 
L 276.940165 200.500164 
L 279.161653 199.406243 
L 280.113719 199.131008 
L 281.700496 198.837428 
L 282.969917 198.576784 
L 283.921983 198.645182 
L 284.87405 199.031574 
L 285.50876 199.532139 
L 286.460826 200.63097 
L 287.412893 202.150478 
L 288.682314 204.657119 
L 289.951736 207.620631 
L 292.490579 213.996003 
L 293.76 216.397306 
L 295.664132 219.813481 
L 296.616198 222.21508 
L 297.568264 225.487569 
L 298.520331 229.779316 
L 300.107107 238.314366 
L 302.328595 251.436338 
L 306.77157 279.438992 
L 308.040992 285.452017 
L 308.993058 289.096417 
L 309.945124 291.898118 
L 310.579835 293.173214 
L 311.214545 293.973092 
L 311.849256 294.382954 
L 312.801322 294.540679 
L 314.388099 294.731824 
L 316.926942 295.476407 
L 317.561653 295.217222 
L 317.879008 294.920315 
L 318.513719 293.802346 
L 319.14843 292.057267 
L 320.100496 288.479665 
L 321.369917 282.568974 
L 322.639339 275.794463 
L 323.90876 267.900561 
L 328.986446 234.277756 
L 330.255868 227.887079 
L 331.207934 224.042617 
L 332.16 221.215846 
L 332.794711 219.895084 
L 333.746777 218.487319 
L 336.28562 215.217241 
L 337.555041 212.934826 
L 338.824463 210.552172 
L 339.776529 209.19859 
L 340.728595 208.324477 
L 342.632727 206.956299 
L 343.584793 206.224597 
L 344.53686 205.73229 
L 346.440992 205.135218 
L 348.662479 204.297622 
L 349.614545 203.721934 
L 351.518678 202.435949 
L 352.788099 201.956783 
L 354.692231 201.263163 
L 355.961653 201.114392 
L 356.913719 201.180078 
L 357.865785 201.566062 
L 359.135207 202.414281 
L 361.356694 204.15006 
L 363.260826 205.432357 
L 366.117025 207.64982 
L 367.386446 208.315222 
L 368.338512 208.615332 
L 370.242645 209.019205 
L 371.512066 209.440164 
L 372.146777 209.474872 
L 373.416198 209.194452 
L 374.68562 208.770059 
L 375.637686 208.212217 
L 377.224463 207.009346 
L 378.493884 205.761361 
L 380.080661 203.975827 
L 382.619504 201.056523 
L 384.523636 198.803116 
L 388.331901 193.738456 
L 388.649256 193.428525 
L 393.092231 186.560741 
L 395.94843 182.9407 
L 397.852562 181.023406 
L 398.169917 180.735504 
L 398.487273 174.528 
L 398.487273 174.528 
" clip-path="url(#pfa78e2b4ef)" style="fill: none; stroke: #87ceeb; stroke-opacity: 0.75; stroke-linecap: square"/>
   </g>
   <g id="patch_3">
    <path d="M 57.6 307.584 
L 57.6 41.472 
" style="fill: none; stroke: #000000; stroke-width: 0.8; stroke-linejoin: miter; stroke-linecap: square"/>
   </g>
   <g id="patch_4">
    <path d="M 414.72 307.584 
L 414.72 41.472 
" style="fill: none; stroke: #000000; stroke-width: 0.8; stroke-linejoin: miter; stroke-linecap: square"/>
   </g>
   <g id="patch_5">
    <path d="M 57.6 307.584 
L 414.72 307.584 
" style="fill: none; stroke: #000000; stroke-width: 0.8; stroke-linejoin: miter; stroke-linecap: square"/>
   </g>
   <g id="patch_6">
    <path d="M 57.6 41.472 
L 414.72 41.472 
" style="fill: none; stroke: #000000; stroke-width: 0.8; stroke-linejoin: miter; stroke-linecap: square"/>
   </g>
  </g>
 </g>
 <defs>
  <clipPath id="pfa78e2b4ef">
   <rect x="57.6" y="41.472" width="357.12" height="266.112"/>
  </clipPath>
 </defs>
</svg>
