<?xml version="1.0" encoding="utf-8" standalone="no"?>
<!DOCTYPE svg PUBLIC "-//W3C//DTD SVG 1.1//EN"
  "http://www.w3.org/Graphics/SVG/1.1/DTD/svg11.dtd">
<svg xmlns:xlink="http://www.w3.org/1999/xlink" width="460.8pt" height="345.6pt" viewBox="0 0 460.8 345.6" xmlns="http://www.w3.org/2000/svg" version="1.1">
 <metadata>
  <rdf:RDF xmlns:dc="http://purl.org/dc/elements/1.1/" xmlns:cc="http://creativecommons.org/ns#" xmlns:rdf="http://www.w3.org/1999/02/22-rdf-syntax-ns#">
   <cc:Work>
    <dc:type rdf:resource="http://purl.org/dc/dcmitype/StillImage"/>
    <dc:date>2024-04-23T11:13:08.264264</dc:date>
    <dc:format>image/svg+xml</dc:format>
    <dc:creator>
     <cc:Agent>
      <dc:title>Matplotlib v3.8.3, https://matplotlib.org/</dc:title>
     </cc:Agent>
    </dc:creator>
   </cc:Work>
  </rdf:RDF>
 </metadata>
 <defs>
  <style type="text/css">*{stroke-linejoin: round; stroke-linecap: butt}</style>
 </defs>
 <g id="figure_1">
  <g id="patch_1">
   <path d="M 0 345.6 
L 460.8 345.6 
L 460.8 0 
L 0 0 
z
" style="fill: #ffffff"/>
  </g>
  <g id="axes_1">
   <g id="patch_2">
    <path d="M 57.6 307.584 
L 414.72 307.584 
L 414.72 41.472 
L 57.6 41.472 
z
" style="fill: #ffffff"/>
   </g>
   <g id="PolyCollection_1">
    <defs>
     <path id="m3cf195aacf" d="M 73.832727 -171.072 
L 73.832727 -171.072 
L 74.150083 -215.143607 
L 74.467438 -216.752416 
L 74.784793 -218.356209 
L 75.102149 -219.963089 
L 75.419504 -221.540214 
L 75.73686 -223.122724 
L 76.054215 -224.716979 
L 76.37157 -226.31124 
L 76.688926 -227.94296 
L 77.006281 -229.591853 
L 77.323636 -231.238294 
L 77.640992 -232.871339 
L 77.958347 -234.480416 
L 78.275702 -236.061721 
L 78.593058 -237.617287 
L 78.910413 -239.130784 
L 79.227769 -240.62718 
L 79.545124 -242.091841 
L 79.862479 -243.533385 
L 80.179835 -244.956527 
L 80.49719 -246.358915 
L 80.814545 -247.762584 
L 81.131901 -249.184753 
L 81.449256 -250.588557 
L 81.766612 -251.994845 
L 82.083967 -253.407701 
L 82.401322 -254.795597 
L 82.718678 -256.138903 
L 83.036033 -257.434815 
L 83.353388 -258.681396 
L 83.670744 -259.872948 
L 83.988099 -261.035378 
L 84.305455 -262.046756 
L 84.62281 -262.867592 
L 84.940165 -263.529321 
L 85.257521 -264.017816 
L 85.574876 -264.358979 
L 85.892231 -264.548089 
L 86.209587 -264.602106 
L 86.526942 -264.526655 
L 86.844298 -264.337952 
L 87.161653 -264.042867 
L 87.479008 -263.647106 
L 87.796364 -263.165313 
L 88.113719 -262.594591 
L 88.431074 -261.92999 
L 88.74843 -261.164358 
L 89.065785 -260.322765 
L 89.38314 -259.387822 
L 89.700496 -258.370678 
L 90.017851 -257.281083 
L 90.335207 -256.118322 
L 90.652562 -254.90821 
L 90.969917 -253.648043 
L 91.287273 -252.378165 
L 91.604628 -251.133917 
L 91.921983 -249.899266 
L 92.239339 -248.695227 
L 92.556694 -247.537942 
L 92.87405 -246.429346 
L 93.191405 -245.356557 
L 93.50876 -244.320672 
L 93.826116 -243.302923 
L 94.143471 -242.296977 
L 94.460826 -241.293976 
L 94.778182 -240.312238 
L 95.095537 -239.357106 
L 95.412893 -238.399594 
L 95.730248 -237.497506 
L 96.047603 -236.611272 
L 96.364959 -235.708407 
L 96.682314 -234.800377 
L 96.999669 -233.838564 
L 97.317025 -232.85563 
L 97.63438 -231.872429 
L 97.951736 -230.891593 
L 98.269091 -229.927978 
L 98.586446 -228.986187 
L 98.903802 -228.05174 
L 99.221157 -227.145065 
L 99.538512 -226.259662 
L 99.855868 -225.413733 
L 100.173223 -224.591601 
L 100.490579 -223.785793 
L 100.807934 -223.003977 
L 101.125289 -222.227563 
L 101.442645 -221.439384 
L 101.76 -220.652966 
L 102.077355 -219.85495 
L 102.394711 -219.05023 
L 102.712066 -218.254409 
L 103.029421 -217.478519 
L 103.346777 -216.731796 
L 103.664132 -216.022008 
L 103.981488 -215.357151 
L 104.298843 -214.710074 
L 104.616198 -214.091155 
L 104.933554 -213.484566 
L 105.250909 -212.870668 
L 105.568264 -212.298598 
L 105.88562 -211.738028 
L 106.202975 -211.203031 
L 106.520331 -210.695408 
L 106.837686 -210.214162 
L 107.155041 -209.740988 
L 107.472397 -209.277407 
L 107.789752 -208.82108 
L 108.107107 -208.364106 
L 108.424463 -207.925666 
L 108.741818 -207.515253 
L 109.059174 -207.152828 
L 109.376529 -206.827153 
L 109.693884 -206.565763 
L 110.01124 -206.352389 
L 110.328595 -206.188512 
L 110.64595 -206.080356 
L 110.963306 -205.998113 
L 111.280661 -205.945713 
L 111.598017 -205.896269 
L 111.915372 -205.806194 
L 112.232727 -205.685263 
L 112.550083 -205.532383 
L 112.867438 -205.336728 
L 113.184793 -205.091111 
L 113.502149 -204.816483 
L 113.819504 -204.522557 
L 114.13686 -204.22016 
L 114.454215 -203.908973 
L 114.77157 -203.572727 
L 115.088926 -203.197564 
L 115.406281 -202.78224 
L 115.723636 -202.354887 
L 116.040992 -201.893641 
L 116.358347 -201.400097 
L 116.675702 -200.90578 
L 116.993058 -200.419806 
L 117.310413 -199.948562 
L 117.627769 -199.465637 
L 117.945124 -198.974002 
L 118.262479 -198.496032 
L 118.579835 -198.011981 
L 118.89719 -197.513607 
L 119.214545 -197.03124 
L 119.531901 -196.570773 
L 119.849256 -196.101184 
L 120.166612 -195.621065 
L 120.483967 -195.14488 
L 120.801322 -194.681209 
L 121.118678 -194.214016 
L 121.436033 -193.730324 
L 121.753388 -193.234756 
L 122.070744 -192.76651 
L 122.388099 -192.310458 
L 122.705455 -191.855908 
L 123.02281 -191.426757 
L 123.340165 -191.041803 
L 123.657521 -190.685479 
L 123.974876 -190.358459 
L 124.292231 -190.048515 
L 124.609587 -189.747487 
L 124.926942 -189.452015 
L 125.244298 -189.18319 
L 125.561653 -188.935089 
L 125.879008 -188.681079 
L 126.196364 -188.436399 
L 126.513719 -188.209586 
L 126.831074 -187.990448 
L 127.14843 -187.783593 
L 127.465785 -187.611086 
L 127.78314 -187.469954 
L 128.100496 -187.364805 
L 128.417851 -187.293547 
L 128.735207 -187.2426 
L 129.052562 -187.206643 
L 129.369917 -187.186436 
L 129.687273 -187.171953 
L 130.004628 -187.150102 
L 130.321983 -187.129832 
L 130.639339 -187.103069 
L 130.956694 -187.075623 
L 131.27405 -187.057708 
L 131.591405 -187.060267 
L 131.90876 -187.076356 
L 132.226116 -187.11862 
L 132.543471 -187.201073 
L 132.860826 -187.30985 
L 133.178182 -187.438839 
L 133.495537 -187.592569 
L 133.812893 -187.760262 
L 134.130248 -187.930237 
L 134.447603 -188.11341 
L 134.764959 -188.319425 
L 135.082314 -188.548855 
L 135.399669 -188.804838 
L 135.717025 -189.079849 
L 136.03438 -189.360367 
L 136.351736 -189.641998 
L 136.669091 -189.924973 
L 136.986446 -190.199964 
L 137.303802 -190.460145 
L 137.621157 -190.711261 
L 137.938512 -190.972129 
L 138.255868 -191.240611 
L 138.573223 -191.504231 
L 138.890579 -191.779963 
L 139.207934 -192.077087 
L 139.525289 -192.375744 
L 139.842645 -192.660602 
L 140.16 -192.93976 
L 140.477355 -193.209427 
L 140.794711 -193.45784 
L 141.112066 -193.6756 
L 141.429421 -193.878708 
L 141.746777 -194.084548 
L 142.064132 -194.289076 
L 142.381488 -194.47495 
L 142.698843 -194.653732 
L 143.016198 -194.822235 
L 143.333554 -194.946146 
L 143.650909 -195.033596 
L 143.968264 -195.095281 
L 144.28562 -195.115519 
L 144.602975 -195.103137 
L 144.920331 -195.080978 
L 145.237686 -195.049912 
L 145.555041 -195.008188 
L 145.872397 -194.962279 
L 146.189752 -194.911158 
L 146.507107 -194.860706 
L 146.824463 -194.802724 
L 147.141818 -194.738845 
L 147.459174 -194.663145 
L 147.776529 -194.555217 
L 148.093884 -194.422453 
L 148.41124 -194.258545 
L 148.728595 -194.064823 
L 149.04595 -193.850485 
L 149.363306 -193.629642 
L 149.680661 -193.393109 
L 149.998017 -193.148334 
L 150.315372 -192.910727 
L 150.632727 -192.684936 
L 150.950083 -192.478597 
L 151.267438 -192.28272 
L 151.584793 -192.097137 
L 151.902149 -191.910671 
L 152.219504 -191.715998 
L 152.53686 -191.513906 
L 152.854215 -191.297546 
L 153.17157 -191.060352 
L 153.488926 -190.804834 
L 153.806281 -190.533167 
L 154.123636 -190.249545 
L 154.440992 -189.956002 
L 154.758347 -189.647762 
L 155.075702 -189.326963 
L 155.393058 -188.995925 
L 155.710413 -188.649285 
L 156.027769 -188.291612 
L 156.345124 -187.933456 
L 156.662479 -187.578082 
L 156.979835 -187.233044 
L 157.29719 -186.900421 
L 157.614545 -186.583981 
L 157.931901 -186.282108 
L 158.249256 -185.989226 
L 158.566612 -185.699458 
L 158.883967 -185.40396 
L 159.201322 -185.102803 
L 159.518678 -184.796075 
L 159.836033 -184.482644 
L 160.153388 -184.165294 
L 160.470744 -183.85197 
L 160.788099 -183.541416 
L 161.105455 -183.241627 
L 161.42281 -182.963103 
L 161.740165 -182.697654 
L 162.057521 -182.43364 
L 162.374876 -182.177588 
L 162.692231 -181.931535 
L 163.009587 -181.687951 
L 163.326942 -181.453672 
L 163.644298 -181.285165 
L 163.961653 -181.146682 
L 164.279008 -181.035799 
L 164.596364 -180.972198 
L 164.913719 -180.953699 
L 165.231074 -180.969151 
L 165.54843 -181.006974 
L 165.865785 -181.0637 
L 166.18314 -181.135935 
L 166.500496 -181.228468 
L 166.817851 -181.330429 
L 167.135207 -181.438643 
L 167.452562 -181.552969 
L 167.769917 -181.67863 
L 168.087273 -181.828776 
L 168.404628 -181.992961 
L 168.721983 -182.176644 
L 169.039339 -182.380628 
L 169.356694 -182.599628 
L 169.67405 -182.824456 
L 169.991405 -183.055964 
L 170.30876 -183.288218 
L 170.626116 -183.51398 
L 170.943471 -183.728825 
L 171.260826 -183.926653 
L 171.578182 -184.107908 
L 171.895537 -184.270721 
L 172.212893 -184.413756 
L 172.530248 -184.541138 
L 172.847603 -184.651158 
L 173.164959 -184.745286 
L 173.482314 -184.824675 
L 173.799669 -184.89277 
L 174.117025 -184.949632 
L 174.43438 -185.000241 
L 174.751736 -185.046618 
L 175.069091 -185.094468 
L 175.386446 -185.140029 
L 175.703802 -185.187932 
L 176.021157 -185.242077 
L 176.338512 -185.30842 
L 176.655868 -185.383517 
L 176.973223 -185.461715 
L 177.290579 -185.532482 
L 177.607934 -185.603623 
L 177.925289 -185.661718 
L 178.242645 -185.703256 
L 178.56 -185.73044 
L 178.877355 -185.750545 
L 179.194711 -185.775819 
L 179.512066 -185.799009 
L 179.829421 -185.820041 
L 180.146777 -185.844266 
L 180.464132 -185.875245 
L 180.781488 -185.908299 
L 181.098843 -185.952947 
L 181.416198 -186.005632 
L 181.733554 -186.058477 
L 182.050909 -186.116891 
L 182.368264 -186.187673 
L 182.68562 -186.259738 
L 183.002975 -186.333394 
L 183.320331 -186.41464 
L 183.637686 -186.500068 
L 183.955041 -186.559764 
L 184.272397 -186.60877 
L 184.589752 -186.64637 
L 184.907107 -186.658321 
L 185.224463 -186.653841 
L 185.541818 -186.624683 
L 185.859174 -186.575556 
L 186.176529 -186.511778 
L 186.493884 -186.433996 
L 186.81124 -186.340563 
L 187.128595 -186.233777 
L 187.44595 -186.115501 
L 187.763306 -185.982587 
L 188.080661 -185.835961 
L 188.398017 -185.66694 
L 188.715372 -185.484086 
L 189.032727 -185.285692 
L 189.350083 -185.075138 
L 189.667438 -184.856188 
L 189.984793 -184.634816 
L 190.302149 -184.411175 
L 190.619504 -184.185712 
L 190.93686 -183.956242 
L 191.254215 -183.721559 
L 191.57157 -183.480793 
L 191.888926 -183.23354 
L 192.206281 -182.985694 
L 192.523636 -182.745986 
L 192.840992 -182.364468 
L 193.158347 -181.781519 
L 193.475702 -181.120459 
L 193.793058 -180.477424 
L 194.110413 -179.931866 
L 194.427769 -179.36458 
L 194.745124 -178.768298 
L 195.062479 -178.169913 
L 195.379835 -177.600309 
L 195.69719 -177.1003 
L 196.014545 -176.724475 
L 196.331901 -176.553216 
L 196.649256 -176.52792 
L 196.966612 -176.658584 
L 197.283967 -176.976716 
L 197.601322 -177.487383 
L 197.918678 -178.178593 
L 198.236033 -179.03749 
L 198.553388 -180.052037 
L 198.870744 -181.218402 
L 199.188099 -182.523643 
L 199.505455 -183.961474 
L 199.82281 -185.547155 
L 200.140165 -187.277537 
L 200.457521 -189.14025 
L 200.774876 -191.11726 
L 201.092231 -193.202662 
L 201.409587 -195.390999 
L 201.726942 -197.648952 
L 202.044298 -199.955052 
L 202.361653 -202.301714 
L 202.679008 -204.684955 
L 202.996364 -207.118443 
L 203.313719 -209.614761 
L 203.631074 -212.157192 
L 203.94843 -214.715665 
L 204.265785 -217.273494 
L 204.58314 -219.836656 
L 204.900496 -222.402634 
L 205.217851 -224.984803 
L 205.535207 -227.582582 
L 205.852562 -230.207837 
L 206.169917 -232.858335 
L 206.487273 -235.523833 
L 206.804628 -238.193418 
L 207.121983 -240.850791 
L 207.439339 -243.482492 
L 207.756694 -246.073892 
L 208.07405 -248.609085 
L 208.391405 -251.071503 
L 208.70876 -253.452179 
L 209.026116 -255.742377 
L 209.343471 -257.950263 
L 209.660826 -260.067963 
L 209.978182 -262.08769 
L 210.295537 -263.999267 
L 210.612893 -265.793227 
L 210.930248 -267.458175 
L 211.247603 -268.993216 
L 211.564959 -270.397719 
L 211.882314 -271.661038 
L 212.199669 -272.775354 
L 212.517025 -273.712008 
L 212.83438 -274.456866 
L 213.151736 -275.326832 
L 213.469091 -276.489191 
L 213.786446 -277.754826 
L 214.103802 -278.9704 
L 214.421157 -279.984125 
L 214.738512 -281.05709 
L 215.055868 -282.237737 
L 215.373223 -283.518612 
L 215.690579 -284.877587 
L 216.007934 -286.268031 
L 216.325289 -287.597875 
L 216.642645 -288.710004 
L 216.96 -289.70627 
L 217.277355 -290.569127 
L 217.594711 -291.237859 
L 217.912066 -291.701306 
L 218.229421 -291.957189 
L 218.546777 -292.032 
L 218.864132 -291.948555 
L 219.181488 -291.696546 
L 219.498843 -291.281554 
L 219.816198 -290.700217 
L 220.133554 -289.922214 
L 220.450909 -288.933098 
L 220.768264 -287.737319 
L 221.08562 -286.366012 
L 221.402975 -284.829798 
L 221.720331 -283.111141 
L 222.037686 -281.26514 
L 222.355041 -279.337239 
L 222.672397 -277.342996 
L 222.989752 -275.285721 
L 223.307107 -273.147278 
L 223.624463 -270.889997 
L 223.941818 -268.517714 
L 224.259174 -266.07718 
L 224.576529 -263.591953 
L 224.893884 -261.054493 
L 225.21124 -258.470168 
L 225.528595 -255.819875 
L 225.84595 -253.095448 
L 226.163306 -250.291731 
L 226.480661 -247.410885 
L 226.798017 -244.45752 
L 227.115372 -241.446257 
L 227.432727 -238.402533 
L 227.750083 -235.340282 
L 228.067438 -232.279232 
L 228.384793 -229.230529 
L 228.702149 -226.194993 
L 229.019504 -223.196651 
L 229.33686 -220.265845 
L 229.654215 -217.405358 
L 229.97157 -214.618241 
L 230.288926 -211.898787 
L 230.606281 -209.231075 
L 230.923636 -206.604063 
L 231.240992 -204.046162 
L 231.558347 -201.557809 
L 231.875702 -199.128484 
L 232.193058 -196.776167 
L 232.510413 -194.527235 
L 232.827769 -192.425851 
L 233.145124 -190.486977 
L 233.462479 -188.548474 
L 233.779835 -186.515857 
L 234.09719 -184.449537 
L 234.414545 -182.403372 
L 234.731901 -180.455836 
L 235.049256 -178.477886 
L 235.366612 -176.457133 
L 235.683967 -174.379723 
L 236.001322 -172.185882 
L 236.318678 -169.958118 
L 236.636033 -167.764277 
L 236.953388 -165.686867 
L 237.270744 -163.666114 
L 237.588099 -161.688164 
L 237.905455 -159.740628 
L 238.22281 -157.694463 
L 238.540165 -155.628143 
L 238.857521 -153.595526 
L 239.174876 -151.657023 
L 239.492231 -149.718149 
L 239.809587 -147.616765 
L 240.126942 -145.367833 
L 240.444298 -143.015516 
L 240.761653 -140.586191 
L 241.079008 -138.097838 
L 241.396364 -135.539937 
L 241.713719 -132.912925 
L 242.031074 -130.245213 
L 242.34843 -127.525759 
L 242.665785 -124.738642 
L 242.98314 -121.878155 
L 243.300496 -118.947349 
L 243.617851 -115.949007 
L 243.935207 -112.913471 
L 244.252562 -109.864768 
L 244.569917 -106.803718 
L 244.887273 -103.741467 
L 245.204628 -100.697743 
L 245.521983 -97.68648 
L 245.839339 -94.733115 
L 246.156694 -91.852269 
L 246.47405 -89.048552 
L 246.791405 -86.324125 
L 247.10876 -83.673832 
L 247.426116 -81.089507 
L 247.743471 -78.552047 
L 248.060826 -76.06682 
L 248.378182 -73.626286 
L 248.695537 -71.254003 
L 249.012893 -68.996722 
L 249.330248 -66.858279 
L 249.647603 -64.801004 
L 249.964959 -62.806761 
L 250.282314 -60.87886 
L 250.599669 -59.032859 
L 250.917025 -57.314202 
L 251.23438 -55.777988 
L 251.551736 -54.406681 
L 251.869091 -53.210902 
L 252.186446 -52.221786 
L 252.503802 -51.443783 
L 252.821157 -50.862446 
L 253.138512 -50.447454 
L 253.455868 -50.195445 
L 253.773223 -50.112 
L 254.090579 -50.186811 
L 254.407934 -50.442694 
L 254.725289 -50.906141 
L 255.042645 -51.574873 
L 255.36 -52.43773 
L 255.677355 -53.433996 
L 255.994711 -54.546125 
L 256.312066 -55.875969 
L 256.629421 -57.266413 
L 256.946777 -58.625388 
L 257.264132 -59.906263 
L 257.581488 -61.08691 
L 257.898843 -62.159875 
L 258.216198 -63.1736 
L 258.533554 -64.389174 
L 258.850909 -65.654809 
L 259.168264 -66.817168 
L 259.48562 -67.687134 
L 259.802975 -68.431992 
L 260.120331 -69.368646 
L 260.437686 -70.482962 
L 260.755041 -71.746281 
L 261.072397 -73.150784 
L 261.389752 -74.685825 
L 261.707107 -76.350773 
L 262.024463 -78.144733 
L 262.341818 -80.05631 
L 262.659174 -82.076037 
L 262.976529 -84.193737 
L 263.293884 -86.401623 
L 263.61124 -88.691821 
L 263.928595 -91.072497 
L 264.24595 -93.534915 
L 264.563306 -96.070108 
L 264.880661 -98.661508 
L 265.198017 -101.293209 
L 265.515372 -103.950582 
L 265.832727 -106.620167 
L 266.150083 -109.285665 
L 266.467438 -111.936163 
L 266.784793 -114.561418 
L 267.102149 -117.159197 
L 267.419504 -119.741366 
L 267.73686 -122.307344 
L 268.054215 -124.870506 
L 268.37157 -127.428335 
L 268.688926 -129.986808 
L 269.006281 -132.529239 
L 269.323636 -135.025557 
L 269.640992 -137.459045 
L 269.958347 -139.842286 
L 270.275702 -142.188948 
L 270.593058 -144.495048 
L 270.910413 -146.753001 
L 271.227769 -148.941338 
L 271.545124 -151.02674 
L 271.862479 -153.00375 
L 272.179835 -154.866463 
L 272.49719 -156.596845 
L 272.814545 -158.182526 
L 273.131901 -159.620357 
L 273.449256 -160.925598 
L 273.766612 -162.091963 
L 274.083967 -163.10651 
L 274.401322 -163.965407 
L 274.718678 -164.656617 
L 275.036033 -165.167284 
L 275.353388 -165.485416 
L 275.670744 -165.61608 
L 275.988099 -165.590784 
L 276.305455 -165.419525 
L 276.62281 -165.0437 
L 276.940165 -164.543691 
L 277.257521 -163.974087 
L 277.574876 -163.375702 
L 277.892231 -162.77942 
L 278.209587 -162.212134 
L 278.526942 -161.666576 
L 278.844298 -161.023541 
L 279.161653 -160.362481 
L 279.479008 -159.779532 
L 279.796364 -159.398014 
L 280.113719 -159.158306 
L 280.431074 -158.91046 
L 280.74843 -158.663207 
L 281.065785 -158.422441 
L 281.38314 -158.187758 
L 281.700496 -157.958288 
L 282.017851 -157.732825 
L 282.335207 -157.509184 
L 282.652562 -157.287812 
L 282.969917 -157.068862 
L 283.287273 -156.858308 
L 283.604628 -156.659914 
L 283.921983 -156.47706 
L 284.239339 -156.308039 
L 284.556694 -156.161413 
L 284.87405 -156.028499 
L 285.191405 -155.910223 
L 285.50876 -155.803437 
L 285.826116 -155.710004 
L 286.143471 -155.632222 
L 286.460826 -155.568444 
L 286.778182 -155.519317 
L 287.095537 -155.490159 
L 287.412893 -155.485679 
L 287.730248 -155.49763 
L 288.047603 -155.53523 
L 288.364959 -155.584236 
L 288.682314 -155.643932 
L 288.999669 -155.72936 
L 289.317025 -155.810606 
L 289.63438 -155.884262 
L 289.951736 -155.956327 
L 290.269091 -156.027109 
L 290.586446 -156.085523 
L 290.903802 -156.138368 
L 291.221157 -156.191053 
L 291.538512 -156.235701 
L 291.855868 -156.268755 
L 292.173223 -156.299734 
L 292.490579 -156.323959 
L 292.807934 -156.344991 
L 293.125289 -156.368181 
L 293.442645 -156.393455 
L 293.76 -156.41356 
L 294.077355 -156.440744 
L 294.394711 -156.482282 
L 294.712066 -156.540377 
L 295.029421 -156.611518 
L 295.346777 -156.682285 
L 295.664132 -156.760483 
L 295.981488 -156.83558 
L 296.298843 -156.901923 
L 296.616198 -156.956068 
L 296.933554 -157.003971 
L 297.250909 -157.049532 
L 297.568264 -157.097382 
L 297.88562 -157.143759 
L 298.202975 -157.194368 
L 298.520331 -157.25123 
L 298.837686 -157.319325 
L 299.155041 -157.398714 
L 299.472397 -157.492842 
L 299.789752 -157.602862 
L 300.107107 -157.730244 
L 300.424463 -157.873279 
L 300.741818 -158.036092 
L 301.059174 -158.217347 
L 301.376529 -158.415175 
L 301.693884 -158.63002 
L 302.01124 -158.855782 
L 302.328595 -159.088036 
L 302.64595 -159.319544 
L 302.963306 -159.544372 
L 303.280661 -159.763372 
L 303.598017 -159.967356 
L 303.915372 -160.151039 
L 304.232727 -160.315224 
L 304.550083 -160.46537 
L 304.867438 -160.591031 
L 305.184793 -160.705357 
L 305.502149 -160.813571 
L 305.819504 -160.915532 
L 306.13686 -161.008065 
L 306.454215 -161.0803 
L 306.77157 -161.137026 
L 307.088926 -161.174849 
L 307.406281 -161.190301 
L 307.723636 -161.171802 
L 308.040992 -161.108201 
L 308.358347 -160.997318 
L 308.675702 -160.858835 
L 308.993058 -160.690328 
L 309.310413 -160.456049 
L 309.627769 -160.212465 
L 309.945124 -159.966412 
L 310.262479 -159.71036 
L 310.579835 -159.446346 
L 310.89719 -159.180897 
L 311.214545 -158.902373 
L 311.531901 -158.602584 
L 311.849256 -158.29203 
L 312.166612 -157.978706 
L 312.483967 -157.661356 
L 312.801322 -157.347925 
L 313.118678 -157.041197 
L 313.436033 -156.74004 
L 313.753388 -156.444542 
L 314.070744 -156.154774 
L 314.388099 -155.861892 
L 314.705455 -155.560019 
L 315.02281 -155.243579 
L 315.340165 -154.910956 
L 315.657521 -154.565918 
L 315.974876 -154.210544 
L 316.292231 -153.852388 
L 316.609587 -153.494715 
L 316.926942 -153.148075 
L 317.244298 -152.817037 
L 317.561653 -152.496238 
L 317.879008 -152.187998 
L 318.196364 -151.894455 
L 318.513719 -151.610833 
L 318.831074 -151.339166 
L 319.14843 -151.083648 
L 319.465785 -150.846454 
L 319.78314 -150.630094 
L 320.100496 -150.428002 
L 320.417851 -150.233329 
L 320.735207 -150.046863 
L 321.052562 -149.86128 
L 321.369917 -149.665403 
L 321.687273 -149.459064 
L 322.004628 -149.233273 
L 322.321983 -148.995666 
L 322.639339 -148.750891 
L 322.956694 -148.514358 
L 323.27405 -148.293515 
L 323.591405 -148.079177 
L 323.90876 -147.885455 
L 324.226116 -147.721547 
L 324.543471 -147.588783 
L 324.860826 -147.480855 
L 325.178182 -147.405155 
L 325.495537 -147.341276 
L 325.812893 -147.283294 
L 326.130248 -147.232842 
L 326.447603 -147.181721 
L 326.764959 -147.135812 
L 327.082314 -147.094088 
L 327.399669 -147.063022 
L 327.717025 -147.040863 
L 328.03438 -147.028481 
L 328.351736 -147.048719 
L 328.669091 -147.110404 
L 328.986446 -147.197854 
L 329.303802 -147.321765 
L 329.621157 -147.490268 
L 329.938512 -147.66905 
L 330.255868 -147.854924 
L 330.573223 -148.059452 
L 330.890579 -148.265292 
L 331.207934 -148.4684 
L 331.525289 -148.68616 
L 331.842645 -148.934573 
L 332.16 -149.20424 
L 332.477355 -149.483398 
L 332.794711 -149.768256 
L 333.112066 -150.066913 
L 333.429421 -150.364037 
L 333.746777 -150.639769 
L 334.064132 -150.903389 
L 334.381488 -151.171871 
L 334.698843 -151.432739 
L 335.016198 -151.683855 
L 335.333554 -151.944036 
L 335.650909 -152.219027 
L 335.968264 -152.502002 
L 336.28562 -152.783633 
L 336.602975 -153.064151 
L 336.920331 -153.339162 
L 337.237686 -153.595145 
L 337.555041 -153.824575 
L 337.872397 -154.03059 
L 338.189752 -154.213763 
L 338.507107 -154.383738 
L 338.824463 -154.551431 
L 339.141818 -154.705161 
L 339.459174 -154.83415 
L 339.776529 -154.942927 
L 340.093884 -155.02538 
L 340.41124 -155.067644 
L 340.728595 -155.083733 
L 341.04595 -155.086292 
L 341.363306 -155.068377 
L 341.680661 -155.040931 
L 341.998017 -155.014168 
L 342.315372 -154.993898 
L 342.632727 -154.972047 
L 342.950083 -154.957564 
L 343.267438 -154.937357 
L 343.584793 -154.9014 
L 343.902149 -154.850453 
L 344.219504 -154.779195 
L 344.53686 -154.674046 
L 344.854215 -154.532914 
L 345.17157 -154.360407 
L 345.488926 -154.153552 
L 345.806281 -153.934414 
L 346.123636 -153.707601 
L 346.440992 -153.462921 
L 346.758347 -153.208911 
L 347.075702 -152.96081 
L 347.393058 -152.691985 
L 347.710413 -152.396513 
L 348.027769 -152.095485 
L 348.345124 -151.785541 
L 348.662479 -151.458521 
L 348.979835 -151.102197 
L 349.29719 -150.717243 
L 349.614545 -150.288092 
L 349.931901 -149.833542 
L 350.249256 -149.37749 
L 350.566612 -148.909244 
L 350.883967 -148.413676 
L 351.201322 -147.929984 
L 351.518678 -147.462791 
L 351.836033 -146.99912 
L 352.153388 -146.522935 
L 352.470744 -146.042816 
L 352.788099 -145.573227 
L 353.105455 -145.11276 
L 353.42281 -144.630393 
L 353.740165 -144.132019 
L 354.057521 -143.647968 
L 354.374876 -143.169998 
L 354.692231 -142.678363 
L 355.009587 -142.195438 
L 355.326942 -141.724194 
L 355.644298 -141.23822 
L 355.961653 -140.743903 
L 356.279008 -140.250359 
L 356.596364 -139.789113 
L 356.913719 -139.36176 
L 357.231074 -138.946436 
L 357.54843 -138.571273 
L 357.865785 -138.235027 
L 358.18314 -137.92384 
L 358.500496 -137.621443 
L 358.817851 -137.327517 
L 359.135207 -137.052889 
L 359.452562 -136.807272 
L 359.769917 -136.611617 
L 360.087273 -136.458737 
L 360.404628 -136.337806 
L 360.721983 -136.247731 
L 361.039339 -136.198287 
L 361.356694 -136.145887 
L 361.67405 -136.063644 
L 361.991405 -135.955488 
L 362.30876 -135.791611 
L 362.626116 -135.578237 
L 362.943471 -135.316847 
L 363.260826 -134.991172 
L 363.578182 -134.628747 
L 363.895537 -134.218334 
L 364.212893 -133.779894 
L 364.530248 -133.32292 
L 364.847603 -132.866593 
L 365.164959 -132.403012 
L 365.482314 -131.929838 
L 365.799669 -131.448592 
L 366.117025 -130.940969 
L 366.43438 -130.405972 
L 366.751736 -129.845402 
L 367.069091 -129.273332 
L 367.386446 -128.659434 
L 367.703802 -128.052845 
L 368.021157 -127.433926 
L 368.338512 -126.786849 
L 368.655868 -126.121992 
L 368.973223 -125.412204 
L 369.290579 -124.665481 
L 369.607934 -123.889591 
L 369.925289 -123.09377 
L 370.242645 -122.28905 
L 370.56 -121.491034 
L 370.877355 -120.704616 
L 371.194711 -119.916437 
L 371.512066 -119.140023 
L 371.829421 -118.358207 
L 372.146777 -117.552399 
L 372.464132 -116.730267 
L 372.781488 -115.884338 
L 373.098843 -114.998935 
L 373.416198 -114.09226 
L 373.733554 -113.157813 
L 374.050909 -112.216022 
L 374.368264 -111.252407 
L 374.68562 -110.271571 
L 375.002975 -109.28837 
L 375.320331 -108.305436 
L 375.637686 -107.343623 
L 375.955041 -106.435593 
L 376.272397 -105.532728 
L 376.589752 -104.646494 
L 376.907107 -103.744406 
L 377.224463 -102.786894 
L 377.541818 -101.831762 
L 377.859174 -100.850024 
L 378.176529 -99.847023 
L 378.493884 -98.850834 
L 378.81124 -97.851725 
L 379.128595 -96.833055 
L 379.44595 -95.775745 
L 379.763306 -94.680577 
L 380.080661 -93.534358 
L 380.398017 -92.338713 
L 380.715372 -91.109468 
L 381.032727 -89.867326 
L 381.350083 -88.595944 
L 381.667438 -87.330348 
L 381.984793 -86.110573 
L 382.302149 -84.933598 
L 382.619504 -83.82493 
L 382.93686 -82.783539 
L 383.254215 -81.818862 
L 383.57157 -80.941739 
L 383.888926 -80.134465 
L 384.206281 -79.421801 
L 384.523636 -78.79628 
L 384.840992 -78.252639 
L 385.158347 -77.787672 
L 385.475702 -77.415707 
L 385.793058 -77.142141 
L 386.110413 -76.973529 
L 386.427769 -76.925775 
L 386.745124 -77.004193 
L 387.062479 -77.225429 
L 387.379835 -77.58445 
L 387.69719 -78.106848 
L 388.014545 -78.77818 
L 388.331901 -79.62957 
L 388.649256 -80.671006 
L 388.966612 -81.862558 
L 389.283967 -83.10914 
L 389.601322 -84.405051 
L 389.918678 -85.748357 
L 390.236033 -87.136253 
L 390.553388 -88.549109 
L 390.870744 -89.955397 
L 391.188099 -91.359201 
L 391.505455 -92.78137 
L 391.82281 -94.185039 
L 392.140165 -95.587427 
L 392.457521 -97.010569 
L 392.774876 -98.452113 
L 393.092231 -99.916774 
L 393.409587 -101.41317 
L 393.726942 -102.926667 
L 394.044298 -104.482233 
L 394.361653 -106.063539 
L 394.679008 -107.672615 
L 394.996364 -109.30566 
L 395.313719 -110.952101 
L 395.631074 -112.600994 
L 395.94843 -114.232715 
L 396.265785 -115.826975 
L 396.58314 -117.421231 
L 396.900496 -119.00374 
L 397.217851 -120.580865 
L 397.535207 -122.187745 
L 397.852562 -123.791538 
L 398.169917 -125.400347 
L 398.487273 -171.072 
L 398.487273 -171.072 
L 398.487273 -171.072 
L 398.169917 -171.072 
L 397.852562 -171.072 
L 397.535207 -171.072 
L 397.217851 -171.072 
L 396.900496 -171.072 
L 396.58314 -171.072 
L 396.265785 -171.072 
L 395.94843 -171.072 
L 395.631074 -171.072 
L 395.313719 -171.072 
L 394.996364 -171.072 
L 394.679008 -171.072 
L 394.361653 -171.072 
L 394.044298 -171.072 
L 393.726942 -171.072 
L 393.409587 -171.072 
L 393.092231 -171.072 
L 392.774876 -171.072 
L 392.457521 -171.072 
L 392.140165 -171.072 
L 391.82281 -171.072 
L 391.505455 -171.072 
L 391.188099 -171.072 
L 390.870744 -171.072 
L 390.553388 -171.072 
L 390.236033 -171.072 
L 389.918678 -171.072 
L 389.601322 -171.072 
L 389.283967 -171.072 
L 388.966612 -171.072 
L 388.649256 -171.072 
L 388.331901 -171.072 
L 388.014545 -171.072 
L 387.69719 -171.072 
L 387.379835 -171.072 
L 387.062479 -171.072 
L 386.745124 -171.072 
L 386.427769 -171.072 
L 386.110413 -171.072 
L 385.793058 -171.072 
L 385.475702 -171.072 
L 385.158347 -171.072 
L 384.840992 -171.072 
L 384.523636 -171.072 
L 384.206281 -171.072 
L 383.888926 -171.072 
L 383.57157 -171.072 
L 383.254215 -171.072 
L 382.93686 -171.072 
L 382.619504 -171.072 
L 382.302149 -171.072 
L 381.984793 -171.072 
L 381.667438 -171.072 
L 381.350083 -171.072 
L 381.032727 -171.072 
L 380.715372 -171.072 
L 380.398017 -171.072 
L 380.080661 -171.072 
L 379.763306 -171.072 
L 379.44595 -171.072 
L 379.128595 -171.072 
L 378.81124 -171.072 
L 378.493884 -171.072 
L 378.176529 -171.072 
L 377.859174 -171.072 
L 377.541818 -171.072 
L 377.224463 -171.072 
L 376.907107 -171.072 
L 376.589752 -171.072 
L 376.272397 -171.072 
L 375.955041 -171.072 
L 375.637686 -171.072 
L 375.320331 -171.072 
L 375.002975 -171.072 
L 374.68562 -171.072 
L 374.368264 -171.072 
L 374.050909 -171.072 
L 373.733554 -171.072 
L 373.416198 -171.072 
L 373.098843 -171.072 
L 372.781488 -171.072 
L 372.464132 -171.072 
L 372.146777 -171.072 
L 371.829421 -171.072 
L 371.512066 -171.072 
L 371.194711 -171.072 
L 370.877355 -171.072 
L 370.56 -171.072 
L 370.242645 -171.072 
L 369.925289 -171.072 
L 369.607934 -171.072 
L 369.290579 -171.072 
L 368.973223 -171.072 
L 368.655868 -171.072 
L 368.338512 -171.072 
L 368.021157 -171.072 
L 367.703802 -171.072 
L 367.386446 -171.072 
L 367.069091 -171.072 
L 366.751736 -171.072 
L 366.43438 -171.072 
L 366.117025 -171.072 
L 365.799669 -171.072 
L 365.482314 -171.072 
L 365.164959 -171.072 
L 364.847603 -171.072 
L 364.530248 -171.072 
L 364.212893 -171.072 
L 363.895537 -171.072 
L 363.578182 -171.072 
L 363.260826 -171.072 
L 362.943471 -171.072 
L 362.626116 -171.072 
L 362.30876 -171.072 
L 361.991405 -171.072 
L 361.67405 -171.072 
L 361.356694 -171.072 
L 361.039339 -171.072 
L 360.721983 -171.072 
L 360.404628 -171.072 
L 360.087273 -171.072 
L 359.769917 -171.072 
L 359.452562 -171.072 
L 359.135207 -171.072 
L 358.817851 -171.072 
L 358.500496 -171.072 
L 358.18314 -171.072 
L 357.865785 -171.072 
L 357.54843 -171.072 
L 357.231074 -171.072 
L 356.913719 -171.072 
L 356.596364 -171.072 
L 356.279008 -171.072 
L 355.961653 -171.072 
L 355.644298 -171.072 
L 355.326942 -171.072 
L 355.009587 -171.072 
L 354.692231 -171.072 
L 354.374876 -171.072 
L 354.057521 -171.072 
L 353.740165 -171.072 
L 353.42281 -171.072 
L 353.105455 -171.072 
L 352.788099 -171.072 
L 352.470744 -171.072 
L 352.153388 -171.072 
L 351.836033 -171.072 
L 351.518678 -171.072 
L 351.201322 -171.072 
L 350.883967 -171.072 
L 350.566612 -171.072 
L 350.249256 -171.072 
L 349.931901 -171.072 
L 349.614545 -171.072 
L 349.29719 -171.072 
L 348.979835 -171.072 
L 348.662479 -171.072 
L 348.345124 -171.072 
L 348.027769 -171.072 
L 347.710413 -171.072 
L 347.393058 -171.072 
L 347.075702 -171.072 
L 346.758347 -171.072 
L 346.440992 -171.072 
L 346.123636 -171.072 
L 345.806281 -171.072 
L 345.488926 -171.072 
L 345.17157 -171.072 
L 344.854215 -171.072 
L 344.53686 -171.072 
L 344.219504 -171.072 
L 343.902149 -171.072 
L 343.584793 -171.072 
L 343.267438 -171.072 
L 342.950083 -171.072 
L 342.632727 -171.072 
L 342.315372 -171.072 
L 341.998017 -171.072 
L 341.680661 -171.072 
L 341.363306 -171.072 
L 341.04595 -171.072 
L 340.728595 -171.072 
L 340.41124 -171.072 
L 340.093884 -171.072 
L 339.776529 -171.072 
L 339.459174 -171.072 
L 339.141818 -171.072 
L 338.824463 -171.072 
L 338.507107 -171.072 
L 338.189752 -171.072 
L 337.872397 -171.072 
L 337.555041 -171.072 
L 337.237686 -171.072 
L 336.920331 -171.072 
L 336.602975 -171.072 
L 336.28562 -171.072 
L 335.968264 -171.072 
L 335.650909 -171.072 
L 335.333554 -171.072 
L 335.016198 -171.072 
L 334.698843 -171.072 
L 334.381488 -171.072 
L 334.064132 -171.072 
L 333.746777 -171.072 
L 333.429421 -171.072 
L 333.112066 -171.072 
L 332.794711 -171.072 
L 332.477355 -171.072 
L 332.16 -171.072 
L 331.842645 -171.072 
L 331.525289 -171.072 
L 331.207934 -171.072 
L 330.890579 -171.072 
L 330.573223 -171.072 
L 330.255868 -171.072 
L 329.938512 -171.072 
L 329.621157 -171.072 
L 329.303802 -171.072 
L 328.986446 -171.072 
L 328.669091 -171.072 
L 328.351736 -171.072 
L 328.03438 -171.072 
L 327.717025 -171.072 
L 327.399669 -171.072 
L 327.082314 -171.072 
L 326.764959 -171.072 
L 326.447603 -171.072 
L 326.130248 -171.072 
L 325.812893 -171.072 
L 325.495537 -171.072 
L 325.178182 -171.072 
L 324.860826 -171.072 
L 324.543471 -171.072 
L 324.226116 -171.072 
L 323.90876 -171.072 
L 323.591405 -171.072 
L 323.27405 -171.072 
L 322.956694 -171.072 
L 322.639339 -171.072 
L 322.321983 -171.072 
L 322.004628 -171.072 
L 321.687273 -171.072 
L 321.369917 -171.072 
L 321.052562 -171.072 
L 320.735207 -171.072 
L 320.417851 -171.072 
L 320.100496 -171.072 
L 319.78314 -171.072 
L 319.465785 -171.072 
L 319.14843 -171.072 
L 318.831074 -171.072 
L 318.513719 -171.072 
L 318.196364 -171.072 
L 317.879008 -171.072 
L 317.561653 -171.072 
L 317.244298 -171.072 
L 316.926942 -171.072 
L 316.609587 -171.072 
L 316.292231 -171.072 
L 315.974876 -171.072 
L 315.657521 -171.072 
L 315.340165 -171.072 
L 315.02281 -171.072 
L 314.705455 -171.072 
L 314.388099 -171.072 
L 314.070744 -171.072 
L 313.753388 -171.072 
L 313.436033 -171.072 
L 313.118678 -171.072 
L 312.801322 -171.072 
L 312.483967 -171.072 
L 312.166612 -171.072 
L 311.849256 -171.072 
L 311.531901 -171.072 
L 311.214545 -171.072 
L 310.89719 -171.072 
L 310.579835 -171.072 
L 310.262479 -171.072 
L 309.945124 -171.072 
L 309.627769 -171.072 
L 309.310413 -171.072 
L 308.993058 -171.072 
L 308.675702 -171.072 
L 308.358347 -171.072 
L 308.040992 -171.072 
L 307.723636 -171.072 
L 307.406281 -171.072 
L 307.088926 -171.072 
L 306.77157 -171.072 
L 306.454215 -171.072 
L 306.13686 -171.072 
L 305.819504 -171.072 
L 305.502149 -171.072 
L 305.184793 -171.072 
L 304.867438 -171.072 
L 304.550083 -171.072 
L 304.232727 -171.072 
L 303.915372 -171.072 
L 303.598017 -171.072 
L 303.280661 -171.072 
L 302.963306 -171.072 
L 302.64595 -171.072 
L 302.328595 -171.072 
L 302.01124 -171.072 
L 301.693884 -171.072 
L 301.376529 -171.072 
L 301.059174 -171.072 
L 300.741818 -171.072 
L 300.424463 -171.072 
L 300.107107 -171.072 
L 299.789752 -171.072 
L 299.472397 -171.072 
L 299.155041 -171.072 
L 298.837686 -171.072 
L 298.520331 -171.072 
L 298.202975 -171.072 
L 297.88562 -171.072 
L 297.568264 -171.072 
L 297.250909 -171.072 
L 296.933554 -171.072 
L 296.616198 -171.072 
L 296.298843 -171.072 
L 295.981488 -171.072 
L 295.664132 -171.072 
L 295.346777 -171.072 
L 295.029421 -171.072 
L 294.712066 -171.072 
L 294.394711 -171.072 
L 294.077355 -171.072 
L 293.76 -171.072 
L 293.442645 -171.072 
L 293.125289 -171.072 
L 292.807934 -171.072 
L 292.490579 -171.072 
L 292.173223 -171.072 
L 291.855868 -171.072 
L 291.538512 -171.072 
L 291.221157 -171.072 
L 290.903802 -171.072 
L 290.586446 -171.072 
L 290.269091 -171.072 
L 289.951736 -171.072 
L 289.63438 -171.072 
L 289.317025 -171.072 
L 288.999669 -171.072 
L 288.682314 -171.072 
L 288.364959 -171.072 
L 288.047603 -171.072 
L 287.730248 -171.072 
L 287.412893 -171.072 
L 287.095537 -171.072 
L 286.778182 -171.072 
L 286.460826 -171.072 
L 286.143471 -171.072 
L 285.826116 -171.072 
L 285.50876 -171.072 
L 285.191405 -171.072 
L 284.87405 -171.072 
L 284.556694 -171.072 
L 284.239339 -171.072 
L 283.921983 -171.072 
L 283.604628 -171.072 
L 283.287273 -171.072 
L 282.969917 -171.072 
L 282.652562 -171.072 
L 282.335207 -171.072 
L 282.017851 -171.072 
L 281.700496 -171.072 
L 281.38314 -171.072 
L 281.065785 -171.072 
L 280.74843 -171.072 
L 280.431074 -171.072 
L 280.113719 -171.072 
L 279.796364 -171.072 
L 279.479008 -171.072 
L 279.161653 -171.072 
L 278.844298 -171.072 
L 278.526942 -171.072 
L 278.209587 -171.072 
L 277.892231 -171.072 
L 277.574876 -171.072 
L 277.257521 -171.072 
L 276.940165 -171.072 
L 276.62281 -171.072 
L 276.305455 -171.072 
L 275.988099 -171.072 
L 275.670744 -171.072 
L 275.353388 -171.072 
L 275.036033 -171.072 
L 274.718678 -171.072 
L 274.401322 -171.072 
L 274.083967 -171.072 
L 273.766612 -171.072 
L 273.449256 -171.072 
L 273.131901 -171.072 
L 272.814545 -171.072 
L 272.49719 -171.072 
L 272.179835 -171.072 
L 271.862479 -171.072 
L 271.545124 -171.072 
L 271.227769 -171.072 
L 270.910413 -171.072 
L 270.593058 -171.072 
L 270.275702 -171.072 
L 269.958347 -171.072 
L 269.640992 -171.072 
L 269.323636 -171.072 
L 269.006281 -171.072 
L 268.688926 -171.072 
L 268.37157 -171.072 
L 268.054215 -171.072 
L 267.73686 -171.072 
L 267.419504 -171.072 
L 267.102149 -171.072 
L 266.784793 -171.072 
L 266.467438 -171.072 
L 266.150083 -171.072 
L 265.832727 -171.072 
L 265.515372 -171.072 
L 265.198017 -171.072 
L 264.880661 -171.072 
L 264.563306 -171.072 
L 264.24595 -171.072 
L 263.928595 -171.072 
L 263.61124 -171.072 
L 263.293884 -171.072 
L 262.976529 -171.072 
L 262.659174 -171.072 
L 262.341818 -171.072 
L 262.024463 -171.072 
L 261.707107 -171.072 
L 261.389752 -171.072 
L 261.072397 -171.072 
L 260.755041 -171.072 
L 260.437686 -171.072 
L 260.120331 -171.072 
L 259.802975 -171.072 
L 259.48562 -171.072 
L 259.168264 -171.072 
L 258.850909 -171.072 
L 258.533554 -171.072 
L 258.216198 -171.072 
L 257.898843 -171.072 
L 257.581488 -171.072 
L 257.264132 -171.072 
L 256.946777 -171.072 
L 256.629421 -171.072 
L 256.312066 -171.072 
L 255.994711 -171.072 
L 255.677355 -171.072 
L 255.36 -171.072 
L 255.042645 -171.072 
L 254.725289 -171.072 
L 254.407934 -171.072 
L 254.090579 -171.072 
L 253.773223 -171.072 
L 253.455868 -171.072 
L 253.138512 -171.072 
L 252.821157 -171.072 
L 252.503802 -171.072 
L 252.186446 -171.072 
L 251.869091 -171.072 
L 251.551736 -171.072 
L 251.23438 -171.072 
L 250.917025 -171.072 
L 250.599669 -171.072 
L 250.282314 -171.072 
L 249.964959 -171.072 
L 249.647603 -171.072 
L 249.330248 -171.072 
L 249.012893 -171.072 
L 248.695537 -171.072 
L 248.378182 -171.072 
L 248.060826 -171.072 
L 247.743471 -171.072 
L 247.426116 -171.072 
L 247.10876 -171.072 
L 246.791405 -171.072 
L 246.47405 -171.072 
L 246.156694 -171.072 
L 245.839339 -171.072 
L 245.521983 -171.072 
L 245.204628 -171.072 
L 244.887273 -171.072 
L 244.569917 -171.072 
L 244.252562 -171.072 
L 243.935207 -171.072 
L 243.617851 -171.072 
L 243.300496 -171.072 
L 242.98314 -171.072 
L 242.665785 -171.072 
L 242.34843 -171.072 
L 242.031074 -171.072 
L 241.713719 -171.072 
L 241.396364 -171.072 
L 241.079008 -171.072 
L 240.761653 -171.072 
L 240.444298 -171.072 
L 240.126942 -171.072 
L 239.809587 -171.072 
L 239.492231 -171.072 
L 239.174876 -171.072 
L 238.857521 -171.072 
L 238.540165 -171.072 
L 238.22281 -171.072 
L 237.905455 -171.072 
L 237.588099 -171.072 
L 237.270744 -171.072 
L 236.953388 -171.072 
L 236.636033 -171.072 
L 236.318678 -171.072 
L 236.001322 -171.072 
L 235.683967 -171.072 
L 235.366612 -171.072 
L 235.049256 -171.072 
L 234.731901 -171.072 
L 234.414545 -171.072 
L 234.09719 -171.072 
L 233.779835 -171.072 
L 233.462479 -171.072 
L 233.145124 -171.072 
L 232.827769 -171.072 
L 232.510413 -171.072 
L 232.193058 -171.072 
L 231.875702 -171.072 
L 231.558347 -171.072 
L 231.240992 -171.072 
L 230.923636 -171.072 
L 230.606281 -171.072 
L 230.288926 -171.072 
L 229.97157 -171.072 
L 229.654215 -171.072 
L 229.33686 -171.072 
L 229.019504 -171.072 
L 228.702149 -171.072 
L 228.384793 -171.072 
L 228.067438 -171.072 
L 227.750083 -171.072 
L 227.432727 -171.072 
L 227.115372 -171.072 
L 226.798017 -171.072 
L 226.480661 -171.072 
L 226.163306 -171.072 
L 225.84595 -171.072 
L 225.528595 -171.072 
L 225.21124 -171.072 
L 224.893884 -171.072 
L 224.576529 -171.072 
L 224.259174 -171.072 
L 223.941818 -171.072 
L 223.624463 -171.072 
L 223.307107 -171.072 
L 222.989752 -171.072 
L 222.672397 -171.072 
L 222.355041 -171.072 
L 222.037686 -171.072 
L 221.720331 -171.072 
L 221.402975 -171.072 
L 221.08562 -171.072 
L 220.768264 -171.072 
L 220.450909 -171.072 
L 220.133554 -171.072 
L 219.816198 -171.072 
L 219.498843 -171.072 
L 219.181488 -171.072 
L 218.864132 -171.072 
L 218.546777 -171.072 
L 218.229421 -171.072 
L 217.912066 -171.072 
L 217.594711 -171.072 
L 217.277355 -171.072 
L 216.96 -171.072 
L 216.642645 -171.072 
L 216.325289 -171.072 
L 216.007934 -171.072 
L 215.690579 -171.072 
L 215.373223 -171.072 
L 215.055868 -171.072 
L 214.738512 -171.072 
L 214.421157 -171.072 
L 214.103802 -171.072 
L 213.786446 -171.072 
L 213.469091 -171.072 
L 213.151736 -171.072 
L 212.83438 -171.072 
L 212.517025 -171.072 
L 212.199669 -171.072 
L 211.882314 -171.072 
L 211.564959 -171.072 
L 211.247603 -171.072 
L 210.930248 -171.072 
L 210.612893 -171.072 
L 210.295537 -171.072 
L 209.978182 -171.072 
L 209.660826 -171.072 
L 209.343471 -171.072 
L 209.026116 -171.072 
L 208.70876 -171.072 
L 208.391405 -171.072 
L 208.07405 -171.072 
L 207.756694 -171.072 
L 207.439339 -171.072 
L 207.121983 -171.072 
L 206.804628 -171.072 
L 206.487273 -171.072 
L 206.169917 -171.072 
L 205.852562 -171.072 
L 205.535207 -171.072 
L 205.217851 -171.072 
L 204.900496 -171.072 
L 204.58314 -171.072 
L 204.265785 -171.072 
L 203.94843 -171.072 
L 203.631074 -171.072 
L 203.313719 -171.072 
L 202.996364 -171.072 
L 202.679008 -171.072 
L 202.361653 -171.072 
L 202.044298 -171.072 
L 201.726942 -171.072 
L 201.409587 -171.072 
L 201.092231 -171.072 
L 200.774876 -171.072 
L 200.457521 -171.072 
L 200.140165 -171.072 
L 199.82281 -171.072 
L 199.505455 -171.072 
L 199.188099 -171.072 
L 198.870744 -171.072 
L 198.553388 -171.072 
L 198.236033 -171.072 
L 197.918678 -171.072 
L 197.601322 -171.072 
L 197.283967 -171.072 
L 196.966612 -171.072 
L 196.649256 -171.072 
L 196.331901 -171.072 
L 196.014545 -171.072 
L 195.69719 -171.072 
L 195.379835 -171.072 
L 195.062479 -171.072 
L 194.745124 -171.072 
L 194.427769 -171.072 
L 194.110413 -171.072 
L 193.793058 -171.072 
L 193.475702 -171.072 
L 193.158347 -171.072 
L 192.840992 -171.072 
L 192.523636 -171.072 
L 192.206281 -171.072 
L 191.888926 -171.072 
L 191.57157 -171.072 
L 191.254215 -171.072 
L 190.93686 -171.072 
L 190.619504 -171.072 
L 190.302149 -171.072 
L 189.984793 -171.072 
L 189.667438 -171.072 
L 189.350083 -171.072 
L 189.032727 -171.072 
L 188.715372 -171.072 
L 188.398017 -171.072 
L 188.080661 -171.072 
L 187.763306 -171.072 
L 187.44595 -171.072 
L 187.128595 -171.072 
L 186.81124 -171.072 
L 186.493884 -171.072 
L 186.176529 -171.072 
L 185.859174 -171.072 
L 185.541818 -171.072 
L 185.224463 -171.072 
L 184.907107 -171.072 
L 184.589752 -171.072 
L 184.272397 -171.072 
L 183.955041 -171.072 
L 183.637686 -171.072 
L 183.320331 -171.072 
L 183.002975 -171.072 
L 182.68562 -171.072 
L 182.368264 -171.072 
L 182.050909 -171.072 
L 181.733554 -171.072 
L 181.416198 -171.072 
L 181.098843 -171.072 
L 180.781488 -171.072 
L 180.464132 -171.072 
L 180.146777 -171.072 
L 179.829421 -171.072 
L 179.512066 -171.072 
L 179.194711 -171.072 
L 178.877355 -171.072 
L 178.56 -171.072 
L 178.242645 -171.072 
L 177.925289 -171.072 
L 177.607934 -171.072 
L 177.290579 -171.072 
L 176.973223 -171.072 
L 176.655868 -171.072 
L 176.338512 -171.072 
L 176.021157 -171.072 
L 175.703802 -171.072 
L 175.386446 -171.072 
L 175.069091 -171.072 
L 174.751736 -171.072 
L 174.43438 -171.072 
L 174.117025 -171.072 
L 173.799669 -171.072 
L 173.482314 -171.072 
L 173.164959 -171.072 
L 172.847603 -171.072 
L 172.530248 -171.072 
L 172.212893 -171.072 
L 171.895537 -171.072 
L 171.578182 -171.072 
L 171.260826 -171.072 
L 170.943471 -171.072 
L 170.626116 -171.072 
L 170.30876 -171.072 
L 169.991405 -171.072 
L 169.67405 -171.072 
L 169.356694 -171.072 
L 169.039339 -171.072 
L 168.721983 -171.072 
L 168.404628 -171.072 
L 168.087273 -171.072 
L 167.769917 -171.072 
L 167.452562 -171.072 
L 167.135207 -171.072 
L 166.817851 -171.072 
L 166.500496 -171.072 
L 166.18314 -171.072 
L 165.865785 -171.072 
L 165.54843 -171.072 
L 165.231074 -171.072 
L 164.913719 -171.072 
L 164.596364 -171.072 
L 164.279008 -171.072 
L 163.961653 -171.072 
L 163.644298 -171.072 
L 163.326942 -171.072 
L 163.009587 -171.072 
L 162.692231 -171.072 
L 162.374876 -171.072 
L 162.057521 -171.072 
L 161.740165 -171.072 
L 161.42281 -171.072 
L 161.105455 -171.072 
L 160.788099 -171.072 
L 160.470744 -171.072 
L 160.153388 -171.072 
L 159.836033 -171.072 
L 159.518678 -171.072 
L 159.201322 -171.072 
L 158.883967 -171.072 
L 158.566612 -171.072 
L 158.249256 -171.072 
L 157.931901 -171.072 
L 157.614545 -171.072 
L 157.29719 -171.072 
L 156.979835 -171.072 
L 156.662479 -171.072 
L 156.345124 -171.072 
L 156.027769 -171.072 
L 155.710413 -171.072 
L 155.393058 -171.072 
L 155.075702 -171.072 
L 154.758347 -171.072 
L 154.440992 -171.072 
L 154.123636 -171.072 
L 153.806281 -171.072 
L 153.488926 -171.072 
L 153.17157 -171.072 
L 152.854215 -171.072 
L 152.53686 -171.072 
L 152.219504 -171.072 
L 151.902149 -171.072 
L 151.584793 -171.072 
L 151.267438 -171.072 
L 150.950083 -171.072 
L 150.632727 -171.072 
L 150.315372 -171.072 
L 149.998017 -171.072 
L 149.680661 -171.072 
L 149.363306 -171.072 
L 149.04595 -171.072 
L 148.728595 -171.072 
L 148.41124 -171.072 
L 148.093884 -171.072 
L 147.776529 -171.072 
L 147.459174 -171.072 
L 147.141818 -171.072 
L 146.824463 -171.072 
L 146.507107 -171.072 
L 146.189752 -171.072 
L 145.872397 -171.072 
L 145.555041 -171.072 
L 145.237686 -171.072 
L 144.920331 -171.072 
L 144.602975 -171.072 
L 144.28562 -171.072 
L 143.968264 -171.072 
L 143.650909 -171.072 
L 143.333554 -171.072 
L 143.016198 -171.072 
L 142.698843 -171.072 
L 142.381488 -171.072 
L 142.064132 -171.072 
L 141.746777 -171.072 
L 141.429421 -171.072 
L 141.112066 -171.072 
L 140.794711 -171.072 
L 140.477355 -171.072 
L 140.16 -171.072 
L 139.842645 -171.072 
L 139.525289 -171.072 
L 139.207934 -171.072 
L 138.890579 -171.072 
L 138.573223 -171.072 
L 138.255868 -171.072 
L 137.938512 -171.072 
L 137.621157 -171.072 
L 137.303802 -171.072 
L 136.986446 -171.072 
L 136.669091 -171.072 
L 136.351736 -171.072 
L 136.03438 -171.072 
L 135.717025 -171.072 
L 135.399669 -171.072 
L 135.082314 -171.072 
L 134.764959 -171.072 
L 134.447603 -171.072 
L 134.130248 -171.072 
L 133.812893 -171.072 
L 133.495537 -171.072 
L 133.178182 -171.072 
L 132.860826 -171.072 
L 132.543471 -171.072 
L 132.226116 -171.072 
L 131.90876 -171.072 
L 131.591405 -171.072 
L 131.27405 -171.072 
L 130.956694 -171.072 
L 130.639339 -171.072 
L 130.321983 -171.072 
L 130.004628 -171.072 
L 129.687273 -171.072 
L 129.369917 -171.072 
L 129.052562 -171.072 
L 128.735207 -171.072 
L 128.417851 -171.072 
L 128.100496 -171.072 
L 127.78314 -171.072 
L 127.465785 -171.072 
L 127.14843 -171.072 
L 126.831074 -171.072 
L 126.513719 -171.072 
L 126.196364 -171.072 
L 125.879008 -171.072 
L 125.561653 -171.072 
L 125.244298 -171.072 
L 124.926942 -171.072 
L 124.609587 -171.072 
L 124.292231 -171.072 
L 123.974876 -171.072 
L 123.657521 -171.072 
L 123.340165 -171.072 
L 123.02281 -171.072 
L 122.705455 -171.072 
L 122.388099 -171.072 
L 122.070744 -171.072 
L 121.753388 -171.072 
L 121.436033 -171.072 
L 121.118678 -171.072 
L 120.801322 -171.072 
L 120.483967 -171.072 
L 120.166612 -171.072 
L 119.849256 -171.072 
L 119.531901 -171.072 
L 119.214545 -171.072 
L 118.89719 -171.072 
L 118.579835 -171.072 
L 118.262479 -171.072 
L 117.945124 -171.072 
L 117.627769 -171.072 
L 117.310413 -171.072 
L 116.993058 -171.072 
L 116.675702 -171.072 
L 116.358347 -171.072 
L 116.040992 -171.072 
L 115.723636 -171.072 
L 115.406281 -171.072 
L 115.088926 -171.072 
L 114.77157 -171.072 
L 114.454215 -171.072 
L 114.13686 -171.072 
L 113.819504 -171.072 
L 113.502149 -171.072 
L 113.184793 -171.072 
L 112.867438 -171.072 
L 112.550083 -171.072 
L 112.232727 -171.072 
L 111.915372 -171.072 
L 111.598017 -171.072 
L 111.280661 -171.072 
L 110.963306 -171.072 
L 110.64595 -171.072 
L 110.328595 -171.072 
L 110.01124 -171.072 
L 109.693884 -171.072 
L 109.376529 -171.072 
L 109.059174 -171.072 
L 108.741818 -171.072 
L 108.424463 -171.072 
L 108.107107 -171.072 
L 107.789752 -171.072 
L 107.472397 -171.072 
L 107.155041 -171.072 
L 106.837686 -171.072 
L 106.520331 -171.072 
L 106.202975 -171.072 
L 105.88562 -171.072 
L 105.568264 -171.072 
L 105.250909 -171.072 
L 104.933554 -171.072 
L 104.616198 -171.072 
L 104.298843 -171.072 
L 103.981488 -171.072 
L 103.664132 -171.072 
L 103.346777 -171.072 
L 103.029421 -171.072 
L 102.712066 -171.072 
L 102.394711 -171.072 
L 102.077355 -171.072 
L 101.76 -171.072 
L 101.442645 -171.072 
L 101.125289 -171.072 
L 100.807934 -171.072 
L 100.490579 -171.072 
L 100.173223 -171.072 
L 99.855868 -171.072 
L 99.538512 -171.072 
L 99.221157 -171.072 
L 98.903802 -171.072 
L 98.586446 -171.072 
L 98.269091 -171.072 
L 97.951736 -171.072 
L 97.63438 -171.072 
L 97.317025 -171.072 
L 96.999669 -171.072 
L 96.682314 -171.072 
L 96.364959 -171.072 
L 96.047603 -171.072 
L 95.730248 -171.072 
L 95.412893 -171.072 
L 95.095537 -171.072 
L 94.778182 -171.072 
L 94.460826 -171.072 
L 94.143471 -171.072 
L 93.826116 -171.072 
L 93.50876 -171.072 
L 93.191405 -171.072 
L 92.87405 -171.072 
L 92.556694 -171.072 
L 92.239339 -171.072 
L 91.921983 -171.072 
L 91.604628 -171.072 
L 91.287273 -171.072 
L 90.969917 -171.072 
L 90.652562 -171.072 
L 90.335207 -171.072 
L 90.017851 -171.072 
L 89.700496 -171.072 
L 89.38314 -171.072 
L 89.065785 -171.072 
L 88.74843 -171.072 
L 88.431074 -171.072 
L 88.113719 -171.072 
L 87.796364 -171.072 
L 87.479008 -171.072 
L 87.161653 -171.072 
L 86.844298 -171.072 
L 86.526942 -171.072 
L 86.209587 -171.072 
L 85.892231 -171.072 
L 85.574876 -171.072 
L 85.257521 -171.072 
L 84.940165 -171.072 
L 84.62281 -171.072 
L 84.305455 -171.072 
L 83.988099 -171.072 
L 83.670744 -171.072 
L 83.353388 -171.072 
L 83.036033 -171.072 
L 82.718678 -171.072 
L 82.401322 -171.072 
L 82.083967 -171.072 
L 81.766612 -171.072 
L 81.449256 -171.072 
L 81.131901 -171.072 
L 80.814545 -171.072 
L 80.49719 -171.072 
L 80.179835 -171.072 
L 79.862479 -171.072 
L 79.545124 -171.072 
L 79.227769 -171.072 
L 78.910413 -171.072 
L 78.593058 -171.072 
L 78.275702 -171.072 
L 77.958347 -171.072 
L 77.640992 -171.072 
L 77.323636 -171.072 
L 77.006281 -171.072 
L 76.688926 -171.072 
L 76.37157 -171.072 
L 76.054215 -171.072 
L 75.73686 -171.072 
L 75.419504 -171.072 
L 75.102149 -171.072 
L 74.784793 -171.072 
L 74.467438 -171.072 
L 74.150083 -171.072 
L 73.832727 -171.072 
z
" style="stroke: #87ceeb; stroke-opacity: 0.75"/>
    </defs>
    <g clip-path="url(#pc1a9541a78)">
     <use xlink:href="#m3cf195aacf" x="0" y="345.6" style="fill: #87ceeb; fill-opacity: 0.75; stroke: #87ceeb; stroke-opacity: 0.75"/>
    </g>
   </g>
   <g id="matplotlib.axis_1">
    <g id="xtick_1">
     <g id="line2d_1">
      <defs>
       <path id="mcfafa50ea3" d="M 0 0 
L 0 3.5 
" style="stroke: #000000; stroke-width: 0.8"/>
      </defs>
      <g>
       <use xlink:href="#mcfafa50ea3" x="73.832727" y="307.584" style="stroke: #000000; stroke-width: 0.8"/>
      </g>
     </g>
     <g id="text_1">
      <!-- 0 -->
      <g transform="translate(70.531868 322.161969) scale(0.11 -0.11)">
       <defs>
        <path id="AndaleMono-30" d="M 1913 4494 
Q 2613 4494 2989 3892 
Q 3366 3291 3366 2203 
Q 3366 1150 3000 533 
Q 2634 -84 1913 -84 
Q 1216 -84 837 516 
Q 459 1116 459 2203 
Q 459 3259 826 3876 
Q 1194 4494 1913 4494 
z
M 1913 366 
Q 2375 366 2598 805 
Q 2822 1244 2822 2203 
Q 2822 3166 2598 3602 
Q 2375 4038 1913 4038 
Q 1456 4038 1231 3591 
Q 1006 3144 1006 2203 
Q 1006 1250 1229 808 
Q 1453 366 1913 366 
z
M 1900 2672 
Q 2097 2672 2233 2536 
Q 2369 2400 2369 2203 
Q 2369 2000 2231 1854 
Q 2094 1709 1900 1709 
Q 1709 1709 1573 1854 
Q 1438 2000 1438 2203 
Q 1438 2403 1570 2537 
Q 1703 2672 1900 2672 
z
" transform="scale(0.015625)"/>
       </defs>
       <use xlink:href="#AndaleMono-30"/>
      </g>
     </g>
    </g>
    <g id="xtick_2">
     <g id="line2d_2">
      <g>
       <use xlink:href="#mcfafa50ea3" x="137.303802" y="307.584" style="stroke: #000000; stroke-width: 0.8"/>
      </g>
     </g>
     <g id="text_2">
      <!-- 200 -->
      <g transform="translate(127.401224 322.161969) scale(0.11 -0.11)">
       <defs>
        <path id="AndaleMono-32" d="M 3066 0 
L 641 0 
L 641 372 
Q 1563 1400 1838 1750 
Q 2113 2100 2284 2484 
Q 2456 2869 2456 3250 
Q 2456 3619 2232 3831 
Q 2009 4044 1606 4044 
Q 1297 4044 775 3853 
L 703 4294 
Q 1175 4494 1691 4494 
Q 2281 4494 2642 4161 
Q 3003 3828 3003 3272 
Q 3003 2875 2817 2484 
Q 2631 2094 2340 1734 
Q 2050 1375 1209 447 
L 3066 447 
L 3066 0 
z
" transform="scale(0.015625)"/>
       </defs>
       <use xlink:href="#AndaleMono-32"/>
       <use xlink:href="#AndaleMono-30" x="60.009766"/>
       <use xlink:href="#AndaleMono-30" x="120.019531"/>
      </g>
     </g>
    </g>
    <g id="xtick_3">
     <g id="line2d_3">
      <g>
       <use xlink:href="#mcfafa50ea3" x="200.774876" y="307.584" style="stroke: #000000; stroke-width: 0.8"/>
      </g>
     </g>
     <g id="text_3">
      <!-- 400 -->
      <g transform="translate(190.872298 322.161969) scale(0.11 -0.11)">
       <defs>
        <path id="AndaleMono-34" d="M 3353 1019 
L 2809 1019 
L 2809 0 
L 2297 0 
L 2297 1019 
L 378 1019 
L 378 1409 
L 2119 4409 
L 2809 4409 
L 2809 1466 
L 3353 1466 
L 3353 1019 
z
M 2297 1466 
L 2297 3903 
L 897 1466 
L 2297 1466 
z
" transform="scale(0.015625)"/>
       </defs>
       <use xlink:href="#AndaleMono-34"/>
       <use xlink:href="#AndaleMono-30" x="60.009766"/>
       <use xlink:href="#AndaleMono-30" x="120.019531"/>
      </g>
     </g>
    </g>
    <g id="xtick_4">
     <g id="line2d_4">
      <g>
       <use xlink:href="#mcfafa50ea3" x="264.24595" y="307.584" style="stroke: #000000; stroke-width: 0.8"/>
      </g>
     </g>
     <g id="text_4">
      <!-- 600 -->
      <g transform="translate(254.343372 322.161969) scale(0.11 -0.11)">
       <defs>
        <path id="AndaleMono-36" d="M 1131 2297 
Q 1544 2631 2028 2631 
Q 2588 2631 2961 2273 
Q 3334 1916 3334 1350 
Q 3334 728 3003 322 
Q 2672 -84 2119 -84 
Q 1413 -84 1000 564 
Q 588 1213 588 2150 
Q 588 3150 1017 3822 
Q 1447 4494 2194 4494 
Q 2709 4494 3084 4341 
L 3003 3884 
Q 2569 4044 2209 4044 
Q 1700 4044 1415 3556 
Q 1131 3069 1131 2297 
z
M 1147 1856 
Q 1147 1291 1412 828 
Q 1678 366 2081 366 
Q 2422 366 2606 616 
Q 2791 866 2791 1306 
Q 2791 1713 2587 1947 
Q 2384 2181 2016 2181 
Q 1538 2181 1147 1856 
z
" transform="scale(0.015625)"/>
       </defs>
       <use xlink:href="#AndaleMono-36"/>
       <use xlink:href="#AndaleMono-30" x="60.009766"/>
       <use xlink:href="#AndaleMono-30" x="120.019531"/>
      </g>
     </g>
    </g>
    <g id="xtick_5">
     <g id="line2d_5">
      <g>
       <use xlink:href="#mcfafa50ea3" x="327.717025" y="307.584" style="stroke: #000000; stroke-width: 0.8"/>
      </g>
     </g>
     <g id="text_5">
      <!-- 800 -->
      <g transform="translate(317.814447 322.161969) scale(0.11 -0.11)">
       <defs>
        <path id="AndaleMono-38" d="M 2363 2419 
Q 2813 2288 3061 1972 
Q 3309 1656 3309 1234 
Q 3309 628 2907 272 
Q 2506 -84 1919 -84 
Q 1303 -84 908 275 
Q 513 634 513 1228 
Q 513 1647 769 1965 
Q 1025 2284 1484 2419 
Q 1119 2513 898 2780 
Q 678 3047 678 3378 
Q 678 3803 1015 4148 
Q 1353 4494 1906 4494 
Q 2453 4494 2811 4150 
Q 3169 3806 3169 3378 
Q 3169 3056 2944 2786 
Q 2719 2516 2363 2419 
z
M 1906 2631 
Q 1922 2631 2056 2668 
Q 2191 2706 2286 2761 
Q 2381 2816 2462 2900 
Q 2544 2984 2594 3098 
Q 2644 3213 2644 3353 
Q 2644 3653 2428 3851 
Q 2213 4050 1906 4050 
Q 1609 4050 1396 3847 
Q 1184 3644 1184 3353 
Q 1184 3169 1261 3031 
Q 1338 2894 1452 2809 
Q 1566 2725 1714 2678 
Q 1863 2631 1906 2631 
z
M 1906 2194 
Q 1050 1944 1050 1253 
Q 1050 850 1309 608 
Q 1569 366 1919 366 
Q 2281 366 2529 605 
Q 2778 844 2778 1253 
Q 2778 1563 2606 1808 
Q 2434 2053 1906 2194 
z
" transform="scale(0.015625)"/>
       </defs>
       <use xlink:href="#AndaleMono-38"/>
       <use xlink:href="#AndaleMono-30" x="60.009766"/>
       <use xlink:href="#AndaleMono-30" x="120.019531"/>
      </g>
     </g>
    </g>
    <g id="xtick_6">
     <g id="line2d_6">
      <g>
       <use xlink:href="#mcfafa50ea3" x="391.188099" y="307.584" style="stroke: #000000; stroke-width: 0.8"/>
      </g>
     </g>
     <g id="text_6">
      <!-- 1000 -->
      <g transform="translate(377.984662 322.161969) scale(0.11 -0.11)">
       <defs>
        <path id="AndaleMono-31" d="M 3181 0 
L 863 0 
L 863 447 
L 1797 447 
L 1797 3872 
L 916 3431 
L 916 3944 
L 1869 4434 
L 2309 4434 
L 2309 447 
L 3181 447 
L 3181 0 
z
" transform="scale(0.015625)"/>
       </defs>
       <use xlink:href="#AndaleMono-31"/>
       <use xlink:href="#AndaleMono-30" x="60.009766"/>
       <use xlink:href="#AndaleMono-30" x="120.019531"/>
       <use xlink:href="#AndaleMono-30" x="180.029297"/>
      </g>
     </g>
    </g>
   </g>
   <g id="matplotlib.axis_2">
    <g id="ytick_1">
     <g id="line2d_7">
      <defs>
       <path id="m237b34c10e" d="M 0 0 
L -3.5 0 
" style="stroke: #000000; stroke-width: 0.8"/>
      </defs>
      <g>
       <use xlink:href="#m237b34c10e" x="57.6" y="295.488" style="stroke: #000000; stroke-width: 0.8"/>
      </g>
     </g>
     <g id="text_7">
      <!-- 1.00 -->
      <g transform="translate(17.591406 299.276984) scale(0.11 -0.11)">
       <defs>
        <path id="AndaleMono-2212" d="M 3397 2047 
L 441 2047 
L 441 2456 
L 3397 2456 
L 3397 2047 
z
" transform="scale(0.015625)"/>
        <path id="AndaleMono-2e" d="M 1900 716 
Q 2066 716 2178 603 
Q 2291 491 2291 325 
Q 2291 156 2177 36 
Q 2063 -84 1900 -84 
Q 1741 -84 1628 36 
Q 1516 156 1516 325 
Q 1516 494 1627 605 
Q 1738 716 1900 716 
z
" transform="scale(0.015625)"/>
       </defs>
       <use xlink:href="#AndaleMono-2212"/>
       <use xlink:href="#AndaleMono-31" x="60.009766"/>
       <use xlink:href="#AndaleMono-2e" x="120.019531"/>
       <use xlink:href="#AndaleMono-30" x="180.029297"/>
       <use xlink:href="#AndaleMono-30" x="240.039062"/>
      </g>
     </g>
    </g>
    <g id="ytick_2">
     <g id="line2d_8">
      <g>
       <use xlink:href="#m237b34c10e" x="57.6" y="265.248" style="stroke: #000000; stroke-width: 0.8"/>
      </g>
     </g>
     <g id="text_8">
      <!-- 0.75 -->
      <g transform="translate(17.591406 269.036984) scale(0.11 -0.11)">
       <defs>
        <path id="AndaleMono-37" d="M 3238 4044 
L 1491 0 
L 966 0 
L 2688 3963 
L 622 3963 
L 622 4409 
L 3238 4409 
L 3238 4044 
z
" transform="scale(0.015625)"/>
        <path id="AndaleMono-35" d="M 1356 2631 
Q 1569 2688 1772 2688 
Q 2397 2688 2759 2305 
Q 3122 1922 3122 1350 
Q 3122 750 2700 333 
Q 2278 -84 1672 -84 
Q 1094 -84 703 109 
L 806 544 
Q 1231 366 1684 366 
Q 2088 366 2336 625 
Q 2584 884 2584 1350 
Q 2584 1791 2350 2028 
Q 2116 2266 1747 2266 
Q 1478 2266 1216 2163 
L 909 2303 
L 909 4409 
L 2925 4409 
L 2925 3963 
L 1356 3963 
L 1356 2631 
z
" transform="scale(0.015625)"/>
       </defs>
       <use xlink:href="#AndaleMono-2212"/>
       <use xlink:href="#AndaleMono-30" x="60.009766"/>
       <use xlink:href="#AndaleMono-2e" x="120.019531"/>
       <use xlink:href="#AndaleMono-37" x="180.029297"/>
       <use xlink:href="#AndaleMono-35" x="240.039062"/>
      </g>
     </g>
    </g>
    <g id="ytick_3">
     <g id="line2d_9">
      <g>
       <use xlink:href="#m237b34c10e" x="57.6" y="235.008" style="stroke: #000000; stroke-width: 0.8"/>
      </g>
     </g>
     <g id="text_9">
      <!-- 0.50 -->
      <g transform="translate(17.591406 238.796984) scale(0.11 -0.11)">
       <use xlink:href="#AndaleMono-2212"/>
       <use xlink:href="#AndaleMono-30" x="60.009766"/>
       <use xlink:href="#AndaleMono-2e" x="120.019531"/>
       <use xlink:href="#AndaleMono-35" x="180.029297"/>
       <use xlink:href="#AndaleMono-30" x="240.039062"/>
      </g>
     </g>
    </g>
    <g id="ytick_4">
     <g id="line2d_10">
      <g>
       <use xlink:href="#m237b34c10e" x="57.6" y="204.768" style="stroke: #000000; stroke-width: 0.8"/>
      </g>
     </g>
     <g id="text_10">
      <!-- 0.25 -->
      <g transform="translate(17.591406 208.556984) scale(0.11 -0.11)">
       <use xlink:href="#AndaleMono-2212"/>
       <use xlink:href="#AndaleMono-30" x="60.009766"/>
       <use xlink:href="#AndaleMono-2e" x="120.019531"/>
       <use xlink:href="#AndaleMono-32" x="180.029297"/>
       <use xlink:href="#AndaleMono-35" x="240.039062"/>
      </g>
     </g>
    </g>
    <g id="ytick_5">
     <g id="line2d_11">
      <g>
       <use xlink:href="#m237b34c10e" x="57.6" y="174.528" style="stroke: #000000; stroke-width: 0.8"/>
      </g>
     </g>
     <g id="text_11">
      <!-- 0.00 -->
      <g transform="translate(24.193125 178.316984) scale(0.11 -0.11)">
       <use xlink:href="#AndaleMono-30"/>
       <use xlink:href="#AndaleMono-2e" x="60.009766"/>
       <use xlink:href="#AndaleMono-30" x="120.019531"/>
       <use xlink:href="#AndaleMono-30" x="180.029297"/>
      </g>
     </g>
    </g>
    <g id="ytick_6">
     <g id="line2d_12">
      <g>
       <use xlink:href="#m237b34c10e" x="57.6" y="144.288" style="stroke: #000000; stroke-width: 0.8"/>
      </g>
     </g>
     <g id="text_12">
      <!-- 0.25 -->
      <g transform="translate(24.193125 148.076984) scale(0.11 -0.11)">
       <use xlink:href="#AndaleMono-30"/>
       <use xlink:href="#AndaleMono-2e" x="60.009766"/>
       <use xlink:href="#AndaleMono-32" x="120.019531"/>
       <use xlink:href="#AndaleMono-35" x="180.029297"/>
      </g>
     </g>
    </g>
    <g id="ytick_7">
     <g id="line2d_13">
      <g>
       <use xlink:href="#m237b34c10e" x="57.6" y="114.048" style="stroke: #000000; stroke-width: 0.8"/>
      </g>
     </g>
     <g id="text_13">
      <!-- 0.50 -->
      <g transform="translate(24.193125 117.836984) scale(0.11 -0.11)">
       <use xlink:href="#AndaleMono-30"/>
       <use xlink:href="#AndaleMono-2e" x="60.009766"/>
       <use xlink:href="#AndaleMono-35" x="120.019531"/>
       <use xlink:href="#AndaleMono-30" x="180.029297"/>
      </g>
     </g>
    </g>
    <g id="ytick_8">
     <g id="line2d_14">
      <g>
       <use xlink:href="#m237b34c10e" x="57.6" y="83.808" style="stroke: #000000; stroke-width: 0.8"/>
      </g>
     </g>
     <g id="text_14">
      <!-- 0.75 -->
      <g transform="translate(24.193125 87.596984) scale(0.11 -0.11)">
       <use xlink:href="#AndaleMono-30"/>
       <use xlink:href="#AndaleMono-2e" x="60.009766"/>
       <use xlink:href="#AndaleMono-37" x="120.019531"/>
       <use xlink:href="#AndaleMono-35" x="180.029297"/>
      </g>
     </g>
    </g>
    <g id="ytick_9">
     <g id="line2d_15">
      <g>
       <use xlink:href="#m237b34c10e" x="57.6" y="53.568" style="stroke: #000000; stroke-width: 0.8"/>
      </g>
     </g>
     <g id="text_15">
      <!-- 1.00 -->
      <g transform="translate(24.193125 57.356984) scale(0.11 -0.11)">
       <use xlink:href="#AndaleMono-31"/>
       <use xlink:href="#AndaleMono-2e" x="60.009766"/>
       <use xlink:href="#AndaleMono-30" x="120.019531"/>
       <use xlink:href="#AndaleMono-30" x="180.029297"/>
      </g>
     </g>
    </g>
   </g>
   <g id="line2d_16">
    <path d="M 73.832727 174.528 
L 74.150083 130.456393 
L 79.862479 102.066615 
L 83.353388 86.918604 
L 84.305455 83.553244 
L 84.940165 82.070679 
L 85.574876 81.241021 
L 85.892231 81.051911 
L 86.209587 80.997894 
L 86.844298 81.262048 
L 87.479008 81.952894 
L 88.113719 83.005409 
L 88.74843 84.435642 
L 89.700496 87.229322 
L 90.969917 91.951957 
L 92.87405 99.170654 
L 94.778182 105.287762 
L 99.538512 119.340338 
L 101.76 124.947034 
L 103.981488 130.242849 
L 105.568264 133.301402 
L 106.837686 135.385838 
L 108.741818 138.084747 
L 109.693884 139.034237 
L 110.328595 139.411488 
L 111.280661 139.654287 
L 112.232727 139.914737 
L 112.867438 140.263272 
L 114.13686 141.37984 
L 115.088926 142.402436 
L 116.358347 144.199903 
L 120.801322 150.918791 
L 123.340165 154.558197 
L 124.609587 155.852513 
L 125.879008 156.918921 
L 127.14843 157.816407 
L 128.100496 158.235195 
L 129.369917 158.413564 
L 132.226116 158.48138 
L 133.178182 158.161161 
L 134.764959 157.280575 
L 136.03438 156.239633 
L 140.794711 152.14216 
L 142.698843 150.946268 
L 143.650909 150.566404 
L 144.28562 150.484481 
L 145.872397 150.637721 
L 147.776529 151.044783 
L 148.728595 151.535177 
L 153.806281 155.066833 
L 155.393058 156.604075 
L 158.249256 159.610774 
L 163.326942 164.146328 
L 164.279008 164.564201 
L 164.913719 164.646301 
L 165.865785 164.5363 
L 167.135207 164.161357 
L 168.404628 163.607039 
L 169.67405 162.775544 
L 171.578182 161.492092 
L 172.847603 160.948842 
L 174.117025 160.650368 
L 185.224463 158.946159 
L 186.493884 159.166004 
L 187.763306 159.617413 
L 189.032727 160.314308 
L 191.57157 162.119207 
L 192.840992 163.235532 
L 196.014545 168.875525 
L 196.331901 169.046784 
L 196.649256 169.07208 
L 196.966612 168.941416 
L 197.283967 168.623284 
L 197.918678 167.421407 
L 198.553388 165.547963 
L 199.505455 161.638526 
L 200.457521 156.45975 
L 201.726942 147.951048 
L 203.631074 133.442808 
L 209.660826 85.532037 
L 210.930248 78.141825 
L 211.882314 73.938962 
L 212.517025 71.887992 
L 213.151736 70.273168 
L 215.690579 60.722413 
L 216.642645 56.889996 
L 217.277355 55.030873 
L 217.912066 53.898694 
L 218.229421 53.642811 
L 218.546777 53.568 
L 218.864132 53.651445 
L 219.181488 53.903454 
L 219.816198 54.899783 
L 220.450909 56.666902 
L 221.08562 59.233988 
L 222.037686 64.33486 
L 223.307107 72.452722 
L 224.576529 82.008047 
L 226.163306 95.308269 
L 228.384793 116.369471 
L 230.288926 133.701213 
L 232.193058 148.823833 
L 233.462479 157.051526 
L 240.126942 200.232167 
L 241.713719 212.687075 
L 243.300496 226.652651 
L 247.10876 261.926168 
L 249.012893 276.603278 
L 250.599669 286.567141 
L 251.551736 291.193319 
L 252.186446 293.378214 
L 252.821157 294.737554 
L 253.455868 295.404555 
L 253.773223 295.488 
L 254.090579 295.413189 
L 254.407934 295.157306 
L 254.725289 294.693859 
L 255.36 293.16227 
L 255.994711 291.053875 
L 257.898843 283.440125 
L 258.533554 281.210826 
L 259.168264 278.782832 
L 260.437686 275.117038 
L 261.389752 270.914175 
L 262.341818 265.54369 
L 263.61124 256.908179 
L 265.198017 244.306791 
L 269.323636 210.574443 
L 271.227769 196.658662 
L 272.49719 189.003155 
L 273.449256 184.674402 
L 274.083967 182.49349 
L 274.718678 180.943383 
L 275.353388 180.114584 
L 275.670744 179.98392 
L 275.988099 180.009216 
L 276.305455 180.180475 
L 276.940165 181.056309 
L 279.796364 186.201986 
L 283.604628 188.940086 
L 284.87405 189.571501 
L 286.143471 189.967778 
L 287.412893 190.114321 
L 288.682314 189.956068 
L 290.903802 189.461632 
L 292.807934 189.255009 
L 295.029421 188.988482 
L 297.88562 188.456241 
L 299.472397 188.107158 
L 300.741818 187.563908 
L 302.01124 186.744218 
L 303.915372 185.448961 
L 305.184793 184.894643 
L 306.77157 184.462974 
L 307.723636 184.428198 
L 308.358347 184.602682 
L 308.993058 184.909672 
L 310.89719 186.419103 
L 312.483967 187.938644 
L 319.465785 194.753546 
L 324.226116 197.878453 
L 325.178182 198.194845 
L 327.399669 198.536978 
L 328.351736 198.551281 
L 329.303802 198.278235 
L 330.890579 197.334708 
L 332.16 196.39576 
L 337.555041 191.775425 
L 338.824463 191.048569 
L 339.776529 190.657073 
L 340.728595 190.516267 
L 342.315372 190.606102 
L 344.219504 190.820805 
L 345.17157 191.239593 
L 346.758347 192.391089 
L 348.027769 193.504515 
L 349.29719 194.882757 
L 350.883967 197.186324 
L 356.913719 206.23824 
L 357.865785 207.364973 
L 359.452562 208.792728 
L 360.404628 209.262194 
L 362.30876 209.808389 
L 362.943471 210.283153 
L 363.895537 211.381666 
L 365.799669 214.151408 
L 367.069091 216.326668 
L 368.973223 220.187796 
L 371.194711 225.683563 
L 373.098843 230.601065 
L 375.002975 236.31163 
L 376.907107 241.855594 
L 379.44595 249.824255 
L 380.715372 254.490532 
L 382.93686 262.816461 
L 383.888926 265.465535 
L 384.840992 267.347361 
L 385.475702 268.184293 
L 386.110413 268.626471 
L 386.427769 268.674225 
L 386.745124 268.595807 
L 387.062479 268.374571 
L 387.69719 267.493152 
L 388.331901 265.97043 
L 389.283967 262.49086 
L 390.870744 255.644603 
L 394.044298 241.117767 
L 398.169917 220.199653 
L 398.487273 174.528 
L 398.487273 174.528 
" clip-path="url(#pc1a9541a78)" style="fill: none; stroke: #87ceeb; stroke-opacity: 0.75; stroke-linecap: square"/>
   </g>
   <g id="patch_3">
    <path d="M 57.6 307.584 
L 57.6 41.472 
" style="fill: none; stroke: #000000; stroke-width: 0.8; stroke-linejoin: miter; stroke-linecap: square"/>
   </g>
   <g id="patch_4">
    <path d="M 414.72 307.584 
L 414.72 41.472 
" style="fill: none; stroke: #000000; stroke-width: 0.8; stroke-linejoin: miter; stroke-linecap: square"/>
   </g>
   <g id="patch_5">
    <path d="M 57.6 307.584 
L 414.72 307.584 
" style="fill: none; stroke: #000000; stroke-width: 0.8; stroke-linejoin: miter; stroke-linecap: square"/>
   </g>
   <g id="patch_6">
    <path d="M 57.6 41.472 
L 414.72 41.472 
" style="fill: none; stroke: #000000; stroke-width: 0.8; stroke-linejoin: miter; stroke-linecap: square"/>
   </g>
  </g>
 </g>
 <defs>
  <clipPath id="pc1a9541a78">
   <rect x="57.6" y="41.472" width="357.12" height="266.112"/>
  </clipPath>
 </defs>
</svg>
