<?xml version="1.0" encoding="utf-8" standalone="no"?>
<!DOCTYPE svg PUBLIC "-//W3C//DTD SVG 1.1//EN"
  "http://www.w3.org/Graphics/SVG/1.1/DTD/svg11.dtd">
<svg xmlns:xlink="http://www.w3.org/1999/xlink" width="460.8pt" height="345.6pt" viewBox="0 0 460.8 345.6" xmlns="http://www.w3.org/2000/svg" version="1.1">
 <metadata>
  <rdf:RDF xmlns:dc="http://purl.org/dc/elements/1.1/" xmlns:cc="http://creativecommons.org/ns#" xmlns:rdf="http://www.w3.org/1999/02/22-rdf-syntax-ns#">
   <cc:Work>
    <dc:type rdf:resource="http://purl.org/dc/dcmitype/StillImage"/>
    <dc:date>2024-04-23T11:13:07.036273</dc:date>
    <dc:format>image/svg+xml</dc:format>
    <dc:creator>
     <cc:Agent>
      <dc:title>Matplotlib v3.8.3, https://matplotlib.org/</dc:title>
     </cc:Agent>
    </dc:creator>
   </cc:Work>
  </rdf:RDF>
 </metadata>
 <defs>
  <style type="text/css">*{stroke-linejoin: round; stroke-linecap: butt}</style>
 </defs>
 <g id="figure_1">
  <g id="patch_1">
   <path d="M 0 345.6 
L 460.8 345.6 
L 460.8 0 
L 0 0 
z
" style="fill: #ffffff"/>
  </g>
  <g id="axes_1">
   <g id="patch_2">
    <path d="M 57.6 307.584 
L 414.72 307.584 
L 414.72 41.472 
L 57.6 41.472 
z
" style="fill: #ffffff"/>
   </g>
   <g id="PolyCollection_1">
    <defs>
     <path id="meb9509540d" d="M 73.832727 -171.072 
L 73.832727 -171.072 
L 74.150083 -171.13531 
L 74.467438 -171.137544 
L 74.784793 -171.13994 
L 75.102149 -171.142376 
L 75.419504 -171.144944 
L 75.73686 -171.147612 
L 76.054215 -171.150268 
L 76.37157 -171.152567 
L 76.688926 -171.151301 
L 77.006281 -171.112995 
L 77.323636 -171.076576 
L 77.640992 -171.039724 
L 77.958347 -170.995389 
L 78.275702 -170.953235 
L 78.593058 -170.920765 
L 78.910413 -170.886436 
L 79.227769 -170.863337 
L 79.545124 -170.848732 
L 79.862479 -170.842907 
L 80.179835 -170.830097 
L 80.49719 -170.824391 
L 80.814545 -170.834052 
L 81.131901 -170.832893 
L 81.449256 -170.829157 
L 81.766612 -170.845891 
L 82.083967 -170.870806 
L 82.401322 -170.914741 
L 82.718678 -170.968997 
L 83.036033 -171.042253 
L 83.353388 -171.134948 
L 83.670744 -171.247537 
L 83.988099 -171.38626 
L 84.305455 -171.529725 
L 84.62281 -171.689338 
L 84.940165 -171.868045 
L 85.257521 -172.070981 
L 85.574876 -172.28888 
L 85.892231 -172.526204 
L 86.209587 -172.768691 
L 86.526942 -173.039456 
L 86.844298 -173.337989 
L 87.161653 -173.660118 
L 87.479008 -174.005634 
L 87.796364 -174.374674 
L 88.113719 -174.764694 
L 88.431074 -175.162637 
L 88.74843 -175.579025 
L 89.065785 -176.00757 
L 89.38314 -176.443355 
L 89.700496 -176.890805 
L 90.017851 -177.354925 
L 90.335207 -177.832924 
L 90.652562 -178.316941 
L 90.969917 -178.811398 
L 91.287273 -179.317247 
L 91.604628 -179.82978 
L 91.921983 -180.348559 
L 92.239339 -180.870896 
L 92.556694 -181.396994 
L 92.87405 -181.925523 
L 93.191405 -182.453211 
L 93.50876 -182.976243 
L 93.826116 -183.493711 
L 94.143471 -184.003222 
L 94.460826 -184.503369 
L 94.778182 -184.99052 
L 95.095537 -185.456871 
L 95.412893 -185.91038 
L 95.730248 -186.344732 
L 96.047603 -186.761158 
L 96.364959 -187.157359 
L 96.682314 -187.526873 
L 96.999669 -187.880392 
L 97.317025 -188.28764 
L 97.63438 -188.677833 
L 97.951736 -189.057302 
L 98.269091 -189.438239 
L 98.586446 -189.806356 
L 98.903802 -190.141528 
L 99.221157 -190.465002 
L 99.538512 -190.755046 
L 99.855868 -191.015273 
L 100.173223 -191.247737 
L 100.490579 -191.484956 
L 100.807934 -191.706736 
L 101.125289 -191.894725 
L 101.442645 -192.102486 
L 101.76 -192.321098 
L 102.077355 -192.50745 
L 102.394711 -192.683914 
L 102.712066 -192.829503 
L 103.029421 -192.960083 
L 103.346777 -193.065939 
L 103.664132 -193.142361 
L 103.981488 -193.195481 
L 104.298843 -193.211604 
L 104.616198 -193.228092 
L 104.933554 -193.22635 
L 105.250909 -193.20645 
L 105.568264 -193.159458 
L 105.88562 -193.101156 
L 106.202975 -193.020572 
L 106.520331 -192.950749 
L 106.837686 -192.84515 
L 107.155041 -192.711518 
L 107.472397 -192.553049 
L 107.789752 -192.371372 
L 108.107107 -192.16443 
L 108.424463 -191.929339 
L 108.741818 -191.689997 
L 109.059174 -191.432249 
L 109.376529 -191.169498 
L 109.693884 -190.90912 
L 110.01124 -190.640811 
L 110.328595 -190.35307 
L 110.64595 -190.053491 
L 110.963306 -189.756343 
L 111.280661 -189.449623 
L 111.598017 -189.132901 
L 111.915372 -188.811044 
L 112.232727 -188.484981 
L 112.550083 -188.157171 
L 112.867438 -187.823237 
L 113.184793 -187.483638 
L 113.502149 -187.14343 
L 113.819504 -186.80784 
L 114.13686 -186.476031 
L 114.454215 -186.145506 
L 114.77157 -185.821042 
L 115.088926 -185.508137 
L 115.406281 -185.220283 
L 115.723636 -184.94036 
L 116.040992 -184.679826 
L 116.358347 -184.427604 
L 116.675702 -184.193805 
L 116.993058 -183.984799 
L 117.310413 -183.793829 
L 117.627769 -183.585399 
L 117.945124 -183.387737 
L 118.262479 -183.193583 
L 118.579835 -183.003358 
L 118.89719 -182.819144 
L 119.214545 -182.65828 
L 119.531901 -182.512131 
L 119.849256 -182.383768 
L 120.166612 -182.277778 
L 120.483967 -182.188029 
L 120.801322 -182.102105 
L 121.118678 -182.018596 
L 121.436033 -181.949915 
L 121.753388 -181.867493 
L 122.070744 -181.773734 
L 122.388099 -181.685313 
L 122.705455 -181.594585 
L 123.02281 -181.511767 
L 123.340165 -181.433731 
L 123.657521 -181.359072 
L 123.974876 -181.298775 
L 124.292231 -181.23936 
L 124.609587 -181.187599 
L 124.926942 -181.126948 
L 125.244298 -181.071231 
L 125.561653 -181.010569 
L 125.879008 -180.947287 
L 126.196364 -180.879263 
L 126.513719 -180.816693 
L 126.831074 -180.740119 
L 127.14843 -180.676461 
L 127.465785 -180.610525 
L 127.78314 -180.547875 
L 128.100496 -180.480464 
L 128.417851 -180.410073 
L 128.735207 -180.3512 
L 129.052562 -180.294411 
L 129.369917 -180.238902 
L 129.687273 -180.171488 
L 130.004628 -180.092561 
L 130.321983 -180.007823 
L 130.639339 -179.925683 
L 130.956694 -179.840454 
L 131.27405 -179.746302 
L 131.591405 -179.657127 
L 131.90876 -179.564303 
L 132.226116 -179.470866 
L 132.543471 -179.374762 
L 132.860826 -179.278359 
L 133.178182 -179.18825 
L 133.495537 -179.102797 
L 133.812893 -179.020586 
L 134.130248 -178.93896 
L 134.447603 -178.85593 
L 134.764959 -178.780115 
L 135.082314 -178.70592 
L 135.399669 -178.633852 
L 135.717025 -178.560597 
L 136.03438 -178.488746 
L 136.351736 -178.41244 
L 136.669091 -178.352285 
L 136.986446 -178.293866 
L 137.303802 -178.243356 
L 137.621157 -178.197405 
L 137.938512 -178.151087 
L 138.255868 -178.107607 
L 138.573223 -178.076768 
L 138.890579 -178.045479 
L 139.207934 -178.017644 
L 139.525289 -177.992879 
L 139.842645 -177.971413 
L 140.16 -177.959828 
L 140.477355 -177.947344 
L 140.794711 -177.941614 
L 141.112066 -177.936777 
L 141.429421 -177.942707 
L 141.746777 -177.953728 
L 142.064132 -177.973199 
L 142.381488 -177.988949 
L 142.698843 -178.013443 
L 143.016198 -178.043014 
L 143.333554 -178.078173 
L 143.650909 -178.119342 
L 143.968264 -178.166681 
L 144.28562 -178.205245 
L 144.602975 -178.247525 
L 144.920331 -178.295245 
L 145.237686 -178.346479 
L 145.555041 -178.39288 
L 145.872397 -178.444812 
L 146.189752 -178.49921 
L 146.507107 -178.553033 
L 146.824463 -178.606269 
L 147.141818 -178.652133 
L 147.459174 -178.693656 
L 147.776529 -178.73412 
L 148.093884 -178.768017 
L 148.41124 -178.803133 
L 148.728595 -178.844526 
L 149.04595 -178.877069 
L 149.363306 -178.904885 
L 149.680661 -178.93178 
L 149.998017 -178.966174 
L 150.315372 -179.005501 
L 150.632727 -179.050527 
L 150.950083 -179.099932 
L 151.267438 -179.151997 
L 151.584793 -179.208354 
L 151.902149 -179.257644 
L 152.219504 -179.311008 
L 152.53686 -179.363744 
L 152.854215 -179.418908 
L 153.17157 -179.470266 
L 153.488926 -179.514927 
L 153.806281 -179.556602 
L 154.123636 -179.588327 
L 154.440992 -179.616476 
L 154.758347 -179.644729 
L 155.075702 -179.675491 
L 155.393058 -179.71171 
L 155.710413 -179.743023 
L 156.027769 -179.769014 
L 156.345124 -179.798964 
L 156.662479 -179.839185 
L 156.979835 -179.872943 
L 157.29719 -179.908314 
L 157.614545 -179.93995 
L 157.931901 -179.967235 
L 158.249256 -179.992047 
L 158.566612 -180.02363 
L 158.883967 -180.047759 
L 159.201322 -180.081234 
L 159.518678 -180.116124 
L 159.836033 -180.147318 
L 160.153388 -180.173803 
L 160.470744 -180.197874 
L 160.788099 -180.221703 
L 161.105455 -180.238344 
L 161.42281 -180.249535 
L 161.740165 -180.247578 
L 162.057521 -180.24589 
L 162.374876 -180.235976 
L 162.692231 -180.242768 
L 163.009587 -180.247732 
L 163.326942 -180.256084 
L 163.644298 -180.264363 
L 163.961653 -180.266768 
L 164.279008 -180.264314 
L 164.596364 -180.27315 
L 164.913719 -180.282509 
L 165.231074 -180.285408 
L 165.54843 -180.282332 
L 165.865785 -180.27961 
L 166.18314 -180.275072 
L 166.500496 -180.27112 
L 166.817851 -180.270458 
L 167.135207 -180.262844 
L 167.452562 -180.260286 
L 167.769917 -180.254882 
L 168.087273 -180.259283 
L 168.404628 -180.272194 
L 168.721983 -180.28856 
L 169.039339 -180.309031 
L 169.356694 -180.341975 
L 169.67405 -180.377445 
L 169.991405 -180.412647 
L 170.30876 -180.441482 
L 170.626116 -180.463143 
L 170.943471 -180.482566 
L 171.260826 -180.494325 
L 171.578182 -180.506679 
L 171.895537 -180.507818 
L 172.212893 -180.513425 
L 172.530248 -180.519062 
L 172.847603 -180.528656 
L 173.164959 -180.535745 
L 173.482314 -180.547406 
L 173.799669 -180.558724 
L 174.117025 -180.568462 
L 174.43438 -180.594208 
L 174.751736 -180.613702 
L 175.069091 -180.644362 
L 175.386446 -180.66449 
L 175.703802 -180.683121 
L 176.021157 -180.715748 
L 176.338512 -180.751928 
L 176.655868 -180.794427 
L 176.973223 -180.82479 
L 177.290579 -180.855957 
L 177.607934 -180.883254 
L 177.925289 -180.905956 
L 178.242645 -180.92883 
L 178.56 -180.956111 
L 178.877355 -180.975887 
L 179.194711 -181.01233 
L 179.512066 -181.046473 
L 179.829421 -181.08768 
L 180.146777 -181.139786 
L 180.464132 -181.194343 
L 180.781488 -181.238852 
L 181.098843 -181.285229 
L 181.416198 -181.340432 
L 181.733554 -181.398733 
L 182.050909 -181.481173 
L 182.368264 -181.566858 
L 182.68562 -181.670745 
L 183.002975 -181.77442 
L 183.320331 -181.891627 
L 183.637686 -182.015975 
L 183.955041 -182.150572 
L 184.272397 -182.295009 
L 184.589752 -182.444317 
L 184.907107 -182.5833 
L 185.224463 -182.714111 
L 185.541818 -182.83898 
L 185.859174 -182.961443 
L 186.176529 -183.084883 
L 186.493884 -183.209717 
L 186.81124 -183.350582 
L 187.128595 -183.513131 
L 187.44595 -183.70745 
L 187.763306 -183.918046 
L 188.080661 -184.138478 
L 188.398017 -184.349188 
L 188.715372 -184.554823 
L 189.032727 -184.774601 
L 189.350083 -184.986527 
L 189.667438 -185.199074 
L 189.984793 -185.421628 
L 190.302149 -185.659947 
L 190.619504 -185.929966 
L 190.93686 -186.235354 
L 191.254215 -186.565444 
L 191.57157 -186.931079 
L 191.888926 -187.322588 
L 192.206281 -187.736903 
L 192.523636 -188.149264 
L 192.840992 -188.549877 
L 193.158347 -188.931558 
L 193.475702 -189.296443 
L 193.793058 -189.646457 
L 194.110413 -189.997686 
L 194.427769 -190.370642 
L 194.745124 -190.766005 
L 195.062479 -191.229103 
L 195.379835 -191.705886 
L 195.69719 -192.209347 
L 196.014545 -192.702593 
L 196.331901 -193.169105 
L 196.649256 -193.633864 
L 196.966612 -194.0958 
L 197.283967 -194.600833 
L 197.601322 -195.145789 
L 197.918678 -195.748315 
L 198.236033 -196.419083 
L 198.553388 -197.153838 
L 198.870744 -197.955355 
L 199.188099 -198.8148 
L 199.505455 -199.695769 
L 199.82281 -200.595107 
L 200.140165 -201.50345 
L 200.457521 -202.400864 
L 200.774876 -203.280974 
L 201.092231 -204.16699 
L 201.409587 -205.038395 
L 201.726942 -205.906168 
L 202.044298 -206.800451 
L 202.361653 -207.729504 
L 202.679008 -208.728034 
L 202.996364 -209.757079 
L 203.313719 -210.79584 
L 203.631074 -211.810687 
L 203.94843 -212.798127 
L 204.265785 -213.762367 
L 204.58314 -214.721338 
L 204.900496 -215.699141 
L 205.217851 -216.73735 
L 205.535207 -217.848658 
L 205.852562 -219.059368 
L 206.169917 -220.36262 
L 206.487273 -221.74686 
L 206.804628 -223.201711 
L 207.121983 -224.707026 
L 207.439339 -226.232066 
L 207.756694 -227.744158 
L 208.07405 -229.254197 
L 208.391405 -230.741382 
L 208.70876 -232.213223 
L 209.026116 -233.655598 
L 209.343471 -235.047439 
L 209.660826 -236.417761 
L 209.978182 -237.783641 
L 210.295537 -239.154536 
L 210.612893 -240.571702 
L 210.930248 -242.011503 
L 211.247603 -243.415876 
L 211.564959 -244.769777 
L 211.882314 -246.037767 
L 212.199669 -247.233393 
L 212.517025 -248.394732 
L 212.83438 -249.567186 
L 213.151736 -250.793867 
L 213.469091 -252.110268 
L 213.786446 -253.528216 
L 214.103802 -255.049713 
L 214.421157 -256.650824 
L 214.738512 -258.287603 
L 215.055868 -259.91202 
L 215.373223 -261.469394 
L 215.690579 -263.008244 
L 216.007934 -264.55904 
L 216.325289 -266.17021 
L 216.642645 -267.874808 
L 216.96 -269.641761 
L 217.277355 -271.460351 
L 217.594711 -273.257546 
L 217.912066 -275.014771 
L 218.229421 -276.689865 
L 218.546777 -278.26255 
L 218.864132 -279.723057 
L 219.181488 -281.076269 
L 219.498843 -282.340906 
L 219.816198 -283.543808 
L 220.133554 -284.696415 
L 220.450909 -285.804433 
L 220.768264 -286.85002 
L 221.08562 -287.843592 
L 221.402975 -288.723938 
L 221.720331 -289.526953 
L 222.037686 -290.276246 
L 222.355041 -290.942777 
L 222.672397 -291.486421 
L 222.989752 -291.832856 
L 223.307107 -292.009941 
L 223.624463 -292.032 
L 223.941818 -291.936554 
L 224.259174 -291.710243 
L 224.576529 -291.351759 
L 224.893884 -290.823615 
L 225.21124 -290.111361 
L 225.528595 -289.161619 
L 225.84595 -287.959364 
L 226.163306 -286.470078 
L 226.480661 -284.696936 
L 226.798017 -282.65762 
L 227.115372 -280.366112 
L 227.432727 -277.849132 
L 227.750083 -275.124291 
L 228.067438 -272.242051 
L 228.384793 -269.19933 
L 228.702149 -266.044003 
L 229.019504 -262.771966 
L 229.33686 -259.405303 
L 229.654215 -255.952237 
L 229.97157 -252.450622 
L 230.288926 -248.888756 
L 230.606281 -245.256617 
L 230.923636 -241.472159 
L 231.240992 -237.522678 
L 231.558347 -233.510284 
L 231.875702 -229.459276 
L 232.193058 -225.433803 
L 232.510413 -221.425197 
L 232.827769 -217.409453 
L 233.145124 -213.348349 
L 233.462479 -209.203172 
L 233.779835 -204.933593 
L 234.09719 -200.543108 
L 234.414545 -196.034747 
L 234.731901 -191.449573 
L 235.049256 -186.825866 
L 235.366612 -182.239859 
L 235.683967 -177.724464 
L 236.001322 -173.282401 
L 236.318678 -168.861599 
L 236.636033 -164.419536 
L 236.953388 -159.904141 
L 237.270744 -155.318134 
L 237.588099 -150.694427 
L 237.905455 -146.109253 
L 238.22281 -141.600892 
L 238.540165 -137.210407 
L 238.857521 -132.940828 
L 239.174876 -128.795651 
L 239.492231 -124.734547 
L 239.809587 -120.718803 
L 240.126942 -116.710197 
L 240.444298 -112.684724 
L 240.761653 -108.633716 
L 241.079008 -104.621322 
L 241.396364 -100.671841 
L 241.713719 -96.887383 
L 242.031074 -93.255244 
L 242.34843 -89.693378 
L 242.665785 -86.191763 
L 242.98314 -82.738697 
L 243.300496 -79.372034 
L 243.617851 -76.099997 
L 243.935207 -72.94467 
L 244.252562 -69.901949 
L 244.569917 -67.019709 
L 244.887273 -64.294868 
L 245.204628 -61.777888 
L 245.521983 -59.48638 
L 245.839339 -57.447064 
L 246.156694 -55.673922 
L 246.47405 -54.184636 
L 246.791405 -52.982381 
L 247.10876 -52.032639 
L 247.426116 -51.320385 
L 247.743471 -50.792241 
L 248.060826 -50.433757 
L 248.378182 -50.207446 
L 248.695537 -50.112 
L 249.012893 -50.134059 
L 249.330248 -50.311144 
L 249.647603 -50.657579 
L 249.964959 -51.201223 
L 250.282314 -51.867754 
L 250.599669 -52.617047 
L 250.917025 -53.420062 
L 251.23438 -54.300408 
L 251.551736 -55.29398 
L 251.869091 -56.339567 
L 252.186446 -57.447585 
L 252.503802 -58.600192 
L 252.821157 -59.803094 
L 253.138512 -61.067731 
L 253.455868 -62.420943 
L 253.773223 -63.88145 
L 254.090579 -65.454135 
L 254.407934 -67.129229 
L 254.725289 -68.886454 
L 255.042645 -70.683649 
L 255.36 -72.502239 
L 255.677355 -74.269192 
L 255.994711 -75.97379 
L 256.312066 -77.58496 
L 256.629421 -79.135756 
L 256.946777 -80.674606 
L 257.264132 -82.23198 
L 257.581488 -83.856397 
L 257.898843 -85.493176 
L 258.216198 -87.094287 
L 258.533554 -88.615784 
L 258.850909 -90.033732 
L 259.168264 -91.350133 
L 259.48562 -92.576814 
L 259.802975 -93.749268 
L 260.120331 -94.910607 
L 260.437686 -96.106233 
L 260.755041 -97.374223 
L 261.072397 -98.728124 
L 261.389752 -100.132497 
L 261.707107 -101.572298 
L 262.024463 -102.989464 
L 262.341818 -104.360359 
L 262.659174 -105.726239 
L 262.976529 -107.096561 
L 263.293884 -108.488402 
L 263.61124 -109.930777 
L 263.928595 -111.402618 
L 264.24595 -112.889803 
L 264.563306 -114.399842 
L 264.880661 -115.911934 
L 265.198017 -117.436974 
L 265.515372 -118.942289 
L 265.832727 -120.39714 
L 266.150083 -121.78138 
L 266.467438 -123.084632 
L 266.784793 -124.295342 
L 267.102149 -125.40665 
L 267.419504 -126.444859 
L 267.73686 -127.422662 
L 268.054215 -128.381633 
L 268.37157 -129.345873 
L 268.688926 -130.333313 
L 269.006281 -131.34816 
L 269.323636 -132.386921 
L 269.640992 -133.415966 
L 269.958347 -134.414496 
L 270.275702 -135.343549 
L 270.593058 -136.237832 
L 270.910413 -137.105605 
L 271.227769 -137.97701 
L 271.545124 -138.863026 
L 271.862479 -139.743136 
L 272.179835 -140.64055 
L 272.49719 -141.548893 
L 272.814545 -142.448231 
L 273.131901 -143.3292 
L 273.449256 -144.188645 
L 273.766612 -144.990162 
L 274.083967 -145.724917 
L 274.401322 -146.395685 
L 274.718678 -146.998211 
L 275.036033 -147.543167 
L 275.353388 -148.0482 
L 275.670744 -148.510136 
L 275.988099 -148.974895 
L 276.305455 -149.441407 
L 276.62281 -149.934653 
L 276.940165 -150.438114 
L 277.257521 -150.914897 
L 277.574876 -151.377995 
L 277.892231 -151.773358 
L 278.209587 -152.146314 
L 278.526942 -152.497543 
L 278.844298 -152.847557 
L 279.161653 -153.212442 
L 279.479008 -153.594123 
L 279.796364 -153.994736 
L 280.113719 -154.407097 
L 280.431074 -154.821412 
L 280.74843 -155.212921 
L 281.065785 -155.578556 
L 281.38314 -155.908646 
L 281.700496 -156.214034 
L 282.017851 -156.484053 
L 282.335207 -156.722372 
L 282.652562 -156.944926 
L 282.969917 -157.157473 
L 283.287273 -157.369399 
L 283.604628 -157.589177 
L 283.921983 -157.794812 
L 284.239339 -158.005522 
L 284.556694 -158.225954 
L 284.87405 -158.43655 
L 285.191405 -158.630869 
L 285.50876 -158.793418 
L 285.826116 -158.934283 
L 286.143471 -159.059117 
L 286.460826 -159.182557 
L 286.778182 -159.30502 
L 287.095537 -159.429889 
L 287.412893 -159.5607 
L 287.730248 -159.699683 
L 288.047603 -159.848991 
L 288.364959 -159.993428 
L 288.682314 -160.128025 
L 288.999669 -160.252373 
L 289.317025 -160.36958 
L 289.63438 -160.473255 
L 289.951736 -160.577142 
L 290.269091 -160.662827 
L 290.586446 -160.745267 
L 290.903802 -160.803568 
L 291.221157 -160.858771 
L 291.538512 -160.905148 
L 291.855868 -160.949657 
L 292.173223 -161.004214 
L 292.490579 -161.05632 
L 292.807934 -161.097527 
L 293.125289 -161.13167 
L 293.442645 -161.168113 
L 293.76 -161.187889 
L 294.077355 -161.21517 
L 294.394711 -161.238044 
L 294.712066 -161.260746 
L 295.029421 -161.288043 
L 295.346777 -161.31921 
L 295.664132 -161.349573 
L 295.981488 -161.392072 
L 296.298843 -161.428252 
L 296.616198 -161.460879 
L 296.933554 -161.47951 
L 297.250909 -161.499638 
L 297.568264 -161.530298 
L 297.88562 -161.549792 
L 298.202975 -161.575538 
L 298.520331 -161.585276 
L 298.837686 -161.596594 
L 299.155041 -161.608255 
L 299.472397 -161.615344 
L 299.789752 -161.624938 
L 300.107107 -161.630575 
L 300.424463 -161.636182 
L 300.741818 -161.637321 
L 301.059174 -161.649675 
L 301.376529 -161.661434 
L 301.693884 -161.680857 
L 302.01124 -161.702518 
L 302.328595 -161.731353 
L 302.64595 -161.766555 
L 302.963306 -161.802025 
L 303.280661 -161.834969 
L 303.598017 -161.85544 
L 303.915372 -161.871806 
L 304.232727 -161.884717 
L 304.550083 -161.889118 
L 304.867438 -161.883714 
L 305.184793 -161.881156 
L 305.502149 -161.873542 
L 305.819504 -161.87288 
L 306.13686 -161.868928 
L 306.454215 -161.86439 
L 306.77157 -161.861668 
L 307.088926 -161.858592 
L 307.406281 -161.861491 
L 307.723636 -161.87085 
L 308.040992 -161.879686 
L 308.358347 -161.877232 
L 308.675702 -161.879637 
L 308.993058 -161.887916 
L 309.310413 -161.896268 
L 309.627769 -161.901232 
L 309.945124 -161.908024 
L 310.262479 -161.89811 
L 310.579835 -161.896422 
L 310.89719 -161.894465 
L 311.214545 -161.905656 
L 311.531901 -161.922297 
L 311.849256 -161.946126 
L 312.166612 -161.970197 
L 312.483967 -161.996682 
L 312.801322 -162.027876 
L 313.118678 -162.062766 
L 313.436033 -162.096241 
L 313.753388 -162.12037 
L 314.070744 -162.151953 
L 314.388099 -162.176765 
L 314.705455 -162.20405 
L 315.02281 -162.235686 
L 315.340165 -162.271057 
L 315.657521 -162.304815 
L 315.974876 -162.345036 
L 316.292231 -162.374986 
L 316.609587 -162.400977 
L 316.926942 -162.43229 
L 317.244298 -162.468509 
L 317.561653 -162.499271 
L 317.879008 -162.527524 
L 318.196364 -162.555673 
L 318.513719 -162.587398 
L 318.831074 -162.629073 
L 319.14843 -162.673734 
L 319.465785 -162.725092 
L 319.78314 -162.780256 
L 320.100496 -162.832992 
L 320.417851 -162.886356 
L 320.735207 -162.935646 
L 321.052562 -162.992003 
L 321.369917 -163.044068 
L 321.687273 -163.093473 
L 322.004628 -163.138499 
L 322.321983 -163.177826 
L 322.639339 -163.21222 
L 322.956694 -163.239115 
L 323.27405 -163.266931 
L 323.591405 -163.299474 
L 323.90876 -163.340867 
L 324.226116 -163.375983 
L 324.543471 -163.40988 
L 324.860826 -163.450344 
L 325.178182 -163.491867 
L 325.495537 -163.537731 
L 325.812893 -163.590967 
L 326.130248 -163.64479 
L 326.447603 -163.699188 
L 326.764959 -163.75112 
L 327.082314 -163.797521 
L 327.399669 -163.848755 
L 327.717025 -163.896475 
L 328.03438 -163.938755 
L 328.351736 -163.977319 
L 328.669091 -164.024658 
L 328.986446 -164.065827 
L 329.303802 -164.100986 
L 329.621157 -164.130557 
L 329.938512 -164.155051 
L 330.255868 -164.170801 
L 330.573223 -164.190272 
L 330.890579 -164.201293 
L 331.207934 -164.207223 
L 331.525289 -164.202386 
L 331.842645 -164.196656 
L 332.16 -164.184172 
L 332.477355 -164.172587 
L 332.794711 -164.151121 
L 333.112066 -164.126356 
L 333.429421 -164.098521 
L 333.746777 -164.067232 
L 334.064132 -164.036393 
L 334.381488 -163.992913 
L 334.698843 -163.946595 
L 335.016198 -163.900644 
L 335.333554 -163.850134 
L 335.650909 -163.791715 
L 335.968264 -163.73156 
L 336.28562 -163.655254 
L 336.602975 -163.583403 
L 336.920331 -163.510148 
L 337.237686 -163.43808 
L 337.555041 -163.363885 
L 337.872397 -163.28807 
L 338.189752 -163.20504 
L 338.507107 -163.123414 
L 338.824463 -163.041203 
L 339.141818 -162.95575 
L 339.459174 -162.865641 
L 339.776529 -162.769238 
L 340.093884 -162.673134 
L 340.41124 -162.579697 
L 340.728595 -162.486873 
L 341.04595 -162.397698 
L 341.363306 -162.303546 
L 341.680661 -162.218317 
L 341.998017 -162.136177 
L 342.315372 -162.051439 
L 342.632727 -161.972512 
L 342.950083 -161.905098 
L 343.267438 -161.849589 
L 343.584793 -161.7928 
L 343.902149 -161.733927 
L 344.219504 -161.663536 
L 344.53686 -161.596125 
L 344.854215 -161.533475 
L 345.17157 -161.467539 
L 345.488926 -161.403881 
L 345.806281 -161.327307 
L 346.123636 -161.264737 
L 346.440992 -161.196713 
L 346.758347 -161.133431 
L 347.075702 -161.072769 
L 347.393058 -161.017052 
L 347.710413 -160.956401 
L 348.027769 -160.90464 
L 348.345124 -160.845225 
L 348.662479 -160.784928 
L 348.979835 -160.710269 
L 349.29719 -160.632233 
L 349.614545 -160.549415 
L 349.931901 -160.458687 
L 350.249256 -160.370266 
L 350.566612 -160.276507 
L 350.883967 -160.194085 
L 351.201322 -160.125404 
L 351.518678 -160.041895 
L 351.836033 -159.955971 
L 352.153388 -159.866222 
L 352.470744 -159.760232 
L 352.788099 -159.631869 
L 353.105455 -159.48572 
L 353.42281 -159.324856 
L 353.740165 -159.140642 
L 354.057521 -158.950417 
L 354.374876 -158.756263 
L 354.692231 -158.558601 
L 355.009587 -158.350171 
L 355.326942 -158.159201 
L 355.644298 -157.950195 
L 355.961653 -157.716396 
L 356.279008 -157.464174 
L 356.596364 -157.20364 
L 356.913719 -156.923717 
L 357.231074 -156.635863 
L 357.54843 -156.322958 
L 357.865785 -155.998494 
L 358.18314 -155.667969 
L 358.500496 -155.33616 
L 358.817851 -155.00057 
L 359.135207 -154.660362 
L 359.452562 -154.320763 
L 359.769917 -153.986829 
L 360.087273 -153.659019 
L 360.404628 -153.332956 
L 360.721983 -153.011099 
L 361.039339 -152.694377 
L 361.356694 -152.387657 
L 361.67405 -152.090509 
L 361.991405 -151.79093 
L 362.30876 -151.503189 
L 362.626116 -151.23488 
L 362.943471 -150.974502 
L 363.260826 -150.711751 
L 363.578182 -150.454003 
L 363.895537 -150.214661 
L 364.212893 -149.97957 
L 364.530248 -149.772628 
L 364.847603 -149.590951 
L 365.164959 -149.432482 
L 365.482314 -149.29885 
L 365.799669 -149.193251 
L 366.117025 -149.123428 
L 366.43438 -149.042844 
L 366.751736 -148.984542 
L 367.069091 -148.93755 
L 367.386446 -148.91765 
L 367.703802 -148.915908 
L 368.021157 -148.932396 
L 368.338512 -148.948519 
L 368.655868 -149.001639 
L 368.973223 -149.078061 
L 369.290579 -149.183917 
L 369.607934 -149.314497 
L 369.925289 -149.460086 
L 370.242645 -149.63655 
L 370.56 -149.822902 
L 370.877355 -150.041514 
L 371.194711 -150.249275 
L 371.512066 -150.437264 
L 371.829421 -150.659044 
L 372.146777 -150.896263 
L 372.464132 -151.128727 
L 372.781488 -151.388954 
L 373.098843 -151.678998 
L 373.416198 -152.002472 
L 373.733554 -152.337644 
L 374.050909 -152.705761 
L 374.368264 -153.086698 
L 374.68562 -153.466167 
L 375.002975 -153.85636 
L 375.320331 -154.263608 
L 375.637686 -154.617127 
L 375.955041 -154.986641 
L 376.272397 -155.382842 
L 376.589752 -155.799268 
L 376.907107 -156.23362 
L 377.224463 -156.687129 
L 377.541818 -157.15348 
L 377.859174 -157.640631 
L 378.176529 -158.140778 
L 378.493884 -158.650268 
L 378.81124 -159.167694 
L 379.128595 -159.690688 
L 379.44595 -160.218341 
L 379.763306 -160.746839 
L 380.080661 -161.272909 
L 380.398017 -161.795221 
L 380.715372 -162.313978 
L 381.032727 -162.826492 
L 381.350083 -163.332326 
L 381.667438 -163.82677 
L 381.984793 -164.310777 
L 382.302149 -164.788769 
L 382.619504 -165.252885 
L 382.93686 -165.700334 
L 383.254215 -166.136121 
L 383.57157 -166.56467 
L 383.888926 -166.981065 
L 384.206281 -167.379019 
L 384.523636 -167.769051 
L 384.840992 -168.138106 
L 385.158347 -168.48364 
L 385.475702 -168.80579 
L 385.793058 -169.104346 
L 386.110413 -169.375136 
L 386.427769 -169.61765 
L 386.745124 -169.855005 
L 387.062479 -170.072936 
L 387.379835 -170.275907 
L 387.69719 -170.454651 
L 388.014545 -170.614304 
L 388.331901 -170.75781 
L 388.649256 -170.89436 
L 388.966612 -171.00695 
L 389.283967 -171.099644 
L 389.601322 -171.1729 
L 389.918678 -171.227157 
L 390.236033 -171.271091 
L 390.553388 -171.296006 
L 390.870744 -171.31274 
L 391.188099 -171.309005 
L 391.505455 -171.307845 
L 391.82281 -171.317506 
L 392.140165 -171.3118 
L 392.457521 -171.298991 
L 392.774876 -171.293166 
L 393.092231 -171.278561 
L 393.409587 -171.255462 
L 393.726942 -171.221133 
L 394.044298 -171.188663 
L 394.361653 -171.146508 
L 394.679008 -171.102173 
L 394.996364 -171.065321 
L 395.313719 -171.028903 
L 395.631074 -170.990596 
L 395.94843 -170.989331 
L 396.265785 -170.991629 
L 396.58314 -170.994285 
L 396.900496 -170.996954 
L 397.217851 -170.999522 
L 397.535207 -171.001958 
L 397.852562 -171.004354 
L 398.169917 -171.006587 
L 398.487273 -171.072 
L 398.487273 -171.072 
L 398.487273 -171.072 
L 398.169917 -171.072 
L 397.852562 -171.072 
L 397.535207 -171.072 
L 397.217851 -171.072 
L 396.900496 -171.072 
L 396.58314 -171.072 
L 396.265785 -171.072 
L 395.94843 -171.072 
L 395.631074 -171.072 
L 395.313719 -171.072 
L 394.996364 -171.072 
L 394.679008 -171.072 
L 394.361653 -171.072 
L 394.044298 -171.072 
L 393.726942 -171.072 
L 393.409587 -171.072 
L 393.092231 -171.072 
L 392.774876 -171.072 
L 392.457521 -171.072 
L 392.140165 -171.072 
L 391.82281 -171.072 
L 391.505455 -171.072 
L 391.188099 -171.072 
L 390.870744 -171.072 
L 390.553388 -171.072 
L 390.236033 -171.072 
L 389.918678 -171.072 
L 389.601322 -171.072 
L 389.283967 -171.072 
L 388.966612 -171.072 
L 388.649256 -171.072 
L 388.331901 -171.072 
L 388.014545 -171.072 
L 387.69719 -171.072 
L 387.379835 -171.072 
L 387.062479 -171.072 
L 386.745124 -171.072 
L 386.427769 -171.072 
L 386.110413 -171.072 
L 385.793058 -171.072 
L 385.475702 -171.072 
L 385.158347 -171.072 
L 384.840992 -171.072 
L 384.523636 -171.072 
L 384.206281 -171.072 
L 383.888926 -171.072 
L 383.57157 -171.072 
L 383.254215 -171.072 
L 382.93686 -171.072 
L 382.619504 -171.072 
L 382.302149 -171.072 
L 381.984793 -171.072 
L 381.667438 -171.072 
L 381.350083 -171.072 
L 381.032727 -171.072 
L 380.715372 -171.072 
L 380.398017 -171.072 
L 380.080661 -171.072 
L 379.763306 -171.072 
L 379.44595 -171.072 
L 379.128595 -171.072 
L 378.81124 -171.072 
L 378.493884 -171.072 
L 378.176529 -171.072 
L 377.859174 -171.072 
L 377.541818 -171.072 
L 377.224463 -171.072 
L 376.907107 -171.072 
L 376.589752 -171.072 
L 376.272397 -171.072 
L 375.955041 -171.072 
L 375.637686 -171.072 
L 375.320331 -171.072 
L 375.002975 -171.072 
L 374.68562 -171.072 
L 374.368264 -171.072 
L 374.050909 -171.072 
L 373.733554 -171.072 
L 373.416198 -171.072 
L 373.098843 -171.072 
L 372.781488 -171.072 
L 372.464132 -171.072 
L 372.146777 -171.072 
L 371.829421 -171.072 
L 371.512066 -171.072 
L 371.194711 -171.072 
L 370.877355 -171.072 
L 370.56 -171.072 
L 370.242645 -171.072 
L 369.925289 -171.072 
L 369.607934 -171.072 
L 369.290579 -171.072 
L 368.973223 -171.072 
L 368.655868 -171.072 
L 368.338512 -171.072 
L 368.021157 -171.072 
L 367.703802 -171.072 
L 367.386446 -171.072 
L 367.069091 -171.072 
L 366.751736 -171.072 
L 366.43438 -171.072 
L 366.117025 -171.072 
L 365.799669 -171.072 
L 365.482314 -171.072 
L 365.164959 -171.072 
L 364.847603 -171.072 
L 364.530248 -171.072 
L 364.212893 -171.072 
L 363.895537 -171.072 
L 363.578182 -171.072 
L 363.260826 -171.072 
L 362.943471 -171.072 
L 362.626116 -171.072 
L 362.30876 -171.072 
L 361.991405 -171.072 
L 361.67405 -171.072 
L 361.356694 -171.072 
L 361.039339 -171.072 
L 360.721983 -171.072 
L 360.404628 -171.072 
L 360.087273 -171.072 
L 359.769917 -171.072 
L 359.452562 -171.072 
L 359.135207 -171.072 
L 358.817851 -171.072 
L 358.500496 -171.072 
L 358.18314 -171.072 
L 357.865785 -171.072 
L 357.54843 -171.072 
L 357.231074 -171.072 
L 356.913719 -171.072 
L 356.596364 -171.072 
L 356.279008 -171.072 
L 355.961653 -171.072 
L 355.644298 -171.072 
L 355.326942 -171.072 
L 355.009587 -171.072 
L 354.692231 -171.072 
L 354.374876 -171.072 
L 354.057521 -171.072 
L 353.740165 -171.072 
L 353.42281 -171.072 
L 353.105455 -171.072 
L 352.788099 -171.072 
L 352.470744 -171.072 
L 352.153388 -171.072 
L 351.836033 -171.072 
L 351.518678 -171.072 
L 351.201322 -171.072 
L 350.883967 -171.072 
L 350.566612 -171.072 
L 350.249256 -171.072 
L 349.931901 -171.072 
L 349.614545 -171.072 
L 349.29719 -171.072 
L 348.979835 -171.072 
L 348.662479 -171.072 
L 348.345124 -171.072 
L 348.027769 -171.072 
L 347.710413 -171.072 
L 347.393058 -171.072 
L 347.075702 -171.072 
L 346.758347 -171.072 
L 346.440992 -171.072 
L 346.123636 -171.072 
L 345.806281 -171.072 
L 345.488926 -171.072 
L 345.17157 -171.072 
L 344.854215 -171.072 
L 344.53686 -171.072 
L 344.219504 -171.072 
L 343.902149 -171.072 
L 343.584793 -171.072 
L 343.267438 -171.072 
L 342.950083 -171.072 
L 342.632727 -171.072 
L 342.315372 -171.072 
L 341.998017 -171.072 
L 341.680661 -171.072 
L 341.363306 -171.072 
L 341.04595 -171.072 
L 340.728595 -171.072 
L 340.41124 -171.072 
L 340.093884 -171.072 
L 339.776529 -171.072 
L 339.459174 -171.072 
L 339.141818 -171.072 
L 338.824463 -171.072 
L 338.507107 -171.072 
L 338.189752 -171.072 
L 337.872397 -171.072 
L 337.555041 -171.072 
L 337.237686 -171.072 
L 336.920331 -171.072 
L 336.602975 -171.072 
L 336.28562 -171.072 
L 335.968264 -171.072 
L 335.650909 -171.072 
L 335.333554 -171.072 
L 335.016198 -171.072 
L 334.698843 -171.072 
L 334.381488 -171.072 
L 334.064132 -171.072 
L 333.746777 -171.072 
L 333.429421 -171.072 
L 333.112066 -171.072 
L 332.794711 -171.072 
L 332.477355 -171.072 
L 332.16 -171.072 
L 331.842645 -171.072 
L 331.525289 -171.072 
L 331.207934 -171.072 
L 330.890579 -171.072 
L 330.573223 -171.072 
L 330.255868 -171.072 
L 329.938512 -171.072 
L 329.621157 -171.072 
L 329.303802 -171.072 
L 328.986446 -171.072 
L 328.669091 -171.072 
L 328.351736 -171.072 
L 328.03438 -171.072 
L 327.717025 -171.072 
L 327.399669 -171.072 
L 327.082314 -171.072 
L 326.764959 -171.072 
L 326.447603 -171.072 
L 326.130248 -171.072 
L 325.812893 -171.072 
L 325.495537 -171.072 
L 325.178182 -171.072 
L 324.860826 -171.072 
L 324.543471 -171.072 
L 324.226116 -171.072 
L 323.90876 -171.072 
L 323.591405 -171.072 
L 323.27405 -171.072 
L 322.956694 -171.072 
L 322.639339 -171.072 
L 322.321983 -171.072 
L 322.004628 -171.072 
L 321.687273 -171.072 
L 321.369917 -171.072 
L 321.052562 -171.072 
L 320.735207 -171.072 
L 320.417851 -171.072 
L 320.100496 -171.072 
L 319.78314 -171.072 
L 319.465785 -171.072 
L 319.14843 -171.072 
L 318.831074 -171.072 
L 318.513719 -171.072 
L 318.196364 -171.072 
L 317.879008 -171.072 
L 317.561653 -171.072 
L 317.244298 -171.072 
L 316.926942 -171.072 
L 316.609587 -171.072 
L 316.292231 -171.072 
L 315.974876 -171.072 
L 315.657521 -171.072 
L 315.340165 -171.072 
L 315.02281 -171.072 
L 314.705455 -171.072 
L 314.388099 -171.072 
L 314.070744 -171.072 
L 313.753388 -171.072 
L 313.436033 -171.072 
L 313.118678 -171.072 
L 312.801322 -171.072 
L 312.483967 -171.072 
L 312.166612 -171.072 
L 311.849256 -171.072 
L 311.531901 -171.072 
L 311.214545 -171.072 
L 310.89719 -171.072 
L 310.579835 -171.072 
L 310.262479 -171.072 
L 309.945124 -171.072 
L 309.627769 -171.072 
L 309.310413 -171.072 
L 308.993058 -171.072 
L 308.675702 -171.072 
L 308.358347 -171.072 
L 308.040992 -171.072 
L 307.723636 -171.072 
L 307.406281 -171.072 
L 307.088926 -171.072 
L 306.77157 -171.072 
L 306.454215 -171.072 
L 306.13686 -171.072 
L 305.819504 -171.072 
L 305.502149 -171.072 
L 305.184793 -171.072 
L 304.867438 -171.072 
L 304.550083 -171.072 
L 304.232727 -171.072 
L 303.915372 -171.072 
L 303.598017 -171.072 
L 303.280661 -171.072 
L 302.963306 -171.072 
L 302.64595 -171.072 
L 302.328595 -171.072 
L 302.01124 -171.072 
L 301.693884 -171.072 
L 301.376529 -171.072 
L 301.059174 -171.072 
L 300.741818 -171.072 
L 300.424463 -171.072 
L 300.107107 -171.072 
L 299.789752 -171.072 
L 299.472397 -171.072 
L 299.155041 -171.072 
L 298.837686 -171.072 
L 298.520331 -171.072 
L 298.202975 -171.072 
L 297.88562 -171.072 
L 297.568264 -171.072 
L 297.250909 -171.072 
L 296.933554 -171.072 
L 296.616198 -171.072 
L 296.298843 -171.072 
L 295.981488 -171.072 
L 295.664132 -171.072 
L 295.346777 -171.072 
L 295.029421 -171.072 
L 294.712066 -171.072 
L 294.394711 -171.072 
L 294.077355 -171.072 
L 293.76 -171.072 
L 293.442645 -171.072 
L 293.125289 -171.072 
L 292.807934 -171.072 
L 292.490579 -171.072 
L 292.173223 -171.072 
L 291.855868 -171.072 
L 291.538512 -171.072 
L 291.221157 -171.072 
L 290.903802 -171.072 
L 290.586446 -171.072 
L 290.269091 -171.072 
L 289.951736 -171.072 
L 289.63438 -171.072 
L 289.317025 -171.072 
L 288.999669 -171.072 
L 288.682314 -171.072 
L 288.364959 -171.072 
L 288.047603 -171.072 
L 287.730248 -171.072 
L 287.412893 -171.072 
L 287.095537 -171.072 
L 286.778182 -171.072 
L 286.460826 -171.072 
L 286.143471 -171.072 
L 285.826116 -171.072 
L 285.50876 -171.072 
L 285.191405 -171.072 
L 284.87405 -171.072 
L 284.556694 -171.072 
L 284.239339 -171.072 
L 283.921983 -171.072 
L 283.604628 -171.072 
L 283.287273 -171.072 
L 282.969917 -171.072 
L 282.652562 -171.072 
L 282.335207 -171.072 
L 282.017851 -171.072 
L 281.700496 -171.072 
L 281.38314 -171.072 
L 281.065785 -171.072 
L 280.74843 -171.072 
L 280.431074 -171.072 
L 280.113719 -171.072 
L 279.796364 -171.072 
L 279.479008 -171.072 
L 279.161653 -171.072 
L 278.844298 -171.072 
L 278.526942 -171.072 
L 278.209587 -171.072 
L 277.892231 -171.072 
L 277.574876 -171.072 
L 277.257521 -171.072 
L 276.940165 -171.072 
L 276.62281 -171.072 
L 276.305455 -171.072 
L 275.988099 -171.072 
L 275.670744 -171.072 
L 275.353388 -171.072 
L 275.036033 -171.072 
L 274.718678 -171.072 
L 274.401322 -171.072 
L 274.083967 -171.072 
L 273.766612 -171.072 
L 273.449256 -171.072 
L 273.131901 -171.072 
L 272.814545 -171.072 
L 272.49719 -171.072 
L 272.179835 -171.072 
L 271.862479 -171.072 
L 271.545124 -171.072 
L 271.227769 -171.072 
L 270.910413 -171.072 
L 270.593058 -171.072 
L 270.275702 -171.072 
L 269.958347 -171.072 
L 269.640992 -171.072 
L 269.323636 -171.072 
L 269.006281 -171.072 
L 268.688926 -171.072 
L 268.37157 -171.072 
L 268.054215 -171.072 
L 267.73686 -171.072 
L 267.419504 -171.072 
L 267.102149 -171.072 
L 266.784793 -171.072 
L 266.467438 -171.072 
L 266.150083 -171.072 
L 265.832727 -171.072 
L 265.515372 -171.072 
L 265.198017 -171.072 
L 264.880661 -171.072 
L 264.563306 -171.072 
L 264.24595 -171.072 
L 263.928595 -171.072 
L 263.61124 -171.072 
L 263.293884 -171.072 
L 262.976529 -171.072 
L 262.659174 -171.072 
L 262.341818 -171.072 
L 262.024463 -171.072 
L 261.707107 -171.072 
L 261.389752 -171.072 
L 261.072397 -171.072 
L 260.755041 -171.072 
L 260.437686 -171.072 
L 260.120331 -171.072 
L 259.802975 -171.072 
L 259.48562 -171.072 
L 259.168264 -171.072 
L 258.850909 -171.072 
L 258.533554 -171.072 
L 258.216198 -171.072 
L 257.898843 -171.072 
L 257.581488 -171.072 
L 257.264132 -171.072 
L 256.946777 -171.072 
L 256.629421 -171.072 
L 256.312066 -171.072 
L 255.994711 -171.072 
L 255.677355 -171.072 
L 255.36 -171.072 
L 255.042645 -171.072 
L 254.725289 -171.072 
L 254.407934 -171.072 
L 254.090579 -171.072 
L 253.773223 -171.072 
L 253.455868 -171.072 
L 253.138512 -171.072 
L 252.821157 -171.072 
L 252.503802 -171.072 
L 252.186446 -171.072 
L 251.869091 -171.072 
L 251.551736 -171.072 
L 251.23438 -171.072 
L 250.917025 -171.072 
L 250.599669 -171.072 
L 250.282314 -171.072 
L 249.964959 -171.072 
L 249.647603 -171.072 
L 249.330248 -171.072 
L 249.012893 -171.072 
L 248.695537 -171.072 
L 248.378182 -171.072 
L 248.060826 -171.072 
L 247.743471 -171.072 
L 247.426116 -171.072 
L 247.10876 -171.072 
L 246.791405 -171.072 
L 246.47405 -171.072 
L 246.156694 -171.072 
L 245.839339 -171.072 
L 245.521983 -171.072 
L 245.204628 -171.072 
L 244.887273 -171.072 
L 244.569917 -171.072 
L 244.252562 -171.072 
L 243.935207 -171.072 
L 243.617851 -171.072 
L 243.300496 -171.072 
L 242.98314 -171.072 
L 242.665785 -171.072 
L 242.34843 -171.072 
L 242.031074 -171.072 
L 241.713719 -171.072 
L 241.396364 -171.072 
L 241.079008 -171.072 
L 240.761653 -171.072 
L 240.444298 -171.072 
L 240.126942 -171.072 
L 239.809587 -171.072 
L 239.492231 -171.072 
L 239.174876 -171.072 
L 238.857521 -171.072 
L 238.540165 -171.072 
L 238.22281 -171.072 
L 237.905455 -171.072 
L 237.588099 -171.072 
L 237.270744 -171.072 
L 236.953388 -171.072 
L 236.636033 -171.072 
L 236.318678 -171.072 
L 236.001322 -171.072 
L 235.683967 -171.072 
L 235.366612 -171.072 
L 235.049256 -171.072 
L 234.731901 -171.072 
L 234.414545 -171.072 
L 234.09719 -171.072 
L 233.779835 -171.072 
L 233.462479 -171.072 
L 233.145124 -171.072 
L 232.827769 -171.072 
L 232.510413 -171.072 
L 232.193058 -171.072 
L 231.875702 -171.072 
L 231.558347 -171.072 
L 231.240992 -171.072 
L 230.923636 -171.072 
L 230.606281 -171.072 
L 230.288926 -171.072 
L 229.97157 -171.072 
L 229.654215 -171.072 
L 229.33686 -171.072 
L 229.019504 -171.072 
L 228.702149 -171.072 
L 228.384793 -171.072 
L 228.067438 -171.072 
L 227.750083 -171.072 
L 227.432727 -171.072 
L 227.115372 -171.072 
L 226.798017 -171.072 
L 226.480661 -171.072 
L 226.163306 -171.072 
L 225.84595 -171.072 
L 225.528595 -171.072 
L 225.21124 -171.072 
L 224.893884 -171.072 
L 224.576529 -171.072 
L 224.259174 -171.072 
L 223.941818 -171.072 
L 223.624463 -171.072 
L 223.307107 -171.072 
L 222.989752 -171.072 
L 222.672397 -171.072 
L 222.355041 -171.072 
L 222.037686 -171.072 
L 221.720331 -171.072 
L 221.402975 -171.072 
L 221.08562 -171.072 
L 220.768264 -171.072 
L 220.450909 -171.072 
L 220.133554 -171.072 
L 219.816198 -171.072 
L 219.498843 -171.072 
L 219.181488 -171.072 
L 218.864132 -171.072 
L 218.546777 -171.072 
L 218.229421 -171.072 
L 217.912066 -171.072 
L 217.594711 -171.072 
L 217.277355 -171.072 
L 216.96 -171.072 
L 216.642645 -171.072 
L 216.325289 -171.072 
L 216.007934 -171.072 
L 215.690579 -171.072 
L 215.373223 -171.072 
L 215.055868 -171.072 
L 214.738512 -171.072 
L 214.421157 -171.072 
L 214.103802 -171.072 
L 213.786446 -171.072 
L 213.469091 -171.072 
L 213.151736 -171.072 
L 212.83438 -171.072 
L 212.517025 -171.072 
L 212.199669 -171.072 
L 211.882314 -171.072 
L 211.564959 -171.072 
L 211.247603 -171.072 
L 210.930248 -171.072 
L 210.612893 -171.072 
L 210.295537 -171.072 
L 209.978182 -171.072 
L 209.660826 -171.072 
L 209.343471 -171.072 
L 209.026116 -171.072 
L 208.70876 -171.072 
L 208.391405 -171.072 
L 208.07405 -171.072 
L 207.756694 -171.072 
L 207.439339 -171.072 
L 207.121983 -171.072 
L 206.804628 -171.072 
L 206.487273 -171.072 
L 206.169917 -171.072 
L 205.852562 -171.072 
L 205.535207 -171.072 
L 205.217851 -171.072 
L 204.900496 -171.072 
L 204.58314 -171.072 
L 204.265785 -171.072 
L 203.94843 -171.072 
L 203.631074 -171.072 
L 203.313719 -171.072 
L 202.996364 -171.072 
L 202.679008 -171.072 
L 202.361653 -171.072 
L 202.044298 -171.072 
L 201.726942 -171.072 
L 201.409587 -171.072 
L 201.092231 -171.072 
L 200.774876 -171.072 
L 200.457521 -171.072 
L 200.140165 -171.072 
L 199.82281 -171.072 
L 199.505455 -171.072 
L 199.188099 -171.072 
L 198.870744 -171.072 
L 198.553388 -171.072 
L 198.236033 -171.072 
L 197.918678 -171.072 
L 197.601322 -171.072 
L 197.283967 -171.072 
L 196.966612 -171.072 
L 196.649256 -171.072 
L 196.331901 -171.072 
L 196.014545 -171.072 
L 195.69719 -171.072 
L 195.379835 -171.072 
L 195.062479 -171.072 
L 194.745124 -171.072 
L 194.427769 -171.072 
L 194.110413 -171.072 
L 193.793058 -171.072 
L 193.475702 -171.072 
L 193.158347 -171.072 
L 192.840992 -171.072 
L 192.523636 -171.072 
L 192.206281 -171.072 
L 191.888926 -171.072 
L 191.57157 -171.072 
L 191.254215 -171.072 
L 190.93686 -171.072 
L 190.619504 -171.072 
L 190.302149 -171.072 
L 189.984793 -171.072 
L 189.667438 -171.072 
L 189.350083 -171.072 
L 189.032727 -171.072 
L 188.715372 -171.072 
L 188.398017 -171.072 
L 188.080661 -171.072 
L 187.763306 -171.072 
L 187.44595 -171.072 
L 187.128595 -171.072 
L 186.81124 -171.072 
L 186.493884 -171.072 
L 186.176529 -171.072 
L 185.859174 -171.072 
L 185.541818 -171.072 
L 185.224463 -171.072 
L 184.907107 -171.072 
L 184.589752 -171.072 
L 184.272397 -171.072 
L 183.955041 -171.072 
L 183.637686 -171.072 
L 183.320331 -171.072 
L 183.002975 -171.072 
L 182.68562 -171.072 
L 182.368264 -171.072 
L 182.050909 -171.072 
L 181.733554 -171.072 
L 181.416198 -171.072 
L 181.098843 -171.072 
L 180.781488 -171.072 
L 180.464132 -171.072 
L 180.146777 -171.072 
L 179.829421 -171.072 
L 179.512066 -171.072 
L 179.194711 -171.072 
L 178.877355 -171.072 
L 178.56 -171.072 
L 178.242645 -171.072 
L 177.925289 -171.072 
L 177.607934 -171.072 
L 177.290579 -171.072 
L 176.973223 -171.072 
L 176.655868 -171.072 
L 176.338512 -171.072 
L 176.021157 -171.072 
L 175.703802 -171.072 
L 175.386446 -171.072 
L 175.069091 -171.072 
L 174.751736 -171.072 
L 174.43438 -171.072 
L 174.117025 -171.072 
L 173.799669 -171.072 
L 173.482314 -171.072 
L 173.164959 -171.072 
L 172.847603 -171.072 
L 172.530248 -171.072 
L 172.212893 -171.072 
L 171.895537 -171.072 
L 171.578182 -171.072 
L 171.260826 -171.072 
L 170.943471 -171.072 
L 170.626116 -171.072 
L 170.30876 -171.072 
L 169.991405 -171.072 
L 169.67405 -171.072 
L 169.356694 -171.072 
L 169.039339 -171.072 
L 168.721983 -171.072 
L 168.404628 -171.072 
L 168.087273 -171.072 
L 167.769917 -171.072 
L 167.452562 -171.072 
L 167.135207 -171.072 
L 166.817851 -171.072 
L 166.500496 -171.072 
L 166.18314 -171.072 
L 165.865785 -171.072 
L 165.54843 -171.072 
L 165.231074 -171.072 
L 164.913719 -171.072 
L 164.596364 -171.072 
L 164.279008 -171.072 
L 163.961653 -171.072 
L 163.644298 -171.072 
L 163.326942 -171.072 
L 163.009587 -171.072 
L 162.692231 -171.072 
L 162.374876 -171.072 
L 162.057521 -171.072 
L 161.740165 -171.072 
L 161.42281 -171.072 
L 161.105455 -171.072 
L 160.788099 -171.072 
L 160.470744 -171.072 
L 160.153388 -171.072 
L 159.836033 -171.072 
L 159.518678 -171.072 
L 159.201322 -171.072 
L 158.883967 -171.072 
L 158.566612 -171.072 
L 158.249256 -171.072 
L 157.931901 -171.072 
L 157.614545 -171.072 
L 157.29719 -171.072 
L 156.979835 -171.072 
L 156.662479 -171.072 
L 156.345124 -171.072 
L 156.027769 -171.072 
L 155.710413 -171.072 
L 155.393058 -171.072 
L 155.075702 -171.072 
L 154.758347 -171.072 
L 154.440992 -171.072 
L 154.123636 -171.072 
L 153.806281 -171.072 
L 153.488926 -171.072 
L 153.17157 -171.072 
L 152.854215 -171.072 
L 152.53686 -171.072 
L 152.219504 -171.072 
L 151.902149 -171.072 
L 151.584793 -171.072 
L 151.267438 -171.072 
L 150.950083 -171.072 
L 150.632727 -171.072 
L 150.315372 -171.072 
L 149.998017 -171.072 
L 149.680661 -171.072 
L 149.363306 -171.072 
L 149.04595 -171.072 
L 148.728595 -171.072 
L 148.41124 -171.072 
L 148.093884 -171.072 
L 147.776529 -171.072 
L 147.459174 -171.072 
L 147.141818 -171.072 
L 146.824463 -171.072 
L 146.507107 -171.072 
L 146.189752 -171.072 
L 145.872397 -171.072 
L 145.555041 -171.072 
L 145.237686 -171.072 
L 144.920331 -171.072 
L 144.602975 -171.072 
L 144.28562 -171.072 
L 143.968264 -171.072 
L 143.650909 -171.072 
L 143.333554 -171.072 
L 143.016198 -171.072 
L 142.698843 -171.072 
L 142.381488 -171.072 
L 142.064132 -171.072 
L 141.746777 -171.072 
L 141.429421 -171.072 
L 141.112066 -171.072 
L 140.794711 -171.072 
L 140.477355 -171.072 
L 140.16 -171.072 
L 139.842645 -171.072 
L 139.525289 -171.072 
L 139.207934 -171.072 
L 138.890579 -171.072 
L 138.573223 -171.072 
L 138.255868 -171.072 
L 137.938512 -171.072 
L 137.621157 -171.072 
L 137.303802 -171.072 
L 136.986446 -171.072 
L 136.669091 -171.072 
L 136.351736 -171.072 
L 136.03438 -171.072 
L 135.717025 -171.072 
L 135.399669 -171.072 
L 135.082314 -171.072 
L 134.764959 -171.072 
L 134.447603 -171.072 
L 134.130248 -171.072 
L 133.812893 -171.072 
L 133.495537 -171.072 
L 133.178182 -171.072 
L 132.860826 -171.072 
L 132.543471 -171.072 
L 132.226116 -171.072 
L 131.90876 -171.072 
L 131.591405 -171.072 
L 131.27405 -171.072 
L 130.956694 -171.072 
L 130.639339 -171.072 
L 130.321983 -171.072 
L 130.004628 -171.072 
L 129.687273 -171.072 
L 129.369917 -171.072 
L 129.052562 -171.072 
L 128.735207 -171.072 
L 128.417851 -171.072 
L 128.100496 -171.072 
L 127.78314 -171.072 
L 127.465785 -171.072 
L 127.14843 -171.072 
L 126.831074 -171.072 
L 126.513719 -171.072 
L 126.196364 -171.072 
L 125.879008 -171.072 
L 125.561653 -171.072 
L 125.244298 -171.072 
L 124.926942 -171.072 
L 124.609587 -171.072 
L 124.292231 -171.072 
L 123.974876 -171.072 
L 123.657521 -171.072 
L 123.340165 -171.072 
L 123.02281 -171.072 
L 122.705455 -171.072 
L 122.388099 -171.072 
L 122.070744 -171.072 
L 121.753388 -171.072 
L 121.436033 -171.072 
L 121.118678 -171.072 
L 120.801322 -171.072 
L 120.483967 -171.072 
L 120.166612 -171.072 
L 119.849256 -171.072 
L 119.531901 -171.072 
L 119.214545 -171.072 
L 118.89719 -171.072 
L 118.579835 -171.072 
L 118.262479 -171.072 
L 117.945124 -171.072 
L 117.627769 -171.072 
L 117.310413 -171.072 
L 116.993058 -171.072 
L 116.675702 -171.072 
L 116.358347 -171.072 
L 116.040992 -171.072 
L 115.723636 -171.072 
L 115.406281 -171.072 
L 115.088926 -171.072 
L 114.77157 -171.072 
L 114.454215 -171.072 
L 114.13686 -171.072 
L 113.819504 -171.072 
L 113.502149 -171.072 
L 113.184793 -171.072 
L 112.867438 -171.072 
L 112.550083 -171.072 
L 112.232727 -171.072 
L 111.915372 -171.072 
L 111.598017 -171.072 
L 111.280661 -171.072 
L 110.963306 -171.072 
L 110.64595 -171.072 
L 110.328595 -171.072 
L 110.01124 -171.072 
L 109.693884 -171.072 
L 109.376529 -171.072 
L 109.059174 -171.072 
L 108.741818 -171.072 
L 108.424463 -171.072 
L 108.107107 -171.072 
L 107.789752 -171.072 
L 107.472397 -171.072 
L 107.155041 -171.072 
L 106.837686 -171.072 
L 106.520331 -171.072 
L 106.202975 -171.072 
L 105.88562 -171.072 
L 105.568264 -171.072 
L 105.250909 -171.072 
L 104.933554 -171.072 
L 104.616198 -171.072 
L 104.298843 -171.072 
L 103.981488 -171.072 
L 103.664132 -171.072 
L 103.346777 -171.072 
L 103.029421 -171.072 
L 102.712066 -171.072 
L 102.394711 -171.072 
L 102.077355 -171.072 
L 101.76 -171.072 
L 101.442645 -171.072 
L 101.125289 -171.072 
L 100.807934 -171.072 
L 100.490579 -171.072 
L 100.173223 -171.072 
L 99.855868 -171.072 
L 99.538512 -171.072 
L 99.221157 -171.072 
L 98.903802 -171.072 
L 98.586446 -171.072 
L 98.269091 -171.072 
L 97.951736 -171.072 
L 97.63438 -171.072 
L 97.317025 -171.072 
L 96.999669 -171.072 
L 96.682314 -171.072 
L 96.364959 -171.072 
L 96.047603 -171.072 
L 95.730248 -171.072 
L 95.412893 -171.072 
L 95.095537 -171.072 
L 94.778182 -171.072 
L 94.460826 -171.072 
L 94.143471 -171.072 
L 93.826116 -171.072 
L 93.50876 -171.072 
L 93.191405 -171.072 
L 92.87405 -171.072 
L 92.556694 -171.072 
L 92.239339 -171.072 
L 91.921983 -171.072 
L 91.604628 -171.072 
L 91.287273 -171.072 
L 90.969917 -171.072 
L 90.652562 -171.072 
L 90.335207 -171.072 
L 90.017851 -171.072 
L 89.700496 -171.072 
L 89.38314 -171.072 
L 89.065785 -171.072 
L 88.74843 -171.072 
L 88.431074 -171.072 
L 88.113719 -171.072 
L 87.796364 -171.072 
L 87.479008 -171.072 
L 87.161653 -171.072 
L 86.844298 -171.072 
L 86.526942 -171.072 
L 86.209587 -171.072 
L 85.892231 -171.072 
L 85.574876 -171.072 
L 85.257521 -171.072 
L 84.940165 -171.072 
L 84.62281 -171.072 
L 84.305455 -171.072 
L 83.988099 -171.072 
L 83.670744 -171.072 
L 83.353388 -171.072 
L 83.036033 -171.072 
L 82.718678 -171.072 
L 82.401322 -171.072 
L 82.083967 -171.072 
L 81.766612 -171.072 
L 81.449256 -171.072 
L 81.131901 -171.072 
L 80.814545 -171.072 
L 80.49719 -171.072 
L 80.179835 -171.072 
L 79.862479 -171.072 
L 79.545124 -171.072 
L 79.227769 -171.072 
L 78.910413 -171.072 
L 78.593058 -171.072 
L 78.275702 -171.072 
L 77.958347 -171.072 
L 77.640992 -171.072 
L 77.323636 -171.072 
L 77.006281 -171.072 
L 76.688926 -171.072 
L 76.37157 -171.072 
L 76.054215 -171.072 
L 75.73686 -171.072 
L 75.419504 -171.072 
L 75.102149 -171.072 
L 74.784793 -171.072 
L 74.467438 -171.072 
L 74.150083 -171.072 
L 73.832727 -171.072 
z
" style="stroke: #87ceeb; stroke-opacity: 0.75"/>
    </defs>
    <g clip-path="url(#p88e02e1114)">
     <use xlink:href="#meb9509540d" x="0" y="345.6" style="fill: #87ceeb; fill-opacity: 0.75; stroke: #87ceeb; stroke-opacity: 0.75"/>
    </g>
   </g>
   <g id="matplotlib.axis_1">
    <g id="xtick_1">
     <g id="line2d_1">
      <defs>
       <path id="m7af6c881cf" d="M 0 0 
L 0 3.5 
" style="stroke: #000000; stroke-width: 0.8"/>
      </defs>
      <g>
       <use xlink:href="#m7af6c881cf" x="73.832727" y="307.584" style="stroke: #000000; stroke-width: 0.8"/>
      </g>
     </g>
     <g id="text_1">
      <!-- 0 -->
      <g transform="translate(70.531868 322.161969) scale(0.11 -0.11)">
       <defs>
        <path id="AndaleMono-30" d="M 1913 4494 
Q 2613 4494 2989 3892 
Q 3366 3291 3366 2203 
Q 3366 1150 3000 533 
Q 2634 -84 1913 -84 
Q 1216 -84 837 516 
Q 459 1116 459 2203 
Q 459 3259 826 3876 
Q 1194 4494 1913 4494 
z
M 1913 366 
Q 2375 366 2598 805 
Q 2822 1244 2822 2203 
Q 2822 3166 2598 3602 
Q 2375 4038 1913 4038 
Q 1456 4038 1231 3591 
Q 1006 3144 1006 2203 
Q 1006 1250 1229 808 
Q 1453 366 1913 366 
z
M 1900 2672 
Q 2097 2672 2233 2536 
Q 2369 2400 2369 2203 
Q 2369 2000 2231 1854 
Q 2094 1709 1900 1709 
Q 1709 1709 1573 1854 
Q 1438 2000 1438 2203 
Q 1438 2403 1570 2537 
Q 1703 2672 1900 2672 
z
" transform="scale(0.015625)"/>
       </defs>
       <use xlink:href="#AndaleMono-30"/>
      </g>
     </g>
    </g>
    <g id="xtick_2">
     <g id="line2d_2">
      <g>
       <use xlink:href="#m7af6c881cf" x="137.303802" y="307.584" style="stroke: #000000; stroke-width: 0.8"/>
      </g>
     </g>
     <g id="text_2">
      <!-- 200 -->
      <g transform="translate(127.401224 322.161969) scale(0.11 -0.11)">
       <defs>
        <path id="AndaleMono-32" d="M 3066 0 
L 641 0 
L 641 372 
Q 1563 1400 1838 1750 
Q 2113 2100 2284 2484 
Q 2456 2869 2456 3250 
Q 2456 3619 2232 3831 
Q 2009 4044 1606 4044 
Q 1297 4044 775 3853 
L 703 4294 
Q 1175 4494 1691 4494 
Q 2281 4494 2642 4161 
Q 3003 3828 3003 3272 
Q 3003 2875 2817 2484 
Q 2631 2094 2340 1734 
Q 2050 1375 1209 447 
L 3066 447 
L 3066 0 
z
" transform="scale(0.015625)"/>
       </defs>
       <use xlink:href="#AndaleMono-32"/>
       <use xlink:href="#AndaleMono-30" x="60.009766"/>
       <use xlink:href="#AndaleMono-30" x="120.019531"/>
      </g>
     </g>
    </g>
    <g id="xtick_3">
     <g id="line2d_3">
      <g>
       <use xlink:href="#m7af6c881cf" x="200.774876" y="307.584" style="stroke: #000000; stroke-width: 0.8"/>
      </g>
     </g>
     <g id="text_3">
      <!-- 400 -->
      <g transform="translate(190.872298 322.161969) scale(0.11 -0.11)">
       <defs>
        <path id="AndaleMono-34" d="M 3353 1019 
L 2809 1019 
L 2809 0 
L 2297 0 
L 2297 1019 
L 378 1019 
L 378 1409 
L 2119 4409 
L 2809 4409 
L 2809 1466 
L 3353 1466 
L 3353 1019 
z
M 2297 1466 
L 2297 3903 
L 897 1466 
L 2297 1466 
z
" transform="scale(0.015625)"/>
       </defs>
       <use xlink:href="#AndaleMono-34"/>
       <use xlink:href="#AndaleMono-30" x="60.009766"/>
       <use xlink:href="#AndaleMono-30" x="120.019531"/>
      </g>
     </g>
    </g>
    <g id="xtick_4">
     <g id="line2d_4">
      <g>
       <use xlink:href="#m7af6c881cf" x="264.24595" y="307.584" style="stroke: #000000; stroke-width: 0.8"/>
      </g>
     </g>
     <g id="text_4">
      <!-- 600 -->
      <g transform="translate(254.343372 322.161969) scale(0.11 -0.11)">
       <defs>
        <path id="AndaleMono-36" d="M 1131 2297 
Q 1544 2631 2028 2631 
Q 2588 2631 2961 2273 
Q 3334 1916 3334 1350 
Q 3334 728 3003 322 
Q 2672 -84 2119 -84 
Q 1413 -84 1000 564 
Q 588 1213 588 2150 
Q 588 3150 1017 3822 
Q 1447 4494 2194 4494 
Q 2709 4494 3084 4341 
L 3003 3884 
Q 2569 4044 2209 4044 
Q 1700 4044 1415 3556 
Q 1131 3069 1131 2297 
z
M 1147 1856 
Q 1147 1291 1412 828 
Q 1678 366 2081 366 
Q 2422 366 2606 616 
Q 2791 866 2791 1306 
Q 2791 1713 2587 1947 
Q 2384 2181 2016 2181 
Q 1538 2181 1147 1856 
z
" transform="scale(0.015625)"/>
       </defs>
       <use xlink:href="#AndaleMono-36"/>
       <use xlink:href="#AndaleMono-30" x="60.009766"/>
       <use xlink:href="#AndaleMono-30" x="120.019531"/>
      </g>
     </g>
    </g>
    <g id="xtick_5">
     <g id="line2d_5">
      <g>
       <use xlink:href="#m7af6c881cf" x="327.717025" y="307.584" style="stroke: #000000; stroke-width: 0.8"/>
      </g>
     </g>
     <g id="text_5">
      <!-- 800 -->
      <g transform="translate(317.814447 322.161969) scale(0.11 -0.11)">
       <defs>
        <path id="AndaleMono-38" d="M 2363 2419 
Q 2813 2288 3061 1972 
Q 3309 1656 3309 1234 
Q 3309 628 2907 272 
Q 2506 -84 1919 -84 
Q 1303 -84 908 275 
Q 513 634 513 1228 
Q 513 1647 769 1965 
Q 1025 2284 1484 2419 
Q 1119 2513 898 2780 
Q 678 3047 678 3378 
Q 678 3803 1015 4148 
Q 1353 4494 1906 4494 
Q 2453 4494 2811 4150 
Q 3169 3806 3169 3378 
Q 3169 3056 2944 2786 
Q 2719 2516 2363 2419 
z
M 1906 2631 
Q 1922 2631 2056 2668 
Q 2191 2706 2286 2761 
Q 2381 2816 2462 2900 
Q 2544 2984 2594 3098 
Q 2644 3213 2644 3353 
Q 2644 3653 2428 3851 
Q 2213 4050 1906 4050 
Q 1609 4050 1396 3847 
Q 1184 3644 1184 3353 
Q 1184 3169 1261 3031 
Q 1338 2894 1452 2809 
Q 1566 2725 1714 2678 
Q 1863 2631 1906 2631 
z
M 1906 2194 
Q 1050 1944 1050 1253 
Q 1050 850 1309 608 
Q 1569 366 1919 366 
Q 2281 366 2529 605 
Q 2778 844 2778 1253 
Q 2778 1563 2606 1808 
Q 2434 2053 1906 2194 
z
" transform="scale(0.015625)"/>
       </defs>
       <use xlink:href="#AndaleMono-38"/>
       <use xlink:href="#AndaleMono-30" x="60.009766"/>
       <use xlink:href="#AndaleMono-30" x="120.019531"/>
      </g>
     </g>
    </g>
    <g id="xtick_6">
     <g id="line2d_6">
      <g>
       <use xlink:href="#m7af6c881cf" x="391.188099" y="307.584" style="stroke: #000000; stroke-width: 0.8"/>
      </g>
     </g>
     <g id="text_6">
      <!-- 1000 -->
      <g transform="translate(377.984662 322.161969) scale(0.11 -0.11)">
       <defs>
        <path id="AndaleMono-31" d="M 3181 0 
L 863 0 
L 863 447 
L 1797 447 
L 1797 3872 
L 916 3431 
L 916 3944 
L 1869 4434 
L 2309 4434 
L 2309 447 
L 3181 447 
L 3181 0 
z
" transform="scale(0.015625)"/>
       </defs>
       <use xlink:href="#AndaleMono-31"/>
       <use xlink:href="#AndaleMono-30" x="60.009766"/>
       <use xlink:href="#AndaleMono-30" x="120.019531"/>
       <use xlink:href="#AndaleMono-30" x="180.029297"/>
      </g>
     </g>
    </g>
   </g>
   <g id="matplotlib.axis_2">
    <g id="ytick_1">
     <g id="line2d_7">
      <defs>
       <path id="m73b60143eb" d="M 0 0 
L -3.5 0 
" style="stroke: #000000; stroke-width: 0.8"/>
      </defs>
      <g>
       <use xlink:href="#m73b60143eb" x="57.6" y="295.488" style="stroke: #000000; stroke-width: 0.8"/>
      </g>
     </g>
     <g id="text_7">
      <!-- 1.00 -->
      <g transform="translate(17.591406 299.276984) scale(0.11 -0.11)">
       <defs>
        <path id="AndaleMono-2212" d="M 3397 2047 
L 441 2047 
L 441 2456 
L 3397 2456 
L 3397 2047 
z
" transform="scale(0.015625)"/>
        <path id="AndaleMono-2e" d="M 1900 716 
Q 2066 716 2178 603 
Q 2291 491 2291 325 
Q 2291 156 2177 36 
Q 2063 -84 1900 -84 
Q 1741 -84 1628 36 
Q 1516 156 1516 325 
Q 1516 494 1627 605 
Q 1738 716 1900 716 
z
" transform="scale(0.015625)"/>
       </defs>
       <use xlink:href="#AndaleMono-2212"/>
       <use xlink:href="#AndaleMono-31" x="60.009766"/>
       <use xlink:href="#AndaleMono-2e" x="120.019531"/>
       <use xlink:href="#AndaleMono-30" x="180.029297"/>
       <use xlink:href="#AndaleMono-30" x="240.039062"/>
      </g>
     </g>
    </g>
    <g id="ytick_2">
     <g id="line2d_8">
      <g>
       <use xlink:href="#m73b60143eb" x="57.6" y="265.248" style="stroke: #000000; stroke-width: 0.8"/>
      </g>
     </g>
     <g id="text_8">
      <!-- 0.75 -->
      <g transform="translate(17.591406 269.036984) scale(0.11 -0.11)">
       <defs>
        <path id="AndaleMono-37" d="M 3238 4044 
L 1491 0 
L 966 0 
L 2688 3963 
L 622 3963 
L 622 4409 
L 3238 4409 
L 3238 4044 
z
" transform="scale(0.015625)"/>
        <path id="AndaleMono-35" d="M 1356 2631 
Q 1569 2688 1772 2688 
Q 2397 2688 2759 2305 
Q 3122 1922 3122 1350 
Q 3122 750 2700 333 
Q 2278 -84 1672 -84 
Q 1094 -84 703 109 
L 806 544 
Q 1231 366 1684 366 
Q 2088 366 2336 625 
Q 2584 884 2584 1350 
Q 2584 1791 2350 2028 
Q 2116 2266 1747 2266 
Q 1478 2266 1216 2163 
L 909 2303 
L 909 4409 
L 2925 4409 
L 2925 3963 
L 1356 3963 
L 1356 2631 
z
" transform="scale(0.015625)"/>
       </defs>
       <use xlink:href="#AndaleMono-2212"/>
       <use xlink:href="#AndaleMono-30" x="60.009766"/>
       <use xlink:href="#AndaleMono-2e" x="120.019531"/>
       <use xlink:href="#AndaleMono-37" x="180.029297"/>
       <use xlink:href="#AndaleMono-35" x="240.039062"/>
      </g>
     </g>
    </g>
    <g id="ytick_3">
     <g id="line2d_9">
      <g>
       <use xlink:href="#m73b60143eb" x="57.6" y="235.008" style="stroke: #000000; stroke-width: 0.8"/>
      </g>
     </g>
     <g id="text_9">
      <!-- 0.50 -->
      <g transform="translate(17.591406 238.796984) scale(0.11 -0.11)">
       <use xlink:href="#AndaleMono-2212"/>
       <use xlink:href="#AndaleMono-30" x="60.009766"/>
       <use xlink:href="#AndaleMono-2e" x="120.019531"/>
       <use xlink:href="#AndaleMono-35" x="180.029297"/>
       <use xlink:href="#AndaleMono-30" x="240.039062"/>
      </g>
     </g>
    </g>
    <g id="ytick_4">
     <g id="line2d_10">
      <g>
       <use xlink:href="#m73b60143eb" x="57.6" y="204.768" style="stroke: #000000; stroke-width: 0.8"/>
      </g>
     </g>
     <g id="text_10">
      <!-- 0.25 -->
      <g transform="translate(17.591406 208.556984) scale(0.11 -0.11)">
       <use xlink:href="#AndaleMono-2212"/>
       <use xlink:href="#AndaleMono-30" x="60.009766"/>
       <use xlink:href="#AndaleMono-2e" x="120.019531"/>
       <use xlink:href="#AndaleMono-32" x="180.029297"/>
       <use xlink:href="#AndaleMono-35" x="240.039062"/>
      </g>
     </g>
    </g>
    <g id="ytick_5">
     <g id="line2d_11">
      <g>
       <use xlink:href="#m73b60143eb" x="57.6" y="174.528" style="stroke: #000000; stroke-width: 0.8"/>
      </g>
     </g>
     <g id="text_11">
      <!-- 0.00 -->
      <g transform="translate(24.193125 178.316984) scale(0.11 -0.11)">
       <use xlink:href="#AndaleMono-30"/>
       <use xlink:href="#AndaleMono-2e" x="60.009766"/>
       <use xlink:href="#AndaleMono-30" x="120.019531"/>
       <use xlink:href="#AndaleMono-30" x="180.029297"/>
      </g>
     </g>
    </g>
    <g id="ytick_6">
     <g id="line2d_12">
      <g>
       <use xlink:href="#m73b60143eb" x="57.6" y="144.288" style="stroke: #000000; stroke-width: 0.8"/>
      </g>
     </g>
     <g id="text_12">
      <!-- 0.25 -->
      <g transform="translate(24.193125 148.076984) scale(0.11 -0.11)">
       <use xlink:href="#AndaleMono-30"/>
       <use xlink:href="#AndaleMono-2e" x="60.009766"/>
       <use xlink:href="#AndaleMono-32" x="120.019531"/>
       <use xlink:href="#AndaleMono-35" x="180.029297"/>
      </g>
     </g>
    </g>
    <g id="ytick_7">
     <g id="line2d_13">
      <g>
       <use xlink:href="#m73b60143eb" x="57.6" y="114.048" style="stroke: #000000; stroke-width: 0.8"/>
      </g>
     </g>
     <g id="text_13">
      <!-- 0.50 -->
      <g transform="translate(24.193125 117.836984) scale(0.11 -0.11)">
       <use xlink:href="#AndaleMono-30"/>
       <use xlink:href="#AndaleMono-2e" x="60.009766"/>
       <use xlink:href="#AndaleMono-35" x="120.019531"/>
       <use xlink:href="#AndaleMono-30" x="180.029297"/>
      </g>
     </g>
    </g>
    <g id="ytick_8">
     <g id="line2d_14">
      <g>
       <use xlink:href="#m73b60143eb" x="57.6" y="83.808" style="stroke: #000000; stroke-width: 0.8"/>
      </g>
     </g>
     <g id="text_14">
      <!-- 0.75 -->
      <g transform="translate(24.193125 87.596984) scale(0.11 -0.11)">
       <use xlink:href="#AndaleMono-30"/>
       <use xlink:href="#AndaleMono-2e" x="60.009766"/>
       <use xlink:href="#AndaleMono-37" x="120.019531"/>
       <use xlink:href="#AndaleMono-35" x="180.029297"/>
      </g>
     </g>
    </g>
    <g id="ytick_9">
     <g id="line2d_15">
      <g>
       <use xlink:href="#m73b60143eb" x="57.6" y="53.568" style="stroke: #000000; stroke-width: 0.8"/>
      </g>
     </g>
     <g id="text_15">
      <!-- 1.00 -->
      <g transform="translate(24.193125 57.356984) scale(0.11 -0.11)">
       <use xlink:href="#AndaleMono-31"/>
       <use xlink:href="#AndaleMono-2e" x="60.009766"/>
       <use xlink:href="#AndaleMono-30" x="120.019531"/>
       <use xlink:href="#AndaleMono-30" x="180.029297"/>
      </g>
     </g>
    </g>
   </g>
   <g id="line2d_16">
    <path d="M 73.832727 174.528 
L 74.467438 174.462456 
L 77.323636 174.523424 
L 80.179835 174.769903 
L 82.083967 174.729194 
L 83.353388 174.465052 
L 84.62281 173.910662 
L 85.892231 173.073796 
L 86.844298 172.262011 
L 88.113719 170.835306 
L 89.700496 168.709195 
L 91.604628 165.77022 
L 95.412893 159.68962 
L 96.682314 158.073127 
L 99.855868 154.584727 
L 102.077355 153.09255 
L 103.029421 152.639917 
L 103.981488 152.404519 
L 105.250909 152.39355 
L 106.520331 152.649251 
L 107.472397 153.046951 
L 108.424463 153.670661 
L 110.01124 154.959189 
L 112.232727 157.115019 
L 116.040992 160.920174 
L 117.310413 161.806171 
L 119.214545 162.94172 
L 120.483967 163.411971 
L 124.292231 164.36064 
L 127.465785 164.989475 
L 131.27405 165.853698 
L 136.351736 167.18756 
L 138.573223 167.523232 
L 141.112066 167.663223 
L 143.333554 167.521827 
L 152.854215 166.181092 
L 155.075702 165.924509 
L 160.788099 165.378297 
L 163.644298 165.335637 
L 169.991405 165.187353 
L 172.212893 165.086575 
L 175.703802 164.916879 
L 181.733554 164.201267 
L 183.320331 163.708373 
L 186.81124 162.249418 
L 187.763306 161.681954 
L 190.93686 159.364646 
L 191.888926 158.277412 
L 193.793058 155.953543 
L 194.745124 154.833995 
L 197.283967 150.999167 
L 198.236033 149.180917 
L 199.188099 146.7852 
L 202.679008 136.871966 
L 206.169917 125.23738 
L 207.756694 117.855842 
L 209.978182 107.816359 
L 212.517025 97.205268 
L 213.469091 93.489732 
L 214.738512 87.312397 
L 219.498843 63.259094 
L 220.768264 58.74998 
L 221.720331 56.073047 
L 222.355041 54.657223 
L 222.989752 53.767144 
L 223.307107 53.590059 
L 223.624463 53.568 
L 223.941818 53.663446 
L 224.576529 54.248241 
L 225.21124 55.488639 
L 225.84595 57.640636 
L 226.480661 60.903064 
L 227.115372 65.233888 
L 228.067438 73.357949 
L 229.33686 86.194697 
L 231.240992 108.077322 
L 234.414545 149.565253 
L 239.174876 216.804349 
L 242.031074 252.344756 
L 243.935207 272.65533 
L 245.204628 283.822112 
L 246.156694 289.926078 
L 246.791405 292.617619 
L 247.426116 294.279615 
L 248.060826 295.166243 
L 248.695537 295.488 
L 249.012893 295.465941 
L 249.330248 295.288856 
L 249.647603 294.942421 
L 250.282314 293.732246 
L 251.23438 291.299592 
L 252.503802 286.999808 
L 253.455868 283.179057 
L 254.407934 278.470771 
L 256.946777 264.925394 
L 259.168264 254.249867 
L 261.707107 244.027702 
L 267.102149 220.19335 
L 269.958347 211.185504 
L 272.814545 203.151769 
L 274.083967 199.875083 
L 275.036033 198.056833 
L 277.574876 194.222005 
L 281.065785 190.021444 
L 282.017851 189.115947 
L 283.921983 187.805188 
L 285.826116 186.665717 
L 290.586446 184.854733 
L 293.442645 184.431887 
L 306.13686 183.731072 
L 311.214545 183.694344 
L 314.388099 183.423235 
L 319.14843 182.926266 
L 323.90876 182.259133 
L 327.082314 181.802479 
L 329.938512 181.444949 
L 332.477355 181.427413 
L 335.016198 181.699356 
L 337.237686 182.16192 
L 340.093884 182.926866 
L 343.267438 183.750411 
L 348.662479 184.815072 
L 352.153388 185.733778 
L 353.105455 186.11428 
L 354.692231 187.041399 
L 356.596364 188.39636 
L 358.18314 189.932031 
L 362.30876 194.096811 
L 364.212893 195.62043 
L 365.164959 196.167518 
L 366.117025 196.476572 
L 367.069091 196.66245 
L 368.338512 196.651481 
L 369.290579 196.416083 
L 370.56 195.777098 
L 373.098843 193.921002 
L 374.368264 192.513302 
L 376.907107 189.36638 
L 378.493884 186.949732 
L 382.93686 179.899666 
L 384.840992 177.461894 
L 386.110413 176.224864 
L 387.69719 175.145349 
L 388.966612 174.59305 
L 390.236033 174.328909 
L 392.140165 174.2882 
L 394.679008 174.497827 
L 396.265785 174.608371 
L 398.487273 174.528 
L 398.487273 174.528 
" clip-path="url(#p88e02e1114)" style="fill: none; stroke: #87ceeb; stroke-opacity: 0.75; stroke-linecap: square"/>
   </g>
   <g id="patch_3">
    <path d="M 57.6 307.584 
L 57.6 41.472 
" style="fill: none; stroke: #000000; stroke-width: 0.8; stroke-linejoin: miter; stroke-linecap: square"/>
   </g>
   <g id="patch_4">
    <path d="M 414.72 307.584 
L 414.72 41.472 
" style="fill: none; stroke: #000000; stroke-width: 0.8; stroke-linejoin: miter; stroke-linecap: square"/>
   </g>
   <g id="patch_5">
    <path d="M 57.6 307.584 
L 414.72 307.584 
" style="fill: none; stroke: #000000; stroke-width: 0.8; stroke-linejoin: miter; stroke-linecap: square"/>
   </g>
   <g id="patch_6">
    <path d="M 57.6 41.472 
L 414.72 41.472 
" style="fill: none; stroke: #000000; stroke-width: 0.8; stroke-linejoin: miter; stroke-linecap: square"/>
   </g>
  </g>
 </g>
 <defs>
  <clipPath id="p88e02e1114">
   <rect x="57.6" y="41.472" width="357.12" height="266.112"/>
  </clipPath>
 </defs>
</svg>
