<?xml version="1.0" encoding="utf-8" standalone="no"?>
<!DOCTYPE svg PUBLIC "-//W3C//DTD SVG 1.1//EN"
  "http://www.w3.org/Graphics/SVG/1.1/DTD/svg11.dtd">
<svg xmlns:xlink="http://www.w3.org/1999/xlink" width="460.8pt" height="345.6pt" viewBox="0 0 460.8 345.6" xmlns="http://www.w3.org/2000/svg" version="1.1">
 <metadata>
  <rdf:RDF xmlns:dc="http://purl.org/dc/elements/1.1/" xmlns:cc="http://creativecommons.org/ns#" xmlns:rdf="http://www.w3.org/1999/02/22-rdf-syntax-ns#">
   <cc:Work>
    <dc:type rdf:resource="http://purl.org/dc/dcmitype/StillImage"/>
    <dc:date>2024-04-23T11:13:06.714190</dc:date>
    <dc:format>image/svg+xml</dc:format>
    <dc:creator>
     <cc:Agent>
      <dc:title>Matplotlib v3.8.3, https://matplotlib.org/</dc:title>
     </cc:Agent>
    </dc:creator>
   </cc:Work>
  </rdf:RDF>
 </metadata>
 <defs>
  <style type="text/css">*{stroke-linejoin: round; stroke-linecap: butt}</style>
 </defs>
 <g id="figure_1">
  <g id="patch_1">
   <path d="M 0 345.6 
L 460.8 345.6 
L 460.8 0 
L 0 0 
z
" style="fill: #ffffff"/>
  </g>
  <g id="axes_1">
   <g id="patch_2">
    <path d="M 57.6 307.584 
L 414.72 307.584 
L 414.72 41.472 
L 57.6 41.472 
z
" style="fill: #ffffff"/>
   </g>
   <g id="PolyCollection_1">
    <defs>
     <path id="mec26191f2a" d="M 73.832727 -171.352507 
L 73.832727 -171.352507 
L 74.150083 -261.197234 
L 74.467438 -262.244268 
L 74.784793 -263.260383 
L 75.102149 -264.344173 
L 75.419504 -265.406397 
L 75.73686 -266.450773 
L 76.054215 -267.472943 
L 76.37157 -268.403622 
L 76.688926 -269.332863 
L 77.006281 -270.328878 
L 77.323636 -271.38774 
L 77.640992 -272.491486 
L 77.958347 -273.607519 
L 78.275702 -274.696902 
L 78.593058 -275.723808 
L 78.910413 -276.742609 
L 79.227769 -277.787315 
L 79.545124 -278.831523 
L 79.862479 -279.817783 
L 80.179835 -280.807559 
L 80.49719 -281.828406 
L 80.814545 -282.834344 
L 81.131901 -283.86662 
L 81.449256 -284.872689 
L 81.766612 -285.883615 
L 82.083967 -286.870538 
L 82.401322 -287.818046 
L 82.718678 -288.730511 
L 83.036033 -289.592259 
L 83.353388 -290.430568 
L 83.670744 -291.254672 
L 83.988099 -292.032 
L 84.305455 -288.27988 
L 84.62281 -284.626895 
L 84.940165 -281.078562 
L 85.257521 -277.637446 
L 85.574876 -274.279145 
L 85.892231 -271.008331 
L 86.209587 -267.814861 
L 86.526942 -264.725029 
L 86.844298 -261.79583 
L 87.161653 -258.984202 
L 87.479008 -256.310571 
L 87.796364 -253.762748 
L 88.113719 -251.306839 
L 88.431074 -248.927799 
L 88.74843 -246.628467 
L 89.065785 -244.43648 
L 89.38314 -242.328562 
L 89.700496 -240.303651 
L 90.017851 -238.343051 
L 90.335207 -236.463516 
L 90.652562 -234.643503 
L 90.969917 -232.89475 
L 91.287273 -231.248265 
L 91.604628 -229.695469 
L 91.921983 -228.216781 
L 92.239339 -226.804009 
L 92.556694 -225.450467 
L 92.87405 -224.16692 
L 93.191405 -222.929656 
L 93.50876 -221.738224 
L 93.826116 -220.648025 
L 94.143471 -219.649413 
L 94.460826 -218.874294 
L 94.778182 -218.240653 
L 95.095537 -217.645485 
L 95.412893 -216.987098 
L 95.730248 -216.352877 
L 96.047603 -215.733478 
L 96.364959 -215.129484 
L 96.682314 -214.594205 
L 96.999669 -214.057329 
L 97.317025 -213.443015 
L 97.63438 -212.772439 
L 97.951736 -212.071371 
L 98.269091 -211.381886 
L 98.586446 -210.738936 
L 98.903802 -210.173361 
L 99.221157 -209.637573 
L 99.538512 -209.089654 
L 99.855868 -208.55461 
L 100.173223 -208.116926 
L 100.490579 -207.709531 
L 100.807934 -207.290328 
L 101.125289 -206.90196 
L 101.442645 -206.505081 
L 101.76 -206.139824 
L 102.077355 -205.769277 
L 102.394711 -205.424291 
L 102.712066 -205.12148 
L 103.029421 -204.846478 
L 103.346777 -204.62103 
L 103.664132 -204.421228 
L 103.981488 -204.23747 
L 104.298843 -204.11012 
L 104.616198 -203.985113 
L 104.933554 -203.894894 
L 105.250909 -203.821967 
L 105.568264 -203.751405 
L 105.88562 -203.721227 
L 106.202975 -203.721795 
L 106.520331 -203.776685 
L 106.837686 -203.843328 
L 107.155041 -203.857324 
L 107.472397 -203.868971 
L 107.789752 -203.854828 
L 108.107107 -203.819576 
L 108.424463 -203.794936 
L 108.741818 -203.803734 
L 109.059174 -203.846545 
L 109.376529 -203.864858 
L 109.693884 -203.893066 
L 110.01124 -203.905983 
L 110.328595 -203.930456 
L 110.64595 -203.92628 
L 110.963306 -203.949703 
L 111.280661 -203.984335 
L 111.598017 -204.02443 
L 111.915372 -204.055542 
L 112.232727 -204.082967 
L 112.550083 -204.123389 
L 112.867438 -204.189295 
L 113.184793 -204.266574 
L 113.502149 -204.38076 
L 113.819504 -204.533852 
L 114.13686 -204.640249 
L 114.454215 -204.721375 
L 114.77157 -204.795089 
L 115.088926 -204.853106 
L 115.406281 -204.909745 
L 115.723636 -204.974545 
L 116.040992 -205.038666 
L 116.358347 -205.115383 
L 116.675702 -205.207715 
L 116.993058 -205.343775 
L 117.310413 -205.508675 
L 117.627769 -205.695795 
L 117.945124 -205.880674 
L 118.262479 -206.047234 
L 118.579835 -206.193765 
L 118.89719 -206.336835 
L 119.214545 -206.481011 
L 119.531901 -206.626004 
L 119.849256 -206.772706 
L 120.166612 -206.922295 
L 120.483967 -207.037477 
L 120.801322 -207.117611 
L 121.118678 -207.175964 
L 121.436033 -207.211256 
L 121.753388 -207.222783 
L 122.070744 -207.221003 
L 122.388099 -207.218266 
L 122.705455 -207.213376 
L 123.02281 -207.195991 
L 123.340165 -207.180454 
L 123.657521 -207.155718 
L 123.974876 -207.110517 
L 124.292231 -207.047099 
L 124.609587 -206.95295 
L 124.926942 -206.84737 
L 125.244298 -206.725654 
L 125.561653 -206.596115 
L 125.879008 -206.477003 
L 126.196364 -206.348929 
L 126.513719 -206.212662 
L 126.831074 -206.047033 
L 127.14843 -205.868705 
L 127.465785 -205.680797 
L 127.78314 -205.468571 
L 128.100496 -205.224409 
L 128.417851 -204.947117 
L 128.735207 -204.641997 
L 129.052562 -204.308604 
L 129.369917 -203.947101 
L 129.687273 -203.595624 
L 130.004628 -203.247224 
L 130.321983 -202.93122 
L 130.639339 -202.63198 
L 130.956694 -202.409592 
L 131.27405 -202.192127 
L 131.591405 -201.990977 
L 131.90876 -201.756592 
L 132.226116 -201.533834 
L 132.543471 -201.343365 
L 132.860826 -201.154821 
L 133.178182 -200.964457 
L 133.495537 -200.775566 
L 133.812893 -200.582355 
L 134.130248 -200.379067 
L 134.447603 -200.207641 
L 134.764959 -200.048937 
L 135.082314 -199.891667 
L 135.399669 -199.733448 
L 135.717025 -199.567805 
L 136.03438 -199.38994 
L 136.351736 -199.210017 
L 136.669091 -199.022168 
L 136.986446 -198.831306 
L 137.303802 -198.622709 
L 137.621157 -198.396735 
L 137.938512 -198.173584 
L 138.255868 -197.960035 
L 138.573223 -197.779268 
L 138.890579 -197.611748 
L 139.207934 -197.448911 
L 139.525289 -197.292536 
L 139.842645 -197.127373 
L 140.16 -196.960207 
L 140.477355 -196.784009 
L 140.794711 -196.609222 
L 141.112066 -196.431793 
L 141.429421 -196.245524 
L 141.746777 -196.057263 
L 142.064132 -195.864012 
L 142.381488 -195.672276 
L 142.698843 -195.470884 
L 143.016198 -195.262936 
L 143.333554 -195.071995 
L 143.650909 -194.88194 
L 143.968264 -194.695366 
L 144.28562 -194.519827 
L 144.602975 -194.3497 
L 144.920331 -194.197542 
L 145.237686 -194.067901 
L 145.555041 -193.949004 
L 145.872397 -193.839945 
L 146.189752 -193.733989 
L 146.507107 -193.635861 
L 146.824463 -193.555805 
L 147.141818 -193.504012 
L 147.459174 -193.492138 
L 147.776529 -193.519524 
L 148.093884 -193.550769 
L 148.41124 -193.628016 
L 148.728595 -193.771199 
L 149.04595 -193.988702 
L 149.363306 -194.267208 
L 149.680661 -194.597242 
L 149.998017 -194.956401 
L 150.315372 -195.339817 
L 150.632727 -195.757124 
L 150.950083 -196.209302 
L 151.267438 -196.672294 
L 151.584793 -197.179583 
L 151.902149 -197.723448 
L 152.219504 -198.328245 
L 152.53686 -198.945936 
L 152.854215 -199.555328 
L 153.17157 -200.167346 
L 153.488926 -200.780983 
L 153.806281 -201.39334 
L 154.123636 -202.011116 
L 154.440992 -202.631012 
L 154.758347 -203.237602 
L 155.075702 -203.833149 
L 155.393058 -204.420905 
L 155.710413 -205.014261 
L 156.027769 -205.635361 
L 156.345124 -206.276114 
L 156.662479 -206.949392 
L 156.979835 -207.65275 
L 157.29719 -208.370064 
L 157.614545 -209.0993 
L 157.931901 -209.837172 
L 158.249256 -210.568624 
L 158.566612 -211.296083 
L 158.883967 -211.986654 
L 159.201322 -212.658652 
L 159.518678 -213.308302 
L 159.836033 -213.928951 
L 160.153388 -214.521456 
L 160.470744 -215.078256 
L 160.788099 -215.61335 
L 161.105455 -216.110831 
L 161.42281 -216.594498 
L 161.740165 -217.076608 
L 162.057521 -217.544637 
L 162.374876 -217.99874 
L 162.692231 -218.430186 
L 163.009587 -218.846829 
L 163.326942 -219.240734 
L 163.644298 -219.589938 
L 163.961653 -219.912027 
L 164.279008 -220.214001 
L 164.596364 -220.505395 
L 164.913719 -220.785831 
L 165.231074 -221.060466 
L 165.54843 -221.328379 
L 165.865785 -221.591648 
L 166.18314 -221.852423 
L 166.500496 -222.119085 
L 166.817851 -222.386726 
L 167.135207 -222.64878 
L 167.452562 -222.894019 
L 167.769917 -223.100739 
L 168.087273 -223.274019 
L 168.404628 -223.505534 
L 168.721983 -223.738558 
L 169.039339 -223.955839 
L 169.356694 -224.136123 
L 169.67405 -224.279489 
L 169.991405 -224.390741 
L 170.30876 -224.492477 
L 170.626116 -224.575709 
L 170.943471 -224.601058 
L 171.260826 -224.579279 
L 171.578182 -224.485498 
L 171.895537 -224.319555 
L 172.212893 -224.087367 
L 172.530248 -223.782444 
L 172.847603 -223.428654 
L 173.164959 -223.041633 
L 173.482314 -222.643094 
L 173.799669 -222.237904 
L 174.117025 -221.817666 
L 174.43438 -221.374524 
L 174.751736 -220.911031 
L 175.069091 -220.427616 
L 175.386446 -219.943411 
L 175.703802 -219.477969 
L 176.021157 -219.01737 
L 176.338512 -218.545966 
L 176.655868 -218.069959 
L 176.973223 -217.566793 
L 177.290579 -217.028662 
L 177.607934 -216.460149 
L 177.925289 -215.862696 
L 178.242645 -215.226299 
L 178.56 -214.567343 
L 178.877355 -213.895131 
L 179.194711 -213.243851 
L 179.512066 -212.598235 
L 179.829421 -211.940718 
L 180.146777 -211.268217 
L 180.464132 -210.600921 
L 180.781488 -209.950471 
L 181.098843 -209.313812 
L 181.416198 -208.688103 
L 181.733554 -208.060997 
L 182.050909 -207.433435 
L 182.368264 -206.812717 
L 182.68562 -206.206892 
L 183.002975 -205.658393 
L 183.320331 -205.149812 
L 183.637686 -204.684165 
L 183.955041 -204.280769 
L 184.272397 -203.940291 
L 184.589752 -203.658057 
L 184.907107 -203.410294 
L 185.224463 -203.231094 
L 185.541818 -203.073932 
L 185.859174 -202.949361 
L 186.176529 -202.846175 
L 186.493884 -202.762096 
L 186.81124 -202.646989 
L 187.128595 -202.511676 
L 187.44595 -202.41475 
L 187.763306 -202.327384 
L 188.080661 -202.277758 
L 188.398017 -202.273047 
L 188.715372 -202.257106 
L 189.032727 -202.237819 
L 189.350083 -202.237346 
L 189.667438 -202.249219 
L 189.984793 -202.284719 
L 190.302149 -202.349686 
L 190.619504 -202.414457 
L 190.93686 -202.468649 
L 191.254215 -202.570561 
L 191.57157 -202.72944 
L 191.888926 -202.93652 
L 192.206281 -203.196815 
L 192.523636 -203.48072 
L 192.840992 -203.803817 
L 193.158347 -204.179536 
L 193.475702 -204.598153 
L 193.793058 -205.047105 
L 194.110413 -205.506248 
L 194.427769 -205.988194 
L 194.745124 -206.495884 
L 195.062479 -207.038665 
L 195.379835 -207.622997 
L 195.69719 -208.214342 
L 196.014545 -208.776696 
L 196.331901 -209.303134 
L 196.649256 -209.784877 
L 196.966612 -210.232326 
L 197.283967 -210.66642 
L 197.601322 -211.078654 
L 197.918678 -211.491351 
L 198.236033 -211.91021 
L 198.553388 -212.353628 
L 198.870744 -212.812557 
L 199.188099 -213.241696 
L 199.505455 -213.583433 
L 199.82281 -213.876696 
L 200.140165 -214.176689 
L 200.457521 -214.504782 
L 200.774876 -214.810926 
L 201.092231 -215.121026 
L 201.409587 -215.408699 
L 201.726942 -215.722131 
L 202.044298 -216.061372 
L 202.361653 -216.41777 
L 202.679008 -216.781912 
L 202.996364 -217.133953 
L 203.313719 -217.42056 
L 203.631074 -217.666362 
L 203.94843 -217.886345 
L 204.265785 -218.057053 
L 204.58314 -218.181989 
L 204.900496 -218.238349 
L 205.217851 -218.27502 
L 205.535207 -218.272532 
L 205.852562 -218.294187 
L 206.169917 -218.274263 
L 206.487273 -218.217588 
L 206.804628 -218.156545 
L 207.121983 -218.168251 
L 207.439339 -218.246885 
L 207.756694 -218.286885 
L 208.07405 -218.36326 
L 208.391405 -218.433322 
L 208.70876 -218.518733 
L 209.026116 -218.636976 
L 209.343471 -218.816423 
L 209.660826 -219.042004 
L 209.978182 -219.331252 
L 210.295537 -219.646974 
L 210.612893 -219.941449 
L 210.930248 -220.258465 
L 211.247603 -220.643694 
L 211.564959 -221.041847 
L 211.882314 -221.430729 
L 212.199669 -221.835292 
L 212.517025 -222.257269 
L 212.83438 -222.769303 
L 213.151736 -223.340949 
L 213.469091 -223.936807 
L 213.786446 -224.535221 
L 214.103802 -225.113134 
L 214.421157 -225.718788 
L 214.738512 -226.348466 
L 215.055868 -227.001805 
L 215.373223 -227.686126 
L 215.690579 -228.364995 
L 216.007934 -229.072501 
L 216.325289 -229.827065 
L 216.642645 -230.659388 
L 216.96 -231.564882 
L 217.277355 -232.532307 
L 217.594711 -233.523296 
L 217.912066 -234.56037 
L 218.229421 -235.647266 
L 218.546777 -236.750529 
L 218.864132 -237.811452 
L 219.181488 -238.814171 
L 219.498843 -239.813682 
L 219.816198 -240.913657 
L 220.133554 -242.057897 
L 220.450909 -243.163793 
L 220.768264 -244.211392 
L 221.08562 -245.249346 
L 221.402975 -246.214774 
L 221.720331 -247.126373 
L 222.037686 -247.913344 
L 222.355041 -248.543856 
L 222.672397 -249.012828 
L 222.989752 -249.374998 
L 223.307107 -249.657388 
L 223.624463 -249.874204 
L 223.941818 -250.053107 
L 224.259174 -250.166009 
L 224.576529 -250.212591 
L 224.893884 -250.17733 
L 225.21124 -250.089207 
L 225.528595 -249.890545 
L 225.84595 -249.553321 
L 226.163306 -249.010522 
L 226.480661 -248.313733 
L 226.798017 -247.507438 
L 227.115372 -246.580206 
L 227.432727 -245.519554 
L 227.750083 -244.318915 
L 228.067438 -243.029848 
L 228.384793 -241.625407 
L 228.702149 -240.14229 
L 229.019504 -238.511796 
L 229.33686 -236.72296 
L 229.654215 -234.74937 
L 229.97157 -232.545764 
L 230.288926 -230.116901 
L 230.606281 -227.523239 
L 230.923636 -224.846872 
L 231.240992 -222.068088 
L 231.558347 -219.192229 
L 231.875702 -216.229818 
L 232.193058 -213.194186 
L 232.510413 -210.123792 
L 232.827769 -207.039331 
L 233.145124 -203.828053 
L 233.462479 -200.487682 
L 233.779835 -197.057508 
L 234.09719 -193.613772 
L 234.414545 -190.209482 
L 234.731901 -186.789115 
L 235.049256 -183.346677 
L 235.366612 -179.909393 
L 235.683967 -176.463602 
L 236.001322 -173.055426 
L 236.318678 -169.649588 
L 236.636033 -166.241412 
L 236.953388 -162.795621 
L 237.270744 -159.358338 
L 237.588099 -155.915899 
L 237.905455 -152.495533 
L 238.22281 -149.091242 
L 238.540165 -145.647507 
L 238.857521 -142.217332 
L 239.174876 -138.876961 
L 239.492231 -135.665683 
L 239.809587 -132.581222 
L 240.126942 -129.510828 
L 240.444298 -126.475197 
L 240.761653 -123.512785 
L 241.079008 -120.636926 
L 241.396364 -117.858142 
L 241.713719 -115.181776 
L 242.031074 -112.588113 
L 242.34843 -110.159251 
L 242.665785 -107.955644 
L 242.98314 -105.982054 
L 243.300496 -104.193219 
L 243.617851 -102.562724 
L 243.935207 -101.079608 
L 244.252562 -99.675166 
L 244.569917 -98.3861 
L 244.887273 -97.18546 
L 245.204628 -96.124809 
L 245.521983 -95.197577 
L 245.839339 -94.391282 
L 246.156694 -93.694492 
L 246.47405 -93.151693 
L 246.791405 -92.814469 
L 247.10876 -92.615807 
L 247.426116 -92.527684 
L 247.743471 -92.492423 
L 248.060826 -92.539006 
L 248.378182 -92.651907 
L 248.695537 -92.83081 
L 249.012893 -93.047626 
L 249.330248 -93.330016 
L 249.647603 -93.692187 
L 249.964959 -94.161158 
L 250.282314 -94.79167 
L 250.599669 -95.578642 
L 250.917025 -96.490241 
L 251.23438 -97.455668 
L 251.551736 -98.493623 
L 251.869091 -99.541222 
L 252.186446 -100.647117 
L 252.503802 -101.791358 
L 252.821157 -102.891333 
L 253.138512 -103.890843 
L 253.455868 -104.893562 
L 253.773223 -105.954486 
L 254.090579 -107.057749 
L 254.407934 -108.144644 
L 254.725289 -109.181718 
L 255.042645 -110.172707 
L 255.36 -111.140133 
L 255.677355 -112.045626 
L 255.994711 -112.877949 
L 256.312066 -113.632513 
L 256.629421 -114.340019 
L 256.946777 -115.018888 
L 257.264132 -115.70321 
L 257.581488 -116.356548 
L 257.898843 -116.986226 
L 258.216198 -117.591881 
L 258.533554 -118.169793 
L 258.850909 -118.768207 
L 259.168264 -119.364065 
L 259.48562 -119.935711 
L 259.802975 -120.447746 
L 260.120331 -120.869722 
L 260.437686 -121.274285 
L 260.755041 -121.663167 
L 261.072397 -122.06132 
L 261.389752 -122.446549 
L 261.707107 -122.763566 
L 262.024463 -123.05804 
L 262.341818 -123.373762 
L 262.659174 -123.66301 
L 262.976529 -123.888591 
L 263.293884 -124.068038 
L 263.61124 -124.186281 
L 263.928595 -124.271692 
L 264.24595 -124.341754 
L 264.563306 -124.418129 
L 264.880661 -124.458129 
L 265.198017 -124.536763 
L 265.515372 -124.548469 
L 265.832727 -124.487427 
L 266.150083 -124.430751 
L 266.467438 -124.410827 
L 266.784793 -124.432482 
L 267.102149 -124.429995 
L 267.419504 -124.466666 
L 267.73686 -124.523025 
L 268.054215 -124.647961 
L 268.37157 -124.81867 
L 268.688926 -125.038653 
L 269.006281 -125.284454 
L 269.323636 -125.571061 
L 269.640992 -125.923102 
L 269.958347 -126.287245 
L 270.275702 -126.643643 
L 270.593058 -126.982883 
L 270.910413 -127.296315 
L 271.227769 -127.583988 
L 271.545124 -127.894088 
L 271.862479 -128.200232 
L 272.179835 -128.528325 
L 272.49719 -128.828318 
L 272.814545 -129.121581 
L 273.131901 -129.463318 
L 273.449256 -129.892457 
L 273.766612 -130.351386 
L 274.083967 -130.794804 
L 274.401322 -131.213663 
L 274.718678 -131.62636 
L 275.036033 -132.038594 
L 275.353388 -132.472689 
L 275.670744 -132.920138 
L 275.988099 -133.40188 
L 276.305455 -133.928318 
L 276.62281 -134.490672 
L 276.940165 -135.082017 
L 277.257521 -135.66635 
L 277.574876 -136.20913 
L 277.892231 -136.71682 
L 278.209587 -137.198766 
L 278.526942 -137.657909 
L 278.844298 -138.106862 
L 279.161653 -138.525478 
L 279.479008 -138.901197 
L 279.796364 -139.224294 
L 280.113719 -139.508199 
L 280.431074 -139.768495 
L 280.74843 -139.975574 
L 281.065785 -140.134453 
L 281.38314 -140.236365 
L 281.700496 -140.290557 
L 282.017851 -140.355328 
L 282.335207 -140.420296 
L 282.652562 -140.455796 
L 282.969917 -140.467669 
L 283.287273 -140.467195 
L 283.604628 -140.447908 
L 283.921983 -140.431967 
L 284.239339 -140.427257 
L 284.556694 -140.377631 
L 284.87405 -140.290264 
L 285.191405 -140.193338 
L 285.50876 -140.058025 
L 285.826116 -139.942918 
L 286.143471 -139.858839 
L 286.460826 -139.755654 
L 286.778182 -139.631083 
L 287.095537 -139.47392 
L 287.412893 -139.29472 
L 287.730248 -139.046957 
L 288.047603 -138.764723 
L 288.364959 -138.424245 
L 288.682314 -138.020849 
L 288.999669 -137.555202 
L 289.317025 -137.046621 
L 289.63438 -136.498122 
L 289.951736 -135.892297 
L 290.269091 -135.271579 
L 290.586446 -134.644017 
L 290.903802 -134.016911 
L 291.221157 -133.391203 
L 291.538512 -132.754543 
L 291.855868 -132.104093 
L 292.173223 -131.436797 
L 292.490579 -130.764296 
L 292.807934 -130.106779 
L 293.125289 -129.461163 
L 293.442645 -128.809883 
L 293.76 -128.137671 
L 294.077355 -127.478715 
L 294.394711 -126.842318 
L 294.712066 -126.244866 
L 295.029421 -125.676352 
L 295.346777 -125.138221 
L 295.664132 -124.635055 
L 295.981488 -124.159048 
L 296.298843 -123.687644 
L 296.616198 -123.227045 
L 296.933554 -122.761603 
L 297.250909 -122.277398 
L 297.568264 -121.793983 
L 297.88562 -121.330491 
L 298.202975 -120.887348 
L 298.520331 -120.46711 
L 298.837686 -120.06192 
L 299.155041 -119.663381 
L 299.472397 -119.27636 
L 299.789752 -118.92257 
L 300.107107 -118.617647 
L 300.424463 -118.38546 
L 300.741818 -118.219516 
L 301.059174 -118.125735 
L 301.376529 -118.103956 
L 301.693884 -118.129305 
L 302.01124 -118.212538 
L 302.328595 -118.314274 
L 302.64595 -118.425525 
L 302.963306 -118.568892 
L 303.280661 -118.749175 
L 303.598017 -118.966457 
L 303.915372 -119.19948 
L 304.232727 -119.430995 
L 304.550083 -119.604275 
L 304.867438 -119.810995 
L 305.184793 -120.056234 
L 305.502149 -120.318288 
L 305.819504 -120.585929 
L 306.13686 -120.852592 
L 306.454215 -121.113367 
L 306.77157 -121.376636 
L 307.088926 -121.644548 
L 307.406281 -121.919183 
L 307.723636 -122.199619 
L 308.040992 -122.491013 
L 308.358347 -122.792987 
L 308.675702 -123.115077 
L 308.993058 -123.46428 
L 309.310413 -123.858186 
L 309.627769 -124.274828 
L 309.945124 -124.706275 
L 310.262479 -125.160377 
L 310.579835 -125.628406 
L 310.89719 -126.110516 
L 311.214545 -126.594183 
L 311.531901 -127.091665 
L 311.849256 -127.626758 
L 312.166612 -128.183558 
L 312.483967 -128.776063 
L 312.801322 -129.396712 
L 313.118678 -130.046362 
L 313.436033 -130.71836 
L 313.753388 -131.408932 
L 314.070744 -132.13639 
L 314.388099 -132.867842 
L 314.705455 -133.605714 
L 315.02281 -134.33495 
L 315.340165 -135.052265 
L 315.657521 -135.755622 
L 315.974876 -136.4289 
L 316.292231 -137.069653 
L 316.609587 -137.690754 
L 316.926942 -138.284109 
L 317.244298 -138.871866 
L 317.561653 -139.467412 
L 317.879008 -140.074002 
L 318.196364 -140.693898 
L 318.513719 -141.311675 
L 318.831074 -141.924031 
L 319.14843 -142.537668 
L 319.465785 -143.149686 
L 319.78314 -143.759078 
L 320.100496 -144.37677 
L 320.417851 -144.981566 
L 320.735207 -145.525431 
L 321.052562 -146.032721 
L 321.369917 -146.495712 
L 321.687273 -146.947891 
L 322.004628 -147.365197 
L 322.321983 -147.748614 
L 322.639339 -148.107772 
L 322.956694 -148.437807 
L 323.27405 -148.716312 
L 323.591405 -148.933815 
L 323.90876 -149.076998 
L 324.226116 -149.154245 
L 324.543471 -149.18549 
L 324.860826 -149.212876 
L 325.178182 -149.201003 
L 325.495537 -149.149209 
L 325.812893 -149.069153 
L 326.130248 -148.971026 
L 326.447603 -148.865069 
L 326.764959 -148.75601 
L 327.082314 -148.637113 
L 327.399669 -148.507472 
L 327.717025 -148.355314 
L 328.03438 -148.185187 
L 328.351736 -148.009648 
L 328.669091 -147.823075 
L 328.986446 -147.63302 
L 329.303802 -147.442078 
L 329.621157 -147.23413 
L 329.938512 -147.032738 
L 330.255868 -146.841002 
L 330.573223 -146.647751 
L 330.890579 -146.45949 
L 331.207934 -146.273221 
L 331.525289 -146.095792 
L 331.842645 -145.921005 
L 332.16 -145.744807 
L 332.477355 -145.577641 
L 332.794711 -145.412478 
L 333.112066 -145.256103 
L 333.429421 -145.093266 
L 333.746777 -144.925746 
L 334.064132 -144.744979 
L 334.381488 -144.53143 
L 334.698843 -144.308279 
L 335.016198 -144.082305 
L 335.333554 -143.873708 
L 335.650909 -143.682846 
L 335.968264 -143.494998 
L 336.28562 -143.315074 
L 336.602975 -143.137209 
L 336.920331 -142.971566 
L 337.237686 -142.813347 
L 337.555041 -142.656078 
L 337.872397 -142.497373 
L 338.189752 -142.325948 
L 338.507107 -142.122659 
L 338.824463 -141.929448 
L 339.141818 -141.740557 
L 339.459174 -141.550193 
L 339.776529 -141.361649 
L 340.093884 -141.17118 
L 340.41124 -140.948422 
L 340.728595 -140.714037 
L 341.04595 -140.512887 
L 341.363306 -140.295422 
L 341.680661 -140.073034 
L 341.998017 -139.773794 
L 342.315372 -139.45779 
L 342.632727 -139.10939 
L 342.950083 -138.757913 
L 343.267438 -138.396411 
L 343.584793 -138.063017 
L 343.902149 -137.757897 
L 344.219504 -137.480606 
L 344.53686 -137.236444 
L 344.854215 -137.024217 
L 345.17157 -136.83631 
L 345.488926 -136.657982 
L 345.806281 -136.492352 
L 346.123636 -136.356085 
L 346.440992 -136.228011 
L 346.758347 -136.108899 
L 347.075702 -135.97936 
L 347.393058 -135.857644 
L 347.710413 -135.752064 
L 348.027769 -135.657915 
L 348.345124 -135.594497 
L 348.662479 -135.549296 
L 348.979835 -135.52456 
L 349.29719 -135.509023 
L 349.614545 -135.491638 
L 349.931901 -135.486748 
L 350.249256 -135.484012 
L 350.566612 -135.482232 
L 350.883967 -135.493759 
L 351.201322 -135.52905 
L 351.518678 -135.587403 
L 351.836033 -135.667537 
L 352.153388 -135.782719 
L 352.470744 -135.932308 
L 352.788099 -136.07901 
L 353.105455 -136.224003 
L 353.42281 -136.368179 
L 353.740165 -136.511249 
L 354.057521 -136.65778 
L 354.374876 -136.82434 
L 354.692231 -137.009219 
L 355.009587 -137.196339 
L 355.326942 -137.361239 
L 355.644298 -137.497299 
L 355.961653 -137.589631 
L 356.279008 -137.666348 
L 356.596364 -137.730469 
L 356.913719 -137.79527 
L 357.231074 -137.851908 
L 357.54843 -137.909926 
L 357.865785 -137.98364 
L 358.18314 -138.064766 
L 358.500496 -138.171163 
L 358.817851 -138.324255 
L 359.135207 -138.43844 
L 359.452562 -138.515719 
L 359.769917 -138.581625 
L 360.087273 -138.622047 
L 360.404628 -138.649472 
L 360.721983 -138.680584 
L 361.039339 -138.720679 
L 361.356694 -138.755311 
L 361.67405 -138.778735 
L 361.991405 -138.774559 
L 362.30876 -138.799031 
L 362.626116 -138.811948 
L 362.943471 -138.840157 
L 363.260826 -138.85847 
L 363.578182 -138.90128 
L 363.895537 -138.910079 
L 364.212893 -138.885438 
L 364.530248 -138.850186 
L 364.847603 -138.836044 
L 365.164959 -138.84769 
L 365.482314 -138.861686 
L 365.799669 -138.928329 
L 366.117025 -138.983219 
L 366.43438 -138.983787 
L 366.751736 -138.953609 
L 367.069091 -138.883048 
L 367.386446 -138.810121 
L 367.703802 -138.719901 
L 368.021157 -138.594894 
L 368.338512 -138.467544 
L 368.655868 -138.283786 
L 368.973223 -138.083984 
L 369.290579 -137.858536 
L 369.607934 -137.583535 
L 369.925289 -137.280723 
L 370.242645 -136.935737 
L 370.56 -136.565191 
L 370.877355 -136.199933 
L 371.194711 -135.803054 
L 371.512066 -135.414687 
L 371.829421 -134.995483 
L 372.146777 -134.588089 
L 372.464132 -134.150404 
L 372.781488 -133.615361 
L 373.098843 -133.067441 
L 373.416198 -132.531654 
L 373.733554 -131.966079 
L 374.050909 -131.323128 
L 374.368264 -130.633643 
L 374.68562 -129.932575 
L 375.002975 -129.261999 
L 375.320331 -128.647686 
L 375.637686 -128.11081 
L 375.955041 -127.57553 
L 376.272397 -126.971536 
L 376.589752 -126.352137 
L 376.907107 -125.717917 
L 377.224463 -125.059529 
L 377.541818 -124.464361 
L 377.859174 -123.83072 
L 378.176529 -123.055602 
L 378.493884 -122.087564 
L 378.81124 -121.060929 
L 379.128595 -119.936224 
L 379.44595 -118.768787 
L 379.763306 -117.558101 
L 380.080661 -116.280388 
L 380.398017 -114.946349 
L 380.715372 -113.549231 
L 381.032727 -112.080778 
L 381.350083 -110.521344 
L 381.667438 -108.862284 
L 381.984793 -107.134541 
L 382.302149 -105.349787 
L 382.619504 -103.486415 
L 382.93686 -101.561113 
L 383.254215 -99.555119 
L 383.57157 -97.467307 
L 383.888926 -95.274335 
L 384.206281 -93.003775 
L 384.523636 -90.658401 
L 384.840992 -88.223102 
L 385.158347 -85.663919 
L 385.475702 -82.968598 
L 385.793058 -80.1575 
L 386.110413 -77.187496 
L 386.427769 -74.115519 
L 386.745124 -70.967793 
L 387.062479 -67.734115 
L 387.379835 -64.419088 
L 387.69719 -60.998246 
L 388.014545 -57.474088 
L 388.331901 -53.852067 
L 388.649256 -50.112 
L 388.966612 -50.936104 
L 389.283967 -51.774413 
L 389.601322 -52.636161 
L 389.918678 -53.548626 
L 390.236033 -54.496133 
L 390.553388 -55.483056 
L 390.870744 -56.493983 
L 391.188099 -57.500052 
L 391.505455 -58.532327 
L 391.82281 -59.538266 
L 392.140165 -60.559113 
L 392.457521 -61.548888 
L 392.774876 -62.535149 
L 393.092231 -63.579357 
L 393.409587 -64.624063 
L 393.726942 -65.642864 
L 394.044298 -66.66977 
L 394.361653 -67.759153 
L 394.679008 -68.875186 
L 394.996364 -69.978931 
L 395.313719 -71.037793 
L 395.631074 -72.033808 
L 395.94843 -72.96305 
L 396.265785 -73.893728 
L 396.58314 -74.915898 
L 396.900496 -75.960274 
L 397.217851 -77.022499 
L 397.535207 -78.106289 
L 397.852562 -79.122404 
L 398.169917 -80.169438 
L 398.487273 -171.352507 
L 398.487273 -171.352507 
L 398.487273 -171.352507 
L 398.169917 -171.352507 
L 397.852562 -171.352507 
L 397.535207 -171.352507 
L 397.217851 -171.352507 
L 396.900496 -171.352507 
L 396.58314 -171.352507 
L 396.265785 -171.352507 
L 395.94843 -171.352507 
L 395.631074 -171.352507 
L 395.313719 -171.352507 
L 394.996364 -171.352507 
L 394.679008 -171.352507 
L 394.361653 -171.352507 
L 394.044298 -171.352507 
L 393.726942 -171.352507 
L 393.409587 -171.352507 
L 393.092231 -171.352507 
L 392.774876 -171.352507 
L 392.457521 -171.352507 
L 392.140165 -171.352507 
L 391.82281 -171.352507 
L 391.505455 -171.352507 
L 391.188099 -171.352507 
L 390.870744 -171.352507 
L 390.553388 -171.352507 
L 390.236033 -171.352507 
L 389.918678 -171.352507 
L 389.601322 -171.352507 
L 389.283967 -171.352507 
L 388.966612 -171.352507 
L 388.649256 -171.352507 
L 388.331901 -171.352507 
L 388.014545 -171.352507 
L 387.69719 -171.352507 
L 387.379835 -171.352507 
L 387.062479 -171.352507 
L 386.745124 -171.352507 
L 386.427769 -171.352507 
L 386.110413 -171.352507 
L 385.793058 -171.352507 
L 385.475702 -171.352507 
L 385.158347 -171.352507 
L 384.840992 -171.352507 
L 384.523636 -171.352507 
L 384.206281 -171.352507 
L 383.888926 -171.352507 
L 383.57157 -171.352507 
L 383.254215 -171.352507 
L 382.93686 -171.352507 
L 382.619504 -171.352507 
L 382.302149 -171.352507 
L 381.984793 -171.352507 
L 381.667438 -171.352507 
L 381.350083 -171.352507 
L 381.032727 -171.352507 
L 380.715372 -171.352507 
L 380.398017 -171.352507 
L 380.080661 -171.352507 
L 379.763306 -171.352507 
L 379.44595 -171.352507 
L 379.128595 -171.352507 
L 378.81124 -171.352507 
L 378.493884 -171.352507 
L 378.176529 -171.352507 
L 377.859174 -171.352507 
L 377.541818 -171.352507 
L 377.224463 -171.352507 
L 376.907107 -171.352507 
L 376.589752 -171.352507 
L 376.272397 -171.352507 
L 375.955041 -171.352507 
L 375.637686 -171.352507 
L 375.320331 -171.352507 
L 375.002975 -171.352507 
L 374.68562 -171.352507 
L 374.368264 -171.352507 
L 374.050909 -171.352507 
L 373.733554 -171.352507 
L 373.416198 -171.352507 
L 373.098843 -171.352507 
L 372.781488 -171.352507 
L 372.464132 -171.352507 
L 372.146777 -171.352507 
L 371.829421 -171.352507 
L 371.512066 -171.352507 
L 371.194711 -171.352507 
L 370.877355 -171.352507 
L 370.56 -171.352507 
L 370.242645 -171.352507 
L 369.925289 -171.352507 
L 369.607934 -171.352507 
L 369.290579 -171.352507 
L 368.973223 -171.352507 
L 368.655868 -171.352507 
L 368.338512 -171.352507 
L 368.021157 -171.352507 
L 367.703802 -171.352507 
L 367.386446 -171.352507 
L 367.069091 -171.352507 
L 366.751736 -171.352507 
L 366.43438 -171.352507 
L 366.117025 -171.352507 
L 365.799669 -171.352507 
L 365.482314 -171.352507 
L 365.164959 -171.352507 
L 364.847603 -171.352507 
L 364.530248 -171.352507 
L 364.212893 -171.352507 
L 363.895537 -171.352507 
L 363.578182 -171.352507 
L 363.260826 -171.352507 
L 362.943471 -171.352507 
L 362.626116 -171.352507 
L 362.30876 -171.352507 
L 361.991405 -171.352507 
L 361.67405 -171.352507 
L 361.356694 -171.352507 
L 361.039339 -171.352507 
L 360.721983 -171.352507 
L 360.404628 -171.352507 
L 360.087273 -171.352507 
L 359.769917 -171.352507 
L 359.452562 -171.352507 
L 359.135207 -171.352507 
L 358.817851 -171.352507 
L 358.500496 -171.352507 
L 358.18314 -171.352507 
L 357.865785 -171.352507 
L 357.54843 -171.352507 
L 357.231074 -171.352507 
L 356.913719 -171.352507 
L 356.596364 -171.352507 
L 356.279008 -171.352507 
L 355.961653 -171.352507 
L 355.644298 -171.352507 
L 355.326942 -171.352507 
L 355.009587 -171.352507 
L 354.692231 -171.352507 
L 354.374876 -171.352507 
L 354.057521 -171.352507 
L 353.740165 -171.352507 
L 353.42281 -171.352507 
L 353.105455 -171.352507 
L 352.788099 -171.352507 
L 352.470744 -171.352507 
L 352.153388 -171.352507 
L 351.836033 -171.352507 
L 351.518678 -171.352507 
L 351.201322 -171.352507 
L 350.883967 -171.352507 
L 350.566612 -171.352507 
L 350.249256 -171.352507 
L 349.931901 -171.352507 
L 349.614545 -171.352507 
L 349.29719 -171.352507 
L 348.979835 -171.352507 
L 348.662479 -171.352507 
L 348.345124 -171.352507 
L 348.027769 -171.352507 
L 347.710413 -171.352507 
L 347.393058 -171.352507 
L 347.075702 -171.352507 
L 346.758347 -171.352507 
L 346.440992 -171.352507 
L 346.123636 -171.352507 
L 345.806281 -171.352507 
L 345.488926 -171.352507 
L 345.17157 -171.352507 
L 344.854215 -171.352507 
L 344.53686 -171.352507 
L 344.219504 -171.352507 
L 343.902149 -171.352507 
L 343.584793 -171.352507 
L 343.267438 -171.352507 
L 342.950083 -171.352507 
L 342.632727 -171.352507 
L 342.315372 -171.352507 
L 341.998017 -171.352507 
L 341.680661 -171.352507 
L 341.363306 -171.352507 
L 341.04595 -171.352507 
L 340.728595 -171.352507 
L 340.41124 -171.352507 
L 340.093884 -171.352507 
L 339.776529 -171.352507 
L 339.459174 -171.352507 
L 339.141818 -171.352507 
L 338.824463 -171.352507 
L 338.507107 -171.352507 
L 338.189752 -171.352507 
L 337.872397 -171.352507 
L 337.555041 -171.352507 
L 337.237686 -171.352507 
L 336.920331 -171.352507 
L 336.602975 -171.352507 
L 336.28562 -171.352507 
L 335.968264 -171.352507 
L 335.650909 -171.352507 
L 335.333554 -171.352507 
L 335.016198 -171.352507 
L 334.698843 -171.352507 
L 334.381488 -171.352507 
L 334.064132 -171.352507 
L 333.746777 -171.352507 
L 333.429421 -171.352507 
L 333.112066 -171.352507 
L 332.794711 -171.352507 
L 332.477355 -171.352507 
L 332.16 -171.352507 
L 331.842645 -171.352507 
L 331.525289 -171.352507 
L 331.207934 -171.352507 
L 330.890579 -171.352507 
L 330.573223 -171.352507 
L 330.255868 -171.352507 
L 329.938512 -171.352507 
L 329.621157 -171.352507 
L 329.303802 -171.352507 
L 328.986446 -171.352507 
L 328.669091 -171.352507 
L 328.351736 -171.352507 
L 328.03438 -171.352507 
L 327.717025 -171.352507 
L 327.399669 -171.352507 
L 327.082314 -171.352507 
L 326.764959 -171.352507 
L 326.447603 -171.352507 
L 326.130248 -171.352507 
L 325.812893 -171.352507 
L 325.495537 -171.352507 
L 325.178182 -171.352507 
L 324.860826 -171.352507 
L 324.543471 -171.352507 
L 324.226116 -171.352507 
L 323.90876 -171.352507 
L 323.591405 -171.352507 
L 323.27405 -171.352507 
L 322.956694 -171.352507 
L 322.639339 -171.352507 
L 322.321983 -171.352507 
L 322.004628 -171.352507 
L 321.687273 -171.352507 
L 321.369917 -171.352507 
L 321.052562 -171.352507 
L 320.735207 -171.352507 
L 320.417851 -171.352507 
L 320.100496 -171.352507 
L 319.78314 -171.352507 
L 319.465785 -171.352507 
L 319.14843 -171.352507 
L 318.831074 -171.352507 
L 318.513719 -171.352507 
L 318.196364 -171.352507 
L 317.879008 -171.352507 
L 317.561653 -171.352507 
L 317.244298 -171.352507 
L 316.926942 -171.352507 
L 316.609587 -171.352507 
L 316.292231 -171.352507 
L 315.974876 -171.352507 
L 315.657521 -171.352507 
L 315.340165 -171.352507 
L 315.02281 -171.352507 
L 314.705455 -171.352507 
L 314.388099 -171.352507 
L 314.070744 -171.352507 
L 313.753388 -171.352507 
L 313.436033 -171.352507 
L 313.118678 -171.352507 
L 312.801322 -171.352507 
L 312.483967 -171.352507 
L 312.166612 -171.352507 
L 311.849256 -171.352507 
L 311.531901 -171.352507 
L 311.214545 -171.352507 
L 310.89719 -171.352507 
L 310.579835 -171.352507 
L 310.262479 -171.352507 
L 309.945124 -171.352507 
L 309.627769 -171.352507 
L 309.310413 -171.352507 
L 308.993058 -171.352507 
L 308.675702 -171.352507 
L 308.358347 -171.352507 
L 308.040992 -171.352507 
L 307.723636 -171.352507 
L 307.406281 -171.352507 
L 307.088926 -171.352507 
L 306.77157 -171.352507 
L 306.454215 -171.352507 
L 306.13686 -171.352507 
L 305.819504 -171.352507 
L 305.502149 -171.352507 
L 305.184793 -171.352507 
L 304.867438 -171.352507 
L 304.550083 -171.352507 
L 304.232727 -171.352507 
L 303.915372 -171.352507 
L 303.598017 -171.352507 
L 303.280661 -171.352507 
L 302.963306 -171.352507 
L 302.64595 -171.352507 
L 302.328595 -171.352507 
L 302.01124 -171.352507 
L 301.693884 -171.352507 
L 301.376529 -171.352507 
L 301.059174 -171.352507 
L 300.741818 -171.352507 
L 300.424463 -171.352507 
L 300.107107 -171.352507 
L 299.789752 -171.352507 
L 299.472397 -171.352507 
L 299.155041 -171.352507 
L 298.837686 -171.352507 
L 298.520331 -171.352507 
L 298.202975 -171.352507 
L 297.88562 -171.352507 
L 297.568264 -171.352507 
L 297.250909 -171.352507 
L 296.933554 -171.352507 
L 296.616198 -171.352507 
L 296.298843 -171.352507 
L 295.981488 -171.352507 
L 295.664132 -171.352507 
L 295.346777 -171.352507 
L 295.029421 -171.352507 
L 294.712066 -171.352507 
L 294.394711 -171.352507 
L 294.077355 -171.352507 
L 293.76 -171.352507 
L 293.442645 -171.352507 
L 293.125289 -171.352507 
L 292.807934 -171.352507 
L 292.490579 -171.352507 
L 292.173223 -171.352507 
L 291.855868 -171.352507 
L 291.538512 -171.352507 
L 291.221157 -171.352507 
L 290.903802 -171.352507 
L 290.586446 -171.352507 
L 290.269091 -171.352507 
L 289.951736 -171.352507 
L 289.63438 -171.352507 
L 289.317025 -171.352507 
L 288.999669 -171.352507 
L 288.682314 -171.352507 
L 288.364959 -171.352507 
L 288.047603 -171.352507 
L 287.730248 -171.352507 
L 287.412893 -171.352507 
L 287.095537 -171.352507 
L 286.778182 -171.352507 
L 286.460826 -171.352507 
L 286.143471 -171.352507 
L 285.826116 -171.352507 
L 285.50876 -171.352507 
L 285.191405 -171.352507 
L 284.87405 -171.352507 
L 284.556694 -171.352507 
L 284.239339 -171.352507 
L 283.921983 -171.352507 
L 283.604628 -171.352507 
L 283.287273 -171.352507 
L 282.969917 -171.352507 
L 282.652562 -171.352507 
L 282.335207 -171.352507 
L 282.017851 -171.352507 
L 281.700496 -171.352507 
L 281.38314 -171.352507 
L 281.065785 -171.352507 
L 280.74843 -171.352507 
L 280.431074 -171.352507 
L 280.113719 -171.352507 
L 279.796364 -171.352507 
L 279.479008 -171.352507 
L 279.161653 -171.352507 
L 278.844298 -171.352507 
L 278.526942 -171.352507 
L 278.209587 -171.352507 
L 277.892231 -171.352507 
L 277.574876 -171.352507 
L 277.257521 -171.352507 
L 276.940165 -171.352507 
L 276.62281 -171.352507 
L 276.305455 -171.352507 
L 275.988099 -171.352507 
L 275.670744 -171.352507 
L 275.353388 -171.352507 
L 275.036033 -171.352507 
L 274.718678 -171.352507 
L 274.401322 -171.352507 
L 274.083967 -171.352507 
L 273.766612 -171.352507 
L 273.449256 -171.352507 
L 273.131901 -171.352507 
L 272.814545 -171.352507 
L 272.49719 -171.352507 
L 272.179835 -171.352507 
L 271.862479 -171.352507 
L 271.545124 -171.352507 
L 271.227769 -171.352507 
L 270.910413 -171.352507 
L 270.593058 -171.352507 
L 270.275702 -171.352507 
L 269.958347 -171.352507 
L 269.640992 -171.352507 
L 269.323636 -171.352507 
L 269.006281 -171.352507 
L 268.688926 -171.352507 
L 268.37157 -171.352507 
L 268.054215 -171.352507 
L 267.73686 -171.352507 
L 267.419504 -171.352507 
L 267.102149 -171.352507 
L 266.784793 -171.352507 
L 266.467438 -171.352507 
L 266.150083 -171.352507 
L 265.832727 -171.352507 
L 265.515372 -171.352507 
L 265.198017 -171.352507 
L 264.880661 -171.352507 
L 264.563306 -171.352507 
L 264.24595 -171.352507 
L 263.928595 -171.352507 
L 263.61124 -171.352507 
L 263.293884 -171.352507 
L 262.976529 -171.352507 
L 262.659174 -171.352507 
L 262.341818 -171.352507 
L 262.024463 -171.352507 
L 261.707107 -171.352507 
L 261.389752 -171.352507 
L 261.072397 -171.352507 
L 260.755041 -171.352507 
L 260.437686 -171.352507 
L 260.120331 -171.352507 
L 259.802975 -171.352507 
L 259.48562 -171.352507 
L 259.168264 -171.352507 
L 258.850909 -171.352507 
L 258.533554 -171.352507 
L 258.216198 -171.352507 
L 257.898843 -171.352507 
L 257.581488 -171.352507 
L 257.264132 -171.352507 
L 256.946777 -171.352507 
L 256.629421 -171.352507 
L 256.312066 -171.352507 
L 255.994711 -171.352507 
L 255.677355 -171.352507 
L 255.36 -171.352507 
L 255.042645 -171.352507 
L 254.725289 -171.352507 
L 254.407934 -171.352507 
L 254.090579 -171.352507 
L 253.773223 -171.352507 
L 253.455868 -171.352507 
L 253.138512 -171.352507 
L 252.821157 -171.352507 
L 252.503802 -171.352507 
L 252.186446 -171.352507 
L 251.869091 -171.352507 
L 251.551736 -171.352507 
L 251.23438 -171.352507 
L 250.917025 -171.352507 
L 250.599669 -171.352507 
L 250.282314 -171.352507 
L 249.964959 -171.352507 
L 249.647603 -171.352507 
L 249.330248 -171.352507 
L 249.012893 -171.352507 
L 248.695537 -171.352507 
L 248.378182 -171.352507 
L 248.060826 -171.352507 
L 247.743471 -171.352507 
L 247.426116 -171.352507 
L 247.10876 -171.352507 
L 246.791405 -171.352507 
L 246.47405 -171.352507 
L 246.156694 -171.352507 
L 245.839339 -171.352507 
L 245.521983 -171.352507 
L 245.204628 -171.352507 
L 244.887273 -171.352507 
L 244.569917 -171.352507 
L 244.252562 -171.352507 
L 243.935207 -171.352507 
L 243.617851 -171.352507 
L 243.300496 -171.352507 
L 242.98314 -171.352507 
L 242.665785 -171.352507 
L 242.34843 -171.352507 
L 242.031074 -171.352507 
L 241.713719 -171.352507 
L 241.396364 -171.352507 
L 241.079008 -171.352507 
L 240.761653 -171.352507 
L 240.444298 -171.352507 
L 240.126942 -171.352507 
L 239.809587 -171.352507 
L 239.492231 -171.352507 
L 239.174876 -171.352507 
L 238.857521 -171.352507 
L 238.540165 -171.352507 
L 238.22281 -171.352507 
L 237.905455 -171.352507 
L 237.588099 -171.352507 
L 237.270744 -171.352507 
L 236.953388 -171.352507 
L 236.636033 -171.352507 
L 236.318678 -171.352507 
L 236.001322 -171.352507 
L 235.683967 -171.352507 
L 235.366612 -171.352507 
L 235.049256 -171.352507 
L 234.731901 -171.352507 
L 234.414545 -171.352507 
L 234.09719 -171.352507 
L 233.779835 -171.352507 
L 233.462479 -171.352507 
L 233.145124 -171.352507 
L 232.827769 -171.352507 
L 232.510413 -171.352507 
L 232.193058 -171.352507 
L 231.875702 -171.352507 
L 231.558347 -171.352507 
L 231.240992 -171.352507 
L 230.923636 -171.352507 
L 230.606281 -171.352507 
L 230.288926 -171.352507 
L 229.97157 -171.352507 
L 229.654215 -171.352507 
L 229.33686 -171.352507 
L 229.019504 -171.352507 
L 228.702149 -171.352507 
L 228.384793 -171.352507 
L 228.067438 -171.352507 
L 227.750083 -171.352507 
L 227.432727 -171.352507 
L 227.115372 -171.352507 
L 226.798017 -171.352507 
L 226.480661 -171.352507 
L 226.163306 -171.352507 
L 225.84595 -171.352507 
L 225.528595 -171.352507 
L 225.21124 -171.352507 
L 224.893884 -171.352507 
L 224.576529 -171.352507 
L 224.259174 -171.352507 
L 223.941818 -171.352507 
L 223.624463 -171.352507 
L 223.307107 -171.352507 
L 222.989752 -171.352507 
L 222.672397 -171.352507 
L 222.355041 -171.352507 
L 222.037686 -171.352507 
L 221.720331 -171.352507 
L 221.402975 -171.352507 
L 221.08562 -171.352507 
L 220.768264 -171.352507 
L 220.450909 -171.352507 
L 220.133554 -171.352507 
L 219.816198 -171.352507 
L 219.498843 -171.352507 
L 219.181488 -171.352507 
L 218.864132 -171.352507 
L 218.546777 -171.352507 
L 218.229421 -171.352507 
L 217.912066 -171.352507 
L 217.594711 -171.352507 
L 217.277355 -171.352507 
L 216.96 -171.352507 
L 216.642645 -171.352507 
L 216.325289 -171.352507 
L 216.007934 -171.352507 
L 215.690579 -171.352507 
L 215.373223 -171.352507 
L 215.055868 -171.352507 
L 214.738512 -171.352507 
L 214.421157 -171.352507 
L 214.103802 -171.352507 
L 213.786446 -171.352507 
L 213.469091 -171.352507 
L 213.151736 -171.352507 
L 212.83438 -171.352507 
L 212.517025 -171.352507 
L 212.199669 -171.352507 
L 211.882314 -171.352507 
L 211.564959 -171.352507 
L 211.247603 -171.352507 
L 210.930248 -171.352507 
L 210.612893 -171.352507 
L 210.295537 -171.352507 
L 209.978182 -171.352507 
L 209.660826 -171.352507 
L 209.343471 -171.352507 
L 209.026116 -171.352507 
L 208.70876 -171.352507 
L 208.391405 -171.352507 
L 208.07405 -171.352507 
L 207.756694 -171.352507 
L 207.439339 -171.352507 
L 207.121983 -171.352507 
L 206.804628 -171.352507 
L 206.487273 -171.352507 
L 206.169917 -171.352507 
L 205.852562 -171.352507 
L 205.535207 -171.352507 
L 205.217851 -171.352507 
L 204.900496 -171.352507 
L 204.58314 -171.352507 
L 204.265785 -171.352507 
L 203.94843 -171.352507 
L 203.631074 -171.352507 
L 203.313719 -171.352507 
L 202.996364 -171.352507 
L 202.679008 -171.352507 
L 202.361653 -171.352507 
L 202.044298 -171.352507 
L 201.726942 -171.352507 
L 201.409587 -171.352507 
L 201.092231 -171.352507 
L 200.774876 -171.352507 
L 200.457521 -171.352507 
L 200.140165 -171.352507 
L 199.82281 -171.352507 
L 199.505455 -171.352507 
L 199.188099 -171.352507 
L 198.870744 -171.352507 
L 198.553388 -171.352507 
L 198.236033 -171.352507 
L 197.918678 -171.352507 
L 197.601322 -171.352507 
L 197.283967 -171.352507 
L 196.966612 -171.352507 
L 196.649256 -171.352507 
L 196.331901 -171.352507 
L 196.014545 -171.352507 
L 195.69719 -171.352507 
L 195.379835 -171.352507 
L 195.062479 -171.352507 
L 194.745124 -171.352507 
L 194.427769 -171.352507 
L 194.110413 -171.352507 
L 193.793058 -171.352507 
L 193.475702 -171.352507 
L 193.158347 -171.352507 
L 192.840992 -171.352507 
L 192.523636 -171.352507 
L 192.206281 -171.352507 
L 191.888926 -171.352507 
L 191.57157 -171.352507 
L 191.254215 -171.352507 
L 190.93686 -171.352507 
L 190.619504 -171.352507 
L 190.302149 -171.352507 
L 189.984793 -171.352507 
L 189.667438 -171.352507 
L 189.350083 -171.352507 
L 189.032727 -171.352507 
L 188.715372 -171.352507 
L 188.398017 -171.352507 
L 188.080661 -171.352507 
L 187.763306 -171.352507 
L 187.44595 -171.352507 
L 187.128595 -171.352507 
L 186.81124 -171.352507 
L 186.493884 -171.352507 
L 186.176529 -171.352507 
L 185.859174 -171.352507 
L 185.541818 -171.352507 
L 185.224463 -171.352507 
L 184.907107 -171.352507 
L 184.589752 -171.352507 
L 184.272397 -171.352507 
L 183.955041 -171.352507 
L 183.637686 -171.352507 
L 183.320331 -171.352507 
L 183.002975 -171.352507 
L 182.68562 -171.352507 
L 182.368264 -171.352507 
L 182.050909 -171.352507 
L 181.733554 -171.352507 
L 181.416198 -171.352507 
L 181.098843 -171.352507 
L 180.781488 -171.352507 
L 180.464132 -171.352507 
L 180.146777 -171.352507 
L 179.829421 -171.352507 
L 179.512066 -171.352507 
L 179.194711 -171.352507 
L 178.877355 -171.352507 
L 178.56 -171.352507 
L 178.242645 -171.352507 
L 177.925289 -171.352507 
L 177.607934 -171.352507 
L 177.290579 -171.352507 
L 176.973223 -171.352507 
L 176.655868 -171.352507 
L 176.338512 -171.352507 
L 176.021157 -171.352507 
L 175.703802 -171.352507 
L 175.386446 -171.352507 
L 175.069091 -171.352507 
L 174.751736 -171.352507 
L 174.43438 -171.352507 
L 174.117025 -171.352507 
L 173.799669 -171.352507 
L 173.482314 -171.352507 
L 173.164959 -171.352507 
L 172.847603 -171.352507 
L 172.530248 -171.352507 
L 172.212893 -171.352507 
L 171.895537 -171.352507 
L 171.578182 -171.352507 
L 171.260826 -171.352507 
L 170.943471 -171.352507 
L 170.626116 -171.352507 
L 170.30876 -171.352507 
L 169.991405 -171.352507 
L 169.67405 -171.352507 
L 169.356694 -171.352507 
L 169.039339 -171.352507 
L 168.721983 -171.352507 
L 168.404628 -171.352507 
L 168.087273 -171.352507 
L 167.769917 -171.352507 
L 167.452562 -171.352507 
L 167.135207 -171.352507 
L 166.817851 -171.352507 
L 166.500496 -171.352507 
L 166.18314 -171.352507 
L 165.865785 -171.352507 
L 165.54843 -171.352507 
L 165.231074 -171.352507 
L 164.913719 -171.352507 
L 164.596364 -171.352507 
L 164.279008 -171.352507 
L 163.961653 -171.352507 
L 163.644298 -171.352507 
L 163.326942 -171.352507 
L 163.009587 -171.352507 
L 162.692231 -171.352507 
L 162.374876 -171.352507 
L 162.057521 -171.352507 
L 161.740165 -171.352507 
L 161.42281 -171.352507 
L 161.105455 -171.352507 
L 160.788099 -171.352507 
L 160.470744 -171.352507 
L 160.153388 -171.352507 
L 159.836033 -171.352507 
L 159.518678 -171.352507 
L 159.201322 -171.352507 
L 158.883967 -171.352507 
L 158.566612 -171.352507 
L 158.249256 -171.352507 
L 157.931901 -171.352507 
L 157.614545 -171.352507 
L 157.29719 -171.352507 
L 156.979835 -171.352507 
L 156.662479 -171.352507 
L 156.345124 -171.352507 
L 156.027769 -171.352507 
L 155.710413 -171.352507 
L 155.393058 -171.352507 
L 155.075702 -171.352507 
L 154.758347 -171.352507 
L 154.440992 -171.352507 
L 154.123636 -171.352507 
L 153.806281 -171.352507 
L 153.488926 -171.352507 
L 153.17157 -171.352507 
L 152.854215 -171.352507 
L 152.53686 -171.352507 
L 152.219504 -171.352507 
L 151.902149 -171.352507 
L 151.584793 -171.352507 
L 151.267438 -171.352507 
L 150.950083 -171.352507 
L 150.632727 -171.352507 
L 150.315372 -171.352507 
L 149.998017 -171.352507 
L 149.680661 -171.352507 
L 149.363306 -171.352507 
L 149.04595 -171.352507 
L 148.728595 -171.352507 
L 148.41124 -171.352507 
L 148.093884 -171.352507 
L 147.776529 -171.352507 
L 147.459174 -171.352507 
L 147.141818 -171.352507 
L 146.824463 -171.352507 
L 146.507107 -171.352507 
L 146.189752 -171.352507 
L 145.872397 -171.352507 
L 145.555041 -171.352507 
L 145.237686 -171.352507 
L 144.920331 -171.352507 
L 144.602975 -171.352507 
L 144.28562 -171.352507 
L 143.968264 -171.352507 
L 143.650909 -171.352507 
L 143.333554 -171.352507 
L 143.016198 -171.352507 
L 142.698843 -171.352507 
L 142.381488 -171.352507 
L 142.064132 -171.352507 
L 141.746777 -171.352507 
L 141.429421 -171.352507 
L 141.112066 -171.352507 
L 140.794711 -171.352507 
L 140.477355 -171.352507 
L 140.16 -171.352507 
L 139.842645 -171.352507 
L 139.525289 -171.352507 
L 139.207934 -171.352507 
L 138.890579 -171.352507 
L 138.573223 -171.352507 
L 138.255868 -171.352507 
L 137.938512 -171.352507 
L 137.621157 -171.352507 
L 137.303802 -171.352507 
L 136.986446 -171.352507 
L 136.669091 -171.352507 
L 136.351736 -171.352507 
L 136.03438 -171.352507 
L 135.717025 -171.352507 
L 135.399669 -171.352507 
L 135.082314 -171.352507 
L 134.764959 -171.352507 
L 134.447603 -171.352507 
L 134.130248 -171.352507 
L 133.812893 -171.352507 
L 133.495537 -171.352507 
L 133.178182 -171.352507 
L 132.860826 -171.352507 
L 132.543471 -171.352507 
L 132.226116 -171.352507 
L 131.90876 -171.352507 
L 131.591405 -171.352507 
L 131.27405 -171.352507 
L 130.956694 -171.352507 
L 130.639339 -171.352507 
L 130.321983 -171.352507 
L 130.004628 -171.352507 
L 129.687273 -171.352507 
L 129.369917 -171.352507 
L 129.052562 -171.352507 
L 128.735207 -171.352507 
L 128.417851 -171.352507 
L 128.100496 -171.352507 
L 127.78314 -171.352507 
L 127.465785 -171.352507 
L 127.14843 -171.352507 
L 126.831074 -171.352507 
L 126.513719 -171.352507 
L 126.196364 -171.352507 
L 125.879008 -171.352507 
L 125.561653 -171.352507 
L 125.244298 -171.352507 
L 124.926942 -171.352507 
L 124.609587 -171.352507 
L 124.292231 -171.352507 
L 123.974876 -171.352507 
L 123.657521 -171.352507 
L 123.340165 -171.352507 
L 123.02281 -171.352507 
L 122.705455 -171.352507 
L 122.388099 -171.352507 
L 122.070744 -171.352507 
L 121.753388 -171.352507 
L 121.436033 -171.352507 
L 121.118678 -171.352507 
L 120.801322 -171.352507 
L 120.483967 -171.352507 
L 120.166612 -171.352507 
L 119.849256 -171.352507 
L 119.531901 -171.352507 
L 119.214545 -171.352507 
L 118.89719 -171.352507 
L 118.579835 -171.352507 
L 118.262479 -171.352507 
L 117.945124 -171.352507 
L 117.627769 -171.352507 
L 117.310413 -171.352507 
L 116.993058 -171.352507 
L 116.675702 -171.352507 
L 116.358347 -171.352507 
L 116.040992 -171.352507 
L 115.723636 -171.352507 
L 115.406281 -171.352507 
L 115.088926 -171.352507 
L 114.77157 -171.352507 
L 114.454215 -171.352507 
L 114.13686 -171.352507 
L 113.819504 -171.352507 
L 113.502149 -171.352507 
L 113.184793 -171.352507 
L 112.867438 -171.352507 
L 112.550083 -171.352507 
L 112.232727 -171.352507 
L 111.915372 -171.352507 
L 111.598017 -171.352507 
L 111.280661 -171.352507 
L 110.963306 -171.352507 
L 110.64595 -171.352507 
L 110.328595 -171.352507 
L 110.01124 -171.352507 
L 109.693884 -171.352507 
L 109.376529 -171.352507 
L 109.059174 -171.352507 
L 108.741818 -171.352507 
L 108.424463 -171.352507 
L 108.107107 -171.352507 
L 107.789752 -171.352507 
L 107.472397 -171.352507 
L 107.155041 -171.352507 
L 106.837686 -171.352507 
L 106.520331 -171.352507 
L 106.202975 -171.352507 
L 105.88562 -171.352507 
L 105.568264 -171.352507 
L 105.250909 -171.352507 
L 104.933554 -171.352507 
L 104.616198 -171.352507 
L 104.298843 -171.352507 
L 103.981488 -171.352507 
L 103.664132 -171.352507 
L 103.346777 -171.352507 
L 103.029421 -171.352507 
L 102.712066 -171.352507 
L 102.394711 -171.352507 
L 102.077355 -171.352507 
L 101.76 -171.352507 
L 101.442645 -171.352507 
L 101.125289 -171.352507 
L 100.807934 -171.352507 
L 100.490579 -171.352507 
L 100.173223 -171.352507 
L 99.855868 -171.352507 
L 99.538512 -171.352507 
L 99.221157 -171.352507 
L 98.903802 -171.352507 
L 98.586446 -171.352507 
L 98.269091 -171.352507 
L 97.951736 -171.352507 
L 97.63438 -171.352507 
L 97.317025 -171.352507 
L 96.999669 -171.352507 
L 96.682314 -171.352507 
L 96.364959 -171.352507 
L 96.047603 -171.352507 
L 95.730248 -171.352507 
L 95.412893 -171.352507 
L 95.095537 -171.352507 
L 94.778182 -171.352507 
L 94.460826 -171.352507 
L 94.143471 -171.352507 
L 93.826116 -171.352507 
L 93.50876 -171.352507 
L 93.191405 -171.352507 
L 92.87405 -171.352507 
L 92.556694 -171.352507 
L 92.239339 -171.352507 
L 91.921983 -171.352507 
L 91.604628 -171.352507 
L 91.287273 -171.352507 
L 90.969917 -171.352507 
L 90.652562 -171.352507 
L 90.335207 -171.352507 
L 90.017851 -171.352507 
L 89.700496 -171.352507 
L 89.38314 -171.352507 
L 89.065785 -171.352507 
L 88.74843 -171.352507 
L 88.431074 -171.352507 
L 88.113719 -171.352507 
L 87.796364 -171.352507 
L 87.479008 -171.352507 
L 87.161653 -171.352507 
L 86.844298 -171.352507 
L 86.526942 -171.352507 
L 86.209587 -171.352507 
L 85.892231 -171.352507 
L 85.574876 -171.352507 
L 85.257521 -171.352507 
L 84.940165 -171.352507 
L 84.62281 -171.352507 
L 84.305455 -171.352507 
L 83.988099 -171.352507 
L 83.670744 -171.352507 
L 83.353388 -171.352507 
L 83.036033 -171.352507 
L 82.718678 -171.352507 
L 82.401322 -171.352507 
L 82.083967 -171.352507 
L 81.766612 -171.352507 
L 81.449256 -171.352507 
L 81.131901 -171.352507 
L 80.814545 -171.352507 
L 80.49719 -171.352507 
L 80.179835 -171.352507 
L 79.862479 -171.352507 
L 79.545124 -171.352507 
L 79.227769 -171.352507 
L 78.910413 -171.352507 
L 78.593058 -171.352507 
L 78.275702 -171.352507 
L 77.958347 -171.352507 
L 77.640992 -171.352507 
L 77.323636 -171.352507 
L 77.006281 -171.352507 
L 76.688926 -171.352507 
L 76.37157 -171.352507 
L 76.054215 -171.352507 
L 75.73686 -171.352507 
L 75.419504 -171.352507 
L 75.102149 -171.352507 
L 74.784793 -171.352507 
L 74.467438 -171.352507 
L 74.150083 -171.352507 
L 73.832727 -171.352507 
z
" style="stroke: #87ceeb; stroke-opacity: 0.75"/>
    </defs>
    <g clip-path="url(#pa9451edbce)">
     <use xlink:href="#mec26191f2a" x="0" y="345.6" style="fill: #87ceeb; fill-opacity: 0.75; stroke: #87ceeb; stroke-opacity: 0.75"/>
    </g>
   </g>
   <g id="matplotlib.axis_1">
    <g id="xtick_1">
     <g id="line2d_1">
      <defs>
       <path id="ma42394eab0" d="M 0 0 
L 0 3.5 
" style="stroke: #000000; stroke-width: 0.8"/>
      </defs>
      <g>
       <use xlink:href="#ma42394eab0" x="73.832727" y="307.584" style="stroke: #000000; stroke-width: 0.8"/>
      </g>
     </g>
     <g id="text_1">
      <!-- 0 -->
      <g transform="translate(70.531868 322.161969) scale(0.11 -0.11)">
       <defs>
        <path id="AndaleMono-30" d="M 1913 4494 
Q 2613 4494 2989 3892 
Q 3366 3291 3366 2203 
Q 3366 1150 3000 533 
Q 2634 -84 1913 -84 
Q 1216 -84 837 516 
Q 459 1116 459 2203 
Q 459 3259 826 3876 
Q 1194 4494 1913 4494 
z
M 1913 366 
Q 2375 366 2598 805 
Q 2822 1244 2822 2203 
Q 2822 3166 2598 3602 
Q 2375 4038 1913 4038 
Q 1456 4038 1231 3591 
Q 1006 3144 1006 2203 
Q 1006 1250 1229 808 
Q 1453 366 1913 366 
z
M 1900 2672 
Q 2097 2672 2233 2536 
Q 2369 2400 2369 2203 
Q 2369 2000 2231 1854 
Q 2094 1709 1900 1709 
Q 1709 1709 1573 1854 
Q 1438 2000 1438 2203 
Q 1438 2403 1570 2537 
Q 1703 2672 1900 2672 
z
" transform="scale(0.015625)"/>
       </defs>
       <use xlink:href="#AndaleMono-30"/>
      </g>
     </g>
    </g>
    <g id="xtick_2">
     <g id="line2d_2">
      <g>
       <use xlink:href="#ma42394eab0" x="137.303802" y="307.584" style="stroke: #000000; stroke-width: 0.8"/>
      </g>
     </g>
     <g id="text_2">
      <!-- 200 -->
      <g transform="translate(127.401224 322.161969) scale(0.11 -0.11)">
       <defs>
        <path id="AndaleMono-32" d="M 3066 0 
L 641 0 
L 641 372 
Q 1563 1400 1838 1750 
Q 2113 2100 2284 2484 
Q 2456 2869 2456 3250 
Q 2456 3619 2232 3831 
Q 2009 4044 1606 4044 
Q 1297 4044 775 3853 
L 703 4294 
Q 1175 4494 1691 4494 
Q 2281 4494 2642 4161 
Q 3003 3828 3003 3272 
Q 3003 2875 2817 2484 
Q 2631 2094 2340 1734 
Q 2050 1375 1209 447 
L 3066 447 
L 3066 0 
z
" transform="scale(0.015625)"/>
       </defs>
       <use xlink:href="#AndaleMono-32"/>
       <use xlink:href="#AndaleMono-30" x="60.009766"/>
       <use xlink:href="#AndaleMono-30" x="120.019531"/>
      </g>
     </g>
    </g>
    <g id="xtick_3">
     <g id="line2d_3">
      <g>
       <use xlink:href="#ma42394eab0" x="200.774876" y="307.584" style="stroke: #000000; stroke-width: 0.8"/>
      </g>
     </g>
     <g id="text_3">
      <!-- 400 -->
      <g transform="translate(190.872298 322.161969) scale(0.11 -0.11)">
       <defs>
        <path id="AndaleMono-34" d="M 3353 1019 
L 2809 1019 
L 2809 0 
L 2297 0 
L 2297 1019 
L 378 1019 
L 378 1409 
L 2119 4409 
L 2809 4409 
L 2809 1466 
L 3353 1466 
L 3353 1019 
z
M 2297 1466 
L 2297 3903 
L 897 1466 
L 2297 1466 
z
" transform="scale(0.015625)"/>
       </defs>
       <use xlink:href="#AndaleMono-34"/>
       <use xlink:href="#AndaleMono-30" x="60.009766"/>
       <use xlink:href="#AndaleMono-30" x="120.019531"/>
      </g>
     </g>
    </g>
    <g id="xtick_4">
     <g id="line2d_4">
      <g>
       <use xlink:href="#ma42394eab0" x="264.24595" y="307.584" style="stroke: #000000; stroke-width: 0.8"/>
      </g>
     </g>
     <g id="text_4">
      <!-- 600 -->
      <g transform="translate(254.343372 322.161969) scale(0.11 -0.11)">
       <defs>
        <path id="AndaleMono-36" d="M 1131 2297 
Q 1544 2631 2028 2631 
Q 2588 2631 2961 2273 
Q 3334 1916 3334 1350 
Q 3334 728 3003 322 
Q 2672 -84 2119 -84 
Q 1413 -84 1000 564 
Q 588 1213 588 2150 
Q 588 3150 1017 3822 
Q 1447 4494 2194 4494 
Q 2709 4494 3084 4341 
L 3003 3884 
Q 2569 4044 2209 4044 
Q 1700 4044 1415 3556 
Q 1131 3069 1131 2297 
z
M 1147 1856 
Q 1147 1291 1412 828 
Q 1678 366 2081 366 
Q 2422 366 2606 616 
Q 2791 866 2791 1306 
Q 2791 1713 2587 1947 
Q 2384 2181 2016 2181 
Q 1538 2181 1147 1856 
z
" transform="scale(0.015625)"/>
       </defs>
       <use xlink:href="#AndaleMono-36"/>
       <use xlink:href="#AndaleMono-30" x="60.009766"/>
       <use xlink:href="#AndaleMono-30" x="120.019531"/>
      </g>
     </g>
    </g>
    <g id="xtick_5">
     <g id="line2d_5">
      <g>
       <use xlink:href="#ma42394eab0" x="327.717025" y="307.584" style="stroke: #000000; stroke-width: 0.8"/>
      </g>
     </g>
     <g id="text_5">
      <!-- 800 -->
      <g transform="translate(317.814447 322.161969) scale(0.11 -0.11)">
       <defs>
        <path id="AndaleMono-38" d="M 2363 2419 
Q 2813 2288 3061 1972 
Q 3309 1656 3309 1234 
Q 3309 628 2907 272 
Q 2506 -84 1919 -84 
Q 1303 -84 908 275 
Q 513 634 513 1228 
Q 513 1647 769 1965 
Q 1025 2284 1484 2419 
Q 1119 2513 898 2780 
Q 678 3047 678 3378 
Q 678 3803 1015 4148 
Q 1353 4494 1906 4494 
Q 2453 4494 2811 4150 
Q 3169 3806 3169 3378 
Q 3169 3056 2944 2786 
Q 2719 2516 2363 2419 
z
M 1906 2631 
Q 1922 2631 2056 2668 
Q 2191 2706 2286 2761 
Q 2381 2816 2462 2900 
Q 2544 2984 2594 3098 
Q 2644 3213 2644 3353 
Q 2644 3653 2428 3851 
Q 2213 4050 1906 4050 
Q 1609 4050 1396 3847 
Q 1184 3644 1184 3353 
Q 1184 3169 1261 3031 
Q 1338 2894 1452 2809 
Q 1566 2725 1714 2678 
Q 1863 2631 1906 2631 
z
M 1906 2194 
Q 1050 1944 1050 1253 
Q 1050 850 1309 608 
Q 1569 366 1919 366 
Q 2281 366 2529 605 
Q 2778 844 2778 1253 
Q 2778 1563 2606 1808 
Q 2434 2053 1906 2194 
z
" transform="scale(0.015625)"/>
       </defs>
       <use xlink:href="#AndaleMono-38"/>
       <use xlink:href="#AndaleMono-30" x="60.009766"/>
       <use xlink:href="#AndaleMono-30" x="120.019531"/>
      </g>
     </g>
    </g>
    <g id="xtick_6">
     <g id="line2d_6">
      <g>
       <use xlink:href="#ma42394eab0" x="391.188099" y="307.584" style="stroke: #000000; stroke-width: 0.8"/>
      </g>
     </g>
     <g id="text_6">
      <!-- 1000 -->
      <g transform="translate(377.984662 322.161969) scale(0.11 -0.11)">
       <defs>
        <path id="AndaleMono-31" d="M 3181 0 
L 863 0 
L 863 447 
L 1797 447 
L 1797 3872 
L 916 3431 
L 916 3944 
L 1869 4434 
L 2309 4434 
L 2309 447 
L 3181 447 
L 3181 0 
z
" transform="scale(0.015625)"/>
       </defs>
       <use xlink:href="#AndaleMono-31"/>
       <use xlink:href="#AndaleMono-30" x="60.009766"/>
       <use xlink:href="#AndaleMono-30" x="120.019531"/>
       <use xlink:href="#AndaleMono-30" x="180.029297"/>
      </g>
     </g>
    </g>
   </g>
   <g id="matplotlib.axis_2">
    <g id="ytick_1">
     <g id="line2d_7">
      <defs>
       <path id="mba267ac142" d="M 0 0 
L -3.5 0 
" style="stroke: #000000; stroke-width: 0.8"/>
      </defs>
      <g>
       <use xlink:href="#mba267ac142" x="57.6" y="295.488" style="stroke: #000000; stroke-width: 0.8"/>
      </g>
     </g>
     <g id="text_7">
      <!-- 1.00 -->
      <g transform="translate(17.591406 299.276984) scale(0.11 -0.11)">
       <defs>
        <path id="AndaleMono-2212" d="M 3397 2047 
L 441 2047 
L 441 2456 
L 3397 2456 
L 3397 2047 
z
" transform="scale(0.015625)"/>
        <path id="AndaleMono-2e" d="M 1900 716 
Q 2066 716 2178 603 
Q 2291 491 2291 325 
Q 2291 156 2177 36 
Q 2063 -84 1900 -84 
Q 1741 -84 1628 36 
Q 1516 156 1516 325 
Q 1516 494 1627 605 
Q 1738 716 1900 716 
z
" transform="scale(0.015625)"/>
       </defs>
       <use xlink:href="#AndaleMono-2212"/>
       <use xlink:href="#AndaleMono-31" x="60.009766"/>
       <use xlink:href="#AndaleMono-2e" x="120.019531"/>
       <use xlink:href="#AndaleMono-30" x="180.029297"/>
       <use xlink:href="#AndaleMono-30" x="240.039062"/>
      </g>
     </g>
    </g>
    <g id="ytick_2">
     <g id="line2d_8">
      <g>
       <use xlink:href="#mba267ac142" x="57.6" y="265.177873" style="stroke: #000000; stroke-width: 0.8"/>
      </g>
     </g>
     <g id="text_8">
      <!-- 0.75 -->
      <g transform="translate(17.591406 268.966858) scale(0.11 -0.11)">
       <defs>
        <path id="AndaleMono-37" d="M 3238 4044 
L 1491 0 
L 966 0 
L 2688 3963 
L 622 3963 
L 622 4409 
L 3238 4409 
L 3238 4044 
z
" transform="scale(0.015625)"/>
        <path id="AndaleMono-35" d="M 1356 2631 
Q 1569 2688 1772 2688 
Q 2397 2688 2759 2305 
Q 3122 1922 3122 1350 
Q 3122 750 2700 333 
Q 2278 -84 1672 -84 
Q 1094 -84 703 109 
L 806 544 
Q 1231 366 1684 366 
Q 2088 366 2336 625 
Q 2584 884 2584 1350 
Q 2584 1791 2350 2028 
Q 2116 2266 1747 2266 
Q 1478 2266 1216 2163 
L 909 2303 
L 909 4409 
L 2925 4409 
L 2925 3963 
L 1356 3963 
L 1356 2631 
z
" transform="scale(0.015625)"/>
       </defs>
       <use xlink:href="#AndaleMono-2212"/>
       <use xlink:href="#AndaleMono-30" x="60.009766"/>
       <use xlink:href="#AndaleMono-2e" x="120.019531"/>
       <use xlink:href="#AndaleMono-37" x="180.029297"/>
       <use xlink:href="#AndaleMono-35" x="240.039062"/>
      </g>
     </g>
    </g>
    <g id="ytick_3">
     <g id="line2d_9">
      <g>
       <use xlink:href="#mba267ac142" x="57.6" y="234.867746" style="stroke: #000000; stroke-width: 0.8"/>
      </g>
     </g>
     <g id="text_9">
      <!-- 0.50 -->
      <g transform="translate(17.591406 238.656731) scale(0.11 -0.11)">
       <use xlink:href="#AndaleMono-2212"/>
       <use xlink:href="#AndaleMono-30" x="60.009766"/>
       <use xlink:href="#AndaleMono-2e" x="120.019531"/>
       <use xlink:href="#AndaleMono-35" x="180.029297"/>
       <use xlink:href="#AndaleMono-30" x="240.039062"/>
      </g>
     </g>
    </g>
    <g id="ytick_4">
     <g id="line2d_10">
      <g>
       <use xlink:href="#mba267ac142" x="57.6" y="204.55762" style="stroke: #000000; stroke-width: 0.8"/>
      </g>
     </g>
     <g id="text_10">
      <!-- 0.25 -->
      <g transform="translate(17.591406 208.346604) scale(0.11 -0.11)">
       <use xlink:href="#AndaleMono-2212"/>
       <use xlink:href="#AndaleMono-30" x="60.009766"/>
       <use xlink:href="#AndaleMono-2e" x="120.019531"/>
       <use xlink:href="#AndaleMono-32" x="180.029297"/>
       <use xlink:href="#AndaleMono-35" x="240.039062"/>
      </g>
     </g>
    </g>
    <g id="ytick_5">
     <g id="line2d_11">
      <g>
       <use xlink:href="#mba267ac142" x="57.6" y="174.247493" style="stroke: #000000; stroke-width: 0.8"/>
      </g>
     </g>
     <g id="text_11">
      <!-- 0.00 -->
      <g transform="translate(24.193125 178.036477) scale(0.11 -0.11)">
       <use xlink:href="#AndaleMono-30"/>
       <use xlink:href="#AndaleMono-2e" x="60.009766"/>
       <use xlink:href="#AndaleMono-30" x="120.019531"/>
       <use xlink:href="#AndaleMono-30" x="180.029297"/>
      </g>
     </g>
    </g>
    <g id="ytick_6">
     <g id="line2d_12">
      <g>
       <use xlink:href="#mba267ac142" x="57.6" y="143.937366" style="stroke: #000000; stroke-width: 0.8"/>
      </g>
     </g>
     <g id="text_12">
      <!-- 0.25 -->
      <g transform="translate(24.193125 147.72635) scale(0.11 -0.11)">
       <use xlink:href="#AndaleMono-30"/>
       <use xlink:href="#AndaleMono-2e" x="60.009766"/>
       <use xlink:href="#AndaleMono-32" x="120.019531"/>
       <use xlink:href="#AndaleMono-35" x="180.029297"/>
      </g>
     </g>
    </g>
    <g id="ytick_7">
     <g id="line2d_13">
      <g>
       <use xlink:href="#mba267ac142" x="57.6" y="113.627239" style="stroke: #000000; stroke-width: 0.8"/>
      </g>
     </g>
     <g id="text_13">
      <!-- 0.50 -->
      <g transform="translate(24.193125 117.416224) scale(0.11 -0.11)">
       <use xlink:href="#AndaleMono-30"/>
       <use xlink:href="#AndaleMono-2e" x="60.009766"/>
       <use xlink:href="#AndaleMono-35" x="120.019531"/>
       <use xlink:href="#AndaleMono-30" x="180.029297"/>
      </g>
     </g>
    </g>
    <g id="ytick_8">
     <g id="line2d_14">
      <g>
       <use xlink:href="#mba267ac142" x="57.6" y="83.317113" style="stroke: #000000; stroke-width: 0.8"/>
      </g>
     </g>
     <g id="text_14">
      <!-- 0.75 -->
      <g transform="translate(24.193125 87.106097) scale(0.11 -0.11)">
       <use xlink:href="#AndaleMono-30"/>
       <use xlink:href="#AndaleMono-2e" x="60.009766"/>
       <use xlink:href="#AndaleMono-37" x="120.019531"/>
       <use xlink:href="#AndaleMono-35" x="180.029297"/>
      </g>
     </g>
    </g>
    <g id="ytick_9">
     <g id="line2d_15">
      <g>
       <use xlink:href="#mba267ac142" x="57.6" y="53.006986" style="stroke: #000000; stroke-width: 0.8"/>
      </g>
     </g>
     <g id="text_15">
      <!-- 1.00 -->
      <g transform="translate(24.193125 56.79597) scale(0.11 -0.11)">
       <use xlink:href="#AndaleMono-31"/>
       <use xlink:href="#AndaleMono-2e" x="60.009766"/>
       <use xlink:href="#AndaleMono-30" x="120.019531"/>
       <use xlink:href="#AndaleMono-30" x="180.029297"/>
      </g>
     </g>
    </g>
   </g>
   <g id="line2d_16">
    <path d="M 73.832727 174.247493 
L 74.150083 84.402766 
L 81.131901 61.73338 
L 83.036033 56.007741 
L 83.988099 53.568 
L 85.574876 71.320855 
L 87.161653 86.615798 
L 88.431074 96.672201 
L 89.700496 105.296349 
L 90.969917 112.70525 
L 92.239339 118.795991 
L 93.50876 123.861776 
L 94.143471 125.950587 
L 94.778182 127.359347 
L 97.951736 133.528629 
L 98.903802 135.426639 
L 100.490579 137.890469 
L 102.077355 139.830723 
L 103.029421 140.753522 
L 103.981488 141.36253 
L 105.250909 141.778033 
L 106.202975 141.878205 
L 107.472397 141.731029 
L 109.376529 141.735142 
L 113.184793 141.333426 
L 115.088926 140.746894 
L 116.675702 140.392285 
L 117.627769 139.904205 
L 118.89719 139.263165 
L 120.801322 138.482389 
L 121.753388 138.377217 
L 123.974876 138.489483 
L 124.926942 138.75263 
L 126.831074 139.552967 
L 128.100496 140.375591 
L 129.052562 141.291396 
L 130.639339 142.96802 
L 133.178182 144.635543 
L 136.03438 146.21006 
L 137.621157 147.203265 
L 138.890579 147.988252 
L 142.064132 149.735988 
L 145.237686 151.532099 
L 146.824463 152.044195 
L 147.459174 152.107862 
L 148.41124 151.971984 
L 149.04595 151.611298 
L 149.998017 150.643599 
L 150.950083 149.390698 
L 151.902149 147.876552 
L 156.662479 138.650608 
L 160.153388 131.078544 
L 161.42281 129.005502 
L 163.009587 126.753171 
L 163.961653 125.687973 
L 165.865785 124.008352 
L 168.087273 122.325981 
L 169.356694 121.463877 
L 170.30876 121.107523 
L 170.943471 120.998942 
L 171.578182 121.114502 
L 172.212893 121.512633 
L 173.164959 122.558367 
L 174.751736 124.688969 
L 177.607934 129.139851 
L 179.194711 132.356149 
L 183.002975 139.941607 
L 183.955041 141.319231 
L 184.907107 142.189706 
L 185.859174 142.650639 
L 188.080661 143.322242 
L 190.302149 143.250314 
L 191.254215 143.029439 
L 191.888926 142.66348 
L 192.840992 141.796183 
L 193.793058 140.552895 
L 195.062479 138.561335 
L 196.649256 135.815123 
L 199.188099 132.358304 
L 200.774876 130.789074 
L 203.94843 127.713655 
L 204.58314 127.418011 
L 205.535207 127.327468 
L 206.169917 127.325737 
L 207.121983 127.431749 
L 209.343471 126.783577 
L 209.978182 126.268748 
L 211.564959 124.558153 
L 212.83438 122.830697 
L 214.738512 119.251534 
L 216.325289 115.772935 
L 217.277355 113.067693 
L 219.498843 105.786318 
L 221.720331 98.473627 
L 222.355041 97.056144 
L 222.989752 96.225002 
L 223.624463 95.725796 
L 224.259174 95.433991 
L 224.893884 95.42267 
L 225.528595 95.709455 
L 225.84595 96.046679 
L 226.480661 97.286267 
L 227.115372 99.019794 
L 228.067438 102.570152 
L 229.019504 107.088204 
L 229.97157 113.054236 
L 231.240992 123.531912 
L 233.145124 141.771947 
L 237.588099 189.684101 
L 240.126942 216.089172 
L 241.713719 230.418224 
L 242.665785 237.644356 
L 243.617851 243.037276 
L 244.569917 247.2139 
L 245.521983 250.402423 
L 246.156694 251.905508 
L 246.791405 252.785531 
L 247.426116 253.072316 
L 248.060826 253.060994 
L 248.695537 252.76919 
L 249.330248 252.269984 
L 249.964959 251.438842 
L 250.599669 250.021358 
L 251.869091 246.058778 
L 254.725289 236.418282 
L 255.994711 232.722051 
L 257.264132 229.89679 
L 258.850909 226.831793 
L 259.802975 225.152254 
L 261.389752 223.153451 
L 262.976529 221.711409 
L 263.61124 221.413719 
L 265.198017 221.063237 
L 265.832727 221.112573 
L 266.467438 221.189173 
L 267.73686 221.076975 
L 268.37157 220.78133 
L 269.323636 220.028939 
L 271.545124 217.705912 
L 273.131901 216.136682 
L 276.305455 211.671682 
L 278.526942 207.942091 
L 279.479008 206.698803 
L 280.431074 205.831505 
L 281.065785 205.465547 
L 282.017851 205.244672 
L 282.969917 205.132331 
L 284.556694 205.222369 
L 286.460826 205.844346 
L 287.412893 206.30528 
L 288.364959 207.175755 
L 289.317025 208.553379 
L 290.586446 210.955983 
L 293.76 217.462329 
L 295.029421 219.923648 
L 296.298843 221.912356 
L 299.472397 226.32364 
L 300.107107 226.982353 
L 300.741818 227.380484 
L 301.376529 227.496044 
L 302.01124 227.387462 
L 302.963306 227.031108 
L 303.915372 226.40052 
L 307.088926 223.955452 
L 308.675702 222.484923 
L 309.627769 221.325172 
L 311.214545 219.005817 
L 312.483967 216.823937 
L 313.753388 214.191068 
L 316.609587 207.909246 
L 321.369917 199.104288 
L 322.321983 197.851386 
L 323.27405 196.883688 
L 323.90876 196.523002 
L 324.860826 196.387124 
L 325.812893 196.530847 
L 327.399669 197.092528 
L 328.986446 197.96698 
L 333.112066 200.343897 
L 334.381488 201.06857 
L 336.28562 202.284926 
L 340.728595 204.885963 
L 341.680661 205.526966 
L 342.950083 206.842087 
L 343.902149 207.842103 
L 344.854215 208.575783 
L 346.123636 209.243915 
L 348.027769 209.942085 
L 349.29719 210.090977 
L 350.883967 210.106241 
L 351.836033 209.932463 
L 353.105455 209.375997 
L 355.009587 208.403661 
L 355.961653 208.010369 
L 361.039339 206.879321 
L 363.578182 206.69872 
L 366.751736 206.646391 
L 368.021157 207.005106 
L 368.655868 207.316214 
L 369.607934 208.016465 
L 370.56 209.034809 
L 372.146777 211.011911 
L 372.781488 211.984639 
L 374.050909 214.276872 
L 375.637686 217.48919 
L 376.589752 219.247863 
L 378.176529 222.544398 
L 379.128595 225.663776 
L 380.398017 230.653651 
L 381.667438 236.737716 
L 382.93686 244.038887 
L 384.206281 252.596225 
L 385.475702 262.631402 
L 386.745124 274.632207 
L 388.331901 291.747933 
L 388.649256 295.488 
L 390.236033 291.103867 
L 394.044298 278.93023 
L 395.94843 272.63695 
L 397.217851 268.577501 
L 398.169917 265.430562 
L 398.487273 174.247493 
L 398.487273 174.247493 
" clip-path="url(#pa9451edbce)" style="fill: none; stroke: #87ceeb; stroke-opacity: 0.75; stroke-linecap: square"/>
   </g>
   <g id="patch_3">
    <path d="M 57.6 307.584 
L 57.6 41.472 
" style="fill: none; stroke: #000000; stroke-width: 0.8; stroke-linejoin: miter; stroke-linecap: square"/>
   </g>
   <g id="patch_4">
    <path d="M 414.72 307.584 
L 414.72 41.472 
" style="fill: none; stroke: #000000; stroke-width: 0.8; stroke-linejoin: miter; stroke-linecap: square"/>
   </g>
   <g id="patch_5">
    <path d="M 57.6 307.584 
L 414.72 307.584 
" style="fill: none; stroke: #000000; stroke-width: 0.8; stroke-linejoin: miter; stroke-linecap: square"/>
   </g>
   <g id="patch_6">
    <path d="M 57.6 41.472 
L 414.72 41.472 
" style="fill: none; stroke: #000000; stroke-width: 0.8; stroke-linejoin: miter; stroke-linecap: square"/>
   </g>
  </g>
 </g>
 <defs>
  <clipPath id="pa9451edbce">
   <rect x="57.6" y="41.472" width="357.12" height="266.112"/>
  </clipPath>
 </defs>
</svg>
