<?xml version="1.0" encoding="utf-8" standalone="no"?>
<!DOCTYPE svg PUBLIC "-//W3C//DTD SVG 1.1//EN"
  "http://www.w3.org/Graphics/SVG/1.1/DTD/svg11.dtd">
<svg xmlns:xlink="http://www.w3.org/1999/xlink" width="460.8pt" height="345.6pt" viewBox="0 0 460.8 345.6" xmlns="http://www.w3.org/2000/svg" version="1.1">
 <metadata>
  <rdf:RDF xmlns:dc="http://purl.org/dc/elements/1.1/" xmlns:cc="http://creativecommons.org/ns#" xmlns:rdf="http://www.w3.org/1999/02/22-rdf-syntax-ns#">
   <cc:Work>
    <dc:type rdf:resource="http://purl.org/dc/dcmitype/StillImage"/>
    <dc:date>2024-04-23T11:13:06.228436</dc:date>
    <dc:format>image/svg+xml</dc:format>
    <dc:creator>
     <cc:Agent>
      <dc:title>Matplotlib v3.8.3, https://matplotlib.org/</dc:title>
     </cc:Agent>
    </dc:creator>
   </cc:Work>
  </rdf:RDF>
 </metadata>
 <defs>
  <style type="text/css">*{stroke-linejoin: round; stroke-linecap: butt}</style>
 </defs>
 <g id="figure_1">
  <g id="patch_1">
   <path d="M 0 345.6 
L 460.8 345.6 
L 460.8 0 
L 0 0 
z
" style="fill: #ffffff"/>
  </g>
  <g id="axes_1">
   <g id="patch_2">
    <path d="M 57.6 307.584 
L 414.72 307.584 
L 414.72 41.472 
L 57.6 41.472 
z
" style="fill: #ffffff"/>
   </g>
   <g id="PolyCollection_1">
    <defs>
     <path id="m362d1b9f94" d="M 73.832727 -171.072 
L 73.832727 -171.072 
L 74.150083 -171.219991 
L 74.467438 -171.222835 
L 74.784793 -171.225878 
L 75.102149 -171.229087 
L 75.419504 -171.232511 
L 75.73686 -171.235997 
L 76.054215 -171.239569 
L 76.37157 -171.243388 
L 76.688926 -171.247098 
L 77.006281 -171.250702 
L 77.323636 -171.254177 
L 77.640992 -171.257581 
L 77.958347 -171.261054 
L 78.275702 -171.264562 
L 78.593058 -171.268159 
L 78.910413 -171.271622 
L 79.227769 -171.274831 
L 79.545124 -171.277491 
L 79.862479 -171.279982 
L 80.179835 -171.282771 
L 80.49719 -171.285287 
L 80.814545 -171.2264 
L 81.131901 -171.168256 
L 81.449256 -171.0742 
L 81.766612 -170.945023 
L 82.083967 -170.817627 
L 82.401322 -170.70595 
L 82.718678 -170.607523 
L 83.036033 -170.538967 
L 83.353388 -170.498835 
L 83.670744 -170.418684 
L 83.988099 -170.34778 
L 84.305455 -170.307529 
L 84.62281 -170.311909 
L 84.940165 -170.361989 
L 85.257521 -170.449933 
L 85.574876 -170.552296 
L 85.892231 -170.679686 
L 86.209587 -170.850339 
L 86.526942 -171.052311 
L 86.844298 -171.294373 
L 87.161653 -171.579211 
L 87.479008 -171.902126 
L 87.796364 -172.265267 
L 88.113719 -172.665036 
L 88.431074 -173.101234 
L 88.74843 -173.568194 
L 89.065785 -174.061647 
L 89.38314 -174.580244 
L 89.700496 -175.120004 
L 90.017851 -175.686826 
L 90.335207 -176.278752 
L 90.652562 -176.892296 
L 90.969917 -177.52717 
L 91.287273 -178.182007 
L 91.604628 -178.851661 
L 91.921983 -179.532333 
L 92.239339 -180.217642 
L 92.556694 -180.906799 
L 92.87405 -181.604323 
L 93.191405 -182.306718 
L 93.50876 -183.013031 
L 93.826116 -183.721691 
L 94.143471 -184.431039 
L 94.460826 -185.138954 
L 94.778182 -185.838593 
L 95.095537 -186.525296 
L 95.412893 -187.198249 
L 95.730248 -187.858966 
L 96.047603 -188.507368 
L 96.364959 -189.14068 
L 96.682314 -189.752902 
L 96.999669 -190.344622 
L 97.317025 -190.912773 
L 97.63438 -191.454087 
L 97.951736 -191.962735 
L 98.269091 -192.438078 
L 98.586446 -192.878551 
L 98.903802 -193.278842 
L 99.221157 -193.641407 
L 99.538512 -193.962542 
L 99.855868 -194.238867 
L 100.173223 -194.470086 
L 100.490579 -194.652041 
L 100.807934 -194.783697 
L 101.125289 -194.993991 
L 101.442645 -195.167591 
L 101.76 -195.383687 
L 102.077355 -195.653404 
L 102.394711 -195.910975 
L 102.712066 -196.128368 
L 103.029421 -196.31429 
L 103.346777 -196.43883 
L 103.664132 -196.516484 
L 103.981488 -196.687347 
L 104.298843 -196.862534 
L 104.616198 -196.982362 
L 104.933554 -197.044298 
L 105.250909 -197.051365 
L 105.568264 -197.024846 
L 105.88562 -197.002947 
L 106.202975 -196.945604 
L 106.520331 -196.805324 
L 106.837686 -196.62271 
L 107.155041 -196.430705 
L 107.472397 -196.182688 
L 107.789752 -195.862964 
L 108.107107 -195.483593 
L 108.424463 -195.08779 
L 108.741818 -194.699502 
L 109.059174 -194.330307 
L 109.376529 -193.961199 
L 109.693884 -193.565042 
L 110.01124 -193.126552 
L 110.328595 -192.653028 
L 110.64595 -192.231436 
L 110.963306 -191.804086 
L 111.280661 -191.347643 
L 111.598017 -190.903702 
L 111.915372 -190.533287 
L 112.232727 -190.256893 
L 112.550083 -190.072869 
L 112.867438 -189.981947 
L 113.184793 -189.965745 
L 113.502149 -189.992025 
L 113.819504 -190.045667 
L 114.13686 -190.146036 
L 114.454215 -190.328727 
L 114.77157 -190.613406 
L 115.088926 -190.994106 
L 115.406281 -191.459245 
L 115.723636 -191.996755 
L 116.040992 -192.595938 
L 116.358347 -193.255925 
L 116.675702 -193.997704 
L 116.993058 -194.832522 
L 117.310413 -195.717794 
L 117.627769 -196.638832 
L 117.945124 -197.598306 
L 118.262479 -198.659821 
L 118.579835 -199.796277 
L 118.89719 -200.966578 
L 119.214545 -202.191666 
L 119.531901 -203.506334 
L 119.849256 -204.941348 
L 120.166612 -206.493708 
L 120.483967 -208.146282 
L 120.801322 -209.903488 
L 121.118678 -211.718698 
L 121.436033 -213.500787 
L 121.753388 -215.308959 
L 122.070744 -217.105057 
L 122.388099 -218.888694 
L 122.705455 -220.725245 
L 123.02281 -222.599906 
L 123.340165 -224.468943 
L 123.657521 -226.346057 
L 123.974876 -228.227361 
L 124.292231 -230.064565 
L 124.609587 -231.909852 
L 124.926942 -233.7989 
L 125.244298 -235.694937 
L 125.561653 -237.54653 
L 125.879008 -239.312061 
L 126.196364 -240.996301 
L 126.513719 -242.704592 
L 126.831074 -244.475408 
L 127.14843 -246.234132 
L 127.465785 -247.90526 
L 127.78314 -249.602927 
L 128.100496 -251.392035 
L 128.417851 -253.25315 
L 128.735207 -255.116368 
L 129.052562 -256.926195 
L 129.369917 -258.632536 
L 129.687273 -260.26508 
L 130.004628 -261.886843 
L 130.321983 -263.567844 
L 130.639339 -265.322347 
L 130.956694 -267.00903 
L 131.27405 -268.706587 
L 131.591405 -270.463579 
L 131.90876 -272.228953 
L 132.226116 -273.914555 
L 132.543471 -275.495403 
L 132.860826 -276.985931 
L 133.178182 -278.38915 
L 133.495537 -279.688463 
L 133.812893 -280.925955 
L 134.130248 -282.134535 
L 134.447603 -283.30001 
L 134.764959 -284.395861 
L 135.082314 -285.362815 
L 135.399669 -286.195082 
L 135.717025 -286.922884 
L 136.03438 -287.588389 
L 136.351736 -288.212444 
L 136.669091 -288.795823 
L 136.986446 -289.305802 
L 137.303802 -289.722723 
L 137.621157 -290.089597 
L 137.938512 -290.429588 
L 138.255868 -290.756653 
L 138.573223 -290.983146 
L 138.890579 -291.182546 
L 139.207934 -291.451242 
L 139.525289 -291.736311 
L 139.842645 -291.947846 
L 140.16 -292.032 
L 140.477355 -292.010952 
L 140.794711 -291.923802 
L 141.112066 -291.769516 
L 141.429421 -291.61298 
L 141.746777 -291.482011 
L 142.064132 -291.361383 
L 142.381488 -291.245081 
L 142.698843 -291.131528 
L 143.016198 -290.965176 
L 143.333554 -290.773779 
L 143.650909 -290.616841 
L 143.968264 -290.497176 
L 144.28562 -290.392467 
L 144.602975 -290.266846 
L 144.920331 -290.099379 
L 145.237686 -289.867772 
L 145.555041 -289.601493 
L 145.872397 -289.375019 
L 146.189752 -289.242214 
L 146.507107 -289.192199 
L 146.824463 -289.112892 
L 147.141818 -289.01041 
L 147.459174 -288.961961 
L 147.776529 -288.981929 
L 148.093884 -288.966141 
L 148.41124 -288.854804 
L 148.728595 -288.652285 
L 149.04595 -288.384182 
L 149.363306 -288.08274 
L 149.680661 -287.810957 
L 149.998017 -287.5749 
L 150.315372 -287.340728 
L 150.632727 -287.055222 
L 150.950083 -286.672416 
L 151.267438 -286.222894 
L 151.584793 -285.720767 
L 151.902149 -285.162886 
L 152.219504 -284.550081 
L 152.53686 -283.891826 
L 152.854215 -283.186695 
L 153.17157 -282.431804 
L 153.488926 -281.597863 
L 153.806281 -280.731675 
L 154.123636 -279.867007 
L 154.440992 -278.996831 
L 154.758347 -278.109424 
L 155.075702 -277.160955 
L 155.393058 -276.201208 
L 155.710413 -275.271568 
L 156.027769 -274.365616 
L 156.345124 -273.433488 
L 156.662479 -272.456251 
L 156.979835 -271.425178 
L 157.29719 -270.337772 
L 157.614545 -269.203919 
L 157.931901 -268.061774 
L 158.249256 -266.929436 
L 158.566612 -265.800334 
L 158.883967 -264.687064 
L 159.201322 -263.513942 
L 159.518678 -262.222472 
L 159.836033 -260.880767 
L 160.153388 -259.567899 
L 160.470744 -258.316462 
L 160.788099 -257.096654 
L 161.105455 -255.864322 
L 161.42281 -254.591493 
L 161.740165 -253.281568 
L 162.057521 -251.947321 
L 162.374876 -250.607111 
L 162.692231 -249.273514 
L 163.009587 -247.917082 
L 163.326942 -246.532882 
L 163.644298 -245.127509 
L 163.961653 -243.709372 
L 164.279008 -242.279278 
L 164.596364 -240.850712 
L 164.913719 -239.41498 
L 165.231074 -237.97664 
L 165.54843 -236.549365 
L 165.865785 -235.155138 
L 166.18314 -233.775588 
L 166.500496 -232.401315 
L 166.817851 -231.005866 
L 167.135207 -229.615194 
L 167.452562 -228.201454 
L 167.769917 -226.745953 
L 168.087273 -225.277178 
L 168.404628 -223.83915 
L 168.721983 -222.446145 
L 169.039339 -221.089887 
L 169.356694 -219.771162 
L 169.67405 -218.478923 
L 169.991405 -217.198846 
L 170.30876 -215.928751 
L 170.626116 -214.67525 
L 170.943471 -213.44172 
L 171.260826 -212.239546 
L 171.578182 -211.086547 
L 171.895537 -209.962565 
L 172.212893 -208.831267 
L 172.530248 -207.709043 
L 172.847603 -206.632492 
L 173.164959 -205.60695 
L 173.482314 -204.62283 
L 173.799669 -203.706251 
L 174.117025 -202.838581 
L 174.43438 -201.98805 
L 174.751736 -201.137253 
L 175.069091 -200.304997 
L 175.386446 -199.521423 
L 175.703802 -198.778784 
L 176.021157 -198.062968 
L 176.338512 -197.357301 
L 176.655868 -196.679562 
L 176.973223 -196.041492 
L 177.290579 -195.440972 
L 177.607934 -194.912849 
L 177.925289 -194.463854 
L 178.242645 -194.047118 
L 178.56 -193.636425 
L 178.877355 -193.226755 
L 179.194711 -192.824825 
L 179.512066 -192.479394 
L 179.829421 -192.188447 
L 180.146777 -191.918974 
L 180.464132 -191.647365 
L 180.781488 -191.365809 
L 181.098843 -191.08446 
L 181.416198 -190.815531 
L 181.733554 -190.599415 
L 182.050909 -190.409936 
L 182.368264 -190.23648 
L 182.68562 -190.07378 
L 183.002975 -189.896689 
L 183.320331 -189.734515 
L 183.637686 -189.608887 
L 183.955041 -189.527035 
L 184.272397 -189.446772 
L 184.589752 -189.363489 
L 184.907107 -189.277173 
L 185.224463 -189.223272 
L 185.541818 -189.196784 
L 185.859174 -189.186601 
L 186.176529 -189.192985 
L 186.493884 -189.2026 
L 186.81124 -189.18843 
L 187.128595 -189.182861 
L 187.44595 -189.198834 
L 187.763306 -189.244623 
L 188.080661 -189.283682 
L 188.398017 -189.312166 
L 188.715372 -189.330366 
L 189.032727 -189.343228 
L 189.350083 -189.360432 
L 189.667438 -189.359415 
L 189.984793 -189.379643 
L 190.302149 -189.420398 
L 190.619504 -189.465508 
L 190.93686 -189.513471 
L 191.254215 -189.559295 
L 191.57157 -189.598753 
L 191.888926 -189.648093 
L 192.206281 -189.682734 
L 192.523636 -189.745069 
L 192.840992 -189.826403 
L 193.158347 -189.891611 
L 193.475702 -189.960237 
L 193.793058 -190.026931 
L 194.110413 -190.098553 
L 194.427769 -190.194929 
L 194.745124 -190.290838 
L 195.062479 -190.404858 
L 195.379835 -190.512527 
L 195.69719 -190.627705 
L 196.014545 -190.751247 
L 196.331901 -190.864684 
L 196.649256 -190.974618 
L 196.966612 -191.095914 
L 197.283967 -191.214469 
L 197.601322 -191.357107 
L 197.918678 -191.481479 
L 198.236033 -191.587018 
L 198.553388 -191.681259 
L 198.870744 -191.770108 
L 199.188099 -191.850124 
L 199.505455 -191.932554 
L 199.82281 -192.005902 
L 200.140165 -192.074301 
L 200.457521 -192.147608 
L 200.774876 -192.208204 
L 201.092231 -192.257313 
L 201.409587 -192.303872 
L 201.726942 -192.365023 
L 202.044298 -192.42793 
L 202.361653 -192.4977 
L 202.679008 -192.56601 
L 202.996364 -192.626205 
L 203.313719 -192.700364 
L 203.631074 -192.765207 
L 203.94843 -192.816444 
L 204.265785 -192.847269 
L 204.58314 -192.875185 
L 204.900496 -192.90513 
L 205.217851 -192.928406 
L 205.535207 -192.930538 
L 205.852562 -192.916763 
L 206.169917 -192.90556 
L 206.487273 -192.873306 
L 206.804628 -192.831734 
L 207.121983 -192.789474 
L 207.439339 -192.731601 
L 207.756694 -192.641691 
L 208.07405 -192.529345 
L 208.391405 -192.44762 
L 208.70876 -192.389032 
L 209.026116 -192.329807 
L 209.343471 -192.249954 
L 209.660826 -192.164398 
L 209.978182 -192.127625 
L 210.295537 -192.086042 
L 210.612893 -192.030062 
L 210.930248 -191.96618 
L 211.247603 -191.889346 
L 211.564959 -191.799366 
L 211.882314 -191.719592 
L 212.199669 -191.635047 
L 212.517025 -191.573185 
L 212.83438 -191.487916 
L 213.151736 -191.378596 
L 213.469091 -191.287192 
L 213.786446 -191.188421 
L 214.103802 -191.098276 
L 214.421157 -191.005232 
L 214.738512 -190.881825 
L 215.055868 -190.747871 
L 215.373223 -190.599731 
L 215.690579 -190.449973 
L 216.007934 -190.291316 
L 216.325289 -190.122846 
L 216.642645 -189.962674 
L 216.96 -189.807503 
L 217.277355 -189.643574 
L 217.594711 -189.480603 
L 217.912066 -189.29433 
L 218.229421 -189.115496 
L 218.546777 -188.938576 
L 218.864132 -188.769792 
L 219.181488 -188.606456 
L 219.498843 -188.44708 
L 219.816198 -188.300158 
L 220.133554 -188.14258 
L 220.450909 -187.97924 
L 220.768264 -187.800836 
L 221.08562 -187.625311 
L 221.402975 -187.457825 
L 221.720331 -187.286159 
L 222.037686 -187.098868 
L 222.355041 -186.893631 
L 222.672397 -186.674262 
L 222.989752 -186.450712 
L 223.307107 -186.210842 
L 223.624463 -185.947414 
L 223.941818 -185.677304 
L 224.259174 -185.420683 
L 224.576529 -185.169873 
L 224.893884 -184.905379 
L 225.21124 -184.624187 
L 225.528595 -184.335998 
L 225.84595 -184.035088 
L 226.163306 -183.731588 
L 226.480661 -183.419511 
L 226.798017 -183.100064 
L 227.115372 -182.771984 
L 227.432727 -182.436013 
L 227.750083 -182.091093 
L 228.067438 -181.764674 
L 228.384793 -181.453162 
L 228.702149 -181.113909 
L 229.019504 -180.745719 
L 229.33686 -180.36136 
L 229.654215 -179.991765 
L 229.97157 -179.61314 
L 230.288926 -179.194638 
L 230.606281 -178.763949 
L 230.923636 -178.331049 
L 231.240992 -177.902717 
L 231.558347 -177.473909 
L 231.875702 -177.045975 
L 232.193058 -176.608462 
L 232.510413 -176.16578 
L 232.827769 -175.719215 
L 233.145124 -175.277748 
L 233.462479 -174.847487 
L 233.779835 -174.407265 
L 234.09719 -173.961476 
L 234.414545 -173.509259 
L 234.731901 -173.049228 
L 235.049256 -172.599903 
L 235.366612 -172.158203 
L 235.683967 -171.718496 
L 236.001322 -171.287509 
L 236.318678 -170.856491 
L 236.636033 -170.425504 
L 236.953388 -169.985797 
L 237.270744 -169.544097 
L 237.588099 -169.094772 
L 237.905455 -168.634741 
L 238.22281 -168.182524 
L 238.540165 -167.736735 
L 238.857521 -167.296513 
L 239.174876 -166.866252 
L 239.492231 -166.424785 
L 239.809587 -165.97822 
L 240.126942 -165.535538 
L 240.444298 -165.098025 
L 240.761653 -164.670091 
L 241.079008 -164.241283 
L 241.396364 -163.812951 
L 241.713719 -163.380051 
L 242.031074 -162.949362 
L 242.34843 -162.53086 
L 242.665785 -162.152235 
L 242.98314 -161.78264 
L 243.300496 -161.398281 
L 243.617851 -161.030091 
L 243.935207 -160.690838 
L 244.252562 -160.379326 
L 244.569917 -160.052907 
L 244.887273 -159.707987 
L 245.204628 -159.372016 
L 245.521983 -159.043936 
L 245.839339 -158.724489 
L 246.156694 -158.412412 
L 246.47405 -158.108912 
L 246.791405 -157.808002 
L 247.10876 -157.519813 
L 247.426116 -157.238621 
L 247.743471 -156.974127 
L 248.060826 -156.723317 
L 248.378182 -156.466696 
L 248.695537 -156.196586 
L 249.012893 -155.933158 
L 249.330248 -155.693288 
L 249.647603 -155.469738 
L 249.964959 -155.250369 
L 250.282314 -155.045132 
L 250.599669 -154.857841 
L 250.917025 -154.686175 
L 251.23438 -154.518689 
L 251.551736 -154.343164 
L 251.869091 -154.16476 
L 252.186446 -154.00142 
L 252.503802 -153.843842 
L 252.821157 -153.69692 
L 253.138512 -153.537544 
L 253.455868 -153.374208 
L 253.773223 -153.205424 
L 254.090579 -153.028504 
L 254.407934 -152.84967 
L 254.725289 -152.663397 
L 255.042645 -152.500426 
L 255.36 -152.336497 
L 255.677355 -152.181326 
L 255.994711 -152.021154 
L 256.312066 -151.852684 
L 256.629421 -151.694027 
L 256.946777 -151.544269 
L 257.264132 -151.396129 
L 257.581488 -151.262175 
L 257.898843 -151.138768 
L 258.216198 -151.045724 
L 258.533554 -150.955579 
L 258.850909 -150.856808 
L 259.168264 -150.765404 
L 259.48562 -150.656084 
L 259.802975 -150.570815 
L 260.120331 -150.508953 
L 260.437686 -150.424408 
L 260.755041 -150.344634 
L 261.072397 -150.254654 
L 261.389752 -150.17782 
L 261.707107 -150.113938 
L 262.024463 -150.057958 
L 262.341818 -150.016375 
L 262.659174 -149.979602 
L 262.976529 -149.894046 
L 263.293884 -149.814193 
L 263.61124 -149.754968 
L 263.928595 -149.69638 
L 264.24595 -149.614655 
L 264.563306 -149.502309 
L 264.880661 -149.412399 
L 265.198017 -149.354526 
L 265.515372 -149.312266 
L 265.832727 -149.270694 
L 266.150083 -149.23844 
L 266.467438 -149.227237 
L 266.784793 -149.213462 
L 267.102149 -149.215594 
L 267.419504 -149.23887 
L 267.73686 -149.268815 
L 268.054215 -149.296731 
L 268.37157 -149.327556 
L 268.688926 -149.378793 
L 269.006281 -149.443636 
L 269.323636 -149.517795 
L 269.640992 -149.57799 
L 269.958347 -149.6463 
L 270.275702 -149.71607 
L 270.593058 -149.778977 
L 270.910413 -149.840128 
L 271.227769 -149.886687 
L 271.545124 -149.935796 
L 271.862479 -149.996392 
L 272.179835 -150.069699 
L 272.49719 -150.138098 
L 272.814545 -150.211446 
L 273.131901 -150.293876 
L 273.449256 -150.373892 
L 273.766612 -150.462741 
L 274.083967 -150.556982 
L 274.401322 -150.662521 
L 274.718678 -150.786893 
L 275.036033 -150.929531 
L 275.353388 -151.048086 
L 275.670744 -151.169382 
L 275.988099 -151.279316 
L 276.305455 -151.392753 
L 276.62281 -151.516295 
L 276.940165 -151.631473 
L 277.257521 -151.739142 
L 277.574876 -151.853162 
L 277.892231 -151.949071 
L 278.209587 -152.045447 
L 278.526942 -152.117069 
L 278.844298 -152.183763 
L 279.161653 -152.252389 
L 279.479008 -152.317597 
L 279.796364 -152.398931 
L 280.113719 -152.461266 
L 280.431074 -152.495907 
L 280.74843 -152.545247 
L 281.065785 -152.584705 
L 281.38314 -152.630529 
L 281.700496 -152.678492 
L 282.017851 -152.723602 
L 282.335207 -152.764357 
L 282.652562 -152.784585 
L 282.969917 -152.783568 
L 283.287273 -152.800772 
L 283.604628 -152.813634 
L 283.921983 -152.831834 
L 284.239339 -152.860318 
L 284.556694 -152.899377 
L 284.87405 -152.945166 
L 285.191405 -152.961139 
L 285.50876 -152.95557 
L 285.826116 -152.9414 
L 286.143471 -152.951015 
L 286.460826 -152.957399 
L 286.778182 -152.947216 
L 287.095537 -152.920728 
L 287.412893 -152.866827 
L 287.730248 -152.780511 
L 288.047603 -152.697228 
L 288.364959 -152.616965 
L 288.682314 -152.535113 
L 288.999669 -152.409485 
L 289.317025 -152.247311 
L 289.63438 -152.07022 
L 289.951736 -151.90752 
L 290.269091 -151.734064 
L 290.586446 -151.544585 
L 290.903802 -151.328469 
L 291.221157 -151.05954 
L 291.538512 -150.778191 
L 291.855868 -150.496635 
L 292.173223 -150.225026 
L 292.490579 -149.955553 
L 292.807934 -149.664606 
L 293.125289 -149.319175 
L 293.442645 -148.917245 
L 293.76 -148.507575 
L 294.077355 -148.096882 
L 294.394711 -147.680146 
L 294.712066 -147.231151 
L 295.029421 -146.703028 
L 295.346777 -146.102508 
L 295.664132 -145.464438 
L 295.981488 -144.786699 
L 296.298843 -144.081032 
L 296.616198 -143.365216 
L 296.933554 -142.622577 
L 297.250909 -141.839003 
L 297.568264 -141.006747 
L 297.88562 -140.15595 
L 298.202975 -139.305419 
L 298.520331 -138.437749 
L 298.837686 -137.52117 
L 299.155041 -136.53705 
L 299.472397 -135.511508 
L 299.789752 -134.434957 
L 300.107107 -133.312733 
L 300.424463 -132.181435 
L 300.741818 -131.057453 
L 301.059174 -129.904454 
L 301.376529 -128.70228 
L 301.693884 -127.46875 
L 302.01124 -126.215249 
L 302.328595 -124.945154 
L 302.64595 -123.665077 
L 302.963306 -122.372838 
L 303.280661 -121.054113 
L 303.598017 -119.697855 
L 303.915372 -118.30485 
L 304.232727 -116.866822 
L 304.550083 -115.398047 
L 304.867438 -113.942546 
L 305.184793 -112.528806 
L 305.502149 -111.138134 
L 305.819504 -109.742685 
L 306.13686 -108.368412 
L 306.454215 -106.988862 
L 306.77157 -105.594635 
L 307.088926 -104.16736 
L 307.406281 -102.72902 
L 307.723636 -101.293288 
L 308.040992 -99.864722 
L 308.358347 -98.434628 
L 308.675702 -97.016491 
L 308.993058 -95.611118 
L 309.310413 -94.226918 
L 309.627769 -92.870486 
L 309.945124 -91.536889 
L 310.262479 -90.196679 
L 310.579835 -88.862432 
L 310.89719 -87.552507 
L 311.214545 -86.279678 
L 311.531901 -85.047346 
L 311.849256 -83.827538 
L 312.166612 -82.576101 
L 312.483967 -81.263233 
L 312.801322 -79.921528 
L 313.118678 -78.630058 
L 313.436033 -77.456936 
L 313.753388 -76.343666 
L 314.070744 -75.214564 
L 314.388099 -74.082226 
L 314.705455 -72.940081 
L 315.02281 -71.806228 
L 315.340165 -70.718822 
L 315.657521 -69.687749 
L 315.974876 -68.710512 
L 316.292231 -67.778384 
L 316.609587 -66.872432 
L 316.926942 -65.942792 
L 317.244298 -64.983045 
L 317.561653 -64.034576 
L 317.879008 -63.147169 
L 318.196364 -62.276993 
L 318.513719 -61.412325 
L 318.831074 -60.546137 
L 319.14843 -59.712196 
L 319.465785 -58.957305 
L 319.78314 -58.252174 
L 320.100496 -57.593919 
L 320.417851 -56.981114 
L 320.735207 -56.423233 
L 321.052562 -55.921106 
L 321.369917 -55.471584 
L 321.687273 -55.088778 
L 322.004628 -54.803272 
L 322.321983 -54.5691 
L 322.639339 -54.333043 
L 322.956694 -54.06126 
L 323.27405 -53.759818 
L 323.591405 -53.491715 
L 323.90876 -53.289196 
L 324.226116 -53.177859 
L 324.543471 -53.162071 
L 324.860826 -53.182039 
L 325.178182 -53.13359 
L 325.495537 -53.031108 
L 325.812893 -52.951801 
L 326.130248 -52.901786 
L 326.447603 -52.768981 
L 326.764959 -52.542507 
L 327.082314 -52.276228 
L 327.399669 -52.044621 
L 327.717025 -51.877154 
L 328.03438 -51.751533 
L 328.351736 -51.646824 
L 328.669091 -51.527159 
L 328.986446 -51.370221 
L 329.303802 -51.178824 
L 329.621157 -51.012472 
L 329.938512 -50.898919 
L 330.255868 -50.782617 
L 330.573223 -50.661989 
L 330.890579 -50.53102 
L 331.207934 -50.374484 
L 331.525289 -50.220198 
L 331.842645 -50.133048 
L 332.16 -50.112 
L 332.477355 -50.196154 
L 332.794711 -50.407689 
L 333.112066 -50.692758 
L 333.429421 -50.961454 
L 333.746777 -51.160854 
L 334.064132 -51.387347 
L 334.381488 -51.714412 
L 334.698843 -52.054403 
L 335.016198 -52.421277 
L 335.333554 -52.838198 
L 335.650909 -53.348177 
L 335.968264 -53.931556 
L 336.28562 -54.555611 
L 336.602975 -55.221116 
L 336.920331 -55.948918 
L 337.237686 -56.781185 
L 337.555041 -57.748139 
L 337.872397 -58.84399 
L 338.189752 -60.009465 
L 338.507107 -61.218045 
L 338.824463 -62.455537 
L 339.141818 -63.75485 
L 339.459174 -65.158069 
L 339.776529 -66.648597 
L 340.093884 -68.229445 
L 340.41124 -69.915047 
L 340.728595 -71.680421 
L 341.04595 -73.437413 
L 341.363306 -75.13497 
L 341.680661 -76.821653 
L 341.998017 -78.576156 
L 342.315372 -80.257157 
L 342.632727 -81.87892 
L 342.950083 -83.511464 
L 343.267438 -85.217805 
L 343.584793 -87.027632 
L 343.902149 -88.89085 
L 344.219504 -90.751965 
L 344.53686 -92.541073 
L 344.854215 -94.23874 
L 345.17157 -95.909868 
L 345.488926 -97.668592 
L 345.806281 -99.439408 
L 346.123636 -101.147699 
L 346.440992 -102.831939 
L 346.758347 -104.59747 
L 347.075702 -106.449063 
L 347.393058 -108.3451 
L 347.710413 -110.234148 
L 348.027769 -112.079435 
L 348.345124 -113.916639 
L 348.662479 -115.797943 
L 348.979835 -117.675057 
L 349.29719 -119.544094 
L 349.614545 -121.418755 
L 349.931901 -123.255306 
L 350.249256 -125.038943 
L 350.566612 -126.835041 
L 350.883967 -128.643213 
L 351.201322 -130.425302 
L 351.518678 -132.240512 
L 351.836033 -133.997718 
L 352.153388 -135.650292 
L 352.470744 -137.202652 
L 352.788099 -138.637666 
L 353.105455 -139.952334 
L 353.42281 -141.177422 
L 353.740165 -142.347723 
L 354.057521 -143.484179 
L 354.374876 -144.545694 
L 354.692231 -145.505168 
L 355.009587 -146.426206 
L 355.326942 -147.311478 
L 355.644298 -148.146296 
L 355.961653 -148.888075 
L 356.279008 -149.548062 
L 356.596364 -150.147245 
L 356.913719 -150.684755 
L 357.231074 -151.149894 
L 357.54843 -151.530594 
L 357.865785 -151.815273 
L 358.18314 -151.997964 
L 358.500496 -152.098333 
L 358.817851 -152.151975 
L 359.135207 -152.178255 
L 359.452562 -152.162053 
L 359.769917 -152.071131 
L 360.087273 -151.887107 
L 360.404628 -151.610713 
L 360.721983 -151.240298 
L 361.039339 -150.796357 
L 361.356694 -150.339914 
L 361.67405 -149.912564 
L 361.991405 -149.490972 
L 362.30876 -149.017448 
L 362.626116 -148.578958 
L 362.943471 -148.182801 
L 363.260826 -147.813693 
L 363.578182 -147.444498 
L 363.895537 -147.05621 
L 364.212893 -146.660407 
L 364.530248 -146.281036 
L 364.847603 -145.961312 
L 365.164959 -145.713295 
L 365.482314 -145.52129 
L 365.799669 -145.338676 
L 366.117025 -145.198396 
L 366.43438 -145.141053 
L 366.751736 -145.119154 
L 367.069091 -145.092635 
L 367.386446 -145.099702 
L 367.703802 -145.161638 
L 368.021157 -145.281466 
L 368.338512 -145.456653 
L 368.655868 -145.627516 
L 368.973223 -145.70517 
L 369.290579 -145.82971 
L 369.607934 -146.015632 
L 369.925289 -146.233025 
L 370.242645 -146.490596 
L 370.56 -146.760313 
L 370.877355 -146.976409 
L 371.194711 -147.150009 
L 371.512066 -147.360303 
L 371.829421 -147.491959 
L 372.146777 -147.673914 
L 372.464132 -147.905133 
L 372.781488 -148.181458 
L 373.098843 -148.502593 
L 373.416198 -148.865158 
L 373.733554 -149.265449 
L 374.050909 -149.705922 
L 374.368264 -150.181265 
L 374.68562 -150.689913 
L 375.002975 -151.231227 
L 375.320331 -151.799378 
L 375.637686 -152.391098 
L 375.955041 -153.00332 
L 376.272397 -153.636632 
L 376.589752 -154.285034 
L 376.907107 -154.945751 
L 377.224463 -155.618704 
L 377.541818 -156.305407 
L 377.859174 -157.005046 
L 378.176529 -157.712961 
L 378.493884 -158.42227 
L 378.81124 -159.130858 
L 379.128595 -159.837106 
L 379.44595 -160.539444 
L 379.763306 -161.23692 
L 380.080661 -161.926041 
L 380.398017 -162.611327 
L 380.715372 -163.291988 
L 381.032727 -163.961645 
L 381.350083 -164.616503 
L 381.667438 -165.251414 
L 381.984793 -165.865014 
L 382.302149 -166.457015 
L 382.619504 -167.023933 
L 382.93686 -167.563811 
L 383.254215 -168.082549 
L 383.57157 -168.576169 
L 383.888926 -169.043321 
L 384.206281 -169.479738 
L 384.523636 -169.879754 
L 384.840992 -170.243173 
L 385.158347 -170.566396 
L 385.475702 -170.851573 
L 385.793058 -171.094009 
L 386.110413 -171.296389 
L 386.427769 -171.467485 
L 386.745124 -171.595356 
L 387.062479 -171.698238 
L 387.379835 -171.78674 
L 387.69719 -171.837419 
L 388.014545 -171.84244 
L 388.331901 -171.802873 
L 388.649256 -171.722135 
L 388.966612 -171.641984 
L 389.283967 -171.601852 
L 389.601322 -171.533296 
L 389.918678 -171.434869 
L 390.236033 -171.323192 
L 390.553388 -171.195796 
L 390.870744 -171.066619 
L 391.188099 -170.972563 
L 391.505455 -170.914419 
L 391.82281 -170.855532 
L 392.140165 -170.858048 
L 392.457521 -170.860837 
L 392.774876 -170.863328 
L 393.092231 -170.865988 
L 393.409587 -170.869197 
L 393.726942 -170.87266 
L 394.044298 -170.876257 
L 394.361653 -170.879765 
L 394.679008 -170.883237 
L 394.996364 -170.886642 
L 395.313719 -170.890117 
L 395.631074 -170.893721 
L 395.94843 -170.897431 
L 396.265785 -170.90125 
L 396.58314 -170.904822 
L 396.900496 -170.908308 
L 397.217851 -170.911732 
L 397.535207 -170.914941 
L 397.852562 -170.917984 
L 398.169917 -170.920828 
L 398.487273 -171.072 
L 398.487273 -171.072 
L 398.487273 -171.072 
L 398.169917 -171.072 
L 397.852562 -171.072 
L 397.535207 -171.072 
L 397.217851 -171.072 
L 396.900496 -171.072 
L 396.58314 -171.072 
L 396.265785 -171.072 
L 395.94843 -171.072 
L 395.631074 -171.072 
L 395.313719 -171.072 
L 394.996364 -171.072 
L 394.679008 -171.072 
L 394.361653 -171.072 
L 394.044298 -171.072 
L 393.726942 -171.072 
L 393.409587 -171.072 
L 393.092231 -171.072 
L 392.774876 -171.072 
L 392.457521 -171.072 
L 392.140165 -171.072 
L 391.82281 -171.072 
L 391.505455 -171.072 
L 391.188099 -171.072 
L 390.870744 -171.072 
L 390.553388 -171.072 
L 390.236033 -171.072 
L 389.918678 -171.072 
L 389.601322 -171.072 
L 389.283967 -171.072 
L 388.966612 -171.072 
L 388.649256 -171.072 
L 388.331901 -171.072 
L 388.014545 -171.072 
L 387.69719 -171.072 
L 387.379835 -171.072 
L 387.062479 -171.072 
L 386.745124 -171.072 
L 386.427769 -171.072 
L 386.110413 -171.072 
L 385.793058 -171.072 
L 385.475702 -171.072 
L 385.158347 -171.072 
L 384.840992 -171.072 
L 384.523636 -171.072 
L 384.206281 -171.072 
L 383.888926 -171.072 
L 383.57157 -171.072 
L 383.254215 -171.072 
L 382.93686 -171.072 
L 382.619504 -171.072 
L 382.302149 -171.072 
L 381.984793 -171.072 
L 381.667438 -171.072 
L 381.350083 -171.072 
L 381.032727 -171.072 
L 380.715372 -171.072 
L 380.398017 -171.072 
L 380.080661 -171.072 
L 379.763306 -171.072 
L 379.44595 -171.072 
L 379.128595 -171.072 
L 378.81124 -171.072 
L 378.493884 -171.072 
L 378.176529 -171.072 
L 377.859174 -171.072 
L 377.541818 -171.072 
L 377.224463 -171.072 
L 376.907107 -171.072 
L 376.589752 -171.072 
L 376.272397 -171.072 
L 375.955041 -171.072 
L 375.637686 -171.072 
L 375.320331 -171.072 
L 375.002975 -171.072 
L 374.68562 -171.072 
L 374.368264 -171.072 
L 374.050909 -171.072 
L 373.733554 -171.072 
L 373.416198 -171.072 
L 373.098843 -171.072 
L 372.781488 -171.072 
L 372.464132 -171.072 
L 372.146777 -171.072 
L 371.829421 -171.072 
L 371.512066 -171.072 
L 371.194711 -171.072 
L 370.877355 -171.072 
L 370.56 -171.072 
L 370.242645 -171.072 
L 369.925289 -171.072 
L 369.607934 -171.072 
L 369.290579 -171.072 
L 368.973223 -171.072 
L 368.655868 -171.072 
L 368.338512 -171.072 
L 368.021157 -171.072 
L 367.703802 -171.072 
L 367.386446 -171.072 
L 367.069091 -171.072 
L 366.751736 -171.072 
L 366.43438 -171.072 
L 366.117025 -171.072 
L 365.799669 -171.072 
L 365.482314 -171.072 
L 365.164959 -171.072 
L 364.847603 -171.072 
L 364.530248 -171.072 
L 364.212893 -171.072 
L 363.895537 -171.072 
L 363.578182 -171.072 
L 363.260826 -171.072 
L 362.943471 -171.072 
L 362.626116 -171.072 
L 362.30876 -171.072 
L 361.991405 -171.072 
L 361.67405 -171.072 
L 361.356694 -171.072 
L 361.039339 -171.072 
L 360.721983 -171.072 
L 360.404628 -171.072 
L 360.087273 -171.072 
L 359.769917 -171.072 
L 359.452562 -171.072 
L 359.135207 -171.072 
L 358.817851 -171.072 
L 358.500496 -171.072 
L 358.18314 -171.072 
L 357.865785 -171.072 
L 357.54843 -171.072 
L 357.231074 -171.072 
L 356.913719 -171.072 
L 356.596364 -171.072 
L 356.279008 -171.072 
L 355.961653 -171.072 
L 355.644298 -171.072 
L 355.326942 -171.072 
L 355.009587 -171.072 
L 354.692231 -171.072 
L 354.374876 -171.072 
L 354.057521 -171.072 
L 353.740165 -171.072 
L 353.42281 -171.072 
L 353.105455 -171.072 
L 352.788099 -171.072 
L 352.470744 -171.072 
L 352.153388 -171.072 
L 351.836033 -171.072 
L 351.518678 -171.072 
L 351.201322 -171.072 
L 350.883967 -171.072 
L 350.566612 -171.072 
L 350.249256 -171.072 
L 349.931901 -171.072 
L 349.614545 -171.072 
L 349.29719 -171.072 
L 348.979835 -171.072 
L 348.662479 -171.072 
L 348.345124 -171.072 
L 348.027769 -171.072 
L 347.710413 -171.072 
L 347.393058 -171.072 
L 347.075702 -171.072 
L 346.758347 -171.072 
L 346.440992 -171.072 
L 346.123636 -171.072 
L 345.806281 -171.072 
L 345.488926 -171.072 
L 345.17157 -171.072 
L 344.854215 -171.072 
L 344.53686 -171.072 
L 344.219504 -171.072 
L 343.902149 -171.072 
L 343.584793 -171.072 
L 343.267438 -171.072 
L 342.950083 -171.072 
L 342.632727 -171.072 
L 342.315372 -171.072 
L 341.998017 -171.072 
L 341.680661 -171.072 
L 341.363306 -171.072 
L 341.04595 -171.072 
L 340.728595 -171.072 
L 340.41124 -171.072 
L 340.093884 -171.072 
L 339.776529 -171.072 
L 339.459174 -171.072 
L 339.141818 -171.072 
L 338.824463 -171.072 
L 338.507107 -171.072 
L 338.189752 -171.072 
L 337.872397 -171.072 
L 337.555041 -171.072 
L 337.237686 -171.072 
L 336.920331 -171.072 
L 336.602975 -171.072 
L 336.28562 -171.072 
L 335.968264 -171.072 
L 335.650909 -171.072 
L 335.333554 -171.072 
L 335.016198 -171.072 
L 334.698843 -171.072 
L 334.381488 -171.072 
L 334.064132 -171.072 
L 333.746777 -171.072 
L 333.429421 -171.072 
L 333.112066 -171.072 
L 332.794711 -171.072 
L 332.477355 -171.072 
L 332.16 -171.072 
L 331.842645 -171.072 
L 331.525289 -171.072 
L 331.207934 -171.072 
L 330.890579 -171.072 
L 330.573223 -171.072 
L 330.255868 -171.072 
L 329.938512 -171.072 
L 329.621157 -171.072 
L 329.303802 -171.072 
L 328.986446 -171.072 
L 328.669091 -171.072 
L 328.351736 -171.072 
L 328.03438 -171.072 
L 327.717025 -171.072 
L 327.399669 -171.072 
L 327.082314 -171.072 
L 326.764959 -171.072 
L 326.447603 -171.072 
L 326.130248 -171.072 
L 325.812893 -171.072 
L 325.495537 -171.072 
L 325.178182 -171.072 
L 324.860826 -171.072 
L 324.543471 -171.072 
L 324.226116 -171.072 
L 323.90876 -171.072 
L 323.591405 -171.072 
L 323.27405 -171.072 
L 322.956694 -171.072 
L 322.639339 -171.072 
L 322.321983 -171.072 
L 322.004628 -171.072 
L 321.687273 -171.072 
L 321.369917 -171.072 
L 321.052562 -171.072 
L 320.735207 -171.072 
L 320.417851 -171.072 
L 320.100496 -171.072 
L 319.78314 -171.072 
L 319.465785 -171.072 
L 319.14843 -171.072 
L 318.831074 -171.072 
L 318.513719 -171.072 
L 318.196364 -171.072 
L 317.879008 -171.072 
L 317.561653 -171.072 
L 317.244298 -171.072 
L 316.926942 -171.072 
L 316.609587 -171.072 
L 316.292231 -171.072 
L 315.974876 -171.072 
L 315.657521 -171.072 
L 315.340165 -171.072 
L 315.02281 -171.072 
L 314.705455 -171.072 
L 314.388099 -171.072 
L 314.070744 -171.072 
L 313.753388 -171.072 
L 313.436033 -171.072 
L 313.118678 -171.072 
L 312.801322 -171.072 
L 312.483967 -171.072 
L 312.166612 -171.072 
L 311.849256 -171.072 
L 311.531901 -171.072 
L 311.214545 -171.072 
L 310.89719 -171.072 
L 310.579835 -171.072 
L 310.262479 -171.072 
L 309.945124 -171.072 
L 309.627769 -171.072 
L 309.310413 -171.072 
L 308.993058 -171.072 
L 308.675702 -171.072 
L 308.358347 -171.072 
L 308.040992 -171.072 
L 307.723636 -171.072 
L 307.406281 -171.072 
L 307.088926 -171.072 
L 306.77157 -171.072 
L 306.454215 -171.072 
L 306.13686 -171.072 
L 305.819504 -171.072 
L 305.502149 -171.072 
L 305.184793 -171.072 
L 304.867438 -171.072 
L 304.550083 -171.072 
L 304.232727 -171.072 
L 303.915372 -171.072 
L 303.598017 -171.072 
L 303.280661 -171.072 
L 302.963306 -171.072 
L 302.64595 -171.072 
L 302.328595 -171.072 
L 302.01124 -171.072 
L 301.693884 -171.072 
L 301.376529 -171.072 
L 301.059174 -171.072 
L 300.741818 -171.072 
L 300.424463 -171.072 
L 300.107107 -171.072 
L 299.789752 -171.072 
L 299.472397 -171.072 
L 299.155041 -171.072 
L 298.837686 -171.072 
L 298.520331 -171.072 
L 298.202975 -171.072 
L 297.88562 -171.072 
L 297.568264 -171.072 
L 297.250909 -171.072 
L 296.933554 -171.072 
L 296.616198 -171.072 
L 296.298843 -171.072 
L 295.981488 -171.072 
L 295.664132 -171.072 
L 295.346777 -171.072 
L 295.029421 -171.072 
L 294.712066 -171.072 
L 294.394711 -171.072 
L 294.077355 -171.072 
L 293.76 -171.072 
L 293.442645 -171.072 
L 293.125289 -171.072 
L 292.807934 -171.072 
L 292.490579 -171.072 
L 292.173223 -171.072 
L 291.855868 -171.072 
L 291.538512 -171.072 
L 291.221157 -171.072 
L 290.903802 -171.072 
L 290.586446 -171.072 
L 290.269091 -171.072 
L 289.951736 -171.072 
L 289.63438 -171.072 
L 289.317025 -171.072 
L 288.999669 -171.072 
L 288.682314 -171.072 
L 288.364959 -171.072 
L 288.047603 -171.072 
L 287.730248 -171.072 
L 287.412893 -171.072 
L 287.095537 -171.072 
L 286.778182 -171.072 
L 286.460826 -171.072 
L 286.143471 -171.072 
L 285.826116 -171.072 
L 285.50876 -171.072 
L 285.191405 -171.072 
L 284.87405 -171.072 
L 284.556694 -171.072 
L 284.239339 -171.072 
L 283.921983 -171.072 
L 283.604628 -171.072 
L 283.287273 -171.072 
L 282.969917 -171.072 
L 282.652562 -171.072 
L 282.335207 -171.072 
L 282.017851 -171.072 
L 281.700496 -171.072 
L 281.38314 -171.072 
L 281.065785 -171.072 
L 280.74843 -171.072 
L 280.431074 -171.072 
L 280.113719 -171.072 
L 279.796364 -171.072 
L 279.479008 -171.072 
L 279.161653 -171.072 
L 278.844298 -171.072 
L 278.526942 -171.072 
L 278.209587 -171.072 
L 277.892231 -171.072 
L 277.574876 -171.072 
L 277.257521 -171.072 
L 276.940165 -171.072 
L 276.62281 -171.072 
L 276.305455 -171.072 
L 275.988099 -171.072 
L 275.670744 -171.072 
L 275.353388 -171.072 
L 275.036033 -171.072 
L 274.718678 -171.072 
L 274.401322 -171.072 
L 274.083967 -171.072 
L 273.766612 -171.072 
L 273.449256 -171.072 
L 273.131901 -171.072 
L 272.814545 -171.072 
L 272.49719 -171.072 
L 272.179835 -171.072 
L 271.862479 -171.072 
L 271.545124 -171.072 
L 271.227769 -171.072 
L 270.910413 -171.072 
L 270.593058 -171.072 
L 270.275702 -171.072 
L 269.958347 -171.072 
L 269.640992 -171.072 
L 269.323636 -171.072 
L 269.006281 -171.072 
L 268.688926 -171.072 
L 268.37157 -171.072 
L 268.054215 -171.072 
L 267.73686 -171.072 
L 267.419504 -171.072 
L 267.102149 -171.072 
L 266.784793 -171.072 
L 266.467438 -171.072 
L 266.150083 -171.072 
L 265.832727 -171.072 
L 265.515372 -171.072 
L 265.198017 -171.072 
L 264.880661 -171.072 
L 264.563306 -171.072 
L 264.24595 -171.072 
L 263.928595 -171.072 
L 263.61124 -171.072 
L 263.293884 -171.072 
L 262.976529 -171.072 
L 262.659174 -171.072 
L 262.341818 -171.072 
L 262.024463 -171.072 
L 261.707107 -171.072 
L 261.389752 -171.072 
L 261.072397 -171.072 
L 260.755041 -171.072 
L 260.437686 -171.072 
L 260.120331 -171.072 
L 259.802975 -171.072 
L 259.48562 -171.072 
L 259.168264 -171.072 
L 258.850909 -171.072 
L 258.533554 -171.072 
L 258.216198 -171.072 
L 257.898843 -171.072 
L 257.581488 -171.072 
L 257.264132 -171.072 
L 256.946777 -171.072 
L 256.629421 -171.072 
L 256.312066 -171.072 
L 255.994711 -171.072 
L 255.677355 -171.072 
L 255.36 -171.072 
L 255.042645 -171.072 
L 254.725289 -171.072 
L 254.407934 -171.072 
L 254.090579 -171.072 
L 253.773223 -171.072 
L 253.455868 -171.072 
L 253.138512 -171.072 
L 252.821157 -171.072 
L 252.503802 -171.072 
L 252.186446 -171.072 
L 251.869091 -171.072 
L 251.551736 -171.072 
L 251.23438 -171.072 
L 250.917025 -171.072 
L 250.599669 -171.072 
L 250.282314 -171.072 
L 249.964959 -171.072 
L 249.647603 -171.072 
L 249.330248 -171.072 
L 249.012893 -171.072 
L 248.695537 -171.072 
L 248.378182 -171.072 
L 248.060826 -171.072 
L 247.743471 -171.072 
L 247.426116 -171.072 
L 247.10876 -171.072 
L 246.791405 -171.072 
L 246.47405 -171.072 
L 246.156694 -171.072 
L 245.839339 -171.072 
L 245.521983 -171.072 
L 245.204628 -171.072 
L 244.887273 -171.072 
L 244.569917 -171.072 
L 244.252562 -171.072 
L 243.935207 -171.072 
L 243.617851 -171.072 
L 243.300496 -171.072 
L 242.98314 -171.072 
L 242.665785 -171.072 
L 242.34843 -171.072 
L 242.031074 -171.072 
L 241.713719 -171.072 
L 241.396364 -171.072 
L 241.079008 -171.072 
L 240.761653 -171.072 
L 240.444298 -171.072 
L 240.126942 -171.072 
L 239.809587 -171.072 
L 239.492231 -171.072 
L 239.174876 -171.072 
L 238.857521 -171.072 
L 238.540165 -171.072 
L 238.22281 -171.072 
L 237.905455 -171.072 
L 237.588099 -171.072 
L 237.270744 -171.072 
L 236.953388 -171.072 
L 236.636033 -171.072 
L 236.318678 -171.072 
L 236.001322 -171.072 
L 235.683967 -171.072 
L 235.366612 -171.072 
L 235.049256 -171.072 
L 234.731901 -171.072 
L 234.414545 -171.072 
L 234.09719 -171.072 
L 233.779835 -171.072 
L 233.462479 -171.072 
L 233.145124 -171.072 
L 232.827769 -171.072 
L 232.510413 -171.072 
L 232.193058 -171.072 
L 231.875702 -171.072 
L 231.558347 -171.072 
L 231.240992 -171.072 
L 230.923636 -171.072 
L 230.606281 -171.072 
L 230.288926 -171.072 
L 229.97157 -171.072 
L 229.654215 -171.072 
L 229.33686 -171.072 
L 229.019504 -171.072 
L 228.702149 -171.072 
L 228.384793 -171.072 
L 228.067438 -171.072 
L 227.750083 -171.072 
L 227.432727 -171.072 
L 227.115372 -171.072 
L 226.798017 -171.072 
L 226.480661 -171.072 
L 226.163306 -171.072 
L 225.84595 -171.072 
L 225.528595 -171.072 
L 225.21124 -171.072 
L 224.893884 -171.072 
L 224.576529 -171.072 
L 224.259174 -171.072 
L 223.941818 -171.072 
L 223.624463 -171.072 
L 223.307107 -171.072 
L 222.989752 -171.072 
L 222.672397 -171.072 
L 222.355041 -171.072 
L 222.037686 -171.072 
L 221.720331 -171.072 
L 221.402975 -171.072 
L 221.08562 -171.072 
L 220.768264 -171.072 
L 220.450909 -171.072 
L 220.133554 -171.072 
L 219.816198 -171.072 
L 219.498843 -171.072 
L 219.181488 -171.072 
L 218.864132 -171.072 
L 218.546777 -171.072 
L 218.229421 -171.072 
L 217.912066 -171.072 
L 217.594711 -171.072 
L 217.277355 -171.072 
L 216.96 -171.072 
L 216.642645 -171.072 
L 216.325289 -171.072 
L 216.007934 -171.072 
L 215.690579 -171.072 
L 215.373223 -171.072 
L 215.055868 -171.072 
L 214.738512 -171.072 
L 214.421157 -171.072 
L 214.103802 -171.072 
L 213.786446 -171.072 
L 213.469091 -171.072 
L 213.151736 -171.072 
L 212.83438 -171.072 
L 212.517025 -171.072 
L 212.199669 -171.072 
L 211.882314 -171.072 
L 211.564959 -171.072 
L 211.247603 -171.072 
L 210.930248 -171.072 
L 210.612893 -171.072 
L 210.295537 -171.072 
L 209.978182 -171.072 
L 209.660826 -171.072 
L 209.343471 -171.072 
L 209.026116 -171.072 
L 208.70876 -171.072 
L 208.391405 -171.072 
L 208.07405 -171.072 
L 207.756694 -171.072 
L 207.439339 -171.072 
L 207.121983 -171.072 
L 206.804628 -171.072 
L 206.487273 -171.072 
L 206.169917 -171.072 
L 205.852562 -171.072 
L 205.535207 -171.072 
L 205.217851 -171.072 
L 204.900496 -171.072 
L 204.58314 -171.072 
L 204.265785 -171.072 
L 203.94843 -171.072 
L 203.631074 -171.072 
L 203.313719 -171.072 
L 202.996364 -171.072 
L 202.679008 -171.072 
L 202.361653 -171.072 
L 202.044298 -171.072 
L 201.726942 -171.072 
L 201.409587 -171.072 
L 201.092231 -171.072 
L 200.774876 -171.072 
L 200.457521 -171.072 
L 200.140165 -171.072 
L 199.82281 -171.072 
L 199.505455 -171.072 
L 199.188099 -171.072 
L 198.870744 -171.072 
L 198.553388 -171.072 
L 198.236033 -171.072 
L 197.918678 -171.072 
L 197.601322 -171.072 
L 197.283967 -171.072 
L 196.966612 -171.072 
L 196.649256 -171.072 
L 196.331901 -171.072 
L 196.014545 -171.072 
L 195.69719 -171.072 
L 195.379835 -171.072 
L 195.062479 -171.072 
L 194.745124 -171.072 
L 194.427769 -171.072 
L 194.110413 -171.072 
L 193.793058 -171.072 
L 193.475702 -171.072 
L 193.158347 -171.072 
L 192.840992 -171.072 
L 192.523636 -171.072 
L 192.206281 -171.072 
L 191.888926 -171.072 
L 191.57157 -171.072 
L 191.254215 -171.072 
L 190.93686 -171.072 
L 190.619504 -171.072 
L 190.302149 -171.072 
L 189.984793 -171.072 
L 189.667438 -171.072 
L 189.350083 -171.072 
L 189.032727 -171.072 
L 188.715372 -171.072 
L 188.398017 -171.072 
L 188.080661 -171.072 
L 187.763306 -171.072 
L 187.44595 -171.072 
L 187.128595 -171.072 
L 186.81124 -171.072 
L 186.493884 -171.072 
L 186.176529 -171.072 
L 185.859174 -171.072 
L 185.541818 -171.072 
L 185.224463 -171.072 
L 184.907107 -171.072 
L 184.589752 -171.072 
L 184.272397 -171.072 
L 183.955041 -171.072 
L 183.637686 -171.072 
L 183.320331 -171.072 
L 183.002975 -171.072 
L 182.68562 -171.072 
L 182.368264 -171.072 
L 182.050909 -171.072 
L 181.733554 -171.072 
L 181.416198 -171.072 
L 181.098843 -171.072 
L 180.781488 -171.072 
L 180.464132 -171.072 
L 180.146777 -171.072 
L 179.829421 -171.072 
L 179.512066 -171.072 
L 179.194711 -171.072 
L 178.877355 -171.072 
L 178.56 -171.072 
L 178.242645 -171.072 
L 177.925289 -171.072 
L 177.607934 -171.072 
L 177.290579 -171.072 
L 176.973223 -171.072 
L 176.655868 -171.072 
L 176.338512 -171.072 
L 176.021157 -171.072 
L 175.703802 -171.072 
L 175.386446 -171.072 
L 175.069091 -171.072 
L 174.751736 -171.072 
L 174.43438 -171.072 
L 174.117025 -171.072 
L 173.799669 -171.072 
L 173.482314 -171.072 
L 173.164959 -171.072 
L 172.847603 -171.072 
L 172.530248 -171.072 
L 172.212893 -171.072 
L 171.895537 -171.072 
L 171.578182 -171.072 
L 171.260826 -171.072 
L 170.943471 -171.072 
L 170.626116 -171.072 
L 170.30876 -171.072 
L 169.991405 -171.072 
L 169.67405 -171.072 
L 169.356694 -171.072 
L 169.039339 -171.072 
L 168.721983 -171.072 
L 168.404628 -171.072 
L 168.087273 -171.072 
L 167.769917 -171.072 
L 167.452562 -171.072 
L 167.135207 -171.072 
L 166.817851 -171.072 
L 166.500496 -171.072 
L 166.18314 -171.072 
L 165.865785 -171.072 
L 165.54843 -171.072 
L 165.231074 -171.072 
L 164.913719 -171.072 
L 164.596364 -171.072 
L 164.279008 -171.072 
L 163.961653 -171.072 
L 163.644298 -171.072 
L 163.326942 -171.072 
L 163.009587 -171.072 
L 162.692231 -171.072 
L 162.374876 -171.072 
L 162.057521 -171.072 
L 161.740165 -171.072 
L 161.42281 -171.072 
L 161.105455 -171.072 
L 160.788099 -171.072 
L 160.470744 -171.072 
L 160.153388 -171.072 
L 159.836033 -171.072 
L 159.518678 -171.072 
L 159.201322 -171.072 
L 158.883967 -171.072 
L 158.566612 -171.072 
L 158.249256 -171.072 
L 157.931901 -171.072 
L 157.614545 -171.072 
L 157.29719 -171.072 
L 156.979835 -171.072 
L 156.662479 -171.072 
L 156.345124 -171.072 
L 156.027769 -171.072 
L 155.710413 -171.072 
L 155.393058 -171.072 
L 155.075702 -171.072 
L 154.758347 -171.072 
L 154.440992 -171.072 
L 154.123636 -171.072 
L 153.806281 -171.072 
L 153.488926 -171.072 
L 153.17157 -171.072 
L 152.854215 -171.072 
L 152.53686 -171.072 
L 152.219504 -171.072 
L 151.902149 -171.072 
L 151.584793 -171.072 
L 151.267438 -171.072 
L 150.950083 -171.072 
L 150.632727 -171.072 
L 150.315372 -171.072 
L 149.998017 -171.072 
L 149.680661 -171.072 
L 149.363306 -171.072 
L 149.04595 -171.072 
L 148.728595 -171.072 
L 148.41124 -171.072 
L 148.093884 -171.072 
L 147.776529 -171.072 
L 147.459174 -171.072 
L 147.141818 -171.072 
L 146.824463 -171.072 
L 146.507107 -171.072 
L 146.189752 -171.072 
L 145.872397 -171.072 
L 145.555041 -171.072 
L 145.237686 -171.072 
L 144.920331 -171.072 
L 144.602975 -171.072 
L 144.28562 -171.072 
L 143.968264 -171.072 
L 143.650909 -171.072 
L 143.333554 -171.072 
L 143.016198 -171.072 
L 142.698843 -171.072 
L 142.381488 -171.072 
L 142.064132 -171.072 
L 141.746777 -171.072 
L 141.429421 -171.072 
L 141.112066 -171.072 
L 140.794711 -171.072 
L 140.477355 -171.072 
L 140.16 -171.072 
L 139.842645 -171.072 
L 139.525289 -171.072 
L 139.207934 -171.072 
L 138.890579 -171.072 
L 138.573223 -171.072 
L 138.255868 -171.072 
L 137.938512 -171.072 
L 137.621157 -171.072 
L 137.303802 -171.072 
L 136.986446 -171.072 
L 136.669091 -171.072 
L 136.351736 -171.072 
L 136.03438 -171.072 
L 135.717025 -171.072 
L 135.399669 -171.072 
L 135.082314 -171.072 
L 134.764959 -171.072 
L 134.447603 -171.072 
L 134.130248 -171.072 
L 133.812893 -171.072 
L 133.495537 -171.072 
L 133.178182 -171.072 
L 132.860826 -171.072 
L 132.543471 -171.072 
L 132.226116 -171.072 
L 131.90876 -171.072 
L 131.591405 -171.072 
L 131.27405 -171.072 
L 130.956694 -171.072 
L 130.639339 -171.072 
L 130.321983 -171.072 
L 130.004628 -171.072 
L 129.687273 -171.072 
L 129.369917 -171.072 
L 129.052562 -171.072 
L 128.735207 -171.072 
L 128.417851 -171.072 
L 128.100496 -171.072 
L 127.78314 -171.072 
L 127.465785 -171.072 
L 127.14843 -171.072 
L 126.831074 -171.072 
L 126.513719 -171.072 
L 126.196364 -171.072 
L 125.879008 -171.072 
L 125.561653 -171.072 
L 125.244298 -171.072 
L 124.926942 -171.072 
L 124.609587 -171.072 
L 124.292231 -171.072 
L 123.974876 -171.072 
L 123.657521 -171.072 
L 123.340165 -171.072 
L 123.02281 -171.072 
L 122.705455 -171.072 
L 122.388099 -171.072 
L 122.070744 -171.072 
L 121.753388 -171.072 
L 121.436033 -171.072 
L 121.118678 -171.072 
L 120.801322 -171.072 
L 120.483967 -171.072 
L 120.166612 -171.072 
L 119.849256 -171.072 
L 119.531901 -171.072 
L 119.214545 -171.072 
L 118.89719 -171.072 
L 118.579835 -171.072 
L 118.262479 -171.072 
L 117.945124 -171.072 
L 117.627769 -171.072 
L 117.310413 -171.072 
L 116.993058 -171.072 
L 116.675702 -171.072 
L 116.358347 -171.072 
L 116.040992 -171.072 
L 115.723636 -171.072 
L 115.406281 -171.072 
L 115.088926 -171.072 
L 114.77157 -171.072 
L 114.454215 -171.072 
L 114.13686 -171.072 
L 113.819504 -171.072 
L 113.502149 -171.072 
L 113.184793 -171.072 
L 112.867438 -171.072 
L 112.550083 -171.072 
L 112.232727 -171.072 
L 111.915372 -171.072 
L 111.598017 -171.072 
L 111.280661 -171.072 
L 110.963306 -171.072 
L 110.64595 -171.072 
L 110.328595 -171.072 
L 110.01124 -171.072 
L 109.693884 -171.072 
L 109.376529 -171.072 
L 109.059174 -171.072 
L 108.741818 -171.072 
L 108.424463 -171.072 
L 108.107107 -171.072 
L 107.789752 -171.072 
L 107.472397 -171.072 
L 107.155041 -171.072 
L 106.837686 -171.072 
L 106.520331 -171.072 
L 106.202975 -171.072 
L 105.88562 -171.072 
L 105.568264 -171.072 
L 105.250909 -171.072 
L 104.933554 -171.072 
L 104.616198 -171.072 
L 104.298843 -171.072 
L 103.981488 -171.072 
L 103.664132 -171.072 
L 103.346777 -171.072 
L 103.029421 -171.072 
L 102.712066 -171.072 
L 102.394711 -171.072 
L 102.077355 -171.072 
L 101.76 -171.072 
L 101.442645 -171.072 
L 101.125289 -171.072 
L 100.807934 -171.072 
L 100.490579 -171.072 
L 100.173223 -171.072 
L 99.855868 -171.072 
L 99.538512 -171.072 
L 99.221157 -171.072 
L 98.903802 -171.072 
L 98.586446 -171.072 
L 98.269091 -171.072 
L 97.951736 -171.072 
L 97.63438 -171.072 
L 97.317025 -171.072 
L 96.999669 -171.072 
L 96.682314 -171.072 
L 96.364959 -171.072 
L 96.047603 -171.072 
L 95.730248 -171.072 
L 95.412893 -171.072 
L 95.095537 -171.072 
L 94.778182 -171.072 
L 94.460826 -171.072 
L 94.143471 -171.072 
L 93.826116 -171.072 
L 93.50876 -171.072 
L 93.191405 -171.072 
L 92.87405 -171.072 
L 92.556694 -171.072 
L 92.239339 -171.072 
L 91.921983 -171.072 
L 91.604628 -171.072 
L 91.287273 -171.072 
L 90.969917 -171.072 
L 90.652562 -171.072 
L 90.335207 -171.072 
L 90.017851 -171.072 
L 89.700496 -171.072 
L 89.38314 -171.072 
L 89.065785 -171.072 
L 88.74843 -171.072 
L 88.431074 -171.072 
L 88.113719 -171.072 
L 87.796364 -171.072 
L 87.479008 -171.072 
L 87.161653 -171.072 
L 86.844298 -171.072 
L 86.526942 -171.072 
L 86.209587 -171.072 
L 85.892231 -171.072 
L 85.574876 -171.072 
L 85.257521 -171.072 
L 84.940165 -171.072 
L 84.62281 -171.072 
L 84.305455 -171.072 
L 83.988099 -171.072 
L 83.670744 -171.072 
L 83.353388 -171.072 
L 83.036033 -171.072 
L 82.718678 -171.072 
L 82.401322 -171.072 
L 82.083967 -171.072 
L 81.766612 -171.072 
L 81.449256 -171.072 
L 81.131901 -171.072 
L 80.814545 -171.072 
L 80.49719 -171.072 
L 80.179835 -171.072 
L 79.862479 -171.072 
L 79.545124 -171.072 
L 79.227769 -171.072 
L 78.910413 -171.072 
L 78.593058 -171.072 
L 78.275702 -171.072 
L 77.958347 -171.072 
L 77.640992 -171.072 
L 77.323636 -171.072 
L 77.006281 -171.072 
L 76.688926 -171.072 
L 76.37157 -171.072 
L 76.054215 -171.072 
L 75.73686 -171.072 
L 75.419504 -171.072 
L 75.102149 -171.072 
L 74.784793 -171.072 
L 74.467438 -171.072 
L 74.150083 -171.072 
L 73.832727 -171.072 
z
" style="stroke: #87ceeb; stroke-opacity: 0.75"/>
    </defs>
    <g clip-path="url(#p54f1c229cf)">
     <use xlink:href="#m362d1b9f94" x="0" y="345.6" style="fill: #87ceeb; fill-opacity: 0.75; stroke: #87ceeb; stroke-opacity: 0.75"/>
    </g>
   </g>
   <g id="matplotlib.axis_1">
    <g id="xtick_1">
     <g id="line2d_1">
      <defs>
       <path id="m6cc9982602" d="M 0 0 
L 0 3.5 
" style="stroke: #000000; stroke-width: 0.8"/>
      </defs>
      <g>
       <use xlink:href="#m6cc9982602" x="73.832727" y="307.584" style="stroke: #000000; stroke-width: 0.8"/>
      </g>
     </g>
     <g id="text_1">
      <!-- 0 -->
      <g transform="translate(70.531868 322.161969) scale(0.11 -0.11)">
       <defs>
        <path id="AndaleMono-30" d="M 1913 4494 
Q 2613 4494 2989 3892 
Q 3366 3291 3366 2203 
Q 3366 1150 3000 533 
Q 2634 -84 1913 -84 
Q 1216 -84 837 516 
Q 459 1116 459 2203 
Q 459 3259 826 3876 
Q 1194 4494 1913 4494 
z
M 1913 366 
Q 2375 366 2598 805 
Q 2822 1244 2822 2203 
Q 2822 3166 2598 3602 
Q 2375 4038 1913 4038 
Q 1456 4038 1231 3591 
Q 1006 3144 1006 2203 
Q 1006 1250 1229 808 
Q 1453 366 1913 366 
z
M 1900 2672 
Q 2097 2672 2233 2536 
Q 2369 2400 2369 2203 
Q 2369 2000 2231 1854 
Q 2094 1709 1900 1709 
Q 1709 1709 1573 1854 
Q 1438 2000 1438 2203 
Q 1438 2403 1570 2537 
Q 1703 2672 1900 2672 
z
" transform="scale(0.015625)"/>
       </defs>
       <use xlink:href="#AndaleMono-30"/>
      </g>
     </g>
    </g>
    <g id="xtick_2">
     <g id="line2d_2">
      <g>
       <use xlink:href="#m6cc9982602" x="137.303802" y="307.584" style="stroke: #000000; stroke-width: 0.8"/>
      </g>
     </g>
     <g id="text_2">
      <!-- 200 -->
      <g transform="translate(127.401224 322.161969) scale(0.11 -0.11)">
       <defs>
        <path id="AndaleMono-32" d="M 3066 0 
L 641 0 
L 641 372 
Q 1563 1400 1838 1750 
Q 2113 2100 2284 2484 
Q 2456 2869 2456 3250 
Q 2456 3619 2232 3831 
Q 2009 4044 1606 4044 
Q 1297 4044 775 3853 
L 703 4294 
Q 1175 4494 1691 4494 
Q 2281 4494 2642 4161 
Q 3003 3828 3003 3272 
Q 3003 2875 2817 2484 
Q 2631 2094 2340 1734 
Q 2050 1375 1209 447 
L 3066 447 
L 3066 0 
z
" transform="scale(0.015625)"/>
       </defs>
       <use xlink:href="#AndaleMono-32"/>
       <use xlink:href="#AndaleMono-30" x="60.009766"/>
       <use xlink:href="#AndaleMono-30" x="120.019531"/>
      </g>
     </g>
    </g>
    <g id="xtick_3">
     <g id="line2d_3">
      <g>
       <use xlink:href="#m6cc9982602" x="200.774876" y="307.584" style="stroke: #000000; stroke-width: 0.8"/>
      </g>
     </g>
     <g id="text_3">
      <!-- 400 -->
      <g transform="translate(190.872298 322.161969) scale(0.11 -0.11)">
       <defs>
        <path id="AndaleMono-34" d="M 3353 1019 
L 2809 1019 
L 2809 0 
L 2297 0 
L 2297 1019 
L 378 1019 
L 378 1409 
L 2119 4409 
L 2809 4409 
L 2809 1466 
L 3353 1466 
L 3353 1019 
z
M 2297 1466 
L 2297 3903 
L 897 1466 
L 2297 1466 
z
" transform="scale(0.015625)"/>
       </defs>
       <use xlink:href="#AndaleMono-34"/>
       <use xlink:href="#AndaleMono-30" x="60.009766"/>
       <use xlink:href="#AndaleMono-30" x="120.019531"/>
      </g>
     </g>
    </g>
    <g id="xtick_4">
     <g id="line2d_4">
      <g>
       <use xlink:href="#m6cc9982602" x="264.24595" y="307.584" style="stroke: #000000; stroke-width: 0.8"/>
      </g>
     </g>
     <g id="text_4">
      <!-- 600 -->
      <g transform="translate(254.343372 322.161969) scale(0.11 -0.11)">
       <defs>
        <path id="AndaleMono-36" d="M 1131 2297 
Q 1544 2631 2028 2631 
Q 2588 2631 2961 2273 
Q 3334 1916 3334 1350 
Q 3334 728 3003 322 
Q 2672 -84 2119 -84 
Q 1413 -84 1000 564 
Q 588 1213 588 2150 
Q 588 3150 1017 3822 
Q 1447 4494 2194 4494 
Q 2709 4494 3084 4341 
L 3003 3884 
Q 2569 4044 2209 4044 
Q 1700 4044 1415 3556 
Q 1131 3069 1131 2297 
z
M 1147 1856 
Q 1147 1291 1412 828 
Q 1678 366 2081 366 
Q 2422 366 2606 616 
Q 2791 866 2791 1306 
Q 2791 1713 2587 1947 
Q 2384 2181 2016 2181 
Q 1538 2181 1147 1856 
z
" transform="scale(0.015625)"/>
       </defs>
       <use xlink:href="#AndaleMono-36"/>
       <use xlink:href="#AndaleMono-30" x="60.009766"/>
       <use xlink:href="#AndaleMono-30" x="120.019531"/>
      </g>
     </g>
    </g>
    <g id="xtick_5">
     <g id="line2d_5">
      <g>
       <use xlink:href="#m6cc9982602" x="327.717025" y="307.584" style="stroke: #000000; stroke-width: 0.8"/>
      </g>
     </g>
     <g id="text_5">
      <!-- 800 -->
      <g transform="translate(317.814447 322.161969) scale(0.11 -0.11)">
       <defs>
        <path id="AndaleMono-38" d="M 2363 2419 
Q 2813 2288 3061 1972 
Q 3309 1656 3309 1234 
Q 3309 628 2907 272 
Q 2506 -84 1919 -84 
Q 1303 -84 908 275 
Q 513 634 513 1228 
Q 513 1647 769 1965 
Q 1025 2284 1484 2419 
Q 1119 2513 898 2780 
Q 678 3047 678 3378 
Q 678 3803 1015 4148 
Q 1353 4494 1906 4494 
Q 2453 4494 2811 4150 
Q 3169 3806 3169 3378 
Q 3169 3056 2944 2786 
Q 2719 2516 2363 2419 
z
M 1906 2631 
Q 1922 2631 2056 2668 
Q 2191 2706 2286 2761 
Q 2381 2816 2462 2900 
Q 2544 2984 2594 3098 
Q 2644 3213 2644 3353 
Q 2644 3653 2428 3851 
Q 2213 4050 1906 4050 
Q 1609 4050 1396 3847 
Q 1184 3644 1184 3353 
Q 1184 3169 1261 3031 
Q 1338 2894 1452 2809 
Q 1566 2725 1714 2678 
Q 1863 2631 1906 2631 
z
M 1906 2194 
Q 1050 1944 1050 1253 
Q 1050 850 1309 608 
Q 1569 366 1919 366 
Q 2281 366 2529 605 
Q 2778 844 2778 1253 
Q 2778 1563 2606 1808 
Q 2434 2053 1906 2194 
z
" transform="scale(0.015625)"/>
       </defs>
       <use xlink:href="#AndaleMono-38"/>
       <use xlink:href="#AndaleMono-30" x="60.009766"/>
       <use xlink:href="#AndaleMono-30" x="120.019531"/>
      </g>
     </g>
    </g>
    <g id="xtick_6">
     <g id="line2d_6">
      <g>
       <use xlink:href="#m6cc9982602" x="391.188099" y="307.584" style="stroke: #000000; stroke-width: 0.8"/>
      </g>
     </g>
     <g id="text_6">
      <!-- 1000 -->
      <g transform="translate(377.984662 322.161969) scale(0.11 -0.11)">
       <defs>
        <path id="AndaleMono-31" d="M 3181 0 
L 863 0 
L 863 447 
L 1797 447 
L 1797 3872 
L 916 3431 
L 916 3944 
L 1869 4434 
L 2309 4434 
L 2309 447 
L 3181 447 
L 3181 0 
z
" transform="scale(0.015625)"/>
       </defs>
       <use xlink:href="#AndaleMono-31"/>
       <use xlink:href="#AndaleMono-30" x="60.009766"/>
       <use xlink:href="#AndaleMono-30" x="120.019531"/>
       <use xlink:href="#AndaleMono-30" x="180.029297"/>
      </g>
     </g>
    </g>
   </g>
   <g id="matplotlib.axis_2">
    <g id="ytick_1">
     <g id="line2d_7">
      <defs>
       <path id="m2891badd3c" d="M 0 0 
L -3.5 0 
" style="stroke: #000000; stroke-width: 0.8"/>
      </defs>
      <g>
       <use xlink:href="#m2891badd3c" x="57.6" y="295.488" style="stroke: #000000; stroke-width: 0.8"/>
      </g>
     </g>
     <g id="text_7">
      <!-- 1.00 -->
      <g transform="translate(17.591406 299.276984) scale(0.11 -0.11)">
       <defs>
        <path id="AndaleMono-2212" d="M 3397 2047 
L 441 2047 
L 441 2456 
L 3397 2456 
L 3397 2047 
z
" transform="scale(0.015625)"/>
        <path id="AndaleMono-2e" d="M 1900 716 
Q 2066 716 2178 603 
Q 2291 491 2291 325 
Q 2291 156 2177 36 
Q 2063 -84 1900 -84 
Q 1741 -84 1628 36 
Q 1516 156 1516 325 
Q 1516 494 1627 605 
Q 1738 716 1900 716 
z
" transform="scale(0.015625)"/>
       </defs>
       <use xlink:href="#AndaleMono-2212"/>
       <use xlink:href="#AndaleMono-31" x="60.009766"/>
       <use xlink:href="#AndaleMono-2e" x="120.019531"/>
       <use xlink:href="#AndaleMono-30" x="180.029297"/>
       <use xlink:href="#AndaleMono-30" x="240.039062"/>
      </g>
     </g>
    </g>
    <g id="ytick_2">
     <g id="line2d_8">
      <g>
       <use xlink:href="#m2891badd3c" x="57.6" y="265.248" style="stroke: #000000; stroke-width: 0.8"/>
      </g>
     </g>
     <g id="text_8">
      <!-- 0.75 -->
      <g transform="translate(17.591406 269.036984) scale(0.11 -0.11)">
       <defs>
        <path id="AndaleMono-37" d="M 3238 4044 
L 1491 0 
L 966 0 
L 2688 3963 
L 622 3963 
L 622 4409 
L 3238 4409 
L 3238 4044 
z
" transform="scale(0.015625)"/>
        <path id="AndaleMono-35" d="M 1356 2631 
Q 1569 2688 1772 2688 
Q 2397 2688 2759 2305 
Q 3122 1922 3122 1350 
Q 3122 750 2700 333 
Q 2278 -84 1672 -84 
Q 1094 -84 703 109 
L 806 544 
Q 1231 366 1684 366 
Q 2088 366 2336 625 
Q 2584 884 2584 1350 
Q 2584 1791 2350 2028 
Q 2116 2266 1747 2266 
Q 1478 2266 1216 2163 
L 909 2303 
L 909 4409 
L 2925 4409 
L 2925 3963 
L 1356 3963 
L 1356 2631 
z
" transform="scale(0.015625)"/>
       </defs>
       <use xlink:href="#AndaleMono-2212"/>
       <use xlink:href="#AndaleMono-30" x="60.009766"/>
       <use xlink:href="#AndaleMono-2e" x="120.019531"/>
       <use xlink:href="#AndaleMono-37" x="180.029297"/>
       <use xlink:href="#AndaleMono-35" x="240.039062"/>
      </g>
     </g>
    </g>
    <g id="ytick_3">
     <g id="line2d_9">
      <g>
       <use xlink:href="#m2891badd3c" x="57.6" y="235.008" style="stroke: #000000; stroke-width: 0.8"/>
      </g>
     </g>
     <g id="text_9">
      <!-- 0.50 -->
      <g transform="translate(17.591406 238.796984) scale(0.11 -0.11)">
       <use xlink:href="#AndaleMono-2212"/>
       <use xlink:href="#AndaleMono-30" x="60.009766"/>
       <use xlink:href="#AndaleMono-2e" x="120.019531"/>
       <use xlink:href="#AndaleMono-35" x="180.029297"/>
       <use xlink:href="#AndaleMono-30" x="240.039062"/>
      </g>
     </g>
    </g>
    <g id="ytick_4">
     <g id="line2d_10">
      <g>
       <use xlink:href="#m2891badd3c" x="57.6" y="204.768" style="stroke: #000000; stroke-width: 0.8"/>
      </g>
     </g>
     <g id="text_10">
      <!-- 0.25 -->
      <g transform="translate(17.591406 208.556984) scale(0.11 -0.11)">
       <use xlink:href="#AndaleMono-2212"/>
       <use xlink:href="#AndaleMono-30" x="60.009766"/>
       <use xlink:href="#AndaleMono-2e" x="120.019531"/>
       <use xlink:href="#AndaleMono-32" x="180.029297"/>
       <use xlink:href="#AndaleMono-35" x="240.039062"/>
      </g>
     </g>
    </g>
    <g id="ytick_5">
     <g id="line2d_11">
      <g>
       <use xlink:href="#m2891badd3c" x="57.6" y="174.528" style="stroke: #000000; stroke-width: 0.8"/>
      </g>
     </g>
     <g id="text_11">
      <!-- 0.00 -->
      <g transform="translate(24.193125 178.316984) scale(0.11 -0.11)">
       <use xlink:href="#AndaleMono-30"/>
       <use xlink:href="#AndaleMono-2e" x="60.009766"/>
       <use xlink:href="#AndaleMono-30" x="120.019531"/>
       <use xlink:href="#AndaleMono-30" x="180.029297"/>
      </g>
     </g>
    </g>
    <g id="ytick_6">
     <g id="line2d_12">
      <g>
       <use xlink:href="#m2891badd3c" x="57.6" y="144.288" style="stroke: #000000; stroke-width: 0.8"/>
      </g>
     </g>
     <g id="text_12">
      <!-- 0.25 -->
      <g transform="translate(24.193125 148.076984) scale(0.11 -0.11)">
       <use xlink:href="#AndaleMono-30"/>
       <use xlink:href="#AndaleMono-2e" x="60.009766"/>
       <use xlink:href="#AndaleMono-32" x="120.019531"/>
       <use xlink:href="#AndaleMono-35" x="180.029297"/>
      </g>
     </g>
    </g>
    <g id="ytick_7">
     <g id="line2d_13">
      <g>
       <use xlink:href="#m2891badd3c" x="57.6" y="114.048" style="stroke: #000000; stroke-width: 0.8"/>
      </g>
     </g>
     <g id="text_13">
      <!-- 0.50 -->
      <g transform="translate(24.193125 117.836984) scale(0.11 -0.11)">
       <use xlink:href="#AndaleMono-30"/>
       <use xlink:href="#AndaleMono-2e" x="60.009766"/>
       <use xlink:href="#AndaleMono-35" x="120.019531"/>
       <use xlink:href="#AndaleMono-30" x="180.029297"/>
      </g>
     </g>
    </g>
    <g id="ytick_8">
     <g id="line2d_14">
      <g>
       <use xlink:href="#m2891badd3c" x="57.6" y="83.808" style="stroke: #000000; stroke-width: 0.8"/>
      </g>
     </g>
     <g id="text_14">
      <!-- 0.75 -->
      <g transform="translate(24.193125 87.596984) scale(0.11 -0.11)">
       <use xlink:href="#AndaleMono-30"/>
       <use xlink:href="#AndaleMono-2e" x="60.009766"/>
       <use xlink:href="#AndaleMono-37" x="120.019531"/>
       <use xlink:href="#AndaleMono-35" x="180.029297"/>
      </g>
     </g>
    </g>
    <g id="ytick_9">
     <g id="line2d_15">
      <g>
       <use xlink:href="#m2891badd3c" x="57.6" y="53.568" style="stroke: #000000; stroke-width: 0.8"/>
      </g>
     </g>
     <g id="text_15">
      <!-- 1.00 -->
      <g transform="translate(24.193125 57.356984) scale(0.11 -0.11)">
       <use xlink:href="#AndaleMono-31"/>
       <use xlink:href="#AndaleMono-2e" x="60.009766"/>
       <use xlink:href="#AndaleMono-30" x="120.019531"/>
       <use xlink:href="#AndaleMono-30" x="180.029297"/>
      </g>
     </g>
    </g>
   </g>
   <g id="line2d_16">
    <path d="M 73.832727 174.528 
L 74.150083 174.380009 
L 80.814545 174.3736 
L 81.766612 174.654977 
L 83.036033 175.061033 
L 84.940165 175.238011 
L 85.892231 174.920314 
L 86.844298 174.305627 
L 87.796364 173.334733 
L 88.74843 172.031806 
L 90.017851 169.913174 
L 91.604628 166.748339 
L 97.317025 154.687227 
L 98.586446 152.721449 
L 99.538512 151.637458 
L 100.490579 150.947959 
L 101.125289 150.606009 
L 101.76 150.216313 
L 102.712066 149.471632 
L 103.346777 149.16117 
L 103.981488 148.912653 
L 104.616198 148.617638 
L 105.250909 148.548635 
L 106.202975 148.654396 
L 107.155041 149.169295 
L 107.789752 149.737036 
L 110.01124 152.473448 
L 111.598017 154.696298 
L 112.232727 155.343107 
L 112.867438 155.618053 
L 113.502149 155.607975 
L 114.13686 155.453964 
L 114.77157 154.986594 
L 115.406281 154.140755 
L 116.358347 152.344075 
L 117.310413 149.882206 
L 118.262479 146.940179 
L 119.531901 142.093666 
L 120.483967 137.453718 
L 123.340165 121.131057 
L 126.831074 101.124592 
L 132.226116 71.685445 
L 133.495537 65.911537 
L 134.764959 61.204139 
L 135.399669 59.404918 
L 136.351736 57.387556 
L 136.986446 56.294198 
L 137.938512 55.170412 
L 138.573223 54.616854 
L 139.207934 54.148758 
L 139.842645 53.652154 
L 140.477355 53.589048 
L 141.112066 53.830484 
L 142.381488 54.354919 
L 143.016198 54.634824 
L 143.968264 55.102824 
L 144.920331 55.500621 
L 146.189752 56.357786 
L 148.41124 56.745196 
L 149.04595 57.215818 
L 149.998017 58.0251 
L 150.632727 58.544778 
L 151.267438 59.377106 
L 152.219504 61.049919 
L 153.17157 63.168196 
L 155.075702 68.439045 
L 157.614545 76.396081 
L 159.836033 84.719233 
L 164.913719 106.18502 
L 169.356694 125.828838 
L 171.578182 134.513453 
L 173.482314 140.97717 
L 175.069091 145.295003 
L 176.655868 148.920438 
L 177.607934 150.687151 
L 179.194711 152.775175 
L 180.146777 153.681026 
L 182.050909 155.190064 
L 183.637686 155.991113 
L 185.541818 156.403216 
L 187.44595 156.401166 
L 189.032727 156.256772 
L 191.254215 156.040705 
L 193.158347 155.708389 
L 195.062479 155.195142 
L 200.457521 153.452392 
L 204.900496 152.69487 
L 206.169917 152.69444 
L 207.756694 152.958309 
L 208.70876 153.210968 
L 212.517025 154.026815 
L 214.738512 154.718175 
L 216.642645 155.637326 
L 220.450909 157.62076 
L 222.989752 159.149288 
L 224.893884 160.694621 
L 226.798017 162.499936 
L 229.654215 165.608235 
L 230.923636 167.268951 
L 235.366612 173.441797 
L 242.98314 183.81736 
L 244.252562 185.220674 
L 247.426116 188.361379 
L 249.964959 190.349631 
L 251.551736 191.256836 
L 255.042645 193.099574 
L 257.898843 194.461232 
L 261.707107 195.486062 
L 264.563306 196.097691 
L 265.515372 196.287734 
L 267.102149 196.384406 
L 269.006281 196.156364 
L 271.545124 195.664204 
L 273.766612 195.137259 
L 275.353388 194.551914 
L 278.209587 193.554553 
L 281.065785 193.015295 
L 283.287273 192.799228 
L 287.412893 192.733173 
L 289.317025 193.352689 
L 291.221157 194.54046 
L 293.125289 196.280825 
L 294.712066 198.368849 
L 295.664132 200.135562 
L 297.250909 203.760997 
L 299.155041 209.06295 
L 300.741818 214.542547 
L 302.328595 220.654846 
L 304.232727 228.733178 
L 307.088926 241.43264 
L 310.262479 255.403321 
L 313.118678 266.969942 
L 315.340165 274.881178 
L 316.609587 278.727568 
L 319.14843 285.887804 
L 320.100496 288.006081 
L 321.052562 289.678894 
L 321.687273 290.511222 
L 323.591405 292.108285 
L 324.226116 292.422141 
L 325.495537 292.568892 
L 326.447603 292.831019 
L 328.03438 293.848467 
L 328.986446 294.229779 
L 329.938512 294.701081 
L 332.16 295.488 
L 332.477355 295.403846 
L 334.064132 294.212653 
L 335.333554 292.761802 
L 336.28562 291.044389 
L 337.237686 288.818815 
L 338.189752 285.590535 
L 339.459174 280.441931 
L 340.41124 275.684953 
L 353.105455 205.647666 
L 354.374876 201.054306 
L 355.644298 197.453704 
L 356.596364 195.452755 
L 357.231074 194.450106 
L 357.865785 193.784727 
L 358.500496 193.501667 
L 359.452562 193.437947 
L 360.087273 193.712893 
L 360.721983 194.359702 
L 363.260826 197.786307 
L 365.164959 199.886705 
L 366.117025 200.401604 
L 367.069091 200.507365 
L 367.703802 200.438362 
L 369.290579 199.77029 
L 370.242645 199.109404 
L 370.877355 198.623591 
L 372.464132 197.694867 
L 373.416198 196.734842 
L 374.368264 195.418735 
L 375.637686 193.208902 
L 377.541818 189.294593 
L 381.984793 179.734986 
L 383.254215 177.517451 
L 384.523636 175.720246 
L 385.475702 174.748427 
L 386.427769 174.132515 
L 387.379835 173.81326 
L 388.014545 173.75756 
L 389.601322 174.066704 
L 392.140165 174.741952 
L 398.169917 174.679172 
L 398.487273 174.528 
L 398.487273 174.528 
" clip-path="url(#p54f1c229cf)" style="fill: none; stroke: #87ceeb; stroke-opacity: 0.75; stroke-linecap: square"/>
   </g>
   <g id="patch_3">
    <path d="M 57.6 307.584 
L 57.6 41.472 
" style="fill: none; stroke: #000000; stroke-width: 0.8; stroke-linejoin: miter; stroke-linecap: square"/>
   </g>
   <g id="patch_4">
    <path d="M 414.72 307.584 
L 414.72 41.472 
" style="fill: none; stroke: #000000; stroke-width: 0.8; stroke-linejoin: miter; stroke-linecap: square"/>
   </g>
   <g id="patch_5">
    <path d="M 57.6 307.584 
L 414.72 307.584 
" style="fill: none; stroke: #000000; stroke-width: 0.8; stroke-linejoin: miter; stroke-linecap: square"/>
   </g>
   <g id="patch_6">
    <path d="M 57.6 41.472 
L 414.72 41.472 
" style="fill: none; stroke: #000000; stroke-width: 0.8; stroke-linejoin: miter; stroke-linecap: square"/>
   </g>
  </g>
 </g>
 <defs>
  <clipPath id="p54f1c229cf">
   <rect x="57.6" y="41.472" width="357.12" height="266.112"/>
  </clipPath>
 </defs>
</svg>
