<?xml version="1.0" encoding="utf-8" standalone="no"?>
<!DOCTYPE svg PUBLIC "-//W3C//DTD SVG 1.1//EN"
  "http://www.w3.org/Graphics/SVG/1.1/DTD/svg11.dtd">
<svg xmlns:xlink="http://www.w3.org/1999/xlink" width="460.8pt" height="345.6pt" viewBox="0 0 460.8 345.6" xmlns="http://www.w3.org/2000/svg" version="1.1">
 <metadata>
  <rdf:RDF xmlns:dc="http://purl.org/dc/elements/1.1/" xmlns:cc="http://creativecommons.org/ns#" xmlns:rdf="http://www.w3.org/1999/02/22-rdf-syntax-ns#">
   <cc:Work>
    <dc:type rdf:resource="http://purl.org/dc/dcmitype/StillImage"/>
    <dc:date>2024-04-23T11:13:05.913443</dc:date>
    <dc:format>image/svg+xml</dc:format>
    <dc:creator>
     <cc:Agent>
      <dc:title>Matplotlib v3.8.3, https://matplotlib.org/</dc:title>
     </cc:Agent>
    </dc:creator>
   </cc:Work>
  </rdf:RDF>
 </metadata>
 <defs>
  <style type="text/css">*{stroke-linejoin: round; stroke-linecap: butt}</style>
 </defs>
 <g id="figure_1">
  <g id="patch_1">
   <path d="M 0 345.6 
L 460.8 345.6 
L 460.8 0 
L 0 0 
z
" style="fill: #ffffff"/>
  </g>
  <g id="axes_1">
   <g id="patch_2">
    <path d="M 57.6 307.584 
L 414.72 307.584 
L 414.72 41.472 
L 57.6 41.472 
z
" style="fill: #ffffff"/>
   </g>
   <g id="PolyCollection_1">
    <defs>
     <path id="m72b2e09ac9" d="M 73.832727 -171.072 
L 73.832727 -171.072 
L 74.150083 -205.187152 
L 74.467438 -206.304141 
L 74.784793 -207.380692 
L 75.102149 -208.409433 
L 75.419504 -209.455 
L 75.73686 -210.454894 
L 76.054215 -211.429029 
L 76.37157 -212.406223 
L 76.688926 -213.338891 
L 77.006281 -214.22728 
L 77.323636 -215.071841 
L 77.640992 -215.87244 
L 77.958347 -216.643265 
L 78.275702 -217.364105 
L 78.593058 -218.044615 
L 78.910413 -218.687926 
L 79.227769 -219.328101 
L 79.545124 -219.951597 
L 79.862479 -220.572343 
L 80.179835 -221.183528 
L 80.49719 -221.772571 
L 80.814545 -222.351994 
L 81.131901 -222.93836 
L 81.449256 -223.520503 
L 81.766612 -224.096081 
L 82.083967 -224.663351 
L 82.401322 -225.196168 
L 82.718678 -225.709978 
L 83.036033 -226.194106 
L 83.353388 -226.6457 
L 83.670744 -227.065622 
L 83.988099 -227.452816 
L 84.305455 -227.423221 
L 84.62281 -227.306945 
L 84.940165 -227.112125 
L 85.257521 -226.842779 
L 85.574876 -226.499515 
L 85.892231 -226.093004 
L 86.209587 -225.631842 
L 86.526942 -225.129847 
L 86.844298 -224.595093 
L 87.161653 -224.045828 
L 87.479008 -223.479879 
L 87.796364 -222.889099 
L 88.113719 -222.281822 
L 88.431074 -221.64657 
L 88.74843 -220.991272 
L 89.065785 -220.323047 
L 89.38314 -219.640663 
L 89.700496 -218.946701 
L 90.017851 -218.233652 
L 90.335207 -217.501364 
L 90.652562 -216.750443 
L 90.969917 -215.981254 
L 91.287273 -215.208549 
L 91.604628 -214.41774 
L 91.921983 -213.604492 
L 92.239339 -212.782435 
L 92.556694 -211.948948 
L 92.87405 -211.112212 
L 93.191405 -210.277016 
L 93.50876 -209.437436 
L 93.826116 -208.593112 
L 94.143471 -207.755045 
L 94.460826 -206.956001 
L 94.778182 -206.198699 
L 95.095537 -205.494538 
L 95.412893 -204.85375 
L 95.730248 -204.21166 
L 96.047603 -203.634809 
L 96.364959 -203.091602 
L 96.682314 -202.554002 
L 96.999669 -202.079433 
L 97.317025 -201.654624 
L 97.63438 -201.275937 
L 97.951736 -200.951622 
L 98.269091 -200.665404 
L 98.586446 -200.437094 
L 98.903802 -200.258638 
L 99.221157 -200.112956 
L 99.538512 -199.963142 
L 99.855868 -199.818057 
L 100.173223 -199.65558 
L 100.490579 -199.483625 
L 100.807934 -199.322626 
L 101.125289 -199.1629 
L 101.442645 -198.997769 
L 101.76 -198.844426 
L 102.077355 -198.700042 
L 102.394711 -198.578594 
L 102.712066 -198.517582 
L 103.029421 -198.492079 
L 103.346777 -198.521627 
L 103.664132 -198.610865 
L 103.981488 -198.758041 
L 104.298843 -198.963985 
L 104.616198 -199.215047 
L 104.933554 -199.503934 
L 105.250909 -199.819453 
L 105.568264 -200.155318 
L 105.88562 -200.512951 
L 106.202975 -200.880338 
L 106.520331 -201.269149 
L 106.837686 -201.663884 
L 107.155041 -202.071033 
L 107.472397 -202.449885 
L 107.789752 -202.799361 
L 108.107107 -203.146236 
L 108.424463 -203.47498 
L 108.741818 -203.799193 
L 109.059174 -204.110392 
L 109.376529 -204.40986 
L 109.693884 -204.696432 
L 110.01124 -204.963741 
L 110.328595 -205.224909 
L 110.64595 -205.478007 
L 110.963306 -205.725279 
L 111.280661 -205.970737 
L 111.598017 -206.194593 
L 111.915372 -206.421464 
L 112.232727 -206.667833 
L 112.550083 -206.913935 
L 112.867438 -207.161945 
L 113.184793 -207.403659 
L 113.502149 -207.631331 
L 113.819504 -207.855433 
L 114.13686 -208.084661 
L 114.454215 -208.308933 
L 114.77157 -208.524148 
L 115.088926 -208.722153 
L 115.406281 -208.881369 
L 115.723636 -208.996099 
L 116.040992 -209.0608 
L 116.358347 -209.069453 
L 116.675702 -209.035064 
L 116.993058 -208.954866 
L 117.310413 -208.813938 
L 117.627769 -208.637455 
L 117.945124 -208.426994 
L 118.262479 -208.170764 
L 118.579835 -207.870473 
L 118.89719 -207.526478 
L 119.214545 -207.134391 
L 119.531901 -206.71713 
L 119.849256 -206.28889 
L 120.166612 -205.863298 
L 120.483967 -205.451157 
L 120.801322 -205.055386 
L 121.118678 -204.675409 
L 121.436033 -204.312794 
L 121.753388 -203.960704 
L 122.070744 -203.611634 
L 122.388099 -203.273841 
L 122.705455 -202.929878 
L 123.02281 -202.564474 
L 123.340165 -202.189176 
L 123.657521 -201.791246 
L 123.974876 -201.367835 
L 124.292231 -200.915736 
L 124.609587 -200.439451 
L 124.926942 -199.937688 
L 125.244298 -199.412708 
L 125.561653 -198.874435 
L 125.879008 -198.331896 
L 126.196364 -197.790455 
L 126.513719 -197.250189 
L 126.831074 -196.696925 
L 127.14843 -196.127911 
L 127.465785 -195.520502 
L 127.78314 -194.919322 
L 128.100496 -194.320642 
L 128.417851 -193.712265 
L 128.735207 -193.113556 
L 129.052562 -192.524918 
L 129.369917 -191.941667 
L 129.687273 -191.361276 
L 130.004628 -190.783758 
L 130.321983 -190.228362 
L 130.639339 -189.69718 
L 130.956694 -189.197995 
L 131.27405 -188.731385 
L 131.591405 -188.292161 
L 131.90876 -187.888609 
L 132.226116 -187.511632 
L 132.543471 -187.146398 
L 132.860826 -186.799182 
L 133.178182 -186.467878 
L 133.495537 -186.161015 
L 133.812893 -185.8757 
L 134.130248 -185.600313 
L 134.447603 -185.334929 
L 134.764959 -185.083482 
L 135.082314 -184.851404 
L 135.399669 -184.645047 
L 135.717025 -184.477259 
L 136.03438 -184.34561 
L 136.351736 -184.242416 
L 136.669091 -184.155737 
L 136.986446 -184.08455 
L 137.303802 -184.067634 
L 137.621157 -184.080423 
L 137.938512 -184.120993 
L 138.255868 -184.184557 
L 138.573223 -184.250383 
L 138.890579 -184.321745 
L 139.207934 -184.445831 
L 139.525289 -184.622622 
L 139.842645 -184.836161 
L 140.16 -185.095701 
L 140.477355 -185.369727 
L 140.794711 -185.666196 
L 141.112066 -186.005394 
L 141.429421 -186.333088 
L 141.746777 -186.65104 
L 142.064132 -186.977059 
L 142.381488 -187.32228 
L 142.698843 -187.694134 
L 143.016198 -188.093828 
L 143.333554 -188.48555 
L 143.650909 -188.870741 
L 143.968264 -189.29957 
L 144.28562 -189.749121 
L 144.602975 -190.195751 
L 144.920331 -190.676014 
L 145.237686 -191.196387 
L 145.555041 -191.723528 
L 145.872397 -192.258438 
L 146.189752 -192.848742 
L 146.507107 -193.449172 
L 146.824463 -194.064014 
L 147.141818 -194.713802 
L 147.459174 -195.430769 
L 147.776529 -196.229079 
L 148.093884 -197.062201 
L 148.41124 -197.939247 
L 148.728595 -198.86658 
L 149.04595 -199.830579 
L 149.363306 -200.826929 
L 149.680661 -201.882888 
L 149.998017 -202.979776 
L 150.315372 -204.100954 
L 150.632727 -205.241757 
L 150.950083 -206.409621 
L 151.267438 -207.558744 
L 151.584793 -208.674778 
L 151.902149 -209.792604 
L 152.219504 -210.920963 
L 152.53686 -212.043169 
L 152.854215 -213.146228 
L 153.17157 -214.230355 
L 153.488926 -215.300126 
L 153.806281 -216.345507 
L 154.123636 -217.402269 
L 154.440992 -218.470696 
L 154.758347 -219.547668 
L 155.075702 -220.628963 
L 155.393058 -221.700974 
L 155.710413 -222.752798 
L 156.027769 -223.764025 
L 156.345124 -224.697495 
L 156.662479 -225.620412 
L 156.979835 -226.541656 
L 157.29719 -227.48332 
L 157.614545 -228.345621 
L 157.931901 -229.200018 
L 158.249256 -230.016684 
L 158.566612 -230.798945 
L 158.883967 -231.624071 
L 159.201322 -232.517911 
L 159.518678 -233.38561 
L 159.836033 -234.231082 
L 160.153388 -235.025104 
L 160.470744 -235.698683 
L 160.788099 -236.325708 
L 161.105455 -236.928006 
L 161.42281 -237.474449 
L 161.740165 -238.030892 
L 162.057521 -238.60183 
L 162.374876 -239.122027 
L 162.692231 -239.582794 
L 163.009587 -239.966577 
L 163.326942 -240.242962 
L 163.644298 -240.500923 
L 163.961653 -240.802293 
L 164.279008 -241.022939 
L 164.596364 -241.211385 
L 164.913719 -241.475688 
L 165.231074 -241.690497 
L 165.54843 -241.846796 
L 165.865785 -242.017052 
L 166.18314 -242.272688 
L 166.500496 -242.490062 
L 166.817851 -242.739482 
L 167.135207 -243.017512 
L 167.452562 -243.315871 
L 167.769917 -243.582996 
L 168.087273 -243.809364 
L 168.404628 -244.002628 
L 168.721983 -244.161849 
L 169.039339 -244.287539 
L 169.356694 -244.392234 
L 169.67405 -244.496344 
L 169.991405 -244.538653 
L 170.30876 -244.532808 
L 170.626116 -244.524384 
L 170.943471 -244.47053 
L 171.260826 -244.319421 
L 171.578182 -244.187809 
L 171.895537 -244.135282 
L 172.212893 -244.098487 
L 172.530248 -244.067953 
L 172.847603 -244.054506 
L 173.164959 -244.065727 
L 173.482314 -244.108567 
L 173.799669 -244.211748 
L 174.117025 -244.365442 
L 174.43438 -244.517788 
L 174.751736 -244.668523 
L 175.069091 -244.839179 
L 175.386446 -245.00409 
L 175.703802 -245.189204 
L 176.021157 -245.348178 
L 176.338512 -245.504066 
L 176.655868 -245.713613 
L 176.973223 -245.930457 
L 177.290579 -246.200715 
L 177.607934 -246.474149 
L 177.925289 -246.852471 
L 178.242645 -247.245667 
L 178.56 -247.674528 
L 178.877355 -248.123106 
L 179.194711 -248.4393 
L 179.512066 -248.629178 
L 179.829421 -248.823506 
L 180.146777 -249.016896 
L 180.464132 -249.331187 
L 180.781488 -249.802001 
L 181.098843 -250.308742 
L 181.416198 -250.853461 
L 181.733554 -251.443556 
L 182.050909 -252.084206 
L 182.368264 -252.734377 
L 182.68562 -253.446211 
L 183.002975 -254.220397 
L 183.320331 -255.024822 
L 183.637686 -255.937821 
L 183.955041 -256.918874 
L 184.272397 -257.814958 
L 184.589752 -258.762859 
L 184.907107 -259.776478 
L 185.224463 -260.717025 
L 185.541818 -261.728768 
L 185.859174 -262.856778 
L 186.176529 -264.055899 
L 186.493884 -265.200195 
L 186.81124 -266.398613 
L 187.128595 -267.597626 
L 187.44595 -268.832212 
L 187.763306 -270.009682 
L 188.080661 -271.177403 
L 188.398017 -272.330525 
L 188.715372 -273.511567 
L 189.032727 -274.713776 
L 189.350083 -275.910554 
L 189.667438 -277.06971 
L 189.984793 -278.154792 
L 190.302149 -279.239698 
L 190.619504 -280.314137 
L 190.93686 -281.374244 
L 191.254215 -282.473253 
L 191.57157 -283.664626 
L 191.888926 -284.855916 
L 192.206281 -285.955261 
L 192.523636 -286.99083 
L 192.840992 -287.896191 
L 193.158347 -288.662032 
L 193.475702 -289.351477 
L 193.793058 -289.972505 
L 194.110413 -290.462043 
L 194.427769 -290.894402 
L 194.745124 -291.253027 
L 195.062479 -291.509499 
L 195.379835 -291.636429 
L 195.69719 -291.715925 
L 196.014545 -291.720767 
L 196.331901 -291.776027 
L 196.649256 -291.851438 
L 196.966612 -291.94542 
L 197.283967 -292.021624 
L 197.601322 -292.032 
L 197.918678 -291.98455 
L 198.236033 -291.831616 
L 198.553388 -291.622974 
L 198.870744 -291.37377 
L 199.188099 -291.135568 
L 199.505455 -291.080826 
L 199.82281 -291.143723 
L 200.140165 -291.175244 
L 200.457521 -291.20966 
L 200.774876 -291.158793 
L 201.092231 -291.042158 
L 201.409587 -291.007922 
L 201.726942 -290.943222 
L 202.044298 -290.844135 
L 202.361653 -290.665504 
L 202.679008 -290.455887 
L 202.996364 -290.195474 
L 203.313719 -289.867031 
L 203.631074 -289.518777 
L 203.94843 -289.149294 
L 204.265785 -288.753003 
L 204.58314 -288.459133 
L 204.900496 -288.210926 
L 205.217851 -287.940625 
L 205.535207 -287.748736 
L 205.852562 -287.527567 
L 206.169917 -287.22796 
L 206.487273 -286.845896 
L 206.804628 -286.404304 
L 207.121983 -285.870318 
L 207.439339 -285.267741 
L 207.756694 -284.576491 
L 208.07405 -283.95983 
L 208.391405 -283.358271 
L 208.70876 -282.77394 
L 209.026116 -282.139466 
L 209.343471 -281.519209 
L 209.660826 -280.911592 
L 209.978182 -280.28957 
L 210.295537 -279.68506 
L 210.612893 -279.026177 
L 210.930248 -278.298407 
L 211.247603 -277.514072 
L 211.564959 -276.670227 
L 211.882314 -275.727003 
L 212.199669 -274.713471 
L 212.517025 -273.699164 
L 212.83438 -272.699271 
L 213.151736 -271.872368 
L 213.469091 -271.249023 
L 213.786446 -270.720208 
L 214.103802 -270.265416 
L 214.421157 -269.930554 
L 214.738512 -269.604918 
L 215.055868 -269.388108 
L 215.373223 -269.347939 
L 215.690579 -269.532629 
L 216.007934 -269.846126 
L 216.325289 -270.316103 
L 216.642645 -270.820581 
L 216.96 -271.450406 
L 217.277355 -272.153631 
L 217.594711 -272.961191 
L 217.912066 -273.843514 
L 218.229421 -274.812041 
L 218.546777 -275.84482 
L 218.864132 -276.909945 
L 219.181488 -277.954605 
L 219.498843 -278.993681 
L 219.816198 -279.995822 
L 220.133554 -280.998933 
L 220.450909 -282.079946 
L 220.768264 -283.137789 
L 221.08562 -284.12828 
L 221.402975 -285.104157 
L 221.720331 -285.901675 
L 222.037686 -286.586215 
L 222.355041 -287.139136 
L 222.672397 -287.526252 
L 222.989752 -287.706739 
L 223.307107 -287.744548 
L 223.624463 -287.630002 
L 223.941818 -287.380985 
L 224.259174 -286.923841 
L 224.576529 -286.315337 
L 224.893884 -285.536211 
L 225.21124 -284.536654 
L 225.528595 -283.368808 
L 225.84595 -281.948488 
L 226.163306 -280.345989 
L 226.480661 -278.570776 
L 226.798017 -276.607375 
L 227.115372 -274.525377 
L 227.432727 -272.298796 
L 227.750083 -269.976156 
L 228.067438 -267.524258 
L 228.384793 -264.797778 
L 228.702149 -261.867217 
L 229.019504 -258.715193 
L 229.33686 -255.411879 
L 229.654215 -251.849865 
L 229.97157 -248.069907 
L 230.288926 -244.178612 
L 230.606281 -240.187014 
L 230.923636 -236.148421 
L 231.240992 -232.174686 
L 231.558347 -228.17429 
L 231.875702 -224.178649 
L 232.193058 -220.28481 
L 232.510413 -216.471348 
L 232.827769 -212.707785 
L 233.145124 -208.940897 
L 233.462479 -205.03125 
L 233.779835 -201.001597 
L 234.09719 -196.938823 
L 234.414545 -192.881538 
L 234.731901 -188.827011 
L 235.049256 -184.861922 
L 235.366612 -180.925347 
L 235.683967 -177.026436 
L 236.001322 -173.051991 
L 236.318678 -169.092009 
L 236.636033 -165.117564 
L 236.953388 -161.218653 
L 237.270744 -157.282078 
L 237.588099 -153.316989 
L 237.905455 -149.262462 
L 238.22281 -145.205177 
L 238.540165 -141.142403 
L 238.857521 -137.11275 
L 239.174876 -133.203103 
L 239.492231 -129.436215 
L 239.809587 -125.672652 
L 240.126942 -121.85919 
L 240.444298 -117.965351 
L 240.761653 -113.96971 
L 241.079008 -109.969314 
L 241.396364 -105.995579 
L 241.713719 -101.956986 
L 242.031074 -97.965388 
L 242.34843 -94.074093 
L 242.665785 -90.294135 
L 242.98314 -86.732121 
L 243.300496 -83.428807 
L 243.617851 -80.276783 
L 243.935207 -77.346222 
L 244.252562 -74.619742 
L 244.569917 -72.167844 
L 244.887273 -69.845204 
L 245.204628 -67.618623 
L 245.521983 -65.536625 
L 245.839339 -63.573224 
L 246.156694 -61.798011 
L 246.47405 -60.195512 
L 246.791405 -58.775192 
L 247.10876 -57.607346 
L 247.426116 -56.607789 
L 247.743471 -55.828663 
L 248.060826 -55.220159 
L 248.378182 -54.763015 
L 248.695537 -54.513998 
L 249.012893 -54.399452 
L 249.330248 -54.437261 
L 249.647603 -54.617748 
L 249.964959 -55.004864 
L 250.282314 -55.557785 
L 250.599669 -56.242325 
L 250.917025 -57.039843 
L 251.23438 -58.01572 
L 251.551736 -59.006211 
L 251.869091 -60.064054 
L 252.186446 -61.145067 
L 252.503802 -62.148178 
L 252.821157 -63.150319 
L 253.138512 -64.189395 
L 253.455868 -65.234055 
L 253.773223 -66.29918 
L 254.090579 -67.331959 
L 254.407934 -68.300486 
L 254.725289 -69.182809 
L 255.042645 -69.990369 
L 255.36 -70.693594 
L 255.677355 -71.323419 
L 255.994711 -71.827897 
L 256.312066 -72.297874 
L 256.629421 -72.611371 
L 256.946777 -72.796061 
L 257.264132 -72.755892 
L 257.581488 -72.539082 
L 257.898843 -72.213446 
L 258.216198 -71.878584 
L 258.533554 -71.423792 
L 258.850909 -70.894977 
L 259.168264 -70.271632 
L 259.48562 -69.444729 
L 259.802975 -68.444836 
L 260.120331 -67.430529 
L 260.437686 -66.416997 
L 260.755041 -65.473773 
L 261.072397 -64.629928 
L 261.389752 -63.845593 
L 261.707107 -63.117823 
L 262.024463 -62.45894 
L 262.341818 -61.85443 
L 262.659174 -61.232408 
L 262.976529 -60.624791 
L 263.293884 -60.004534 
L 263.61124 -59.37006 
L 263.928595 -58.785729 
L 264.24595 -58.18417 
L 264.563306 -57.567509 
L 264.880661 -56.876259 
L 265.198017 -56.273682 
L 265.515372 -55.739696 
L 265.832727 -55.298104 
L 266.150083 -54.91604 
L 266.467438 -54.616433 
L 266.784793 -54.395264 
L 267.102149 -54.203375 
L 267.419504 -53.933074 
L 267.73686 -53.684867 
L 268.054215 -53.390997 
L 268.37157 -52.994706 
L 268.688926 -52.625223 
L 269.006281 -52.276969 
L 269.323636 -51.948526 
L 269.640992 -51.688113 
L 269.958347 -51.478496 
L 270.275702 -51.299865 
L 270.593058 -51.200778 
L 270.910413 -51.136078 
L 271.227769 -51.101842 
L 271.545124 -50.985207 
L 271.862479 -50.93434 
L 272.179835 -50.968756 
L 272.49719 -51.000277 
L 272.814545 -51.063174 
L 273.131901 -51.008432 
L 273.449256 -50.77023 
L 273.766612 -50.521026 
L 274.083967 -50.312384 
L 274.401322 -50.15945 
L 274.718678 -50.112 
L 275.036033 -50.122376 
L 275.353388 -50.19858 
L 275.670744 -50.292562 
L 275.988099 -50.367973 
L 276.305455 -50.423233 
L 276.62281 -50.428075 
L 276.940165 -50.507571 
L 277.257521 -50.634501 
L 277.574876 -50.890973 
L 277.892231 -51.249598 
L 278.209587 -51.681957 
L 278.526942 -52.171495 
L 278.844298 -52.792523 
L 279.161653 -53.481968 
L 279.479008 -54.247809 
L 279.796364 -55.15317 
L 280.113719 -56.188739 
L 280.431074 -57.288084 
L 280.74843 -58.479374 
L 281.065785 -59.670747 
L 281.38314 -60.769756 
L 281.700496 -61.829863 
L 282.017851 -62.904302 
L 282.335207 -63.989208 
L 282.652562 -65.07429 
L 282.969917 -66.233446 
L 283.287273 -67.430224 
L 283.604628 -68.632433 
L 283.921983 -69.813475 
L 284.239339 -70.966597 
L 284.556694 -72.134318 
L 284.87405 -73.311788 
L 285.191405 -74.546374 
L 285.50876 -75.745387 
L 285.826116 -76.943805 
L 286.143471 -78.088101 
L 286.460826 -79.287222 
L 286.778182 -80.415232 
L 287.095537 -81.426975 
L 287.412893 -82.367522 
L 287.730248 -83.381141 
L 288.047603 -84.329042 
L 288.364959 -85.225126 
L 288.682314 -86.206179 
L 288.999669 -87.119178 
L 289.317025 -87.923603 
L 289.63438 -88.697789 
L 289.951736 -89.409623 
L 290.269091 -90.059794 
L 290.586446 -90.700444 
L 290.903802 -91.290539 
L 291.221157 -91.835258 
L 291.538512 -92.341999 
L 291.855868 -92.812813 
L 292.173223 -93.127104 
L 292.490579 -93.320494 
L 292.807934 -93.514822 
L 293.125289 -93.7047 
L 293.442645 -94.020894 
L 293.76 -94.469472 
L 294.077355 -94.898333 
L 294.394711 -95.291529 
L 294.712066 -95.669851 
L 295.029421 -95.943285 
L 295.346777 -96.213543 
L 295.664132 -96.430387 
L 295.981488 -96.639934 
L 296.298843 -96.795822 
L 296.616198 -96.954796 
L 296.933554 -97.13991 
L 297.250909 -97.304821 
L 297.568264 -97.475477 
L 297.88562 -97.626212 
L 298.202975 -97.778558 
L 298.520331 -97.932252 
L 298.837686 -98.035433 
L 299.155041 -98.078273 
L 299.472397 -98.089494 
L 299.789752 -98.076047 
L 300.107107 -98.045513 
L 300.424463 -98.008718 
L 300.741818 -97.956191 
L 301.059174 -97.824579 
L 301.376529 -97.67347 
L 301.693884 -97.619616 
L 302.01124 -97.611192 
L 302.328595 -97.605347 
L 302.64595 -97.647656 
L 302.963306 -97.751766 
L 303.280661 -97.856461 
L 303.598017 -97.982151 
L 303.915372 -98.141372 
L 304.232727 -98.334636 
L 304.550083 -98.561004 
L 304.867438 -98.828129 
L 305.184793 -99.126488 
L 305.502149 -99.404518 
L 305.819504 -99.653938 
L 306.13686 -99.871312 
L 306.454215 -100.126948 
L 306.77157 -100.297204 
L 307.088926 -100.453503 
L 307.406281 -100.668312 
L 307.723636 -100.932615 
L 308.040992 -101.121061 
L 308.358347 -101.341707 
L 308.675702 -101.643077 
L 308.993058 -101.901038 
L 309.310413 -102.177423 
L 309.627769 -102.561206 
L 309.945124 -103.021973 
L 310.262479 -103.54217 
L 310.579835 -104.113108 
L 310.89719 -104.669551 
L 311.214545 -105.215994 
L 311.531901 -105.818292 
L 311.849256 -106.445317 
L 312.166612 -107.118896 
L 312.483967 -107.912918 
L 312.801322 -108.75839 
L 313.118678 -109.626089 
L 313.436033 -110.519929 
L 313.753388 -111.345055 
L 314.070744 -112.127316 
L 314.388099 -112.943982 
L 314.705455 -113.798379 
L 315.02281 -114.66068 
L 315.340165 -115.602344 
L 315.657521 -116.523588 
L 315.974876 -117.446505 
L 316.292231 -118.379975 
L 316.609587 -119.391202 
L 316.926942 -120.443026 
L 317.244298 -121.515037 
L 317.561653 -122.596332 
L 317.879008 -123.673304 
L 318.196364 -124.741731 
L 318.513719 -125.798493 
L 318.831074 -126.843874 
L 319.14843 -127.913645 
L 319.465785 -128.997772 
L 319.78314 -130.100831 
L 320.100496 -131.223037 
L 320.417851 -132.351396 
L 320.735207 -133.469222 
L 321.052562 -134.585256 
L 321.369917 -135.734379 
L 321.687273 -136.902243 
L 322.004628 -138.043046 
L 322.321983 -139.164224 
L 322.639339 -140.261112 
L 322.956694 -141.317071 
L 323.27405 -142.313421 
L 323.591405 -143.27742 
L 323.90876 -144.204753 
L 324.226116 -145.081799 
L 324.543471 -145.914921 
L 324.860826 -146.713231 
L 325.178182 -147.430198 
L 325.495537 -148.079986 
L 325.812893 -148.694828 
L 326.130248 -149.295258 
L 326.447603 -149.885562 
L 326.764959 -150.420472 
L 327.082314 -150.947613 
L 327.399669 -151.467986 
L 327.717025 -151.948249 
L 328.03438 -152.394879 
L 328.351736 -152.84443 
L 328.669091 -153.273259 
L 328.986446 -153.65845 
L 329.303802 -154.050172 
L 329.621157 -154.449866 
L 329.938512 -154.82172 
L 330.255868 -155.166941 
L 330.573223 -155.49296 
L 330.890579 -155.810912 
L 331.207934 -156.138606 
L 331.525289 -156.477804 
L 331.842645 -156.774273 
L 332.16 -157.048299 
L 332.477355 -157.307839 
L 332.794711 -157.521378 
L 333.112066 -157.698169 
L 333.429421 -157.822255 
L 333.746777 -157.893617 
L 334.064132 -157.959443 
L 334.381488 -158.023007 
L 334.698843 -158.063577 
L 335.016198 -158.076366 
L 335.333554 -158.05945 
L 335.650909 -157.988263 
L 335.968264 -157.901584 
L 336.28562 -157.79839 
L 336.602975 -157.666741 
L 336.920331 -157.498953 
L 337.237686 -157.292596 
L 337.555041 -157.060518 
L 337.872397 -156.809071 
L 338.189752 -156.543687 
L 338.507107 -156.2683 
L 338.824463 -155.982985 
L 339.141818 -155.676122 
L 339.459174 -155.344818 
L 339.776529 -154.997602 
L 340.093884 -154.632368 
L 340.41124 -154.255391 
L 340.728595 -153.851839 
L 341.04595 -153.412615 
L 341.363306 -152.946005 
L 341.680661 -152.44682 
L 341.998017 -151.915638 
L 342.315372 -151.360242 
L 342.632727 -150.782724 
L 342.950083 -150.202333 
L 343.267438 -149.619082 
L 343.584793 -149.030444 
L 343.902149 -148.431735 
L 344.219504 -147.823358 
L 344.53686 -147.224678 
L 344.854215 -146.623498 
L 345.17157 -146.016089 
L 345.488926 -145.447075 
L 345.806281 -144.893811 
L 346.123636 -144.353545 
L 346.440992 -143.812104 
L 346.758347 -143.269565 
L 347.075702 -142.731292 
L 347.393058 -142.206312 
L 347.710413 -141.704549 
L 348.027769 -141.228264 
L 348.345124 -140.776165 
L 348.662479 -140.352754 
L 348.979835 -139.954824 
L 349.29719 -139.579526 
L 349.614545 -139.214122 
L 349.931901 -138.870159 
L 350.249256 -138.532366 
L 350.566612 -138.183296 
L 350.883967 -137.831206 
L 351.201322 -137.468591 
L 351.518678 -137.088614 
L 351.836033 -136.692843 
L 352.153388 -136.280702 
L 352.470744 -135.85511 
L 352.788099 -135.42687 
L 353.105455 -135.009609 
L 353.42281 -134.617522 
L 353.740165 -134.273527 
L 354.057521 -133.973236 
L 354.374876 -133.717006 
L 354.692231 -133.506545 
L 355.009587 -133.330062 
L 355.326942 -133.189134 
L 355.644298 -133.108936 
L 355.961653 -133.074547 
L 356.279008 -133.0832 
L 356.596364 -133.147901 
L 356.913719 -133.262631 
L 357.231074 -133.421847 
L 357.54843 -133.619852 
L 357.865785 -133.835067 
L 358.18314 -134.059339 
L 358.500496 -134.288567 
L 358.817851 -134.512669 
L 359.135207 -134.740341 
L 359.452562 -134.982055 
L 359.769917 -135.230065 
L 360.087273 -135.476167 
L 360.404628 -135.722536 
L 360.721983 -135.949407 
L 361.039339 -136.173263 
L 361.356694 -136.418721 
L 361.67405 -136.665993 
L 361.991405 -136.919091 
L 362.30876 -137.180259 
L 362.626116 -137.447568 
L 362.943471 -137.73414 
L 363.260826 -138.033608 
L 363.578182 -138.344807 
L 363.895537 -138.66902 
L 364.212893 -138.997764 
L 364.530248 -139.344639 
L 364.847603 -139.694115 
L 365.164959 -140.072967 
L 365.482314 -140.480116 
L 365.799669 -140.874851 
L 366.117025 -141.263662 
L 366.43438 -141.631049 
L 366.751736 -141.988682 
L 367.069091 -142.324547 
L 367.386446 -142.640066 
L 367.703802 -142.928953 
L 368.021157 -143.180015 
L 368.338512 -143.385959 
L 368.655868 -143.533135 
L 368.973223 -143.622373 
L 369.290579 -143.651921 
L 369.607934 -143.626418 
L 369.925289 -143.565406 
L 370.242645 -143.443958 
L 370.56 -143.299574 
L 370.877355 -143.146231 
L 371.194711 -142.9811 
L 371.512066 -142.821374 
L 371.829421 -142.660375 
L 372.146777 -142.48842 
L 372.464132 -142.325943 
L 372.781488 -142.180858 
L 373.098843 -142.031044 
L 373.416198 -141.885362 
L 373.733554 -141.706906 
L 374.050909 -141.478596 
L 374.368264 -141.192378 
L 374.68562 -140.868063 
L 375.002975 -140.489376 
L 375.320331 -140.064567 
L 375.637686 -139.589998 
L 375.955041 -139.052398 
L 376.272397 -138.509191 
L 376.589752 -137.93234 
L 376.907107 -137.29025 
L 377.224463 -136.649462 
L 377.541818 -135.945301 
L 377.859174 -135.187999 
L 378.176529 -134.388955 
L 378.493884 -133.558837 
L 378.81124 -132.728807 
L 379.128595 -131.901341 
L 379.44595 -131.076027 
L 379.763306 -130.246885 
L 380.080661 -129.418653 
L 380.398017 -128.599458 
L 380.715372 -127.786626 
L 381.032727 -126.993733 
L 381.350083 -126.216392 
L 381.667438 -125.43996 
L 381.984793 -124.679138 
L 382.302149 -123.934236 
L 382.619504 -123.205807 
L 382.93686 -122.493647 
L 383.254215 -121.790192 
L 383.57157 -121.097972 
L 383.888926 -120.4157 
L 384.206281 -119.750442 
L 384.523636 -119.110074 
L 384.840992 -118.483065 
L 385.158347 -117.877695 
L 385.475702 -117.285765 
L 385.793058 -116.705048 
L 386.110413 -116.153739 
L 386.427769 -115.639858 
L 386.745124 -115.177172 
L 387.062479 -114.77422 
L 387.379835 -114.441624 
L 387.69719 -114.179936 
L 388.014545 -113.993122 
L 388.331901 -113.889264 
L 388.649256 -113.880294 
L 388.966612 -114.300217 
L 389.283967 -114.75181 
L 389.601322 -115.235938 
L 389.918678 -115.749748 
L 390.236033 -116.282565 
L 390.553388 -116.849835 
L 390.870744 -117.425413 
L 391.188099 -118.007556 
L 391.505455 -118.593922 
L 391.82281 -119.173345 
L 392.140165 -119.762388 
L 392.457521 -120.373573 
L 392.774876 -120.994319 
L 393.092231 -121.617815 
L 393.409587 -122.257991 
L 393.726942 -122.901302 
L 394.044298 -123.581811 
L 394.361653 -124.302651 
L 394.679008 -125.073476 
L 394.996364 -125.874075 
L 395.313719 -126.718637 
L 395.631074 -127.607025 
L 395.94843 -128.539693 
L 396.265785 -129.516887 
L 396.58314 -130.491023 
L 396.900496 -131.490916 
L 397.217851 -132.536483 
L 397.535207 -133.565224 
L 397.852562 -134.641775 
L 398.169917 -135.758764 
L 398.487273 -171.072 
L 398.487273 -171.072 
L 398.487273 -171.072 
L 398.169917 -171.072 
L 397.852562 -171.072 
L 397.535207 -171.072 
L 397.217851 -171.072 
L 396.900496 -171.072 
L 396.58314 -171.072 
L 396.265785 -171.072 
L 395.94843 -171.072 
L 395.631074 -171.072 
L 395.313719 -171.072 
L 394.996364 -171.072 
L 394.679008 -171.072 
L 394.361653 -171.072 
L 394.044298 -171.072 
L 393.726942 -171.072 
L 393.409587 -171.072 
L 393.092231 -171.072 
L 392.774876 -171.072 
L 392.457521 -171.072 
L 392.140165 -171.072 
L 391.82281 -171.072 
L 391.505455 -171.072 
L 391.188099 -171.072 
L 390.870744 -171.072 
L 390.553388 -171.072 
L 390.236033 -171.072 
L 389.918678 -171.072 
L 389.601322 -171.072 
L 389.283967 -171.072 
L 388.966612 -171.072 
L 388.649256 -171.072 
L 388.331901 -171.072 
L 388.014545 -171.072 
L 387.69719 -171.072 
L 387.379835 -171.072 
L 387.062479 -171.072 
L 386.745124 -171.072 
L 386.427769 -171.072 
L 386.110413 -171.072 
L 385.793058 -171.072 
L 385.475702 -171.072 
L 385.158347 -171.072 
L 384.840992 -171.072 
L 384.523636 -171.072 
L 384.206281 -171.072 
L 383.888926 -171.072 
L 383.57157 -171.072 
L 383.254215 -171.072 
L 382.93686 -171.072 
L 382.619504 -171.072 
L 382.302149 -171.072 
L 381.984793 -171.072 
L 381.667438 -171.072 
L 381.350083 -171.072 
L 381.032727 -171.072 
L 380.715372 -171.072 
L 380.398017 -171.072 
L 380.080661 -171.072 
L 379.763306 -171.072 
L 379.44595 -171.072 
L 379.128595 -171.072 
L 378.81124 -171.072 
L 378.493884 -171.072 
L 378.176529 -171.072 
L 377.859174 -171.072 
L 377.541818 -171.072 
L 377.224463 -171.072 
L 376.907107 -171.072 
L 376.589752 -171.072 
L 376.272397 -171.072 
L 375.955041 -171.072 
L 375.637686 -171.072 
L 375.320331 -171.072 
L 375.002975 -171.072 
L 374.68562 -171.072 
L 374.368264 -171.072 
L 374.050909 -171.072 
L 373.733554 -171.072 
L 373.416198 -171.072 
L 373.098843 -171.072 
L 372.781488 -171.072 
L 372.464132 -171.072 
L 372.146777 -171.072 
L 371.829421 -171.072 
L 371.512066 -171.072 
L 371.194711 -171.072 
L 370.877355 -171.072 
L 370.56 -171.072 
L 370.242645 -171.072 
L 369.925289 -171.072 
L 369.607934 -171.072 
L 369.290579 -171.072 
L 368.973223 -171.072 
L 368.655868 -171.072 
L 368.338512 -171.072 
L 368.021157 -171.072 
L 367.703802 -171.072 
L 367.386446 -171.072 
L 367.069091 -171.072 
L 366.751736 -171.072 
L 366.43438 -171.072 
L 366.117025 -171.072 
L 365.799669 -171.072 
L 365.482314 -171.072 
L 365.164959 -171.072 
L 364.847603 -171.072 
L 364.530248 -171.072 
L 364.212893 -171.072 
L 363.895537 -171.072 
L 363.578182 -171.072 
L 363.260826 -171.072 
L 362.943471 -171.072 
L 362.626116 -171.072 
L 362.30876 -171.072 
L 361.991405 -171.072 
L 361.67405 -171.072 
L 361.356694 -171.072 
L 361.039339 -171.072 
L 360.721983 -171.072 
L 360.404628 -171.072 
L 360.087273 -171.072 
L 359.769917 -171.072 
L 359.452562 -171.072 
L 359.135207 -171.072 
L 358.817851 -171.072 
L 358.500496 -171.072 
L 358.18314 -171.072 
L 357.865785 -171.072 
L 357.54843 -171.072 
L 357.231074 -171.072 
L 356.913719 -171.072 
L 356.596364 -171.072 
L 356.279008 -171.072 
L 355.961653 -171.072 
L 355.644298 -171.072 
L 355.326942 -171.072 
L 355.009587 -171.072 
L 354.692231 -171.072 
L 354.374876 -171.072 
L 354.057521 -171.072 
L 353.740165 -171.072 
L 353.42281 -171.072 
L 353.105455 -171.072 
L 352.788099 -171.072 
L 352.470744 -171.072 
L 352.153388 -171.072 
L 351.836033 -171.072 
L 351.518678 -171.072 
L 351.201322 -171.072 
L 350.883967 -171.072 
L 350.566612 -171.072 
L 350.249256 -171.072 
L 349.931901 -171.072 
L 349.614545 -171.072 
L 349.29719 -171.072 
L 348.979835 -171.072 
L 348.662479 -171.072 
L 348.345124 -171.072 
L 348.027769 -171.072 
L 347.710413 -171.072 
L 347.393058 -171.072 
L 347.075702 -171.072 
L 346.758347 -171.072 
L 346.440992 -171.072 
L 346.123636 -171.072 
L 345.806281 -171.072 
L 345.488926 -171.072 
L 345.17157 -171.072 
L 344.854215 -171.072 
L 344.53686 -171.072 
L 344.219504 -171.072 
L 343.902149 -171.072 
L 343.584793 -171.072 
L 343.267438 -171.072 
L 342.950083 -171.072 
L 342.632727 -171.072 
L 342.315372 -171.072 
L 341.998017 -171.072 
L 341.680661 -171.072 
L 341.363306 -171.072 
L 341.04595 -171.072 
L 340.728595 -171.072 
L 340.41124 -171.072 
L 340.093884 -171.072 
L 339.776529 -171.072 
L 339.459174 -171.072 
L 339.141818 -171.072 
L 338.824463 -171.072 
L 338.507107 -171.072 
L 338.189752 -171.072 
L 337.872397 -171.072 
L 337.555041 -171.072 
L 337.237686 -171.072 
L 336.920331 -171.072 
L 336.602975 -171.072 
L 336.28562 -171.072 
L 335.968264 -171.072 
L 335.650909 -171.072 
L 335.333554 -171.072 
L 335.016198 -171.072 
L 334.698843 -171.072 
L 334.381488 -171.072 
L 334.064132 -171.072 
L 333.746777 -171.072 
L 333.429421 -171.072 
L 333.112066 -171.072 
L 332.794711 -171.072 
L 332.477355 -171.072 
L 332.16 -171.072 
L 331.842645 -171.072 
L 331.525289 -171.072 
L 331.207934 -171.072 
L 330.890579 -171.072 
L 330.573223 -171.072 
L 330.255868 -171.072 
L 329.938512 -171.072 
L 329.621157 -171.072 
L 329.303802 -171.072 
L 328.986446 -171.072 
L 328.669091 -171.072 
L 328.351736 -171.072 
L 328.03438 -171.072 
L 327.717025 -171.072 
L 327.399669 -171.072 
L 327.082314 -171.072 
L 326.764959 -171.072 
L 326.447603 -171.072 
L 326.130248 -171.072 
L 325.812893 -171.072 
L 325.495537 -171.072 
L 325.178182 -171.072 
L 324.860826 -171.072 
L 324.543471 -171.072 
L 324.226116 -171.072 
L 323.90876 -171.072 
L 323.591405 -171.072 
L 323.27405 -171.072 
L 322.956694 -171.072 
L 322.639339 -171.072 
L 322.321983 -171.072 
L 322.004628 -171.072 
L 321.687273 -171.072 
L 321.369917 -171.072 
L 321.052562 -171.072 
L 320.735207 -171.072 
L 320.417851 -171.072 
L 320.100496 -171.072 
L 319.78314 -171.072 
L 319.465785 -171.072 
L 319.14843 -171.072 
L 318.831074 -171.072 
L 318.513719 -171.072 
L 318.196364 -171.072 
L 317.879008 -171.072 
L 317.561653 -171.072 
L 317.244298 -171.072 
L 316.926942 -171.072 
L 316.609587 -171.072 
L 316.292231 -171.072 
L 315.974876 -171.072 
L 315.657521 -171.072 
L 315.340165 -171.072 
L 315.02281 -171.072 
L 314.705455 -171.072 
L 314.388099 -171.072 
L 314.070744 -171.072 
L 313.753388 -171.072 
L 313.436033 -171.072 
L 313.118678 -171.072 
L 312.801322 -171.072 
L 312.483967 -171.072 
L 312.166612 -171.072 
L 311.849256 -171.072 
L 311.531901 -171.072 
L 311.214545 -171.072 
L 310.89719 -171.072 
L 310.579835 -171.072 
L 310.262479 -171.072 
L 309.945124 -171.072 
L 309.627769 -171.072 
L 309.310413 -171.072 
L 308.993058 -171.072 
L 308.675702 -171.072 
L 308.358347 -171.072 
L 308.040992 -171.072 
L 307.723636 -171.072 
L 307.406281 -171.072 
L 307.088926 -171.072 
L 306.77157 -171.072 
L 306.454215 -171.072 
L 306.13686 -171.072 
L 305.819504 -171.072 
L 305.502149 -171.072 
L 305.184793 -171.072 
L 304.867438 -171.072 
L 304.550083 -171.072 
L 304.232727 -171.072 
L 303.915372 -171.072 
L 303.598017 -171.072 
L 303.280661 -171.072 
L 302.963306 -171.072 
L 302.64595 -171.072 
L 302.328595 -171.072 
L 302.01124 -171.072 
L 301.693884 -171.072 
L 301.376529 -171.072 
L 301.059174 -171.072 
L 300.741818 -171.072 
L 300.424463 -171.072 
L 300.107107 -171.072 
L 299.789752 -171.072 
L 299.472397 -171.072 
L 299.155041 -171.072 
L 298.837686 -171.072 
L 298.520331 -171.072 
L 298.202975 -171.072 
L 297.88562 -171.072 
L 297.568264 -171.072 
L 297.250909 -171.072 
L 296.933554 -171.072 
L 296.616198 -171.072 
L 296.298843 -171.072 
L 295.981488 -171.072 
L 295.664132 -171.072 
L 295.346777 -171.072 
L 295.029421 -171.072 
L 294.712066 -171.072 
L 294.394711 -171.072 
L 294.077355 -171.072 
L 293.76 -171.072 
L 293.442645 -171.072 
L 293.125289 -171.072 
L 292.807934 -171.072 
L 292.490579 -171.072 
L 292.173223 -171.072 
L 291.855868 -171.072 
L 291.538512 -171.072 
L 291.221157 -171.072 
L 290.903802 -171.072 
L 290.586446 -171.072 
L 290.269091 -171.072 
L 289.951736 -171.072 
L 289.63438 -171.072 
L 289.317025 -171.072 
L 288.999669 -171.072 
L 288.682314 -171.072 
L 288.364959 -171.072 
L 288.047603 -171.072 
L 287.730248 -171.072 
L 287.412893 -171.072 
L 287.095537 -171.072 
L 286.778182 -171.072 
L 286.460826 -171.072 
L 286.143471 -171.072 
L 285.826116 -171.072 
L 285.50876 -171.072 
L 285.191405 -171.072 
L 284.87405 -171.072 
L 284.556694 -171.072 
L 284.239339 -171.072 
L 283.921983 -171.072 
L 283.604628 -171.072 
L 283.287273 -171.072 
L 282.969917 -171.072 
L 282.652562 -171.072 
L 282.335207 -171.072 
L 282.017851 -171.072 
L 281.700496 -171.072 
L 281.38314 -171.072 
L 281.065785 -171.072 
L 280.74843 -171.072 
L 280.431074 -171.072 
L 280.113719 -171.072 
L 279.796364 -171.072 
L 279.479008 -171.072 
L 279.161653 -171.072 
L 278.844298 -171.072 
L 278.526942 -171.072 
L 278.209587 -171.072 
L 277.892231 -171.072 
L 277.574876 -171.072 
L 277.257521 -171.072 
L 276.940165 -171.072 
L 276.62281 -171.072 
L 276.305455 -171.072 
L 275.988099 -171.072 
L 275.670744 -171.072 
L 275.353388 -171.072 
L 275.036033 -171.072 
L 274.718678 -171.072 
L 274.401322 -171.072 
L 274.083967 -171.072 
L 273.766612 -171.072 
L 273.449256 -171.072 
L 273.131901 -171.072 
L 272.814545 -171.072 
L 272.49719 -171.072 
L 272.179835 -171.072 
L 271.862479 -171.072 
L 271.545124 -171.072 
L 271.227769 -171.072 
L 270.910413 -171.072 
L 270.593058 -171.072 
L 270.275702 -171.072 
L 269.958347 -171.072 
L 269.640992 -171.072 
L 269.323636 -171.072 
L 269.006281 -171.072 
L 268.688926 -171.072 
L 268.37157 -171.072 
L 268.054215 -171.072 
L 267.73686 -171.072 
L 267.419504 -171.072 
L 267.102149 -171.072 
L 266.784793 -171.072 
L 266.467438 -171.072 
L 266.150083 -171.072 
L 265.832727 -171.072 
L 265.515372 -171.072 
L 265.198017 -171.072 
L 264.880661 -171.072 
L 264.563306 -171.072 
L 264.24595 -171.072 
L 263.928595 -171.072 
L 263.61124 -171.072 
L 263.293884 -171.072 
L 262.976529 -171.072 
L 262.659174 -171.072 
L 262.341818 -171.072 
L 262.024463 -171.072 
L 261.707107 -171.072 
L 261.389752 -171.072 
L 261.072397 -171.072 
L 260.755041 -171.072 
L 260.437686 -171.072 
L 260.120331 -171.072 
L 259.802975 -171.072 
L 259.48562 -171.072 
L 259.168264 -171.072 
L 258.850909 -171.072 
L 258.533554 -171.072 
L 258.216198 -171.072 
L 257.898843 -171.072 
L 257.581488 -171.072 
L 257.264132 -171.072 
L 256.946777 -171.072 
L 256.629421 -171.072 
L 256.312066 -171.072 
L 255.994711 -171.072 
L 255.677355 -171.072 
L 255.36 -171.072 
L 255.042645 -171.072 
L 254.725289 -171.072 
L 254.407934 -171.072 
L 254.090579 -171.072 
L 253.773223 -171.072 
L 253.455868 -171.072 
L 253.138512 -171.072 
L 252.821157 -171.072 
L 252.503802 -171.072 
L 252.186446 -171.072 
L 251.869091 -171.072 
L 251.551736 -171.072 
L 251.23438 -171.072 
L 250.917025 -171.072 
L 250.599669 -171.072 
L 250.282314 -171.072 
L 249.964959 -171.072 
L 249.647603 -171.072 
L 249.330248 -171.072 
L 249.012893 -171.072 
L 248.695537 -171.072 
L 248.378182 -171.072 
L 248.060826 -171.072 
L 247.743471 -171.072 
L 247.426116 -171.072 
L 247.10876 -171.072 
L 246.791405 -171.072 
L 246.47405 -171.072 
L 246.156694 -171.072 
L 245.839339 -171.072 
L 245.521983 -171.072 
L 245.204628 -171.072 
L 244.887273 -171.072 
L 244.569917 -171.072 
L 244.252562 -171.072 
L 243.935207 -171.072 
L 243.617851 -171.072 
L 243.300496 -171.072 
L 242.98314 -171.072 
L 242.665785 -171.072 
L 242.34843 -171.072 
L 242.031074 -171.072 
L 241.713719 -171.072 
L 241.396364 -171.072 
L 241.079008 -171.072 
L 240.761653 -171.072 
L 240.444298 -171.072 
L 240.126942 -171.072 
L 239.809587 -171.072 
L 239.492231 -171.072 
L 239.174876 -171.072 
L 238.857521 -171.072 
L 238.540165 -171.072 
L 238.22281 -171.072 
L 237.905455 -171.072 
L 237.588099 -171.072 
L 237.270744 -171.072 
L 236.953388 -171.072 
L 236.636033 -171.072 
L 236.318678 -171.072 
L 236.001322 -171.072 
L 235.683967 -171.072 
L 235.366612 -171.072 
L 235.049256 -171.072 
L 234.731901 -171.072 
L 234.414545 -171.072 
L 234.09719 -171.072 
L 233.779835 -171.072 
L 233.462479 -171.072 
L 233.145124 -171.072 
L 232.827769 -171.072 
L 232.510413 -171.072 
L 232.193058 -171.072 
L 231.875702 -171.072 
L 231.558347 -171.072 
L 231.240992 -171.072 
L 230.923636 -171.072 
L 230.606281 -171.072 
L 230.288926 -171.072 
L 229.97157 -171.072 
L 229.654215 -171.072 
L 229.33686 -171.072 
L 229.019504 -171.072 
L 228.702149 -171.072 
L 228.384793 -171.072 
L 228.067438 -171.072 
L 227.750083 -171.072 
L 227.432727 -171.072 
L 227.115372 -171.072 
L 226.798017 -171.072 
L 226.480661 -171.072 
L 226.163306 -171.072 
L 225.84595 -171.072 
L 225.528595 -171.072 
L 225.21124 -171.072 
L 224.893884 -171.072 
L 224.576529 -171.072 
L 224.259174 -171.072 
L 223.941818 -171.072 
L 223.624463 -171.072 
L 223.307107 -171.072 
L 222.989752 -171.072 
L 222.672397 -171.072 
L 222.355041 -171.072 
L 222.037686 -171.072 
L 221.720331 -171.072 
L 221.402975 -171.072 
L 221.08562 -171.072 
L 220.768264 -171.072 
L 220.450909 -171.072 
L 220.133554 -171.072 
L 219.816198 -171.072 
L 219.498843 -171.072 
L 219.181488 -171.072 
L 218.864132 -171.072 
L 218.546777 -171.072 
L 218.229421 -171.072 
L 217.912066 -171.072 
L 217.594711 -171.072 
L 217.277355 -171.072 
L 216.96 -171.072 
L 216.642645 -171.072 
L 216.325289 -171.072 
L 216.007934 -171.072 
L 215.690579 -171.072 
L 215.373223 -171.072 
L 215.055868 -171.072 
L 214.738512 -171.072 
L 214.421157 -171.072 
L 214.103802 -171.072 
L 213.786446 -171.072 
L 213.469091 -171.072 
L 213.151736 -171.072 
L 212.83438 -171.072 
L 212.517025 -171.072 
L 212.199669 -171.072 
L 211.882314 -171.072 
L 211.564959 -171.072 
L 211.247603 -171.072 
L 210.930248 -171.072 
L 210.612893 -171.072 
L 210.295537 -171.072 
L 209.978182 -171.072 
L 209.660826 -171.072 
L 209.343471 -171.072 
L 209.026116 -171.072 
L 208.70876 -171.072 
L 208.391405 -171.072 
L 208.07405 -171.072 
L 207.756694 -171.072 
L 207.439339 -171.072 
L 207.121983 -171.072 
L 206.804628 -171.072 
L 206.487273 -171.072 
L 206.169917 -171.072 
L 205.852562 -171.072 
L 205.535207 -171.072 
L 205.217851 -171.072 
L 204.900496 -171.072 
L 204.58314 -171.072 
L 204.265785 -171.072 
L 203.94843 -171.072 
L 203.631074 -171.072 
L 203.313719 -171.072 
L 202.996364 -171.072 
L 202.679008 -171.072 
L 202.361653 -171.072 
L 202.044298 -171.072 
L 201.726942 -171.072 
L 201.409587 -171.072 
L 201.092231 -171.072 
L 200.774876 -171.072 
L 200.457521 -171.072 
L 200.140165 -171.072 
L 199.82281 -171.072 
L 199.505455 -171.072 
L 199.188099 -171.072 
L 198.870744 -171.072 
L 198.553388 -171.072 
L 198.236033 -171.072 
L 197.918678 -171.072 
L 197.601322 -171.072 
L 197.283967 -171.072 
L 196.966612 -171.072 
L 196.649256 -171.072 
L 196.331901 -171.072 
L 196.014545 -171.072 
L 195.69719 -171.072 
L 195.379835 -171.072 
L 195.062479 -171.072 
L 194.745124 -171.072 
L 194.427769 -171.072 
L 194.110413 -171.072 
L 193.793058 -171.072 
L 193.475702 -171.072 
L 193.158347 -171.072 
L 192.840992 -171.072 
L 192.523636 -171.072 
L 192.206281 -171.072 
L 191.888926 -171.072 
L 191.57157 -171.072 
L 191.254215 -171.072 
L 190.93686 -171.072 
L 190.619504 -171.072 
L 190.302149 -171.072 
L 189.984793 -171.072 
L 189.667438 -171.072 
L 189.350083 -171.072 
L 189.032727 -171.072 
L 188.715372 -171.072 
L 188.398017 -171.072 
L 188.080661 -171.072 
L 187.763306 -171.072 
L 187.44595 -171.072 
L 187.128595 -171.072 
L 186.81124 -171.072 
L 186.493884 -171.072 
L 186.176529 -171.072 
L 185.859174 -171.072 
L 185.541818 -171.072 
L 185.224463 -171.072 
L 184.907107 -171.072 
L 184.589752 -171.072 
L 184.272397 -171.072 
L 183.955041 -171.072 
L 183.637686 -171.072 
L 183.320331 -171.072 
L 183.002975 -171.072 
L 182.68562 -171.072 
L 182.368264 -171.072 
L 182.050909 -171.072 
L 181.733554 -171.072 
L 181.416198 -171.072 
L 181.098843 -171.072 
L 180.781488 -171.072 
L 180.464132 -171.072 
L 180.146777 -171.072 
L 179.829421 -171.072 
L 179.512066 -171.072 
L 179.194711 -171.072 
L 178.877355 -171.072 
L 178.56 -171.072 
L 178.242645 -171.072 
L 177.925289 -171.072 
L 177.607934 -171.072 
L 177.290579 -171.072 
L 176.973223 -171.072 
L 176.655868 -171.072 
L 176.338512 -171.072 
L 176.021157 -171.072 
L 175.703802 -171.072 
L 175.386446 -171.072 
L 175.069091 -171.072 
L 174.751736 -171.072 
L 174.43438 -171.072 
L 174.117025 -171.072 
L 173.799669 -171.072 
L 173.482314 -171.072 
L 173.164959 -171.072 
L 172.847603 -171.072 
L 172.530248 -171.072 
L 172.212893 -171.072 
L 171.895537 -171.072 
L 171.578182 -171.072 
L 171.260826 -171.072 
L 170.943471 -171.072 
L 170.626116 -171.072 
L 170.30876 -171.072 
L 169.991405 -171.072 
L 169.67405 -171.072 
L 169.356694 -171.072 
L 169.039339 -171.072 
L 168.721983 -171.072 
L 168.404628 -171.072 
L 168.087273 -171.072 
L 167.769917 -171.072 
L 167.452562 -171.072 
L 167.135207 -171.072 
L 166.817851 -171.072 
L 166.500496 -171.072 
L 166.18314 -171.072 
L 165.865785 -171.072 
L 165.54843 -171.072 
L 165.231074 -171.072 
L 164.913719 -171.072 
L 164.596364 -171.072 
L 164.279008 -171.072 
L 163.961653 -171.072 
L 163.644298 -171.072 
L 163.326942 -171.072 
L 163.009587 -171.072 
L 162.692231 -171.072 
L 162.374876 -171.072 
L 162.057521 -171.072 
L 161.740165 -171.072 
L 161.42281 -171.072 
L 161.105455 -171.072 
L 160.788099 -171.072 
L 160.470744 -171.072 
L 160.153388 -171.072 
L 159.836033 -171.072 
L 159.518678 -171.072 
L 159.201322 -171.072 
L 158.883967 -171.072 
L 158.566612 -171.072 
L 158.249256 -171.072 
L 157.931901 -171.072 
L 157.614545 -171.072 
L 157.29719 -171.072 
L 156.979835 -171.072 
L 156.662479 -171.072 
L 156.345124 -171.072 
L 156.027769 -171.072 
L 155.710413 -171.072 
L 155.393058 -171.072 
L 155.075702 -171.072 
L 154.758347 -171.072 
L 154.440992 -171.072 
L 154.123636 -171.072 
L 153.806281 -171.072 
L 153.488926 -171.072 
L 153.17157 -171.072 
L 152.854215 -171.072 
L 152.53686 -171.072 
L 152.219504 -171.072 
L 151.902149 -171.072 
L 151.584793 -171.072 
L 151.267438 -171.072 
L 150.950083 -171.072 
L 150.632727 -171.072 
L 150.315372 -171.072 
L 149.998017 -171.072 
L 149.680661 -171.072 
L 149.363306 -171.072 
L 149.04595 -171.072 
L 148.728595 -171.072 
L 148.41124 -171.072 
L 148.093884 -171.072 
L 147.776529 -171.072 
L 147.459174 -171.072 
L 147.141818 -171.072 
L 146.824463 -171.072 
L 146.507107 -171.072 
L 146.189752 -171.072 
L 145.872397 -171.072 
L 145.555041 -171.072 
L 145.237686 -171.072 
L 144.920331 -171.072 
L 144.602975 -171.072 
L 144.28562 -171.072 
L 143.968264 -171.072 
L 143.650909 -171.072 
L 143.333554 -171.072 
L 143.016198 -171.072 
L 142.698843 -171.072 
L 142.381488 -171.072 
L 142.064132 -171.072 
L 141.746777 -171.072 
L 141.429421 -171.072 
L 141.112066 -171.072 
L 140.794711 -171.072 
L 140.477355 -171.072 
L 140.16 -171.072 
L 139.842645 -171.072 
L 139.525289 -171.072 
L 139.207934 -171.072 
L 138.890579 -171.072 
L 138.573223 -171.072 
L 138.255868 -171.072 
L 137.938512 -171.072 
L 137.621157 -171.072 
L 137.303802 -171.072 
L 136.986446 -171.072 
L 136.669091 -171.072 
L 136.351736 -171.072 
L 136.03438 -171.072 
L 135.717025 -171.072 
L 135.399669 -171.072 
L 135.082314 -171.072 
L 134.764959 -171.072 
L 134.447603 -171.072 
L 134.130248 -171.072 
L 133.812893 -171.072 
L 133.495537 -171.072 
L 133.178182 -171.072 
L 132.860826 -171.072 
L 132.543471 -171.072 
L 132.226116 -171.072 
L 131.90876 -171.072 
L 131.591405 -171.072 
L 131.27405 -171.072 
L 130.956694 -171.072 
L 130.639339 -171.072 
L 130.321983 -171.072 
L 130.004628 -171.072 
L 129.687273 -171.072 
L 129.369917 -171.072 
L 129.052562 -171.072 
L 128.735207 -171.072 
L 128.417851 -171.072 
L 128.100496 -171.072 
L 127.78314 -171.072 
L 127.465785 -171.072 
L 127.14843 -171.072 
L 126.831074 -171.072 
L 126.513719 -171.072 
L 126.196364 -171.072 
L 125.879008 -171.072 
L 125.561653 -171.072 
L 125.244298 -171.072 
L 124.926942 -171.072 
L 124.609587 -171.072 
L 124.292231 -171.072 
L 123.974876 -171.072 
L 123.657521 -171.072 
L 123.340165 -171.072 
L 123.02281 -171.072 
L 122.705455 -171.072 
L 122.388099 -171.072 
L 122.070744 -171.072 
L 121.753388 -171.072 
L 121.436033 -171.072 
L 121.118678 -171.072 
L 120.801322 -171.072 
L 120.483967 -171.072 
L 120.166612 -171.072 
L 119.849256 -171.072 
L 119.531901 -171.072 
L 119.214545 -171.072 
L 118.89719 -171.072 
L 118.579835 -171.072 
L 118.262479 -171.072 
L 117.945124 -171.072 
L 117.627769 -171.072 
L 117.310413 -171.072 
L 116.993058 -171.072 
L 116.675702 -171.072 
L 116.358347 -171.072 
L 116.040992 -171.072 
L 115.723636 -171.072 
L 115.406281 -171.072 
L 115.088926 -171.072 
L 114.77157 -171.072 
L 114.454215 -171.072 
L 114.13686 -171.072 
L 113.819504 -171.072 
L 113.502149 -171.072 
L 113.184793 -171.072 
L 112.867438 -171.072 
L 112.550083 -171.072 
L 112.232727 -171.072 
L 111.915372 -171.072 
L 111.598017 -171.072 
L 111.280661 -171.072 
L 110.963306 -171.072 
L 110.64595 -171.072 
L 110.328595 -171.072 
L 110.01124 -171.072 
L 109.693884 -171.072 
L 109.376529 -171.072 
L 109.059174 -171.072 
L 108.741818 -171.072 
L 108.424463 -171.072 
L 108.107107 -171.072 
L 107.789752 -171.072 
L 107.472397 -171.072 
L 107.155041 -171.072 
L 106.837686 -171.072 
L 106.520331 -171.072 
L 106.202975 -171.072 
L 105.88562 -171.072 
L 105.568264 -171.072 
L 105.250909 -171.072 
L 104.933554 -171.072 
L 104.616198 -171.072 
L 104.298843 -171.072 
L 103.981488 -171.072 
L 103.664132 -171.072 
L 103.346777 -171.072 
L 103.029421 -171.072 
L 102.712066 -171.072 
L 102.394711 -171.072 
L 102.077355 -171.072 
L 101.76 -171.072 
L 101.442645 -171.072 
L 101.125289 -171.072 
L 100.807934 -171.072 
L 100.490579 -171.072 
L 100.173223 -171.072 
L 99.855868 -171.072 
L 99.538512 -171.072 
L 99.221157 -171.072 
L 98.903802 -171.072 
L 98.586446 -171.072 
L 98.269091 -171.072 
L 97.951736 -171.072 
L 97.63438 -171.072 
L 97.317025 -171.072 
L 96.999669 -171.072 
L 96.682314 -171.072 
L 96.364959 -171.072 
L 96.047603 -171.072 
L 95.730248 -171.072 
L 95.412893 -171.072 
L 95.095537 -171.072 
L 94.778182 -171.072 
L 94.460826 -171.072 
L 94.143471 -171.072 
L 93.826116 -171.072 
L 93.50876 -171.072 
L 93.191405 -171.072 
L 92.87405 -171.072 
L 92.556694 -171.072 
L 92.239339 -171.072 
L 91.921983 -171.072 
L 91.604628 -171.072 
L 91.287273 -171.072 
L 90.969917 -171.072 
L 90.652562 -171.072 
L 90.335207 -171.072 
L 90.017851 -171.072 
L 89.700496 -171.072 
L 89.38314 -171.072 
L 89.065785 -171.072 
L 88.74843 -171.072 
L 88.431074 -171.072 
L 88.113719 -171.072 
L 87.796364 -171.072 
L 87.479008 -171.072 
L 87.161653 -171.072 
L 86.844298 -171.072 
L 86.526942 -171.072 
L 86.209587 -171.072 
L 85.892231 -171.072 
L 85.574876 -171.072 
L 85.257521 -171.072 
L 84.940165 -171.072 
L 84.62281 -171.072 
L 84.305455 -171.072 
L 83.988099 -171.072 
L 83.670744 -171.072 
L 83.353388 -171.072 
L 83.036033 -171.072 
L 82.718678 -171.072 
L 82.401322 -171.072 
L 82.083967 -171.072 
L 81.766612 -171.072 
L 81.449256 -171.072 
L 81.131901 -171.072 
L 80.814545 -171.072 
L 80.49719 -171.072 
L 80.179835 -171.072 
L 79.862479 -171.072 
L 79.545124 -171.072 
L 79.227769 -171.072 
L 78.910413 -171.072 
L 78.593058 -171.072 
L 78.275702 -171.072 
L 77.958347 -171.072 
L 77.640992 -171.072 
L 77.323636 -171.072 
L 77.006281 -171.072 
L 76.688926 -171.072 
L 76.37157 -171.072 
L 76.054215 -171.072 
L 75.73686 -171.072 
L 75.419504 -171.072 
L 75.102149 -171.072 
L 74.784793 -171.072 
L 74.467438 -171.072 
L 74.150083 -171.072 
L 73.832727 -171.072 
z
" style="stroke: #87ceeb; stroke-opacity: 0.75"/>
    </defs>
    <g clip-path="url(#p9e8843c76f)">
     <use xlink:href="#m72b2e09ac9" x="0" y="345.6" style="fill: #87ceeb; fill-opacity: 0.75; stroke: #87ceeb; stroke-opacity: 0.75"/>
    </g>
   </g>
   <g id="matplotlib.axis_1">
    <g id="xtick_1">
     <g id="line2d_1">
      <defs>
       <path id="m9cfd3d8f3d" d="M 0 0 
L 0 3.5 
" style="stroke: #000000; stroke-width: 0.8"/>
      </defs>
      <g>
       <use xlink:href="#m9cfd3d8f3d" x="73.832727" y="307.584" style="stroke: #000000; stroke-width: 0.8"/>
      </g>
     </g>
     <g id="text_1">
      <!-- 0 -->
      <g transform="translate(70.531868 322.161969) scale(0.11 -0.11)">
       <defs>
        <path id="AndaleMono-30" d="M 1913 4494 
Q 2613 4494 2989 3892 
Q 3366 3291 3366 2203 
Q 3366 1150 3000 533 
Q 2634 -84 1913 -84 
Q 1216 -84 837 516 
Q 459 1116 459 2203 
Q 459 3259 826 3876 
Q 1194 4494 1913 4494 
z
M 1913 366 
Q 2375 366 2598 805 
Q 2822 1244 2822 2203 
Q 2822 3166 2598 3602 
Q 2375 4038 1913 4038 
Q 1456 4038 1231 3591 
Q 1006 3144 1006 2203 
Q 1006 1250 1229 808 
Q 1453 366 1913 366 
z
M 1900 2672 
Q 2097 2672 2233 2536 
Q 2369 2400 2369 2203 
Q 2369 2000 2231 1854 
Q 2094 1709 1900 1709 
Q 1709 1709 1573 1854 
Q 1438 2000 1438 2203 
Q 1438 2403 1570 2537 
Q 1703 2672 1900 2672 
z
" transform="scale(0.015625)"/>
       </defs>
       <use xlink:href="#AndaleMono-30"/>
      </g>
     </g>
    </g>
    <g id="xtick_2">
     <g id="line2d_2">
      <g>
       <use xlink:href="#m9cfd3d8f3d" x="137.303802" y="307.584" style="stroke: #000000; stroke-width: 0.8"/>
      </g>
     </g>
     <g id="text_2">
      <!-- 200 -->
      <g transform="translate(127.401224 322.161969) scale(0.11 -0.11)">
       <defs>
        <path id="AndaleMono-32" d="M 3066 0 
L 641 0 
L 641 372 
Q 1563 1400 1838 1750 
Q 2113 2100 2284 2484 
Q 2456 2869 2456 3250 
Q 2456 3619 2232 3831 
Q 2009 4044 1606 4044 
Q 1297 4044 775 3853 
L 703 4294 
Q 1175 4494 1691 4494 
Q 2281 4494 2642 4161 
Q 3003 3828 3003 3272 
Q 3003 2875 2817 2484 
Q 2631 2094 2340 1734 
Q 2050 1375 1209 447 
L 3066 447 
L 3066 0 
z
" transform="scale(0.015625)"/>
       </defs>
       <use xlink:href="#AndaleMono-32"/>
       <use xlink:href="#AndaleMono-30" x="60.009766"/>
       <use xlink:href="#AndaleMono-30" x="120.019531"/>
      </g>
     </g>
    </g>
    <g id="xtick_3">
     <g id="line2d_3">
      <g>
       <use xlink:href="#m9cfd3d8f3d" x="200.774876" y="307.584" style="stroke: #000000; stroke-width: 0.8"/>
      </g>
     </g>
     <g id="text_3">
      <!-- 400 -->
      <g transform="translate(190.872298 322.161969) scale(0.11 -0.11)">
       <defs>
        <path id="AndaleMono-34" d="M 3353 1019 
L 2809 1019 
L 2809 0 
L 2297 0 
L 2297 1019 
L 378 1019 
L 378 1409 
L 2119 4409 
L 2809 4409 
L 2809 1466 
L 3353 1466 
L 3353 1019 
z
M 2297 1466 
L 2297 3903 
L 897 1466 
L 2297 1466 
z
" transform="scale(0.015625)"/>
       </defs>
       <use xlink:href="#AndaleMono-34"/>
       <use xlink:href="#AndaleMono-30" x="60.009766"/>
       <use xlink:href="#AndaleMono-30" x="120.019531"/>
      </g>
     </g>
    </g>
    <g id="xtick_4">
     <g id="line2d_4">
      <g>
       <use xlink:href="#m9cfd3d8f3d" x="264.24595" y="307.584" style="stroke: #000000; stroke-width: 0.8"/>
      </g>
     </g>
     <g id="text_4">
      <!-- 600 -->
      <g transform="translate(254.343372 322.161969) scale(0.11 -0.11)">
       <defs>
        <path id="AndaleMono-36" d="M 1131 2297 
Q 1544 2631 2028 2631 
Q 2588 2631 2961 2273 
Q 3334 1916 3334 1350 
Q 3334 728 3003 322 
Q 2672 -84 2119 -84 
Q 1413 -84 1000 564 
Q 588 1213 588 2150 
Q 588 3150 1017 3822 
Q 1447 4494 2194 4494 
Q 2709 4494 3084 4341 
L 3003 3884 
Q 2569 4044 2209 4044 
Q 1700 4044 1415 3556 
Q 1131 3069 1131 2297 
z
M 1147 1856 
Q 1147 1291 1412 828 
Q 1678 366 2081 366 
Q 2422 366 2606 616 
Q 2791 866 2791 1306 
Q 2791 1713 2587 1947 
Q 2384 2181 2016 2181 
Q 1538 2181 1147 1856 
z
" transform="scale(0.015625)"/>
       </defs>
       <use xlink:href="#AndaleMono-36"/>
       <use xlink:href="#AndaleMono-30" x="60.009766"/>
       <use xlink:href="#AndaleMono-30" x="120.019531"/>
      </g>
     </g>
    </g>
    <g id="xtick_5">
     <g id="line2d_5">
      <g>
       <use xlink:href="#m9cfd3d8f3d" x="327.717025" y="307.584" style="stroke: #000000; stroke-width: 0.8"/>
      </g>
     </g>
     <g id="text_5">
      <!-- 800 -->
      <g transform="translate(317.814447 322.161969) scale(0.11 -0.11)">
       <defs>
        <path id="AndaleMono-38" d="M 2363 2419 
Q 2813 2288 3061 1972 
Q 3309 1656 3309 1234 
Q 3309 628 2907 272 
Q 2506 -84 1919 -84 
Q 1303 -84 908 275 
Q 513 634 513 1228 
Q 513 1647 769 1965 
Q 1025 2284 1484 2419 
Q 1119 2513 898 2780 
Q 678 3047 678 3378 
Q 678 3803 1015 4148 
Q 1353 4494 1906 4494 
Q 2453 4494 2811 4150 
Q 3169 3806 3169 3378 
Q 3169 3056 2944 2786 
Q 2719 2516 2363 2419 
z
M 1906 2631 
Q 1922 2631 2056 2668 
Q 2191 2706 2286 2761 
Q 2381 2816 2462 2900 
Q 2544 2984 2594 3098 
Q 2644 3213 2644 3353 
Q 2644 3653 2428 3851 
Q 2213 4050 1906 4050 
Q 1609 4050 1396 3847 
Q 1184 3644 1184 3353 
Q 1184 3169 1261 3031 
Q 1338 2894 1452 2809 
Q 1566 2725 1714 2678 
Q 1863 2631 1906 2631 
z
M 1906 2194 
Q 1050 1944 1050 1253 
Q 1050 850 1309 608 
Q 1569 366 1919 366 
Q 2281 366 2529 605 
Q 2778 844 2778 1253 
Q 2778 1563 2606 1808 
Q 2434 2053 1906 2194 
z
" transform="scale(0.015625)"/>
       </defs>
       <use xlink:href="#AndaleMono-38"/>
       <use xlink:href="#AndaleMono-30" x="60.009766"/>
       <use xlink:href="#AndaleMono-30" x="120.019531"/>
      </g>
     </g>
    </g>
    <g id="xtick_6">
     <g id="line2d_6">
      <g>
       <use xlink:href="#m9cfd3d8f3d" x="391.188099" y="307.584" style="stroke: #000000; stroke-width: 0.8"/>
      </g>
     </g>
     <g id="text_6">
      <!-- 1000 -->
      <g transform="translate(377.984662 322.161969) scale(0.11 -0.11)">
       <defs>
        <path id="AndaleMono-31" d="M 3181 0 
L 863 0 
L 863 447 
L 1797 447 
L 1797 3872 
L 916 3431 
L 916 3944 
L 1869 4434 
L 2309 4434 
L 2309 447 
L 3181 447 
L 3181 0 
z
" transform="scale(0.015625)"/>
       </defs>
       <use xlink:href="#AndaleMono-31"/>
       <use xlink:href="#AndaleMono-30" x="60.009766"/>
       <use xlink:href="#AndaleMono-30" x="120.019531"/>
       <use xlink:href="#AndaleMono-30" x="180.029297"/>
      </g>
     </g>
    </g>
   </g>
   <g id="matplotlib.axis_2">
    <g id="ytick_1">
     <g id="line2d_7">
      <defs>
       <path id="md794db7614" d="M 0 0 
L -3.5 0 
" style="stroke: #000000; stroke-width: 0.8"/>
      </defs>
      <g>
       <use xlink:href="#md794db7614" x="57.6" y="295.488" style="stroke: #000000; stroke-width: 0.8"/>
      </g>
     </g>
     <g id="text_7">
      <!-- 1.00 -->
      <g transform="translate(17.591406 299.276984) scale(0.11 -0.11)">
       <defs>
        <path id="AndaleMono-2212" d="M 3397 2047 
L 441 2047 
L 441 2456 
L 3397 2456 
L 3397 2047 
z
" transform="scale(0.015625)"/>
        <path id="AndaleMono-2e" d="M 1900 716 
Q 2066 716 2178 603 
Q 2291 491 2291 325 
Q 2291 156 2177 36 
Q 2063 -84 1900 -84 
Q 1741 -84 1628 36 
Q 1516 156 1516 325 
Q 1516 494 1627 605 
Q 1738 716 1900 716 
z
" transform="scale(0.015625)"/>
       </defs>
       <use xlink:href="#AndaleMono-2212"/>
       <use xlink:href="#AndaleMono-31" x="60.009766"/>
       <use xlink:href="#AndaleMono-2e" x="120.019531"/>
       <use xlink:href="#AndaleMono-30" x="180.029297"/>
       <use xlink:href="#AndaleMono-30" x="240.039062"/>
      </g>
     </g>
    </g>
    <g id="ytick_2">
     <g id="line2d_8">
      <g>
       <use xlink:href="#md794db7614" x="57.6" y="265.248" style="stroke: #000000; stroke-width: 0.8"/>
      </g>
     </g>
     <g id="text_8">
      <!-- 0.75 -->
      <g transform="translate(17.591406 269.036984) scale(0.11 -0.11)">
       <defs>
        <path id="AndaleMono-37" d="M 3238 4044 
L 1491 0 
L 966 0 
L 2688 3963 
L 622 3963 
L 622 4409 
L 3238 4409 
L 3238 4044 
z
" transform="scale(0.015625)"/>
        <path id="AndaleMono-35" d="M 1356 2631 
Q 1569 2688 1772 2688 
Q 2397 2688 2759 2305 
Q 3122 1922 3122 1350 
Q 3122 750 2700 333 
Q 2278 -84 1672 -84 
Q 1094 -84 703 109 
L 806 544 
Q 1231 366 1684 366 
Q 2088 366 2336 625 
Q 2584 884 2584 1350 
Q 2584 1791 2350 2028 
Q 2116 2266 1747 2266 
Q 1478 2266 1216 2163 
L 909 2303 
L 909 4409 
L 2925 4409 
L 2925 3963 
L 1356 3963 
L 1356 2631 
z
" transform="scale(0.015625)"/>
       </defs>
       <use xlink:href="#AndaleMono-2212"/>
       <use xlink:href="#AndaleMono-30" x="60.009766"/>
       <use xlink:href="#AndaleMono-2e" x="120.019531"/>
       <use xlink:href="#AndaleMono-37" x="180.029297"/>
       <use xlink:href="#AndaleMono-35" x="240.039062"/>
      </g>
     </g>
    </g>
    <g id="ytick_3">
     <g id="line2d_9">
      <g>
       <use xlink:href="#md794db7614" x="57.6" y="235.008" style="stroke: #000000; stroke-width: 0.8"/>
      </g>
     </g>
     <g id="text_9">
      <!-- 0.50 -->
      <g transform="translate(17.591406 238.796984) scale(0.11 -0.11)">
       <use xlink:href="#AndaleMono-2212"/>
       <use xlink:href="#AndaleMono-30" x="60.009766"/>
       <use xlink:href="#AndaleMono-2e" x="120.019531"/>
       <use xlink:href="#AndaleMono-35" x="180.029297"/>
       <use xlink:href="#AndaleMono-30" x="240.039062"/>
      </g>
     </g>
    </g>
    <g id="ytick_4">
     <g id="line2d_10">
      <g>
       <use xlink:href="#md794db7614" x="57.6" y="204.768" style="stroke: #000000; stroke-width: 0.8"/>
      </g>
     </g>
     <g id="text_10">
      <!-- 0.25 -->
      <g transform="translate(17.591406 208.556984) scale(0.11 -0.11)">
       <use xlink:href="#AndaleMono-2212"/>
       <use xlink:href="#AndaleMono-30" x="60.009766"/>
       <use xlink:href="#AndaleMono-2e" x="120.019531"/>
       <use xlink:href="#AndaleMono-32" x="180.029297"/>
       <use xlink:href="#AndaleMono-35" x="240.039062"/>
      </g>
     </g>
    </g>
    <g id="ytick_5">
     <g id="line2d_11">
      <g>
       <use xlink:href="#md794db7614" x="57.6" y="174.528" style="stroke: #000000; stroke-width: 0.8"/>
      </g>
     </g>
     <g id="text_11">
      <!-- 0.00 -->
      <g transform="translate(24.193125 178.316984) scale(0.11 -0.11)">
       <use xlink:href="#AndaleMono-30"/>
       <use xlink:href="#AndaleMono-2e" x="60.009766"/>
       <use xlink:href="#AndaleMono-30" x="120.019531"/>
       <use xlink:href="#AndaleMono-30" x="180.029297"/>
      </g>
     </g>
    </g>
    <g id="ytick_6">
     <g id="line2d_12">
      <g>
       <use xlink:href="#md794db7614" x="57.6" y="144.288" style="stroke: #000000; stroke-width: 0.8"/>
      </g>
     </g>
     <g id="text_12">
      <!-- 0.25 -->
      <g transform="translate(24.193125 148.076984) scale(0.11 -0.11)">
       <use xlink:href="#AndaleMono-30"/>
       <use xlink:href="#AndaleMono-2e" x="60.009766"/>
       <use xlink:href="#AndaleMono-32" x="120.019531"/>
       <use xlink:href="#AndaleMono-35" x="180.029297"/>
      </g>
     </g>
    </g>
    <g id="ytick_7">
     <g id="line2d_13">
      <g>
       <use xlink:href="#md794db7614" x="57.6" y="114.048" style="stroke: #000000; stroke-width: 0.8"/>
      </g>
     </g>
     <g id="text_13">
      <!-- 0.50 -->
      <g transform="translate(24.193125 117.836984) scale(0.11 -0.11)">
       <use xlink:href="#AndaleMono-30"/>
       <use xlink:href="#AndaleMono-2e" x="60.009766"/>
       <use xlink:href="#AndaleMono-35" x="120.019531"/>
       <use xlink:href="#AndaleMono-30" x="180.029297"/>
      </g>
     </g>
    </g>
    <g id="ytick_8">
     <g id="line2d_14">
      <g>
       <use xlink:href="#md794db7614" x="57.6" y="83.808" style="stroke: #000000; stroke-width: 0.8"/>
      </g>
     </g>
     <g id="text_14">
      <!-- 0.75 -->
      <g transform="translate(24.193125 87.596984) scale(0.11 -0.11)">
       <use xlink:href="#AndaleMono-30"/>
       <use xlink:href="#AndaleMono-2e" x="60.009766"/>
       <use xlink:href="#AndaleMono-37" x="120.019531"/>
       <use xlink:href="#AndaleMono-35" x="180.029297"/>
      </g>
     </g>
    </g>
    <g id="ytick_9">
     <g id="line2d_15">
      <g>
       <use xlink:href="#md794db7614" x="57.6" y="53.568" style="stroke: #000000; stroke-width: 0.8"/>
      </g>
     </g>
     <g id="text_15">
      <!-- 1.00 -->
      <g transform="translate(24.193125 57.356984) scale(0.11 -0.11)">
       <use xlink:href="#AndaleMono-31"/>
       <use xlink:href="#AndaleMono-2e" x="60.009766"/>
       <use xlink:href="#AndaleMono-30" x="120.019531"/>
       <use xlink:href="#AndaleMono-30" x="180.029297"/>
      </g>
     </g>
    </g>
   </g>
   <g id="line2d_16">
    <path d="M 73.832727 174.528 
L 74.150083 140.412848 
L 75.73686 135.145106 
L 77.323636 130.528159 
L 78.593058 127.555385 
L 80.814545 123.248006 
L 82.718678 119.890022 
L 83.988099 118.147184 
L 84.62281 118.293055 
L 85.257521 118.757221 
L 85.892231 119.506996 
L 86.844298 121.004907 
L 88.431074 123.95343 
L 90.335207 128.098636 
L 92.239339 132.817565 
L 95.095537 140.105462 
L 96.364959 142.508398 
L 97.317025 143.945376 
L 98.269091 144.934596 
L 99.221157 145.487044 
L 102.712066 147.082418 
L 103.346777 147.078373 
L 103.981488 146.841959 
L 104.933554 146.096066 
L 106.202975 144.719662 
L 108.424463 142.12502 
L 110.01124 140.636259 
L 112.550083 138.686065 
L 114.77157 137.075852 
L 115.723636 136.603901 
L 116.358347 136.530547 
L 116.993058 136.645134 
L 117.945124 137.173006 
L 118.89719 138.073522 
L 124.926942 145.662312 
L 127.14843 149.472089 
L 130.321983 155.371638 
L 131.591405 157.307839 
L 132.860826 158.800818 
L 134.130248 159.999687 
L 135.399669 160.954953 
L 136.351736 161.357584 
L 137.303802 161.532366 
L 138.255868 161.415443 
L 139.207934 161.154169 
L 140.16 160.504299 
L 141.429421 159.266912 
L 142.698843 157.905866 
L 144.602975 155.404249 
L 145.872397 153.341562 
L 147.459174 150.169231 
L 148.728595 146.73342 
L 149.998017 142.620224 
L 155.393058 123.899026 
L 156.662479 119.979588 
L 158.249256 115.583316 
L 159.518678 112.21439 
L 160.470744 109.901317 
L 162.057521 106.99817 
L 163.009587 105.633423 
L 164.596364 104.388615 
L 165.231074 103.909503 
L 166.18314 103.327312 
L 167.135207 102.582488 
L 168.087273 101.790636 
L 169.039339 101.312461 
L 169.991405 101.061347 
L 170.943471 101.12947 
L 171.895537 101.464718 
L 173.164959 101.534273 
L 173.799669 101.388252 
L 176.655868 99.886387 
L 177.607934 99.125851 
L 179.512066 96.970822 
L 180.464132 96.268813 
L 181.416198 94.746539 
L 182.68562 92.153789 
L 183.637686 89.662179 
L 186.176529 81.544101 
L 189.350083 69.689446 
L 192.206281 59.644739 
L 192.840992 57.703809 
L 193.793058 55.627495 
L 194.745124 54.346973 
L 195.379835 53.963571 
L 197.283967 53.578376 
L 197.918678 53.61545 
L 198.553388 53.977026 
L 199.188099 54.464432 
L 199.505455 54.519174 
L 200.457521 54.39034 
L 202.044298 54.755865 
L 202.996364 55.404526 
L 205.217851 57.659375 
L 205.852562 58.072433 
L 206.487273 58.754104 
L 207.121983 59.729682 
L 210.612893 66.573823 
L 211.564959 68.929773 
L 213.469091 74.350977 
L 214.103802 75.334584 
L 215.055868 76.211892 
L 215.373223 76.252061 
L 215.690579 76.067371 
L 216.007934 75.753874 
L 216.96 74.149594 
L 217.594711 72.638809 
L 218.546777 69.75518 
L 221.402975 60.495843 
L 222.037686 59.013785 
L 222.672397 58.073748 
L 222.989752 57.893261 
L 223.307107 57.855452 
L 223.624463 57.969998 
L 223.941818 58.219015 
L 224.576529 59.284663 
L 225.21124 61.063346 
L 225.84595 63.651512 
L 226.798017 68.992625 
L 227.750083 75.623844 
L 228.702149 83.732783 
L 229.654215 93.750135 
L 232.193058 125.31519 
L 235.683967 168.573564 
L 242.98314 258.867879 
L 244.252562 270.980258 
L 245.521983 280.063375 
L 246.47405 285.404488 
L 247.10876 287.992654 
L 247.743471 289.771337 
L 248.378182 290.836985 
L 249.012893 291.200548 
L 249.330248 291.162739 
L 249.647603 290.982252 
L 250.282314 290.042215 
L 250.917025 288.560157 
L 253.138512 281.410605 
L 254.725289 276.417191 
L 255.677355 274.276581 
L 256.312066 273.302126 
L 256.946777 272.803939 
L 257.264132 272.844108 
L 257.898843 273.386554 
L 258.533554 274.176208 
L 259.168264 275.328368 
L 259.802975 277.155164 
L 261.072397 280.970072 
L 262.024463 283.14106 
L 265.832727 290.301896 
L 266.467438 290.983567 
L 268.054215 292.209003 
L 269.323636 293.651474 
L 270.275702 294.300135 
L 271.545124 294.614793 
L 272.179835 294.631244 
L 273.131901 294.591568 
L 274.401322 295.44055 
L 275.036033 295.477624 
L 277.257521 294.965499 
L 277.892231 294.350402 
L 278.526942 293.428505 
L 279.479008 291.352191 
L 280.431074 288.311916 
L 282.017851 282.695698 
L 283.604628 276.967567 
L 287.095537 264.173025 
L 289.63438 256.902211 
L 290.903802 254.309461 
L 291.855868 252.787187 
L 292.490579 252.279506 
L 293.442645 251.579106 
L 294.712066 249.930149 
L 295.981488 248.960066 
L 299.155041 247.521727 
L 300.107107 247.554487 
L 301.059174 247.775421 
L 301.693884 247.980384 
L 302.64595 247.952344 
L 303.915372 247.458628 
L 304.867438 246.771871 
L 306.13686 245.728688 
L 306.77157 245.302796 
L 307.406281 244.931688 
L 309.627769 243.038794 
L 310.579835 241.486892 
L 312.166612 238.481104 
L 314.388099 232.656018 
L 316.292231 227.220025 
L 318.513719 219.801507 
L 320.735207 212.130778 
L 323.591405 202.32258 
L 324.860826 198.886769 
L 325.812893 196.905172 
L 327.399669 194.132014 
L 328.669091 192.326741 
L 330.890579 189.789088 
L 332.477355 188.292161 
L 333.429421 187.777745 
L 335.016198 187.523634 
L 335.650909 187.611737 
L 336.602975 187.933259 
L 337.555041 188.539482 
L 339.141818 189.923878 
L 340.41124 191.344609 
L 341.363306 192.653995 
L 342.632727 194.817276 
L 347.710413 203.895451 
L 348.979835 205.645176 
L 354.374876 211.882994 
L 355.326942 212.410866 
L 355.961653 212.525453 
L 356.596364 212.452099 
L 357.231074 212.178153 
L 359.135207 210.859659 
L 362.943471 207.86586 
L 364.530248 206.255361 
L 365.799669 204.725149 
L 367.069091 203.275453 
L 368.021157 202.419985 
L 368.655868 202.066865 
L 369.290579 201.948079 
L 369.925289 202.034594 
L 371.194711 202.6189 
L 374.050909 204.121404 
L 375.002975 205.110624 
L 375.955041 206.547602 
L 376.907107 208.30975 
L 377.859174 210.412001 
L 383.57157 224.502028 
L 385.158347 227.722305 
L 386.427769 229.960142 
L 387.379835 231.158376 
L 388.014545 231.606878 
L 388.649256 231.719706 
L 389.601322 230.364062 
L 391.188099 227.592444 
L 393.726942 222.698698 
L 394.996364 219.725925 
L 396.265785 216.083113 
L 397.852562 210.958225 
L 398.169917 209.841236 
L 398.487273 174.528 
L 398.487273 174.528 
" clip-path="url(#p9e8843c76f)" style="fill: none; stroke: #87ceeb; stroke-opacity: 0.75; stroke-linecap: square"/>
   </g>
   <g id="patch_3">
    <path d="M 57.6 307.584 
L 57.6 41.472 
" style="fill: none; stroke: #000000; stroke-width: 0.8; stroke-linejoin: miter; stroke-linecap: square"/>
   </g>
   <g id="patch_4">
    <path d="M 414.72 307.584 
L 414.72 41.472 
" style="fill: none; stroke: #000000; stroke-width: 0.8; stroke-linejoin: miter; stroke-linecap: square"/>
   </g>
   <g id="patch_5">
    <path d="M 57.6 307.584 
L 414.72 307.584 
" style="fill: none; stroke: #000000; stroke-width: 0.8; stroke-linejoin: miter; stroke-linecap: square"/>
   </g>
   <g id="patch_6">
    <path d="M 57.6 41.472 
L 414.72 41.472 
" style="fill: none; stroke: #000000; stroke-width: 0.8; stroke-linejoin: miter; stroke-linecap: square"/>
   </g>
  </g>
 </g>
 <defs>
  <clipPath id="p9e8843c76f">
   <rect x="57.6" y="41.472" width="357.12" height="266.112"/>
  </clipPath>
 </defs>
</svg>
