<?xml version="1.0" encoding="utf-8" standalone="no"?>
<!DOCTYPE svg PUBLIC "-//W3C//DTD SVG 1.1//EN"
  "http://www.w3.org/Graphics/SVG/1.1/DTD/svg11.dtd">
<svg xmlns:xlink="http://www.w3.org/1999/xlink" width="460.8pt" height="345.6pt" viewBox="0 0 460.8 345.6" xmlns="http://www.w3.org/2000/svg" version="1.1">
 <metadata>
  <rdf:RDF xmlns:dc="http://purl.org/dc/elements/1.1/" xmlns:cc="http://creativecommons.org/ns#" xmlns:rdf="http://www.w3.org/1999/02/22-rdf-syntax-ns#">
   <cc:Work>
    <dc:type rdf:resource="http://purl.org/dc/dcmitype/StillImage"/>
    <dc:date>2024-04-23T11:13:05.301460</dc:date>
    <dc:format>image/svg+xml</dc:format>
    <dc:creator>
     <cc:Agent>
      <dc:title>Matplotlib v3.8.3, https://matplotlib.org/</dc:title>
     </cc:Agent>
    </dc:creator>
   </cc:Work>
  </rdf:RDF>
 </metadata>
 <defs>
  <style type="text/css">*{stroke-linejoin: round; stroke-linecap: butt}</style>
 </defs>
 <g id="figure_1">
  <g id="patch_1">
   <path d="M 0 345.6 
L 460.8 345.6 
L 460.8 0 
L 0 0 
z
" style="fill: #ffffff"/>
  </g>
  <g id="axes_1">
   <g id="patch_2">
    <path d="M 57.6 307.584 
L 414.72 307.584 
L 414.72 41.472 
L 57.6 41.472 
z
" style="fill: #ffffff"/>
   </g>
   <g id="PolyCollection_1">
    <defs>
     <path id="mf0fb748dcd" d="M 73.832727 -171.072 
L 73.832727 -171.072 
L 74.150083 -186.046721 
L 74.467438 -186.672965 
L 74.784793 -187.328059 
L 75.102149 -187.992204 
L 75.419504 -188.683065 
L 75.73686 -189.397778 
L 76.054215 -190.122592 
L 76.37157 -190.869833 
L 76.688926 -191.624516 
L 77.006281 -192.371435 
L 77.323636 -193.116533 
L 77.640992 -193.863458 
L 77.958347 -194.607853 
L 78.275702 -195.331344 
L 78.593058 -196.051862 
L 78.910413 -196.783214 
L 79.227769 -197.49398 
L 79.545124 -198.213741 
L 79.862479 -198.908182 
L 80.179835 -199.575755 
L 80.49719 -200.252833 
L 80.814545 -200.938747 
L 81.131901 -201.62537 
L 81.449256 -202.321977 
L 81.766612 -203.012075 
L 82.083967 -203.684279 
L 82.401322 -204.315042 
L 82.718678 -204.931785 
L 83.036033 -205.544431 
L 83.353388 -206.119355 
L 83.670744 -206.703268 
L 83.988099 -207.293456 
L 84.305455 -207.389226 
L 84.62281 -207.511652 
L 84.940165 -207.635927 
L 85.257521 -207.771601 
L 85.574876 -207.979153 
L 85.892231 -208.242882 
L 86.209587 -208.548127 
L 86.526942 -208.882425 
L 86.844298 -209.245282 
L 87.161653 -209.624113 
L 87.479008 -210.007658 
L 87.796364 -210.393075 
L 88.113719 -210.783459 
L 88.431074 -211.188343 
L 88.74843 -211.638424 
L 89.065785 -212.093931 
L 89.38314 -212.551593 
L 89.700496 -212.99445 
L 90.017851 -213.399366 
L 90.335207 -213.783264 
L 90.652562 -214.178953 
L 90.969917 -214.586145 
L 91.287273 -214.996378 
L 91.604628 -215.431518 
L 91.921983 -215.883504 
L 92.239339 -216.361066 
L 92.556694 -216.847783 
L 92.87405 -217.322287 
L 93.191405 -217.804772 
L 93.50876 -218.304169 
L 93.826116 -218.807523 
L 94.143471 -219.297578 
L 94.460826 -219.794624 
L 94.778182 -220.316865 
L 95.095537 -220.8252 
L 95.412893 -221.329746 
L 95.730248 -221.803285 
L 96.047603 -222.256851 
L 96.364959 -222.707303 
L 96.682314 -223.131914 
L 96.999669 -223.517005 
L 97.317025 -223.885243 
L 97.63438 -224.254749 
L 97.951736 -224.59999 
L 98.269091 -224.935547 
L 98.586446 -225.295153 
L 98.903802 -225.657391 
L 99.221157 -225.99706 
L 99.538512 -226.353624 
L 99.855868 -226.660793 
L 100.173223 -226.992313 
L 100.490579 -227.347474 
L 100.807934 -227.654789 
L 101.125289 -227.939073 
L 101.442645 -228.204603 
L 101.76 -228.413107 
L 102.077355 -228.599718 
L 102.394711 -228.774444 
L 102.712066 -229.007642 
L 103.029421 -229.226306 
L 103.346777 -229.397659 
L 103.664132 -229.626422 
L 103.981488 -229.828399 
L 104.298843 -230.008429 
L 104.616198 -230.252349 
L 104.933554 -230.484566 
L 105.250909 -230.708347 
L 105.568264 -230.955126 
L 105.88562 -231.132354 
L 106.202975 -231.259462 
L 106.520331 -231.332176 
L 106.837686 -231.379385 
L 107.155041 -231.381287 
L 107.472397 -231.3319 
L 107.789752 -231.265215 
L 108.107107 -231.177042 
L 108.424463 -231.082411 
L 108.741818 -230.991623 
L 109.059174 -230.834228 
L 109.376529 -230.645373 
L 109.693884 -230.41691 
L 110.01124 -230.184722 
L 110.328595 -230.02791 
L 110.64595 -229.930095 
L 110.963306 -229.798451 
L 111.280661 -229.615929 
L 111.598017 -229.427994 
L 111.915372 -229.20476 
L 112.232727 -228.897305 
L 112.550083 -228.512045 
L 112.867438 -228.085862 
L 113.184793 -227.647954 
L 113.502149 -227.184188 
L 113.819504 -226.713116 
L 114.13686 -226.244422 
L 114.454215 -225.799817 
L 114.77157 -225.448711 
L 115.088926 -225.135563 
L 115.406281 -224.869132 
L 115.723636 -224.68768 
L 116.040992 -224.596396 
L 116.358347 -224.574432 
L 116.675702 -224.60339 
L 116.993058 -224.677758 
L 117.310413 -224.836481 
L 117.627769 -225.064342 
L 117.945124 -225.323723 
L 118.262479 -225.638483 
L 118.579835 -225.995189 
L 118.89719 -226.367364 
L 119.214545 -226.748685 
L 119.531901 -227.135024 
L 119.849256 -227.535306 
L 120.166612 -227.996818 
L 120.483967 -228.471527 
L 120.801322 -228.972624 
L 121.118678 -229.54038 
L 121.436033 -230.144626 
L 121.753388 -230.782965 
L 122.070744 -231.509275 
L 122.388099 -232.29315 
L 122.705455 -233.150914 
L 123.02281 -234.032539 
L 123.340165 -235.020544 
L 123.657521 -236.148915 
L 123.974876 -237.313248 
L 124.292231 -238.562063 
L 124.609587 -239.89911 
L 124.926942 -241.278811 
L 125.244298 -242.711325 
L 125.561653 -244.270145 
L 125.879008 -245.866006 
L 126.196364 -247.518882 
L 126.513719 -249.219799 
L 126.831074 -250.980035 
L 127.14843 -252.760996 
L 127.465785 -254.572842 
L 127.78314 -256.438854 
L 128.100496 -258.308848 
L 128.417851 -260.180881 
L 128.735207 -262.035111 
L 129.052562 -263.808982 
L 129.369917 -265.537478 
L 129.687273 -267.234756 
L 130.004628 -268.907134 
L 130.321983 -270.534588 
L 130.639339 -272.043739 
L 130.956694 -273.417438 
L 131.27405 -274.726186 
L 131.591405 -276.015378 
L 131.90876 -277.233938 
L 132.226116 -278.380131 
L 132.543471 -279.558352 
L 132.860826 -280.751814 
L 133.178182 -281.941313 
L 133.495537 -283.141523 
L 133.812893 -284.354728 
L 134.130248 -285.522406 
L 134.447603 -286.659132 
L 134.764959 -287.778542 
L 135.082314 -288.764974 
L 135.399669 -289.649422 
L 135.717025 -290.431353 
L 136.03438 -291.056445 
L 136.351736 -291.520556 
L 136.669091 -291.826932 
L 136.986446 -291.991873 
L 137.303802 -292.032 
L 137.621157 -291.939361 
L 137.938512 -291.730909 
L 138.255868 -291.424424 
L 138.573223 -291.022309 
L 138.890579 -290.53701 
L 139.207934 -289.986438 
L 139.525289 -289.387334 
L 139.842645 -288.76735 
L 140.16 -288.116519 
L 140.477355 -287.430069 
L 140.794711 -286.724403 
L 141.112066 -285.995751 
L 141.429421 -285.245294 
L 141.746777 -284.484085 
L 142.064132 -283.722128 
L 142.381488 -282.936396 
L 142.698843 -282.143053 
L 143.016198 -281.328458 
L 143.333554 -280.49272 
L 143.650909 -279.593969 
L 143.968264 -278.616677 
L 144.28562 -277.590345 
L 144.602975 -276.499504 
L 144.920331 -275.333531 
L 145.237686 -274.0945 
L 145.555041 -272.791211 
L 145.872397 -271.364997 
L 146.189752 -269.856504 
L 146.507107 -268.268194 
L 146.824463 -266.596801 
L 147.141818 -264.840567 
L 147.459174 -263.018615 
L 147.776529 -261.140297 
L 148.093884 -259.198802 
L 148.41124 -257.22158 
L 148.728595 -255.217725 
L 149.04595 -253.18982 
L 149.363306 -251.181502 
L 149.680661 -249.19805 
L 149.998017 -247.231259 
L 150.315372 -245.288173 
L 150.632727 -243.372638 
L 150.950083 -241.504196 
L 151.267438 -239.701496 
L 151.584793 -237.955984 
L 151.902149 -236.239708 
L 152.219504 -234.567841 
L 152.53686 -232.952396 
L 152.854215 -231.347338 
L 153.17157 -229.754959 
L 153.488926 -228.174472 
L 153.806281 -226.584752 
L 154.123636 -224.979587 
L 154.440992 -223.390973 
L 154.758347 -221.807949 
L 155.075702 -220.21232 
L 155.393058 -218.650504 
L 155.710413 -217.122309 
L 156.027769 -215.637214 
L 156.345124 -214.220333 
L 156.662479 -212.878455 
L 156.979835 -211.621845 
L 157.29719 -210.45018 
L 157.614545 -209.363757 
L 157.931901 -208.359484 
L 158.249256 -207.427115 
L 158.566612 -206.561749 
L 158.883967 -205.75878 
L 159.201322 -205.009911 
L 159.518678 -204.30928 
L 159.836033 -203.648815 
L 160.153388 -203.014348 
L 160.470744 -202.398279 
L 160.788099 -201.79453 
L 161.105455 -201.195384 
L 161.42281 -200.592871 
L 161.740165 -199.979225 
L 162.057521 -199.348199 
L 162.374876 -198.696117 
L 162.692231 -198.021425 
L 163.009587 -197.317963 
L 163.326942 -196.584328 
L 163.644298 -195.822409 
L 163.961653 -195.036652 
L 164.279008 -194.232286 
L 164.596364 -193.413394 
L 164.913719 -192.584354 
L 165.231074 -191.750367 
L 165.54843 -190.918419 
L 165.865785 -190.095944 
L 166.18314 -189.286763 
L 166.500496 -188.495605 
L 166.817851 -187.730935 
L 167.135207 -187.001157 
L 167.452562 -186.31404 
L 167.769917 -185.670256 
L 168.087273 -185.068981 
L 168.404628 -184.511273 
L 168.721983 -183.995933 
L 169.039339 -183.521756 
L 169.356694 -183.086735 
L 169.67405 -182.688273 
L 169.991405 -182.323529 
L 170.30876 -181.99074 
L 170.626116 -181.687328 
L 170.943471 -181.409778 
L 171.260826 -181.155248 
L 171.578182 -180.920703 
L 171.895537 -180.702906 
L 172.212893 -180.50132 
L 172.530248 -180.314843 
L 172.847603 -180.139488 
L 173.164959 -179.97334 
L 173.482314 -179.815994 
L 173.799669 -179.667239 
L 174.117025 -179.524723 
L 174.43438 -179.385754 
L 174.751736 -179.249487 
L 175.069091 -179.114771 
L 175.386446 -178.982575 
L 175.703802 -178.851151 
L 176.021157 -178.718679 
L 176.338512 -178.581426 
L 176.655868 -178.439208 
L 176.973223 -178.294461 
L 177.290579 -178.145958 
L 177.607934 -177.992888 
L 177.925289 -177.834129 
L 178.242645 -177.671183 
L 178.56 -177.506757 
L 178.877355 -177.341334 
L 179.194711 -177.175419 
L 179.512066 -177.008313 
L 179.829421 -176.838525 
L 180.146777 -176.667938 
L 180.464132 -176.499045 
L 180.781488 -176.33161 
L 181.098843 -176.167249 
L 181.416198 -176.006532 
L 181.733554 -175.851205 
L 182.050909 -175.702406 
L 182.368264 -175.561526 
L 182.68562 -175.428699 
L 183.002975 -175.302229 
L 183.320331 -175.184026 
L 183.637686 -175.073223 
L 183.955041 -174.97111 
L 184.272397 -174.878563 
L 184.589752 -174.7945 
L 184.907107 -174.717682 
L 185.224463 -174.648106 
L 185.541818 -174.5847 
L 185.859174 -174.52696 
L 186.176529 -174.474043 
L 186.493884 -174.426498 
L 186.81124 -174.384546 
L 187.128595 -174.346764 
L 187.44595 -174.310472 
L 187.763306 -174.275202 
L 188.080661 -174.241517 
L 188.398017 -174.209649 
L 188.715372 -174.177921 
L 189.032727 -174.146538 
L 189.350083 -174.114803 
L 189.667438 -174.082265 
L 189.984793 -174.04983 
L 190.302149 -174.018687 
L 190.619504 -173.988059 
L 190.93686 -173.957606 
L 191.254215 -173.926911 
L 191.57157 -173.895506 
L 191.888926 -173.863592 
L 192.206281 -173.831393 
L 192.523636 -173.798378 
L 192.840992 -173.763331 
L 193.158347 -173.728463 
L 193.475702 -173.693279 
L 193.793058 -173.656381 
L 194.110413 -173.61808 
L 194.427769 -173.579053 
L 194.745124 -173.539506 
L 195.062479 -173.49889 
L 195.379835 -173.458656 
L 195.69719 -173.417526 
L 196.014545 -173.376572 
L 196.331901 -173.335768 
L 196.649256 -173.296482 
L 196.966612 -173.260321 
L 197.283967 -173.226647 
L 197.601322 -173.196325 
L 197.918678 -173.169031 
L 198.236033 -173.14551 
L 198.553388 -173.124752 
L 198.870744 -173.104684 
L 199.188099 -173.085877 
L 199.505455 -173.067829 
L 199.82281 -173.049776 
L 200.140165 -173.032695 
L 200.457521 -173.015928 
L 200.774876 -172.999771 
L 201.092231 -172.985866 
L 201.409587 -172.972189 
L 201.726942 -172.957753 
L 202.044298 -172.941296 
L 202.361653 -172.923778 
L 202.679008 -172.904654 
L 202.996364 -172.882993 
L 203.313719 -172.860652 
L 203.631074 -172.837462 
L 203.94843 -172.814198 
L 204.265785 -172.790568 
L 204.58314 -172.766157 
L 204.900496 -172.741164 
L 205.217851 -172.716988 
L 205.535207 -172.693193 
L 205.852562 -172.670698 
L 206.169917 -172.648259 
L 206.487273 -172.626439 
L 206.804628 -172.604311 
L 207.121983 -172.582499 
L 207.439339 -172.561607 
L 207.756694 -172.541837 
L 208.07405 -172.523087 
L 208.391405 -172.505336 
L 208.70876 -172.488145 
L 209.026116 -172.472993 
L 209.343471 -172.458524 
L 209.660826 -172.444839 
L 209.978182 -172.43217 
L 210.295537 -172.419531 
L 210.612893 -172.407599 
L 210.930248 -172.395919 
L 211.247603 -172.384145 
L 211.564959 -172.372162 
L 211.882314 -172.359593 
L 212.199669 -172.346067 
L 212.517025 -172.331959 
L 212.83438 -172.317353 
L 213.151736 -172.303301 
L 213.469091 -172.288554 
L 213.786446 -172.273839 
L 214.103802 -172.260296 
L 214.421157 -172.246404 
L 214.738512 -172.232554 
L 215.055868 -172.219536 
L 215.373223 -172.207968 
L 215.690579 -172.197282 
L 216.007934 -172.188668 
L 216.325289 -172.182134 
L 216.642645 -172.178927 
L 216.96 -172.178765 
L 217.277355 -172.180725 
L 217.594711 -172.184882 
L 217.912066 -172.190376 
L 218.229421 -172.197948 
L 218.546777 -172.205763 
L 218.864132 -172.213507 
L 219.181488 -172.221757 
L 219.498843 -172.229841 
L 219.816198 -172.238048 
L 220.133554 -172.246641 
L 220.450909 -172.254564 
L 220.768264 -172.2613 
L 221.08562 -172.266108 
L 221.402975 -172.268137 
L 221.720331 -172.267936 
L 222.037686 -172.266253 
L 222.355041 -172.263086 
L 222.672397 -172.257995 
L 222.989752 -172.251327 
L 223.307107 -172.243454 
L 223.624463 -172.233593 
L 223.941818 -172.221998 
L 224.259174 -172.209155 
L 224.576529 -172.19486 
L 224.893884 -172.179009 
L 225.21124 -172.161551 
L 225.528595 -172.142318 
L 225.84595 -172.122056 
L 226.163306 -172.100652 
L 226.480661 -172.078609 
L 226.798017 -172.055326 
L 227.115372 -172.031323 
L 227.432727 -172.005985 
L 227.750083 -171.979086 
L 228.067438 -171.951115 
L 228.384793 -171.922595 
L 228.702149 -171.893014 
L 229.019504 -171.862008 
L 229.33686 -171.829286 
L 229.654215 -171.795783 
L 229.97157 -171.761539 
L 230.288926 -171.726109 
L 230.606281 -171.690092 
L 230.923636 -171.652153 
L 231.240992 -171.612787 
L 231.558347 -171.572156 
L 231.875702 -171.530439 
L 232.193058 -171.488601 
L 232.510413 -171.44752 
L 232.827769 -171.407329 
L 233.145124 -171.36809 
L 233.462479 -171.329625 
L 233.779835 -171.291967 
L 234.09719 -171.255549 
L 234.414545 -171.221215 
L 234.731901 -171.189343 
L 235.049256 -171.160038 
L 235.366612 -171.132607 
L 235.683967 -171.106995 
L 236.001322 -171.083481 
L 236.318678 -171.060519 
L 236.636033 -171.037005 
L 236.953388 -171.011393 
L 237.270744 -170.983962 
L 237.588099 -170.954657 
L 237.905455 -170.922785 
L 238.22281 -170.888451 
L 238.540165 -170.852033 
L 238.857521 -170.814375 
L 239.174876 -170.77591 
L 239.492231 -170.736671 
L 239.809587 -170.69648 
L 240.126942 -170.655399 
L 240.444298 -170.613561 
L 240.761653 -170.571844 
L 241.079008 -170.531213 
L 241.396364 -170.491847 
L 241.713719 -170.453908 
L 242.031074 -170.417891 
L 242.34843 -170.382461 
L 242.665785 -170.348217 
L 242.98314 -170.314714 
L 243.300496 -170.281992 
L 243.617851 -170.250986 
L 243.935207 -170.221405 
L 244.252562 -170.192885 
L 244.569917 -170.164914 
L 244.887273 -170.138015 
L 245.204628 -170.112677 
L 245.521983 -170.088674 
L 245.839339 -170.065391 
L 246.156694 -170.043348 
L 246.47405 -170.021944 
L 246.791405 -170.001682 
L 247.10876 -169.982449 
L 247.426116 -169.964991 
L 247.743471 -169.94914 
L 248.060826 -169.934845 
L 248.378182 -169.922002 
L 248.695537 -169.910407 
L 249.012893 -169.900546 
L 249.330248 -169.892673 
L 249.647603 -169.886005 
L 249.964959 -169.880914 
L 250.282314 -169.877747 
L 250.599669 -169.876064 
L 250.917025 -169.875863 
L 251.23438 -169.877892 
L 251.551736 -169.8827 
L 251.869091 -169.889436 
L 252.186446 -169.897359 
L 252.503802 -169.905952 
L 252.821157 -169.914159 
L 253.138512 -169.922243 
L 253.455868 -169.930493 
L 253.773223 -169.938237 
L 254.090579 -169.946052 
L 254.407934 -169.953624 
L 254.725289 -169.959118 
L 255.042645 -169.963275 
L 255.36 -169.965235 
L 255.677355 -169.965073 
L 255.994711 -169.961866 
L 256.312066 -169.955332 
L 256.629421 -169.946718 
L 256.946777 -169.936032 
L 257.264132 -169.924464 
L 257.581488 -169.911446 
L 257.898843 -169.897596 
L 258.216198 -169.883704 
L 258.533554 -169.870161 
L 258.850909 -169.855446 
L 259.168264 -169.840699 
L 259.48562 -169.826647 
L 259.802975 -169.812041 
L 260.120331 -169.797933 
L 260.437686 -169.784407 
L 260.755041 -169.771838 
L 261.072397 -169.759855 
L 261.389752 -169.748081 
L 261.707107 -169.736401 
L 262.024463 -169.724469 
L 262.341818 -169.71183 
L 262.659174 -169.699161 
L 262.976529 -169.685476 
L 263.293884 -169.671007 
L 263.61124 -169.655855 
L 263.928595 -169.638664 
L 264.24595 -169.620913 
L 264.563306 -169.602163 
L 264.880661 -169.582393 
L 265.198017 -169.561501 
L 265.515372 -169.539689 
L 265.832727 -169.517561 
L 266.150083 -169.495741 
L 266.467438 -169.473302 
L 266.784793 -169.450807 
L 267.102149 -169.427012 
L 267.419504 -169.402836 
L 267.73686 -169.377843 
L 268.054215 -169.353432 
L 268.37157 -169.329802 
L 268.688926 -169.306538 
L 269.006281 -169.283348 
L 269.323636 -169.261007 
L 269.640992 -169.239346 
L 269.958347 -169.220222 
L 270.275702 -169.202704 
L 270.593058 -169.186247 
L 270.910413 -169.171811 
L 271.227769 -169.158134 
L 271.545124 -169.144229 
L 271.862479 -169.128072 
L 272.179835 -169.111305 
L 272.49719 -169.094224 
L 272.814545 -169.076171 
L 273.131901 -169.058123 
L 273.449256 -169.039316 
L 273.766612 -169.019248 
L 274.083967 -168.99849 
L 274.401322 -168.974969 
L 274.718678 -168.947675 
L 275.036033 -168.917353 
L 275.353388 -168.883679 
L 275.670744 -168.847518 
L 275.988099 -168.808232 
L 276.305455 -168.767428 
L 276.62281 -168.726474 
L 276.940165 -168.685344 
L 277.257521 -168.64511 
L 277.574876 -168.604494 
L 277.892231 -168.564947 
L 278.209587 -168.52592 
L 278.526942 -168.487619 
L 278.844298 -168.450721 
L 279.161653 -168.415537 
L 279.479008 -168.380669 
L 279.796364 -168.345622 
L 280.113719 -168.312607 
L 280.431074 -168.280408 
L 280.74843 -168.248494 
L 281.065785 -168.217089 
L 281.38314 -168.186394 
L 281.700496 -168.155941 
L 282.017851 -168.125313 
L 282.335207 -168.09417 
L 282.652562 -168.061735 
L 282.969917 -168.029197 
L 283.287273 -167.997462 
L 283.604628 -167.966079 
L 283.921983 -167.934351 
L 284.239339 -167.902483 
L 284.556694 -167.868798 
L 284.87405 -167.833528 
L 285.191405 -167.797236 
L 285.50876 -167.759454 
L 285.826116 -167.717502 
L 286.143471 -167.669957 
L 286.460826 -167.61704 
L 286.778182 -167.5593 
L 287.095537 -167.495894 
L 287.412893 -167.426318 
L 287.730248 -167.3495 
L 288.047603 -167.265437 
L 288.364959 -167.17289 
L 288.682314 -167.070777 
L 288.999669 -166.959974 
L 289.317025 -166.841771 
L 289.63438 -166.715301 
L 289.951736 -166.582474 
L 290.269091 -166.441594 
L 290.586446 -166.292795 
L 290.903802 -166.137468 
L 291.221157 -165.976751 
L 291.538512 -165.81239 
L 291.855868 -165.644955 
L 292.173223 -165.476062 
L 292.490579 -165.305475 
L 292.807934 -165.135687 
L 293.125289 -164.968581 
L 293.442645 -164.802666 
L 293.76 -164.637243 
L 294.077355 -164.472817 
L 294.394711 -164.309871 
L 294.712066 -164.151112 
L 295.029421 -163.998042 
L 295.346777 -163.849539 
L 295.664132 -163.704792 
L 295.981488 -163.562574 
L 296.298843 -163.425321 
L 296.616198 -163.292849 
L 296.933554 -163.161425 
L 297.250909 -163.029229 
L 297.568264 -162.894513 
L 297.88562 -162.758246 
L 298.202975 -162.619277 
L 298.520331 -162.476761 
L 298.837686 -162.328006 
L 299.155041 -162.17066 
L 299.472397 -162.004512 
L 299.789752 -161.829157 
L 300.107107 -161.64268 
L 300.424463 -161.441094 
L 300.741818 -161.223297 
L 301.059174 -160.988752 
L 301.376529 -160.734222 
L 301.693884 -160.456672 
L 302.01124 -160.15326 
L 302.328595 -159.820471 
L 302.64595 -159.455727 
L 302.963306 -159.057265 
L 303.280661 -158.622244 
L 303.598017 -158.148067 
L 303.915372 -157.632727 
L 304.232727 -157.075019 
L 304.550083 -156.473744 
L 304.867438 -155.82996 
L 305.184793 -155.142843 
L 305.502149 -154.413065 
L 305.819504 -153.648395 
L 306.13686 -152.857237 
L 306.454215 -152.048056 
L 306.77157 -151.225581 
L 307.088926 -150.393633 
L 307.406281 -149.559646 
L 307.723636 -148.730606 
L 308.040992 -147.911714 
L 308.358347 -147.107348 
L 308.675702 -146.321591 
L 308.993058 -145.559672 
L 309.310413 -144.826037 
L 309.627769 -144.122575 
L 309.945124 -143.447883 
L 310.262479 -142.795801 
L 310.579835 -142.164775 
L 310.89719 -141.551129 
L 311.214545 -140.948616 
L 311.531901 -140.34947 
L 311.849256 -139.745721 
L 312.166612 -139.129652 
L 312.483967 -138.495185 
L 312.801322 -137.83472 
L 313.118678 -137.134089 
L 313.436033 -136.38522 
L 313.753388 -135.582251 
L 314.070744 -134.716885 
L 314.388099 -133.784516 
L 314.705455 -132.780243 
L 315.02281 -131.69382 
L 315.340165 -130.522155 
L 315.657521 -129.265545 
L 315.974876 -127.923667 
L 316.292231 -126.506786 
L 316.609587 -125.021691 
L 316.926942 -123.493496 
L 317.244298 -121.93168 
L 317.561653 -120.336051 
L 317.879008 -118.753027 
L 318.196364 -117.164413 
L 318.513719 -115.559248 
L 318.831074 -113.969528 
L 319.14843 -112.389041 
L 319.465785 -110.796662 
L 319.78314 -109.191604 
L 320.100496 -107.576159 
L 320.417851 -105.904292 
L 320.735207 -104.188016 
L 321.052562 -102.442504 
L 321.369917 -100.639804 
L 321.687273 -98.771362 
L 322.004628 -96.855827 
L 322.321983 -94.912741 
L 322.639339 -92.94595 
L 322.956694 -90.962498 
L 323.27405 -88.95418 
L 323.591405 -86.926275 
L 323.90876 -84.92242 
L 324.226116 -82.945198 
L 324.543471 -81.003703 
L 324.860826 -79.125385 
L 325.178182 -77.303433 
L 325.495537 -75.547199 
L 325.812893 -73.875806 
L 326.130248 -72.287496 
L 326.447603 -70.779003 
L 326.764959 -69.352789 
L 327.082314 -68.0495 
L 327.399669 -66.810469 
L 327.717025 -65.644496 
L 328.03438 -64.553655 
L 328.351736 -63.527323 
L 328.669091 -62.550031 
L 328.986446 -61.65128 
L 329.303802 -60.815542 
L 329.621157 -60.000947 
L 329.938512 -59.207604 
L 330.255868 -58.421872 
L 330.573223 -57.659915 
L 330.890579 -56.898706 
L 331.207934 -56.148249 
L 331.525289 -55.419597 
L 331.842645 -54.713931 
L 332.16 -54.027481 
L 332.477355 -53.37665 
L 332.794711 -52.756666 
L 333.112066 -52.157562 
L 333.429421 -51.60699 
L 333.746777 -51.121691 
L 334.064132 -50.719576 
L 334.381488 -50.413091 
L 334.698843 -50.204639 
L 335.016198 -50.112 
L 335.333554 -50.152127 
L 335.650909 -50.317068 
L 335.968264 -50.623444 
L 336.28562 -51.087555 
L 336.602975 -51.712647 
L 336.920331 -52.494578 
L 337.237686 -53.379026 
L 337.555041 -54.365458 
L 337.872397 -55.484868 
L 338.189752 -56.621594 
L 338.507107 -57.789272 
L 338.824463 -59.002477 
L 339.141818 -60.202687 
L 339.459174 -61.392186 
L 339.776529 -62.585648 
L 340.093884 -63.763869 
L 340.41124 -64.910062 
L 340.728595 -66.128622 
L 341.04595 -67.417814 
L 341.363306 -68.726562 
L 341.680661 -70.100261 
L 341.998017 -71.609412 
L 342.315372 -73.236866 
L 342.632727 -74.909244 
L 342.950083 -76.606522 
L 343.267438 -78.335018 
L 343.584793 -80.108889 
L 343.902149 -81.963119 
L 344.219504 -83.835152 
L 344.53686 -85.705146 
L 344.854215 -87.571158 
L 345.17157 -89.383004 
L 345.488926 -91.163965 
L 345.806281 -92.924201 
L 346.123636 -94.625118 
L 346.440992 -96.277994 
L 346.758347 -97.873855 
L 347.075702 -99.432675 
L 347.393058 -100.865189 
L 347.710413 -102.24489 
L 348.027769 -103.581937 
L 348.345124 -104.830752 
L 348.662479 -105.995085 
L 348.979835 -107.123456 
L 349.29719 -108.111461 
L 349.614545 -108.993086 
L 349.931901 -109.85085 
L 350.249256 -110.634725 
L 350.566612 -111.361035 
L 350.883967 -111.999374 
L 351.201322 -112.60362 
L 351.518678 -113.171376 
L 351.836033 -113.672473 
L 352.153388 -114.147182 
L 352.470744 -114.608694 
L 352.788099 -115.008976 
L 353.105455 -115.395315 
L 353.42281 -115.776636 
L 353.740165 -116.148811 
L 354.057521 -116.505517 
L 354.374876 -116.820277 
L 354.692231 -117.079658 
L 355.009587 -117.307519 
L 355.326942 -117.466242 
L 355.644298 -117.54061 
L 355.961653 -117.569568 
L 356.279008 -117.547604 
L 356.596364 -117.45632 
L 356.913719 -117.274868 
L 357.231074 -117.008437 
L 357.54843 -116.695289 
L 357.865785 -116.344183 
L 358.18314 -115.899578 
L 358.500496 -115.430884 
L 358.817851 -114.959812 
L 359.135207 -114.496046 
L 359.452562 -114.058138 
L 359.769917 -113.631955 
L 360.087273 -113.246695 
L 360.404628 -112.93924 
L 360.721983 -112.716006 
L 361.039339 -112.528071 
L 361.356694 -112.345549 
L 361.67405 -112.213905 
L 361.991405 -112.11609 
L 362.30876 -111.959278 
L 362.626116 -111.72709 
L 362.943471 -111.498627 
L 363.260826 -111.309772 
L 363.578182 -111.152377 
L 363.895537 -111.061589 
L 364.212893 -110.966958 
L 364.530248 -110.878785 
L 364.847603 -110.8121 
L 365.164959 -110.762713 
L 365.482314 -110.764615 
L 365.799669 -110.811824 
L 366.117025 -110.884538 
L 366.43438 -111.011646 
L 366.751736 -111.188874 
L 367.069091 -111.435653 
L 367.386446 -111.659434 
L 367.703802 -111.891651 
L 368.021157 -112.135571 
L 368.338512 -112.315601 
L 368.655868 -112.517578 
L 368.973223 -112.746341 
L 369.290579 -112.917694 
L 369.607934 -113.136358 
L 369.925289 -113.369556 
L 370.242645 -113.544282 
L 370.56 -113.730893 
L 370.877355 -113.939397 
L 371.194711 -114.204927 
L 371.512066 -114.489211 
L 371.829421 -114.796526 
L 372.146777 -115.151687 
L 372.464132 -115.483207 
L 372.781488 -115.790376 
L 373.098843 -116.14694 
L 373.416198 -116.486609 
L 373.733554 -116.848847 
L 374.050909 -117.208453 
L 374.368264 -117.54401 
L 374.68562 -117.889251 
L 375.002975 -118.258757 
L 375.320331 -118.626995 
L 375.637686 -119.012086 
L 375.955041 -119.436697 
L 376.272397 -119.887149 
L 376.589752 -120.340715 
L 376.907107 -120.814254 
L 377.224463 -121.3188 
L 377.541818 -121.827135 
L 377.859174 -122.349376 
L 378.176529 -122.846422 
L 378.493884 -123.328463 
L 378.81124 -123.815594 
L 379.128595 -124.298588 
L 379.44595 -124.76458 
L 379.763306 -125.222595 
L 380.080661 -125.692919 
L 380.398017 -126.154276 
L 380.715372 -126.590339 
L 381.032727 -127.009929 
L 381.350083 -127.405079 
L 381.667438 -127.797745 
L 381.984793 -128.17956 
L 382.302149 -128.550327 
L 382.619504 -128.942948 
L 382.93686 -129.374438 
L 383.254215 -129.821753 
L 383.57157 -130.268026 
L 383.888926 -130.710081 
L 384.206281 -131.108235 
L 384.523636 -131.493281 
L 384.840992 -131.874841 
L 385.158347 -132.256107 
L 385.475702 -132.634325 
L 385.793058 -132.99833 
L 386.110413 -133.335629 
L 386.427769 -133.645821 
L 386.745124 -133.916535 
L 387.062479 -134.133201 
L 387.379835 -134.280212 
L 387.69719 -134.41814 
L 388.014545 -134.556627 
L 388.331901 -134.670957 
L 388.649256 -134.808527 
L 388.966612 -135.39244 
L 389.283967 -135.967364 
L 389.601322 -136.58001 
L 389.918678 -137.196753 
L 390.236033 -137.827516 
L 390.553388 -138.49972 
L 390.870744 -139.189818 
L 391.188099 -139.886425 
L 391.505455 -140.573048 
L 391.82281 -141.258962 
L 392.140165 -141.93604 
L 392.457521 -142.603613 
L 392.774876 -143.298054 
L 393.092231 -144.017815 
L 393.409587 -144.728581 
L 393.726942 -145.459933 
L 394.044298 -146.180451 
L 394.361653 -146.903942 
L 394.679008 -147.648337 
L 394.996364 -148.395262 
L 395.313719 -149.14036 
L 395.631074 -149.88728 
L 395.94843 -150.641962 
L 396.265785 -151.389203 
L 396.58314 -152.114017 
L 396.900496 -152.82873 
L 397.217851 -153.519591 
L 397.535207 -154.183736 
L 397.852562 -154.83883 
L 398.169917 -155.465074 
L 398.487273 -171.072 
L 398.487273 -171.072 
L 398.487273 -171.072 
L 398.169917 -171.072 
L 397.852562 -171.072 
L 397.535207 -171.072 
L 397.217851 -171.072 
L 396.900496 -171.072 
L 396.58314 -171.072 
L 396.265785 -171.072 
L 395.94843 -171.072 
L 395.631074 -171.072 
L 395.313719 -171.072 
L 394.996364 -171.072 
L 394.679008 -171.072 
L 394.361653 -171.072 
L 394.044298 -171.072 
L 393.726942 -171.072 
L 393.409587 -171.072 
L 393.092231 -171.072 
L 392.774876 -171.072 
L 392.457521 -171.072 
L 392.140165 -171.072 
L 391.82281 -171.072 
L 391.505455 -171.072 
L 391.188099 -171.072 
L 390.870744 -171.072 
L 390.553388 -171.072 
L 390.236033 -171.072 
L 389.918678 -171.072 
L 389.601322 -171.072 
L 389.283967 -171.072 
L 388.966612 -171.072 
L 388.649256 -171.072 
L 388.331901 -171.072 
L 388.014545 -171.072 
L 387.69719 -171.072 
L 387.379835 -171.072 
L 387.062479 -171.072 
L 386.745124 -171.072 
L 386.427769 -171.072 
L 386.110413 -171.072 
L 385.793058 -171.072 
L 385.475702 -171.072 
L 385.158347 -171.072 
L 384.840992 -171.072 
L 384.523636 -171.072 
L 384.206281 -171.072 
L 383.888926 -171.072 
L 383.57157 -171.072 
L 383.254215 -171.072 
L 382.93686 -171.072 
L 382.619504 -171.072 
L 382.302149 -171.072 
L 381.984793 -171.072 
L 381.667438 -171.072 
L 381.350083 -171.072 
L 381.032727 -171.072 
L 380.715372 -171.072 
L 380.398017 -171.072 
L 380.080661 -171.072 
L 379.763306 -171.072 
L 379.44595 -171.072 
L 379.128595 -171.072 
L 378.81124 -171.072 
L 378.493884 -171.072 
L 378.176529 -171.072 
L 377.859174 -171.072 
L 377.541818 -171.072 
L 377.224463 -171.072 
L 376.907107 -171.072 
L 376.589752 -171.072 
L 376.272397 -171.072 
L 375.955041 -171.072 
L 375.637686 -171.072 
L 375.320331 -171.072 
L 375.002975 -171.072 
L 374.68562 -171.072 
L 374.368264 -171.072 
L 374.050909 -171.072 
L 373.733554 -171.072 
L 373.416198 -171.072 
L 373.098843 -171.072 
L 372.781488 -171.072 
L 372.464132 -171.072 
L 372.146777 -171.072 
L 371.829421 -171.072 
L 371.512066 -171.072 
L 371.194711 -171.072 
L 370.877355 -171.072 
L 370.56 -171.072 
L 370.242645 -171.072 
L 369.925289 -171.072 
L 369.607934 -171.072 
L 369.290579 -171.072 
L 368.973223 -171.072 
L 368.655868 -171.072 
L 368.338512 -171.072 
L 368.021157 -171.072 
L 367.703802 -171.072 
L 367.386446 -171.072 
L 367.069091 -171.072 
L 366.751736 -171.072 
L 366.43438 -171.072 
L 366.117025 -171.072 
L 365.799669 -171.072 
L 365.482314 -171.072 
L 365.164959 -171.072 
L 364.847603 -171.072 
L 364.530248 -171.072 
L 364.212893 -171.072 
L 363.895537 -171.072 
L 363.578182 -171.072 
L 363.260826 -171.072 
L 362.943471 -171.072 
L 362.626116 -171.072 
L 362.30876 -171.072 
L 361.991405 -171.072 
L 361.67405 -171.072 
L 361.356694 -171.072 
L 361.039339 -171.072 
L 360.721983 -171.072 
L 360.404628 -171.072 
L 360.087273 -171.072 
L 359.769917 -171.072 
L 359.452562 -171.072 
L 359.135207 -171.072 
L 358.817851 -171.072 
L 358.500496 -171.072 
L 358.18314 -171.072 
L 357.865785 -171.072 
L 357.54843 -171.072 
L 357.231074 -171.072 
L 356.913719 -171.072 
L 356.596364 -171.072 
L 356.279008 -171.072 
L 355.961653 -171.072 
L 355.644298 -171.072 
L 355.326942 -171.072 
L 355.009587 -171.072 
L 354.692231 -171.072 
L 354.374876 -171.072 
L 354.057521 -171.072 
L 353.740165 -171.072 
L 353.42281 -171.072 
L 353.105455 -171.072 
L 352.788099 -171.072 
L 352.470744 -171.072 
L 352.153388 -171.072 
L 351.836033 -171.072 
L 351.518678 -171.072 
L 351.201322 -171.072 
L 350.883967 -171.072 
L 350.566612 -171.072 
L 350.249256 -171.072 
L 349.931901 -171.072 
L 349.614545 -171.072 
L 349.29719 -171.072 
L 348.979835 -171.072 
L 348.662479 -171.072 
L 348.345124 -171.072 
L 348.027769 -171.072 
L 347.710413 -171.072 
L 347.393058 -171.072 
L 347.075702 -171.072 
L 346.758347 -171.072 
L 346.440992 -171.072 
L 346.123636 -171.072 
L 345.806281 -171.072 
L 345.488926 -171.072 
L 345.17157 -171.072 
L 344.854215 -171.072 
L 344.53686 -171.072 
L 344.219504 -171.072 
L 343.902149 -171.072 
L 343.584793 -171.072 
L 343.267438 -171.072 
L 342.950083 -171.072 
L 342.632727 -171.072 
L 342.315372 -171.072 
L 341.998017 -171.072 
L 341.680661 -171.072 
L 341.363306 -171.072 
L 341.04595 -171.072 
L 340.728595 -171.072 
L 340.41124 -171.072 
L 340.093884 -171.072 
L 339.776529 -171.072 
L 339.459174 -171.072 
L 339.141818 -171.072 
L 338.824463 -171.072 
L 338.507107 -171.072 
L 338.189752 -171.072 
L 337.872397 -171.072 
L 337.555041 -171.072 
L 337.237686 -171.072 
L 336.920331 -171.072 
L 336.602975 -171.072 
L 336.28562 -171.072 
L 335.968264 -171.072 
L 335.650909 -171.072 
L 335.333554 -171.072 
L 335.016198 -171.072 
L 334.698843 -171.072 
L 334.381488 -171.072 
L 334.064132 -171.072 
L 333.746777 -171.072 
L 333.429421 -171.072 
L 333.112066 -171.072 
L 332.794711 -171.072 
L 332.477355 -171.072 
L 332.16 -171.072 
L 331.842645 -171.072 
L 331.525289 -171.072 
L 331.207934 -171.072 
L 330.890579 -171.072 
L 330.573223 -171.072 
L 330.255868 -171.072 
L 329.938512 -171.072 
L 329.621157 -171.072 
L 329.303802 -171.072 
L 328.986446 -171.072 
L 328.669091 -171.072 
L 328.351736 -171.072 
L 328.03438 -171.072 
L 327.717025 -171.072 
L 327.399669 -171.072 
L 327.082314 -171.072 
L 326.764959 -171.072 
L 326.447603 -171.072 
L 326.130248 -171.072 
L 325.812893 -171.072 
L 325.495537 -171.072 
L 325.178182 -171.072 
L 324.860826 -171.072 
L 324.543471 -171.072 
L 324.226116 -171.072 
L 323.90876 -171.072 
L 323.591405 -171.072 
L 323.27405 -171.072 
L 322.956694 -171.072 
L 322.639339 -171.072 
L 322.321983 -171.072 
L 322.004628 -171.072 
L 321.687273 -171.072 
L 321.369917 -171.072 
L 321.052562 -171.072 
L 320.735207 -171.072 
L 320.417851 -171.072 
L 320.100496 -171.072 
L 319.78314 -171.072 
L 319.465785 -171.072 
L 319.14843 -171.072 
L 318.831074 -171.072 
L 318.513719 -171.072 
L 318.196364 -171.072 
L 317.879008 -171.072 
L 317.561653 -171.072 
L 317.244298 -171.072 
L 316.926942 -171.072 
L 316.609587 -171.072 
L 316.292231 -171.072 
L 315.974876 -171.072 
L 315.657521 -171.072 
L 315.340165 -171.072 
L 315.02281 -171.072 
L 314.705455 -171.072 
L 314.388099 -171.072 
L 314.070744 -171.072 
L 313.753388 -171.072 
L 313.436033 -171.072 
L 313.118678 -171.072 
L 312.801322 -171.072 
L 312.483967 -171.072 
L 312.166612 -171.072 
L 311.849256 -171.072 
L 311.531901 -171.072 
L 311.214545 -171.072 
L 310.89719 -171.072 
L 310.579835 -171.072 
L 310.262479 -171.072 
L 309.945124 -171.072 
L 309.627769 -171.072 
L 309.310413 -171.072 
L 308.993058 -171.072 
L 308.675702 -171.072 
L 308.358347 -171.072 
L 308.040992 -171.072 
L 307.723636 -171.072 
L 307.406281 -171.072 
L 307.088926 -171.072 
L 306.77157 -171.072 
L 306.454215 -171.072 
L 306.13686 -171.072 
L 305.819504 -171.072 
L 305.502149 -171.072 
L 305.184793 -171.072 
L 304.867438 -171.072 
L 304.550083 -171.072 
L 304.232727 -171.072 
L 303.915372 -171.072 
L 303.598017 -171.072 
L 303.280661 -171.072 
L 302.963306 -171.072 
L 302.64595 -171.072 
L 302.328595 -171.072 
L 302.01124 -171.072 
L 301.693884 -171.072 
L 301.376529 -171.072 
L 301.059174 -171.072 
L 300.741818 -171.072 
L 300.424463 -171.072 
L 300.107107 -171.072 
L 299.789752 -171.072 
L 299.472397 -171.072 
L 299.155041 -171.072 
L 298.837686 -171.072 
L 298.520331 -171.072 
L 298.202975 -171.072 
L 297.88562 -171.072 
L 297.568264 -171.072 
L 297.250909 -171.072 
L 296.933554 -171.072 
L 296.616198 -171.072 
L 296.298843 -171.072 
L 295.981488 -171.072 
L 295.664132 -171.072 
L 295.346777 -171.072 
L 295.029421 -171.072 
L 294.712066 -171.072 
L 294.394711 -171.072 
L 294.077355 -171.072 
L 293.76 -171.072 
L 293.442645 -171.072 
L 293.125289 -171.072 
L 292.807934 -171.072 
L 292.490579 -171.072 
L 292.173223 -171.072 
L 291.855868 -171.072 
L 291.538512 -171.072 
L 291.221157 -171.072 
L 290.903802 -171.072 
L 290.586446 -171.072 
L 290.269091 -171.072 
L 289.951736 -171.072 
L 289.63438 -171.072 
L 289.317025 -171.072 
L 288.999669 -171.072 
L 288.682314 -171.072 
L 288.364959 -171.072 
L 288.047603 -171.072 
L 287.730248 -171.072 
L 287.412893 -171.072 
L 287.095537 -171.072 
L 286.778182 -171.072 
L 286.460826 -171.072 
L 286.143471 -171.072 
L 285.826116 -171.072 
L 285.50876 -171.072 
L 285.191405 -171.072 
L 284.87405 -171.072 
L 284.556694 -171.072 
L 284.239339 -171.072 
L 283.921983 -171.072 
L 283.604628 -171.072 
L 283.287273 -171.072 
L 282.969917 -171.072 
L 282.652562 -171.072 
L 282.335207 -171.072 
L 282.017851 -171.072 
L 281.700496 -171.072 
L 281.38314 -171.072 
L 281.065785 -171.072 
L 280.74843 -171.072 
L 280.431074 -171.072 
L 280.113719 -171.072 
L 279.796364 -171.072 
L 279.479008 -171.072 
L 279.161653 -171.072 
L 278.844298 -171.072 
L 278.526942 -171.072 
L 278.209587 -171.072 
L 277.892231 -171.072 
L 277.574876 -171.072 
L 277.257521 -171.072 
L 276.940165 -171.072 
L 276.62281 -171.072 
L 276.305455 -171.072 
L 275.988099 -171.072 
L 275.670744 -171.072 
L 275.353388 -171.072 
L 275.036033 -171.072 
L 274.718678 -171.072 
L 274.401322 -171.072 
L 274.083967 -171.072 
L 273.766612 -171.072 
L 273.449256 -171.072 
L 273.131901 -171.072 
L 272.814545 -171.072 
L 272.49719 -171.072 
L 272.179835 -171.072 
L 271.862479 -171.072 
L 271.545124 -171.072 
L 271.227769 -171.072 
L 270.910413 -171.072 
L 270.593058 -171.072 
L 270.275702 -171.072 
L 269.958347 -171.072 
L 269.640992 -171.072 
L 269.323636 -171.072 
L 269.006281 -171.072 
L 268.688926 -171.072 
L 268.37157 -171.072 
L 268.054215 -171.072 
L 267.73686 -171.072 
L 267.419504 -171.072 
L 267.102149 -171.072 
L 266.784793 -171.072 
L 266.467438 -171.072 
L 266.150083 -171.072 
L 265.832727 -171.072 
L 265.515372 -171.072 
L 265.198017 -171.072 
L 264.880661 -171.072 
L 264.563306 -171.072 
L 264.24595 -171.072 
L 263.928595 -171.072 
L 263.61124 -171.072 
L 263.293884 -171.072 
L 262.976529 -171.072 
L 262.659174 -171.072 
L 262.341818 -171.072 
L 262.024463 -171.072 
L 261.707107 -171.072 
L 261.389752 -171.072 
L 261.072397 -171.072 
L 260.755041 -171.072 
L 260.437686 -171.072 
L 260.120331 -171.072 
L 259.802975 -171.072 
L 259.48562 -171.072 
L 259.168264 -171.072 
L 258.850909 -171.072 
L 258.533554 -171.072 
L 258.216198 -171.072 
L 257.898843 -171.072 
L 257.581488 -171.072 
L 257.264132 -171.072 
L 256.946777 -171.072 
L 256.629421 -171.072 
L 256.312066 -171.072 
L 255.994711 -171.072 
L 255.677355 -171.072 
L 255.36 -171.072 
L 255.042645 -171.072 
L 254.725289 -171.072 
L 254.407934 -171.072 
L 254.090579 -171.072 
L 253.773223 -171.072 
L 253.455868 -171.072 
L 253.138512 -171.072 
L 252.821157 -171.072 
L 252.503802 -171.072 
L 252.186446 -171.072 
L 251.869091 -171.072 
L 251.551736 -171.072 
L 251.23438 -171.072 
L 250.917025 -171.072 
L 250.599669 -171.072 
L 250.282314 -171.072 
L 249.964959 -171.072 
L 249.647603 -171.072 
L 249.330248 -171.072 
L 249.012893 -171.072 
L 248.695537 -171.072 
L 248.378182 -171.072 
L 248.060826 -171.072 
L 247.743471 -171.072 
L 247.426116 -171.072 
L 247.10876 -171.072 
L 246.791405 -171.072 
L 246.47405 -171.072 
L 246.156694 -171.072 
L 245.839339 -171.072 
L 245.521983 -171.072 
L 245.204628 -171.072 
L 244.887273 -171.072 
L 244.569917 -171.072 
L 244.252562 -171.072 
L 243.935207 -171.072 
L 243.617851 -171.072 
L 243.300496 -171.072 
L 242.98314 -171.072 
L 242.665785 -171.072 
L 242.34843 -171.072 
L 242.031074 -171.072 
L 241.713719 -171.072 
L 241.396364 -171.072 
L 241.079008 -171.072 
L 240.761653 -171.072 
L 240.444298 -171.072 
L 240.126942 -171.072 
L 239.809587 -171.072 
L 239.492231 -171.072 
L 239.174876 -171.072 
L 238.857521 -171.072 
L 238.540165 -171.072 
L 238.22281 -171.072 
L 237.905455 -171.072 
L 237.588099 -171.072 
L 237.270744 -171.072 
L 236.953388 -171.072 
L 236.636033 -171.072 
L 236.318678 -171.072 
L 236.001322 -171.072 
L 235.683967 -171.072 
L 235.366612 -171.072 
L 235.049256 -171.072 
L 234.731901 -171.072 
L 234.414545 -171.072 
L 234.09719 -171.072 
L 233.779835 -171.072 
L 233.462479 -171.072 
L 233.145124 -171.072 
L 232.827769 -171.072 
L 232.510413 -171.072 
L 232.193058 -171.072 
L 231.875702 -171.072 
L 231.558347 -171.072 
L 231.240992 -171.072 
L 230.923636 -171.072 
L 230.606281 -171.072 
L 230.288926 -171.072 
L 229.97157 -171.072 
L 229.654215 -171.072 
L 229.33686 -171.072 
L 229.019504 -171.072 
L 228.702149 -171.072 
L 228.384793 -171.072 
L 228.067438 -171.072 
L 227.750083 -171.072 
L 227.432727 -171.072 
L 227.115372 -171.072 
L 226.798017 -171.072 
L 226.480661 -171.072 
L 226.163306 -171.072 
L 225.84595 -171.072 
L 225.528595 -171.072 
L 225.21124 -171.072 
L 224.893884 -171.072 
L 224.576529 -171.072 
L 224.259174 -171.072 
L 223.941818 -171.072 
L 223.624463 -171.072 
L 223.307107 -171.072 
L 222.989752 -171.072 
L 222.672397 -171.072 
L 222.355041 -171.072 
L 222.037686 -171.072 
L 221.720331 -171.072 
L 221.402975 -171.072 
L 221.08562 -171.072 
L 220.768264 -171.072 
L 220.450909 -171.072 
L 220.133554 -171.072 
L 219.816198 -171.072 
L 219.498843 -171.072 
L 219.181488 -171.072 
L 218.864132 -171.072 
L 218.546777 -171.072 
L 218.229421 -171.072 
L 217.912066 -171.072 
L 217.594711 -171.072 
L 217.277355 -171.072 
L 216.96 -171.072 
L 216.642645 -171.072 
L 216.325289 -171.072 
L 216.007934 -171.072 
L 215.690579 -171.072 
L 215.373223 -171.072 
L 215.055868 -171.072 
L 214.738512 -171.072 
L 214.421157 -171.072 
L 214.103802 -171.072 
L 213.786446 -171.072 
L 213.469091 -171.072 
L 213.151736 -171.072 
L 212.83438 -171.072 
L 212.517025 -171.072 
L 212.199669 -171.072 
L 211.882314 -171.072 
L 211.564959 -171.072 
L 211.247603 -171.072 
L 210.930248 -171.072 
L 210.612893 -171.072 
L 210.295537 -171.072 
L 209.978182 -171.072 
L 209.660826 -171.072 
L 209.343471 -171.072 
L 209.026116 -171.072 
L 208.70876 -171.072 
L 208.391405 -171.072 
L 208.07405 -171.072 
L 207.756694 -171.072 
L 207.439339 -171.072 
L 207.121983 -171.072 
L 206.804628 -171.072 
L 206.487273 -171.072 
L 206.169917 -171.072 
L 205.852562 -171.072 
L 205.535207 -171.072 
L 205.217851 -171.072 
L 204.900496 -171.072 
L 204.58314 -171.072 
L 204.265785 -171.072 
L 203.94843 -171.072 
L 203.631074 -171.072 
L 203.313719 -171.072 
L 202.996364 -171.072 
L 202.679008 -171.072 
L 202.361653 -171.072 
L 202.044298 -171.072 
L 201.726942 -171.072 
L 201.409587 -171.072 
L 201.092231 -171.072 
L 200.774876 -171.072 
L 200.457521 -171.072 
L 200.140165 -171.072 
L 199.82281 -171.072 
L 199.505455 -171.072 
L 199.188099 -171.072 
L 198.870744 -171.072 
L 198.553388 -171.072 
L 198.236033 -171.072 
L 197.918678 -171.072 
L 197.601322 -171.072 
L 197.283967 -171.072 
L 196.966612 -171.072 
L 196.649256 -171.072 
L 196.331901 -171.072 
L 196.014545 -171.072 
L 195.69719 -171.072 
L 195.379835 -171.072 
L 195.062479 -171.072 
L 194.745124 -171.072 
L 194.427769 -171.072 
L 194.110413 -171.072 
L 193.793058 -171.072 
L 193.475702 -171.072 
L 193.158347 -171.072 
L 192.840992 -171.072 
L 192.523636 -171.072 
L 192.206281 -171.072 
L 191.888926 -171.072 
L 191.57157 -171.072 
L 191.254215 -171.072 
L 190.93686 -171.072 
L 190.619504 -171.072 
L 190.302149 -171.072 
L 189.984793 -171.072 
L 189.667438 -171.072 
L 189.350083 -171.072 
L 189.032727 -171.072 
L 188.715372 -171.072 
L 188.398017 -171.072 
L 188.080661 -171.072 
L 187.763306 -171.072 
L 187.44595 -171.072 
L 187.128595 -171.072 
L 186.81124 -171.072 
L 186.493884 -171.072 
L 186.176529 -171.072 
L 185.859174 -171.072 
L 185.541818 -171.072 
L 185.224463 -171.072 
L 184.907107 -171.072 
L 184.589752 -171.072 
L 184.272397 -171.072 
L 183.955041 -171.072 
L 183.637686 -171.072 
L 183.320331 -171.072 
L 183.002975 -171.072 
L 182.68562 -171.072 
L 182.368264 -171.072 
L 182.050909 -171.072 
L 181.733554 -171.072 
L 181.416198 -171.072 
L 181.098843 -171.072 
L 180.781488 -171.072 
L 180.464132 -171.072 
L 180.146777 -171.072 
L 179.829421 -171.072 
L 179.512066 -171.072 
L 179.194711 -171.072 
L 178.877355 -171.072 
L 178.56 -171.072 
L 178.242645 -171.072 
L 177.925289 -171.072 
L 177.607934 -171.072 
L 177.290579 -171.072 
L 176.973223 -171.072 
L 176.655868 -171.072 
L 176.338512 -171.072 
L 176.021157 -171.072 
L 175.703802 -171.072 
L 175.386446 -171.072 
L 175.069091 -171.072 
L 174.751736 -171.072 
L 174.43438 -171.072 
L 174.117025 -171.072 
L 173.799669 -171.072 
L 173.482314 -171.072 
L 173.164959 -171.072 
L 172.847603 -171.072 
L 172.530248 -171.072 
L 172.212893 -171.072 
L 171.895537 -171.072 
L 171.578182 -171.072 
L 171.260826 -171.072 
L 170.943471 -171.072 
L 170.626116 -171.072 
L 170.30876 -171.072 
L 169.991405 -171.072 
L 169.67405 -171.072 
L 169.356694 -171.072 
L 169.039339 -171.072 
L 168.721983 -171.072 
L 168.404628 -171.072 
L 168.087273 -171.072 
L 167.769917 -171.072 
L 167.452562 -171.072 
L 167.135207 -171.072 
L 166.817851 -171.072 
L 166.500496 -171.072 
L 166.18314 -171.072 
L 165.865785 -171.072 
L 165.54843 -171.072 
L 165.231074 -171.072 
L 164.913719 -171.072 
L 164.596364 -171.072 
L 164.279008 -171.072 
L 163.961653 -171.072 
L 163.644298 -171.072 
L 163.326942 -171.072 
L 163.009587 -171.072 
L 162.692231 -171.072 
L 162.374876 -171.072 
L 162.057521 -171.072 
L 161.740165 -171.072 
L 161.42281 -171.072 
L 161.105455 -171.072 
L 160.788099 -171.072 
L 160.470744 -171.072 
L 160.153388 -171.072 
L 159.836033 -171.072 
L 159.518678 -171.072 
L 159.201322 -171.072 
L 158.883967 -171.072 
L 158.566612 -171.072 
L 158.249256 -171.072 
L 157.931901 -171.072 
L 157.614545 -171.072 
L 157.29719 -171.072 
L 156.979835 -171.072 
L 156.662479 -171.072 
L 156.345124 -171.072 
L 156.027769 -171.072 
L 155.710413 -171.072 
L 155.393058 -171.072 
L 155.075702 -171.072 
L 154.758347 -171.072 
L 154.440992 -171.072 
L 154.123636 -171.072 
L 153.806281 -171.072 
L 153.488926 -171.072 
L 153.17157 -171.072 
L 152.854215 -171.072 
L 152.53686 -171.072 
L 152.219504 -171.072 
L 151.902149 -171.072 
L 151.584793 -171.072 
L 151.267438 -171.072 
L 150.950083 -171.072 
L 150.632727 -171.072 
L 150.315372 -171.072 
L 149.998017 -171.072 
L 149.680661 -171.072 
L 149.363306 -171.072 
L 149.04595 -171.072 
L 148.728595 -171.072 
L 148.41124 -171.072 
L 148.093884 -171.072 
L 147.776529 -171.072 
L 147.459174 -171.072 
L 147.141818 -171.072 
L 146.824463 -171.072 
L 146.507107 -171.072 
L 146.189752 -171.072 
L 145.872397 -171.072 
L 145.555041 -171.072 
L 145.237686 -171.072 
L 144.920331 -171.072 
L 144.602975 -171.072 
L 144.28562 -171.072 
L 143.968264 -171.072 
L 143.650909 -171.072 
L 143.333554 -171.072 
L 143.016198 -171.072 
L 142.698843 -171.072 
L 142.381488 -171.072 
L 142.064132 -171.072 
L 141.746777 -171.072 
L 141.429421 -171.072 
L 141.112066 -171.072 
L 140.794711 -171.072 
L 140.477355 -171.072 
L 140.16 -171.072 
L 139.842645 -171.072 
L 139.525289 -171.072 
L 139.207934 -171.072 
L 138.890579 -171.072 
L 138.573223 -171.072 
L 138.255868 -171.072 
L 137.938512 -171.072 
L 137.621157 -171.072 
L 137.303802 -171.072 
L 136.986446 -171.072 
L 136.669091 -171.072 
L 136.351736 -171.072 
L 136.03438 -171.072 
L 135.717025 -171.072 
L 135.399669 -171.072 
L 135.082314 -171.072 
L 134.764959 -171.072 
L 134.447603 -171.072 
L 134.130248 -171.072 
L 133.812893 -171.072 
L 133.495537 -171.072 
L 133.178182 -171.072 
L 132.860826 -171.072 
L 132.543471 -171.072 
L 132.226116 -171.072 
L 131.90876 -171.072 
L 131.591405 -171.072 
L 131.27405 -171.072 
L 130.956694 -171.072 
L 130.639339 -171.072 
L 130.321983 -171.072 
L 130.004628 -171.072 
L 129.687273 -171.072 
L 129.369917 -171.072 
L 129.052562 -171.072 
L 128.735207 -171.072 
L 128.417851 -171.072 
L 128.100496 -171.072 
L 127.78314 -171.072 
L 127.465785 -171.072 
L 127.14843 -171.072 
L 126.831074 -171.072 
L 126.513719 -171.072 
L 126.196364 -171.072 
L 125.879008 -171.072 
L 125.561653 -171.072 
L 125.244298 -171.072 
L 124.926942 -171.072 
L 124.609587 -171.072 
L 124.292231 -171.072 
L 123.974876 -171.072 
L 123.657521 -171.072 
L 123.340165 -171.072 
L 123.02281 -171.072 
L 122.705455 -171.072 
L 122.388099 -171.072 
L 122.070744 -171.072 
L 121.753388 -171.072 
L 121.436033 -171.072 
L 121.118678 -171.072 
L 120.801322 -171.072 
L 120.483967 -171.072 
L 120.166612 -171.072 
L 119.849256 -171.072 
L 119.531901 -171.072 
L 119.214545 -171.072 
L 118.89719 -171.072 
L 118.579835 -171.072 
L 118.262479 -171.072 
L 117.945124 -171.072 
L 117.627769 -171.072 
L 117.310413 -171.072 
L 116.993058 -171.072 
L 116.675702 -171.072 
L 116.358347 -171.072 
L 116.040992 -171.072 
L 115.723636 -171.072 
L 115.406281 -171.072 
L 115.088926 -171.072 
L 114.77157 -171.072 
L 114.454215 -171.072 
L 114.13686 -171.072 
L 113.819504 -171.072 
L 113.502149 -171.072 
L 113.184793 -171.072 
L 112.867438 -171.072 
L 112.550083 -171.072 
L 112.232727 -171.072 
L 111.915372 -171.072 
L 111.598017 -171.072 
L 111.280661 -171.072 
L 110.963306 -171.072 
L 110.64595 -171.072 
L 110.328595 -171.072 
L 110.01124 -171.072 
L 109.693884 -171.072 
L 109.376529 -171.072 
L 109.059174 -171.072 
L 108.741818 -171.072 
L 108.424463 -171.072 
L 108.107107 -171.072 
L 107.789752 -171.072 
L 107.472397 -171.072 
L 107.155041 -171.072 
L 106.837686 -171.072 
L 106.520331 -171.072 
L 106.202975 -171.072 
L 105.88562 -171.072 
L 105.568264 -171.072 
L 105.250909 -171.072 
L 104.933554 -171.072 
L 104.616198 -171.072 
L 104.298843 -171.072 
L 103.981488 -171.072 
L 103.664132 -171.072 
L 103.346777 -171.072 
L 103.029421 -171.072 
L 102.712066 -171.072 
L 102.394711 -171.072 
L 102.077355 -171.072 
L 101.76 -171.072 
L 101.442645 -171.072 
L 101.125289 -171.072 
L 100.807934 -171.072 
L 100.490579 -171.072 
L 100.173223 -171.072 
L 99.855868 -171.072 
L 99.538512 -171.072 
L 99.221157 -171.072 
L 98.903802 -171.072 
L 98.586446 -171.072 
L 98.269091 -171.072 
L 97.951736 -171.072 
L 97.63438 -171.072 
L 97.317025 -171.072 
L 96.999669 -171.072 
L 96.682314 -171.072 
L 96.364959 -171.072 
L 96.047603 -171.072 
L 95.730248 -171.072 
L 95.412893 -171.072 
L 95.095537 -171.072 
L 94.778182 -171.072 
L 94.460826 -171.072 
L 94.143471 -171.072 
L 93.826116 -171.072 
L 93.50876 -171.072 
L 93.191405 -171.072 
L 92.87405 -171.072 
L 92.556694 -171.072 
L 92.239339 -171.072 
L 91.921983 -171.072 
L 91.604628 -171.072 
L 91.287273 -171.072 
L 90.969917 -171.072 
L 90.652562 -171.072 
L 90.335207 -171.072 
L 90.017851 -171.072 
L 89.700496 -171.072 
L 89.38314 -171.072 
L 89.065785 -171.072 
L 88.74843 -171.072 
L 88.431074 -171.072 
L 88.113719 -171.072 
L 87.796364 -171.072 
L 87.479008 -171.072 
L 87.161653 -171.072 
L 86.844298 -171.072 
L 86.526942 -171.072 
L 86.209587 -171.072 
L 85.892231 -171.072 
L 85.574876 -171.072 
L 85.257521 -171.072 
L 84.940165 -171.072 
L 84.62281 -171.072 
L 84.305455 -171.072 
L 83.988099 -171.072 
L 83.670744 -171.072 
L 83.353388 -171.072 
L 83.036033 -171.072 
L 82.718678 -171.072 
L 82.401322 -171.072 
L 82.083967 -171.072 
L 81.766612 -171.072 
L 81.449256 -171.072 
L 81.131901 -171.072 
L 80.814545 -171.072 
L 80.49719 -171.072 
L 80.179835 -171.072 
L 79.862479 -171.072 
L 79.545124 -171.072 
L 79.227769 -171.072 
L 78.910413 -171.072 
L 78.593058 -171.072 
L 78.275702 -171.072 
L 77.958347 -171.072 
L 77.640992 -171.072 
L 77.323636 -171.072 
L 77.006281 -171.072 
L 76.688926 -171.072 
L 76.37157 -171.072 
L 76.054215 -171.072 
L 75.73686 -171.072 
L 75.419504 -171.072 
L 75.102149 -171.072 
L 74.784793 -171.072 
L 74.467438 -171.072 
L 74.150083 -171.072 
L 73.832727 -171.072 
z
" style="stroke: #87ceeb; stroke-opacity: 0.75"/>
    </defs>
    <g clip-path="url(#p0b52cddae8)">
     <use xlink:href="#mf0fb748dcd" x="0" y="345.6" style="fill: #87ceeb; fill-opacity: 0.75; stroke: #87ceeb; stroke-opacity: 0.75"/>
    </g>
   </g>
   <g id="matplotlib.axis_1">
    <g id="xtick_1">
     <g id="line2d_1">
      <defs>
       <path id="m55a3973bc8" d="M 0 0 
L 0 3.5 
" style="stroke: #000000; stroke-width: 0.8"/>
      </defs>
      <g>
       <use xlink:href="#m55a3973bc8" x="73.832727" y="307.584" style="stroke: #000000; stroke-width: 0.8"/>
      </g>
     </g>
     <g id="text_1">
      <!-- 0 -->
      <g transform="translate(70.531868 322.161969) scale(0.11 -0.11)">
       <defs>
        <path id="AndaleMono-30" d="M 1913 4494 
Q 2613 4494 2989 3892 
Q 3366 3291 3366 2203 
Q 3366 1150 3000 533 
Q 2634 -84 1913 -84 
Q 1216 -84 837 516 
Q 459 1116 459 2203 
Q 459 3259 826 3876 
Q 1194 4494 1913 4494 
z
M 1913 366 
Q 2375 366 2598 805 
Q 2822 1244 2822 2203 
Q 2822 3166 2598 3602 
Q 2375 4038 1913 4038 
Q 1456 4038 1231 3591 
Q 1006 3144 1006 2203 
Q 1006 1250 1229 808 
Q 1453 366 1913 366 
z
M 1900 2672 
Q 2097 2672 2233 2536 
Q 2369 2400 2369 2203 
Q 2369 2000 2231 1854 
Q 2094 1709 1900 1709 
Q 1709 1709 1573 1854 
Q 1438 2000 1438 2203 
Q 1438 2403 1570 2537 
Q 1703 2672 1900 2672 
z
" transform="scale(0.015625)"/>
       </defs>
       <use xlink:href="#AndaleMono-30"/>
      </g>
     </g>
    </g>
    <g id="xtick_2">
     <g id="line2d_2">
      <g>
       <use xlink:href="#m55a3973bc8" x="137.303802" y="307.584" style="stroke: #000000; stroke-width: 0.8"/>
      </g>
     </g>
     <g id="text_2">
      <!-- 200 -->
      <g transform="translate(127.401224 322.161969) scale(0.11 -0.11)">
       <defs>
        <path id="AndaleMono-32" d="M 3066 0 
L 641 0 
L 641 372 
Q 1563 1400 1838 1750 
Q 2113 2100 2284 2484 
Q 2456 2869 2456 3250 
Q 2456 3619 2232 3831 
Q 2009 4044 1606 4044 
Q 1297 4044 775 3853 
L 703 4294 
Q 1175 4494 1691 4494 
Q 2281 4494 2642 4161 
Q 3003 3828 3003 3272 
Q 3003 2875 2817 2484 
Q 2631 2094 2340 1734 
Q 2050 1375 1209 447 
L 3066 447 
L 3066 0 
z
" transform="scale(0.015625)"/>
       </defs>
       <use xlink:href="#AndaleMono-32"/>
       <use xlink:href="#AndaleMono-30" x="60.009766"/>
       <use xlink:href="#AndaleMono-30" x="120.019531"/>
      </g>
     </g>
    </g>
    <g id="xtick_3">
     <g id="line2d_3">
      <g>
       <use xlink:href="#m55a3973bc8" x="200.774876" y="307.584" style="stroke: #000000; stroke-width: 0.8"/>
      </g>
     </g>
     <g id="text_3">
      <!-- 400 -->
      <g transform="translate(190.872298 322.161969) scale(0.11 -0.11)">
       <defs>
        <path id="AndaleMono-34" d="M 3353 1019 
L 2809 1019 
L 2809 0 
L 2297 0 
L 2297 1019 
L 378 1019 
L 378 1409 
L 2119 4409 
L 2809 4409 
L 2809 1466 
L 3353 1466 
L 3353 1019 
z
M 2297 1466 
L 2297 3903 
L 897 1466 
L 2297 1466 
z
" transform="scale(0.015625)"/>
       </defs>
       <use xlink:href="#AndaleMono-34"/>
       <use xlink:href="#AndaleMono-30" x="60.009766"/>
       <use xlink:href="#AndaleMono-30" x="120.019531"/>
      </g>
     </g>
    </g>
    <g id="xtick_4">
     <g id="line2d_4">
      <g>
       <use xlink:href="#m55a3973bc8" x="264.24595" y="307.584" style="stroke: #000000; stroke-width: 0.8"/>
      </g>
     </g>
     <g id="text_4">
      <!-- 600 -->
      <g transform="translate(254.343372 322.161969) scale(0.11 -0.11)">
       <defs>
        <path id="AndaleMono-36" d="M 1131 2297 
Q 1544 2631 2028 2631 
Q 2588 2631 2961 2273 
Q 3334 1916 3334 1350 
Q 3334 728 3003 322 
Q 2672 -84 2119 -84 
Q 1413 -84 1000 564 
Q 588 1213 588 2150 
Q 588 3150 1017 3822 
Q 1447 4494 2194 4494 
Q 2709 4494 3084 4341 
L 3003 3884 
Q 2569 4044 2209 4044 
Q 1700 4044 1415 3556 
Q 1131 3069 1131 2297 
z
M 1147 1856 
Q 1147 1291 1412 828 
Q 1678 366 2081 366 
Q 2422 366 2606 616 
Q 2791 866 2791 1306 
Q 2791 1713 2587 1947 
Q 2384 2181 2016 2181 
Q 1538 2181 1147 1856 
z
" transform="scale(0.015625)"/>
       </defs>
       <use xlink:href="#AndaleMono-36"/>
       <use xlink:href="#AndaleMono-30" x="60.009766"/>
       <use xlink:href="#AndaleMono-30" x="120.019531"/>
      </g>
     </g>
    </g>
    <g id="xtick_5">
     <g id="line2d_5">
      <g>
       <use xlink:href="#m55a3973bc8" x="327.717025" y="307.584" style="stroke: #000000; stroke-width: 0.8"/>
      </g>
     </g>
     <g id="text_5">
      <!-- 800 -->
      <g transform="translate(317.814447 322.161969) scale(0.11 -0.11)">
       <defs>
        <path id="AndaleMono-38" d="M 2363 2419 
Q 2813 2288 3061 1972 
Q 3309 1656 3309 1234 
Q 3309 628 2907 272 
Q 2506 -84 1919 -84 
Q 1303 -84 908 275 
Q 513 634 513 1228 
Q 513 1647 769 1965 
Q 1025 2284 1484 2419 
Q 1119 2513 898 2780 
Q 678 3047 678 3378 
Q 678 3803 1015 4148 
Q 1353 4494 1906 4494 
Q 2453 4494 2811 4150 
Q 3169 3806 3169 3378 
Q 3169 3056 2944 2786 
Q 2719 2516 2363 2419 
z
M 1906 2631 
Q 1922 2631 2056 2668 
Q 2191 2706 2286 2761 
Q 2381 2816 2462 2900 
Q 2544 2984 2594 3098 
Q 2644 3213 2644 3353 
Q 2644 3653 2428 3851 
Q 2213 4050 1906 4050 
Q 1609 4050 1396 3847 
Q 1184 3644 1184 3353 
Q 1184 3169 1261 3031 
Q 1338 2894 1452 2809 
Q 1566 2725 1714 2678 
Q 1863 2631 1906 2631 
z
M 1906 2194 
Q 1050 1944 1050 1253 
Q 1050 850 1309 608 
Q 1569 366 1919 366 
Q 2281 366 2529 605 
Q 2778 844 2778 1253 
Q 2778 1563 2606 1808 
Q 2434 2053 1906 2194 
z
" transform="scale(0.015625)"/>
       </defs>
       <use xlink:href="#AndaleMono-38"/>
       <use xlink:href="#AndaleMono-30" x="60.009766"/>
       <use xlink:href="#AndaleMono-30" x="120.019531"/>
      </g>
     </g>
    </g>
    <g id="xtick_6">
     <g id="line2d_6">
      <g>
       <use xlink:href="#m55a3973bc8" x="391.188099" y="307.584" style="stroke: #000000; stroke-width: 0.8"/>
      </g>
     </g>
     <g id="text_6">
      <!-- 1000 -->
      <g transform="translate(377.984662 322.161969) scale(0.11 -0.11)">
       <defs>
        <path id="AndaleMono-31" d="M 3181 0 
L 863 0 
L 863 447 
L 1797 447 
L 1797 3872 
L 916 3431 
L 916 3944 
L 1869 4434 
L 2309 4434 
L 2309 447 
L 3181 447 
L 3181 0 
z
" transform="scale(0.015625)"/>
       </defs>
       <use xlink:href="#AndaleMono-31"/>
       <use xlink:href="#AndaleMono-30" x="60.009766"/>
       <use xlink:href="#AndaleMono-30" x="120.019531"/>
       <use xlink:href="#AndaleMono-30" x="180.029297"/>
      </g>
     </g>
    </g>
   </g>
   <g id="matplotlib.axis_2">
    <g id="ytick_1">
     <g id="line2d_7">
      <defs>
       <path id="m20f72109a3" d="M 0 0 
L -3.5 0 
" style="stroke: #000000; stroke-width: 0.8"/>
      </defs>
      <g>
       <use xlink:href="#m20f72109a3" x="57.6" y="295.488" style="stroke: #000000; stroke-width: 0.8"/>
      </g>
     </g>
     <g id="text_7">
      <!-- 1.00 -->
      <g transform="translate(17.591406 299.276984) scale(0.11 -0.11)">
       <defs>
        <path id="AndaleMono-2212" d="M 3397 2047 
L 441 2047 
L 441 2456 
L 3397 2456 
L 3397 2047 
z
" transform="scale(0.015625)"/>
        <path id="AndaleMono-2e" d="M 1900 716 
Q 2066 716 2178 603 
Q 2291 491 2291 325 
Q 2291 156 2177 36 
Q 2063 -84 1900 -84 
Q 1741 -84 1628 36 
Q 1516 156 1516 325 
Q 1516 494 1627 605 
Q 1738 716 1900 716 
z
" transform="scale(0.015625)"/>
       </defs>
       <use xlink:href="#AndaleMono-2212"/>
       <use xlink:href="#AndaleMono-31" x="60.009766"/>
       <use xlink:href="#AndaleMono-2e" x="120.019531"/>
       <use xlink:href="#AndaleMono-30" x="180.029297"/>
       <use xlink:href="#AndaleMono-30" x="240.039062"/>
      </g>
     </g>
    </g>
    <g id="ytick_2">
     <g id="line2d_8">
      <g>
       <use xlink:href="#m20f72109a3" x="57.6" y="265.248" style="stroke: #000000; stroke-width: 0.8"/>
      </g>
     </g>
     <g id="text_8">
      <!-- 0.75 -->
      <g transform="translate(17.591406 269.036984) scale(0.11 -0.11)">
       <defs>
        <path id="AndaleMono-37" d="M 3238 4044 
L 1491 0 
L 966 0 
L 2688 3963 
L 622 3963 
L 622 4409 
L 3238 4409 
L 3238 4044 
z
" transform="scale(0.015625)"/>
        <path id="AndaleMono-35" d="M 1356 2631 
Q 1569 2688 1772 2688 
Q 2397 2688 2759 2305 
Q 3122 1922 3122 1350 
Q 3122 750 2700 333 
Q 2278 -84 1672 -84 
Q 1094 -84 703 109 
L 806 544 
Q 1231 366 1684 366 
Q 2088 366 2336 625 
Q 2584 884 2584 1350 
Q 2584 1791 2350 2028 
Q 2116 2266 1747 2266 
Q 1478 2266 1216 2163 
L 909 2303 
L 909 4409 
L 2925 4409 
L 2925 3963 
L 1356 3963 
L 1356 2631 
z
" transform="scale(0.015625)"/>
       </defs>
       <use xlink:href="#AndaleMono-2212"/>
       <use xlink:href="#AndaleMono-30" x="60.009766"/>
       <use xlink:href="#AndaleMono-2e" x="120.019531"/>
       <use xlink:href="#AndaleMono-37" x="180.029297"/>
       <use xlink:href="#AndaleMono-35" x="240.039062"/>
      </g>
     </g>
    </g>
    <g id="ytick_3">
     <g id="line2d_9">
      <g>
       <use xlink:href="#m20f72109a3" x="57.6" y="235.008" style="stroke: #000000; stroke-width: 0.8"/>
      </g>
     </g>
     <g id="text_9">
      <!-- 0.50 -->
      <g transform="translate(17.591406 238.796984) scale(0.11 -0.11)">
       <use xlink:href="#AndaleMono-2212"/>
       <use xlink:href="#AndaleMono-30" x="60.009766"/>
       <use xlink:href="#AndaleMono-2e" x="120.019531"/>
       <use xlink:href="#AndaleMono-35" x="180.029297"/>
       <use xlink:href="#AndaleMono-30" x="240.039062"/>
      </g>
     </g>
    </g>
    <g id="ytick_4">
     <g id="line2d_10">
      <g>
       <use xlink:href="#m20f72109a3" x="57.6" y="204.768" style="stroke: #000000; stroke-width: 0.8"/>
      </g>
     </g>
     <g id="text_10">
      <!-- 0.25 -->
      <g transform="translate(17.591406 208.556984) scale(0.11 -0.11)">
       <use xlink:href="#AndaleMono-2212"/>
       <use xlink:href="#AndaleMono-30" x="60.009766"/>
       <use xlink:href="#AndaleMono-2e" x="120.019531"/>
       <use xlink:href="#AndaleMono-32" x="180.029297"/>
       <use xlink:href="#AndaleMono-35" x="240.039062"/>
      </g>
     </g>
    </g>
    <g id="ytick_5">
     <g id="line2d_11">
      <g>
       <use xlink:href="#m20f72109a3" x="57.6" y="174.528" style="stroke: #000000; stroke-width: 0.8"/>
      </g>
     </g>
     <g id="text_11">
      <!-- 0.00 -->
      <g transform="translate(24.193125 178.316984) scale(0.11 -0.11)">
       <use xlink:href="#AndaleMono-30"/>
       <use xlink:href="#AndaleMono-2e" x="60.009766"/>
       <use xlink:href="#AndaleMono-30" x="120.019531"/>
       <use xlink:href="#AndaleMono-30" x="180.029297"/>
      </g>
     </g>
    </g>
    <g id="ytick_6">
     <g id="line2d_12">
      <g>
       <use xlink:href="#m20f72109a3" x="57.6" y="144.288" style="stroke: #000000; stroke-width: 0.8"/>
      </g>
     </g>
     <g id="text_12">
      <!-- 0.25 -->
      <g transform="translate(24.193125 148.076984) scale(0.11 -0.11)">
       <use xlink:href="#AndaleMono-30"/>
       <use xlink:href="#AndaleMono-2e" x="60.009766"/>
       <use xlink:href="#AndaleMono-32" x="120.019531"/>
       <use xlink:href="#AndaleMono-35" x="180.029297"/>
      </g>
     </g>
    </g>
    <g id="ytick_7">
     <g id="line2d_13">
      <g>
       <use xlink:href="#m20f72109a3" x="57.6" y="114.048" style="stroke: #000000; stroke-width: 0.8"/>
      </g>
     </g>
     <g id="text_13">
      <!-- 0.50 -->
      <g transform="translate(24.193125 117.836984) scale(0.11 -0.11)">
       <use xlink:href="#AndaleMono-30"/>
       <use xlink:href="#AndaleMono-2e" x="60.009766"/>
       <use xlink:href="#AndaleMono-35" x="120.019531"/>
       <use xlink:href="#AndaleMono-30" x="180.029297"/>
      </g>
     </g>
    </g>
    <g id="ytick_8">
     <g id="line2d_14">
      <g>
       <use xlink:href="#m20f72109a3" x="57.6" y="83.808" style="stroke: #000000; stroke-width: 0.8"/>
      </g>
     </g>
     <g id="text_14">
      <!-- 0.75 -->
      <g transform="translate(24.193125 87.596984) scale(0.11 -0.11)">
       <use xlink:href="#AndaleMono-30"/>
       <use xlink:href="#AndaleMono-2e" x="60.009766"/>
       <use xlink:href="#AndaleMono-37" x="120.019531"/>
       <use xlink:href="#AndaleMono-35" x="180.029297"/>
      </g>
     </g>
    </g>
    <g id="ytick_9">
     <g id="line2d_15">
      <g>
       <use xlink:href="#m20f72109a3" x="57.6" y="53.568" style="stroke: #000000; stroke-width: 0.8"/>
      </g>
     </g>
     <g id="text_15">
      <!-- 1.00 -->
      <g transform="translate(24.193125 57.356984) scale(0.11 -0.11)">
       <use xlink:href="#AndaleMono-31"/>
       <use xlink:href="#AndaleMono-2e" x="60.009766"/>
       <use xlink:href="#AndaleMono-30" x="120.019531"/>
       <use xlink:href="#AndaleMono-30" x="180.029297"/>
      </g>
     </g>
    </g>
   </g>
   <g id="line2d_16">
    <path d="M 73.832727 174.528 
L 74.150083 159.553279 
L 75.73686 156.202222 
L 82.083967 141.915721 
L 83.988099 138.306544 
L 85.257521 137.828399 
L 85.892231 137.357118 
L 86.844298 136.354718 
L 88.74843 133.961576 
L 90.652562 131.421047 
L 92.239339 129.238934 
L 96.999669 122.082995 
L 99.538512 119.246376 
L 101.76 117.186893 
L 104.298843 115.591571 
L 105.88562 114.467646 
L 106.520331 114.267824 
L 107.155041 114.218713 
L 108.424463 114.517589 
L 109.059174 114.765772 
L 112.232727 116.702695 
L 113.502149 118.415812 
L 114.77157 120.151289 
L 115.406281 120.730868 
L 116.040992 121.003604 
L 116.675702 120.99661 
L 117.310413 120.763519 
L 118.262479 119.961517 
L 119.849256 118.064694 
L 121.118678 116.05962 
L 122.070744 114.090725 
L 123.02281 111.567461 
L 123.974876 108.286752 
L 125.244298 102.888675 
L 126.831074 94.619965 
L 130.639339 73.556261 
L 131.90876 68.366062 
L 135.399669 55.950578 
L 136.03438 54.543555 
L 136.669091 53.773068 
L 137.303802 53.568 
L 137.621157 53.660639 
L 138.255868 54.175576 
L 138.890579 55.06299 
L 140.16 57.483481 
L 141.746777 61.115915 
L 143.333554 65.10728 
L 144.28562 68.009655 
L 145.237686 71.5055 
L 146.189752 75.743496 
L 147.459174 82.581385 
L 149.363306 94.418498 
L 151.584793 107.644016 
L 153.488926 117.425528 
L 156.345124 131.379667 
L 157.29719 135.14982 
L 158.249256 138.172885 
L 159.201322 140.590089 
L 160.470744 143.201721 
L 162.692231 147.578575 
L 163.961653 150.563348 
L 167.769917 159.929744 
L 168.721983 161.604067 
L 169.67405 162.911727 
L 170.626116 163.912672 
L 171.895537 164.897094 
L 173.482314 165.784006 
L 184.272397 170.721437 
L 186.176529 171.125957 
L 189.032727 171.453462 
L 202.361653 172.676222 
L 216.325289 173.417866 
L 220.133554 173.353359 
L 223.624463 173.366407 
L 227.750083 173.620914 
L 232.193058 174.111399 
L 236.318678 174.539481 
L 239.809587 174.90352 
L 244.887273 175.461985 
L 249.330248 175.707327 
L 253.138512 175.677757 
L 257.264132 175.675536 
L 267.419504 176.197164 
L 273.449256 176.560684 
L 276.305455 176.832572 
L 282.335207 177.50583 
L 286.778182 178.0407 
L 288.682314 178.529223 
L 290.586446 179.307205 
L 300.741818 184.376703 
L 302.01124 185.44674 
L 302.963306 186.542735 
L 303.915372 187.967273 
L 304.867438 189.77004 
L 306.13686 192.742763 
L 309.945124 202.152117 
L 312.166612 206.470348 
L 313.436033 209.21478 
L 314.388099 211.815484 
L 315.340165 215.077845 
L 316.292231 219.093214 
L 318.196364 228.435587 
L 321.369917 244.960196 
L 323.591405 258.673725 
L 325.495537 270.052801 
L 326.764959 276.247211 
L 328.03438 281.046345 
L 329.303802 284.784458 
L 331.207934 289.451751 
L 332.794711 292.843334 
L 333.746777 294.478309 
L 334.381488 295.186909 
L 335.016198 295.488 
L 335.333554 295.447873 
L 335.650909 295.282932 
L 335.968264 294.976556 
L 336.602975 293.887353 
L 337.237686 292.220974 
L 338.189752 288.978406 
L 341.04595 278.182186 
L 341.998017 273.990588 
L 343.584793 265.491111 
L 346.440992 249.322006 
L 347.710413 243.35511 
L 348.979835 238.476544 
L 349.931901 235.74915 
L 350.883967 233.600626 
L 351.836033 231.927527 
L 353.105455 230.204685 
L 354.374876 228.779723 
L 355.326942 228.133758 
L 355.961653 228.030432 
L 356.596364 228.14368 
L 357.231074 228.591563 
L 357.865785 229.255817 
L 360.404628 232.66076 
L 361.356694 233.254451 
L 362.626116 233.87291 
L 363.578182 234.447623 
L 365.164959 234.837287 
L 365.799669 234.788176 
L 366.43438 234.588354 
L 367.386446 233.940566 
L 369.290579 232.682306 
L 371.829421 230.803474 
L 376.272397 225.712851 
L 377.541818 223.772865 
L 379.44595 220.83542 
L 381.667438 217.802255 
L 383.254215 215.778247 
L 384.840992 213.725159 
L 386.427769 211.954179 
L 387.062479 211.466799 
L 388.649256 210.791473 
L 390.553388 207.10028 
L 394.996364 197.204738 
L 397.852562 190.76117 
L 398.169917 190.134926 
L 398.487273 174.528 
L 398.487273 174.528 
" clip-path="url(#p0b52cddae8)" style="fill: none; stroke: #87ceeb; stroke-opacity: 0.75; stroke-linecap: square"/>
   </g>
   <g id="patch_3">
    <path d="M 57.6 307.584 
L 57.6 41.472 
" style="fill: none; stroke: #000000; stroke-width: 0.8; stroke-linejoin: miter; stroke-linecap: square"/>
   </g>
   <g id="patch_4">
    <path d="M 414.72 307.584 
L 414.72 41.472 
" style="fill: none; stroke: #000000; stroke-width: 0.8; stroke-linejoin: miter; stroke-linecap: square"/>
   </g>
   <g id="patch_5">
    <path d="M 57.6 307.584 
L 414.72 307.584 
" style="fill: none; stroke: #000000; stroke-width: 0.8; stroke-linejoin: miter; stroke-linecap: square"/>
   </g>
   <g id="patch_6">
    <path d="M 57.6 41.472 
L 414.72 41.472 
" style="fill: none; stroke: #000000; stroke-width: 0.8; stroke-linejoin: miter; stroke-linecap: square"/>
   </g>
  </g>
 </g>
 <defs>
  <clipPath id="p0b52cddae8">
   <rect x="57.6" y="41.472" width="357.12" height="266.112"/>
  </clipPath>
 </defs>
</svg>
