<?xml version="1.0" encoding="utf-8" standalone="no"?>
<!DOCTYPE svg PUBLIC "-//W3C//DTD SVG 1.1//EN"
  "http://www.w3.org/Graphics/SVG/1.1/DTD/svg11.dtd">
<svg xmlns:xlink="http://www.w3.org/1999/xlink" width="460.8pt" height="345.6pt" viewBox="0 0 460.8 345.6" xmlns="http://www.w3.org/2000/svg" version="1.1">
 <metadata>
  <rdf:RDF xmlns:dc="http://purl.org/dc/elements/1.1/" xmlns:cc="http://creativecommons.org/ns#" xmlns:rdf="http://www.w3.org/1999/02/22-rdf-syntax-ns#">
   <cc:Work>
    <dc:type rdf:resource="http://purl.org/dc/dcmitype/StillImage"/>
    <dc:date>2024-04-23T11:13:07.230388</dc:date>
    <dc:format>image/svg+xml</dc:format>
    <dc:creator>
     <cc:Agent>
      <dc:title>Matplotlib v3.8.3, https://matplotlib.org/</dc:title>
     </cc:Agent>
    </dc:creator>
   </cc:Work>
  </rdf:RDF>
 </metadata>
 <defs>
  <style type="text/css">*{stroke-linejoin: round; stroke-linecap: butt}</style>
 </defs>
 <g id="figure_1">
  <g id="patch_1">
   <path d="M 0 345.6 
L 460.8 345.6 
L 460.8 0 
L 0 0 
z
" style="fill: #ffffff"/>
  </g>
  <g id="axes_1">
   <g id="patch_2">
    <path d="M 57.6 307.584 
L 414.72 307.584 
L 414.72 41.472 
L 57.6 41.472 
z
" style="fill: #ffffff"/>
   </g>
   <g id="PolyCollection_1">
    <defs>
     <path id="mbf6320bb29" d="M 73.832727 -171.072 
L 73.832727 -171.072 
L 74.150083 -177.813665 
L 74.467438 -178.041415 
L 74.784793 -178.268737 
L 75.102149 -178.507601 
L 75.419504 -178.745986 
L 75.73686 -178.981066 
L 76.054215 -179.21695 
L 76.37157 -179.454821 
L 76.688926 -179.691883 
L 77.006281 -179.926579 
L 77.323636 -180.158791 
L 77.640992 -180.38667 
L 77.958347 -180.61226 
L 78.275702 -180.837682 
L 78.593058 -181.054945 
L 78.910413 -181.26376 
L 79.227769 -181.460138 
L 79.545124 -181.659326 
L 79.862479 -181.859272 
L 80.179835 -182.061953 
L 80.49719 -182.259511 
L 80.814545 -182.451817 
L 81.131901 -182.639632 
L 81.449256 -182.822242 
L 81.766612 -182.993893 
L 82.083967 -183.165203 
L 82.401322 -183.344433 
L 82.718678 -183.525351 
L 83.036033 -183.714215 
L 83.353388 -183.904296 
L 83.670744 -184.094095 
L 83.988099 -184.282812 
L 84.305455 -184.37165 
L 84.62281 -184.447904 
L 84.940165 -184.503382 
L 85.257521 -184.551645 
L 85.574876 -184.585647 
L 85.892231 -184.614521 
L 86.209587 -184.639128 
L 86.526942 -184.651755 
L 86.844298 -184.657799 
L 87.161653 -184.655732 
L 87.479008 -184.653805 
L 87.796364 -184.638424 
L 88.113719 -184.619963 
L 88.431074 -184.597919 
L 88.74843 -184.576824 
L 89.065785 -184.552492 
L 89.38314 -184.532462 
L 89.700496 -184.510853 
L 90.017851 -184.492809 
L 90.335207 -184.475625 
L 90.652562 -184.470433 
L 90.969917 -184.474024 
L 91.287273 -184.480582 
L 91.604628 -184.488055 
L 91.921983 -184.499867 
L 92.239339 -184.515167 
L 92.556694 -184.538795 
L 92.87405 -184.558798 
L 93.191405 -184.573705 
L 93.50876 -184.588528 
L 93.826116 -184.611325 
L 94.143471 -184.642149 
L 94.460826 -184.680311 
L 94.778182 -184.723309 
L 95.095537 -184.766969 
L 95.412893 -184.797361 
L 95.730248 -184.827475 
L 96.047603 -184.856656 
L 96.364959 -184.88136 
L 96.682314 -184.898833 
L 96.999669 -184.914516 
L 97.317025 -184.930592 
L 97.63438 -184.949661 
L 97.951736 -184.967984 
L 98.269091 -184.979113 
L 98.586446 -184.987997 
L 98.903802 -185.002105 
L 99.221157 -185.02004 
L 99.538512 -185.053188 
L 99.855868 -185.079108 
L 100.173223 -185.096229 
L 100.490579 -185.100621 
L 100.807934 -185.103782 
L 101.125289 -185.107942 
L 101.442645 -185.109642 
L 101.76 -185.118989 
L 102.077355 -185.147997 
L 102.394711 -185.176314 
L 102.712066 -185.188127 
L 103.029421 -185.196791 
L 103.346777 -185.188638 
L 103.664132 -185.180272 
L 103.981488 -185.16114 
L 104.298843 -185.14015 
L 104.616198 -185.105278 
L 104.933554 -185.069609 
L 105.250909 -185.042564 
L 105.568264 -185.016166 
L 105.88562 -184.999522 
L 106.202975 -184.975008 
L 106.520331 -184.945033 
L 106.837686 -184.919536 
L 107.155041 -184.89133 
L 107.472397 -184.864795 
L 107.789752 -184.829823 
L 108.107107 -184.81068 
L 108.424463 -184.788603 
L 108.741818 -184.760554 
L 109.059174 -184.734703 
L 109.376529 -184.706473 
L 109.693884 -184.66376 
L 110.01124 -184.618381 
L 110.328595 -184.568854 
L 110.64595 -184.511152 
L 110.963306 -184.436224 
L 111.280661 -184.346784 
L 111.598017 -184.262566 
L 111.915372 -184.184903 
L 112.232727 -184.099735 
L 112.550083 -184.010247 
L 112.867438 -183.914023 
L 113.184793 -183.828755 
L 113.502149 -183.751854 
L 113.819504 -183.680891 
L 114.13686 -183.599683 
L 114.454215 -183.499366 
L 114.77157 -183.400223 
L 115.088926 -183.30743 
L 115.406281 -183.212324 
L 115.723636 -183.12465 
L 116.040992 -183.043575 
L 116.358347 -182.989054 
L 116.675702 -182.956638 
L 116.993058 -182.936169 
L 117.310413 -182.924961 
L 117.627769 -182.922976 
L 117.945124 -182.915004 
L 118.262479 -182.914986 
L 118.579835 -182.93112 
L 118.89719 -182.946586 
L 119.214545 -182.951547 
L 119.531901 -182.985495 
L 119.849256 -183.024193 
L 120.166612 -183.081156 
L 120.483967 -183.164049 
L 120.801322 -183.27047 
L 121.118678 -183.408988 
L 121.436033 -183.555634 
L 121.753388 -183.717647 
L 122.070744 -183.8877 
L 122.388099 -184.058594 
L 122.705455 -184.23085 
L 123.02281 -184.417049 
L 123.340165 -184.611418 
L 123.657521 -184.819784 
L 123.974876 -185.034128 
L 124.292231 -185.284714 
L 124.609587 -185.560686 
L 124.926942 -185.856116 
L 125.244298 -186.170852 
L 125.561653 -186.506212 
L 125.879008 -186.847471 
L 126.196364 -187.184583 
L 126.513719 -187.514646 
L 126.831074 -187.828815 
L 127.14843 -188.137301 
L 127.465785 -188.431673 
L 127.78314 -188.732624 
L 128.100496 -189.041782 
L 128.417851 -189.36255 
L 128.735207 -189.708787 
L 129.052562 -190.08683 
L 129.369917 -190.475656 
L 129.687273 -190.881327 
L 130.004628 -191.303793 
L 130.321983 -191.729768 
L 130.639339 -192.156255 
L 130.956694 -192.60314 
L 131.27405 -193.064483 
L 131.591405 -193.542207 
L 131.90876 -194.026987 
L 132.226116 -194.520225 
L 132.543471 -195.032662 
L 132.860826 -195.575142 
L 133.178182 -196.143102 
L 133.495537 -196.733839 
L 133.812893 -197.361892 
L 134.130248 -198.002477 
L 134.447603 -198.657867 
L 134.764959 -199.334026 
L 135.082314 -200.002411 
L 135.399669 -200.646929 
L 135.717025 -201.287576 
L 136.03438 -201.913534 
L 136.351736 -202.532566 
L 136.669091 -203.135141 
L 136.986446 -203.741969 
L 137.303802 -204.390667 
L 137.621157 -205.094841 
L 137.938512 -205.822617 
L 138.255868 -206.583543 
L 138.573223 -207.353308 
L 138.890579 -208.125902 
L 139.207934 -208.915869 
L 139.525289 -209.756582 
L 139.842645 -210.586944 
L 140.16 -211.445247 
L 140.477355 -212.325682 
L 140.794711 -213.230088 
L 141.112066 -214.170913 
L 141.429421 -215.125502 
L 141.746777 -216.136947 
L 142.064132 -217.198716 
L 142.381488 -218.307584 
L 142.698843 -219.456477 
L 143.016198 -220.643094 
L 143.333554 -221.841802 
L 143.650909 -223.033274 
L 143.968264 -224.220984 
L 144.28562 -225.389163 
L 144.602975 -226.509536 
L 144.920331 -227.587241 
L 145.237686 -228.643404 
L 145.555041 -229.681181 
L 145.872397 -230.724636 
L 146.189752 -231.804404 
L 146.507107 -232.950245 
L 146.824463 -234.157442 
L 147.141818 -235.415525 
L 147.459174 -236.69417 
L 147.776529 -238.014754 
L 148.093884 -239.338382 
L 148.41124 -240.667973 
L 148.728595 -241.983287 
L 149.04595 -243.284172 
L 149.363306 -244.567946 
L 149.680661 -245.852181 
L 149.998017 -247.153799 
L 150.315372 -248.486866 
L 150.632727 -249.868478 
L 150.950083 -251.305081 
L 151.267438 -252.78765 
L 151.584793 -254.304532 
L 151.902149 -255.842431 
L 152.219504 -257.365184 
L 152.53686 -258.86136 
L 152.854215 -260.331176 
L 153.17157 -261.739247 
L 153.488926 -263.072886 
L 153.806281 -264.329051 
L 154.123636 -265.48819 
L 154.440992 -266.583226 
L 154.758347 -267.638175 
L 155.075702 -268.682398 
L 155.393058 -269.748562 
L 155.710413 -270.879425 
L 156.027769 -272.06959 
L 156.345124 -273.309013 
L 156.662479 -274.57869 
L 156.979835 -275.851517 
L 157.29719 -277.086219 
L 157.614545 -278.233004 
L 157.931901 -279.256869 
L 158.249256 -280.210208 
L 158.566612 -281.113754 
L 158.883967 -282.005204 
L 159.201322 -282.899055 
L 159.518678 -283.801479 
L 159.836033 -284.692665 
L 160.153388 -285.596915 
L 160.470744 -286.493451 
L 160.788099 -287.376976 
L 161.105455 -288.232361 
L 161.42281 -289.036457 
L 161.740165 -289.780274 
L 162.057521 -290.423907 
L 162.374876 -290.950636 
L 162.692231 -291.337849 
L 163.009587 -291.585294 
L 163.326942 -291.714461 
L 163.644298 -291.762742 
L 163.961653 -291.764612 
L 164.279008 -291.734549 
L 164.596364 -291.709321 
L 164.913719 -291.715043 
L 165.231074 -291.758921 
L 165.54843 -291.834425 
L 165.865785 -291.935584 
L 166.18314 -292.021809 
L 166.500496 -292.032 
L 166.817851 -291.913029 
L 167.135207 -291.69176 
L 167.452562 -291.400343 
L 167.769917 -291.071727 
L 168.087273 -290.702477 
L 168.404628 -290.319833 
L 168.721983 -289.927554 
L 169.039339 -289.535266 
L 169.356694 -289.137047 
L 169.67405 -288.735533 
L 169.991405 -288.319967 
L 170.30876 -287.871493 
L 170.626116 -287.375913 
L 170.943471 -286.817919 
L 171.260826 -286.178202 
L 171.578182 -285.428481 
L 171.895537 -284.581612 
L 172.212893 -283.651672 
L 172.530248 -282.679972 
L 172.847603 -281.6817 
L 173.164959 -280.663378 
L 173.482314 -279.657532 
L 173.799669 -278.695505 
L 174.117025 -277.779891 
L 174.43438 -276.926161 
L 174.751736 -276.129169 
L 175.069091 -275.371443 
L 175.386446 -274.619661 
L 175.703802 -273.848233 
L 176.021157 -273.009133 
L 176.338512 -272.078751 
L 176.655868 -271.07526 
L 176.973223 -270.012482 
L 177.290579 -268.917806 
L 177.607934 -267.823761 
L 177.925289 -266.761532 
L 178.242645 -265.756169 
L 178.56 -264.79129 
L 178.877355 -263.852493 
L 179.194711 -262.917672 
L 179.512066 -261.973924 
L 179.829421 -261.010142 
L 180.146777 -260.019887 
L 180.464132 -258.996753 
L 180.781488 -257.931444 
L 181.098843 -256.819223 
L 181.416198 -255.655358 
L 181.733554 -254.453853 
L 182.050909 -253.235479 
L 182.368264 -252.021623 
L 182.68562 -250.835953 
L 183.002975 -249.709371 
L 183.320331 -248.656695 
L 183.637686 -247.67371 
L 183.955041 -246.749803 
L 184.272397 -245.873282 
L 184.589752 -245.030096 
L 184.907107 -244.196827 
L 185.224463 -243.355685 
L 185.541818 -242.49212 
L 185.859174 -241.591652 
L 186.176529 -240.642551 
L 186.493884 -239.645604 
L 186.81124 -238.644644 
L 187.128595 -237.676788 
L 187.44595 -236.737761 
L 187.763306 -235.817108 
L 188.080661 -234.905581 
L 188.398017 -234.000407 
L 188.715372 -233.093942 
L 189.032727 -232.181104 
L 189.350083 -231.260024 
L 189.667438 -230.331487 
L 189.984793 -229.391752 
L 190.302149 -228.438934 
L 190.619504 -227.474505 
L 190.93686 -226.49843 
L 191.254215 -225.510226 
L 191.57157 -224.515279 
L 191.888926 -223.539734 
L 192.206281 -222.589663 
L 192.523636 -221.667222 
L 192.840992 -220.767678 
L 193.158347 -219.891242 
L 193.475702 -219.035055 
L 193.793058 -218.1928 
L 194.110413 -217.35128 
L 194.427769 -216.509223 
L 194.745124 -215.660134 
L 195.062479 -214.797832 
L 195.379835 -213.919041 
L 195.69719 -213.026176 
L 196.014545 -212.120202 
L 196.331901 -211.213321 
L 196.649256 -210.32752 
L 196.966612 -209.461953 
L 197.283967 -208.617704 
L 197.601322 -207.791155 
L 197.918678 -206.977437 
L 198.236033 -206.172183 
L 198.553388 -205.373221 
L 198.870744 -204.575998 
L 199.188099 -203.777054 
L 199.505455 -202.975838 
L 199.82281 -202.171515 
L 200.140165 -201.362041 
L 200.457521 -200.548293 
L 200.774876 -199.733186 
L 201.092231 -198.922824 
L 201.409587 -198.12642 
L 201.726942 -197.35941 
L 202.044298 -196.623505 
L 202.361653 -195.918639 
L 202.679008 -195.243973 
L 202.996364 -194.596323 
L 203.313719 -193.969885 
L 203.631074 -193.359712 
L 203.94843 -192.761177 
L 204.265785 -192.168235 
L 204.58314 -191.576023 
L 204.900496 -190.981487 
L 205.217851 -190.383921 
L 205.535207 -189.783497 
L 205.852562 -189.183153 
L 206.169917 -188.588623 
L 206.487273 -188.011802 
L 206.804628 -187.467683 
L 207.121983 -186.953721 
L 207.439339 -186.465405 
L 207.756694 -185.996765 
L 208.07405 -185.543113 
L 208.391405 -185.099444 
L 208.70876 -184.661486 
L 209.026116 -184.225527 
L 209.343471 -183.791579 
L 209.660826 -183.358944 
L 209.978182 -182.927902 
L 210.295537 -182.499865 
L 210.612893 -182.078533 
L 210.930248 -181.66699 
L 211.247603 -181.269496 
L 211.564959 -180.890747 
L 211.882314 -180.538205 
L 212.199669 -180.210908 
L 212.517025 -179.907019 
L 212.83438 -179.623538 
L 213.151736 -179.356633 
L 213.469091 -179.102588 
L 213.786446 -178.858538 
L 214.103802 -178.621222 
L 214.421157 -178.387455 
L 214.738512 -178.156106 
L 215.055868 -177.927457 
L 215.373223 -177.702015 
L 215.690579 -177.482059 
L 216.007934 -177.271445 
L 216.325289 -177.075957 
L 216.642645 -176.899353 
L 216.96 -176.737963 
L 217.277355 -176.58781 
L 217.594711 -176.445136 
L 217.912066 -176.306604 
L 218.229421 -176.169376 
L 218.546777 -176.030721 
L 218.864132 -175.889279 
L 219.181488 -175.745319 
L 219.498843 -175.599365 
L 219.816198 -175.452226 
L 220.133554 -175.305554 
L 220.450909 -175.161298 
L 220.768264 -175.021477 
L 221.08562 -174.888188 
L 221.402975 -174.763577 
L 221.720331 -174.647821 
L 222.037686 -174.539203 
L 222.355041 -174.437432 
L 222.672397 -174.341791 
L 222.989752 -174.250443 
L 223.307107 -174.1614 
L 223.624463 -174.073226 
L 223.941818 -173.983745 
L 224.259174 -173.891435 
L 224.576529 -173.795793 
L 224.893884 -173.696729 
L 225.21124 -173.594825 
L 225.528595 -173.491394 
L 225.84595 -173.388107 
L 226.163306 -173.286733 
L 226.480661 -173.189503 
L 226.798017 -173.096708 
L 227.115372 -173.007034 
L 227.432727 -172.919341 
L 227.750083 -172.833091 
L 228.067438 -172.748478 
L 228.384793 -172.665449 
L 228.702149 -172.584108 
L 229.019504 -172.504861 
L 229.33686 -172.427778 
L 229.654215 -172.352179 
L 229.97157 -172.277606 
L 230.288926 -172.203506 
L 230.606281 -172.129523 
L 230.923636 -172.056042 
L 231.240992 -171.983684 
L 231.558347 -171.913743 
L 231.875702 -171.848334 
L 232.193058 -171.78752 
L 232.510413 -171.730861 
L 232.827769 -171.676932 
L 233.145124 -171.624803 
L 233.462479 -171.573389 
L 233.779835 -171.521626 
L 234.09719 -171.468598 
L 234.414545 -171.413651 
L 234.731901 -171.35654 
L 235.049256 -171.29705 
L 235.366612 -171.235184 
L 235.683967 -171.170987 
L 236.001322 -171.105096 
L 236.318678 -171.038904 
L 236.636033 -170.973013 
L 236.953388 -170.908816 
L 237.270744 -170.84695 
L 237.588099 -170.78746 
L 237.905455 -170.730349 
L 238.22281 -170.675402 
L 238.540165 -170.622374 
L 238.857521 -170.570611 
L 239.174876 -170.519197 
L 239.492231 -170.467068 
L 239.809587 -170.413139 
L 240.126942 -170.35648 
L 240.444298 -170.295666 
L 240.761653 -170.230257 
L 241.079008 -170.160316 
L 241.396364 -170.087958 
L 241.713719 -170.014477 
L 242.031074 -169.940494 
L 242.34843 -169.866394 
L 242.665785 -169.791821 
L 242.98314 -169.716222 
L 243.300496 -169.639139 
L 243.617851 -169.559892 
L 243.935207 -169.478551 
L 244.252562 -169.395522 
L 244.569917 -169.310909 
L 244.887273 -169.224659 
L 245.204628 -169.136966 
L 245.521983 -169.047292 
L 245.839339 -168.954497 
L 246.156694 -168.857267 
L 246.47405 -168.755893 
L 246.791405 -168.652606 
L 247.10876 -168.549175 
L 247.426116 -168.447271 
L 247.743471 -168.348207 
L 248.060826 -168.252565 
L 248.378182 -168.160255 
L 248.695537 -168.070774 
L 249.012893 -167.9826 
L 249.330248 -167.893557 
L 249.647603 -167.802209 
L 249.964959 -167.706568 
L 250.282314 -167.604797 
L 250.599669 -167.496179 
L 250.917025 -167.380423 
L 251.23438 -167.255812 
L 251.551736 -167.122523 
L 251.869091 -166.982702 
L 252.186446 -166.838446 
L 252.503802 -166.691774 
L 252.821157 -166.544635 
L 253.138512 -166.398681 
L 253.455868 -166.254721 
L 253.773223 -166.113279 
L 254.090579 -165.974624 
L 254.407934 -165.837396 
L 254.725289 -165.698864 
L 255.042645 -165.55619 
L 255.36 -165.406037 
L 255.677355 -165.244647 
L 255.994711 -165.068043 
L 256.312066 -164.872555 
L 256.629421 -164.661941 
L 256.946777 -164.441985 
L 257.264132 -164.216543 
L 257.581488 -163.987894 
L 257.898843 -163.756545 
L 258.216198 -163.522778 
L 258.533554 -163.285462 
L 258.850909 -163.041412 
L 259.168264 -162.787367 
L 259.48562 -162.520462 
L 259.802975 -162.236981 
L 260.120331 -161.933092 
L 260.437686 -161.605795 
L 260.755041 -161.253253 
L 261.072397 -160.874504 
L 261.389752 -160.47701 
L 261.707107 -160.065467 
L 262.024463 -159.644135 
L 262.341818 -159.216098 
L 262.659174 -158.785056 
L 262.976529 -158.352421 
L 263.293884 -157.918473 
L 263.61124 -157.482514 
L 263.928595 -157.044556 
L 264.24595 -156.600887 
L 264.563306 -156.147235 
L 264.880661 -155.678595 
L 265.198017 -155.190279 
L 265.515372 -154.676317 
L 265.832727 -154.132198 
L 266.150083 -153.555377 
L 266.467438 -152.960847 
L 266.784793 -152.360503 
L 267.102149 -151.760079 
L 267.419504 -151.162513 
L 267.73686 -150.567977 
L 268.054215 -149.975765 
L 268.37157 -149.382823 
L 268.688926 -148.784288 
L 269.006281 -148.174115 
L 269.323636 -147.547677 
L 269.640992 -146.900027 
L 269.958347 -146.225361 
L 270.275702 -145.520495 
L 270.593058 -144.78459 
L 270.910413 -144.01758 
L 271.227769 -143.221176 
L 271.545124 -142.410814 
L 271.862479 -141.595707 
L 272.179835 -140.781959 
L 272.49719 -139.972485 
L 272.814545 -139.168162 
L 273.131901 -138.366946 
L 273.449256 -137.568002 
L 273.766612 -136.770779 
L 274.083967 -135.971817 
L 274.401322 -135.166563 
L 274.718678 -134.352845 
L 275.036033 -133.526296 
L 275.353388 -132.682047 
L 275.670744 -131.81648 
L 275.988099 -130.930679 
L 276.305455 -130.023798 
L 276.62281 -129.117824 
L 276.940165 -128.224959 
L 277.257521 -127.346168 
L 277.574876 -126.483866 
L 277.892231 -125.634777 
L 278.209587 -124.79272 
L 278.526942 -123.9512 
L 278.844298 -123.108945 
L 279.161653 -122.252758 
L 279.479008 -121.376322 
L 279.796364 -120.476778 
L 280.113719 -119.554337 
L 280.431074 -118.604266 
L 280.74843 -117.628721 
L 281.065785 -116.633774 
L 281.38314 -115.64557 
L 281.700496 -114.669495 
L 282.017851 -113.705066 
L 282.335207 -112.752248 
L 282.652562 -111.812513 
L 282.969917 -110.883976 
L 283.287273 -109.962896 
L 283.604628 -109.050058 
L 283.921983 -108.143593 
L 284.239339 -107.238419 
L 284.556694 -106.326892 
L 284.87405 -105.406239 
L 285.191405 -104.467212 
L 285.50876 -103.499356 
L 285.826116 -102.498396 
L 286.143471 -101.501449 
L 286.460826 -100.552348 
L 286.778182 -99.65188 
L 287.095537 -98.788315 
L 287.412893 -97.947173 
L 287.730248 -97.113904 
L 288.047603 -96.270718 
L 288.364959 -95.394197 
L 288.682314 -94.47029 
L 288.999669 -93.487305 
L 289.317025 -92.434629 
L 289.63438 -91.308047 
L 289.951736 -90.122377 
L 290.269091 -88.908521 
L 290.586446 -87.690147 
L 290.903802 -86.488642 
L 291.221157 -85.324777 
L 291.538512 -84.212556 
L 291.855868 -83.147247 
L 292.173223 -82.124113 
L 292.490579 -81.133858 
L 292.807934 -80.170076 
L 293.125289 -79.226328 
L 293.442645 -78.291507 
L 293.76 -77.35271 
L 294.077355 -76.387831 
L 294.394711 -75.382468 
L 294.712066 -74.320239 
L 295.029421 -73.226194 
L 295.346777 -72.131518 
L 295.664132 -71.06874 
L 295.981488 -70.065249 
L 296.298843 -69.134867 
L 296.616198 -68.295767 
L 296.933554 -67.524339 
L 297.250909 -66.772557 
L 297.568264 -66.014831 
L 297.88562 -65.217839 
L 298.202975 -64.364109 
L 298.520331 -63.448495 
L 298.837686 -62.486468 
L 299.155041 -61.480622 
L 299.472397 -60.4623 
L 299.789752 -59.464028 
L 300.107107 -58.492328 
L 300.424463 -57.562388 
L 300.741818 -56.715519 
L 301.059174 -55.965798 
L 301.376529 -55.326081 
L 301.693884 -54.768087 
L 302.01124 -54.272507 
L 302.328595 -53.824033 
L 302.64595 -53.408467 
L 302.963306 -53.006953 
L 303.280661 -52.608734 
L 303.598017 -52.216446 
L 303.915372 -51.824167 
L 304.232727 -51.441523 
L 304.550083 -51.072273 
L 304.867438 -50.743657 
L 305.184793 -50.45224 
L 305.502149 -50.230971 
L 305.819504 -50.112 
L 306.13686 -50.122191 
L 306.454215 -50.208416 
L 306.77157 -50.309575 
L 307.088926 -50.385079 
L 307.406281 -50.428957 
L 307.723636 -50.434679 
L 308.040992 -50.409451 
L 308.358347 -50.379388 
L 308.675702 -50.381258 
L 308.993058 -50.429539 
L 309.310413 -50.558706 
L 309.627769 -50.806151 
L 309.945124 -51.193364 
L 310.262479 -51.720093 
L 310.579835 -52.363726 
L 310.89719 -53.107543 
L 311.214545 -53.911639 
L 311.531901 -54.767024 
L 311.849256 -55.650549 
L 312.166612 -56.547085 
L 312.483967 -57.451335 
L 312.801322 -58.342521 
L 313.118678 -59.244945 
L 313.436033 -60.138796 
L 313.753388 -61.030246 
L 314.070744 -61.933792 
L 314.388099 -62.887131 
L 314.705455 -63.910996 
L 315.02281 -65.057781 
L 315.340165 -66.292483 
L 315.657521 -67.56531 
L 315.974876 -68.834987 
L 316.292231 -70.07441 
L 316.609587 -71.264575 
L 316.926942 -72.395438 
L 317.244298 -73.461602 
L 317.561653 -74.505825 
L 317.879008 -75.560774 
L 318.196364 -76.65581 
L 318.513719 -77.814949 
L 318.831074 -79.071114 
L 319.14843 -80.404753 
L 319.465785 -81.812824 
L 319.78314 -83.28264 
L 320.100496 -84.778816 
L 320.417851 -86.301569 
L 320.735207 -87.839468 
L 321.052562 -89.35635 
L 321.369917 -90.838919 
L 321.687273 -92.275522 
L 322.004628 -93.657134 
L 322.321983 -94.990201 
L 322.639339 -96.291819 
L 322.956694 -97.576054 
L 323.27405 -98.859828 
L 323.591405 -100.160713 
L 323.90876 -101.476027 
L 324.226116 -102.805618 
L 324.543471 -104.129246 
L 324.860826 -105.44983 
L 325.178182 -106.728475 
L 325.495537 -107.986558 
L 325.812893 -109.193755 
L 326.130248 -110.339596 
L 326.447603 -111.419364 
L 326.764959 -112.462819 
L 327.082314 -113.500596 
L 327.399669 -114.556759 
L 327.717025 -115.634464 
L 328.03438 -116.754837 
L 328.351736 -117.923016 
L 328.669091 -119.110726 
L 328.986446 -120.302198 
L 329.303802 -121.500906 
L 329.621157 -122.687523 
L 329.938512 -123.836416 
L 330.255868 -124.945284 
L 330.573223 -126.007053 
L 330.890579 -127.018498 
L 331.207934 -127.973087 
L 331.525289 -128.913912 
L 331.842645 -129.818318 
L 332.16 -130.698753 
L 332.477355 -131.557056 
L 332.794711 -132.387418 
L 333.112066 -133.228131 
L 333.429421 -134.018098 
L 333.746777 -134.790692 
L 334.064132 -135.560457 
L 334.381488 -136.321383 
L 334.698843 -137.049159 
L 335.016198 -137.753333 
L 335.333554 -138.402031 
L 335.650909 -139.008859 
L 335.968264 -139.611434 
L 336.28562 -140.230466 
L 336.602975 -140.856424 
L 336.920331 -141.497071 
L 337.237686 -142.141589 
L 337.555041 -142.809974 
L 337.872397 -143.486133 
L 338.189752 -144.141523 
L 338.507107 -144.782108 
L 338.824463 -145.410161 
L 339.141818 -146.000898 
L 339.459174 -146.568858 
L 339.776529 -147.111338 
L 340.093884 -147.623775 
L 340.41124 -148.117013 
L 340.728595 -148.601793 
L 341.04595 -149.079517 
L 341.363306 -149.54086 
L 341.680661 -149.987745 
L 341.998017 -150.414232 
L 342.315372 -150.840207 
L 342.632727 -151.262673 
L 342.950083 -151.668344 
L 343.267438 -152.05717 
L 343.584793 -152.435213 
L 343.902149 -152.78145 
L 344.219504 -153.102218 
L 344.53686 -153.411376 
L 344.854215 -153.712327 
L 345.17157 -154.006699 
L 345.488926 -154.315185 
L 345.806281 -154.629354 
L 346.123636 -154.959417 
L 346.440992 -155.296529 
L 346.758347 -155.637788 
L 347.075702 -155.973148 
L 347.393058 -156.287884 
L 347.710413 -156.583314 
L 348.027769 -156.859286 
L 348.345124 -157.109872 
L 348.662479 -157.324216 
L 348.979835 -157.532582 
L 349.29719 -157.726951 
L 349.614545 -157.91315 
L 349.931901 -158.085406 
L 350.249256 -158.2563 
L 350.566612 -158.426353 
L 350.883967 -158.588366 
L 351.201322 -158.735012 
L 351.518678 -158.87353 
L 351.836033 -158.979951 
L 352.153388 -159.062844 
L 352.470744 -159.119807 
L 352.788099 -159.158505 
L 353.105455 -159.192453 
L 353.42281 -159.197414 
L 353.740165 -159.21288 
L 354.057521 -159.229014 
L 354.374876 -159.228996 
L 354.692231 -159.221024 
L 355.009587 -159.219039 
L 355.326942 -159.207831 
L 355.644298 -159.187362 
L 355.961653 -159.154946 
L 356.279008 -159.100425 
L 356.596364 -159.01935 
L 356.913719 -158.931676 
L 357.231074 -158.83657 
L 357.54843 -158.743777 
L 357.865785 -158.644634 
L 358.18314 -158.544317 
L 358.500496 -158.463109 
L 358.817851 -158.392146 
L 359.135207 -158.315245 
L 359.452562 -158.229977 
L 359.769917 -158.133753 
L 360.087273 -158.044265 
L 360.404628 -157.959097 
L 360.721983 -157.881434 
L 361.039339 -157.797216 
L 361.356694 -157.707776 
L 361.67405 -157.632848 
L 361.991405 -157.575146 
L 362.30876 -157.525619 
L 362.626116 -157.48024 
L 362.943471 -157.437527 
L 363.260826 -157.409297 
L 363.578182 -157.383446 
L 363.895537 -157.355397 
L 364.212893 -157.33332 
L 364.530248 -157.314177 
L 364.847603 -157.279205 
L 365.164959 -157.25267 
L 365.482314 -157.224464 
L 365.799669 -157.198967 
L 366.117025 -157.168992 
L 366.43438 -157.144478 
L 366.751736 -157.127834 
L 367.069091 -157.101436 
L 367.386446 -157.074391 
L 367.703802 -157.038722 
L 368.021157 -157.00385 
L 368.338512 -156.98286 
L 368.655868 -156.963728 
L 368.973223 -156.955362 
L 369.290579 -156.947209 
L 369.607934 -156.955873 
L 369.925289 -156.967686 
L 370.242645 -156.996003 
L 370.56 -157.025011 
L 370.877355 -157.034358 
L 371.194711 -157.036058 
L 371.512066 -157.040218 
L 371.829421 -157.043379 
L 372.146777 -157.047771 
L 372.464132 -157.064892 
L 372.781488 -157.090812 
L 373.098843 -157.12396 
L 373.416198 -157.141895 
L 373.733554 -157.156003 
L 374.050909 -157.164887 
L 374.368264 -157.176016 
L 374.68562 -157.194339 
L 375.002975 -157.213408 
L 375.320331 -157.229484 
L 375.637686 -157.245167 
L 375.955041 -157.26264 
L 376.272397 -157.287344 
L 376.589752 -157.316525 
L 376.907107 -157.346639 
L 377.224463 -157.377031 
L 377.541818 -157.420691 
L 377.859174 -157.463689 
L 378.176529 -157.501851 
L 378.493884 -157.533097 
L 378.81124 -157.556606 
L 379.128595 -157.571951 
L 379.44595 -157.587177 
L 379.763306 -157.607281 
L 380.080661 -157.630778 
L 380.398017 -157.645702 
L 380.715372 -157.65688 
L 381.032727 -157.663445 
L 381.350083 -157.668807 
L 381.667438 -157.670901 
L 381.984793 -157.663898 
L 382.302149 -157.644574 
L 382.619504 -157.624046 
L 382.93686 -157.599597 
L 383.254215 -157.576355 
L 383.57157 -157.548427 
L 383.888926 -157.523337 
L 384.206281 -157.496885 
L 384.523636 -157.473589 
L 384.840992 -157.452933 
L 385.158347 -157.445275 
L 385.475702 -157.43701 
L 385.793058 -157.436372 
L 386.110413 -157.441821 
L 386.427769 -157.458739 
L 386.745124 -157.479399 
L 387.062479 -157.504651 
L 387.379835 -157.54361 
L 387.69719 -157.589218 
L 388.014545 -157.655021 
L 388.331901 -157.732813 
L 388.649256 -157.812859 
L 388.966612 -158.002658 
L 389.283967 -158.192739 
L 389.601322 -158.381603 
L 389.918678 -158.562521 
L 390.236033 -158.741752 
L 390.553388 -158.913061 
L 390.870744 -159.084712 
L 391.188099 -159.267322 
L 391.505455 -159.455138 
L 391.82281 -159.647443 
L 392.140165 -159.845001 
L 392.457521 -160.047682 
L 392.774876 -160.247628 
L 393.092231 -160.446817 
L 393.409587 -160.643194 
L 393.726942 -160.85201 
L 394.044298 -161.069272 
L 394.361653 -161.294695 
L 394.679008 -161.520284 
L 394.996364 -161.748164 
L 395.313719 -161.980375 
L 395.631074 -162.215071 
L 395.94843 -162.452133 
L 396.265785 -162.690005 
L 396.58314 -162.925888 
L 396.900496 -163.160968 
L 397.217851 -163.399353 
L 397.535207 -163.638217 
L 397.852562 -163.86554 
L 398.169917 -164.093289 
L 398.487273 -171.072 
L 398.487273 -171.072 
L 398.487273 -171.072 
L 398.169917 -171.072 
L 397.852562 -171.072 
L 397.535207 -171.072 
L 397.217851 -171.072 
L 396.900496 -171.072 
L 396.58314 -171.072 
L 396.265785 -171.072 
L 395.94843 -171.072 
L 395.631074 -171.072 
L 395.313719 -171.072 
L 394.996364 -171.072 
L 394.679008 -171.072 
L 394.361653 -171.072 
L 394.044298 -171.072 
L 393.726942 -171.072 
L 393.409587 -171.072 
L 393.092231 -171.072 
L 392.774876 -171.072 
L 392.457521 -171.072 
L 392.140165 -171.072 
L 391.82281 -171.072 
L 391.505455 -171.072 
L 391.188099 -171.072 
L 390.870744 -171.072 
L 390.553388 -171.072 
L 390.236033 -171.072 
L 389.918678 -171.072 
L 389.601322 -171.072 
L 389.283967 -171.072 
L 388.966612 -171.072 
L 388.649256 -171.072 
L 388.331901 -171.072 
L 388.014545 -171.072 
L 387.69719 -171.072 
L 387.379835 -171.072 
L 387.062479 -171.072 
L 386.745124 -171.072 
L 386.427769 -171.072 
L 386.110413 -171.072 
L 385.793058 -171.072 
L 385.475702 -171.072 
L 385.158347 -171.072 
L 384.840992 -171.072 
L 384.523636 -171.072 
L 384.206281 -171.072 
L 383.888926 -171.072 
L 383.57157 -171.072 
L 383.254215 -171.072 
L 382.93686 -171.072 
L 382.619504 -171.072 
L 382.302149 -171.072 
L 381.984793 -171.072 
L 381.667438 -171.072 
L 381.350083 -171.072 
L 381.032727 -171.072 
L 380.715372 -171.072 
L 380.398017 -171.072 
L 380.080661 -171.072 
L 379.763306 -171.072 
L 379.44595 -171.072 
L 379.128595 -171.072 
L 378.81124 -171.072 
L 378.493884 -171.072 
L 378.176529 -171.072 
L 377.859174 -171.072 
L 377.541818 -171.072 
L 377.224463 -171.072 
L 376.907107 -171.072 
L 376.589752 -171.072 
L 376.272397 -171.072 
L 375.955041 -171.072 
L 375.637686 -171.072 
L 375.320331 -171.072 
L 375.002975 -171.072 
L 374.68562 -171.072 
L 374.368264 -171.072 
L 374.050909 -171.072 
L 373.733554 -171.072 
L 373.416198 -171.072 
L 373.098843 -171.072 
L 372.781488 -171.072 
L 372.464132 -171.072 
L 372.146777 -171.072 
L 371.829421 -171.072 
L 371.512066 -171.072 
L 371.194711 -171.072 
L 370.877355 -171.072 
L 370.56 -171.072 
L 370.242645 -171.072 
L 369.925289 -171.072 
L 369.607934 -171.072 
L 369.290579 -171.072 
L 368.973223 -171.072 
L 368.655868 -171.072 
L 368.338512 -171.072 
L 368.021157 -171.072 
L 367.703802 -171.072 
L 367.386446 -171.072 
L 367.069091 -171.072 
L 366.751736 -171.072 
L 366.43438 -171.072 
L 366.117025 -171.072 
L 365.799669 -171.072 
L 365.482314 -171.072 
L 365.164959 -171.072 
L 364.847603 -171.072 
L 364.530248 -171.072 
L 364.212893 -171.072 
L 363.895537 -171.072 
L 363.578182 -171.072 
L 363.260826 -171.072 
L 362.943471 -171.072 
L 362.626116 -171.072 
L 362.30876 -171.072 
L 361.991405 -171.072 
L 361.67405 -171.072 
L 361.356694 -171.072 
L 361.039339 -171.072 
L 360.721983 -171.072 
L 360.404628 -171.072 
L 360.087273 -171.072 
L 359.769917 -171.072 
L 359.452562 -171.072 
L 359.135207 -171.072 
L 358.817851 -171.072 
L 358.500496 -171.072 
L 358.18314 -171.072 
L 357.865785 -171.072 
L 357.54843 -171.072 
L 357.231074 -171.072 
L 356.913719 -171.072 
L 356.596364 -171.072 
L 356.279008 -171.072 
L 355.961653 -171.072 
L 355.644298 -171.072 
L 355.326942 -171.072 
L 355.009587 -171.072 
L 354.692231 -171.072 
L 354.374876 -171.072 
L 354.057521 -171.072 
L 353.740165 -171.072 
L 353.42281 -171.072 
L 353.105455 -171.072 
L 352.788099 -171.072 
L 352.470744 -171.072 
L 352.153388 -171.072 
L 351.836033 -171.072 
L 351.518678 -171.072 
L 351.201322 -171.072 
L 350.883967 -171.072 
L 350.566612 -171.072 
L 350.249256 -171.072 
L 349.931901 -171.072 
L 349.614545 -171.072 
L 349.29719 -171.072 
L 348.979835 -171.072 
L 348.662479 -171.072 
L 348.345124 -171.072 
L 348.027769 -171.072 
L 347.710413 -171.072 
L 347.393058 -171.072 
L 347.075702 -171.072 
L 346.758347 -171.072 
L 346.440992 -171.072 
L 346.123636 -171.072 
L 345.806281 -171.072 
L 345.488926 -171.072 
L 345.17157 -171.072 
L 344.854215 -171.072 
L 344.53686 -171.072 
L 344.219504 -171.072 
L 343.902149 -171.072 
L 343.584793 -171.072 
L 343.267438 -171.072 
L 342.950083 -171.072 
L 342.632727 -171.072 
L 342.315372 -171.072 
L 341.998017 -171.072 
L 341.680661 -171.072 
L 341.363306 -171.072 
L 341.04595 -171.072 
L 340.728595 -171.072 
L 340.41124 -171.072 
L 340.093884 -171.072 
L 339.776529 -171.072 
L 339.459174 -171.072 
L 339.141818 -171.072 
L 338.824463 -171.072 
L 338.507107 -171.072 
L 338.189752 -171.072 
L 337.872397 -171.072 
L 337.555041 -171.072 
L 337.237686 -171.072 
L 336.920331 -171.072 
L 336.602975 -171.072 
L 336.28562 -171.072 
L 335.968264 -171.072 
L 335.650909 -171.072 
L 335.333554 -171.072 
L 335.016198 -171.072 
L 334.698843 -171.072 
L 334.381488 -171.072 
L 334.064132 -171.072 
L 333.746777 -171.072 
L 333.429421 -171.072 
L 333.112066 -171.072 
L 332.794711 -171.072 
L 332.477355 -171.072 
L 332.16 -171.072 
L 331.842645 -171.072 
L 331.525289 -171.072 
L 331.207934 -171.072 
L 330.890579 -171.072 
L 330.573223 -171.072 
L 330.255868 -171.072 
L 329.938512 -171.072 
L 329.621157 -171.072 
L 329.303802 -171.072 
L 328.986446 -171.072 
L 328.669091 -171.072 
L 328.351736 -171.072 
L 328.03438 -171.072 
L 327.717025 -171.072 
L 327.399669 -171.072 
L 327.082314 -171.072 
L 326.764959 -171.072 
L 326.447603 -171.072 
L 326.130248 -171.072 
L 325.812893 -171.072 
L 325.495537 -171.072 
L 325.178182 -171.072 
L 324.860826 -171.072 
L 324.543471 -171.072 
L 324.226116 -171.072 
L 323.90876 -171.072 
L 323.591405 -171.072 
L 323.27405 -171.072 
L 322.956694 -171.072 
L 322.639339 -171.072 
L 322.321983 -171.072 
L 322.004628 -171.072 
L 321.687273 -171.072 
L 321.369917 -171.072 
L 321.052562 -171.072 
L 320.735207 -171.072 
L 320.417851 -171.072 
L 320.100496 -171.072 
L 319.78314 -171.072 
L 319.465785 -171.072 
L 319.14843 -171.072 
L 318.831074 -171.072 
L 318.513719 -171.072 
L 318.196364 -171.072 
L 317.879008 -171.072 
L 317.561653 -171.072 
L 317.244298 -171.072 
L 316.926942 -171.072 
L 316.609587 -171.072 
L 316.292231 -171.072 
L 315.974876 -171.072 
L 315.657521 -171.072 
L 315.340165 -171.072 
L 315.02281 -171.072 
L 314.705455 -171.072 
L 314.388099 -171.072 
L 314.070744 -171.072 
L 313.753388 -171.072 
L 313.436033 -171.072 
L 313.118678 -171.072 
L 312.801322 -171.072 
L 312.483967 -171.072 
L 312.166612 -171.072 
L 311.849256 -171.072 
L 311.531901 -171.072 
L 311.214545 -171.072 
L 310.89719 -171.072 
L 310.579835 -171.072 
L 310.262479 -171.072 
L 309.945124 -171.072 
L 309.627769 -171.072 
L 309.310413 -171.072 
L 308.993058 -171.072 
L 308.675702 -171.072 
L 308.358347 -171.072 
L 308.040992 -171.072 
L 307.723636 -171.072 
L 307.406281 -171.072 
L 307.088926 -171.072 
L 306.77157 -171.072 
L 306.454215 -171.072 
L 306.13686 -171.072 
L 305.819504 -171.072 
L 305.502149 -171.072 
L 305.184793 -171.072 
L 304.867438 -171.072 
L 304.550083 -171.072 
L 304.232727 -171.072 
L 303.915372 -171.072 
L 303.598017 -171.072 
L 303.280661 -171.072 
L 302.963306 -171.072 
L 302.64595 -171.072 
L 302.328595 -171.072 
L 302.01124 -171.072 
L 301.693884 -171.072 
L 301.376529 -171.072 
L 301.059174 -171.072 
L 300.741818 -171.072 
L 300.424463 -171.072 
L 300.107107 -171.072 
L 299.789752 -171.072 
L 299.472397 -171.072 
L 299.155041 -171.072 
L 298.837686 -171.072 
L 298.520331 -171.072 
L 298.202975 -171.072 
L 297.88562 -171.072 
L 297.568264 -171.072 
L 297.250909 -171.072 
L 296.933554 -171.072 
L 296.616198 -171.072 
L 296.298843 -171.072 
L 295.981488 -171.072 
L 295.664132 -171.072 
L 295.346777 -171.072 
L 295.029421 -171.072 
L 294.712066 -171.072 
L 294.394711 -171.072 
L 294.077355 -171.072 
L 293.76 -171.072 
L 293.442645 -171.072 
L 293.125289 -171.072 
L 292.807934 -171.072 
L 292.490579 -171.072 
L 292.173223 -171.072 
L 291.855868 -171.072 
L 291.538512 -171.072 
L 291.221157 -171.072 
L 290.903802 -171.072 
L 290.586446 -171.072 
L 290.269091 -171.072 
L 289.951736 -171.072 
L 289.63438 -171.072 
L 289.317025 -171.072 
L 288.999669 -171.072 
L 288.682314 -171.072 
L 288.364959 -171.072 
L 288.047603 -171.072 
L 287.730248 -171.072 
L 287.412893 -171.072 
L 287.095537 -171.072 
L 286.778182 -171.072 
L 286.460826 -171.072 
L 286.143471 -171.072 
L 285.826116 -171.072 
L 285.50876 -171.072 
L 285.191405 -171.072 
L 284.87405 -171.072 
L 284.556694 -171.072 
L 284.239339 -171.072 
L 283.921983 -171.072 
L 283.604628 -171.072 
L 283.287273 -171.072 
L 282.969917 -171.072 
L 282.652562 -171.072 
L 282.335207 -171.072 
L 282.017851 -171.072 
L 281.700496 -171.072 
L 281.38314 -171.072 
L 281.065785 -171.072 
L 280.74843 -171.072 
L 280.431074 -171.072 
L 280.113719 -171.072 
L 279.796364 -171.072 
L 279.479008 -171.072 
L 279.161653 -171.072 
L 278.844298 -171.072 
L 278.526942 -171.072 
L 278.209587 -171.072 
L 277.892231 -171.072 
L 277.574876 -171.072 
L 277.257521 -171.072 
L 276.940165 -171.072 
L 276.62281 -171.072 
L 276.305455 -171.072 
L 275.988099 -171.072 
L 275.670744 -171.072 
L 275.353388 -171.072 
L 275.036033 -171.072 
L 274.718678 -171.072 
L 274.401322 -171.072 
L 274.083967 -171.072 
L 273.766612 -171.072 
L 273.449256 -171.072 
L 273.131901 -171.072 
L 272.814545 -171.072 
L 272.49719 -171.072 
L 272.179835 -171.072 
L 271.862479 -171.072 
L 271.545124 -171.072 
L 271.227769 -171.072 
L 270.910413 -171.072 
L 270.593058 -171.072 
L 270.275702 -171.072 
L 269.958347 -171.072 
L 269.640992 -171.072 
L 269.323636 -171.072 
L 269.006281 -171.072 
L 268.688926 -171.072 
L 268.37157 -171.072 
L 268.054215 -171.072 
L 267.73686 -171.072 
L 267.419504 -171.072 
L 267.102149 -171.072 
L 266.784793 -171.072 
L 266.467438 -171.072 
L 266.150083 -171.072 
L 265.832727 -171.072 
L 265.515372 -171.072 
L 265.198017 -171.072 
L 264.880661 -171.072 
L 264.563306 -171.072 
L 264.24595 -171.072 
L 263.928595 -171.072 
L 263.61124 -171.072 
L 263.293884 -171.072 
L 262.976529 -171.072 
L 262.659174 -171.072 
L 262.341818 -171.072 
L 262.024463 -171.072 
L 261.707107 -171.072 
L 261.389752 -171.072 
L 261.072397 -171.072 
L 260.755041 -171.072 
L 260.437686 -171.072 
L 260.120331 -171.072 
L 259.802975 -171.072 
L 259.48562 -171.072 
L 259.168264 -171.072 
L 258.850909 -171.072 
L 258.533554 -171.072 
L 258.216198 -171.072 
L 257.898843 -171.072 
L 257.581488 -171.072 
L 257.264132 -171.072 
L 256.946777 -171.072 
L 256.629421 -171.072 
L 256.312066 -171.072 
L 255.994711 -171.072 
L 255.677355 -171.072 
L 255.36 -171.072 
L 255.042645 -171.072 
L 254.725289 -171.072 
L 254.407934 -171.072 
L 254.090579 -171.072 
L 253.773223 -171.072 
L 253.455868 -171.072 
L 253.138512 -171.072 
L 252.821157 -171.072 
L 252.503802 -171.072 
L 252.186446 -171.072 
L 251.869091 -171.072 
L 251.551736 -171.072 
L 251.23438 -171.072 
L 250.917025 -171.072 
L 250.599669 -171.072 
L 250.282314 -171.072 
L 249.964959 -171.072 
L 249.647603 -171.072 
L 249.330248 -171.072 
L 249.012893 -171.072 
L 248.695537 -171.072 
L 248.378182 -171.072 
L 248.060826 -171.072 
L 247.743471 -171.072 
L 247.426116 -171.072 
L 247.10876 -171.072 
L 246.791405 -171.072 
L 246.47405 -171.072 
L 246.156694 -171.072 
L 245.839339 -171.072 
L 245.521983 -171.072 
L 245.204628 -171.072 
L 244.887273 -171.072 
L 244.569917 -171.072 
L 244.252562 -171.072 
L 243.935207 -171.072 
L 243.617851 -171.072 
L 243.300496 -171.072 
L 242.98314 -171.072 
L 242.665785 -171.072 
L 242.34843 -171.072 
L 242.031074 -171.072 
L 241.713719 -171.072 
L 241.396364 -171.072 
L 241.079008 -171.072 
L 240.761653 -171.072 
L 240.444298 -171.072 
L 240.126942 -171.072 
L 239.809587 -171.072 
L 239.492231 -171.072 
L 239.174876 -171.072 
L 238.857521 -171.072 
L 238.540165 -171.072 
L 238.22281 -171.072 
L 237.905455 -171.072 
L 237.588099 -171.072 
L 237.270744 -171.072 
L 236.953388 -171.072 
L 236.636033 -171.072 
L 236.318678 -171.072 
L 236.001322 -171.072 
L 235.683967 -171.072 
L 235.366612 -171.072 
L 235.049256 -171.072 
L 234.731901 -171.072 
L 234.414545 -171.072 
L 234.09719 -171.072 
L 233.779835 -171.072 
L 233.462479 -171.072 
L 233.145124 -171.072 
L 232.827769 -171.072 
L 232.510413 -171.072 
L 232.193058 -171.072 
L 231.875702 -171.072 
L 231.558347 -171.072 
L 231.240992 -171.072 
L 230.923636 -171.072 
L 230.606281 -171.072 
L 230.288926 -171.072 
L 229.97157 -171.072 
L 229.654215 -171.072 
L 229.33686 -171.072 
L 229.019504 -171.072 
L 228.702149 -171.072 
L 228.384793 -171.072 
L 228.067438 -171.072 
L 227.750083 -171.072 
L 227.432727 -171.072 
L 227.115372 -171.072 
L 226.798017 -171.072 
L 226.480661 -171.072 
L 226.163306 -171.072 
L 225.84595 -171.072 
L 225.528595 -171.072 
L 225.21124 -171.072 
L 224.893884 -171.072 
L 224.576529 -171.072 
L 224.259174 -171.072 
L 223.941818 -171.072 
L 223.624463 -171.072 
L 223.307107 -171.072 
L 222.989752 -171.072 
L 222.672397 -171.072 
L 222.355041 -171.072 
L 222.037686 -171.072 
L 221.720331 -171.072 
L 221.402975 -171.072 
L 221.08562 -171.072 
L 220.768264 -171.072 
L 220.450909 -171.072 
L 220.133554 -171.072 
L 219.816198 -171.072 
L 219.498843 -171.072 
L 219.181488 -171.072 
L 218.864132 -171.072 
L 218.546777 -171.072 
L 218.229421 -171.072 
L 217.912066 -171.072 
L 217.594711 -171.072 
L 217.277355 -171.072 
L 216.96 -171.072 
L 216.642645 -171.072 
L 216.325289 -171.072 
L 216.007934 -171.072 
L 215.690579 -171.072 
L 215.373223 -171.072 
L 215.055868 -171.072 
L 214.738512 -171.072 
L 214.421157 -171.072 
L 214.103802 -171.072 
L 213.786446 -171.072 
L 213.469091 -171.072 
L 213.151736 -171.072 
L 212.83438 -171.072 
L 212.517025 -171.072 
L 212.199669 -171.072 
L 211.882314 -171.072 
L 211.564959 -171.072 
L 211.247603 -171.072 
L 210.930248 -171.072 
L 210.612893 -171.072 
L 210.295537 -171.072 
L 209.978182 -171.072 
L 209.660826 -171.072 
L 209.343471 -171.072 
L 209.026116 -171.072 
L 208.70876 -171.072 
L 208.391405 -171.072 
L 208.07405 -171.072 
L 207.756694 -171.072 
L 207.439339 -171.072 
L 207.121983 -171.072 
L 206.804628 -171.072 
L 206.487273 -171.072 
L 206.169917 -171.072 
L 205.852562 -171.072 
L 205.535207 -171.072 
L 205.217851 -171.072 
L 204.900496 -171.072 
L 204.58314 -171.072 
L 204.265785 -171.072 
L 203.94843 -171.072 
L 203.631074 -171.072 
L 203.313719 -171.072 
L 202.996364 -171.072 
L 202.679008 -171.072 
L 202.361653 -171.072 
L 202.044298 -171.072 
L 201.726942 -171.072 
L 201.409587 -171.072 
L 201.092231 -171.072 
L 200.774876 -171.072 
L 200.457521 -171.072 
L 200.140165 -171.072 
L 199.82281 -171.072 
L 199.505455 -171.072 
L 199.188099 -171.072 
L 198.870744 -171.072 
L 198.553388 -171.072 
L 198.236033 -171.072 
L 197.918678 -171.072 
L 197.601322 -171.072 
L 197.283967 -171.072 
L 196.966612 -171.072 
L 196.649256 -171.072 
L 196.331901 -171.072 
L 196.014545 -171.072 
L 195.69719 -171.072 
L 195.379835 -171.072 
L 195.062479 -171.072 
L 194.745124 -171.072 
L 194.427769 -171.072 
L 194.110413 -171.072 
L 193.793058 -171.072 
L 193.475702 -171.072 
L 193.158347 -171.072 
L 192.840992 -171.072 
L 192.523636 -171.072 
L 192.206281 -171.072 
L 191.888926 -171.072 
L 191.57157 -171.072 
L 191.254215 -171.072 
L 190.93686 -171.072 
L 190.619504 -171.072 
L 190.302149 -171.072 
L 189.984793 -171.072 
L 189.667438 -171.072 
L 189.350083 -171.072 
L 189.032727 -171.072 
L 188.715372 -171.072 
L 188.398017 -171.072 
L 188.080661 -171.072 
L 187.763306 -171.072 
L 187.44595 -171.072 
L 187.128595 -171.072 
L 186.81124 -171.072 
L 186.493884 -171.072 
L 186.176529 -171.072 
L 185.859174 -171.072 
L 185.541818 -171.072 
L 185.224463 -171.072 
L 184.907107 -171.072 
L 184.589752 -171.072 
L 184.272397 -171.072 
L 183.955041 -171.072 
L 183.637686 -171.072 
L 183.320331 -171.072 
L 183.002975 -171.072 
L 182.68562 -171.072 
L 182.368264 -171.072 
L 182.050909 -171.072 
L 181.733554 -171.072 
L 181.416198 -171.072 
L 181.098843 -171.072 
L 180.781488 -171.072 
L 180.464132 -171.072 
L 180.146777 -171.072 
L 179.829421 -171.072 
L 179.512066 -171.072 
L 179.194711 -171.072 
L 178.877355 -171.072 
L 178.56 -171.072 
L 178.242645 -171.072 
L 177.925289 -171.072 
L 177.607934 -171.072 
L 177.290579 -171.072 
L 176.973223 -171.072 
L 176.655868 -171.072 
L 176.338512 -171.072 
L 176.021157 -171.072 
L 175.703802 -171.072 
L 175.386446 -171.072 
L 175.069091 -171.072 
L 174.751736 -171.072 
L 174.43438 -171.072 
L 174.117025 -171.072 
L 173.799669 -171.072 
L 173.482314 -171.072 
L 173.164959 -171.072 
L 172.847603 -171.072 
L 172.530248 -171.072 
L 172.212893 -171.072 
L 171.895537 -171.072 
L 171.578182 -171.072 
L 171.260826 -171.072 
L 170.943471 -171.072 
L 170.626116 -171.072 
L 170.30876 -171.072 
L 169.991405 -171.072 
L 169.67405 -171.072 
L 169.356694 -171.072 
L 169.039339 -171.072 
L 168.721983 -171.072 
L 168.404628 -171.072 
L 168.087273 -171.072 
L 167.769917 -171.072 
L 167.452562 -171.072 
L 167.135207 -171.072 
L 166.817851 -171.072 
L 166.500496 -171.072 
L 166.18314 -171.072 
L 165.865785 -171.072 
L 165.54843 -171.072 
L 165.231074 -171.072 
L 164.913719 -171.072 
L 164.596364 -171.072 
L 164.279008 -171.072 
L 163.961653 -171.072 
L 163.644298 -171.072 
L 163.326942 -171.072 
L 163.009587 -171.072 
L 162.692231 -171.072 
L 162.374876 -171.072 
L 162.057521 -171.072 
L 161.740165 -171.072 
L 161.42281 -171.072 
L 161.105455 -171.072 
L 160.788099 -171.072 
L 160.470744 -171.072 
L 160.153388 -171.072 
L 159.836033 -171.072 
L 159.518678 -171.072 
L 159.201322 -171.072 
L 158.883967 -171.072 
L 158.566612 -171.072 
L 158.249256 -171.072 
L 157.931901 -171.072 
L 157.614545 -171.072 
L 157.29719 -171.072 
L 156.979835 -171.072 
L 156.662479 -171.072 
L 156.345124 -171.072 
L 156.027769 -171.072 
L 155.710413 -171.072 
L 155.393058 -171.072 
L 155.075702 -171.072 
L 154.758347 -171.072 
L 154.440992 -171.072 
L 154.123636 -171.072 
L 153.806281 -171.072 
L 153.488926 -171.072 
L 153.17157 -171.072 
L 152.854215 -171.072 
L 152.53686 -171.072 
L 152.219504 -171.072 
L 151.902149 -171.072 
L 151.584793 -171.072 
L 151.267438 -171.072 
L 150.950083 -171.072 
L 150.632727 -171.072 
L 150.315372 -171.072 
L 149.998017 -171.072 
L 149.680661 -171.072 
L 149.363306 -171.072 
L 149.04595 -171.072 
L 148.728595 -171.072 
L 148.41124 -171.072 
L 148.093884 -171.072 
L 147.776529 -171.072 
L 147.459174 -171.072 
L 147.141818 -171.072 
L 146.824463 -171.072 
L 146.507107 -171.072 
L 146.189752 -171.072 
L 145.872397 -171.072 
L 145.555041 -171.072 
L 145.237686 -171.072 
L 144.920331 -171.072 
L 144.602975 -171.072 
L 144.28562 -171.072 
L 143.968264 -171.072 
L 143.650909 -171.072 
L 143.333554 -171.072 
L 143.016198 -171.072 
L 142.698843 -171.072 
L 142.381488 -171.072 
L 142.064132 -171.072 
L 141.746777 -171.072 
L 141.429421 -171.072 
L 141.112066 -171.072 
L 140.794711 -171.072 
L 140.477355 -171.072 
L 140.16 -171.072 
L 139.842645 -171.072 
L 139.525289 -171.072 
L 139.207934 -171.072 
L 138.890579 -171.072 
L 138.573223 -171.072 
L 138.255868 -171.072 
L 137.938512 -171.072 
L 137.621157 -171.072 
L 137.303802 -171.072 
L 136.986446 -171.072 
L 136.669091 -171.072 
L 136.351736 -171.072 
L 136.03438 -171.072 
L 135.717025 -171.072 
L 135.399669 -171.072 
L 135.082314 -171.072 
L 134.764959 -171.072 
L 134.447603 -171.072 
L 134.130248 -171.072 
L 133.812893 -171.072 
L 133.495537 -171.072 
L 133.178182 -171.072 
L 132.860826 -171.072 
L 132.543471 -171.072 
L 132.226116 -171.072 
L 131.90876 -171.072 
L 131.591405 -171.072 
L 131.27405 -171.072 
L 130.956694 -171.072 
L 130.639339 -171.072 
L 130.321983 -171.072 
L 130.004628 -171.072 
L 129.687273 -171.072 
L 129.369917 -171.072 
L 129.052562 -171.072 
L 128.735207 -171.072 
L 128.417851 -171.072 
L 128.100496 -171.072 
L 127.78314 -171.072 
L 127.465785 -171.072 
L 127.14843 -171.072 
L 126.831074 -171.072 
L 126.513719 -171.072 
L 126.196364 -171.072 
L 125.879008 -171.072 
L 125.561653 -171.072 
L 125.244298 -171.072 
L 124.926942 -171.072 
L 124.609587 -171.072 
L 124.292231 -171.072 
L 123.974876 -171.072 
L 123.657521 -171.072 
L 123.340165 -171.072 
L 123.02281 -171.072 
L 122.705455 -171.072 
L 122.388099 -171.072 
L 122.070744 -171.072 
L 121.753388 -171.072 
L 121.436033 -171.072 
L 121.118678 -171.072 
L 120.801322 -171.072 
L 120.483967 -171.072 
L 120.166612 -171.072 
L 119.849256 -171.072 
L 119.531901 -171.072 
L 119.214545 -171.072 
L 118.89719 -171.072 
L 118.579835 -171.072 
L 118.262479 -171.072 
L 117.945124 -171.072 
L 117.627769 -171.072 
L 117.310413 -171.072 
L 116.993058 -171.072 
L 116.675702 -171.072 
L 116.358347 -171.072 
L 116.040992 -171.072 
L 115.723636 -171.072 
L 115.406281 -171.072 
L 115.088926 -171.072 
L 114.77157 -171.072 
L 114.454215 -171.072 
L 114.13686 -171.072 
L 113.819504 -171.072 
L 113.502149 -171.072 
L 113.184793 -171.072 
L 112.867438 -171.072 
L 112.550083 -171.072 
L 112.232727 -171.072 
L 111.915372 -171.072 
L 111.598017 -171.072 
L 111.280661 -171.072 
L 110.963306 -171.072 
L 110.64595 -171.072 
L 110.328595 -171.072 
L 110.01124 -171.072 
L 109.693884 -171.072 
L 109.376529 -171.072 
L 109.059174 -171.072 
L 108.741818 -171.072 
L 108.424463 -171.072 
L 108.107107 -171.072 
L 107.789752 -171.072 
L 107.472397 -171.072 
L 107.155041 -171.072 
L 106.837686 -171.072 
L 106.520331 -171.072 
L 106.202975 -171.072 
L 105.88562 -171.072 
L 105.568264 -171.072 
L 105.250909 -171.072 
L 104.933554 -171.072 
L 104.616198 -171.072 
L 104.298843 -171.072 
L 103.981488 -171.072 
L 103.664132 -171.072 
L 103.346777 -171.072 
L 103.029421 -171.072 
L 102.712066 -171.072 
L 102.394711 -171.072 
L 102.077355 -171.072 
L 101.76 -171.072 
L 101.442645 -171.072 
L 101.125289 -171.072 
L 100.807934 -171.072 
L 100.490579 -171.072 
L 100.173223 -171.072 
L 99.855868 -171.072 
L 99.538512 -171.072 
L 99.221157 -171.072 
L 98.903802 -171.072 
L 98.586446 -171.072 
L 98.269091 -171.072 
L 97.951736 -171.072 
L 97.63438 -171.072 
L 97.317025 -171.072 
L 96.999669 -171.072 
L 96.682314 -171.072 
L 96.364959 -171.072 
L 96.047603 -171.072 
L 95.730248 -171.072 
L 95.412893 -171.072 
L 95.095537 -171.072 
L 94.778182 -171.072 
L 94.460826 -171.072 
L 94.143471 -171.072 
L 93.826116 -171.072 
L 93.50876 -171.072 
L 93.191405 -171.072 
L 92.87405 -171.072 
L 92.556694 -171.072 
L 92.239339 -171.072 
L 91.921983 -171.072 
L 91.604628 -171.072 
L 91.287273 -171.072 
L 90.969917 -171.072 
L 90.652562 -171.072 
L 90.335207 -171.072 
L 90.017851 -171.072 
L 89.700496 -171.072 
L 89.38314 -171.072 
L 89.065785 -171.072 
L 88.74843 -171.072 
L 88.431074 -171.072 
L 88.113719 -171.072 
L 87.796364 -171.072 
L 87.479008 -171.072 
L 87.161653 -171.072 
L 86.844298 -171.072 
L 86.526942 -171.072 
L 86.209587 -171.072 
L 85.892231 -171.072 
L 85.574876 -171.072 
L 85.257521 -171.072 
L 84.940165 -171.072 
L 84.62281 -171.072 
L 84.305455 -171.072 
L 83.988099 -171.072 
L 83.670744 -171.072 
L 83.353388 -171.072 
L 83.036033 -171.072 
L 82.718678 -171.072 
L 82.401322 -171.072 
L 82.083967 -171.072 
L 81.766612 -171.072 
L 81.449256 -171.072 
L 81.131901 -171.072 
L 80.814545 -171.072 
L 80.49719 -171.072 
L 80.179835 -171.072 
L 79.862479 -171.072 
L 79.545124 -171.072 
L 79.227769 -171.072 
L 78.910413 -171.072 
L 78.593058 -171.072 
L 78.275702 -171.072 
L 77.958347 -171.072 
L 77.640992 -171.072 
L 77.323636 -171.072 
L 77.006281 -171.072 
L 76.688926 -171.072 
L 76.37157 -171.072 
L 76.054215 -171.072 
L 75.73686 -171.072 
L 75.419504 -171.072 
L 75.102149 -171.072 
L 74.784793 -171.072 
L 74.467438 -171.072 
L 74.150083 -171.072 
L 73.832727 -171.072 
z
" style="stroke: #87ceeb; stroke-opacity: 0.75"/>
    </defs>
    <g clip-path="url(#p029c6ac7e2)">
     <use xlink:href="#mbf6320bb29" x="0" y="345.6" style="fill: #87ceeb; fill-opacity: 0.75; stroke: #87ceeb; stroke-opacity: 0.75"/>
    </g>
   </g>
   <g id="matplotlib.axis_1">
    <g id="xtick_1">
     <g id="line2d_1">
      <defs>
       <path id="mb168a0dc59" d="M 0 0 
L 0 3.5 
" style="stroke: #000000; stroke-width: 0.8"/>
      </defs>
      <g>
       <use xlink:href="#mb168a0dc59" x="73.832727" y="307.584" style="stroke: #000000; stroke-width: 0.8"/>
      </g>
     </g>
     <g id="text_1">
      <!-- 0 -->
      <g transform="translate(70.531868 322.161969) scale(0.11 -0.11)">
       <defs>
        <path id="AndaleMono-30" d="M 1913 4494 
Q 2613 4494 2989 3892 
Q 3366 3291 3366 2203 
Q 3366 1150 3000 533 
Q 2634 -84 1913 -84 
Q 1216 -84 837 516 
Q 459 1116 459 2203 
Q 459 3259 826 3876 
Q 1194 4494 1913 4494 
z
M 1913 366 
Q 2375 366 2598 805 
Q 2822 1244 2822 2203 
Q 2822 3166 2598 3602 
Q 2375 4038 1913 4038 
Q 1456 4038 1231 3591 
Q 1006 3144 1006 2203 
Q 1006 1250 1229 808 
Q 1453 366 1913 366 
z
M 1900 2672 
Q 2097 2672 2233 2536 
Q 2369 2400 2369 2203 
Q 2369 2000 2231 1854 
Q 2094 1709 1900 1709 
Q 1709 1709 1573 1854 
Q 1438 2000 1438 2203 
Q 1438 2403 1570 2537 
Q 1703 2672 1900 2672 
z
" transform="scale(0.015625)"/>
       </defs>
       <use xlink:href="#AndaleMono-30"/>
      </g>
     </g>
    </g>
    <g id="xtick_2">
     <g id="line2d_2">
      <g>
       <use xlink:href="#mb168a0dc59" x="137.303802" y="307.584" style="stroke: #000000; stroke-width: 0.8"/>
      </g>
     </g>
     <g id="text_2">
      <!-- 200 -->
      <g transform="translate(127.401224 322.161969) scale(0.11 -0.11)">
       <defs>
        <path id="AndaleMono-32" d="M 3066 0 
L 641 0 
L 641 372 
Q 1563 1400 1838 1750 
Q 2113 2100 2284 2484 
Q 2456 2869 2456 3250 
Q 2456 3619 2232 3831 
Q 2009 4044 1606 4044 
Q 1297 4044 775 3853 
L 703 4294 
Q 1175 4494 1691 4494 
Q 2281 4494 2642 4161 
Q 3003 3828 3003 3272 
Q 3003 2875 2817 2484 
Q 2631 2094 2340 1734 
Q 2050 1375 1209 447 
L 3066 447 
L 3066 0 
z
" transform="scale(0.015625)"/>
       </defs>
       <use xlink:href="#AndaleMono-32"/>
       <use xlink:href="#AndaleMono-30" x="60.009766"/>
       <use xlink:href="#AndaleMono-30" x="120.019531"/>
      </g>
     </g>
    </g>
    <g id="xtick_3">
     <g id="line2d_3">
      <g>
       <use xlink:href="#mb168a0dc59" x="200.774876" y="307.584" style="stroke: #000000; stroke-width: 0.8"/>
      </g>
     </g>
     <g id="text_3">
      <!-- 400 -->
      <g transform="translate(190.872298 322.161969) scale(0.11 -0.11)">
       <defs>
        <path id="AndaleMono-34" d="M 3353 1019 
L 2809 1019 
L 2809 0 
L 2297 0 
L 2297 1019 
L 378 1019 
L 378 1409 
L 2119 4409 
L 2809 4409 
L 2809 1466 
L 3353 1466 
L 3353 1019 
z
M 2297 1466 
L 2297 3903 
L 897 1466 
L 2297 1466 
z
" transform="scale(0.015625)"/>
       </defs>
       <use xlink:href="#AndaleMono-34"/>
       <use xlink:href="#AndaleMono-30" x="60.009766"/>
       <use xlink:href="#AndaleMono-30" x="120.019531"/>
      </g>
     </g>
    </g>
    <g id="xtick_4">
     <g id="line2d_4">
      <g>
       <use xlink:href="#mb168a0dc59" x="264.24595" y="307.584" style="stroke: #000000; stroke-width: 0.8"/>
      </g>
     </g>
     <g id="text_4">
      <!-- 600 -->
      <g transform="translate(254.343372 322.161969) scale(0.11 -0.11)">
       <defs>
        <path id="AndaleMono-36" d="M 1131 2297 
Q 1544 2631 2028 2631 
Q 2588 2631 2961 2273 
Q 3334 1916 3334 1350 
Q 3334 728 3003 322 
Q 2672 -84 2119 -84 
Q 1413 -84 1000 564 
Q 588 1213 588 2150 
Q 588 3150 1017 3822 
Q 1447 4494 2194 4494 
Q 2709 4494 3084 4341 
L 3003 3884 
Q 2569 4044 2209 4044 
Q 1700 4044 1415 3556 
Q 1131 3069 1131 2297 
z
M 1147 1856 
Q 1147 1291 1412 828 
Q 1678 366 2081 366 
Q 2422 366 2606 616 
Q 2791 866 2791 1306 
Q 2791 1713 2587 1947 
Q 2384 2181 2016 2181 
Q 1538 2181 1147 1856 
z
" transform="scale(0.015625)"/>
       </defs>
       <use xlink:href="#AndaleMono-36"/>
       <use xlink:href="#AndaleMono-30" x="60.009766"/>
       <use xlink:href="#AndaleMono-30" x="120.019531"/>
      </g>
     </g>
    </g>
    <g id="xtick_5">
     <g id="line2d_5">
      <g>
       <use xlink:href="#mb168a0dc59" x="327.717025" y="307.584" style="stroke: #000000; stroke-width: 0.8"/>
      </g>
     </g>
     <g id="text_5">
      <!-- 800 -->
      <g transform="translate(317.814447 322.161969) scale(0.11 -0.11)">
       <defs>
        <path id="AndaleMono-38" d="M 2363 2419 
Q 2813 2288 3061 1972 
Q 3309 1656 3309 1234 
Q 3309 628 2907 272 
Q 2506 -84 1919 -84 
Q 1303 -84 908 275 
Q 513 634 513 1228 
Q 513 1647 769 1965 
Q 1025 2284 1484 2419 
Q 1119 2513 898 2780 
Q 678 3047 678 3378 
Q 678 3803 1015 4148 
Q 1353 4494 1906 4494 
Q 2453 4494 2811 4150 
Q 3169 3806 3169 3378 
Q 3169 3056 2944 2786 
Q 2719 2516 2363 2419 
z
M 1906 2631 
Q 1922 2631 2056 2668 
Q 2191 2706 2286 2761 
Q 2381 2816 2462 2900 
Q 2544 2984 2594 3098 
Q 2644 3213 2644 3353 
Q 2644 3653 2428 3851 
Q 2213 4050 1906 4050 
Q 1609 4050 1396 3847 
Q 1184 3644 1184 3353 
Q 1184 3169 1261 3031 
Q 1338 2894 1452 2809 
Q 1566 2725 1714 2678 
Q 1863 2631 1906 2631 
z
M 1906 2194 
Q 1050 1944 1050 1253 
Q 1050 850 1309 608 
Q 1569 366 1919 366 
Q 2281 366 2529 605 
Q 2778 844 2778 1253 
Q 2778 1563 2606 1808 
Q 2434 2053 1906 2194 
z
" transform="scale(0.015625)"/>
       </defs>
       <use xlink:href="#AndaleMono-38"/>
       <use xlink:href="#AndaleMono-30" x="60.009766"/>
       <use xlink:href="#AndaleMono-30" x="120.019531"/>
      </g>
     </g>
    </g>
    <g id="xtick_6">
     <g id="line2d_6">
      <g>
       <use xlink:href="#mb168a0dc59" x="391.188099" y="307.584" style="stroke: #000000; stroke-width: 0.8"/>
      </g>
     </g>
     <g id="text_6">
      <!-- 1000 -->
      <g transform="translate(377.984662 322.161969) scale(0.11 -0.11)">
       <defs>
        <path id="AndaleMono-31" d="M 3181 0 
L 863 0 
L 863 447 
L 1797 447 
L 1797 3872 
L 916 3431 
L 916 3944 
L 1869 4434 
L 2309 4434 
L 2309 447 
L 3181 447 
L 3181 0 
z
" transform="scale(0.015625)"/>
       </defs>
       <use xlink:href="#AndaleMono-31"/>
       <use xlink:href="#AndaleMono-30" x="60.009766"/>
       <use xlink:href="#AndaleMono-30" x="120.019531"/>
       <use xlink:href="#AndaleMono-30" x="180.029297"/>
      </g>
     </g>
    </g>
   </g>
   <g id="matplotlib.axis_2">
    <g id="ytick_1">
     <g id="line2d_7">
      <defs>
       <path id="mecfc1a7501" d="M 0 0 
L -3.5 0 
" style="stroke: #000000; stroke-width: 0.8"/>
      </defs>
      <g>
       <use xlink:href="#mecfc1a7501" x="57.6" y="295.488" style="stroke: #000000; stroke-width: 0.8"/>
      </g>
     </g>
     <g id="text_7">
      <!-- 1.00 -->
      <g transform="translate(17.591406 299.276984) scale(0.11 -0.11)">
       <defs>
        <path id="AndaleMono-2212" d="M 3397 2047 
L 441 2047 
L 441 2456 
L 3397 2456 
L 3397 2047 
z
" transform="scale(0.015625)"/>
        <path id="AndaleMono-2e" d="M 1900 716 
Q 2066 716 2178 603 
Q 2291 491 2291 325 
Q 2291 156 2177 36 
Q 2063 -84 1900 -84 
Q 1741 -84 1628 36 
Q 1516 156 1516 325 
Q 1516 494 1627 605 
Q 1738 716 1900 716 
z
" transform="scale(0.015625)"/>
       </defs>
       <use xlink:href="#AndaleMono-2212"/>
       <use xlink:href="#AndaleMono-31" x="60.009766"/>
       <use xlink:href="#AndaleMono-2e" x="120.019531"/>
       <use xlink:href="#AndaleMono-30" x="180.029297"/>
       <use xlink:href="#AndaleMono-30" x="240.039062"/>
      </g>
     </g>
    </g>
    <g id="ytick_2">
     <g id="line2d_8">
      <g>
       <use xlink:href="#mecfc1a7501" x="57.6" y="265.248" style="stroke: #000000; stroke-width: 0.8"/>
      </g>
     </g>
     <g id="text_8">
      <!-- 0.75 -->
      <g transform="translate(17.591406 269.036984) scale(0.11 -0.11)">
       <defs>
        <path id="AndaleMono-37" d="M 3238 4044 
L 1491 0 
L 966 0 
L 2688 3963 
L 622 3963 
L 622 4409 
L 3238 4409 
L 3238 4044 
z
" transform="scale(0.015625)"/>
        <path id="AndaleMono-35" d="M 1356 2631 
Q 1569 2688 1772 2688 
Q 2397 2688 2759 2305 
Q 3122 1922 3122 1350 
Q 3122 750 2700 333 
Q 2278 -84 1672 -84 
Q 1094 -84 703 109 
L 806 544 
Q 1231 366 1684 366 
Q 2088 366 2336 625 
Q 2584 884 2584 1350 
Q 2584 1791 2350 2028 
Q 2116 2266 1747 2266 
Q 1478 2266 1216 2163 
L 909 2303 
L 909 4409 
L 2925 4409 
L 2925 3963 
L 1356 3963 
L 1356 2631 
z
" transform="scale(0.015625)"/>
       </defs>
       <use xlink:href="#AndaleMono-2212"/>
       <use xlink:href="#AndaleMono-30" x="60.009766"/>
       <use xlink:href="#AndaleMono-2e" x="120.019531"/>
       <use xlink:href="#AndaleMono-37" x="180.029297"/>
       <use xlink:href="#AndaleMono-35" x="240.039062"/>
      </g>
     </g>
    </g>
    <g id="ytick_3">
     <g id="line2d_9">
      <g>
       <use xlink:href="#mecfc1a7501" x="57.6" y="235.008" style="stroke: #000000; stroke-width: 0.8"/>
      </g>
     </g>
     <g id="text_9">
      <!-- 0.50 -->
      <g transform="translate(17.591406 238.796984) scale(0.11 -0.11)">
       <use xlink:href="#AndaleMono-2212"/>
       <use xlink:href="#AndaleMono-30" x="60.009766"/>
       <use xlink:href="#AndaleMono-2e" x="120.019531"/>
       <use xlink:href="#AndaleMono-35" x="180.029297"/>
       <use xlink:href="#AndaleMono-30" x="240.039062"/>
      </g>
     </g>
    </g>
    <g id="ytick_4">
     <g id="line2d_10">
      <g>
       <use xlink:href="#mecfc1a7501" x="57.6" y="204.768" style="stroke: #000000; stroke-width: 0.8"/>
      </g>
     </g>
     <g id="text_10">
      <!-- 0.25 -->
      <g transform="translate(17.591406 208.556984) scale(0.11 -0.11)">
       <use xlink:href="#AndaleMono-2212"/>
       <use xlink:href="#AndaleMono-30" x="60.009766"/>
       <use xlink:href="#AndaleMono-2e" x="120.019531"/>
       <use xlink:href="#AndaleMono-32" x="180.029297"/>
       <use xlink:href="#AndaleMono-35" x="240.039062"/>
      </g>
     </g>
    </g>
    <g id="ytick_5">
     <g id="line2d_11">
      <g>
       <use xlink:href="#mecfc1a7501" x="57.6" y="174.528" style="stroke: #000000; stroke-width: 0.8"/>
      </g>
     </g>
     <g id="text_11">
      <!-- 0.00 -->
      <g transform="translate(24.193125 178.316984) scale(0.11 -0.11)">
       <use xlink:href="#AndaleMono-30"/>
       <use xlink:href="#AndaleMono-2e" x="60.009766"/>
       <use xlink:href="#AndaleMono-30" x="120.019531"/>
       <use xlink:href="#AndaleMono-30" x="180.029297"/>
      </g>
     </g>
    </g>
    <g id="ytick_6">
     <g id="line2d_12">
      <g>
       <use xlink:href="#mecfc1a7501" x="57.6" y="144.288" style="stroke: #000000; stroke-width: 0.8"/>
      </g>
     </g>
     <g id="text_12">
      <!-- 0.25 -->
      <g transform="translate(24.193125 148.076984) scale(0.11 -0.11)">
       <use xlink:href="#AndaleMono-30"/>
       <use xlink:href="#AndaleMono-2e" x="60.009766"/>
       <use xlink:href="#AndaleMono-32" x="120.019531"/>
       <use xlink:href="#AndaleMono-35" x="180.029297"/>
      </g>
     </g>
    </g>
    <g id="ytick_7">
     <g id="line2d_13">
      <g>
       <use xlink:href="#mecfc1a7501" x="57.6" y="114.048" style="stroke: #000000; stroke-width: 0.8"/>
      </g>
     </g>
     <g id="text_13">
      <!-- 0.50 -->
      <g transform="translate(24.193125 117.836984) scale(0.11 -0.11)">
       <use xlink:href="#AndaleMono-30"/>
       <use xlink:href="#AndaleMono-2e" x="60.009766"/>
       <use xlink:href="#AndaleMono-35" x="120.019531"/>
       <use xlink:href="#AndaleMono-30" x="180.029297"/>
      </g>
     </g>
    </g>
    <g id="ytick_8">
     <g id="line2d_14">
      <g>
       <use xlink:href="#mecfc1a7501" x="57.6" y="83.808" style="stroke: #000000; stroke-width: 0.8"/>
      </g>
     </g>
     <g id="text_14">
      <!-- 0.75 -->
      <g transform="translate(24.193125 87.596984) scale(0.11 -0.11)">
       <use xlink:href="#AndaleMono-30"/>
       <use xlink:href="#AndaleMono-2e" x="60.009766"/>
       <use xlink:href="#AndaleMono-37" x="120.019531"/>
       <use xlink:href="#AndaleMono-35" x="180.029297"/>
      </g>
     </g>
    </g>
    <g id="ytick_9">
     <g id="line2d_15">
      <g>
       <use xlink:href="#mecfc1a7501" x="57.6" y="53.568" style="stroke: #000000; stroke-width: 0.8"/>
      </g>
     </g>
     <g id="text_15">
      <!-- 1.00 -->
      <g transform="translate(24.193125 57.356984) scale(0.11 -0.11)">
       <use xlink:href="#AndaleMono-31"/>
       <use xlink:href="#AndaleMono-2e" x="60.009766"/>
       <use xlink:href="#AndaleMono-30" x="120.019531"/>
       <use xlink:href="#AndaleMono-30" x="180.029297"/>
      </g>
     </g>
    </g>
   </g>
   <g id="line2d_16">
    <path d="M 73.832727 174.528 
L 74.150083 167.786335 
L 80.49719 163.340489 
L 83.988099 161.317188 
L 85.257521 161.048355 
L 87.161653 160.944268 
L 89.38314 161.067538 
L 91.604628 161.111945 
L 94.460826 160.919689 
L 96.999669 160.685484 
L 103.981488 160.43886 
L 109.376529 160.893527 
L 111.280661 161.253216 
L 116.993058 162.663831 
L 119.214545 162.648453 
L 120.483967 162.435951 
L 121.436033 162.044366 
L 123.340165 160.988582 
L 124.609587 160.039314 
L 126.196364 158.415417 
L 130.004628 154.296207 
L 131.90876 151.573013 
L 133.178182 149.456898 
L 134.447603 146.942133 
L 136.669091 142.464859 
L 137.621157 140.505159 
L 139.207934 136.684131 
L 141.112066 131.429087 
L 142.381488 127.292416 
L 148.093884 106.261618 
L 151.584793 91.295468 
L 153.488926 82.527114 
L 154.440992 79.016774 
L 156.027769 73.53041 
L 157.931901 66.343131 
L 160.153388 60.003085 
L 161.740165 55.819726 
L 162.374876 54.649364 
L 163.009587 54.014706 
L 163.644298 53.837258 
L 165.54843 53.765575 
L 166.500496 53.568 
L 167.135207 53.90824 
L 168.087273 54.897523 
L 170.30876 57.728507 
L 170.943471 58.782081 
L 171.578182 60.171519 
L 172.530248 62.920028 
L 174.43438 68.673839 
L 176.655868 74.52474 
L 179.194711 82.682328 
L 180.781488 87.668556 
L 182.368264 93.578377 
L 183.637686 97.92629 
L 185.224463 102.244315 
L 186.493884 105.954396 
L 188.398017 111.599593 
L 191.254215 120.089774 
L 193.158347 125.708758 
L 200.140165 144.237959 
L 202.361653 149.681361 
L 203.94843 152.838823 
L 207.439339 159.134595 
L 209.660826 162.241056 
L 211.564959 164.709253 
L 212.83438 165.976462 
L 214.738512 167.443894 
L 216.642645 168.700647 
L 218.864132 169.710721 
L 222.037686 171.060797 
L 227.432727 172.680659 
L 231.240992 173.616316 
L 233.779835 174.078374 
L 240.444298 175.304334 
L 243.935207 176.121449 
L 247.10876 177.050825 
L 252.186446 178.761554 
L 256.312066 180.727445 
L 258.533554 182.314538 
L 260.120331 183.666908 
L 261.389752 185.12299 
L 264.24595 188.999113 
L 265.515372 190.923683 
L 267.102149 193.839921 
L 269.958347 199.374639 
L 271.227769 202.378824 
L 276.305455 215.576202 
L 278.844298 222.491055 
L 280.431074 226.995734 
L 284.239339 238.361581 
L 289.317025 253.165371 
L 293.125289 266.373672 
L 294.712066 271.279761 
L 296.298843 276.465133 
L 299.472397 285.1377 
L 300.741818 288.884481 
L 301.376529 290.273919 
L 302.328595 291.775967 
L 304.550083 294.527727 
L 305.502149 295.369029 
L 305.819504 295.488 
L 306.454215 295.391584 
L 307.406281 295.171043 
L 309.310413 295.041294 
L 309.945124 294.406636 
L 310.579835 293.236274 
L 311.531901 290.832976 
L 314.705455 281.689004 
L 315.974876 276.765013 
L 317.244298 272.138398 
L 318.513719 267.785051 
L 319.78314 262.31736 
L 322.639339 249.308181 
L 326.447603 234.180636 
L 328.351736 227.676984 
L 330.890579 218.581502 
L 332.477355 214.042944 
L 334.381488 209.278617 
L 335.650909 206.591141 
L 337.555041 202.790026 
L 339.141818 199.599102 
L 340.41124 197.482987 
L 342.315372 194.759793 
L 343.902149 192.81855 
L 348.027769 188.740714 
L 349.29719 187.873049 
L 351.201322 186.864988 
L 352.153388 186.537156 
L 353.42281 186.402586 
L 355.326942 186.392169 
L 356.596364 186.58065 
L 362.30876 188.074381 
L 364.530248 188.285823 
L 368.655868 188.636272 
L 370.242645 188.603997 
L 371.829421 188.556621 
L 374.368264 188.423984 
L 378.176529 188.098149 
L 380.715372 187.94312 
L 382.93686 188.000403 
L 386.110413 188.158179 
L 387.69719 188.010782 
L 388.649256 187.787141 
L 394.679008 184.079716 
L 398.169917 181.506711 
L 398.487273 174.528 
L 398.487273 174.528 
" clip-path="url(#p029c6ac7e2)" style="fill: none; stroke: #87ceeb; stroke-opacity: 0.75; stroke-linecap: square"/>
   </g>
   <g id="patch_3">
    <path d="M 57.6 307.584 
L 57.6 41.472 
" style="fill: none; stroke: #000000; stroke-width: 0.8; stroke-linejoin: miter; stroke-linecap: square"/>
   </g>
   <g id="patch_4">
    <path d="M 414.72 307.584 
L 414.72 41.472 
" style="fill: none; stroke: #000000; stroke-width: 0.8; stroke-linejoin: miter; stroke-linecap: square"/>
   </g>
   <g id="patch_5">
    <path d="M 57.6 307.584 
L 414.72 307.584 
" style="fill: none; stroke: #000000; stroke-width: 0.8; stroke-linejoin: miter; stroke-linecap: square"/>
   </g>
   <g id="patch_6">
    <path d="M 57.6 41.472 
L 414.72 41.472 
" style="fill: none; stroke: #000000; stroke-width: 0.8; stroke-linejoin: miter; stroke-linecap: square"/>
   </g>
  </g>
 </g>
 <defs>
  <clipPath id="p029c6ac7e2">
   <rect x="57.6" y="41.472" width="357.12" height="266.112"/>
  </clipPath>
 </defs>
</svg>
