<?xml version="1.0" encoding="utf-8" standalone="no"?>
<!DOCTYPE svg PUBLIC "-//W3C//DTD SVG 1.1//EN"
  "http://www.w3.org/Graphics/SVG/1.1/DTD/svg11.dtd">
<svg xmlns:xlink="http://www.w3.org/1999/xlink" width="460.8pt" height="345.6pt" viewBox="0 0 460.8 345.6" xmlns="http://www.w3.org/2000/svg" version="1.1">
 <metadata>
  <rdf:RDF xmlns:dc="http://purl.org/dc/elements/1.1/" xmlns:cc="http://creativecommons.org/ns#" xmlns:rdf="http://www.w3.org/1999/02/22-rdf-syntax-ns#">
   <cc:Work>
    <dc:type rdf:resource="http://purl.org/dc/dcmitype/StillImage"/>
    <dc:date>2024-04-23T11:13:07.595045</dc:date>
    <dc:format>image/svg+xml</dc:format>
    <dc:creator>
     <cc:Agent>
      <dc:title>Matplotlib v3.8.3, https://matplotlib.org/</dc:title>
     </cc:Agent>
    </dc:creator>
   </cc:Work>
  </rdf:RDF>
 </metadata>
 <defs>
  <style type="text/css">*{stroke-linejoin: round; stroke-linecap: butt}</style>
 </defs>
 <g id="figure_1">
  <g id="patch_1">
   <path d="M 0 345.6 
L 460.8 345.6 
L 460.8 0 
L 0 0 
z
" style="fill: #ffffff"/>
  </g>
  <g id="axes_1">
   <g id="patch_2">
    <path d="M 57.6 307.584 
L 414.72 307.584 
L 414.72 41.472 
L 57.6 41.472 
z
" style="fill: #ffffff"/>
   </g>
   <g id="PolyCollection_1">
    <defs>
     <path id="mcd691c4426" d="M 73.832727 -171.072 
L 73.832727 -171.072 
L 74.150083 -175.445297 
L 74.467438 -175.587258 
L 74.784793 -175.740197 
L 75.102149 -175.91394 
L 75.419504 -176.113264 
L 75.73686 -176.305549 
L 76.054215 -176.466539 
L 76.37157 -176.603283 
L 76.688926 -176.7667 
L 77.006281 -176.941989 
L 77.323636 -177.115318 
L 77.640992 -177.304155 
L 77.958347 -177.525844 
L 78.275702 -177.784406 
L 78.593058 -178.095286 
L 78.910413 -178.452168 
L 79.227769 -178.801211 
L 79.545124 -179.141376 
L 79.862479 -179.512672 
L 80.179835 -179.962199 
L 80.49719 -180.441355 
L 80.814545 -180.968704 
L 81.131901 -181.554794 
L 81.449256 -182.204657 
L 81.766612 -182.902031 
L 82.083967 -183.674442 
L 82.401322 -184.52452 
L 82.718678 -185.418059 
L 83.036033 -186.346556 
L 83.353388 -187.299415 
L 83.670744 -188.304804 
L 83.988099 -189.404985 
L 84.305455 -190.538474 
L 84.62281 -191.691135 
L 84.940165 -192.890116 
L 85.257521 -194.139351 
L 85.574876 -195.424481 
L 85.892231 -196.756898 
L 86.209587 -198.15654 
L 86.526942 -199.580582 
L 86.844298 -201.010893 
L 87.161653 -202.442932 
L 87.479008 -203.904526 
L 87.796364 -205.426618 
L 88.113719 -206.969881 
L 88.431074 -208.525743 
L 88.74843 -210.13123 
L 89.065785 -211.77803 
L 89.38314 -213.455852 
L 89.700496 -215.167114 
L 90.017851 -216.930227 
L 90.335207 -218.689447 
L 90.652562 -220.439417 
L 90.969917 -222.182094 
L 91.287273 -223.939478 
L 91.604628 -225.746781 
L 91.921983 -227.544726 
L 92.239339 -229.323705 
L 92.556694 -231.109916 
L 92.87405 -232.914181 
L 93.191405 -234.730472 
L 93.50876 -236.558166 
L 93.826116 -238.392327 
L 94.143471 -240.207827 
L 94.460826 -242.00926 
L 94.778182 -243.75206 
L 95.095537 -245.463389 
L 95.412893 -247.165119 
L 95.730248 -248.780315 
L 96.047603 -250.364516 
L 96.364959 -252.011585 
L 96.682314 -253.716325 
L 96.999669 -255.38536 
L 97.317025 -257.049308 
L 97.63438 -258.763193 
L 97.951736 -260.453826 
L 98.269091 -262.07814 
L 98.586446 -263.618347 
L 98.903802 -265.067069 
L 99.221157 -266.488631 
L 99.538512 -267.942241 
L 99.855868 -269.438335 
L 100.173223 -270.93663 
L 100.490579 -272.341943 
L 100.807934 -273.743986 
L 101.125289 -275.110687 
L 101.442645 -276.452439 
L 101.76 -277.709044 
L 102.077355 -278.90502 
L 102.394711 -279.978608 
L 102.712066 -280.927283 
L 103.029421 -281.869775 
L 103.346777 -282.797598 
L 103.664132 -283.730593 
L 103.981488 -284.634175 
L 104.298843 -285.43187 
L 104.616198 -286.215545 
L 104.933554 -286.982335 
L 105.250909 -287.713767 
L 105.568264 -288.356548 
L 105.88562 -288.925363 
L 106.202975 -289.390004 
L 106.520331 -289.718838 
L 106.837686 -290.040541 
L 107.155041 -290.362699 
L 107.472397 -290.688442 
L 107.789752 -290.98929 
L 108.107107 -291.217086 
L 108.424463 -291.440137 
L 108.741818 -291.66479 
L 109.059174 -291.850934 
L 109.376529 -291.971332 
L 109.693884 -292.032 
L 110.01124 -292.023224 
L 110.328595 -291.896174 
L 110.64595 -291.7884 
L 110.963306 -291.710642 
L 111.280661 -291.645747 
L 111.598017 -291.561438 
L 111.915372 -291.41055 
L 112.232727 -291.290126 
L 112.550083 -291.205057 
L 112.867438 -291.124517 
L 113.184793 -291.02213 
L 113.502149 -290.882504 
L 113.819504 -290.693605 
L 114.13686 -290.427205 
L 114.454215 -290.179335 
L 114.77157 -289.980301 
L 115.088926 -289.837292 
L 115.406281 -289.710069 
L 115.723636 -289.536801 
L 116.040992 -289.453041 
L 116.358347 -289.435158 
L 116.675702 -289.394677 
L 116.993058 -289.322783 
L 117.310413 -289.235357 
L 117.627769 -289.10348 
L 117.945124 -288.862658 
L 118.262479 -288.62316 
L 118.579835 -288.456748 
L 118.89719 -288.353236 
L 119.214545 -288.294489 
L 119.531901 -288.190731 
L 119.849256 -288.093717 
L 120.166612 -287.995762 
L 120.483967 -287.879877 
L 120.801322 -287.788877 
L 121.118678 -287.651062 
L 121.436033 -287.486761 
L 121.753388 -287.229863 
L 122.070744 -286.977331 
L 122.388099 -286.768874 
L 122.705455 -286.641883 
L 123.02281 -286.564893 
L 123.340165 -286.423014 
L 123.657521 -286.277452 
L 123.974876 -286.127651 
L 124.292231 -285.95831 
L 124.609587 -285.80708 
L 124.926942 -285.616681 
L 125.244298 -285.374006 
L 125.561653 -285.028792 
L 125.879008 -284.676509 
L 126.196364 -284.381251 
L 126.513719 -284.148745 
L 126.831074 -283.973303 
L 127.14843 -283.741633 
L 127.465785 -283.508755 
L 127.78314 -283.295199 
L 128.100496 -283.074984 
L 128.417851 -282.871128 
L 128.735207 -282.621868 
L 129.052562 -282.328228 
L 129.369917 -281.958922 
L 129.687273 -281.582744 
L 130.004628 -281.243021 
L 130.321983 -280.95473 
L 130.639339 -280.730975 
L 130.956694 -280.458618 
L 131.27405 -280.165087 
L 131.591405 -279.903252 
L 131.90876 -279.667541 
L 132.226116 -279.455749 
L 132.543471 -279.215936 
L 132.860826 -278.934152 
L 133.178182 -278.596136 
L 133.495537 -278.221009 
L 133.812893 -277.867661 
L 134.130248 -277.584222 
L 134.447603 -277.381668 
L 134.764959 -277.160476 
L 135.082314 -276.892773 
L 135.399669 -276.661953 
L 135.717025 -276.455366 
L 136.03438 -276.292975 
L 136.351736 -276.098157 
L 136.669091 -275.853798 
L 136.986446 -275.55691 
L 137.303802 -275.218821 
L 137.621157 -274.907397 
L 137.938512 -274.679105 
L 138.255868 -274.514534 
L 138.573223 -274.348045 
L 138.890579 -274.122082 
L 139.207934 -273.91942 
L 139.525289 -273.743742 
L 139.842645 -273.605416 
L 140.16 -273.437598 
L 140.477355 -273.221324 
L 140.794711 -272.958019 
L 141.112066 -272.647208 
L 141.429421 -272.354789 
L 141.746777 -272.096214 
L 142.064132 -271.90183 
L 142.381488 -271.721867 
L 142.698843 -271.482184 
L 143.016198 -271.20777 
L 143.333554 -270.96465 
L 143.650909 -270.771186 
L 143.968264 -270.565624 
L 144.28562 -270.302517 
L 144.602975 -269.989903 
L 144.920331 -269.608002 
L 145.237686 -269.24523 
L 145.555041 -268.919824 
L 145.872397 -268.668879 
L 146.189752 -268.463588 
L 146.507107 -268.202867 
L 146.824463 -267.930847 
L 147.141818 -267.68974 
L 147.459174 -267.510637 
L 147.776529 -267.302153 
L 148.093884 -267.035673 
L 148.41124 -266.749819 
L 148.728595 -266.407713 
L 149.04595 -266.081328 
L 149.363306 -265.813785 
L 149.680661 -265.608081 
L 149.998017 -265.425844 
L 150.315372 -265.226265 
L 150.632727 -265.012179 
L 150.950083 -264.835983 
L 151.267438 -264.732414 
L 151.584793 -264.628741 
L 151.902149 -264.45092 
L 152.219504 -264.218404 
L 152.53686 -263.950282 
L 152.854215 -263.692263 
L 153.17157 -263.460397 
L 153.488926 -263.276168 
L 153.806281 -263.152311 
L 154.123636 -263.042803 
L 154.440992 -262.874741 
L 154.758347 -262.726346 
L 155.075702 -262.63215 
L 155.393058 -262.546658 
L 155.710413 -262.381063 
L 156.027769 -262.162904 
L 156.345124 -261.915189 
L 156.662479 -261.68019 
L 156.979835 -261.461409 
L 157.29719 -261.290984 
L 157.614545 -261.185538 
L 157.931901 -261.096241 
L 158.249256 -260.94622 
L 158.566612 -260.830317 
L 158.883967 -260.760825 
L 159.201322 -260.714245 
L 159.518678 -260.615026 
L 159.836033 -260.48197 
L 160.153388 -260.332475 
L 160.470744 -260.164824 
L 160.788099 -260.038224 
L 161.105455 -259.945364 
L 161.42281 -259.885243 
L 161.740165 -259.828968 
L 162.057521 -259.735866 
L 162.374876 -259.64476 
L 162.692231 -259.590377 
L 163.009587 -259.569035 
L 163.326942 -259.513356 
L 163.644298 -259.383374 
L 163.961653 -259.205152 
L 164.279008 -259.000999 
L 164.596364 -258.811195 
L 164.913719 -258.679541 
L 165.231074 -258.626822 
L 165.54843 -258.551304 
L 165.865785 -258.474051 
L 166.18314 -258.433514 
L 166.500496 -258.368647 
L 166.817851 -258.29129 
L 167.135207 -258.176018 
L 167.452562 -258.020625 
L 167.769917 -257.827654 
L 168.087273 -257.635056 
L 168.404628 -257.46119 
L 168.721983 -257.297927 
L 169.039339 -257.185886 
L 169.356694 -257.092391 
L 169.67405 -256.951742 
L 169.991405 -256.820424 
L 170.30876 -256.69908 
L 170.626116 -256.567214 
L 170.943471 -256.403922 
L 171.260826 -256.186498 
L 171.578182 -255.923145 
L 171.895537 -255.63637 
L 172.212893 -255.397221 
L 172.530248 -255.220429 
L 172.847603 -255.086529 
L 173.164959 -254.937684 
L 173.482314 -254.815736 
L 173.799669 -254.712741 
L 174.117025 -254.58361 
L 174.43438 -254.436142 
L 174.751736 -254.30294 
L 175.069091 -254.125375 
L 175.386446 -253.915871 
L 175.703802 -253.725355 
L 176.021157 -253.587077 
L 176.338512 -253.517312 
L 176.655868 -253.49004 
L 176.973223 -253.441479 
L 177.290579 -253.434874 
L 177.607934 -253.468064 
L 177.925289 -253.483806 
L 178.242645 -253.476517 
L 178.56 -253.473326 
L 178.877355 -253.418614 
L 179.194711 -253.340457 
L 179.512066 -253.272153 
L 179.829421 -253.215519 
L 180.146777 -253.159621 
L 180.464132 -253.110553 
L 180.781488 -253.079194 
L 181.098843 -253.004924 
L 181.416198 -252.946816 
L 181.733554 -252.892207 
L 182.050909 -252.82309 
L 182.368264 -252.741846 
L 182.68562 -252.625903 
L 183.002975 -252.457239 
L 183.320331 -252.268374 
L 183.637686 -252.11133 
L 183.955041 -252.003001 
L 184.272397 -251.91109 
L 184.589752 -251.82039 
L 184.907107 -251.764076 
L 185.224463 -251.712639 
L 185.541818 -251.633589 
L 185.859174 -251.544962 
L 186.176529 -251.416405 
L 186.493884 -251.214028 
L 186.81124 -251.031321 
L 187.128595 -250.89319 
L 187.44595 -250.793413 
L 187.763306 -250.698524 
L 188.080661 -250.575001 
L 188.398017 -250.47336 
L 188.715372 -250.406064 
L 189.032727 -250.343573 
L 189.350083 -250.257515 
L 189.667438 -250.136249 
L 189.984793 -250.003198 
L 190.302149 -249.861235 
L 190.619504 -249.721921 
L 190.93686 -249.611321 
L 191.254215 -249.545652 
L 191.57157 -249.500034 
L 191.888926 -249.451227 
L 192.206281 -249.450139 
L 192.523636 -249.45975 
L 192.840992 -249.432961 
L 193.158347 -249.374972 
L 193.475702 -249.314333 
L 193.793058 -249.215574 
L 194.110413 -249.097346 
L 194.427769 -248.984 
L 194.745124 -248.87578 
L 195.062479 -248.790213 
L 195.379835 -248.726954 
L 195.69719 -248.642673 
L 196.014545 -248.567123 
L 196.331901 -248.484295 
L 196.649256 -248.357609 
L 196.966612 -248.192854 
L 197.283967 -248.031628 
L 197.601322 -247.825302 
L 197.918678 -247.552749 
L 198.236033 -247.261108 
L 198.553388 -246.969756 
L 198.870744 -246.692438 
L 199.188099 -246.431256 
L 199.505455 -246.137831 
L 199.82281 -245.830323 
L 200.140165 -245.524719 
L 200.457521 -245.204378 
L 200.774876 -244.867805 
L 201.092231 -244.516626 
L 201.409587 -244.178333 
L 201.726942 -243.787542 
L 202.044298 -243.383669 
L 202.361653 -242.989141 
L 202.679008 -242.625486 
L 202.996364 -242.293472 
L 203.313719 -241.96308 
L 203.631074 -241.638732 
L 203.94843 -241.313707 
L 204.265785 -240.968147 
L 204.58314 -240.617888 
L 204.900496 -240.278638 
L 205.217851 -239.906383 
L 205.535207 -239.486841 
L 205.852562 -239.067537 
L 206.169917 -238.672179 
L 206.487273 -238.314162 
L 206.804628 -237.983051 
L 207.121983 -237.612723 
L 207.439339 -237.222632 
L 207.756694 -236.82082 
L 208.07405 -236.413301 
L 208.391405 -236.03074 
L 208.70876 -235.628596 
L 209.026116 -235.164427 
L 209.343471 -234.680699 
L 209.660826 -234.216781 
L 209.978182 -233.781071 
L 210.295537 -233.370452 
L 210.612893 -232.932731 
L 210.930248 -232.468663 
L 211.247603 -231.987394 
L 211.564959 -231.485551 
L 211.882314 -230.97163 
L 212.199669 -230.450825 
L 212.517025 -229.878778 
L 212.83438 -229.25718 
L 213.151736 -228.632783 
L 213.469091 -228.023131 
L 213.786446 -227.42993 
L 214.103802 -226.831122 
L 214.421157 -226.197414 
L 214.738512 -225.552951 
L 215.055868 -224.903444 
L 215.373223 -224.236684 
L 215.690579 -223.551002 
L 216.007934 -222.861841 
L 216.325289 -222.122015 
L 216.642645 -221.358618 
L 216.96 -220.596283 
L 217.277355 -219.846903 
L 217.594711 -219.096621 
L 217.912066 -218.331412 
L 218.229421 -217.564867 
L 218.546777 -216.794949 
L 218.864132 -216.021669 
L 219.181488 -215.237308 
L 219.498843 -214.43942 
L 219.816198 -213.636248 
L 220.133554 -212.806313 
L 220.450909 -211.964195 
L 220.768264 -211.132545 
L 221.08562 -210.311051 
L 221.402975 -209.495702 
L 221.720331 -208.655912 
L 222.037686 -207.834849 
L 222.355041 -207.020871 
L 222.672397 -206.203957 
L 222.989752 -205.381289 
L 223.307107 -204.538609 
L 223.624463 -203.688067 
L 223.941818 -202.83309 
L 224.259174 -201.978074 
L 224.576529 -201.135845 
L 224.893884 -200.305179 
L 225.21124 -199.465078 
L 225.528595 -198.622303 
L 225.84595 -197.798685 
L 226.163306 -196.985013 
L 226.480661 -196.172395 
L 226.798017 -195.343838 
L 227.115372 -194.503566 
L 227.432727 -193.670437 
L 227.750083 -192.842477 
L 228.067438 -192.01762 
L 228.384793 -191.197801 
L 228.702149 -190.370796 
L 229.019504 -189.530559 
L 229.33686 -188.708745 
L 229.654215 -187.901943 
L 229.97157 -187.088149 
L 230.288926 -186.264408 
L 230.606281 -185.426878 
L 230.923636 -184.587022 
L 231.240992 -183.759638 
L 231.558347 -182.93551 
L 231.875702 -182.112579 
L 232.193058 -181.287983 
L 232.510413 -180.45302 
L 232.827769 -179.624034 
L 233.145124 -178.812871 
L 233.462479 -178.005649 
L 233.779835 -177.194676 
L 234.09719 -176.369818 
L 234.414545 -175.540534 
L 234.731901 -174.722135 
L 235.049256 -173.90847 
L 235.366612 -173.101068 
L 235.683967 -172.294584 
L 236.001322 -171.483808 
L 236.318678 -170.660192 
L 236.636033 -169.849416 
L 236.953388 -169.042932 
L 237.270744 -168.23553 
L 237.588099 -167.421865 
L 237.905455 -166.603466 
L 238.22281 -165.774182 
L 238.540165 -164.949324 
L 238.857521 -164.138351 
L 239.174876 -163.331129 
L 239.492231 -162.519966 
L 239.809587 -161.69098 
L 240.126942 -160.856017 
L 240.444298 -160.031421 
L 240.761653 -159.20849 
L 241.079008 -158.384362 
L 241.396364 -157.556978 
L 241.713719 -156.717122 
L 242.031074 -155.879592 
L 242.34843 -155.055851 
L 242.665785 -154.242057 
L 242.98314 -153.435255 
L 243.300496 -152.613441 
L 243.617851 -151.773204 
L 243.935207 -150.946199 
L 244.252562 -150.12638 
L 244.569917 -149.301523 
L 244.887273 -148.473563 
L 245.204628 -147.640434 
L 245.521983 -146.800162 
L 245.839339 -145.971605 
L 246.156694 -145.158987 
L 246.47405 -144.345315 
L 246.791405 -143.521697 
L 247.10876 -142.678922 
L 247.426116 -141.838821 
L 247.743471 -141.008155 
L 248.060826 -140.165926 
L 248.378182 -139.31091 
L 248.695537 -138.455933 
L 249.012893 -137.605391 
L 249.330248 -136.762711 
L 249.647603 -135.940043 
L 249.964959 -135.123129 
L 250.282314 -134.309151 
L 250.599669 -133.488088 
L 250.917025 -132.648298 
L 251.23438 -131.832949 
L 251.551736 -131.011455 
L 251.869091 -130.179805 
L 252.186446 -129.337687 
L 252.503802 -128.507752 
L 252.821157 -127.70458 
L 253.138512 -126.906692 
L 253.455868 -126.122331 
L 253.773223 -125.349051 
L 254.090579 -124.579133 
L 254.407934 -123.812588 
L 254.725289 -123.047379 
L 255.042645 -122.297097 
L 255.36 -121.547717 
L 255.677355 -120.785382 
L 255.994711 -120.021985 
L 256.312066 -119.282159 
L 256.629421 -118.592998 
L 256.946777 -117.907316 
L 257.264132 -117.240556 
L 257.581488 -116.591049 
L 257.898843 -115.946586 
L 258.216198 -115.312878 
L 258.533554 -114.71407 
L 258.850909 -114.120869 
L 259.168264 -113.511217 
L 259.48562 -112.88682 
L 259.802975 -112.265222 
L 260.120331 -111.693175 
L 260.437686 -111.17237 
L 260.755041 -110.658449 
L 261.072397 -110.156606 
L 261.389752 -109.675337 
L 261.707107 -109.211269 
L 262.024463 -108.773548 
L 262.341818 -108.362929 
L 262.659174 -107.927219 
L 262.976529 -107.463301 
L 263.293884 -106.979573 
L 263.61124 -106.515404 
L 263.928595 -106.11326 
L 264.24595 -105.730699 
L 264.563306 -105.32318 
L 264.880661 -104.921368 
L 265.198017 -104.531277 
L 265.515372 -104.160949 
L 265.832727 -103.829838 
L 266.150083 -103.471821 
L 266.467438 -103.076463 
L 266.784793 -102.657159 
L 267.102149 -102.237617 
L 267.419504 -101.865362 
L 267.73686 -101.526112 
L 268.054215 -101.175853 
L 268.37157 -100.830293 
L 268.688926 -100.505268 
L 269.006281 -100.18092 
L 269.323636 -99.850528 
L 269.640992 -99.518514 
L 269.958347 -99.154859 
L 270.275702 -98.760331 
L 270.593058 -98.356458 
L 270.910413 -97.965667 
L 271.227769 -97.627374 
L 271.545124 -97.276195 
L 271.862479 -96.939622 
L 272.179835 -96.619281 
L 272.49719 -96.313677 
L 272.814545 -96.006169 
L 273.131901 -95.712744 
L 273.449256 -95.451562 
L 273.766612 -95.174244 
L 274.083967 -94.882892 
L 274.401322 -94.591251 
L 274.718678 -94.318698 
L 275.036033 -94.112372 
L 275.353388 -93.951146 
L 275.670744 -93.786391 
L 275.988099 -93.659705 
L 276.305455 -93.576877 
L 276.62281 -93.501327 
L 276.940165 -93.417046 
L 277.257521 -93.353787 
L 277.574876 -93.26822 
L 277.892231 -93.16 
L 278.209587 -93.046654 
L 278.526942 -92.928426 
L 278.844298 -92.829667 
L 279.161653 -92.769028 
L 279.479008 -92.711039 
L 279.796364 -92.68425 
L 280.113719 -92.693861 
L 280.431074 -92.692773 
L 280.74843 -92.643966 
L 281.065785 -92.598348 
L 281.38314 -92.532679 
L 281.700496 -92.422079 
L 282.017851 -92.282765 
L 282.335207 -92.140802 
L 282.652562 -92.007751 
L 282.969917 -91.886485 
L 283.287273 -91.800427 
L 283.604628 -91.737936 
L 283.921983 -91.67064 
L 284.239339 -91.568999 
L 284.556694 -91.445476 
L 284.87405 -91.350587 
L 285.191405 -91.25081 
L 285.50876 -91.112679 
L 285.826116 -90.929972 
L 286.143471 -90.727595 
L 286.460826 -90.599038 
L 286.778182 -90.510411 
L 287.095537 -90.431361 
L 287.412893 -90.379924 
L 287.730248 -90.32361 
L 288.047603 -90.23291 
L 288.364959 -90.140999 
L 288.682314 -90.03267 
L 288.999669 -89.875626 
L 289.317025 -89.686761 
L 289.63438 -89.518097 
L 289.951736 -89.402154 
L 290.269091 -89.32091 
L 290.586446 -89.251793 
L 290.903802 -89.197184 
L 291.221157 -89.139076 
L 291.538512 -89.064806 
L 291.855868 -89.033447 
L 292.173223 -88.984379 
L 292.490579 -88.928481 
L 292.807934 -88.871847 
L 293.125289 -88.803543 
L 293.442645 -88.725386 
L 293.76 -88.670674 
L 294.077355 -88.667483 
L 294.394711 -88.660194 
L 294.712066 -88.675936 
L 295.029421 -88.709126 
L 295.346777 -88.702521 
L 295.664132 -88.65396 
L 295.981488 -88.626688 
L 296.298843 -88.556923 
L 296.616198 -88.418645 
L 296.933554 -88.228129 
L 297.250909 -88.018625 
L 297.568264 -87.84106 
L 297.88562 -87.707858 
L 298.202975 -87.56039 
L 298.520331 -87.431259 
L 298.837686 -87.328264 
L 299.155041 -87.206316 
L 299.472397 -87.057471 
L 299.789752 -86.923571 
L 300.107107 -86.746779 
L 300.424463 -86.50763 
L 300.741818 -86.220855 
L 301.059174 -85.957502 
L 301.376529 -85.740078 
L 301.693884 -85.576786 
L 302.01124 -85.44492 
L 302.328595 -85.323576 
L 302.64595 -85.192258 
L 302.963306 -85.051609 
L 303.280661 -84.958114 
L 303.598017 -84.846073 
L 303.915372 -84.68281 
L 304.232727 -84.508944 
L 304.550083 -84.316346 
L 304.867438 -84.123375 
L 305.184793 -83.967982 
L 305.502149 -83.85271 
L 305.819504 -83.775353 
L 306.13686 -83.710486 
L 306.454215 -83.669949 
L 306.77157 -83.592696 
L 307.088926 -83.517178 
L 307.406281 -83.464459 
L 307.723636 -83.332805 
L 308.040992 -83.143001 
L 308.358347 -82.938848 
L 308.675702 -82.760626 
L 308.993058 -82.630644 
L 309.310413 -82.574965 
L 309.627769 -82.553623 
L 309.945124 -82.49924 
L 310.262479 -82.408134 
L 310.579835 -82.315032 
L 310.89719 -82.258757 
L 311.214545 -82.198636 
L 311.531901 -82.105776 
L 311.849256 -81.979176 
L 312.166612 -81.811525 
L 312.483967 -81.66203 
L 312.801322 -81.528974 
L 313.118678 -81.429755 
L 313.436033 -81.383175 
L 313.753388 -81.313683 
L 314.070744 -81.19778 
L 314.388099 -81.047759 
L 314.705455 -80.958462 
L 315.02281 -80.853016 
L 315.340165 -80.682591 
L 315.657521 -80.46381 
L 315.974876 -80.228811 
L 316.292231 -79.981096 
L 316.609587 -79.762937 
L 316.926942 -79.597342 
L 317.244298 -79.51185 
L 317.561653 -79.417654 
L 317.879008 -79.269259 
L 318.196364 -79.101197 
L 318.513719 -78.991689 
L 318.831074 -78.867832 
L 319.14843 -78.683603 
L 319.465785 -78.451737 
L 319.78314 -78.193718 
L 320.100496 -77.925596 
L 320.417851 -77.69308 
L 320.735207 -77.515259 
L 321.052562 -77.411586 
L 321.369917 -77.308017 
L 321.687273 -77.131821 
L 322.004628 -76.917735 
L 322.321983 -76.718156 
L 322.639339 -76.535919 
L 322.956694 -76.330215 
L 323.27405 -76.062672 
L 323.591405 -75.736287 
L 323.90876 -75.394181 
L 324.226116 -75.108327 
L 324.543471 -74.841847 
L 324.860826 -74.633363 
L 325.178182 -74.45426 
L 325.495537 -74.213153 
L 325.812893 -73.941133 
L 326.130248 -73.680412 
L 326.447603 -73.475121 
L 326.764959 -73.224176 
L 327.082314 -72.89877 
L 327.399669 -72.535998 
L 327.717025 -72.154097 
L 328.03438 -71.841483 
L 328.351736 -71.578376 
L 328.669091 -71.372814 
L 328.986446 -71.17935 
L 329.303802 -70.93623 
L 329.621157 -70.661816 
L 329.938512 -70.422133 
L 330.255868 -70.24217 
L 330.573223 -70.047786 
L 330.890579 -69.789211 
L 331.207934 -69.496792 
L 331.525289 -69.185981 
L 331.842645 -68.922676 
L 332.16 -68.706402 
L 332.477355 -68.538584 
L 332.794711 -68.400258 
L 333.112066 -68.22458 
L 333.429421 -68.021918 
L 333.746777 -67.795955 
L 334.064132 -67.629466 
L 334.381488 -67.464895 
L 334.698843 -67.236603 
L 335.016198 -66.925179 
L 335.333554 -66.58709 
L 335.650909 -66.290202 
L 335.968264 -66.045843 
L 336.28562 -65.851025 
L 336.602975 -65.688634 
L 336.920331 -65.482047 
L 337.237686 -65.251227 
L 337.555041 -64.983524 
L 337.872397 -64.762332 
L 338.189752 -64.559778 
L 338.507107 -64.276339 
L 338.824463 -63.922991 
L 339.141818 -63.547864 
L 339.459174 -63.209848 
L 339.776529 -62.928064 
L 340.093884 -62.688251 
L 340.41124 -62.476459 
L 340.728595 -62.240748 
L 341.04595 -61.978913 
L 341.363306 -61.685382 
L 341.680661 -61.413025 
L 341.998017 -61.18927 
L 342.315372 -60.900979 
L 342.632727 -60.561256 
L 342.950083 -60.185078 
L 343.267438 -59.815772 
L 343.584793 -59.522132 
L 343.902149 -59.272872 
L 344.219504 -59.069016 
L 344.53686 -58.848801 
L 344.854215 -58.635245 
L 345.17157 -58.402367 
L 345.488926 -58.170697 
L 345.806281 -57.995255 
L 346.123636 -57.762749 
L 346.440992 -57.467491 
L 346.758347 -57.115208 
L 347.075702 -56.769994 
L 347.393058 -56.527319 
L 347.710413 -56.33692 
L 348.027769 -56.18569 
L 348.345124 -56.016349 
L 348.662479 -55.866548 
L 348.979835 -55.720986 
L 349.29719 -55.579107 
L 349.614545 -55.502117 
L 349.931901 -55.375126 
L 350.249256 -55.166669 
L 350.566612 -54.914137 
L 350.883967 -54.657239 
L 351.201322 -54.492938 
L 351.518678 -54.355123 
L 351.836033 -54.264123 
L 352.153388 -54.148238 
L 352.470744 -54.050283 
L 352.788099 -53.953269 
L 353.105455 -53.849511 
L 353.42281 -53.790764 
L 353.740165 -53.687252 
L 354.057521 -53.52084 
L 354.374876 -53.281342 
L 354.692231 -53.04052 
L 355.009587 -52.908643 
L 355.326942 -52.821217 
L 355.644298 -52.749323 
L 355.961653 -52.708842 
L 356.279008 -52.690959 
L 356.596364 -52.607199 
L 356.913719 -52.433931 
L 357.231074 -52.306708 
L 357.54843 -52.163699 
L 357.865785 -51.964665 
L 358.18314 -51.716795 
L 358.500496 -51.450395 
L 358.817851 -51.261496 
L 359.135207 -51.12187 
L 359.452562 -51.019483 
L 359.769917 -50.938943 
L 360.087273 -50.853874 
L 360.404628 -50.73345 
L 360.721983 -50.582562 
L 361.039339 -50.498253 
L 361.356694 -50.433358 
L 361.67405 -50.3556 
L 361.991405 -50.247826 
L 362.30876 -50.120776 
L 362.626116 -50.112 
L 362.943471 -50.172668 
L 363.260826 -50.293066 
L 363.578182 -50.47921 
L 363.895537 -50.703863 
L 364.212893 -50.926914 
L 364.530248 -51.15471 
L 364.847603 -51.455558 
L 365.164959 -51.781301 
L 365.482314 -52.103459 
L 365.799669 -52.425162 
L 366.117025 -52.753996 
L 366.43438 -53.218637 
L 366.751736 -53.787452 
L 367.069091 -54.430233 
L 367.386446 -55.161665 
L 367.703802 -55.928455 
L 368.021157 -56.71213 
L 368.338512 -57.509825 
L 368.655868 -58.413407 
L 368.973223 -59.346402 
L 369.290579 -60.274225 
L 369.607934 -61.216717 
L 369.925289 -62.165392 
L 370.242645 -63.23898 
L 370.56 -64.434956 
L 370.877355 -65.691561 
L 371.194711 -67.033313 
L 371.512066 -68.400014 
L 371.829421 -69.802057 
L 372.146777 -71.20737 
L 372.464132 -72.705665 
L 372.781488 -74.201759 
L 373.098843 -75.655369 
L 373.416198 -77.076931 
L 373.733554 -78.525653 
L 374.050909 -80.06586 
L 374.368264 -81.690174 
L 374.68562 -83.380807 
L 375.002975 -85.094692 
L 375.320331 -86.75864 
L 375.637686 -88.427675 
L 375.955041 -90.132415 
L 376.272397 -91.779484 
L 376.589752 -93.363685 
L 376.907107 -94.978881 
L 377.224463 -96.680611 
L 377.541818 -98.39194 
L 377.859174 -100.13474 
L 378.176529 -101.936173 
L 378.493884 -103.751658 
L 378.81124 -105.586241 
L 379.128595 -107.414886 
L 379.44595 -109.232567 
L 379.763306 -111.038576 
L 380.080661 -112.826797 
L 380.398017 -114.607963 
L 380.715372 -116.408186 
L 381.032727 -118.217769 
L 381.350083 -119.977348 
L 381.667438 -121.722048 
L 381.984793 -123.473781 
L 382.302149 -125.234414 
L 382.619504 -126.998506 
L 382.93686 -128.710224 
L 383.254215 -130.38789 
L 383.57157 -132.033836 
L 383.888926 -133.637683 
L 384.206281 -135.191031 
L 384.523636 -136.730819 
L 384.840992 -138.248386 
L 385.158347 -139.704319 
L 385.475702 -141.129472 
L 385.793058 -142.551585 
L 386.110413 -143.966031 
L 386.427769 -145.354588 
L 386.745124 -146.674346 
L 387.062479 -147.945153 
L 387.379835 -149.178317 
L 387.69719 -150.359387 
L 388.014545 -151.492213 
L 388.331901 -152.603853 
L 388.649256 -153.696669 
L 388.966612 -154.702058 
L 389.283967 -155.654916 
L 389.601322 -156.583414 
L 389.918678 -157.476953 
L 390.236033 -158.32703 
L 390.553388 -159.099441 
L 390.870744 -159.796816 
L 391.188099 -160.446678 
L 391.505455 -161.032768 
L 391.82281 -161.560118 
L 392.140165 -162.039274 
L 392.457521 -162.488801 
L 392.774876 -162.860097 
L 393.092231 -163.200262 
L 393.409587 -163.549305 
L 393.726942 -163.906187 
L 394.044298 -164.217066 
L 394.361653 -164.475628 
L 394.679008 -164.697317 
L 394.996364 -164.886154 
L 395.313719 -165.059483 
L 395.631074 -165.234773 
L 395.94843 -165.398189 
L 396.265785 -165.534934 
L 396.58314 -165.695924 
L 396.900496 -165.888209 
L 397.217851 -166.087533 
L 397.535207 -166.261276 
L 397.852562 -166.414215 
L 398.169917 -166.556175 
L 398.487273 -171.072 
L 398.487273 -171.072 
L 398.487273 -171.072 
L 398.169917 -171.072 
L 397.852562 -171.072 
L 397.535207 -171.072 
L 397.217851 -171.072 
L 396.900496 -171.072 
L 396.58314 -171.072 
L 396.265785 -171.072 
L 395.94843 -171.072 
L 395.631074 -171.072 
L 395.313719 -171.072 
L 394.996364 -171.072 
L 394.679008 -171.072 
L 394.361653 -171.072 
L 394.044298 -171.072 
L 393.726942 -171.072 
L 393.409587 -171.072 
L 393.092231 -171.072 
L 392.774876 -171.072 
L 392.457521 -171.072 
L 392.140165 -171.072 
L 391.82281 -171.072 
L 391.505455 -171.072 
L 391.188099 -171.072 
L 390.870744 -171.072 
L 390.553388 -171.072 
L 390.236033 -171.072 
L 389.918678 -171.072 
L 389.601322 -171.072 
L 389.283967 -171.072 
L 388.966612 -171.072 
L 388.649256 -171.072 
L 388.331901 -171.072 
L 388.014545 -171.072 
L 387.69719 -171.072 
L 387.379835 -171.072 
L 387.062479 -171.072 
L 386.745124 -171.072 
L 386.427769 -171.072 
L 386.110413 -171.072 
L 385.793058 -171.072 
L 385.475702 -171.072 
L 385.158347 -171.072 
L 384.840992 -171.072 
L 384.523636 -171.072 
L 384.206281 -171.072 
L 383.888926 -171.072 
L 383.57157 -171.072 
L 383.254215 -171.072 
L 382.93686 -171.072 
L 382.619504 -171.072 
L 382.302149 -171.072 
L 381.984793 -171.072 
L 381.667438 -171.072 
L 381.350083 -171.072 
L 381.032727 -171.072 
L 380.715372 -171.072 
L 380.398017 -171.072 
L 380.080661 -171.072 
L 379.763306 -171.072 
L 379.44595 -171.072 
L 379.128595 -171.072 
L 378.81124 -171.072 
L 378.493884 -171.072 
L 378.176529 -171.072 
L 377.859174 -171.072 
L 377.541818 -171.072 
L 377.224463 -171.072 
L 376.907107 -171.072 
L 376.589752 -171.072 
L 376.272397 -171.072 
L 375.955041 -171.072 
L 375.637686 -171.072 
L 375.320331 -171.072 
L 375.002975 -171.072 
L 374.68562 -171.072 
L 374.368264 -171.072 
L 374.050909 -171.072 
L 373.733554 -171.072 
L 373.416198 -171.072 
L 373.098843 -171.072 
L 372.781488 -171.072 
L 372.464132 -171.072 
L 372.146777 -171.072 
L 371.829421 -171.072 
L 371.512066 -171.072 
L 371.194711 -171.072 
L 370.877355 -171.072 
L 370.56 -171.072 
L 370.242645 -171.072 
L 369.925289 -171.072 
L 369.607934 -171.072 
L 369.290579 -171.072 
L 368.973223 -171.072 
L 368.655868 -171.072 
L 368.338512 -171.072 
L 368.021157 -171.072 
L 367.703802 -171.072 
L 367.386446 -171.072 
L 367.069091 -171.072 
L 366.751736 -171.072 
L 366.43438 -171.072 
L 366.117025 -171.072 
L 365.799669 -171.072 
L 365.482314 -171.072 
L 365.164959 -171.072 
L 364.847603 -171.072 
L 364.530248 -171.072 
L 364.212893 -171.072 
L 363.895537 -171.072 
L 363.578182 -171.072 
L 363.260826 -171.072 
L 362.943471 -171.072 
L 362.626116 -171.072 
L 362.30876 -171.072 
L 361.991405 -171.072 
L 361.67405 -171.072 
L 361.356694 -171.072 
L 361.039339 -171.072 
L 360.721983 -171.072 
L 360.404628 -171.072 
L 360.087273 -171.072 
L 359.769917 -171.072 
L 359.452562 -171.072 
L 359.135207 -171.072 
L 358.817851 -171.072 
L 358.500496 -171.072 
L 358.18314 -171.072 
L 357.865785 -171.072 
L 357.54843 -171.072 
L 357.231074 -171.072 
L 356.913719 -171.072 
L 356.596364 -171.072 
L 356.279008 -171.072 
L 355.961653 -171.072 
L 355.644298 -171.072 
L 355.326942 -171.072 
L 355.009587 -171.072 
L 354.692231 -171.072 
L 354.374876 -171.072 
L 354.057521 -171.072 
L 353.740165 -171.072 
L 353.42281 -171.072 
L 353.105455 -171.072 
L 352.788099 -171.072 
L 352.470744 -171.072 
L 352.153388 -171.072 
L 351.836033 -171.072 
L 351.518678 -171.072 
L 351.201322 -171.072 
L 350.883967 -171.072 
L 350.566612 -171.072 
L 350.249256 -171.072 
L 349.931901 -171.072 
L 349.614545 -171.072 
L 349.29719 -171.072 
L 348.979835 -171.072 
L 348.662479 -171.072 
L 348.345124 -171.072 
L 348.027769 -171.072 
L 347.710413 -171.072 
L 347.393058 -171.072 
L 347.075702 -171.072 
L 346.758347 -171.072 
L 346.440992 -171.072 
L 346.123636 -171.072 
L 345.806281 -171.072 
L 345.488926 -171.072 
L 345.17157 -171.072 
L 344.854215 -171.072 
L 344.53686 -171.072 
L 344.219504 -171.072 
L 343.902149 -171.072 
L 343.584793 -171.072 
L 343.267438 -171.072 
L 342.950083 -171.072 
L 342.632727 -171.072 
L 342.315372 -171.072 
L 341.998017 -171.072 
L 341.680661 -171.072 
L 341.363306 -171.072 
L 341.04595 -171.072 
L 340.728595 -171.072 
L 340.41124 -171.072 
L 340.093884 -171.072 
L 339.776529 -171.072 
L 339.459174 -171.072 
L 339.141818 -171.072 
L 338.824463 -171.072 
L 338.507107 -171.072 
L 338.189752 -171.072 
L 337.872397 -171.072 
L 337.555041 -171.072 
L 337.237686 -171.072 
L 336.920331 -171.072 
L 336.602975 -171.072 
L 336.28562 -171.072 
L 335.968264 -171.072 
L 335.650909 -171.072 
L 335.333554 -171.072 
L 335.016198 -171.072 
L 334.698843 -171.072 
L 334.381488 -171.072 
L 334.064132 -171.072 
L 333.746777 -171.072 
L 333.429421 -171.072 
L 333.112066 -171.072 
L 332.794711 -171.072 
L 332.477355 -171.072 
L 332.16 -171.072 
L 331.842645 -171.072 
L 331.525289 -171.072 
L 331.207934 -171.072 
L 330.890579 -171.072 
L 330.573223 -171.072 
L 330.255868 -171.072 
L 329.938512 -171.072 
L 329.621157 -171.072 
L 329.303802 -171.072 
L 328.986446 -171.072 
L 328.669091 -171.072 
L 328.351736 -171.072 
L 328.03438 -171.072 
L 327.717025 -171.072 
L 327.399669 -171.072 
L 327.082314 -171.072 
L 326.764959 -171.072 
L 326.447603 -171.072 
L 326.130248 -171.072 
L 325.812893 -171.072 
L 325.495537 -171.072 
L 325.178182 -171.072 
L 324.860826 -171.072 
L 324.543471 -171.072 
L 324.226116 -171.072 
L 323.90876 -171.072 
L 323.591405 -171.072 
L 323.27405 -171.072 
L 322.956694 -171.072 
L 322.639339 -171.072 
L 322.321983 -171.072 
L 322.004628 -171.072 
L 321.687273 -171.072 
L 321.369917 -171.072 
L 321.052562 -171.072 
L 320.735207 -171.072 
L 320.417851 -171.072 
L 320.100496 -171.072 
L 319.78314 -171.072 
L 319.465785 -171.072 
L 319.14843 -171.072 
L 318.831074 -171.072 
L 318.513719 -171.072 
L 318.196364 -171.072 
L 317.879008 -171.072 
L 317.561653 -171.072 
L 317.244298 -171.072 
L 316.926942 -171.072 
L 316.609587 -171.072 
L 316.292231 -171.072 
L 315.974876 -171.072 
L 315.657521 -171.072 
L 315.340165 -171.072 
L 315.02281 -171.072 
L 314.705455 -171.072 
L 314.388099 -171.072 
L 314.070744 -171.072 
L 313.753388 -171.072 
L 313.436033 -171.072 
L 313.118678 -171.072 
L 312.801322 -171.072 
L 312.483967 -171.072 
L 312.166612 -171.072 
L 311.849256 -171.072 
L 311.531901 -171.072 
L 311.214545 -171.072 
L 310.89719 -171.072 
L 310.579835 -171.072 
L 310.262479 -171.072 
L 309.945124 -171.072 
L 309.627769 -171.072 
L 309.310413 -171.072 
L 308.993058 -171.072 
L 308.675702 -171.072 
L 308.358347 -171.072 
L 308.040992 -171.072 
L 307.723636 -171.072 
L 307.406281 -171.072 
L 307.088926 -171.072 
L 306.77157 -171.072 
L 306.454215 -171.072 
L 306.13686 -171.072 
L 305.819504 -171.072 
L 305.502149 -171.072 
L 305.184793 -171.072 
L 304.867438 -171.072 
L 304.550083 -171.072 
L 304.232727 -171.072 
L 303.915372 -171.072 
L 303.598017 -171.072 
L 303.280661 -171.072 
L 302.963306 -171.072 
L 302.64595 -171.072 
L 302.328595 -171.072 
L 302.01124 -171.072 
L 301.693884 -171.072 
L 301.376529 -171.072 
L 301.059174 -171.072 
L 300.741818 -171.072 
L 300.424463 -171.072 
L 300.107107 -171.072 
L 299.789752 -171.072 
L 299.472397 -171.072 
L 299.155041 -171.072 
L 298.837686 -171.072 
L 298.520331 -171.072 
L 298.202975 -171.072 
L 297.88562 -171.072 
L 297.568264 -171.072 
L 297.250909 -171.072 
L 296.933554 -171.072 
L 296.616198 -171.072 
L 296.298843 -171.072 
L 295.981488 -171.072 
L 295.664132 -171.072 
L 295.346777 -171.072 
L 295.029421 -171.072 
L 294.712066 -171.072 
L 294.394711 -171.072 
L 294.077355 -171.072 
L 293.76 -171.072 
L 293.442645 -171.072 
L 293.125289 -171.072 
L 292.807934 -171.072 
L 292.490579 -171.072 
L 292.173223 -171.072 
L 291.855868 -171.072 
L 291.538512 -171.072 
L 291.221157 -171.072 
L 290.903802 -171.072 
L 290.586446 -171.072 
L 290.269091 -171.072 
L 289.951736 -171.072 
L 289.63438 -171.072 
L 289.317025 -171.072 
L 288.999669 -171.072 
L 288.682314 -171.072 
L 288.364959 -171.072 
L 288.047603 -171.072 
L 287.730248 -171.072 
L 287.412893 -171.072 
L 287.095537 -171.072 
L 286.778182 -171.072 
L 286.460826 -171.072 
L 286.143471 -171.072 
L 285.826116 -171.072 
L 285.50876 -171.072 
L 285.191405 -171.072 
L 284.87405 -171.072 
L 284.556694 -171.072 
L 284.239339 -171.072 
L 283.921983 -171.072 
L 283.604628 -171.072 
L 283.287273 -171.072 
L 282.969917 -171.072 
L 282.652562 -171.072 
L 282.335207 -171.072 
L 282.017851 -171.072 
L 281.700496 -171.072 
L 281.38314 -171.072 
L 281.065785 -171.072 
L 280.74843 -171.072 
L 280.431074 -171.072 
L 280.113719 -171.072 
L 279.796364 -171.072 
L 279.479008 -171.072 
L 279.161653 -171.072 
L 278.844298 -171.072 
L 278.526942 -171.072 
L 278.209587 -171.072 
L 277.892231 -171.072 
L 277.574876 -171.072 
L 277.257521 -171.072 
L 276.940165 -171.072 
L 276.62281 -171.072 
L 276.305455 -171.072 
L 275.988099 -171.072 
L 275.670744 -171.072 
L 275.353388 -171.072 
L 275.036033 -171.072 
L 274.718678 -171.072 
L 274.401322 -171.072 
L 274.083967 -171.072 
L 273.766612 -171.072 
L 273.449256 -171.072 
L 273.131901 -171.072 
L 272.814545 -171.072 
L 272.49719 -171.072 
L 272.179835 -171.072 
L 271.862479 -171.072 
L 271.545124 -171.072 
L 271.227769 -171.072 
L 270.910413 -171.072 
L 270.593058 -171.072 
L 270.275702 -171.072 
L 269.958347 -171.072 
L 269.640992 -171.072 
L 269.323636 -171.072 
L 269.006281 -171.072 
L 268.688926 -171.072 
L 268.37157 -171.072 
L 268.054215 -171.072 
L 267.73686 -171.072 
L 267.419504 -171.072 
L 267.102149 -171.072 
L 266.784793 -171.072 
L 266.467438 -171.072 
L 266.150083 -171.072 
L 265.832727 -171.072 
L 265.515372 -171.072 
L 265.198017 -171.072 
L 264.880661 -171.072 
L 264.563306 -171.072 
L 264.24595 -171.072 
L 263.928595 -171.072 
L 263.61124 -171.072 
L 263.293884 -171.072 
L 262.976529 -171.072 
L 262.659174 -171.072 
L 262.341818 -171.072 
L 262.024463 -171.072 
L 261.707107 -171.072 
L 261.389752 -171.072 
L 261.072397 -171.072 
L 260.755041 -171.072 
L 260.437686 -171.072 
L 260.120331 -171.072 
L 259.802975 -171.072 
L 259.48562 -171.072 
L 259.168264 -171.072 
L 258.850909 -171.072 
L 258.533554 -171.072 
L 258.216198 -171.072 
L 257.898843 -171.072 
L 257.581488 -171.072 
L 257.264132 -171.072 
L 256.946777 -171.072 
L 256.629421 -171.072 
L 256.312066 -171.072 
L 255.994711 -171.072 
L 255.677355 -171.072 
L 255.36 -171.072 
L 255.042645 -171.072 
L 254.725289 -171.072 
L 254.407934 -171.072 
L 254.090579 -171.072 
L 253.773223 -171.072 
L 253.455868 -171.072 
L 253.138512 -171.072 
L 252.821157 -171.072 
L 252.503802 -171.072 
L 252.186446 -171.072 
L 251.869091 -171.072 
L 251.551736 -171.072 
L 251.23438 -171.072 
L 250.917025 -171.072 
L 250.599669 -171.072 
L 250.282314 -171.072 
L 249.964959 -171.072 
L 249.647603 -171.072 
L 249.330248 -171.072 
L 249.012893 -171.072 
L 248.695537 -171.072 
L 248.378182 -171.072 
L 248.060826 -171.072 
L 247.743471 -171.072 
L 247.426116 -171.072 
L 247.10876 -171.072 
L 246.791405 -171.072 
L 246.47405 -171.072 
L 246.156694 -171.072 
L 245.839339 -171.072 
L 245.521983 -171.072 
L 245.204628 -171.072 
L 244.887273 -171.072 
L 244.569917 -171.072 
L 244.252562 -171.072 
L 243.935207 -171.072 
L 243.617851 -171.072 
L 243.300496 -171.072 
L 242.98314 -171.072 
L 242.665785 -171.072 
L 242.34843 -171.072 
L 242.031074 -171.072 
L 241.713719 -171.072 
L 241.396364 -171.072 
L 241.079008 -171.072 
L 240.761653 -171.072 
L 240.444298 -171.072 
L 240.126942 -171.072 
L 239.809587 -171.072 
L 239.492231 -171.072 
L 239.174876 -171.072 
L 238.857521 -171.072 
L 238.540165 -171.072 
L 238.22281 -171.072 
L 237.905455 -171.072 
L 237.588099 -171.072 
L 237.270744 -171.072 
L 236.953388 -171.072 
L 236.636033 -171.072 
L 236.318678 -171.072 
L 236.001322 -171.072 
L 235.683967 -171.072 
L 235.366612 -171.072 
L 235.049256 -171.072 
L 234.731901 -171.072 
L 234.414545 -171.072 
L 234.09719 -171.072 
L 233.779835 -171.072 
L 233.462479 -171.072 
L 233.145124 -171.072 
L 232.827769 -171.072 
L 232.510413 -171.072 
L 232.193058 -171.072 
L 231.875702 -171.072 
L 231.558347 -171.072 
L 231.240992 -171.072 
L 230.923636 -171.072 
L 230.606281 -171.072 
L 230.288926 -171.072 
L 229.97157 -171.072 
L 229.654215 -171.072 
L 229.33686 -171.072 
L 229.019504 -171.072 
L 228.702149 -171.072 
L 228.384793 -171.072 
L 228.067438 -171.072 
L 227.750083 -171.072 
L 227.432727 -171.072 
L 227.115372 -171.072 
L 226.798017 -171.072 
L 226.480661 -171.072 
L 226.163306 -171.072 
L 225.84595 -171.072 
L 225.528595 -171.072 
L 225.21124 -171.072 
L 224.893884 -171.072 
L 224.576529 -171.072 
L 224.259174 -171.072 
L 223.941818 -171.072 
L 223.624463 -171.072 
L 223.307107 -171.072 
L 222.989752 -171.072 
L 222.672397 -171.072 
L 222.355041 -171.072 
L 222.037686 -171.072 
L 221.720331 -171.072 
L 221.402975 -171.072 
L 221.08562 -171.072 
L 220.768264 -171.072 
L 220.450909 -171.072 
L 220.133554 -171.072 
L 219.816198 -171.072 
L 219.498843 -171.072 
L 219.181488 -171.072 
L 218.864132 -171.072 
L 218.546777 -171.072 
L 218.229421 -171.072 
L 217.912066 -171.072 
L 217.594711 -171.072 
L 217.277355 -171.072 
L 216.96 -171.072 
L 216.642645 -171.072 
L 216.325289 -171.072 
L 216.007934 -171.072 
L 215.690579 -171.072 
L 215.373223 -171.072 
L 215.055868 -171.072 
L 214.738512 -171.072 
L 214.421157 -171.072 
L 214.103802 -171.072 
L 213.786446 -171.072 
L 213.469091 -171.072 
L 213.151736 -171.072 
L 212.83438 -171.072 
L 212.517025 -171.072 
L 212.199669 -171.072 
L 211.882314 -171.072 
L 211.564959 -171.072 
L 211.247603 -171.072 
L 210.930248 -171.072 
L 210.612893 -171.072 
L 210.295537 -171.072 
L 209.978182 -171.072 
L 209.660826 -171.072 
L 209.343471 -171.072 
L 209.026116 -171.072 
L 208.70876 -171.072 
L 208.391405 -171.072 
L 208.07405 -171.072 
L 207.756694 -171.072 
L 207.439339 -171.072 
L 207.121983 -171.072 
L 206.804628 -171.072 
L 206.487273 -171.072 
L 206.169917 -171.072 
L 205.852562 -171.072 
L 205.535207 -171.072 
L 205.217851 -171.072 
L 204.900496 -171.072 
L 204.58314 -171.072 
L 204.265785 -171.072 
L 203.94843 -171.072 
L 203.631074 -171.072 
L 203.313719 -171.072 
L 202.996364 -171.072 
L 202.679008 -171.072 
L 202.361653 -171.072 
L 202.044298 -171.072 
L 201.726942 -171.072 
L 201.409587 -171.072 
L 201.092231 -171.072 
L 200.774876 -171.072 
L 200.457521 -171.072 
L 200.140165 -171.072 
L 199.82281 -171.072 
L 199.505455 -171.072 
L 199.188099 -171.072 
L 198.870744 -171.072 
L 198.553388 -171.072 
L 198.236033 -171.072 
L 197.918678 -171.072 
L 197.601322 -171.072 
L 197.283967 -171.072 
L 196.966612 -171.072 
L 196.649256 -171.072 
L 196.331901 -171.072 
L 196.014545 -171.072 
L 195.69719 -171.072 
L 195.379835 -171.072 
L 195.062479 -171.072 
L 194.745124 -171.072 
L 194.427769 -171.072 
L 194.110413 -171.072 
L 193.793058 -171.072 
L 193.475702 -171.072 
L 193.158347 -171.072 
L 192.840992 -171.072 
L 192.523636 -171.072 
L 192.206281 -171.072 
L 191.888926 -171.072 
L 191.57157 -171.072 
L 191.254215 -171.072 
L 190.93686 -171.072 
L 190.619504 -171.072 
L 190.302149 -171.072 
L 189.984793 -171.072 
L 189.667438 -171.072 
L 189.350083 -171.072 
L 189.032727 -171.072 
L 188.715372 -171.072 
L 188.398017 -171.072 
L 188.080661 -171.072 
L 187.763306 -171.072 
L 187.44595 -171.072 
L 187.128595 -171.072 
L 186.81124 -171.072 
L 186.493884 -171.072 
L 186.176529 -171.072 
L 185.859174 -171.072 
L 185.541818 -171.072 
L 185.224463 -171.072 
L 184.907107 -171.072 
L 184.589752 -171.072 
L 184.272397 -171.072 
L 183.955041 -171.072 
L 183.637686 -171.072 
L 183.320331 -171.072 
L 183.002975 -171.072 
L 182.68562 -171.072 
L 182.368264 -171.072 
L 182.050909 -171.072 
L 181.733554 -171.072 
L 181.416198 -171.072 
L 181.098843 -171.072 
L 180.781488 -171.072 
L 180.464132 -171.072 
L 180.146777 -171.072 
L 179.829421 -171.072 
L 179.512066 -171.072 
L 179.194711 -171.072 
L 178.877355 -171.072 
L 178.56 -171.072 
L 178.242645 -171.072 
L 177.925289 -171.072 
L 177.607934 -171.072 
L 177.290579 -171.072 
L 176.973223 -171.072 
L 176.655868 -171.072 
L 176.338512 -171.072 
L 176.021157 -171.072 
L 175.703802 -171.072 
L 175.386446 -171.072 
L 175.069091 -171.072 
L 174.751736 -171.072 
L 174.43438 -171.072 
L 174.117025 -171.072 
L 173.799669 -171.072 
L 173.482314 -171.072 
L 173.164959 -171.072 
L 172.847603 -171.072 
L 172.530248 -171.072 
L 172.212893 -171.072 
L 171.895537 -171.072 
L 171.578182 -171.072 
L 171.260826 -171.072 
L 170.943471 -171.072 
L 170.626116 -171.072 
L 170.30876 -171.072 
L 169.991405 -171.072 
L 169.67405 -171.072 
L 169.356694 -171.072 
L 169.039339 -171.072 
L 168.721983 -171.072 
L 168.404628 -171.072 
L 168.087273 -171.072 
L 167.769917 -171.072 
L 167.452562 -171.072 
L 167.135207 -171.072 
L 166.817851 -171.072 
L 166.500496 -171.072 
L 166.18314 -171.072 
L 165.865785 -171.072 
L 165.54843 -171.072 
L 165.231074 -171.072 
L 164.913719 -171.072 
L 164.596364 -171.072 
L 164.279008 -171.072 
L 163.961653 -171.072 
L 163.644298 -171.072 
L 163.326942 -171.072 
L 163.009587 -171.072 
L 162.692231 -171.072 
L 162.374876 -171.072 
L 162.057521 -171.072 
L 161.740165 -171.072 
L 161.42281 -171.072 
L 161.105455 -171.072 
L 160.788099 -171.072 
L 160.470744 -171.072 
L 160.153388 -171.072 
L 159.836033 -171.072 
L 159.518678 -171.072 
L 159.201322 -171.072 
L 158.883967 -171.072 
L 158.566612 -171.072 
L 158.249256 -171.072 
L 157.931901 -171.072 
L 157.614545 -171.072 
L 157.29719 -171.072 
L 156.979835 -171.072 
L 156.662479 -171.072 
L 156.345124 -171.072 
L 156.027769 -171.072 
L 155.710413 -171.072 
L 155.393058 -171.072 
L 155.075702 -171.072 
L 154.758347 -171.072 
L 154.440992 -171.072 
L 154.123636 -171.072 
L 153.806281 -171.072 
L 153.488926 -171.072 
L 153.17157 -171.072 
L 152.854215 -171.072 
L 152.53686 -171.072 
L 152.219504 -171.072 
L 151.902149 -171.072 
L 151.584793 -171.072 
L 151.267438 -171.072 
L 150.950083 -171.072 
L 150.632727 -171.072 
L 150.315372 -171.072 
L 149.998017 -171.072 
L 149.680661 -171.072 
L 149.363306 -171.072 
L 149.04595 -171.072 
L 148.728595 -171.072 
L 148.41124 -171.072 
L 148.093884 -171.072 
L 147.776529 -171.072 
L 147.459174 -171.072 
L 147.141818 -171.072 
L 146.824463 -171.072 
L 146.507107 -171.072 
L 146.189752 -171.072 
L 145.872397 -171.072 
L 145.555041 -171.072 
L 145.237686 -171.072 
L 144.920331 -171.072 
L 144.602975 -171.072 
L 144.28562 -171.072 
L 143.968264 -171.072 
L 143.650909 -171.072 
L 143.333554 -171.072 
L 143.016198 -171.072 
L 142.698843 -171.072 
L 142.381488 -171.072 
L 142.064132 -171.072 
L 141.746777 -171.072 
L 141.429421 -171.072 
L 141.112066 -171.072 
L 140.794711 -171.072 
L 140.477355 -171.072 
L 140.16 -171.072 
L 139.842645 -171.072 
L 139.525289 -171.072 
L 139.207934 -171.072 
L 138.890579 -171.072 
L 138.573223 -171.072 
L 138.255868 -171.072 
L 137.938512 -171.072 
L 137.621157 -171.072 
L 137.303802 -171.072 
L 136.986446 -171.072 
L 136.669091 -171.072 
L 136.351736 -171.072 
L 136.03438 -171.072 
L 135.717025 -171.072 
L 135.399669 -171.072 
L 135.082314 -171.072 
L 134.764959 -171.072 
L 134.447603 -171.072 
L 134.130248 -171.072 
L 133.812893 -171.072 
L 133.495537 -171.072 
L 133.178182 -171.072 
L 132.860826 -171.072 
L 132.543471 -171.072 
L 132.226116 -171.072 
L 131.90876 -171.072 
L 131.591405 -171.072 
L 131.27405 -171.072 
L 130.956694 -171.072 
L 130.639339 -171.072 
L 130.321983 -171.072 
L 130.004628 -171.072 
L 129.687273 -171.072 
L 129.369917 -171.072 
L 129.052562 -171.072 
L 128.735207 -171.072 
L 128.417851 -171.072 
L 128.100496 -171.072 
L 127.78314 -171.072 
L 127.465785 -171.072 
L 127.14843 -171.072 
L 126.831074 -171.072 
L 126.513719 -171.072 
L 126.196364 -171.072 
L 125.879008 -171.072 
L 125.561653 -171.072 
L 125.244298 -171.072 
L 124.926942 -171.072 
L 124.609587 -171.072 
L 124.292231 -171.072 
L 123.974876 -171.072 
L 123.657521 -171.072 
L 123.340165 -171.072 
L 123.02281 -171.072 
L 122.705455 -171.072 
L 122.388099 -171.072 
L 122.070744 -171.072 
L 121.753388 -171.072 
L 121.436033 -171.072 
L 121.118678 -171.072 
L 120.801322 -171.072 
L 120.483967 -171.072 
L 120.166612 -171.072 
L 119.849256 -171.072 
L 119.531901 -171.072 
L 119.214545 -171.072 
L 118.89719 -171.072 
L 118.579835 -171.072 
L 118.262479 -171.072 
L 117.945124 -171.072 
L 117.627769 -171.072 
L 117.310413 -171.072 
L 116.993058 -171.072 
L 116.675702 -171.072 
L 116.358347 -171.072 
L 116.040992 -171.072 
L 115.723636 -171.072 
L 115.406281 -171.072 
L 115.088926 -171.072 
L 114.77157 -171.072 
L 114.454215 -171.072 
L 114.13686 -171.072 
L 113.819504 -171.072 
L 113.502149 -171.072 
L 113.184793 -171.072 
L 112.867438 -171.072 
L 112.550083 -171.072 
L 112.232727 -171.072 
L 111.915372 -171.072 
L 111.598017 -171.072 
L 111.280661 -171.072 
L 110.963306 -171.072 
L 110.64595 -171.072 
L 110.328595 -171.072 
L 110.01124 -171.072 
L 109.693884 -171.072 
L 109.376529 -171.072 
L 109.059174 -171.072 
L 108.741818 -171.072 
L 108.424463 -171.072 
L 108.107107 -171.072 
L 107.789752 -171.072 
L 107.472397 -171.072 
L 107.155041 -171.072 
L 106.837686 -171.072 
L 106.520331 -171.072 
L 106.202975 -171.072 
L 105.88562 -171.072 
L 105.568264 -171.072 
L 105.250909 -171.072 
L 104.933554 -171.072 
L 104.616198 -171.072 
L 104.298843 -171.072 
L 103.981488 -171.072 
L 103.664132 -171.072 
L 103.346777 -171.072 
L 103.029421 -171.072 
L 102.712066 -171.072 
L 102.394711 -171.072 
L 102.077355 -171.072 
L 101.76 -171.072 
L 101.442645 -171.072 
L 101.125289 -171.072 
L 100.807934 -171.072 
L 100.490579 -171.072 
L 100.173223 -171.072 
L 99.855868 -171.072 
L 99.538512 -171.072 
L 99.221157 -171.072 
L 98.903802 -171.072 
L 98.586446 -171.072 
L 98.269091 -171.072 
L 97.951736 -171.072 
L 97.63438 -171.072 
L 97.317025 -171.072 
L 96.999669 -171.072 
L 96.682314 -171.072 
L 96.364959 -171.072 
L 96.047603 -171.072 
L 95.730248 -171.072 
L 95.412893 -171.072 
L 95.095537 -171.072 
L 94.778182 -171.072 
L 94.460826 -171.072 
L 94.143471 -171.072 
L 93.826116 -171.072 
L 93.50876 -171.072 
L 93.191405 -171.072 
L 92.87405 -171.072 
L 92.556694 -171.072 
L 92.239339 -171.072 
L 91.921983 -171.072 
L 91.604628 -171.072 
L 91.287273 -171.072 
L 90.969917 -171.072 
L 90.652562 -171.072 
L 90.335207 -171.072 
L 90.017851 -171.072 
L 89.700496 -171.072 
L 89.38314 -171.072 
L 89.065785 -171.072 
L 88.74843 -171.072 
L 88.431074 -171.072 
L 88.113719 -171.072 
L 87.796364 -171.072 
L 87.479008 -171.072 
L 87.161653 -171.072 
L 86.844298 -171.072 
L 86.526942 -171.072 
L 86.209587 -171.072 
L 85.892231 -171.072 
L 85.574876 -171.072 
L 85.257521 -171.072 
L 84.940165 -171.072 
L 84.62281 -171.072 
L 84.305455 -171.072 
L 83.988099 -171.072 
L 83.670744 -171.072 
L 83.353388 -171.072 
L 83.036033 -171.072 
L 82.718678 -171.072 
L 82.401322 -171.072 
L 82.083967 -171.072 
L 81.766612 -171.072 
L 81.449256 -171.072 
L 81.131901 -171.072 
L 80.814545 -171.072 
L 80.49719 -171.072 
L 80.179835 -171.072 
L 79.862479 -171.072 
L 79.545124 -171.072 
L 79.227769 -171.072 
L 78.910413 -171.072 
L 78.593058 -171.072 
L 78.275702 -171.072 
L 77.958347 -171.072 
L 77.640992 -171.072 
L 77.323636 -171.072 
L 77.006281 -171.072 
L 76.688926 -171.072 
L 76.37157 -171.072 
L 76.054215 -171.072 
L 75.73686 -171.072 
L 75.419504 -171.072 
L 75.102149 -171.072 
L 74.784793 -171.072 
L 74.467438 -171.072 
L 74.150083 -171.072 
L 73.832727 -171.072 
z
" style="stroke: #87ceeb; stroke-opacity: 0.75"/>
    </defs>
    <g clip-path="url(#p1316b018e1)">
     <use xlink:href="#mcd691c4426" x="0" y="345.6" style="fill: #87ceeb; fill-opacity: 0.75; stroke: #87ceeb; stroke-opacity: 0.75"/>
    </g>
   </g>
   <g id="matplotlib.axis_1">
    <g id="xtick_1">
     <g id="line2d_1">
      <defs>
       <path id="m6c694cddf1" d="M 0 0 
L 0 3.5 
" style="stroke: #000000; stroke-width: 0.8"/>
      </defs>
      <g>
       <use xlink:href="#m6c694cddf1" x="73.832727" y="307.584" style="stroke: #000000; stroke-width: 0.8"/>
      </g>
     </g>
     <g id="text_1">
      <!-- 0 -->
      <g transform="translate(70.531868 322.161969) scale(0.11 -0.11)">
       <defs>
        <path id="AndaleMono-30" d="M 1913 4494 
Q 2613 4494 2989 3892 
Q 3366 3291 3366 2203 
Q 3366 1150 3000 533 
Q 2634 -84 1913 -84 
Q 1216 -84 837 516 
Q 459 1116 459 2203 
Q 459 3259 826 3876 
Q 1194 4494 1913 4494 
z
M 1913 366 
Q 2375 366 2598 805 
Q 2822 1244 2822 2203 
Q 2822 3166 2598 3602 
Q 2375 4038 1913 4038 
Q 1456 4038 1231 3591 
Q 1006 3144 1006 2203 
Q 1006 1250 1229 808 
Q 1453 366 1913 366 
z
M 1900 2672 
Q 2097 2672 2233 2536 
Q 2369 2400 2369 2203 
Q 2369 2000 2231 1854 
Q 2094 1709 1900 1709 
Q 1709 1709 1573 1854 
Q 1438 2000 1438 2203 
Q 1438 2403 1570 2537 
Q 1703 2672 1900 2672 
z
" transform="scale(0.015625)"/>
       </defs>
       <use xlink:href="#AndaleMono-30"/>
      </g>
     </g>
    </g>
    <g id="xtick_2">
     <g id="line2d_2">
      <g>
       <use xlink:href="#m6c694cddf1" x="137.303802" y="307.584" style="stroke: #000000; stroke-width: 0.8"/>
      </g>
     </g>
     <g id="text_2">
      <!-- 200 -->
      <g transform="translate(127.401224 322.161969) scale(0.11 -0.11)">
       <defs>
        <path id="AndaleMono-32" d="M 3066 0 
L 641 0 
L 641 372 
Q 1563 1400 1838 1750 
Q 2113 2100 2284 2484 
Q 2456 2869 2456 3250 
Q 2456 3619 2232 3831 
Q 2009 4044 1606 4044 
Q 1297 4044 775 3853 
L 703 4294 
Q 1175 4494 1691 4494 
Q 2281 4494 2642 4161 
Q 3003 3828 3003 3272 
Q 3003 2875 2817 2484 
Q 2631 2094 2340 1734 
Q 2050 1375 1209 447 
L 3066 447 
L 3066 0 
z
" transform="scale(0.015625)"/>
       </defs>
       <use xlink:href="#AndaleMono-32"/>
       <use xlink:href="#AndaleMono-30" x="60.009766"/>
       <use xlink:href="#AndaleMono-30" x="120.019531"/>
      </g>
     </g>
    </g>
    <g id="xtick_3">
     <g id="line2d_3">
      <g>
       <use xlink:href="#m6c694cddf1" x="200.774876" y="307.584" style="stroke: #000000; stroke-width: 0.8"/>
      </g>
     </g>
     <g id="text_3">
      <!-- 400 -->
      <g transform="translate(190.872298 322.161969) scale(0.11 -0.11)">
       <defs>
        <path id="AndaleMono-34" d="M 3353 1019 
L 2809 1019 
L 2809 0 
L 2297 0 
L 2297 1019 
L 378 1019 
L 378 1409 
L 2119 4409 
L 2809 4409 
L 2809 1466 
L 3353 1466 
L 3353 1019 
z
M 2297 1466 
L 2297 3903 
L 897 1466 
L 2297 1466 
z
" transform="scale(0.015625)"/>
       </defs>
       <use xlink:href="#AndaleMono-34"/>
       <use xlink:href="#AndaleMono-30" x="60.009766"/>
       <use xlink:href="#AndaleMono-30" x="120.019531"/>
      </g>
     </g>
    </g>
    <g id="xtick_4">
     <g id="line2d_4">
      <g>
       <use xlink:href="#m6c694cddf1" x="264.24595" y="307.584" style="stroke: #000000; stroke-width: 0.8"/>
      </g>
     </g>
     <g id="text_4">
      <!-- 600 -->
      <g transform="translate(254.343372 322.161969) scale(0.11 -0.11)">
       <defs>
        <path id="AndaleMono-36" d="M 1131 2297 
Q 1544 2631 2028 2631 
Q 2588 2631 2961 2273 
Q 3334 1916 3334 1350 
Q 3334 728 3003 322 
Q 2672 -84 2119 -84 
Q 1413 -84 1000 564 
Q 588 1213 588 2150 
Q 588 3150 1017 3822 
Q 1447 4494 2194 4494 
Q 2709 4494 3084 4341 
L 3003 3884 
Q 2569 4044 2209 4044 
Q 1700 4044 1415 3556 
Q 1131 3069 1131 2297 
z
M 1147 1856 
Q 1147 1291 1412 828 
Q 1678 366 2081 366 
Q 2422 366 2606 616 
Q 2791 866 2791 1306 
Q 2791 1713 2587 1947 
Q 2384 2181 2016 2181 
Q 1538 2181 1147 1856 
z
" transform="scale(0.015625)"/>
       </defs>
       <use xlink:href="#AndaleMono-36"/>
       <use xlink:href="#AndaleMono-30" x="60.009766"/>
       <use xlink:href="#AndaleMono-30" x="120.019531"/>
      </g>
     </g>
    </g>
    <g id="xtick_5">
     <g id="line2d_5">
      <g>
       <use xlink:href="#m6c694cddf1" x="327.717025" y="307.584" style="stroke: #000000; stroke-width: 0.8"/>
      </g>
     </g>
     <g id="text_5">
      <!-- 800 -->
      <g transform="translate(317.814447 322.161969) scale(0.11 -0.11)">
       <defs>
        <path id="AndaleMono-38" d="M 2363 2419 
Q 2813 2288 3061 1972 
Q 3309 1656 3309 1234 
Q 3309 628 2907 272 
Q 2506 -84 1919 -84 
Q 1303 -84 908 275 
Q 513 634 513 1228 
Q 513 1647 769 1965 
Q 1025 2284 1484 2419 
Q 1119 2513 898 2780 
Q 678 3047 678 3378 
Q 678 3803 1015 4148 
Q 1353 4494 1906 4494 
Q 2453 4494 2811 4150 
Q 3169 3806 3169 3378 
Q 3169 3056 2944 2786 
Q 2719 2516 2363 2419 
z
M 1906 2631 
Q 1922 2631 2056 2668 
Q 2191 2706 2286 2761 
Q 2381 2816 2462 2900 
Q 2544 2984 2594 3098 
Q 2644 3213 2644 3353 
Q 2644 3653 2428 3851 
Q 2213 4050 1906 4050 
Q 1609 4050 1396 3847 
Q 1184 3644 1184 3353 
Q 1184 3169 1261 3031 
Q 1338 2894 1452 2809 
Q 1566 2725 1714 2678 
Q 1863 2631 1906 2631 
z
M 1906 2194 
Q 1050 1944 1050 1253 
Q 1050 850 1309 608 
Q 1569 366 1919 366 
Q 2281 366 2529 605 
Q 2778 844 2778 1253 
Q 2778 1563 2606 1808 
Q 2434 2053 1906 2194 
z
" transform="scale(0.015625)"/>
       </defs>
       <use xlink:href="#AndaleMono-38"/>
       <use xlink:href="#AndaleMono-30" x="60.009766"/>
       <use xlink:href="#AndaleMono-30" x="120.019531"/>
      </g>
     </g>
    </g>
    <g id="xtick_6">
     <g id="line2d_6">
      <g>
       <use xlink:href="#m6c694cddf1" x="391.188099" y="307.584" style="stroke: #000000; stroke-width: 0.8"/>
      </g>
     </g>
     <g id="text_6">
      <!-- 1000 -->
      <g transform="translate(377.984662 322.161969) scale(0.11 -0.11)">
       <defs>
        <path id="AndaleMono-31" d="M 3181 0 
L 863 0 
L 863 447 
L 1797 447 
L 1797 3872 
L 916 3431 
L 916 3944 
L 1869 4434 
L 2309 4434 
L 2309 447 
L 3181 447 
L 3181 0 
z
" transform="scale(0.015625)"/>
       </defs>
       <use xlink:href="#AndaleMono-31"/>
       <use xlink:href="#AndaleMono-30" x="60.009766"/>
       <use xlink:href="#AndaleMono-30" x="120.019531"/>
       <use xlink:href="#AndaleMono-30" x="180.029297"/>
      </g>
     </g>
    </g>
   </g>
   <g id="matplotlib.axis_2">
    <g id="ytick_1">
     <g id="line2d_7">
      <defs>
       <path id="m75a28a0daa" d="M 0 0 
L -3.5 0 
" style="stroke: #000000; stroke-width: 0.8"/>
      </defs>
      <g>
       <use xlink:href="#m75a28a0daa" x="57.6" y="295.488" style="stroke: #000000; stroke-width: 0.8"/>
      </g>
     </g>
     <g id="text_7">
      <!-- 1.00 -->
      <g transform="translate(17.591406 299.276984) scale(0.11 -0.11)">
       <defs>
        <path id="AndaleMono-2212" d="M 3397 2047 
L 441 2047 
L 441 2456 
L 3397 2456 
L 3397 2047 
z
" transform="scale(0.015625)"/>
        <path id="AndaleMono-2e" d="M 1900 716 
Q 2066 716 2178 603 
Q 2291 491 2291 325 
Q 2291 156 2177 36 
Q 2063 -84 1900 -84 
Q 1741 -84 1628 36 
Q 1516 156 1516 325 
Q 1516 494 1627 605 
Q 1738 716 1900 716 
z
" transform="scale(0.015625)"/>
       </defs>
       <use xlink:href="#AndaleMono-2212"/>
       <use xlink:href="#AndaleMono-31" x="60.009766"/>
       <use xlink:href="#AndaleMono-2e" x="120.019531"/>
       <use xlink:href="#AndaleMono-30" x="180.029297"/>
       <use xlink:href="#AndaleMono-30" x="240.039062"/>
      </g>
     </g>
    </g>
    <g id="ytick_2">
     <g id="line2d_8">
      <g>
       <use xlink:href="#m75a28a0daa" x="57.6" y="265.248" style="stroke: #000000; stroke-width: 0.8"/>
      </g>
     </g>
     <g id="text_8">
      <!-- 0.75 -->
      <g transform="translate(17.591406 269.036984) scale(0.11 -0.11)">
       <defs>
        <path id="AndaleMono-37" d="M 3238 4044 
L 1491 0 
L 966 0 
L 2688 3963 
L 622 3963 
L 622 4409 
L 3238 4409 
L 3238 4044 
z
" transform="scale(0.015625)"/>
        <path id="AndaleMono-35" d="M 1356 2631 
Q 1569 2688 1772 2688 
Q 2397 2688 2759 2305 
Q 3122 1922 3122 1350 
Q 3122 750 2700 333 
Q 2278 -84 1672 -84 
Q 1094 -84 703 109 
L 806 544 
Q 1231 366 1684 366 
Q 2088 366 2336 625 
Q 2584 884 2584 1350 
Q 2584 1791 2350 2028 
Q 2116 2266 1747 2266 
Q 1478 2266 1216 2163 
L 909 2303 
L 909 4409 
L 2925 4409 
L 2925 3963 
L 1356 3963 
L 1356 2631 
z
" transform="scale(0.015625)"/>
       </defs>
       <use xlink:href="#AndaleMono-2212"/>
       <use xlink:href="#AndaleMono-30" x="60.009766"/>
       <use xlink:href="#AndaleMono-2e" x="120.019531"/>
       <use xlink:href="#AndaleMono-37" x="180.029297"/>
       <use xlink:href="#AndaleMono-35" x="240.039062"/>
      </g>
     </g>
    </g>
    <g id="ytick_3">
     <g id="line2d_9">
      <g>
       <use xlink:href="#m75a28a0daa" x="57.6" y="235.008" style="stroke: #000000; stroke-width: 0.8"/>
      </g>
     </g>
     <g id="text_9">
      <!-- 0.50 -->
      <g transform="translate(17.591406 238.796984) scale(0.11 -0.11)">
       <use xlink:href="#AndaleMono-2212"/>
       <use xlink:href="#AndaleMono-30" x="60.009766"/>
       <use xlink:href="#AndaleMono-2e" x="120.019531"/>
       <use xlink:href="#AndaleMono-35" x="180.029297"/>
       <use xlink:href="#AndaleMono-30" x="240.039062"/>
      </g>
     </g>
    </g>
    <g id="ytick_4">
     <g id="line2d_10">
      <g>
       <use xlink:href="#m75a28a0daa" x="57.6" y="204.768" style="stroke: #000000; stroke-width: 0.8"/>
      </g>
     </g>
     <g id="text_10">
      <!-- 0.25 -->
      <g transform="translate(17.591406 208.556984) scale(0.11 -0.11)">
       <use xlink:href="#AndaleMono-2212"/>
       <use xlink:href="#AndaleMono-30" x="60.009766"/>
       <use xlink:href="#AndaleMono-2e" x="120.019531"/>
       <use xlink:href="#AndaleMono-32" x="180.029297"/>
       <use xlink:href="#AndaleMono-35" x="240.039062"/>
      </g>
     </g>
    </g>
    <g id="ytick_5">
     <g id="line2d_11">
      <g>
       <use xlink:href="#m75a28a0daa" x="57.6" y="174.528" style="stroke: #000000; stroke-width: 0.8"/>
      </g>
     </g>
     <g id="text_11">
      <!-- 0.00 -->
      <g transform="translate(24.193125 178.316984) scale(0.11 -0.11)">
       <use xlink:href="#AndaleMono-30"/>
       <use xlink:href="#AndaleMono-2e" x="60.009766"/>
       <use xlink:href="#AndaleMono-30" x="120.019531"/>
       <use xlink:href="#AndaleMono-30" x="180.029297"/>
      </g>
     </g>
    </g>
    <g id="ytick_6">
     <g id="line2d_12">
      <g>
       <use xlink:href="#m75a28a0daa" x="57.6" y="144.288" style="stroke: #000000; stroke-width: 0.8"/>
      </g>
     </g>
     <g id="text_12">
      <!-- 0.25 -->
      <g transform="translate(24.193125 148.076984) scale(0.11 -0.11)">
       <use xlink:href="#AndaleMono-30"/>
       <use xlink:href="#AndaleMono-2e" x="60.009766"/>
       <use xlink:href="#AndaleMono-32" x="120.019531"/>
       <use xlink:href="#AndaleMono-35" x="180.029297"/>
      </g>
     </g>
    </g>
    <g id="ytick_7">
     <g id="line2d_13">
      <g>
       <use xlink:href="#m75a28a0daa" x="57.6" y="114.048" style="stroke: #000000; stroke-width: 0.8"/>
      </g>
     </g>
     <g id="text_13">
      <!-- 0.50 -->
      <g transform="translate(24.193125 117.836984) scale(0.11 -0.11)">
       <use xlink:href="#AndaleMono-30"/>
       <use xlink:href="#AndaleMono-2e" x="60.009766"/>
       <use xlink:href="#AndaleMono-35" x="120.019531"/>
       <use xlink:href="#AndaleMono-30" x="180.029297"/>
      </g>
     </g>
    </g>
    <g id="ytick_8">
     <g id="line2d_14">
      <g>
       <use xlink:href="#m75a28a0daa" x="57.6" y="83.808" style="stroke: #000000; stroke-width: 0.8"/>
      </g>
     </g>
     <g id="text_14">
      <!-- 0.75 -->
      <g transform="translate(24.193125 87.596984) scale(0.11 -0.11)">
       <use xlink:href="#AndaleMono-30"/>
       <use xlink:href="#AndaleMono-2e" x="60.009766"/>
       <use xlink:href="#AndaleMono-37" x="120.019531"/>
       <use xlink:href="#AndaleMono-35" x="180.029297"/>
      </g>
     </g>
    </g>
    <g id="ytick_9">
     <g id="line2d_15">
      <g>
       <use xlink:href="#m75a28a0daa" x="57.6" y="53.568" style="stroke: #000000; stroke-width: 0.8"/>
      </g>
     </g>
     <g id="text_15">
      <!-- 1.00 -->
      <g transform="translate(24.193125 57.356984) scale(0.11 -0.11)">
       <use xlink:href="#AndaleMono-31"/>
       <use xlink:href="#AndaleMono-2e" x="60.009766"/>
       <use xlink:href="#AndaleMono-30" x="120.019531"/>
       <use xlink:href="#AndaleMono-30" x="180.029297"/>
      </g>
     </g>
    </g>
   </g>
   <g id="line2d_16">
    <path d="M 73.832727 174.528 
L 74.150083 170.154703 
L 75.419504 169.486736 
L 76.688926 168.8333 
L 77.958347 168.074156 
L 78.593058 167.504714 
L 80.179835 165.637801 
L 81.131901 164.045206 
L 82.083967 161.925558 
L 83.353388 158.300585 
L 84.305455 155.061526 
L 85.574876 150.175519 
L 87.161653 143.157068 
L 88.74843 135.46877 
L 90.969917 123.417906 
L 98.269091 83.52186 
L 100.490579 73.258057 
L 102.077355 66.69498 
L 103.029421 63.730225 
L 104.616198 59.384455 
L 105.568264 57.243452 
L 106.202975 56.209996 
L 108.107107 54.382914 
L 109.059174 53.749066 
L 109.693884 53.568 
L 110.01124 53.576776 
L 110.963306 53.889358 
L 111.915372 54.18945 
L 113.819504 54.906395 
L 114.77157 55.619699 
L 116.040992 56.146959 
L 116.993058 56.277217 
L 117.627769 56.49652 
L 118.579835 57.143252 
L 121.436033 58.113239 
L 122.388099 58.831126 
L 124.609587 59.79292 
L 125.244298 60.225994 
L 126.513719 61.451255 
L 127.465785 62.091245 
L 129.052562 63.271772 
L 130.321983 64.64527 
L 131.27405 65.434913 
L 133.495537 67.378991 
L 134.130248 68.015778 
L 136.669091 69.746202 
L 138.255868 71.085466 
L 140.16 72.162402 
L 140.794711 72.641981 
L 141.746777 73.503786 
L 143.016198 74.39223 
L 144.602975 75.610097 
L 145.555041 76.680176 
L 150.632727 80.587821 
L 151.267438 80.867586 
L 151.902149 81.14908 
L 153.806281 82.447689 
L 155.710413 83.218937 
L 157.614545 84.414462 
L 159.836033 85.11803 
L 161.105455 85.654636 
L 163.644298 86.216626 
L 164.913719 86.920459 
L 166.817851 87.30871 
L 167.769917 87.772346 
L 169.039339 88.414114 
L 170.30876 88.90092 
L 171.260826 89.413502 
L 172.530248 90.379571 
L 175.386446 91.684129 
L 176.021157 92.012923 
L 176.973223 92.158521 
L 179.194711 92.259543 
L 183.002975 93.142761 
L 183.955041 93.596999 
L 186.493884 94.385972 
L 187.44595 94.806587 
L 190.302149 95.738765 
L 191.254215 96.054348 
L 192.523636 96.14025 
L 193.475702 96.285667 
L 197.283967 97.568372 
L 197.918678 98.047251 
L 201.092231 101.083374 
L 202.044298 102.216331 
L 203.313719 103.63692 
L 205.217851 105.693617 
L 206.804628 107.616949 
L 208.70876 109.971404 
L 212.517025 115.721222 
L 216.007934 122.738159 
L 219.181488 130.362692 
L 222.989752 140.218711 
L 231.558347 162.66449 
L 255.042645 223.302903 
L 257.264132 228.359444 
L 259.802975 233.334778 
L 261.072397 235.443394 
L 263.293884 238.620427 
L 264.24595 239.869301 
L 265.832727 241.770162 
L 267.102149 243.362383 
L 268.688926 245.094732 
L 270.275702 246.839669 
L 271.545124 248.323805 
L 273.131901 249.887256 
L 275.353388 251.648854 
L 276.305455 252.023123 
L 278.209587 252.553346 
L 279.161653 252.830972 
L 280.113719 252.906139 
L 281.065785 253.001652 
L 281.700496 253.177921 
L 283.287273 253.799573 
L 284.556694 254.154524 
L 285.50876 254.487321 
L 286.460826 255.000962 
L 289.317025 255.913239 
L 289.951736 256.197846 
L 291.538512 256.535194 
L 293.125289 256.796457 
L 294.077355 256.932517 
L 296.298843 257.043077 
L 296.933554 257.371871 
L 297.88562 257.892142 
L 300.424463 259.09237 
L 301.376529 259.859922 
L 302.64595 260.407742 
L 306.13686 261.889514 
L 307.406281 262.135541 
L 308.040992 262.456999 
L 308.993058 262.969356 
L 311.531901 263.494224 
L 314.705455 264.641538 
L 315.340165 264.917409 
L 316.926942 266.002658 
L 317.879008 266.330741 
L 319.78314 267.406282 
L 320.735207 268.084741 
L 321.687273 268.468179 
L 323.591405 269.863713 
L 324.543471 270.758153 
L 326.447603 272.124879 
L 327.082314 272.70123 
L 328.351736 274.021624 
L 330.573223 275.552214 
L 332.477355 277.061416 
L 333.429421 277.578082 
L 335.333554 279.01291 
L 335.968264 279.554157 
L 338.189752 281.040222 
L 338.824463 281.677009 
L 339.776529 282.671936 
L 342.315372 284.699021 
L 343.902149 286.327128 
L 346.123636 287.837251 
L 347.710413 289.26308 
L 350.566612 290.685863 
L 351.201322 291.107062 
L 352.470744 291.549717 
L 354.057521 292.07916 
L 355.009587 292.691357 
L 355.961653 292.891158 
L 356.596364 292.992801 
L 358.500496 294.149605 
L 359.135207 294.47813 
L 362.626116 295.488 
L 363.260826 295.306934 
L 364.530248 294.44529 
L 366.117025 292.846004 
L 366.751736 291.812548 
L 367.703802 289.671545 
L 368.973223 286.253598 
L 370.242645 282.36102 
L 371.512066 277.199986 
L 374.050909 265.53414 
L 377.859174 245.46526 
L 383.57157 213.566164 
L 385.475702 204.470528 
L 387.379835 196.421683 
L 388.966612 190.897942 
L 390.236033 187.27297 
L 391.188099 185.153322 
L 392.140165 183.560726 
L 393.092231 182.399738 
L 394.361653 181.124372 
L 395.631074 180.365227 
L 398.169917 179.043825 
L 398.487273 174.528 
L 398.487273 174.528 
" clip-path="url(#p1316b018e1)" style="fill: none; stroke: #87ceeb; stroke-opacity: 0.75; stroke-linecap: square"/>
   </g>
   <g id="patch_3">
    <path d="M 57.6 307.584 
L 57.6 41.472 
" style="fill: none; stroke: #000000; stroke-width: 0.8; stroke-linejoin: miter; stroke-linecap: square"/>
   </g>
   <g id="patch_4">
    <path d="M 414.72 307.584 
L 414.72 41.472 
" style="fill: none; stroke: #000000; stroke-width: 0.8; stroke-linejoin: miter; stroke-linecap: square"/>
   </g>
   <g id="patch_5">
    <path d="M 57.6 307.584 
L 414.72 307.584 
" style="fill: none; stroke: #000000; stroke-width: 0.8; stroke-linejoin: miter; stroke-linecap: square"/>
   </g>
   <g id="patch_6">
    <path d="M 57.6 41.472 
L 414.72 41.472 
" style="fill: none; stroke: #000000; stroke-width: 0.8; stroke-linejoin: miter; stroke-linecap: square"/>
   </g>
  </g>
 </g>
 <defs>
  <clipPath id="p1316b018e1">
   <rect x="57.6" y="41.472" width="357.12" height="266.112"/>
  </clipPath>
 </defs>
</svg>
