<?xml version="1.0" encoding="utf-8" standalone="no"?>
<!DOCTYPE svg PUBLIC "-//W3C//DTD SVG 1.1//EN"
  "http://www.w3.org/Graphics/SVG/1.1/DTD/svg11.dtd">
<svg xmlns:xlink="http://www.w3.org/1999/xlink" width="460.8pt" height="345.6pt" viewBox="0 0 460.8 345.6" xmlns="http://www.w3.org/2000/svg" version="1.1">
 <metadata>
  <rdf:RDF xmlns:dc="http://purl.org/dc/elements/1.1/" xmlns:cc="http://creativecommons.org/ns#" xmlns:rdf="http://www.w3.org/1999/02/22-rdf-syntax-ns#">
   <cc:Work>
    <dc:type rdf:resource="http://purl.org/dc/dcmitype/StillImage"/>
    <dc:date>2024-04-23T11:13:05.471530</dc:date>
    <dc:format>image/svg+xml</dc:format>
    <dc:creator>
     <cc:Agent>
      <dc:title>Matplotlib v3.8.3, https://matplotlib.org/</dc:title>
     </cc:Agent>
    </dc:creator>
   </cc:Work>
  </rdf:RDF>
 </metadata>
 <defs>
  <style type="text/css">*{stroke-linejoin: round; stroke-linecap: butt}</style>
 </defs>
 <g id="figure_1">
  <g id="patch_1">
   <path d="M 0 345.6 
L 460.8 345.6 
L 460.8 0 
L 0 0 
z
" style="fill: #ffffff"/>
  </g>
  <g id="axes_1">
   <g id="patch_2">
    <path d="M 57.6 307.584 
L 414.72 307.584 
L 414.72 41.472 
L 57.6 41.472 
z
" style="fill: #ffffff"/>
   </g>
   <g id="PolyCollection_1">
    <defs>
     <path id="m9c2c0eb938" d="M 73.832727 -171.919306 
L 73.832727 -171.919306 
L 74.150083 -258.302014 
L 74.467438 -260.495671 
L 74.784793 -262.593847 
L 75.102149 -264.586867 
L 75.419504 -266.461146 
L 75.73686 -268.2209 
L 76.054215 -269.86427 
L 76.37157 -271.422573 
L 76.688926 -272.89168 
L 77.006281 -274.292458 
L 77.323636 -275.630423 
L 77.640992 -276.924084 
L 77.958347 -278.172211 
L 78.275702 -279.373194 
L 78.593058 -280.512537 
L 78.910413 -281.587568 
L 79.227769 -282.577525 
L 79.545124 -283.455301 
L 79.862479 -284.206608 
L 80.179835 -284.85987 
L 80.49719 -285.432203 
L 80.814545 -285.949388 
L 81.131901 -286.43497 
L 81.449256 -286.904906 
L 81.766612 -287.370702 
L 82.083967 -287.846742 
L 82.401322 -288.324587 
L 82.718678 -288.804667 
L 83.036033 -289.287519 
L 83.353388 -289.783746 
L 83.670744 -290.299667 
L 83.988099 -290.849309 
L 84.305455 -291.616295 
L 84.62281 -291.996015 
L 84.940165 -292.032 
L 85.257521 -291.759838 
L 85.574876 -291.203314 
L 85.892231 -290.38152 
L 86.209587 -289.311438 
L 86.526942 -288.008027 
L 86.844298 -286.488967 
L 87.161653 -284.779459 
L 87.479008 -282.901233 
L 87.796364 -280.867806 
L 88.113719 -278.695198 
L 88.431074 -276.396325 
L 88.74843 -273.993259 
L 89.065785 -271.511346 
L 89.38314 -268.965533 
L 89.700496 -266.37941 
L 90.017851 -263.772357 
L 90.335207 -261.159275 
L 90.652562 -258.553553 
L 90.969917 -255.96305 
L 91.287273 -253.410852 
L 91.604628 -250.912437 
L 91.921983 -248.483174 
L 92.239339 -246.136664 
L 92.556694 -243.88964 
L 92.87405 -241.750285 
L 93.191405 -239.724287 
L 93.50876 -237.81409 
L 93.826116 -236.015656 
L 94.143471 -234.332216 
L 94.460826 -232.792962 
L 94.778182 -231.338694 
L 95.095537 -229.965741 
L 95.412893 -228.68695 
L 95.730248 -227.513732 
L 96.047603 -226.442578 
L 96.364959 -225.470462 
L 96.682314 -224.564979 
L 96.999669 -223.7306 
L 97.317025 -222.944075 
L 97.63438 -222.199813 
L 97.951736 -221.484013 
L 98.269091 -220.803261 
L 98.586446 -220.166606 
L 98.903802 -219.596846 
L 99.221157 -219.09425 
L 99.538512 -218.682884 
L 99.855868 -218.394204 
L 100.173223 -218.24514 
L 100.490579 -218.209062 
L 100.807934 -218.269792 
L 101.125289 -218.400046 
L 101.442645 -218.567861 
L 101.76 -218.750355 
L 102.077355 -218.923379 
L 102.394711 -219.06004 
L 102.712066 -219.177224 
L 103.029421 -219.280245 
L 103.346777 -219.37945 
L 103.664132 -219.467988 
L 103.981488 -219.54599 
L 104.298843 -219.599361 
L 104.616198 -219.609446 
L 104.933554 -219.565886 
L 105.250909 -219.451585 
L 105.568264 -219.258351 
L 105.88562 -218.99441 
L 106.202975 -218.671053 
L 106.520331 -218.296486 
L 106.837686 -217.880746 
L 107.155041 -217.424786 
L 107.472397 -216.92676 
L 107.789752 -216.39639 
L 108.107107 -215.853516 
L 108.424463 -215.310886 
L 108.741818 -214.782851 
L 109.059174 -214.267114 
L 109.376529 -213.760952 
L 109.693884 -213.265652 
L 110.01124 -212.770889 
L 110.328595 -212.273192 
L 110.64595 -211.771849 
L 110.963306 -211.265331 
L 111.280661 -210.754755 
L 111.598017 -210.228367 
L 111.915372 -209.680442 
L 112.232727 -209.108154 
L 112.550083 -208.510217 
L 112.867438 -207.883491 
L 113.184793 -207.236321 
L 113.502149 -206.580549 
L 113.819504 -205.930106 
L 114.13686 -205.303879 
L 114.454215 -204.703679 
L 114.77157 -204.139444 
L 115.088926 -203.603616 
L 115.406281 -203.086703 
L 115.723636 -202.575407 
L 116.040992 -202.067601 
L 116.358347 -201.557038 
L 116.675702 -201.050213 
L 116.993058 -200.553612 
L 117.310413 -200.07419 
L 117.627769 -199.625453 
L 117.945124 -199.21195 
L 118.262479 -198.831121 
L 118.579835 -198.475181 
L 118.89719 -198.132216 
L 119.214545 -197.793005 
L 119.531901 -197.460734 
L 119.849256 -197.129683 
L 120.166612 -196.795725 
L 120.483967 -196.453513 
L 120.801322 -196.103133 
L 121.118678 -195.746628 
L 121.436033 -195.384158 
L 121.753388 -195.019892 
L 122.070744 -194.662551 
L 122.388099 -194.327041 
L 122.705455 -194.030134 
L 123.02281 -193.759923 
L 123.340165 -193.513188 
L 123.657521 -193.276512 
L 123.974876 -193.041956 
L 124.292231 -192.797884 
L 124.609587 -192.546257 
L 124.926942 -192.295265 
L 125.244298 -192.044472 
L 125.561653 -191.802913 
L 125.879008 -191.574496 
L 126.196364 -191.356393 
L 126.513719 -191.146504 
L 126.831074 -190.947649 
L 127.14843 -190.75986 
L 127.465785 -190.596183 
L 127.78314 -190.46074 
L 128.100496 -190.347402 
L 128.417851 -190.24491 
L 128.735207 -190.146876 
L 129.052562 -190.046012 
L 129.369917 -189.943766 
L 129.687273 -189.834298 
L 130.004628 -189.721814 
L 130.321983 -189.61112 
L 130.639339 -189.504607 
L 130.956694 -189.399106 
L 131.27405 -189.295008 
L 131.591405 -189.198803 
L 131.90876 -189.112044 
L 132.226116 -189.039692 
L 132.543471 -188.984683 
L 132.860826 -188.952547 
L 133.178182 -188.940207 
L 133.495537 -188.943323 
L 133.812893 -188.952781 
L 134.130248 -188.95479 
L 134.447603 -188.941728 
L 134.764959 -188.909702 
L 135.082314 -188.839719 
L 135.399669 -188.737223 
L 135.717025 -188.614657 
L 136.03438 -188.490155 
L 136.351736 -188.37108 
L 136.669091 -188.263409 
L 136.986446 -188.168842 
L 137.303802 -188.086134 
L 137.621157 -188.01081 
L 137.938512 -187.930859 
L 138.255868 -187.840266 
L 138.573223 -187.733041 
L 138.890579 -187.610177 
L 139.207934 -187.477757 
L 139.525289 -187.336305 
L 139.842645 -187.186834 
L 140.16 -187.037075 
L 140.477355 -186.8848 
L 140.794711 -186.736227 
L 141.112066 -186.586976 
L 141.429421 -186.435719 
L 141.746777 -186.283458 
L 142.064132 -186.136434 
L 142.381488 -185.991775 
L 142.698843 -185.848775 
L 143.016198 -185.699072 
L 143.333554 -185.548204 
L 143.650909 -185.39334 
L 143.968264 -185.237831 
L 144.28562 -185.087364 
L 144.602975 -184.949873 
L 144.920331 -184.819758 
L 145.237686 -184.690208 
L 145.555041 -184.565464 
L 145.872397 -184.442761 
L 146.189752 -184.322597 
L 146.507107 -184.203642 
L 146.824463 -184.088806 
L 147.141818 -183.980247 
L 147.459174 -183.881845 
L 147.776529 -183.785706 
L 148.093884 -183.689501 
L 148.41124 -183.594936 
L 148.728595 -183.504841 
L 149.04595 -183.417984 
L 149.363306 -183.334083 
L 149.680661 -183.256875 
L 149.998017 -183.18782 
L 150.315372 -183.123699 
L 150.632727 -183.066079 
L 150.950083 -183.015183 
L 151.267438 -182.97762 
L 151.584793 -182.957421 
L 151.902149 -182.955947 
L 152.219504 -182.974266 
L 152.53686 -183.007891 
L 152.854215 -183.051104 
L 153.17157 -183.092528 
L 153.488926 -183.133999 
L 153.806281 -183.173342 
L 154.123636 -183.205747 
L 154.440992 -183.23632 
L 154.758347 -183.262136 
L 155.075702 -183.288237 
L 155.393058 -183.324896 
L 155.710413 -183.372489 
L 156.027769 -183.432633 
L 156.345124 -183.498782 
L 156.662479 -183.567755 
L 156.979835 -183.639993 
L 157.29719 -183.712934 
L 157.614545 -183.783997 
L 157.931901 -183.846651 
L 158.249256 -183.899097 
L 158.566612 -183.941006 
L 158.883967 -183.980057 
L 159.201322 -184.022719 
L 159.518678 -184.069533 
L 159.836033 -184.124534 
L 160.153388 -184.186933 
L 160.470744 -184.249475 
L 160.788099 -184.314736 
L 161.105455 -184.379624 
L 161.42281 -184.4457 
L 161.740165 -184.505344 
L 162.057521 -184.555754 
L 162.374876 -184.593494 
L 162.692231 -184.618326 
L 163.009587 -184.627998 
L 163.326942 -184.631964 
L 163.644298 -184.630372 
L 163.961653 -184.626048 
L 164.279008 -184.621426 
L 164.596364 -184.618139 
L 164.913719 -184.612347 
L 165.231074 -184.609656 
L 165.54843 -184.607163 
L 165.865785 -184.599147 
L 166.18314 -184.582499 
L 166.500496 -184.560488 
L 166.817851 -184.538547 
L 167.135207 -184.514657 
L 167.452562 -184.486975 
L 167.769917 -184.460625 
L 168.087273 -184.440034 
L 168.404628 -184.426475 
L 168.721983 -184.416269 
L 169.039339 -184.406095 
L 169.356694 -184.398675 
L 169.67405 -184.39696 
L 169.991405 -184.393278 
L 170.30876 -184.393059 
L 170.626116 -184.40315 
L 170.943471 -184.421561 
L 171.260826 -184.444658 
L 171.578182 -184.474173 
L 171.895537 -184.510129 
L 172.212893 -184.549769 
L 172.530248 -184.589736 
L 172.847603 -184.633177 
L 173.164959 -184.68216 
L 173.482314 -184.743054 
L 173.799669 -184.80864 
L 174.117025 -184.872652 
L 174.43438 -184.944673 
L 174.751736 -185.021864 
L 175.069091 -185.106101 
L 175.386446 -185.195983 
L 175.703802 -185.286594 
L 176.021157 -185.377809 
L 176.338512 -185.464048 
L 176.655868 -185.540919 
L 176.973223 -185.610763 
L 177.290579 -185.675016 
L 177.607934 -185.736488 
L 177.925289 -185.794322 
L 178.242645 -185.855001 
L 178.56 -185.923907 
L 178.877355 -186.002263 
L 179.194711 -186.082964 
L 179.512066 -186.160001 
L 179.829421 -186.229483 
L 180.146777 -186.284307 
L 180.464132 -186.320364 
L 180.781488 -186.338303 
L 181.098843 -186.337847 
L 181.416198 -186.31371 
L 181.733554 -186.274033 
L 182.050909 -186.226698 
L 182.368264 -186.179045 
L 182.68562 -186.136957 
L 183.002975 -186.102729 
L 183.320331 -186.077454 
L 183.637686 -186.057132 
L 183.955041 -186.038852 
L 184.272397 -186.016129 
L 184.589752 -185.982225 
L 184.907107 -185.931466 
L 185.224463 -185.864175 
L 185.541818 -185.780955 
L 185.859174 -185.689186 
L 186.176529 -185.595663 
L 186.493884 -185.506533 
L 186.81124 -185.417559 
L 187.128595 -185.328165 
L 187.44595 -185.23875 
L 187.763306 -185.149103 
L 188.080661 -185.048867 
L 188.398017 -184.936011 
L 188.715372 -184.811027 
L 189.032727 -184.675284 
L 189.350083 -184.535598 
L 189.667438 -184.394581 
L 189.984793 -184.256521 
L 190.302149 -184.129507 
L 190.619504 -184.009314 
L 190.93686 -183.888507 
L 191.254215 -183.767351 
L 191.57157 -183.648231 
L 191.888926 -183.527801 
L 192.206281 -183.404276 
L 192.523636 -183.277238 
L 192.840992 -183.148802 
L 193.158347 -183.017148 
L 193.475702 -182.884794 
L 193.793058 -182.745625 
L 194.110413 -182.608879 
L 194.427769 -182.47942 
L 194.745124 -182.348451 
L 195.062479 -182.218138 
L 195.379835 -182.087446 
L 195.69719 -181.957183 
L 196.014545 -181.836106 
L 196.331901 -181.722343 
L 196.649256 -181.614328 
L 196.966612 -181.515881 
L 197.283967 -181.425883 
L 197.601322 -181.341923 
L 197.918678 -181.261847 
L 198.236033 -181.186871 
L 198.553388 -181.112007 
L 198.870744 -181.034056 
L 199.188099 -180.951864 
L 199.505455 -180.866456 
L 199.82281 -180.776116 
L 200.140165 -180.680931 
L 200.457521 -180.584504 
L 200.774876 -180.493818 
L 201.092231 -180.411927 
L 201.409587 -180.341372 
L 201.726942 -180.293443 
L 202.044298 -180.25603 
L 202.361653 -180.232119 
L 202.679008 -180.21413 
L 202.996364 -180.192057 
L 203.313719 -180.164203 
L 203.631074 -180.132915 
L 203.94843 -180.097718 
L 204.265785 -180.060248 
L 204.58314 -180.027814 
L 204.900496 -180.004676 
L 205.217851 -179.993072 
L 205.535207 -179.994327 
L 205.852562 -180.002956 
L 206.169917 -180.017584 
L 206.487273 -180.031392 
L 206.804628 -180.040793 
L 207.121983 -180.045324 
L 207.439339 -180.047427 
L 207.756694 -180.047523 
L 208.07405 -180.047998 
L 208.391405 -180.054089 
L 208.70876 -180.067529 
L 209.026116 -180.087634 
L 209.343471 -180.118168 
L 209.660826 -180.154303 
L 209.978182 -180.193904 
L 210.295537 -180.23397 
L 210.612893 -180.268194 
L 210.930248 -180.298043 
L 211.247603 -180.325572 
L 211.564959 -180.35017 
L 211.882314 -180.371281 
L 212.199669 -180.38707 
L 212.517025 -180.401752 
L 212.83438 -180.41682 
L 213.151736 -180.43547 
L 213.469091 -180.458504 
L 213.786446 -180.478932 
L 214.103802 -180.504577 
L 214.421157 -180.528682 
L 214.738512 -180.551855 
L 215.055868 -180.576049 
L 215.373223 -180.603906 
L 215.690579 -180.631809 
L 216.007934 -180.658809 
L 216.325289 -180.681016 
L 216.642645 -180.70315 
L 216.96 -180.728317 
L 217.277355 -180.757521 
L 217.594711 -180.786779 
L 217.912066 -180.816037 
L 218.229421 -180.842176 
L 218.546777 -180.863405 
L 218.864132 -180.8803 
L 219.181488 -180.888254 
L 219.498843 -180.891008 
L 219.816198 -180.892283 
L 220.133554 -180.899988 
L 220.450909 -180.91655 
L 220.768264 -180.941268 
L 221.08562 -180.965057 
L 221.402975 -180.986366 
L 221.720331 -181.002515 
L 222.037686 -181.004119 
L 222.355041 -180.99887 
L 222.672397 -180.979695 
L 222.989752 -180.950382 
L 223.307107 -180.919366 
L 223.624463 -180.886926 
L 223.941818 -180.846496 
L 224.259174 -180.794608 
L 224.576529 -180.729153 
L 224.893884 -180.646786 
L 225.21124 -180.550844 
L 225.528595 -180.440205 
L 225.84595 -180.312465 
L 226.163306 -180.168475 
L 226.480661 -180.007107 
L 226.798017 -179.834323 
L 227.115372 -179.653517 
L 227.432727 -179.46845 
L 227.750083 -179.271557 
L 228.067438 -179.063549 
L 228.384793 -178.844786 
L 228.702149 -178.617631 
L 229.019504 -178.385683 
L 229.33686 -178.149838 
L 229.654215 -177.904428 
L 229.97157 -177.65014 
L 230.288926 -177.388471 
L 230.606281 -177.115382 
L 230.923636 -176.836435 
L 231.240992 -176.551229 
L 231.558347 -176.260534 
L 231.875702 -175.970912 
L 232.193058 -175.683872 
L 232.510413 -175.401116 
L 232.827769 -175.114352 
L 233.145124 -174.821601 
L 233.462479 -174.518675 
L 233.779835 -174.210971 
L 234.09719 -173.904414 
L 234.414545 -173.594957 
L 234.731901 -173.286342 
L 235.049256 -172.978133 
L 235.366612 -172.674503 
L 235.683967 -172.370519 
L 236.001322 -172.069638 
L 236.318678 -171.768974 
L 236.636033 -171.468092 
L 236.953388 -171.164109 
L 237.270744 -170.860478 
L 237.588099 -170.552269 
L 237.905455 -170.243655 
L 238.22281 -169.934198 
L 238.540165 -169.627641 
L 238.857521 -169.319937 
L 239.174876 -169.01701 
L 239.492231 -168.724259 
L 239.809587 -168.437496 
L 240.126942 -168.15474 
L 240.444298 -167.8677 
L 240.761653 -167.578078 
L 241.079008 -167.287383 
L 241.396364 -167.002176 
L 241.713719 -166.723229 
L 242.031074 -166.450141 
L 242.34843 -166.188472 
L 242.665785 -165.934184 
L 242.98314 -165.688774 
L 243.300496 -165.452929 
L 243.617851 -165.220981 
L 243.935207 -164.993825 
L 244.252562 -164.775063 
L 244.569917 -164.567055 
L 244.887273 -164.370162 
L 245.204628 -164.185094 
L 245.521983 -164.004288 
L 245.839339 -163.831504 
L 246.156694 -163.670137 
L 246.47405 -163.526147 
L 246.791405 -163.398406 
L 247.10876 -163.287767 
L 247.426116 -163.191825 
L 247.743471 -163.109458 
L 248.060826 -163.044004 
L 248.378182 -162.992116 
L 248.695537 -162.951686 
L 249.012893 -162.919245 
L 249.330248 -162.88823 
L 249.647603 -162.858917 
L 249.964959 -162.839742 
L 250.282314 -162.834493 
L 250.599669 -162.836097 
L 250.917025 -162.852245 
L 251.23438 -162.873554 
L 251.551736 -162.897343 
L 251.869091 -162.922061 
L 252.186446 -162.938624 
L 252.503802 -162.946328 
L 252.821157 -162.947604 
L 253.138512 -162.950357 
L 253.455868 -162.958312 
L 253.773223 -162.975207 
L 254.090579 -162.996436 
L 254.407934 -163.022575 
L 254.725289 -163.051833 
L 255.042645 -163.08109 
L 255.36 -163.110295 
L 255.677355 -163.135461 
L 255.994711 -163.157596 
L 256.312066 -163.179803 
L 256.629421 -163.206803 
L 256.946777 -163.234705 
L 257.264132 -163.262563 
L 257.581488 -163.286756 
L 257.898843 -163.30993 
L 258.216198 -163.334034 
L 258.533554 -163.35968 
L 258.850909 -163.380108 
L 259.168264 -163.403141 
L 259.48562 -163.421791 
L 259.802975 -163.436859 
L 260.120331 -163.451542 
L 260.437686 -163.46733 
L 260.755041 -163.488441 
L 261.072397 -163.513039 
L 261.389752 -163.540568 
L 261.707107 -163.570418 
L 262.024463 -163.604641 
L 262.341818 -163.644707 
L 262.659174 -163.684308 
L 262.976529 -163.720443 
L 263.293884 -163.750978 
L 263.61124 -163.771083 
L 263.928595 -163.784522 
L 264.24595 -163.790614 
L 264.563306 -163.791088 
L 264.880661 -163.791185 
L 265.198017 -163.793288 
L 265.515372 -163.797818 
L 265.832727 -163.80722 
L 266.150083 -163.821027 
L 266.467438 -163.835655 
L 266.784793 -163.844284 
L 267.102149 -163.84554 
L 267.419504 -163.833936 
L 267.73686 -163.810798 
L 268.054215 -163.778363 
L 268.37157 -163.740893 
L 268.688926 -163.705697 
L 269.006281 -163.674409 
L 269.323636 -163.646554 
L 269.640992 -163.624482 
L 269.958347 -163.606492 
L 270.275702 -163.582582 
L 270.593058 -163.545169 
L 270.910413 -163.49724 
L 271.227769 -163.426685 
L 271.545124 -163.344794 
L 271.862479 -163.254108 
L 272.179835 -163.15768 
L 272.49719 -163.062495 
L 272.814545 -162.972155 
L 273.131901 -162.886747 
L 273.449256 -162.804555 
L 273.766612 -162.726605 
L 274.083967 -162.651741 
L 274.401322 -162.576764 
L 274.718678 -162.496688 
L 275.036033 -162.412729 
L 275.353388 -162.32273 
L 275.670744 -162.224283 
L 275.988099 -162.116269 
L 276.305455 -162.002506 
L 276.62281 -161.881428 
L 276.940165 -161.751165 
L 277.257521 -161.620473 
L 277.574876 -161.490161 
L 277.892231 -161.359191 
L 278.209587 -161.229732 
L 278.526942 -161.092986 
L 278.844298 -160.953818 
L 279.161653 -160.821463 
L 279.479008 -160.689809 
L 279.796364 -160.561374 
L 280.113719 -160.434336 
L 280.431074 -160.31081 
L 280.74843 -160.190381 
L 281.065785 -160.071261 
L 281.38314 -159.950105 
L 281.700496 -159.829297 
L 282.017851 -159.709104 
L 282.335207 -159.58209 
L 282.652562 -159.444031 
L 282.969917 -159.303013 
L 283.287273 -159.163327 
L 283.604628 -159.027585 
L 283.921983 -158.902601 
L 284.239339 -158.789745 
L 284.556694 -158.689508 
L 284.87405 -158.599861 
L 285.191405 -158.510446 
L 285.50876 -158.421053 
L 285.826116 -158.332078 
L 286.143471 -158.242949 
L 286.460826 -158.149426 
L 286.778182 -158.057656 
L 287.095537 -157.974437 
L 287.412893 -157.907146 
L 287.730248 -157.856386 
L 288.047603 -157.822483 
L 288.364959 -157.799759 
L 288.682314 -157.781479 
L 288.999669 -157.761158 
L 289.317025 -157.735883 
L 289.63438 -157.701655 
L 289.951736 -157.659566 
L 290.269091 -157.611913 
L 290.586446 -157.564579 
L 290.903802 -157.524902 
L 291.221157 -157.500764 
L 291.538512 -157.500309 
L 291.855868 -157.518248 
L 292.173223 -157.554304 
L 292.490579 -157.609129 
L 292.807934 -157.67861 
L 293.125289 -157.755648 
L 293.442645 -157.836349 
L 293.76 -157.914705 
L 294.077355 -157.98361 
L 294.394711 -158.044289 
L 294.712066 -158.102124 
L 295.029421 -158.163595 
L 295.346777 -158.227849 
L 295.664132 -158.297692 
L 295.981488 -158.374563 
L 296.298843 -158.460802 
L 296.616198 -158.552018 
L 296.933554 -158.642629 
L 297.250909 -158.73251 
L 297.568264 -158.816747 
L 297.88562 -158.893938 
L 298.202975 -158.965959 
L 298.520331 -159.029972 
L 298.837686 -159.095558 
L 299.155041 -159.156451 
L 299.472397 -159.205435 
L 299.789752 -159.248875 
L 300.107107 -159.288843 
L 300.424463 -159.328483 
L 300.741818 -159.364438 
L 301.059174 -159.393953 
L 301.376529 -159.41705 
L 301.693884 -159.435461 
L 302.01124 -159.445552 
L 302.328595 -159.445333 
L 302.64595 -159.441651 
L 302.963306 -159.439936 
L 303.280661 -159.432517 
L 303.598017 -159.422342 
L 303.915372 -159.412136 
L 304.232727 -159.398577 
L 304.550083 -159.377987 
L 304.867438 -159.351637 
L 305.184793 -159.323955 
L 305.502149 -159.300065 
L 305.819504 -159.278123 
L 306.13686 -159.256113 
L 306.454215 -159.239465 
L 306.77157 -159.231449 
L 307.088926 -159.228956 
L 307.406281 -159.226265 
L 307.723636 -159.220473 
L 308.040992 -159.217186 
L 308.358347 -159.212563 
L 308.675702 -159.20824 
L 308.993058 -159.206648 
L 309.310413 -159.210613 
L 309.627769 -159.220286 
L 309.945124 -159.245118 
L 310.262479 -159.282857 
L 310.579835 -159.333267 
L 310.89719 -159.392912 
L 311.214545 -159.458987 
L 311.531901 -159.523876 
L 311.849256 -159.589137 
L 312.166612 -159.651678 
L 312.483967 -159.714078 
L 312.801322 -159.769079 
L 313.118678 -159.815893 
L 313.436033 -159.858554 
L 313.753388 -159.897606 
L 314.070744 -159.939514 
L 314.388099 -159.991961 
L 314.705455 -160.054614 
L 315.02281 -160.125677 
L 315.340165 -160.198618 
L 315.657521 -160.270856 
L 315.974876 -160.33983 
L 316.292231 -160.405978 
L 316.609587 -160.466122 
L 316.926942 -160.513715 
L 317.244298 -160.550375 
L 317.561653 -160.576476 
L 317.879008 -160.602292 
L 318.196364 -160.632865 
L 318.513719 -160.665269 
L 318.831074 -160.704612 
L 319.14843 -160.746083 
L 319.465785 -160.787508 
L 319.78314 -160.830721 
L 320.100496 -160.864345 
L 320.417851 -160.882665 
L 320.735207 -160.88119 
L 321.052562 -160.860992 
L 321.369917 -160.823429 
L 321.687273 -160.772533 
L 322.004628 -160.714912 
L 322.321983 -160.650792 
L 322.639339 -160.581737 
L 322.956694 -160.504529 
L 323.27405 -160.420627 
L 323.591405 -160.333771 
L 323.90876 -160.243676 
L 324.226116 -160.149111 
L 324.543471 -160.052905 
L 324.860826 -159.956767 
L 325.178182 -159.858364 
L 325.495537 -159.749805 
L 325.812893 -159.634969 
L 326.130248 -159.516015 
L 326.447603 -159.39585 
L 326.764959 -159.273147 
L 327.082314 -159.148403 
L 327.399669 -159.018853 
L 327.717025 -158.888738 
L 328.03438 -158.751248 
L 328.351736 -158.600781 
L 328.669091 -158.445271 
L 328.986446 -158.290408 
L 329.303802 -158.139539 
L 329.621157 -157.989837 
L 329.938512 -157.846837 
L 330.255868 -157.702178 
L 330.573223 -157.555154 
L 330.890579 -157.402893 
L 331.207934 -157.251635 
L 331.525289 -157.102385 
L 331.842645 -156.953812 
L 332.16 -156.801536 
L 332.477355 -156.651777 
L 332.794711 -156.502306 
L 333.112066 -156.360854 
L 333.429421 -156.228435 
L 333.746777 -156.105571 
L 334.064132 -155.998346 
L 334.381488 -155.907752 
L 334.698843 -155.827801 
L 335.016198 -155.752477 
L 335.333554 -155.669769 
L 335.650909 -155.575203 
L 335.968264 -155.467531 
L 336.28562 -155.348456 
L 336.602975 -155.223955 
L 336.920331 -155.101388 
L 337.237686 -154.998893 
L 337.555041 -154.92891 
L 337.872397 -154.896883 
L 338.189752 -154.883822 
L 338.507107 -154.885831 
L 338.824463 -154.895289 
L 339.141818 -154.898404 
L 339.459174 -154.886065 
L 339.776529 -154.853929 
L 340.093884 -154.79892 
L 340.41124 -154.726568 
L 340.728595 -154.639808 
L 341.04595 -154.543603 
L 341.363306 -154.439506 
L 341.680661 -154.334004 
L 341.998017 -154.227491 
L 342.315372 -154.116798 
L 342.632727 -154.004314 
L 342.950083 -153.894845 
L 343.267438 -153.7926 
L 343.584793 -153.691735 
L 343.902149 -153.593701 
L 344.219504 -153.491209 
L 344.53686 -153.377872 
L 344.854215 -153.242429 
L 345.17157 -153.078752 
L 345.488926 -152.890963 
L 345.806281 -152.692108 
L 346.123636 -152.482218 
L 346.440992 -152.264116 
L 346.758347 -152.035699 
L 347.075702 -151.794139 
L 347.393058 -151.543346 
L 347.710413 -151.292354 
L 348.027769 -151.040727 
L 348.345124 -150.796656 
L 348.662479 -150.562099 
L 348.979835 -150.325424 
L 349.29719 -150.078689 
L 349.614545 -149.808478 
L 349.931901 -149.511571 
L 350.249256 -149.17606 
L 350.566612 -148.818719 
L 350.883967 -148.454453 
L 351.201322 -148.091983 
L 351.518678 -147.735479 
L 351.836033 -147.385099 
L 352.153388 -147.042886 
L 352.470744 -146.708929 
L 352.788099 -146.377878 
L 353.105455 -146.045607 
L 353.42281 -145.706395 
L 353.740165 -145.363431 
L 354.057521 -145.007491 
L 354.374876 -144.626661 
L 354.692231 -144.213158 
L 355.009587 -143.764422 
L 355.326942 -143.285 
L 355.644298 -142.788398 
L 355.961653 -142.281574 
L 356.279008 -141.77101 
L 356.596364 -141.263205 
L 356.913719 -140.751908 
L 357.231074 -140.234996 
L 357.54843 -139.699167 
L 357.865785 -139.134933 
L 358.18314 -138.534733 
L 358.500496 -137.908506 
L 358.817851 -137.258063 
L 359.135207 -136.602291 
L 359.452562 -135.955121 
L 359.769917 -135.328395 
L 360.087273 -134.730458 
L 360.404628 -134.15817 
L 360.721983 -133.610245 
L 361.039339 -133.083857 
L 361.356694 -132.573281 
L 361.67405 -132.066763 
L 361.991405 -131.565419 
L 362.30876 -131.067722 
L 362.626116 -130.57296 
L 362.943471 -130.07766 
L 363.260826 -129.571498 
L 363.578182 -129.05576 
L 363.895537 -128.527725 
L 364.212893 -127.985096 
L 364.530248 -127.442221 
L 364.847603 -126.911852 
L 365.164959 -126.413826 
L 365.482314 -125.957865 
L 365.799669 -125.542126 
L 366.117025 -125.167558 
L 366.43438 -124.844201 
L 366.751736 -124.58026 
L 367.069091 -124.387027 
L 367.386446 -124.272725 
L 367.703802 -124.229165 
L 368.021157 -124.23925 
L 368.338512 -124.292621 
L 368.655868 -124.370624 
L 368.973223 -124.459162 
L 369.290579 -124.558366 
L 369.607934 -124.661388 
L 369.925289 -124.778572 
L 370.242645 -124.915232 
L 370.56 -125.088256 
L 370.877355 -125.270751 
L 371.194711 -125.438565 
L 371.512066 -125.568819 
L 371.829421 -125.629549 
L 372.146777 -125.593471 
L 372.464132 -125.444407 
L 372.781488 -125.155728 
L 373.098843 -124.744362 
L 373.416198 -124.241765 
L 373.733554 -123.672006 
L 374.050909 -123.035351 
L 374.368264 -122.354599 
L 374.68562 -121.638799 
L 375.002975 -120.894536 
L 375.320331 -120.108011 
L 375.637686 -119.273633 
L 375.955041 -118.36815 
L 376.272397 -117.396033 
L 376.589752 -116.324879 
L 376.907107 -115.151662 
L 377.224463 -113.872871 
L 377.541818 -112.499918 
L 377.859174 -111.04565 
L 378.176529 -109.506395 
L 378.493884 -107.889477 
L 378.81124 -106.221246 
L 379.128595 -104.436628 
L 379.44595 -102.530584 
L 379.763306 -100.504553 
L 380.080661 -98.363222 
L 380.398017 -96.11377 
L 380.715372 -93.771927 
L 381.032727 -91.350292 
L 381.350083 -88.86323 
L 381.667438 -86.325217 
L 381.984793 -83.758335 
L 382.302149 -81.169442 
L 382.619504 -78.570921 
L 382.93686 -75.976673 
L 383.254215 -73.405073 
L 383.57157 -70.87871 
L 383.888926 -68.411526 
L 384.206281 -66.027866 
L 384.523636 -63.748797 
L 384.840992 -61.586235 
L 385.158347 -59.555193 
L 385.475702 -57.668189 
L 385.793058 -55.945948 
L 386.110413 -54.412668 
L 386.427769 -53.085028 
L 386.745124 -51.976982 
L 387.062479 -51.10451 
L 387.379835 -50.4857 
L 387.69719 -50.143335 
L 388.014545 -50.112 
L 388.331901 -50.434224 
L 388.649256 -51.152188 
L 388.966612 -51.668109 
L 389.283967 -52.164335 
L 389.601322 -52.647188 
L 389.918678 -53.127267 
L 390.236033 -53.605112 
L 390.553388 -54.081152 
L 390.870744 -54.546948 
L 391.188099 -55.016884 
L 391.505455 -55.502466 
L 391.82281 -56.019652 
L 392.140165 -56.591984 
L 392.457521 -57.245247 
L 392.774876 -57.996554 
L 393.092231 -58.874329 
L 393.409587 -59.864286 
L 393.726942 -60.939317 
L 394.044298 -62.078661 
L 394.361653 -63.279644 
L 394.679008 -64.52777 
L 394.996364 -65.821431 
L 395.313719 -67.159396 
L 395.631074 -68.560174 
L 395.94843 -70.029281 
L 396.265785 -71.587585 
L 396.58314 -73.230954 
L 396.900496 -74.990709 
L 397.217851 -76.864987 
L 397.535207 -78.858007 
L 397.852562 -80.956183 
L 398.169917 -83.149841 
L 398.487273 -171.919306 
L 398.487273 -171.919306 
L 398.487273 -171.919306 
L 398.169917 -171.919306 
L 397.852562 -171.919306 
L 397.535207 -171.919306 
L 397.217851 -171.919306 
L 396.900496 -171.919306 
L 396.58314 -171.919306 
L 396.265785 -171.919306 
L 395.94843 -171.919306 
L 395.631074 -171.919306 
L 395.313719 -171.919306 
L 394.996364 -171.919306 
L 394.679008 -171.919306 
L 394.361653 -171.919306 
L 394.044298 -171.919306 
L 393.726942 -171.919306 
L 393.409587 -171.919306 
L 393.092231 -171.919306 
L 392.774876 -171.919306 
L 392.457521 -171.919306 
L 392.140165 -171.919306 
L 391.82281 -171.919306 
L 391.505455 -171.919306 
L 391.188099 -171.919306 
L 390.870744 -171.919306 
L 390.553388 -171.919306 
L 390.236033 -171.919306 
L 389.918678 -171.919306 
L 389.601322 -171.919306 
L 389.283967 -171.919306 
L 388.966612 -171.919306 
L 388.649256 -171.919306 
L 388.331901 -171.919306 
L 388.014545 -171.919306 
L 387.69719 -171.919306 
L 387.379835 -171.919306 
L 387.062479 -171.919306 
L 386.745124 -171.919306 
L 386.427769 -171.919306 
L 386.110413 -171.919306 
L 385.793058 -171.919306 
L 385.475702 -171.919306 
L 385.158347 -171.919306 
L 384.840992 -171.919306 
L 384.523636 -171.919306 
L 384.206281 -171.919306 
L 383.888926 -171.919306 
L 383.57157 -171.919306 
L 383.254215 -171.919306 
L 382.93686 -171.919306 
L 382.619504 -171.919306 
L 382.302149 -171.919306 
L 381.984793 -171.919306 
L 381.667438 -171.919306 
L 381.350083 -171.919306 
L 381.032727 -171.919306 
L 380.715372 -171.919306 
L 380.398017 -171.919306 
L 380.080661 -171.919306 
L 379.763306 -171.919306 
L 379.44595 -171.919306 
L 379.128595 -171.919306 
L 378.81124 -171.919306 
L 378.493884 -171.919306 
L 378.176529 -171.919306 
L 377.859174 -171.919306 
L 377.541818 -171.919306 
L 377.224463 -171.919306 
L 376.907107 -171.919306 
L 376.589752 -171.919306 
L 376.272397 -171.919306 
L 375.955041 -171.919306 
L 375.637686 -171.919306 
L 375.320331 -171.919306 
L 375.002975 -171.919306 
L 374.68562 -171.919306 
L 374.368264 -171.919306 
L 374.050909 -171.919306 
L 373.733554 -171.919306 
L 373.416198 -171.919306 
L 373.098843 -171.919306 
L 372.781488 -171.919306 
L 372.464132 -171.919306 
L 372.146777 -171.919306 
L 371.829421 -171.919306 
L 371.512066 -171.919306 
L 371.194711 -171.919306 
L 370.877355 -171.919306 
L 370.56 -171.919306 
L 370.242645 -171.919306 
L 369.925289 -171.919306 
L 369.607934 -171.919306 
L 369.290579 -171.919306 
L 368.973223 -171.919306 
L 368.655868 -171.919306 
L 368.338512 -171.919306 
L 368.021157 -171.919306 
L 367.703802 -171.919306 
L 367.386446 -171.919306 
L 367.069091 -171.919306 
L 366.751736 -171.919306 
L 366.43438 -171.919306 
L 366.117025 -171.919306 
L 365.799669 -171.919306 
L 365.482314 -171.919306 
L 365.164959 -171.919306 
L 364.847603 -171.919306 
L 364.530248 -171.919306 
L 364.212893 -171.919306 
L 363.895537 -171.919306 
L 363.578182 -171.919306 
L 363.260826 -171.919306 
L 362.943471 -171.919306 
L 362.626116 -171.919306 
L 362.30876 -171.919306 
L 361.991405 -171.919306 
L 361.67405 -171.919306 
L 361.356694 -171.919306 
L 361.039339 -171.919306 
L 360.721983 -171.919306 
L 360.404628 -171.919306 
L 360.087273 -171.919306 
L 359.769917 -171.919306 
L 359.452562 -171.919306 
L 359.135207 -171.919306 
L 358.817851 -171.919306 
L 358.500496 -171.919306 
L 358.18314 -171.919306 
L 357.865785 -171.919306 
L 357.54843 -171.919306 
L 357.231074 -171.919306 
L 356.913719 -171.919306 
L 356.596364 -171.919306 
L 356.279008 -171.919306 
L 355.961653 -171.919306 
L 355.644298 -171.919306 
L 355.326942 -171.919306 
L 355.009587 -171.919306 
L 354.692231 -171.919306 
L 354.374876 -171.919306 
L 354.057521 -171.919306 
L 353.740165 -171.919306 
L 353.42281 -171.919306 
L 353.105455 -171.919306 
L 352.788099 -171.919306 
L 352.470744 -171.919306 
L 352.153388 -171.919306 
L 351.836033 -171.919306 
L 351.518678 -171.919306 
L 351.201322 -171.919306 
L 350.883967 -171.919306 
L 350.566612 -171.919306 
L 350.249256 -171.919306 
L 349.931901 -171.919306 
L 349.614545 -171.919306 
L 349.29719 -171.919306 
L 348.979835 -171.919306 
L 348.662479 -171.919306 
L 348.345124 -171.919306 
L 348.027769 -171.919306 
L 347.710413 -171.919306 
L 347.393058 -171.919306 
L 347.075702 -171.919306 
L 346.758347 -171.919306 
L 346.440992 -171.919306 
L 346.123636 -171.919306 
L 345.806281 -171.919306 
L 345.488926 -171.919306 
L 345.17157 -171.919306 
L 344.854215 -171.919306 
L 344.53686 -171.919306 
L 344.219504 -171.919306 
L 343.902149 -171.919306 
L 343.584793 -171.919306 
L 343.267438 -171.919306 
L 342.950083 -171.919306 
L 342.632727 -171.919306 
L 342.315372 -171.919306 
L 341.998017 -171.919306 
L 341.680661 -171.919306 
L 341.363306 -171.919306 
L 341.04595 -171.919306 
L 340.728595 -171.919306 
L 340.41124 -171.919306 
L 340.093884 -171.919306 
L 339.776529 -171.919306 
L 339.459174 -171.919306 
L 339.141818 -171.919306 
L 338.824463 -171.919306 
L 338.507107 -171.919306 
L 338.189752 -171.919306 
L 337.872397 -171.919306 
L 337.555041 -171.919306 
L 337.237686 -171.919306 
L 336.920331 -171.919306 
L 336.602975 -171.919306 
L 336.28562 -171.919306 
L 335.968264 -171.919306 
L 335.650909 -171.919306 
L 335.333554 -171.919306 
L 335.016198 -171.919306 
L 334.698843 -171.919306 
L 334.381488 -171.919306 
L 334.064132 -171.919306 
L 333.746777 -171.919306 
L 333.429421 -171.919306 
L 333.112066 -171.919306 
L 332.794711 -171.919306 
L 332.477355 -171.919306 
L 332.16 -171.919306 
L 331.842645 -171.919306 
L 331.525289 -171.919306 
L 331.207934 -171.919306 
L 330.890579 -171.919306 
L 330.573223 -171.919306 
L 330.255868 -171.919306 
L 329.938512 -171.919306 
L 329.621157 -171.919306 
L 329.303802 -171.919306 
L 328.986446 -171.919306 
L 328.669091 -171.919306 
L 328.351736 -171.919306 
L 328.03438 -171.919306 
L 327.717025 -171.919306 
L 327.399669 -171.919306 
L 327.082314 -171.919306 
L 326.764959 -171.919306 
L 326.447603 -171.919306 
L 326.130248 -171.919306 
L 325.812893 -171.919306 
L 325.495537 -171.919306 
L 325.178182 -171.919306 
L 324.860826 -171.919306 
L 324.543471 -171.919306 
L 324.226116 -171.919306 
L 323.90876 -171.919306 
L 323.591405 -171.919306 
L 323.27405 -171.919306 
L 322.956694 -171.919306 
L 322.639339 -171.919306 
L 322.321983 -171.919306 
L 322.004628 -171.919306 
L 321.687273 -171.919306 
L 321.369917 -171.919306 
L 321.052562 -171.919306 
L 320.735207 -171.919306 
L 320.417851 -171.919306 
L 320.100496 -171.919306 
L 319.78314 -171.919306 
L 319.465785 -171.919306 
L 319.14843 -171.919306 
L 318.831074 -171.919306 
L 318.513719 -171.919306 
L 318.196364 -171.919306 
L 317.879008 -171.919306 
L 317.561653 -171.919306 
L 317.244298 -171.919306 
L 316.926942 -171.919306 
L 316.609587 -171.919306 
L 316.292231 -171.919306 
L 315.974876 -171.919306 
L 315.657521 -171.919306 
L 315.340165 -171.919306 
L 315.02281 -171.919306 
L 314.705455 -171.919306 
L 314.388099 -171.919306 
L 314.070744 -171.919306 
L 313.753388 -171.919306 
L 313.436033 -171.919306 
L 313.118678 -171.919306 
L 312.801322 -171.919306 
L 312.483967 -171.919306 
L 312.166612 -171.919306 
L 311.849256 -171.919306 
L 311.531901 -171.919306 
L 311.214545 -171.919306 
L 310.89719 -171.919306 
L 310.579835 -171.919306 
L 310.262479 -171.919306 
L 309.945124 -171.919306 
L 309.627769 -171.919306 
L 309.310413 -171.919306 
L 308.993058 -171.919306 
L 308.675702 -171.919306 
L 308.358347 -171.919306 
L 308.040992 -171.919306 
L 307.723636 -171.919306 
L 307.406281 -171.919306 
L 307.088926 -171.919306 
L 306.77157 -171.919306 
L 306.454215 -171.919306 
L 306.13686 -171.919306 
L 305.819504 -171.919306 
L 305.502149 -171.919306 
L 305.184793 -171.919306 
L 304.867438 -171.919306 
L 304.550083 -171.919306 
L 304.232727 -171.919306 
L 303.915372 -171.919306 
L 303.598017 -171.919306 
L 303.280661 -171.919306 
L 302.963306 -171.919306 
L 302.64595 -171.919306 
L 302.328595 -171.919306 
L 302.01124 -171.919306 
L 301.693884 -171.919306 
L 301.376529 -171.919306 
L 301.059174 -171.919306 
L 300.741818 -171.919306 
L 300.424463 -171.919306 
L 300.107107 -171.919306 
L 299.789752 -171.919306 
L 299.472397 -171.919306 
L 299.155041 -171.919306 
L 298.837686 -171.919306 
L 298.520331 -171.919306 
L 298.202975 -171.919306 
L 297.88562 -171.919306 
L 297.568264 -171.919306 
L 297.250909 -171.919306 
L 296.933554 -171.919306 
L 296.616198 -171.919306 
L 296.298843 -171.919306 
L 295.981488 -171.919306 
L 295.664132 -171.919306 
L 295.346777 -171.919306 
L 295.029421 -171.919306 
L 294.712066 -171.919306 
L 294.394711 -171.919306 
L 294.077355 -171.919306 
L 293.76 -171.919306 
L 293.442645 -171.919306 
L 293.125289 -171.919306 
L 292.807934 -171.919306 
L 292.490579 -171.919306 
L 292.173223 -171.919306 
L 291.855868 -171.919306 
L 291.538512 -171.919306 
L 291.221157 -171.919306 
L 290.903802 -171.919306 
L 290.586446 -171.919306 
L 290.269091 -171.919306 
L 289.951736 -171.919306 
L 289.63438 -171.919306 
L 289.317025 -171.919306 
L 288.999669 -171.919306 
L 288.682314 -171.919306 
L 288.364959 -171.919306 
L 288.047603 -171.919306 
L 287.730248 -171.919306 
L 287.412893 -171.919306 
L 287.095537 -171.919306 
L 286.778182 -171.919306 
L 286.460826 -171.919306 
L 286.143471 -171.919306 
L 285.826116 -171.919306 
L 285.50876 -171.919306 
L 285.191405 -171.919306 
L 284.87405 -171.919306 
L 284.556694 -171.919306 
L 284.239339 -171.919306 
L 283.921983 -171.919306 
L 283.604628 -171.919306 
L 283.287273 -171.919306 
L 282.969917 -171.919306 
L 282.652562 -171.919306 
L 282.335207 -171.919306 
L 282.017851 -171.919306 
L 281.700496 -171.919306 
L 281.38314 -171.919306 
L 281.065785 -171.919306 
L 280.74843 -171.919306 
L 280.431074 -171.919306 
L 280.113719 -171.919306 
L 279.796364 -171.919306 
L 279.479008 -171.919306 
L 279.161653 -171.919306 
L 278.844298 -171.919306 
L 278.526942 -171.919306 
L 278.209587 -171.919306 
L 277.892231 -171.919306 
L 277.574876 -171.919306 
L 277.257521 -171.919306 
L 276.940165 -171.919306 
L 276.62281 -171.919306 
L 276.305455 -171.919306 
L 275.988099 -171.919306 
L 275.670744 -171.919306 
L 275.353388 -171.919306 
L 275.036033 -171.919306 
L 274.718678 -171.919306 
L 274.401322 -171.919306 
L 274.083967 -171.919306 
L 273.766612 -171.919306 
L 273.449256 -171.919306 
L 273.131901 -171.919306 
L 272.814545 -171.919306 
L 272.49719 -171.919306 
L 272.179835 -171.919306 
L 271.862479 -171.919306 
L 271.545124 -171.919306 
L 271.227769 -171.919306 
L 270.910413 -171.919306 
L 270.593058 -171.919306 
L 270.275702 -171.919306 
L 269.958347 -171.919306 
L 269.640992 -171.919306 
L 269.323636 -171.919306 
L 269.006281 -171.919306 
L 268.688926 -171.919306 
L 268.37157 -171.919306 
L 268.054215 -171.919306 
L 267.73686 -171.919306 
L 267.419504 -171.919306 
L 267.102149 -171.919306 
L 266.784793 -171.919306 
L 266.467438 -171.919306 
L 266.150083 -171.919306 
L 265.832727 -171.919306 
L 265.515372 -171.919306 
L 265.198017 -171.919306 
L 264.880661 -171.919306 
L 264.563306 -171.919306 
L 264.24595 -171.919306 
L 263.928595 -171.919306 
L 263.61124 -171.919306 
L 263.293884 -171.919306 
L 262.976529 -171.919306 
L 262.659174 -171.919306 
L 262.341818 -171.919306 
L 262.024463 -171.919306 
L 261.707107 -171.919306 
L 261.389752 -171.919306 
L 261.072397 -171.919306 
L 260.755041 -171.919306 
L 260.437686 -171.919306 
L 260.120331 -171.919306 
L 259.802975 -171.919306 
L 259.48562 -171.919306 
L 259.168264 -171.919306 
L 258.850909 -171.919306 
L 258.533554 -171.919306 
L 258.216198 -171.919306 
L 257.898843 -171.919306 
L 257.581488 -171.919306 
L 257.264132 -171.919306 
L 256.946777 -171.919306 
L 256.629421 -171.919306 
L 256.312066 -171.919306 
L 255.994711 -171.919306 
L 255.677355 -171.919306 
L 255.36 -171.919306 
L 255.042645 -171.919306 
L 254.725289 -171.919306 
L 254.407934 -171.919306 
L 254.090579 -171.919306 
L 253.773223 -171.919306 
L 253.455868 -171.919306 
L 253.138512 -171.919306 
L 252.821157 -171.919306 
L 252.503802 -171.919306 
L 252.186446 -171.919306 
L 251.869091 -171.919306 
L 251.551736 -171.919306 
L 251.23438 -171.919306 
L 250.917025 -171.919306 
L 250.599669 -171.919306 
L 250.282314 -171.919306 
L 249.964959 -171.919306 
L 249.647603 -171.919306 
L 249.330248 -171.919306 
L 249.012893 -171.919306 
L 248.695537 -171.919306 
L 248.378182 -171.919306 
L 248.060826 -171.919306 
L 247.743471 -171.919306 
L 247.426116 -171.919306 
L 247.10876 -171.919306 
L 246.791405 -171.919306 
L 246.47405 -171.919306 
L 246.156694 -171.919306 
L 245.839339 -171.919306 
L 245.521983 -171.919306 
L 245.204628 -171.919306 
L 244.887273 -171.919306 
L 244.569917 -171.919306 
L 244.252562 -171.919306 
L 243.935207 -171.919306 
L 243.617851 -171.919306 
L 243.300496 -171.919306 
L 242.98314 -171.919306 
L 242.665785 -171.919306 
L 242.34843 -171.919306 
L 242.031074 -171.919306 
L 241.713719 -171.919306 
L 241.396364 -171.919306 
L 241.079008 -171.919306 
L 240.761653 -171.919306 
L 240.444298 -171.919306 
L 240.126942 -171.919306 
L 239.809587 -171.919306 
L 239.492231 -171.919306 
L 239.174876 -171.919306 
L 238.857521 -171.919306 
L 238.540165 -171.919306 
L 238.22281 -171.919306 
L 237.905455 -171.919306 
L 237.588099 -171.919306 
L 237.270744 -171.919306 
L 236.953388 -171.919306 
L 236.636033 -171.919306 
L 236.318678 -171.919306 
L 236.001322 -171.919306 
L 235.683967 -171.919306 
L 235.366612 -171.919306 
L 235.049256 -171.919306 
L 234.731901 -171.919306 
L 234.414545 -171.919306 
L 234.09719 -171.919306 
L 233.779835 -171.919306 
L 233.462479 -171.919306 
L 233.145124 -171.919306 
L 232.827769 -171.919306 
L 232.510413 -171.919306 
L 232.193058 -171.919306 
L 231.875702 -171.919306 
L 231.558347 -171.919306 
L 231.240992 -171.919306 
L 230.923636 -171.919306 
L 230.606281 -171.919306 
L 230.288926 -171.919306 
L 229.97157 -171.919306 
L 229.654215 -171.919306 
L 229.33686 -171.919306 
L 229.019504 -171.919306 
L 228.702149 -171.919306 
L 228.384793 -171.919306 
L 228.067438 -171.919306 
L 227.750083 -171.919306 
L 227.432727 -171.919306 
L 227.115372 -171.919306 
L 226.798017 -171.919306 
L 226.480661 -171.919306 
L 226.163306 -171.919306 
L 225.84595 -171.919306 
L 225.528595 -171.919306 
L 225.21124 -171.919306 
L 224.893884 -171.919306 
L 224.576529 -171.919306 
L 224.259174 -171.919306 
L 223.941818 -171.919306 
L 223.624463 -171.919306 
L 223.307107 -171.919306 
L 222.989752 -171.919306 
L 222.672397 -171.919306 
L 222.355041 -171.919306 
L 222.037686 -171.919306 
L 221.720331 -171.919306 
L 221.402975 -171.919306 
L 221.08562 -171.919306 
L 220.768264 -171.919306 
L 220.450909 -171.919306 
L 220.133554 -171.919306 
L 219.816198 -171.919306 
L 219.498843 -171.919306 
L 219.181488 -171.919306 
L 218.864132 -171.919306 
L 218.546777 -171.919306 
L 218.229421 -171.919306 
L 217.912066 -171.919306 
L 217.594711 -171.919306 
L 217.277355 -171.919306 
L 216.96 -171.919306 
L 216.642645 -171.919306 
L 216.325289 -171.919306 
L 216.007934 -171.919306 
L 215.690579 -171.919306 
L 215.373223 -171.919306 
L 215.055868 -171.919306 
L 214.738512 -171.919306 
L 214.421157 -171.919306 
L 214.103802 -171.919306 
L 213.786446 -171.919306 
L 213.469091 -171.919306 
L 213.151736 -171.919306 
L 212.83438 -171.919306 
L 212.517025 -171.919306 
L 212.199669 -171.919306 
L 211.882314 -171.919306 
L 211.564959 -171.919306 
L 211.247603 -171.919306 
L 210.930248 -171.919306 
L 210.612893 -171.919306 
L 210.295537 -171.919306 
L 209.978182 -171.919306 
L 209.660826 -171.919306 
L 209.343471 -171.919306 
L 209.026116 -171.919306 
L 208.70876 -171.919306 
L 208.391405 -171.919306 
L 208.07405 -171.919306 
L 207.756694 -171.919306 
L 207.439339 -171.919306 
L 207.121983 -171.919306 
L 206.804628 -171.919306 
L 206.487273 -171.919306 
L 206.169917 -171.919306 
L 205.852562 -171.919306 
L 205.535207 -171.919306 
L 205.217851 -171.919306 
L 204.900496 -171.919306 
L 204.58314 -171.919306 
L 204.265785 -171.919306 
L 203.94843 -171.919306 
L 203.631074 -171.919306 
L 203.313719 -171.919306 
L 202.996364 -171.919306 
L 202.679008 -171.919306 
L 202.361653 -171.919306 
L 202.044298 -171.919306 
L 201.726942 -171.919306 
L 201.409587 -171.919306 
L 201.092231 -171.919306 
L 200.774876 -171.919306 
L 200.457521 -171.919306 
L 200.140165 -171.919306 
L 199.82281 -171.919306 
L 199.505455 -171.919306 
L 199.188099 -171.919306 
L 198.870744 -171.919306 
L 198.553388 -171.919306 
L 198.236033 -171.919306 
L 197.918678 -171.919306 
L 197.601322 -171.919306 
L 197.283967 -171.919306 
L 196.966612 -171.919306 
L 196.649256 -171.919306 
L 196.331901 -171.919306 
L 196.014545 -171.919306 
L 195.69719 -171.919306 
L 195.379835 -171.919306 
L 195.062479 -171.919306 
L 194.745124 -171.919306 
L 194.427769 -171.919306 
L 194.110413 -171.919306 
L 193.793058 -171.919306 
L 193.475702 -171.919306 
L 193.158347 -171.919306 
L 192.840992 -171.919306 
L 192.523636 -171.919306 
L 192.206281 -171.919306 
L 191.888926 -171.919306 
L 191.57157 -171.919306 
L 191.254215 -171.919306 
L 190.93686 -171.919306 
L 190.619504 -171.919306 
L 190.302149 -171.919306 
L 189.984793 -171.919306 
L 189.667438 -171.919306 
L 189.350083 -171.919306 
L 189.032727 -171.919306 
L 188.715372 -171.919306 
L 188.398017 -171.919306 
L 188.080661 -171.919306 
L 187.763306 -171.919306 
L 187.44595 -171.919306 
L 187.128595 -171.919306 
L 186.81124 -171.919306 
L 186.493884 -171.919306 
L 186.176529 -171.919306 
L 185.859174 -171.919306 
L 185.541818 -171.919306 
L 185.224463 -171.919306 
L 184.907107 -171.919306 
L 184.589752 -171.919306 
L 184.272397 -171.919306 
L 183.955041 -171.919306 
L 183.637686 -171.919306 
L 183.320331 -171.919306 
L 183.002975 -171.919306 
L 182.68562 -171.919306 
L 182.368264 -171.919306 
L 182.050909 -171.919306 
L 181.733554 -171.919306 
L 181.416198 -171.919306 
L 181.098843 -171.919306 
L 180.781488 -171.919306 
L 180.464132 -171.919306 
L 180.146777 -171.919306 
L 179.829421 -171.919306 
L 179.512066 -171.919306 
L 179.194711 -171.919306 
L 178.877355 -171.919306 
L 178.56 -171.919306 
L 178.242645 -171.919306 
L 177.925289 -171.919306 
L 177.607934 -171.919306 
L 177.290579 -171.919306 
L 176.973223 -171.919306 
L 176.655868 -171.919306 
L 176.338512 -171.919306 
L 176.021157 -171.919306 
L 175.703802 -171.919306 
L 175.386446 -171.919306 
L 175.069091 -171.919306 
L 174.751736 -171.919306 
L 174.43438 -171.919306 
L 174.117025 -171.919306 
L 173.799669 -171.919306 
L 173.482314 -171.919306 
L 173.164959 -171.919306 
L 172.847603 -171.919306 
L 172.530248 -171.919306 
L 172.212893 -171.919306 
L 171.895537 -171.919306 
L 171.578182 -171.919306 
L 171.260826 -171.919306 
L 170.943471 -171.919306 
L 170.626116 -171.919306 
L 170.30876 -171.919306 
L 169.991405 -171.919306 
L 169.67405 -171.919306 
L 169.356694 -171.919306 
L 169.039339 -171.919306 
L 168.721983 -171.919306 
L 168.404628 -171.919306 
L 168.087273 -171.919306 
L 167.769917 -171.919306 
L 167.452562 -171.919306 
L 167.135207 -171.919306 
L 166.817851 -171.919306 
L 166.500496 -171.919306 
L 166.18314 -171.919306 
L 165.865785 -171.919306 
L 165.54843 -171.919306 
L 165.231074 -171.919306 
L 164.913719 -171.919306 
L 164.596364 -171.919306 
L 164.279008 -171.919306 
L 163.961653 -171.919306 
L 163.644298 -171.919306 
L 163.326942 -171.919306 
L 163.009587 -171.919306 
L 162.692231 -171.919306 
L 162.374876 -171.919306 
L 162.057521 -171.919306 
L 161.740165 -171.919306 
L 161.42281 -171.919306 
L 161.105455 -171.919306 
L 160.788099 -171.919306 
L 160.470744 -171.919306 
L 160.153388 -171.919306 
L 159.836033 -171.919306 
L 159.518678 -171.919306 
L 159.201322 -171.919306 
L 158.883967 -171.919306 
L 158.566612 -171.919306 
L 158.249256 -171.919306 
L 157.931901 -171.919306 
L 157.614545 -171.919306 
L 157.29719 -171.919306 
L 156.979835 -171.919306 
L 156.662479 -171.919306 
L 156.345124 -171.919306 
L 156.027769 -171.919306 
L 155.710413 -171.919306 
L 155.393058 -171.919306 
L 155.075702 -171.919306 
L 154.758347 -171.919306 
L 154.440992 -171.919306 
L 154.123636 -171.919306 
L 153.806281 -171.919306 
L 153.488926 -171.919306 
L 153.17157 -171.919306 
L 152.854215 -171.919306 
L 152.53686 -171.919306 
L 152.219504 -171.919306 
L 151.902149 -171.919306 
L 151.584793 -171.919306 
L 151.267438 -171.919306 
L 150.950083 -171.919306 
L 150.632727 -171.919306 
L 150.315372 -171.919306 
L 149.998017 -171.919306 
L 149.680661 -171.919306 
L 149.363306 -171.919306 
L 149.04595 -171.919306 
L 148.728595 -171.919306 
L 148.41124 -171.919306 
L 148.093884 -171.919306 
L 147.776529 -171.919306 
L 147.459174 -171.919306 
L 147.141818 -171.919306 
L 146.824463 -171.919306 
L 146.507107 -171.919306 
L 146.189752 -171.919306 
L 145.872397 -171.919306 
L 145.555041 -171.919306 
L 145.237686 -171.919306 
L 144.920331 -171.919306 
L 144.602975 -171.919306 
L 144.28562 -171.919306 
L 143.968264 -171.919306 
L 143.650909 -171.919306 
L 143.333554 -171.919306 
L 143.016198 -171.919306 
L 142.698843 -171.919306 
L 142.381488 -171.919306 
L 142.064132 -171.919306 
L 141.746777 -171.919306 
L 141.429421 -171.919306 
L 141.112066 -171.919306 
L 140.794711 -171.919306 
L 140.477355 -171.919306 
L 140.16 -171.919306 
L 139.842645 -171.919306 
L 139.525289 -171.919306 
L 139.207934 -171.919306 
L 138.890579 -171.919306 
L 138.573223 -171.919306 
L 138.255868 -171.919306 
L 137.938512 -171.919306 
L 137.621157 -171.919306 
L 137.303802 -171.919306 
L 136.986446 -171.919306 
L 136.669091 -171.919306 
L 136.351736 -171.919306 
L 136.03438 -171.919306 
L 135.717025 -171.919306 
L 135.399669 -171.919306 
L 135.082314 -171.919306 
L 134.764959 -171.919306 
L 134.447603 -171.919306 
L 134.130248 -171.919306 
L 133.812893 -171.919306 
L 133.495537 -171.919306 
L 133.178182 -171.919306 
L 132.860826 -171.919306 
L 132.543471 -171.919306 
L 132.226116 -171.919306 
L 131.90876 -171.919306 
L 131.591405 -171.919306 
L 131.27405 -171.919306 
L 130.956694 -171.919306 
L 130.639339 -171.919306 
L 130.321983 -171.919306 
L 130.004628 -171.919306 
L 129.687273 -171.919306 
L 129.369917 -171.919306 
L 129.052562 -171.919306 
L 128.735207 -171.919306 
L 128.417851 -171.919306 
L 128.100496 -171.919306 
L 127.78314 -171.919306 
L 127.465785 -171.919306 
L 127.14843 -171.919306 
L 126.831074 -171.919306 
L 126.513719 -171.919306 
L 126.196364 -171.919306 
L 125.879008 -171.919306 
L 125.561653 -171.919306 
L 125.244298 -171.919306 
L 124.926942 -171.919306 
L 124.609587 -171.919306 
L 124.292231 -171.919306 
L 123.974876 -171.919306 
L 123.657521 -171.919306 
L 123.340165 -171.919306 
L 123.02281 -171.919306 
L 122.705455 -171.919306 
L 122.388099 -171.919306 
L 122.070744 -171.919306 
L 121.753388 -171.919306 
L 121.436033 -171.919306 
L 121.118678 -171.919306 
L 120.801322 -171.919306 
L 120.483967 -171.919306 
L 120.166612 -171.919306 
L 119.849256 -171.919306 
L 119.531901 -171.919306 
L 119.214545 -171.919306 
L 118.89719 -171.919306 
L 118.579835 -171.919306 
L 118.262479 -171.919306 
L 117.945124 -171.919306 
L 117.627769 -171.919306 
L 117.310413 -171.919306 
L 116.993058 -171.919306 
L 116.675702 -171.919306 
L 116.358347 -171.919306 
L 116.040992 -171.919306 
L 115.723636 -171.919306 
L 115.406281 -171.919306 
L 115.088926 -171.919306 
L 114.77157 -171.919306 
L 114.454215 -171.919306 
L 114.13686 -171.919306 
L 113.819504 -171.919306 
L 113.502149 -171.919306 
L 113.184793 -171.919306 
L 112.867438 -171.919306 
L 112.550083 -171.919306 
L 112.232727 -171.919306 
L 111.915372 -171.919306 
L 111.598017 -171.919306 
L 111.280661 -171.919306 
L 110.963306 -171.919306 
L 110.64595 -171.919306 
L 110.328595 -171.919306 
L 110.01124 -171.919306 
L 109.693884 -171.919306 
L 109.376529 -171.919306 
L 109.059174 -171.919306 
L 108.741818 -171.919306 
L 108.424463 -171.919306 
L 108.107107 -171.919306 
L 107.789752 -171.919306 
L 107.472397 -171.919306 
L 107.155041 -171.919306 
L 106.837686 -171.919306 
L 106.520331 -171.919306 
L 106.202975 -171.919306 
L 105.88562 -171.919306 
L 105.568264 -171.919306 
L 105.250909 -171.919306 
L 104.933554 -171.919306 
L 104.616198 -171.919306 
L 104.298843 -171.919306 
L 103.981488 -171.919306 
L 103.664132 -171.919306 
L 103.346777 -171.919306 
L 103.029421 -171.919306 
L 102.712066 -171.919306 
L 102.394711 -171.919306 
L 102.077355 -171.919306 
L 101.76 -171.919306 
L 101.442645 -171.919306 
L 101.125289 -171.919306 
L 100.807934 -171.919306 
L 100.490579 -171.919306 
L 100.173223 -171.919306 
L 99.855868 -171.919306 
L 99.538512 -171.919306 
L 99.221157 -171.919306 
L 98.903802 -171.919306 
L 98.586446 -171.919306 
L 98.269091 -171.919306 
L 97.951736 -171.919306 
L 97.63438 -171.919306 
L 97.317025 -171.919306 
L 96.999669 -171.919306 
L 96.682314 -171.919306 
L 96.364959 -171.919306 
L 96.047603 -171.919306 
L 95.730248 -171.919306 
L 95.412893 -171.919306 
L 95.095537 -171.919306 
L 94.778182 -171.919306 
L 94.460826 -171.919306 
L 94.143471 -171.919306 
L 93.826116 -171.919306 
L 93.50876 -171.919306 
L 93.191405 -171.919306 
L 92.87405 -171.919306 
L 92.556694 -171.919306 
L 92.239339 -171.919306 
L 91.921983 -171.919306 
L 91.604628 -171.919306 
L 91.287273 -171.919306 
L 90.969917 -171.919306 
L 90.652562 -171.919306 
L 90.335207 -171.919306 
L 90.017851 -171.919306 
L 89.700496 -171.919306 
L 89.38314 -171.919306 
L 89.065785 -171.919306 
L 88.74843 -171.919306 
L 88.431074 -171.919306 
L 88.113719 -171.919306 
L 87.796364 -171.919306 
L 87.479008 -171.919306 
L 87.161653 -171.919306 
L 86.844298 -171.919306 
L 86.526942 -171.919306 
L 86.209587 -171.919306 
L 85.892231 -171.919306 
L 85.574876 -171.919306 
L 85.257521 -171.919306 
L 84.940165 -171.919306 
L 84.62281 -171.919306 
L 84.305455 -171.919306 
L 83.988099 -171.919306 
L 83.670744 -171.919306 
L 83.353388 -171.919306 
L 83.036033 -171.919306 
L 82.718678 -171.919306 
L 82.401322 -171.919306 
L 82.083967 -171.919306 
L 81.766612 -171.919306 
L 81.449256 -171.919306 
L 81.131901 -171.919306 
L 80.814545 -171.919306 
L 80.49719 -171.919306 
L 80.179835 -171.919306 
L 79.862479 -171.919306 
L 79.545124 -171.919306 
L 79.227769 -171.919306 
L 78.910413 -171.919306 
L 78.593058 -171.919306 
L 78.275702 -171.919306 
L 77.958347 -171.919306 
L 77.640992 -171.919306 
L 77.323636 -171.919306 
L 77.006281 -171.919306 
L 76.688926 -171.919306 
L 76.37157 -171.919306 
L 76.054215 -171.919306 
L 75.73686 -171.919306 
L 75.419504 -171.919306 
L 75.102149 -171.919306 
L 74.784793 -171.919306 
L 74.467438 -171.919306 
L 74.150083 -171.919306 
L 73.832727 -171.919306 
z
" style="stroke: #87ceeb; stroke-opacity: 0.75"/>
    </defs>
    <g clip-path="url(#p181941df10)">
     <use xlink:href="#m9c2c0eb938" x="0" y="345.6" style="fill: #87ceeb; fill-opacity: 0.75; stroke: #87ceeb; stroke-opacity: 0.75"/>
    </g>
   </g>
   <g id="matplotlib.axis_1">
    <g id="xtick_1">
     <g id="line2d_1">
      <defs>
       <path id="md4cbeba42c" d="M 0 0 
L 0 3.5 
" style="stroke: #000000; stroke-width: 0.8"/>
      </defs>
      <g>
       <use xlink:href="#md4cbeba42c" x="73.832727" y="307.584" style="stroke: #000000; stroke-width: 0.8"/>
      </g>
     </g>
     <g id="text_1">
      <!-- 0 -->
      <g transform="translate(70.531868 322.161969) scale(0.11 -0.11)">
       <defs>
        <path id="AndaleMono-30" d="M 1913 4494 
Q 2613 4494 2989 3892 
Q 3366 3291 3366 2203 
Q 3366 1150 3000 533 
Q 2634 -84 1913 -84 
Q 1216 -84 837 516 
Q 459 1116 459 2203 
Q 459 3259 826 3876 
Q 1194 4494 1913 4494 
z
M 1913 366 
Q 2375 366 2598 805 
Q 2822 1244 2822 2203 
Q 2822 3166 2598 3602 
Q 2375 4038 1913 4038 
Q 1456 4038 1231 3591 
Q 1006 3144 1006 2203 
Q 1006 1250 1229 808 
Q 1453 366 1913 366 
z
M 1900 2672 
Q 2097 2672 2233 2536 
Q 2369 2400 2369 2203 
Q 2369 2000 2231 1854 
Q 2094 1709 1900 1709 
Q 1709 1709 1573 1854 
Q 1438 2000 1438 2203 
Q 1438 2403 1570 2537 
Q 1703 2672 1900 2672 
z
" transform="scale(0.015625)"/>
       </defs>
       <use xlink:href="#AndaleMono-30"/>
      </g>
     </g>
    </g>
    <g id="xtick_2">
     <g id="line2d_2">
      <g>
       <use xlink:href="#md4cbeba42c" x="137.303802" y="307.584" style="stroke: #000000; stroke-width: 0.8"/>
      </g>
     </g>
     <g id="text_2">
      <!-- 200 -->
      <g transform="translate(127.401224 322.161969) scale(0.11 -0.11)">
       <defs>
        <path id="AndaleMono-32" d="M 3066 0 
L 641 0 
L 641 372 
Q 1563 1400 1838 1750 
Q 2113 2100 2284 2484 
Q 2456 2869 2456 3250 
Q 2456 3619 2232 3831 
Q 2009 4044 1606 4044 
Q 1297 4044 775 3853 
L 703 4294 
Q 1175 4494 1691 4494 
Q 2281 4494 2642 4161 
Q 3003 3828 3003 3272 
Q 3003 2875 2817 2484 
Q 2631 2094 2340 1734 
Q 2050 1375 1209 447 
L 3066 447 
L 3066 0 
z
" transform="scale(0.015625)"/>
       </defs>
       <use xlink:href="#AndaleMono-32"/>
       <use xlink:href="#AndaleMono-30" x="60.009766"/>
       <use xlink:href="#AndaleMono-30" x="120.019531"/>
      </g>
     </g>
    </g>
    <g id="xtick_3">
     <g id="line2d_3">
      <g>
       <use xlink:href="#md4cbeba42c" x="200.774876" y="307.584" style="stroke: #000000; stroke-width: 0.8"/>
      </g>
     </g>
     <g id="text_3">
      <!-- 400 -->
      <g transform="translate(190.872298 322.161969) scale(0.11 -0.11)">
       <defs>
        <path id="AndaleMono-34" d="M 3353 1019 
L 2809 1019 
L 2809 0 
L 2297 0 
L 2297 1019 
L 378 1019 
L 378 1409 
L 2119 4409 
L 2809 4409 
L 2809 1466 
L 3353 1466 
L 3353 1019 
z
M 2297 1466 
L 2297 3903 
L 897 1466 
L 2297 1466 
z
" transform="scale(0.015625)"/>
       </defs>
       <use xlink:href="#AndaleMono-34"/>
       <use xlink:href="#AndaleMono-30" x="60.009766"/>
       <use xlink:href="#AndaleMono-30" x="120.019531"/>
      </g>
     </g>
    </g>
    <g id="xtick_4">
     <g id="line2d_4">
      <g>
       <use xlink:href="#md4cbeba42c" x="264.24595" y="307.584" style="stroke: #000000; stroke-width: 0.8"/>
      </g>
     </g>
     <g id="text_4">
      <!-- 600 -->
      <g transform="translate(254.343372 322.161969) scale(0.11 -0.11)">
       <defs>
        <path id="AndaleMono-36" d="M 1131 2297 
Q 1544 2631 2028 2631 
Q 2588 2631 2961 2273 
Q 3334 1916 3334 1350 
Q 3334 728 3003 322 
Q 2672 -84 2119 -84 
Q 1413 -84 1000 564 
Q 588 1213 588 2150 
Q 588 3150 1017 3822 
Q 1447 4494 2194 4494 
Q 2709 4494 3084 4341 
L 3003 3884 
Q 2569 4044 2209 4044 
Q 1700 4044 1415 3556 
Q 1131 3069 1131 2297 
z
M 1147 1856 
Q 1147 1291 1412 828 
Q 1678 366 2081 366 
Q 2422 366 2606 616 
Q 2791 866 2791 1306 
Q 2791 1713 2587 1947 
Q 2384 2181 2016 2181 
Q 1538 2181 1147 1856 
z
" transform="scale(0.015625)"/>
       </defs>
       <use xlink:href="#AndaleMono-36"/>
       <use xlink:href="#AndaleMono-30" x="60.009766"/>
       <use xlink:href="#AndaleMono-30" x="120.019531"/>
      </g>
     </g>
    </g>
    <g id="xtick_5">
     <g id="line2d_5">
      <g>
       <use xlink:href="#md4cbeba42c" x="327.717025" y="307.584" style="stroke: #000000; stroke-width: 0.8"/>
      </g>
     </g>
     <g id="text_5">
      <!-- 800 -->
      <g transform="translate(317.814447 322.161969) scale(0.11 -0.11)">
       <defs>
        <path id="AndaleMono-38" d="M 2363 2419 
Q 2813 2288 3061 1972 
Q 3309 1656 3309 1234 
Q 3309 628 2907 272 
Q 2506 -84 1919 -84 
Q 1303 -84 908 275 
Q 513 634 513 1228 
Q 513 1647 769 1965 
Q 1025 2284 1484 2419 
Q 1119 2513 898 2780 
Q 678 3047 678 3378 
Q 678 3803 1015 4148 
Q 1353 4494 1906 4494 
Q 2453 4494 2811 4150 
Q 3169 3806 3169 3378 
Q 3169 3056 2944 2786 
Q 2719 2516 2363 2419 
z
M 1906 2631 
Q 1922 2631 2056 2668 
Q 2191 2706 2286 2761 
Q 2381 2816 2462 2900 
Q 2544 2984 2594 3098 
Q 2644 3213 2644 3353 
Q 2644 3653 2428 3851 
Q 2213 4050 1906 4050 
Q 1609 4050 1396 3847 
Q 1184 3644 1184 3353 
Q 1184 3169 1261 3031 
Q 1338 2894 1452 2809 
Q 1566 2725 1714 2678 
Q 1863 2631 1906 2631 
z
M 1906 2194 
Q 1050 1944 1050 1253 
Q 1050 850 1309 608 
Q 1569 366 1919 366 
Q 2281 366 2529 605 
Q 2778 844 2778 1253 
Q 2778 1563 2606 1808 
Q 2434 2053 1906 2194 
z
" transform="scale(0.015625)"/>
       </defs>
       <use xlink:href="#AndaleMono-38"/>
       <use xlink:href="#AndaleMono-30" x="60.009766"/>
       <use xlink:href="#AndaleMono-30" x="120.019531"/>
      </g>
     </g>
    </g>
    <g id="xtick_6">
     <g id="line2d_6">
      <g>
       <use xlink:href="#md4cbeba42c" x="391.188099" y="307.584" style="stroke: #000000; stroke-width: 0.8"/>
      </g>
     </g>
     <g id="text_6">
      <!-- 1000 -->
      <g transform="translate(377.984662 322.161969) scale(0.11 -0.11)">
       <defs>
        <path id="AndaleMono-31" d="M 3181 0 
L 863 0 
L 863 447 
L 1797 447 
L 1797 3872 
L 916 3431 
L 916 3944 
L 1869 4434 
L 2309 4434 
L 2309 447 
L 3181 447 
L 3181 0 
z
" transform="scale(0.015625)"/>
       </defs>
       <use xlink:href="#AndaleMono-31"/>
       <use xlink:href="#AndaleMono-30" x="60.009766"/>
       <use xlink:href="#AndaleMono-30" x="120.019531"/>
       <use xlink:href="#AndaleMono-30" x="180.029297"/>
      </g>
     </g>
    </g>
   </g>
   <g id="matplotlib.axis_2">
    <g id="ytick_1">
     <g id="line2d_7">
      <defs>
       <path id="m5b8e2934bc" d="M 0 0 
L -3.5 0 
" style="stroke: #000000; stroke-width: 0.8"/>
      </defs>
      <g>
       <use xlink:href="#m5b8e2934bc" x="57.6" y="295.488" style="stroke: #000000; stroke-width: 0.8"/>
      </g>
     </g>
     <g id="text_7">
      <!-- 1.00 -->
      <g transform="translate(17.591406 299.276984) scale(0.11 -0.11)">
       <defs>
        <path id="AndaleMono-2212" d="M 3397 2047 
L 441 2047 
L 441 2456 
L 3397 2456 
L 3397 2047 
z
" transform="scale(0.015625)"/>
        <path id="AndaleMono-2e" d="M 1900 716 
Q 2066 716 2178 603 
Q 2291 491 2291 325 
Q 2291 156 2177 36 
Q 2063 -84 1900 -84 
Q 1741 -84 1628 36 
Q 1516 156 1516 325 
Q 1516 494 1627 605 
Q 1738 716 1900 716 
z
" transform="scale(0.015625)"/>
       </defs>
       <use xlink:href="#AndaleMono-2212"/>
       <use xlink:href="#AndaleMono-31" x="60.009766"/>
       <use xlink:href="#AndaleMono-2e" x="120.019531"/>
       <use xlink:href="#AndaleMono-30" x="180.029297"/>
       <use xlink:href="#AndaleMono-30" x="240.039062"/>
      </g>
     </g>
    </g>
    <g id="ytick_2">
     <g id="line2d_8">
      <g>
       <use xlink:href="#m5b8e2934bc" x="57.6" y="265.036174" style="stroke: #000000; stroke-width: 0.8"/>
      </g>
     </g>
     <g id="text_8">
      <!-- 0.75 -->
      <g transform="translate(17.591406 268.825158) scale(0.11 -0.11)">
       <defs>
        <path id="AndaleMono-37" d="M 3238 4044 
L 1491 0 
L 966 0 
L 2688 3963 
L 622 3963 
L 622 4409 
L 3238 4409 
L 3238 4044 
z
" transform="scale(0.015625)"/>
        <path id="AndaleMono-35" d="M 1356 2631 
Q 1569 2688 1772 2688 
Q 2397 2688 2759 2305 
Q 3122 1922 3122 1350 
Q 3122 750 2700 333 
Q 2278 -84 1672 -84 
Q 1094 -84 703 109 
L 806 544 
Q 1231 366 1684 366 
Q 2088 366 2336 625 
Q 2584 884 2584 1350 
Q 2584 1791 2350 2028 
Q 2116 2266 1747 2266 
Q 1478 2266 1216 2163 
L 909 2303 
L 909 4409 
L 2925 4409 
L 2925 3963 
L 1356 3963 
L 1356 2631 
z
" transform="scale(0.015625)"/>
       </defs>
       <use xlink:href="#AndaleMono-2212"/>
       <use xlink:href="#AndaleMono-30" x="60.009766"/>
       <use xlink:href="#AndaleMono-2e" x="120.019531"/>
       <use xlink:href="#AndaleMono-37" x="180.029297"/>
       <use xlink:href="#AndaleMono-35" x="240.039062"/>
      </g>
     </g>
    </g>
    <g id="ytick_3">
     <g id="line2d_9">
      <g>
       <use xlink:href="#m5b8e2934bc" x="57.6" y="234.584347" style="stroke: #000000; stroke-width: 0.8"/>
      </g>
     </g>
     <g id="text_9">
      <!-- 0.50 -->
      <g transform="translate(17.591406 238.373331) scale(0.11 -0.11)">
       <use xlink:href="#AndaleMono-2212"/>
       <use xlink:href="#AndaleMono-30" x="60.009766"/>
       <use xlink:href="#AndaleMono-2e" x="120.019531"/>
       <use xlink:href="#AndaleMono-35" x="180.029297"/>
       <use xlink:href="#AndaleMono-30" x="240.039062"/>
      </g>
     </g>
    </g>
    <g id="ytick_4">
     <g id="line2d_10">
      <g>
       <use xlink:href="#m5b8e2934bc" x="57.6" y="204.132521" style="stroke: #000000; stroke-width: 0.8"/>
      </g>
     </g>
     <g id="text_10">
      <!-- 0.25 -->
      <g transform="translate(17.591406 207.921505) scale(0.11 -0.11)">
       <use xlink:href="#AndaleMono-2212"/>
       <use xlink:href="#AndaleMono-30" x="60.009766"/>
       <use xlink:href="#AndaleMono-2e" x="120.019531"/>
       <use xlink:href="#AndaleMono-32" x="180.029297"/>
       <use xlink:href="#AndaleMono-35" x="240.039062"/>
      </g>
     </g>
    </g>
    <g id="ytick_5">
     <g id="line2d_11">
      <g>
       <use xlink:href="#m5b8e2934bc" x="57.6" y="173.680694" style="stroke: #000000; stroke-width: 0.8"/>
      </g>
     </g>
     <g id="text_11">
      <!-- 0.00 -->
      <g transform="translate(24.193125 177.469679) scale(0.11 -0.11)">
       <use xlink:href="#AndaleMono-30"/>
       <use xlink:href="#AndaleMono-2e" x="60.009766"/>
       <use xlink:href="#AndaleMono-30" x="120.019531"/>
       <use xlink:href="#AndaleMono-30" x="180.029297"/>
      </g>
     </g>
    </g>
    <g id="ytick_6">
     <g id="line2d_12">
      <g>
       <use xlink:href="#m5b8e2934bc" x="57.6" y="143.228868" style="stroke: #000000; stroke-width: 0.8"/>
      </g>
     </g>
     <g id="text_12">
      <!-- 0.25 -->
      <g transform="translate(24.193125 147.017852) scale(0.11 -0.11)">
       <use xlink:href="#AndaleMono-30"/>
       <use xlink:href="#AndaleMono-2e" x="60.009766"/>
       <use xlink:href="#AndaleMono-32" x="120.019531"/>
       <use xlink:href="#AndaleMono-35" x="180.029297"/>
      </g>
     </g>
    </g>
    <g id="ytick_7">
     <g id="line2d_13">
      <g>
       <use xlink:href="#m5b8e2934bc" x="57.6" y="112.777041" style="stroke: #000000; stroke-width: 0.8"/>
      </g>
     </g>
     <g id="text_13">
      <!-- 0.50 -->
      <g transform="translate(24.193125 116.566026) scale(0.11 -0.11)">
       <use xlink:href="#AndaleMono-30"/>
       <use xlink:href="#AndaleMono-2e" x="60.009766"/>
       <use xlink:href="#AndaleMono-35" x="120.019531"/>
       <use xlink:href="#AndaleMono-30" x="180.029297"/>
      </g>
     </g>
    </g>
    <g id="ytick_8">
     <g id="line2d_14">
      <g>
       <use xlink:href="#m5b8e2934bc" x="57.6" y="82.325215" style="stroke: #000000; stroke-width: 0.8"/>
      </g>
     </g>
     <g id="text_14">
      <!-- 0.75 -->
      <g transform="translate(24.193125 86.114199) scale(0.11 -0.11)">
       <use xlink:href="#AndaleMono-30"/>
       <use xlink:href="#AndaleMono-2e" x="60.009766"/>
       <use xlink:href="#AndaleMono-37" x="120.019531"/>
       <use xlink:href="#AndaleMono-35" x="180.029297"/>
      </g>
     </g>
    </g>
    <g id="ytick_9">
     <g id="line2d_15">
      <g>
       <use xlink:href="#m5b8e2934bc" x="57.6" y="51.873388" style="stroke: #000000; stroke-width: 0.8"/>
      </g>
     </g>
     <g id="text_15">
      <!-- 1.00 -->
      <g transform="translate(24.193125 55.662373) scale(0.11 -0.11)">
       <use xlink:href="#AndaleMono-31"/>
       <use xlink:href="#AndaleMono-2e" x="60.009766"/>
       <use xlink:href="#AndaleMono-30" x="120.019531"/>
       <use xlink:href="#AndaleMono-30" x="180.029297"/>
      </g>
     </g>
    </g>
   </g>
   <g id="line2d_16">
    <path d="M 73.832727 173.680694 
L 74.150083 87.297986 
L 75.419504 79.138854 
L 76.688926 72.70832 
L 77.958347 67.427789 
L 79.227769 63.022475 
L 79.862479 61.393392 
L 80.814545 59.650612 
L 83.988099 54.750691 
L 84.305455 53.983705 
L 84.62281 53.603985 
L 84.940165 53.568 
L 85.257521 53.840162 
L 85.574876 54.396686 
L 86.209587 56.288562 
L 86.844298 59.111033 
L 87.796364 64.732194 
L 89.065785 74.088654 
L 92.87405 103.849715 
L 94.143471 111.267784 
L 95.412893 116.91305 
L 96.364959 120.129538 
L 97.317025 122.655925 
L 98.586446 125.433394 
L 99.538512 126.917116 
L 100.173223 127.35486 
L 100.807934 127.330208 
L 101.76 126.849645 
L 102.712066 126.422776 
L 104.298843 126.000639 
L 104.933554 126.034114 
L 105.568264 126.341649 
L 106.202975 126.928947 
L 107.155041 128.175214 
L 111.280661 134.845245 
L 112.550083 137.089783 
L 115.406281 142.513297 
L 117.627769 145.974547 
L 118.89719 147.467784 
L 123.340165 152.086812 
L 127.14843 154.84014 
L 128.100496 155.252598 
L 132.543471 156.615317 
L 133.812893 156.647219 
L 134.764959 156.690298 
L 135.717025 156.985343 
L 137.303802 157.513866 
L 138.890579 157.989823 
L 141.429421 159.164281 
L 145.555041 161.034536 
L 148.093884 161.910499 
L 150.315372 162.476301 
L 151.584793 162.642579 
L 152.854215 162.548896 
L 157.614545 161.816003 
L 162.057521 161.044246 
L 163.326942 160.968036 
L 167.135207 161.085343 
L 169.67405 161.20304 
L 171.578182 161.125827 
L 174.117025 160.727348 
L 180.781488 159.261697 
L 182.050909 159.373302 
L 183.955041 159.561148 
L 185.224463 159.735825 
L 188.398017 160.663989 
L 197.918678 164.338153 
L 202.679008 165.38587 
L 206.487273 165.568608 
L 210.295537 165.36603 
L 213.151736 165.16453 
L 222.355041 164.60113 
L 224.259174 164.805392 
L 225.528595 165.159795 
L 226.798017 165.765677 
L 228.384793 166.755214 
L 230.288926 168.211529 
L 233.462479 171.081325 
L 241.079008 178.312617 
L 242.98314 179.911226 
L 244.887273 181.229838 
L 246.47405 182.073853 
L 247.743471 182.490542 
L 249.330248 182.71177 
L 250.917025 182.747755 
L 267.102149 181.75446 
L 269.006281 181.925591 
L 271.545124 182.255206 
L 277.257521 183.979527 
L 284.87405 187.000139 
L 287.730248 187.743614 
L 291.855868 188.081752 
L 293.125289 187.844352 
L 298.837686 186.504442 
L 300.741818 186.235562 
L 302.64595 186.158349 
L 305.184793 186.276045 
L 308.040992 186.382814 
L 310.262479 186.317143 
L 315.340165 185.401382 
L 317.244298 185.049625 
L 321.369917 184.776571 
L 323.27405 185.179373 
L 325.812893 185.965031 
L 328.351736 186.999219 
L 333.429421 189.371565 
L 334.698843 189.772199 
L 336.28562 190.251544 
L 337.555041 190.67109 
L 338.824463 190.704711 
L 340.093884 190.80108 
L 341.680661 191.265996 
L 345.17157 192.521248 
L 346.758347 193.564301 
L 349.931901 196.088429 
L 354.057521 200.592509 
L 355.009587 201.835578 
L 357.231074 205.365004 
L 358.500496 207.691494 
L 360.404628 211.44183 
L 362.30876 214.532278 
L 366.117025 220.432442 
L 366.751736 221.01974 
L 367.386446 221.327275 
L 368.021157 221.36075 
L 369.290579 221.041634 
L 370.242645 220.684768 
L 371.512066 220.031181 
L 372.146777 220.006529 
L 372.464132 220.155593 
L 373.098843 220.855638 
L 374.050909 222.564649 
L 375.320331 225.491989 
L 376.272397 228.203967 
L 377.224463 231.727129 
L 378.493884 237.710523 
L 379.44595 243.069416 
L 380.715372 251.828073 
L 382.93686 269.623327 
L 384.523636 281.851203 
L 385.475702 287.931811 
L 386.427769 292.514972 
L 387.062479 294.49549 
L 387.379835 295.1143 
L 387.69719 295.456665 
L 388.014545 295.488 
L 388.331901 295.165776 
L 388.966612 293.931891 
L 392.457521 288.354753 
L 393.092231 286.725671 
L 394.044298 283.521339 
L 395.313719 278.440604 
L 396.58314 272.369046 
L 397.535207 266.741993 
L 398.169917 262.450159 
L 398.487273 173.680694 
L 398.487273 173.680694 
" clip-path="url(#p181941df10)" style="fill: none; stroke: #87ceeb; stroke-opacity: 0.75; stroke-linecap: square"/>
   </g>
   <g id="patch_3">
    <path d="M 57.6 307.584 
L 57.6 41.472 
" style="fill: none; stroke: #000000; stroke-width: 0.8; stroke-linejoin: miter; stroke-linecap: square"/>
   </g>
   <g id="patch_4">
    <path d="M 414.72 307.584 
L 414.72 41.472 
" style="fill: none; stroke: #000000; stroke-width: 0.8; stroke-linejoin: miter; stroke-linecap: square"/>
   </g>
   <g id="patch_5">
    <path d="M 57.6 307.584 
L 414.72 307.584 
" style="fill: none; stroke: #000000; stroke-width: 0.8; stroke-linejoin: miter; stroke-linecap: square"/>
   </g>
   <g id="patch_6">
    <path d="M 57.6 41.472 
L 414.72 41.472 
" style="fill: none; stroke: #000000; stroke-width: 0.8; stroke-linejoin: miter; stroke-linecap: square"/>
   </g>
  </g>
 </g>
 <defs>
  <clipPath id="p181941df10">
   <rect x="57.6" y="41.472" width="357.12" height="266.112"/>
  </clipPath>
 </defs>
</svg>
