<?xml version="1.0" encoding="utf-8" standalone="no"?>
<!DOCTYPE svg PUBLIC "-//W3C//DTD SVG 1.1//EN"
  "http://www.w3.org/Graphics/SVG/1.1/DTD/svg11.dtd">
<svg xmlns:xlink="http://www.w3.org/1999/xlink" width="460.8pt" height="345.6pt" viewBox="0 0 460.8 345.6" xmlns="http://www.w3.org/2000/svg" version="1.1">
 <metadata>
  <rdf:RDF xmlns:dc="http://purl.org/dc/elements/1.1/" xmlns:cc="http://creativecommons.org/ns#" xmlns:rdf="http://www.w3.org/1999/02/22-rdf-syntax-ns#">
   <cc:Work>
    <dc:type rdf:resource="http://purl.org/dc/dcmitype/StillImage"/>
    <dc:date>2024-04-23T11:13:05.350616</dc:date>
    <dc:format>image/svg+xml</dc:format>
    <dc:creator>
     <cc:Agent>
      <dc:title>Matplotlib v3.8.3, https://matplotlib.org/</dc:title>
     </cc:Agent>
    </dc:creator>
   </cc:Work>
  </rdf:RDF>
 </metadata>
 <defs>
  <style type="text/css">*{stroke-linejoin: round; stroke-linecap: butt}</style>
 </defs>
 <g id="figure_1">
  <g id="patch_1">
   <path d="M 0 345.6 
L 460.8 345.6 
L 460.8 0 
L 0 0 
z
" style="fill: #ffffff"/>
  </g>
  <g id="axes_1">
   <g id="patch_2">
    <path d="M 57.6 307.584 
L 414.72 307.584 
L 414.72 41.472 
L 57.6 41.472 
z
" style="fill: #ffffff"/>
   </g>
   <g id="PolyCollection_1">
    <defs>
     <path id="madb2a2df22" d="M 73.832727 -171.072 
L 73.832727 -171.072 
L 74.150083 -176.12421 
L 74.467438 -176.288534 
L 74.784793 -176.448613 
L 75.102149 -176.60646 
L 75.419504 -176.762208 
L 75.73686 -176.916488 
L 76.054215 -177.07161 
L 76.37157 -177.224798 
L 76.688926 -177.375423 
L 77.006281 -177.527311 
L 77.323636 -177.681544 
L 77.640992 -177.833221 
L 77.958347 -177.979674 
L 78.275702 -178.127152 
L 78.593058 -178.27387 
L 78.910413 -178.420668 
L 79.227769 -178.565485 
L 79.545124 -178.707844 
L 79.862479 -178.845971 
L 80.179835 -178.980039 
L 80.49719 -179.109759 
L 80.814545 -179.235829 
L 81.131901 -179.36185 
L 81.449256 -179.48606 
L 81.766612 -179.607735 
L 82.083967 -179.725283 
L 82.401322 -179.837184 
L 82.718678 -179.946641 
L 83.036033 -180.05415 
L 83.353388 -180.158854 
L 83.670744 -180.26048 
L 83.988099 -180.356663 
L 84.305455 -180.361743 
L 84.62281 -180.352574 
L 84.940165 -180.330373 
L 85.257521 -180.295578 
L 85.574876 -180.250912 
L 85.892231 -180.19645 
L 86.209587 -180.133589 
L 86.526942 -180.063042 
L 86.844298 -179.986475 
L 87.161653 -179.905488 
L 87.479008 -179.820444 
L 87.796364 -179.730922 
L 88.113719 -179.637494 
L 88.431074 -179.540202 
L 88.74843 -179.439552 
L 89.065785 -179.334452 
L 89.38314 -179.224133 
L 89.700496 -179.107676 
L 90.017851 -178.985267 
L 90.335207 -178.857822 
L 90.652562 -178.72543 
L 90.969917 -178.587776 
L 91.287273 -178.445535 
L 91.604628 -178.299873 
L 91.921983 -178.148314 
L 92.239339 -177.992636 
L 92.556694 -177.8353 
L 92.87405 -177.677904 
L 93.191405 -177.52135 
L 93.50876 -177.363484 
L 93.826116 -177.203334 
L 94.143471 -177.040827 
L 94.460826 -176.88408 
L 94.778182 -176.73557 
L 95.095537 -176.590922 
L 95.412893 -176.448025 
L 95.730248 -176.308735 
L 96.047603 -176.174487 
L 96.364959 -176.040999 
L 96.682314 -175.911565 
L 96.999669 -175.787336 
L 97.317025 -175.664542 
L 97.63438 -175.542358 
L 97.951736 -175.42856 
L 98.269091 -175.32556 
L 98.586446 -175.227786 
L 98.903802 -175.134553 
L 99.221157 -175.045206 
L 99.538512 -174.961649 
L 99.855868 -174.882614 
L 100.173223 -174.810648 
L 100.490579 -174.745132 
L 100.807934 -174.685914 
L 101.125289 -174.633358 
L 101.442645 -174.583248 
L 101.76 -174.537198 
L 102.077355 -174.495906 
L 102.394711 -174.461437 
L 102.712066 -174.436027 
L 103.029421 -174.417142 
L 103.346777 -174.403977 
L 103.664132 -174.3968 
L 103.981488 -174.394822 
L 104.298843 -174.399984 
L 104.616198 -174.412867 
L 104.933554 -174.43373 
L 105.250909 -174.461274 
L 105.568264 -174.494869 
L 105.88562 -174.532295 
L 106.202975 -174.573662 
L 106.520331 -174.617137 
L 106.837686 -174.66222 
L 107.155041 -174.706936 
L 107.472397 -174.750426 
L 107.789752 -174.791695 
L 108.107107 -174.831875 
L 108.424463 -174.870206 
L 108.741818 -174.906327 
L 109.059174 -174.93903 
L 109.376529 -174.969897 
L 109.693884 -174.999041 
L 110.01124 -175.027154 
L 110.328595 -175.053947 
L 110.64595 -175.078243 
L 110.963306 -175.100131 
L 111.280661 -175.121041 
L 111.598017 -175.141901 
L 111.915372 -175.162526 
L 112.232727 -175.185984 
L 112.550083 -175.211046 
L 112.867438 -175.235615 
L 113.184793 -175.257702 
L 113.502149 -175.275355 
L 113.819504 -175.290584 
L 114.13686 -175.305818 
L 114.454215 -175.322714 
L 114.77157 -175.339683 
L 115.088926 -175.355733 
L 115.406281 -175.372682 
L 115.723636 -175.391082 
L 116.040992 -175.409312 
L 116.358347 -175.424714 
L 116.675702 -175.438559 
L 116.993058 -175.450453 
L 117.310413 -175.460024 
L 117.627769 -175.466732 
L 117.945124 -175.470187 
L 118.262479 -175.466851 
L 118.579835 -175.456118 
L 118.89719 -175.436924 
L 119.214545 -175.412391 
L 119.531901 -175.38298 
L 119.849256 -175.349826 
L 120.166612 -175.315143 
L 120.483967 -175.277671 
L 120.801322 -175.238274 
L 121.118678 -175.19825 
L 121.436033 -175.155514 
L 121.753388 -175.111147 
L 122.070744 -175.065829 
L 122.388099 -175.018994 
L 122.705455 -174.969905 
L 123.02281 -174.917113 
L 123.340165 -174.859155 
L 123.657521 -174.796536 
L 123.974876 -174.729969 
L 124.292231 -174.660829 
L 124.609587 -174.58878 
L 124.926942 -174.514427 
L 125.244298 -174.437471 
L 125.561653 -174.358988 
L 125.879008 -174.27988 
L 126.196364 -174.199991 
L 126.513719 -174.119774 
L 126.831074 -174.039948 
L 127.14843 -173.960456 
L 127.465785 -173.881915 
L 127.78314 -173.803487 
L 128.100496 -173.726312 
L 128.417851 -173.649063 
L 128.735207 -173.572222 
L 129.052562 -173.496664 
L 129.369917 -173.423862 
L 129.687273 -173.353537 
L 130.004628 -173.286434 
L 130.321983 -173.223524 
L 130.639339 -173.165223 
L 130.956694 -173.112348 
L 131.27405 -173.065823 
L 131.591405 -173.024204 
L 131.90876 -172.985761 
L 132.226116 -172.950255 
L 132.543471 -172.917239 
L 132.860826 -172.886438 
L 133.178182 -172.857458 
L 133.495537 -172.83033 
L 133.812893 -172.806634 
L 134.130248 -172.786959 
L 134.447603 -172.770611 
L 134.764959 -172.756182 
L 135.082314 -172.742 
L 135.399669 -172.727781 
L 135.717025 -172.712851 
L 136.03438 -172.696653 
L 136.351736 -172.678794 
L 136.669091 -172.659844 
L 136.986446 -172.64069 
L 137.303802 -172.621449 
L 137.621157 -172.601823 
L 137.938512 -172.581954 
L 138.255868 -172.56254 
L 138.573223 -172.543892 
L 138.890579 -172.526482 
L 139.207934 -172.511354 
L 139.525289 -172.498051 
L 139.842645 -172.485596 
L 140.16 -172.47308 
L 140.477355 -172.459782 
L 140.794711 -172.44611 
L 141.112066 -172.431692 
L 141.429421 -172.415609 
L 141.746777 -172.399068 
L 142.064132 -172.381286 
L 142.381488 -172.361765 
L 142.698843 -172.340961 
L 143.016198 -172.31887 
L 143.333554 -172.29714 
L 143.650909 -172.276972 
L 143.968264 -172.257753 
L 144.28562 -172.23934 
L 144.602975 -172.221019 
L 144.920331 -172.204231 
L 145.237686 -172.189044 
L 145.555041 -172.175466 
L 145.872397 -172.162888 
L 146.189752 -172.150683 
L 146.507107 -172.138417 
L 146.824463 -172.125746 
L 147.141818 -172.112725 
L 147.459174 -172.099625 
L 147.776529 -172.086475 
L 148.093884 -172.073503 
L 148.41124 -172.060826 
L 148.728595 -172.049544 
L 149.04595 -172.039957 
L 149.363306 -172.031632 
L 149.680661 -172.02393 
L 149.998017 -172.016575 
L 150.315372 -172.010014 
L 150.632727 -172.003649 
L 150.950083 -171.997252 
L 151.267438 -171.991094 
L 151.584793 -171.983695 
L 151.902149 -171.976048 
L 152.219504 -171.969536 
L 152.53686 -171.959414 
L 152.854215 -171.948408 
L 153.17157 -171.932622 
L 153.488926 -171.914475 
L 153.806281 -171.895964 
L 154.123636 -171.871235 
L 154.440992 -171.535402 
L 154.758347 -171.228271 
L 155.075702 -170.853813 
L 155.393058 -170.542063 
L 155.710413 -170.280499 
L 156.027769 -170.024174 
L 156.345124 -169.746284 
L 156.662479 -169.486417 
L 156.979835 -169.322369 
L 157.29719 -169.266718 
L 157.614545 -169.262012 
L 157.931901 -169.322335 
L 158.249256 -169.490743 
L 158.566612 -169.744303 
L 158.883967 -170.087925 
L 159.201322 -170.484123 
L 159.518678 -170.962402 
L 159.836033 -171.558268 
L 160.153388 -172.245921 
L 160.470744 -172.994011 
L 160.788099 -173.820187 
L 161.105455 -174.750344 
L 161.42281 -175.785552 
L 161.740165 -176.902064 
L 162.057521 -178.094614 
L 162.374876 -179.367274 
L 162.692231 -180.678577 
L 163.009587 -182.028277 
L 163.326942 -183.470776 
L 163.644298 -184.99372 
L 163.961653 -186.571593 
L 164.279008 -188.167374 
L 164.596364 -189.843364 
L 164.913719 -191.557876 
L 165.231074 -193.338174 
L 165.54843 -195.137313 
L 165.865785 -196.995136 
L 166.18314 -198.875032 
L 166.500496 -200.807685 
L 166.817851 -202.717439 
L 167.135207 -204.600233 
L 167.452562 -206.547376 
L 167.769917 -208.490355 
L 168.087273 -210.492181 
L 168.404628 -212.522912 
L 168.721983 -214.58898 
L 169.039339 -216.634661 
L 169.356694 -218.663997 
L 169.67405 -220.726282 
L 169.991405 -222.753103 
L 170.30876 -224.806598 
L 170.626116 -226.814753 
L 170.943471 -228.837283 
L 171.260826 -230.805393 
L 171.578182 -232.766248 
L 171.895537 -234.715329 
L 172.212893 -236.628273 
L 172.530248 -238.433241 
L 172.847603 -240.213182 
L 173.164959 -241.927079 
L 173.482314 -243.554389 
L 173.799669 -245.159483 
L 174.117025 -246.718435 
L 174.43438 -248.220876 
L 174.751736 -250.334638 
L 175.069091 -252.395655 
L 175.386446 -254.585271 
L 175.703802 -256.651913 
L 176.021157 -258.659145 
L 176.338512 -260.731742 
L 176.655868 -262.919904 
L 176.973223 -265.152429 
L 177.290579 -267.280286 
L 177.607934 -269.298508 
L 177.925289 -271.279901 
L 178.242645 -273.239051 
L 178.56 -275.032232 
L 178.877355 -276.72607 
L 179.194711 -278.337967 
L 179.512066 -279.910906 
L 179.829421 -281.400211 
L 180.146777 -282.713902 
L 180.464132 -283.952213 
L 180.781488 -285.140793 
L 181.098843 -286.261703 
L 181.416198 -287.231667 
L 181.733554 -288.08302 
L 182.050909 -288.855296 
L 182.368264 -289.542749 
L 182.68562 -290.104584 
L 183.002975 -290.639075 
L 183.320331 -291.133312 
L 183.637686 -291.51416 
L 183.955041 -291.767981 
L 184.272397 -291.912854 
L 184.589752 -292.032 
L 184.907107 -292.012243 
L 185.224463 -291.941031 
L 185.541818 -291.75255 
L 185.859174 -291.498318 
L 186.176529 -291.155643 
L 186.493884 -290.781327 
L 186.81124 -290.311955 
L 187.128595 -289.867445 
L 187.44595 -289.501207 
L 187.763306 -289.023856 
L 188.080661 -288.593726 
L 188.398017 -288.079689 
L 188.715372 -287.50867 
L 189.032727 -286.884917 
L 189.350083 -286.296327 
L 189.667438 -285.735529 
L 189.984793 -285.074593 
L 190.302149 -284.466221 
L 190.619504 -283.775645 
L 190.93686 -283.13979 
L 191.254215 -282.428258 
L 191.57157 -281.788027 
L 191.888926 -281.088181 
L 192.206281 -280.350546 
L 192.523636 -279.659005 
L 192.840992 -279.158336 
L 193.158347 -278.7048 
L 193.475702 -278.351452 
L 193.793058 -278.117689 
L 194.110413 -277.805485 
L 194.427769 -277.516983 
L 194.745124 -277.309618 
L 195.062479 -276.801957 
L 195.379835 -276.312032 
L 195.69719 -275.801802 
L 196.014545 -275.390733 
L 196.331901 -274.985449 
L 196.649256 -274.503533 
L 196.966612 -273.877334 
L 197.283967 -273.200451 
L 197.601322 -272.576005 
L 197.918678 -271.959701 
L 198.236033 -271.346874 
L 198.553388 -270.678104 
L 198.870744 -270.133453 
L 199.188099 -269.642782 
L 199.505455 -269.130842 
L 199.82281 -268.637371 
L 200.140165 -268.183303 
L 200.457521 -267.842261 
L 200.774876 -267.48536 
L 201.092231 -267.140486 
L 201.409587 -266.808005 
L 201.726942 -266.564409 
L 202.044298 -266.328212 
L 202.361653 -266.05657 
L 202.679008 -265.762932 
L 202.996364 -265.522876 
L 203.313719 -265.267849 
L 203.631074 -265.005659 
L 203.94843 -264.708462 
L 204.265785 -264.44089 
L 204.58314 -264.238914 
L 204.900496 -264.045162 
L 205.217851 -263.901993 
L 205.535207 -263.752884 
L 205.852562 -263.633858 
L 206.169917 -263.555784 
L 206.487273 -263.462144 
L 206.804628 -263.340718 
L 207.121983 -263.227213 
L 207.439339 -263.100001 
L 207.756694 -262.884413 
L 208.07405 -262.696406 
L 208.391405 -262.411167 
L 208.70876 -262.10008 
L 209.026116 -261.775416 
L 209.343471 -261.402381 
L 209.660826 -260.953345 
L 209.978182 -260.436457 
L 210.295537 -259.954774 
L 210.612893 -259.397888 
L 210.930248 -258.846119 
L 211.247603 -258.250477 
L 211.564959 -257.694093 
L 211.882314 -257.086367 
L 212.199669 -256.55023 
L 212.517025 -256.059483 
L 212.83438 -255.516454 
L 213.151736 -254.84646 
L 213.469091 -254.09191 
L 213.786446 -253.245254 
L 214.103802 -252.351197 
L 214.421157 -251.617694 
L 214.738512 -250.904378 
L 215.055868 -250.134348 
L 215.373223 -249.318469 
L 215.690579 -248.494742 
L 216.007934 -247.598537 
L 216.325289 -246.66064 
L 216.642645 -245.731056 
L 216.96 -244.786289 
L 217.277355 -243.939404 
L 217.594711 -243.087313 
L 217.912066 -242.165778 
L 218.229421 -241.213561 
L 218.546777 -240.249877 
L 218.864132 -239.29946 
L 219.181488 -238.254916 
L 219.498843 -237.149356 
L 219.816198 -236.063574 
L 220.133554 -234.945522 
L 220.450909 -233.771343 
L 220.768264 -232.519529 
L 221.08562 -231.241596 
L 221.402975 -229.9344 
L 221.720331 -228.577579 
L 222.037686 -227.148097 
L 222.355041 -225.693275 
L 222.672397 -224.264184 
L 222.989752 -222.852007 
L 223.307107 -221.412896 
L 223.624463 -219.939245 
L 223.941818 -218.46925 
L 224.259174 -217.05105 
L 224.576529 -215.634779 
L 224.893884 -214.18629 
L 225.21124 -212.711135 
L 225.528595 -211.22146 
L 225.84595 -209.725758 
L 226.163306 -208.240459 
L 226.480661 -206.750018 
L 226.798017 -205.279409 
L 227.115372 -203.823289 
L 227.432727 -202.375329 
L 227.750083 -200.919351 
L 228.067438 -199.485921 
L 228.384793 -198.067453 
L 228.702149 -196.697542 
L 229.019504 -195.340188 
L 229.33686 -194.005635 
L 229.654215 -192.722988 
L 229.97157 -191.493726 
L 230.288926 -190.28877 
L 230.606281 -189.084592 
L 230.923636 -187.91147 
L 231.240992 -186.782599 
L 231.558347 -185.662694 
L 231.875702 -184.542703 
L 232.193058 -183.439394 
L 232.510413 -182.330458 
L 232.827769 -181.232632 
L 233.145124 -180.156161 
L 233.462479 -179.09455 
L 233.779835 -178.098774 
L 234.09719 -177.167886 
L 234.414545 -176.232037 
L 234.731901 -175.212515 
L 235.049256 -174.202432 
L 235.366612 -173.278301 
L 235.683967 -172.378815 
L 236.001322 -171.498196 
L 236.318678 -170.645804 
L 236.636033 -169.765185 
L 236.953388 -168.865699 
L 237.270744 -167.941568 
L 237.588099 -166.931485 
L 237.905455 -165.911963 
L 238.22281 -164.976114 
L 238.540165 -164.045226 
L 238.857521 -163.04945 
L 239.174876 -161.987839 
L 239.492231 -160.911368 
L 239.809587 -159.813542 
L 240.126942 -158.704606 
L 240.444298 -157.601297 
L 240.761653 -156.481306 
L 241.079008 -155.361401 
L 241.396364 -154.23253 
L 241.713719 -153.059408 
L 242.031074 -151.85523 
L 242.34843 -150.650274 
L 242.665785 -149.421012 
L 242.98314 -148.138365 
L 243.300496 -146.803812 
L 243.617851 -145.446458 
L 243.935207 -144.076547 
L 244.252562 -142.658079 
L 244.569917 -141.224649 
L 244.887273 -139.768671 
L 245.204628 -138.320711 
L 245.521983 -136.864591 
L 245.839339 -135.393982 
L 246.156694 -133.903541 
L 246.47405 -132.418242 
L 246.791405 -130.92254 
L 247.10876 -129.432865 
L 247.426116 -127.95771 
L 247.743471 -126.509221 
L 248.060826 -125.09295 
L 248.378182 -123.67475 
L 248.695537 -122.204755 
L 249.012893 -120.731104 
L 249.330248 -119.291993 
L 249.647603 -117.879816 
L 249.964959 -116.450725 
L 250.282314 -114.995903 
L 250.599669 -113.566421 
L 250.917025 -112.2096 
L 251.23438 -110.902404 
L 251.551736 -109.624471 
L 251.869091 -108.372657 
L 252.186446 -107.198478 
L 252.503802 -106.080426 
L 252.821157 -104.994644 
L 253.138512 -103.889084 
L 253.455868 -102.84454 
L 253.773223 -101.894123 
L 254.090579 -100.930439 
L 254.407934 -99.978222 
L 254.725289 -99.056687 
L 255.042645 -98.204596 
L 255.36 -97.357711 
L 255.677355 -96.412944 
L 255.994711 -95.48336 
L 256.312066 -94.545463 
L 256.629421 -93.649258 
L 256.946777 -92.825531 
L 257.264132 -92.009652 
L 257.581488 -91.239622 
L 257.898843 -90.526306 
L 258.216198 -89.792803 
L 258.533554 -88.898746 
L 258.850909 -88.05209 
L 259.168264 -87.29754 
L 259.48562 -86.627546 
L 259.802975 -86.084517 
L 260.120331 -85.59377 
L 260.437686 -85.057633 
L 260.755041 -84.449907 
L 261.072397 -83.893523 
L 261.389752 -83.297881 
L 261.707107 -82.746112 
L 262.024463 -82.189226 
L 262.341818 -81.707543 
L 262.659174 -81.190655 
L 262.976529 -80.741619 
L 263.293884 -80.368584 
L 263.61124 -80.04392 
L 263.928595 -79.732833 
L 264.24595 -79.447594 
L 264.563306 -79.259587 
L 264.880661 -79.043999 
L 265.198017 -78.916787 
L 265.515372 -78.803282 
L 265.832727 -78.681856 
L 266.150083 -78.588216 
L 266.467438 -78.510142 
L 266.784793 -78.391116 
L 267.102149 -78.242007 
L 267.419504 -78.098838 
L 267.73686 -77.905086 
L 268.054215 -77.70311 
L 268.37157 -77.435538 
L 268.688926 -77.138341 
L 269.006281 -76.876151 
L 269.323636 -76.621124 
L 269.640992 -76.381068 
L 269.958347 -76.08743 
L 270.275702 -75.815788 
L 270.593058 -75.579591 
L 270.910413 -75.335995 
L 271.227769 -75.003514 
L 271.545124 -74.65864 
L 271.862479 -74.301739 
L 272.179835 -73.960697 
L 272.49719 -73.506629 
L 272.814545 -73.013158 
L 273.131901 -72.501218 
L 273.449256 -72.010547 
L 273.766612 -71.465896 
L 274.083967 -70.797126 
L 274.401322 -70.184299 
L 274.718678 -69.567995 
L 275.036033 -68.943549 
L 275.353388 -68.266666 
L 275.670744 -67.640467 
L 275.988099 -67.158551 
L 276.305455 -66.753267 
L 276.62281 -66.342198 
L 276.940165 -65.831968 
L 277.257521 -65.342043 
L 277.574876 -64.834382 
L 277.892231 -64.627017 
L 278.209587 -64.338515 
L 278.526942 -64.026311 
L 278.844298 -63.792548 
L 279.161653 -63.4392 
L 279.479008 -62.985664 
L 279.796364 -62.484995 
L 280.113719 -61.793454 
L 280.431074 -61.055819 
L 280.74843 -60.355973 
L 281.065785 -59.715742 
L 281.38314 -59.00421 
L 281.700496 -58.368355 
L 282.017851 -57.677779 
L 282.335207 -57.069407 
L 282.652562 -56.408471 
L 282.969917 -55.847673 
L 283.287273 -55.259083 
L 283.604628 -54.63533 
L 283.921983 -54.064311 
L 284.239339 -53.550274 
L 284.556694 -53.120144 
L 284.87405 -52.642793 
L 285.191405 -52.276555 
L 285.50876 -51.832045 
L 285.826116 -51.362673 
L 286.143471 -50.988357 
L 286.460826 -50.645682 
L 286.778182 -50.39145 
L 287.095537 -50.202969 
L 287.412893 -50.131757 
L 287.730248 -50.112 
L 288.047603 -50.231146 
L 288.364959 -50.376019 
L 288.682314 -50.62984 
L 288.999669 -51.010688 
L 289.317025 -51.504925 
L 289.63438 -52.039416 
L 289.951736 -52.601251 
L 290.269091 -53.288704 
L 290.586446 -54.06098 
L 290.903802 -54.912333 
L 291.221157 -55.882297 
L 291.538512 -57.003207 
L 291.855868 -58.191787 
L 292.173223 -59.430098 
L 292.490579 -60.743789 
L 292.807934 -62.233094 
L 293.125289 -63.806033 
L 293.442645 -65.41793 
L 293.76 -67.111768 
L 294.077355 -68.904949 
L 294.394711 -70.864099 
L 294.712066 -72.845492 
L 295.029421 -74.863714 
L 295.346777 -76.991571 
L 295.664132 -79.224096 
L 295.981488 -81.412258 
L 296.298843 -83.484855 
L 296.616198 -85.492087 
L 296.933554 -87.558729 
L 297.250909 -89.748345 
L 297.568264 -91.809362 
L 297.88562 -93.923124 
L 298.202975 -95.425565 
L 298.520331 -96.984517 
L 298.837686 -98.589611 
L 299.155041 -100.216921 
L 299.472397 -101.930818 
L 299.789752 -103.710759 
L 300.107107 -105.515727 
L 300.424463 -107.428671 
L 300.741818 -109.377752 
L 301.059174 -111.338607 
L 301.376529 -113.306717 
L 301.693884 -115.329247 
L 302.01124 -117.337402 
L 302.328595 -119.390897 
L 302.64595 -121.417718 
L 302.963306 -123.480003 
L 303.280661 -125.509339 
L 303.598017 -127.55502 
L 303.915372 -129.621088 
L 304.232727 -131.651819 
L 304.550083 -133.653645 
L 304.867438 -135.596624 
L 305.184793 -137.543767 
L 305.502149 -139.426561 
L 305.819504 -141.336315 
L 306.13686 -143.268968 
L 306.454215 -145.148864 
L 306.77157 -147.006687 
L 307.088926 -148.805826 
L 307.406281 -150.586124 
L 307.723636 -152.300636 
L 308.040992 -153.976626 
L 308.358347 -155.572407 
L 308.675702 -157.15028 
L 308.993058 -158.673224 
L 309.310413 -160.115723 
L 309.627769 -161.465423 
L 309.945124 -162.776726 
L 310.262479 -164.049386 
L 310.579835 -165.241936 
L 310.89719 -166.358448 
L 311.214545 -167.393656 
L 311.531901 -168.323813 
L 311.849256 -169.149989 
L 312.166612 -169.898079 
L 312.483967 -170.585732 
L 312.801322 -171.181598 
L 313.118678 -171.659877 
L 313.436033 -172.056075 
L 313.753388 -172.399697 
L 314.070744 -172.653257 
L 314.388099 -172.821665 
L 314.705455 -172.881988 
L 315.02281 -172.877282 
L 315.340165 -172.821631 
L 315.657521 -172.657583 
L 315.974876 -172.397716 
L 316.292231 -172.119826 
L 316.609587 -171.863501 
L 316.926942 -171.601937 
L 317.244298 -171.290187 
L 317.561653 -170.915729 
L 317.879008 -170.608598 
L 318.196364 -170.272765 
L 318.513719 -170.248036 
L 318.831074 -170.229525 
L 319.14843 -170.211378 
L 319.465785 -170.195592 
L 319.78314 -170.184586 
L 320.100496 -170.174464 
L 320.417851 -170.167952 
L 320.735207 -170.160305 
L 321.052562 -170.152906 
L 321.369917 -170.146748 
L 321.687273 -170.140351 
L 322.004628 -170.133986 
L 322.321983 -170.127425 
L 322.639339 -170.12007 
L 322.956694 -170.112368 
L 323.27405 -170.104043 
L 323.591405 -170.094456 
L 323.90876 -170.083174 
L 324.226116 -170.070497 
L 324.543471 -170.057525 
L 324.860826 -170.044375 
L 325.178182 -170.031275 
L 325.495537 -170.018254 
L 325.812893 -170.005583 
L 326.130248 -169.993317 
L 326.447603 -169.981112 
L 326.764959 -169.968534 
L 327.082314 -169.954956 
L 327.399669 -169.939769 
L 327.717025 -169.922981 
L 328.03438 -169.90466 
L 328.351736 -169.886247 
L 328.669091 -169.867028 
L 328.986446 -169.84686 
L 329.303802 -169.82513 
L 329.621157 -169.803039 
L 329.938512 -169.782235 
L 330.255868 -169.762714 
L 330.573223 -169.744932 
L 330.890579 -169.728391 
L 331.207934 -169.712308 
L 331.525289 -169.69789 
L 331.842645 -169.684218 
L 332.16 -169.67092 
L 332.477355 -169.658404 
L 332.794711 -169.645949 
L 333.112066 -169.632646 
L 333.429421 -169.617518 
L 333.746777 -169.600108 
L 334.064132 -169.58146 
L 334.381488 -169.562046 
L 334.698843 -169.542177 
L 335.016198 -169.522551 
L 335.333554 -169.50331 
L 335.650909 -169.484156 
L 335.968264 -169.465206 
L 336.28562 -169.447347 
L 336.602975 -169.431149 
L 336.920331 -169.416219 
L 337.237686 -169.402 
L 337.555041 -169.387818 
L 337.872397 -169.373389 
L 338.189752 -169.357041 
L 338.507107 -169.337366 
L 338.824463 -169.31367 
L 339.141818 -169.286542 
L 339.459174 -169.257562 
L 339.776529 -169.226761 
L 340.093884 -169.193745 
L 340.41124 -169.158239 
L 340.728595 -169.119796 
L 341.04595 -169.078177 
L 341.363306 -169.031652 
L 341.680661 -168.978777 
L 341.998017 -168.920476 
L 342.315372 -168.857566 
L 342.632727 -168.790463 
L 342.950083 -168.720138 
L 343.267438 -168.647336 
L 343.584793 -168.571778 
L 343.902149 -168.494937 
L 344.219504 -168.417688 
L 344.53686 -168.340513 
L 344.854215 -168.262085 
L 345.17157 -168.183544 
L 345.488926 -168.104052 
L 345.806281 -168.024226 
L 346.123636 -167.944009 
L 346.440992 -167.86412 
L 346.758347 -167.785012 
L 347.075702 -167.706529 
L 347.393058 -167.629573 
L 347.710413 -167.55522 
L 348.027769 -167.483171 
L 348.345124 -167.414031 
L 348.662479 -167.347464 
L 348.979835 -167.284845 
L 349.29719 -167.226887 
L 349.614545 -167.174095 
L 349.931901 -167.125006 
L 350.249256 -167.078171 
L 350.566612 -167.032853 
L 350.883967 -166.988486 
L 351.201322 -166.94575 
L 351.518678 -166.905726 
L 351.836033 -166.866329 
L 352.153388 -166.828857 
L 352.470744 -166.794174 
L 352.788099 -166.76102 
L 353.105455 -166.731609 
L 353.42281 -166.707076 
L 353.740165 -166.687882 
L 354.057521 -166.677149 
L 354.374876 -166.673813 
L 354.692231 -166.677268 
L 355.009587 -166.683976 
L 355.326942 -166.693547 
L 355.644298 -166.705441 
L 355.961653 -166.719286 
L 356.279008 -166.734688 
L 356.596364 -166.752918 
L 356.913719 -166.771318 
L 357.231074 -166.788267 
L 357.54843 -166.804317 
L 357.865785 -166.821286 
L 358.18314 -166.838182 
L 358.500496 -166.853416 
L 358.817851 -166.868645 
L 359.135207 -166.886298 
L 359.452562 -166.908385 
L 359.769917 -166.932954 
L 360.087273 -166.958016 
L 360.404628 -166.981474 
L 360.721983 -167.002099 
L 361.039339 -167.022959 
L 361.356694 -167.043869 
L 361.67405 -167.065757 
L 361.991405 -167.090053 
L 362.30876 -167.116846 
L 362.626116 -167.144959 
L 362.943471 -167.174103 
L 363.260826 -167.20497 
L 363.578182 -167.237673 
L 363.895537 -167.273794 
L 364.212893 -167.312125 
L 364.530248 -167.352305 
L 364.847603 -167.393574 
L 365.164959 -167.437064 
L 365.482314 -167.48178 
L 365.799669 -167.526863 
L 366.117025 -167.570338 
L 366.43438 -167.611705 
L 366.751736 -167.649131 
L 367.069091 -167.682726 
L 367.386446 -167.71027 
L 367.703802 -167.731133 
L 368.021157 -167.744016 
L 368.338512 -167.749178 
L 368.655868 -167.7472 
L 368.973223 -167.740023 
L 369.290579 -167.726858 
L 369.607934 -167.707973 
L 369.925289 -167.682563 
L 370.242645 -167.648094 
L 370.56 -167.606802 
L 370.877355 -167.560752 
L 371.194711 -167.510642 
L 371.512066 -167.458086 
L 371.829421 -167.398868 
L 372.146777 -167.333352 
L 372.464132 -167.261386 
L 372.781488 -167.182351 
L 373.098843 -167.098794 
L 373.416198 -167.009447 
L 373.733554 -166.916214 
L 374.050909 -166.81844 
L 374.368264 -166.71544 
L 374.68562 -166.601642 
L 375.002975 -166.479458 
L 375.320331 -166.356664 
L 375.637686 -166.232435 
L 375.955041 -166.103001 
L 376.272397 -165.969513 
L 376.589752 -165.835265 
L 376.907107 -165.695975 
L 377.224463 -165.553078 
L 377.541818 -165.40843 
L 377.859174 -165.25992 
L 378.176529 -165.103173 
L 378.493884 -164.94116 
L 378.81124 -164.781843 
L 379.128595 -164.624598 
L 379.44595 -164.46845 
L 379.763306 -164.311238 
L 380.080661 -164.153862 
L 380.398017 -163.997915 
L 380.715372 -163.845852 
L 381.032727 -163.699447 
L 381.350083 -163.55622 
L 381.667438 -163.417333 
L 381.984793 -163.283455 
L 382.302149 -163.154267 
L 382.619504 -163.029853 
L 382.93686 -162.911124 
L 383.254215 -162.798264 
L 383.57157 -162.690347 
L 383.888926 -162.5866 
L 384.206281 -162.485926 
L 384.523636 -162.388828 
L 384.840992 -162.295342 
L 385.158347 -162.206035 
L 385.475702 -162.120483 
L 385.793058 -162.039044 
L 386.110413 -161.963312 
L 386.427769 -161.89495 
L 386.745124 -161.834666 
L 387.062479 -161.783851 
L 387.379835 -161.742579 
L 387.69719 -161.713565 
L 388.014545 -161.697243 
L 388.331901 -161.694827 
L 388.649256 -161.706501 
L 388.966612 -161.808127 
L 389.283967 -161.912831 
L 389.601322 -162.02034 
L 389.918678 -162.129796 
L 390.236033 -162.241698 
L 390.553388 -162.359246 
L 390.870744 -162.48092 
L 391.188099 -162.605131 
L 391.505455 -162.731152 
L 391.82281 -162.857222 
L 392.140165 -162.986942 
L 392.457521 -163.12101 
L 392.774876 -163.259137 
L 393.092231 -163.401496 
L 393.409587 -163.546313 
L 393.726942 -163.693111 
L 394.044298 -163.839828 
L 394.361653 -163.987307 
L 394.679008 -164.133759 
L 394.996364 -164.285437 
L 395.313719 -164.43967 
L 395.631074 -164.591558 
L 395.94843 -164.742183 
L 396.265785 -164.895371 
L 396.58314 -165.050493 
L 396.900496 -165.204773 
L 397.217851 -165.36052 
L 397.535207 -165.518368 
L 397.852562 -165.678447 
L 398.169917 -165.84277 
L 398.487273 -171.072 
L 398.487273 -171.072 
L 398.487273 -171.072 
L 398.169917 -171.072 
L 397.852562 -171.072 
L 397.535207 -171.072 
L 397.217851 -171.072 
L 396.900496 -171.072 
L 396.58314 -171.072 
L 396.265785 -171.072 
L 395.94843 -171.072 
L 395.631074 -171.072 
L 395.313719 -171.072 
L 394.996364 -171.072 
L 394.679008 -171.072 
L 394.361653 -171.072 
L 394.044298 -171.072 
L 393.726942 -171.072 
L 393.409587 -171.072 
L 393.092231 -171.072 
L 392.774876 -171.072 
L 392.457521 -171.072 
L 392.140165 -171.072 
L 391.82281 -171.072 
L 391.505455 -171.072 
L 391.188099 -171.072 
L 390.870744 -171.072 
L 390.553388 -171.072 
L 390.236033 -171.072 
L 389.918678 -171.072 
L 389.601322 -171.072 
L 389.283967 -171.072 
L 388.966612 -171.072 
L 388.649256 -171.072 
L 388.331901 -171.072 
L 388.014545 -171.072 
L 387.69719 -171.072 
L 387.379835 -171.072 
L 387.062479 -171.072 
L 386.745124 -171.072 
L 386.427769 -171.072 
L 386.110413 -171.072 
L 385.793058 -171.072 
L 385.475702 -171.072 
L 385.158347 -171.072 
L 384.840992 -171.072 
L 384.523636 -171.072 
L 384.206281 -171.072 
L 383.888926 -171.072 
L 383.57157 -171.072 
L 383.254215 -171.072 
L 382.93686 -171.072 
L 382.619504 -171.072 
L 382.302149 -171.072 
L 381.984793 -171.072 
L 381.667438 -171.072 
L 381.350083 -171.072 
L 381.032727 -171.072 
L 380.715372 -171.072 
L 380.398017 -171.072 
L 380.080661 -171.072 
L 379.763306 -171.072 
L 379.44595 -171.072 
L 379.128595 -171.072 
L 378.81124 -171.072 
L 378.493884 -171.072 
L 378.176529 -171.072 
L 377.859174 -171.072 
L 377.541818 -171.072 
L 377.224463 -171.072 
L 376.907107 -171.072 
L 376.589752 -171.072 
L 376.272397 -171.072 
L 375.955041 -171.072 
L 375.637686 -171.072 
L 375.320331 -171.072 
L 375.002975 -171.072 
L 374.68562 -171.072 
L 374.368264 -171.072 
L 374.050909 -171.072 
L 373.733554 -171.072 
L 373.416198 -171.072 
L 373.098843 -171.072 
L 372.781488 -171.072 
L 372.464132 -171.072 
L 372.146777 -171.072 
L 371.829421 -171.072 
L 371.512066 -171.072 
L 371.194711 -171.072 
L 370.877355 -171.072 
L 370.56 -171.072 
L 370.242645 -171.072 
L 369.925289 -171.072 
L 369.607934 -171.072 
L 369.290579 -171.072 
L 368.973223 -171.072 
L 368.655868 -171.072 
L 368.338512 -171.072 
L 368.021157 -171.072 
L 367.703802 -171.072 
L 367.386446 -171.072 
L 367.069091 -171.072 
L 366.751736 -171.072 
L 366.43438 -171.072 
L 366.117025 -171.072 
L 365.799669 -171.072 
L 365.482314 -171.072 
L 365.164959 -171.072 
L 364.847603 -171.072 
L 364.530248 -171.072 
L 364.212893 -171.072 
L 363.895537 -171.072 
L 363.578182 -171.072 
L 363.260826 -171.072 
L 362.943471 -171.072 
L 362.626116 -171.072 
L 362.30876 -171.072 
L 361.991405 -171.072 
L 361.67405 -171.072 
L 361.356694 -171.072 
L 361.039339 -171.072 
L 360.721983 -171.072 
L 360.404628 -171.072 
L 360.087273 -171.072 
L 359.769917 -171.072 
L 359.452562 -171.072 
L 359.135207 -171.072 
L 358.817851 -171.072 
L 358.500496 -171.072 
L 358.18314 -171.072 
L 357.865785 -171.072 
L 357.54843 -171.072 
L 357.231074 -171.072 
L 356.913719 -171.072 
L 356.596364 -171.072 
L 356.279008 -171.072 
L 355.961653 -171.072 
L 355.644298 -171.072 
L 355.326942 -171.072 
L 355.009587 -171.072 
L 354.692231 -171.072 
L 354.374876 -171.072 
L 354.057521 -171.072 
L 353.740165 -171.072 
L 353.42281 -171.072 
L 353.105455 -171.072 
L 352.788099 -171.072 
L 352.470744 -171.072 
L 352.153388 -171.072 
L 351.836033 -171.072 
L 351.518678 -171.072 
L 351.201322 -171.072 
L 350.883967 -171.072 
L 350.566612 -171.072 
L 350.249256 -171.072 
L 349.931901 -171.072 
L 349.614545 -171.072 
L 349.29719 -171.072 
L 348.979835 -171.072 
L 348.662479 -171.072 
L 348.345124 -171.072 
L 348.027769 -171.072 
L 347.710413 -171.072 
L 347.393058 -171.072 
L 347.075702 -171.072 
L 346.758347 -171.072 
L 346.440992 -171.072 
L 346.123636 -171.072 
L 345.806281 -171.072 
L 345.488926 -171.072 
L 345.17157 -171.072 
L 344.854215 -171.072 
L 344.53686 -171.072 
L 344.219504 -171.072 
L 343.902149 -171.072 
L 343.584793 -171.072 
L 343.267438 -171.072 
L 342.950083 -171.072 
L 342.632727 -171.072 
L 342.315372 -171.072 
L 341.998017 -171.072 
L 341.680661 -171.072 
L 341.363306 -171.072 
L 341.04595 -171.072 
L 340.728595 -171.072 
L 340.41124 -171.072 
L 340.093884 -171.072 
L 339.776529 -171.072 
L 339.459174 -171.072 
L 339.141818 -171.072 
L 338.824463 -171.072 
L 338.507107 -171.072 
L 338.189752 -171.072 
L 337.872397 -171.072 
L 337.555041 -171.072 
L 337.237686 -171.072 
L 336.920331 -171.072 
L 336.602975 -171.072 
L 336.28562 -171.072 
L 335.968264 -171.072 
L 335.650909 -171.072 
L 335.333554 -171.072 
L 335.016198 -171.072 
L 334.698843 -171.072 
L 334.381488 -171.072 
L 334.064132 -171.072 
L 333.746777 -171.072 
L 333.429421 -171.072 
L 333.112066 -171.072 
L 332.794711 -171.072 
L 332.477355 -171.072 
L 332.16 -171.072 
L 331.842645 -171.072 
L 331.525289 -171.072 
L 331.207934 -171.072 
L 330.890579 -171.072 
L 330.573223 -171.072 
L 330.255868 -171.072 
L 329.938512 -171.072 
L 329.621157 -171.072 
L 329.303802 -171.072 
L 328.986446 -171.072 
L 328.669091 -171.072 
L 328.351736 -171.072 
L 328.03438 -171.072 
L 327.717025 -171.072 
L 327.399669 -171.072 
L 327.082314 -171.072 
L 326.764959 -171.072 
L 326.447603 -171.072 
L 326.130248 -171.072 
L 325.812893 -171.072 
L 325.495537 -171.072 
L 325.178182 -171.072 
L 324.860826 -171.072 
L 324.543471 -171.072 
L 324.226116 -171.072 
L 323.90876 -171.072 
L 323.591405 -171.072 
L 323.27405 -171.072 
L 322.956694 -171.072 
L 322.639339 -171.072 
L 322.321983 -171.072 
L 322.004628 -171.072 
L 321.687273 -171.072 
L 321.369917 -171.072 
L 321.052562 -171.072 
L 320.735207 -171.072 
L 320.417851 -171.072 
L 320.100496 -171.072 
L 319.78314 -171.072 
L 319.465785 -171.072 
L 319.14843 -171.072 
L 318.831074 -171.072 
L 318.513719 -171.072 
L 318.196364 -171.072 
L 317.879008 -171.072 
L 317.561653 -171.072 
L 317.244298 -171.072 
L 316.926942 -171.072 
L 316.609587 -171.072 
L 316.292231 -171.072 
L 315.974876 -171.072 
L 315.657521 -171.072 
L 315.340165 -171.072 
L 315.02281 -171.072 
L 314.705455 -171.072 
L 314.388099 -171.072 
L 314.070744 -171.072 
L 313.753388 -171.072 
L 313.436033 -171.072 
L 313.118678 -171.072 
L 312.801322 -171.072 
L 312.483967 -171.072 
L 312.166612 -171.072 
L 311.849256 -171.072 
L 311.531901 -171.072 
L 311.214545 -171.072 
L 310.89719 -171.072 
L 310.579835 -171.072 
L 310.262479 -171.072 
L 309.945124 -171.072 
L 309.627769 -171.072 
L 309.310413 -171.072 
L 308.993058 -171.072 
L 308.675702 -171.072 
L 308.358347 -171.072 
L 308.040992 -171.072 
L 307.723636 -171.072 
L 307.406281 -171.072 
L 307.088926 -171.072 
L 306.77157 -171.072 
L 306.454215 -171.072 
L 306.13686 -171.072 
L 305.819504 -171.072 
L 305.502149 -171.072 
L 305.184793 -171.072 
L 304.867438 -171.072 
L 304.550083 -171.072 
L 304.232727 -171.072 
L 303.915372 -171.072 
L 303.598017 -171.072 
L 303.280661 -171.072 
L 302.963306 -171.072 
L 302.64595 -171.072 
L 302.328595 -171.072 
L 302.01124 -171.072 
L 301.693884 -171.072 
L 301.376529 -171.072 
L 301.059174 -171.072 
L 300.741818 -171.072 
L 300.424463 -171.072 
L 300.107107 -171.072 
L 299.789752 -171.072 
L 299.472397 -171.072 
L 299.155041 -171.072 
L 298.837686 -171.072 
L 298.520331 -171.072 
L 298.202975 -171.072 
L 297.88562 -171.072 
L 297.568264 -171.072 
L 297.250909 -171.072 
L 296.933554 -171.072 
L 296.616198 -171.072 
L 296.298843 -171.072 
L 295.981488 -171.072 
L 295.664132 -171.072 
L 295.346777 -171.072 
L 295.029421 -171.072 
L 294.712066 -171.072 
L 294.394711 -171.072 
L 294.077355 -171.072 
L 293.76 -171.072 
L 293.442645 -171.072 
L 293.125289 -171.072 
L 292.807934 -171.072 
L 292.490579 -171.072 
L 292.173223 -171.072 
L 291.855868 -171.072 
L 291.538512 -171.072 
L 291.221157 -171.072 
L 290.903802 -171.072 
L 290.586446 -171.072 
L 290.269091 -171.072 
L 289.951736 -171.072 
L 289.63438 -171.072 
L 289.317025 -171.072 
L 288.999669 -171.072 
L 288.682314 -171.072 
L 288.364959 -171.072 
L 288.047603 -171.072 
L 287.730248 -171.072 
L 287.412893 -171.072 
L 287.095537 -171.072 
L 286.778182 -171.072 
L 286.460826 -171.072 
L 286.143471 -171.072 
L 285.826116 -171.072 
L 285.50876 -171.072 
L 285.191405 -171.072 
L 284.87405 -171.072 
L 284.556694 -171.072 
L 284.239339 -171.072 
L 283.921983 -171.072 
L 283.604628 -171.072 
L 283.287273 -171.072 
L 282.969917 -171.072 
L 282.652562 -171.072 
L 282.335207 -171.072 
L 282.017851 -171.072 
L 281.700496 -171.072 
L 281.38314 -171.072 
L 281.065785 -171.072 
L 280.74843 -171.072 
L 280.431074 -171.072 
L 280.113719 -171.072 
L 279.796364 -171.072 
L 279.479008 -171.072 
L 279.161653 -171.072 
L 278.844298 -171.072 
L 278.526942 -171.072 
L 278.209587 -171.072 
L 277.892231 -171.072 
L 277.574876 -171.072 
L 277.257521 -171.072 
L 276.940165 -171.072 
L 276.62281 -171.072 
L 276.305455 -171.072 
L 275.988099 -171.072 
L 275.670744 -171.072 
L 275.353388 -171.072 
L 275.036033 -171.072 
L 274.718678 -171.072 
L 274.401322 -171.072 
L 274.083967 -171.072 
L 273.766612 -171.072 
L 273.449256 -171.072 
L 273.131901 -171.072 
L 272.814545 -171.072 
L 272.49719 -171.072 
L 272.179835 -171.072 
L 271.862479 -171.072 
L 271.545124 -171.072 
L 271.227769 -171.072 
L 270.910413 -171.072 
L 270.593058 -171.072 
L 270.275702 -171.072 
L 269.958347 -171.072 
L 269.640992 -171.072 
L 269.323636 -171.072 
L 269.006281 -171.072 
L 268.688926 -171.072 
L 268.37157 -171.072 
L 268.054215 -171.072 
L 267.73686 -171.072 
L 267.419504 -171.072 
L 267.102149 -171.072 
L 266.784793 -171.072 
L 266.467438 -171.072 
L 266.150083 -171.072 
L 265.832727 -171.072 
L 265.515372 -171.072 
L 265.198017 -171.072 
L 264.880661 -171.072 
L 264.563306 -171.072 
L 264.24595 -171.072 
L 263.928595 -171.072 
L 263.61124 -171.072 
L 263.293884 -171.072 
L 262.976529 -171.072 
L 262.659174 -171.072 
L 262.341818 -171.072 
L 262.024463 -171.072 
L 261.707107 -171.072 
L 261.389752 -171.072 
L 261.072397 -171.072 
L 260.755041 -171.072 
L 260.437686 -171.072 
L 260.120331 -171.072 
L 259.802975 -171.072 
L 259.48562 -171.072 
L 259.168264 -171.072 
L 258.850909 -171.072 
L 258.533554 -171.072 
L 258.216198 -171.072 
L 257.898843 -171.072 
L 257.581488 -171.072 
L 257.264132 -171.072 
L 256.946777 -171.072 
L 256.629421 -171.072 
L 256.312066 -171.072 
L 255.994711 -171.072 
L 255.677355 -171.072 
L 255.36 -171.072 
L 255.042645 -171.072 
L 254.725289 -171.072 
L 254.407934 -171.072 
L 254.090579 -171.072 
L 253.773223 -171.072 
L 253.455868 -171.072 
L 253.138512 -171.072 
L 252.821157 -171.072 
L 252.503802 -171.072 
L 252.186446 -171.072 
L 251.869091 -171.072 
L 251.551736 -171.072 
L 251.23438 -171.072 
L 250.917025 -171.072 
L 250.599669 -171.072 
L 250.282314 -171.072 
L 249.964959 -171.072 
L 249.647603 -171.072 
L 249.330248 -171.072 
L 249.012893 -171.072 
L 248.695537 -171.072 
L 248.378182 -171.072 
L 248.060826 -171.072 
L 247.743471 -171.072 
L 247.426116 -171.072 
L 247.10876 -171.072 
L 246.791405 -171.072 
L 246.47405 -171.072 
L 246.156694 -171.072 
L 245.839339 -171.072 
L 245.521983 -171.072 
L 245.204628 -171.072 
L 244.887273 -171.072 
L 244.569917 -171.072 
L 244.252562 -171.072 
L 243.935207 -171.072 
L 243.617851 -171.072 
L 243.300496 -171.072 
L 242.98314 -171.072 
L 242.665785 -171.072 
L 242.34843 -171.072 
L 242.031074 -171.072 
L 241.713719 -171.072 
L 241.396364 -171.072 
L 241.079008 -171.072 
L 240.761653 -171.072 
L 240.444298 -171.072 
L 240.126942 -171.072 
L 239.809587 -171.072 
L 239.492231 -171.072 
L 239.174876 -171.072 
L 238.857521 -171.072 
L 238.540165 -171.072 
L 238.22281 -171.072 
L 237.905455 -171.072 
L 237.588099 -171.072 
L 237.270744 -171.072 
L 236.953388 -171.072 
L 236.636033 -171.072 
L 236.318678 -171.072 
L 236.001322 -171.072 
L 235.683967 -171.072 
L 235.366612 -171.072 
L 235.049256 -171.072 
L 234.731901 -171.072 
L 234.414545 -171.072 
L 234.09719 -171.072 
L 233.779835 -171.072 
L 233.462479 -171.072 
L 233.145124 -171.072 
L 232.827769 -171.072 
L 232.510413 -171.072 
L 232.193058 -171.072 
L 231.875702 -171.072 
L 231.558347 -171.072 
L 231.240992 -171.072 
L 230.923636 -171.072 
L 230.606281 -171.072 
L 230.288926 -171.072 
L 229.97157 -171.072 
L 229.654215 -171.072 
L 229.33686 -171.072 
L 229.019504 -171.072 
L 228.702149 -171.072 
L 228.384793 -171.072 
L 228.067438 -171.072 
L 227.750083 -171.072 
L 227.432727 -171.072 
L 227.115372 -171.072 
L 226.798017 -171.072 
L 226.480661 -171.072 
L 226.163306 -171.072 
L 225.84595 -171.072 
L 225.528595 -171.072 
L 225.21124 -171.072 
L 224.893884 -171.072 
L 224.576529 -171.072 
L 224.259174 -171.072 
L 223.941818 -171.072 
L 223.624463 -171.072 
L 223.307107 -171.072 
L 222.989752 -171.072 
L 222.672397 -171.072 
L 222.355041 -171.072 
L 222.037686 -171.072 
L 221.720331 -171.072 
L 221.402975 -171.072 
L 221.08562 -171.072 
L 220.768264 -171.072 
L 220.450909 -171.072 
L 220.133554 -171.072 
L 219.816198 -171.072 
L 219.498843 -171.072 
L 219.181488 -171.072 
L 218.864132 -171.072 
L 218.546777 -171.072 
L 218.229421 -171.072 
L 217.912066 -171.072 
L 217.594711 -171.072 
L 217.277355 -171.072 
L 216.96 -171.072 
L 216.642645 -171.072 
L 216.325289 -171.072 
L 216.007934 -171.072 
L 215.690579 -171.072 
L 215.373223 -171.072 
L 215.055868 -171.072 
L 214.738512 -171.072 
L 214.421157 -171.072 
L 214.103802 -171.072 
L 213.786446 -171.072 
L 213.469091 -171.072 
L 213.151736 -171.072 
L 212.83438 -171.072 
L 212.517025 -171.072 
L 212.199669 -171.072 
L 211.882314 -171.072 
L 211.564959 -171.072 
L 211.247603 -171.072 
L 210.930248 -171.072 
L 210.612893 -171.072 
L 210.295537 -171.072 
L 209.978182 -171.072 
L 209.660826 -171.072 
L 209.343471 -171.072 
L 209.026116 -171.072 
L 208.70876 -171.072 
L 208.391405 -171.072 
L 208.07405 -171.072 
L 207.756694 -171.072 
L 207.439339 -171.072 
L 207.121983 -171.072 
L 206.804628 -171.072 
L 206.487273 -171.072 
L 206.169917 -171.072 
L 205.852562 -171.072 
L 205.535207 -171.072 
L 205.217851 -171.072 
L 204.900496 -171.072 
L 204.58314 -171.072 
L 204.265785 -171.072 
L 203.94843 -171.072 
L 203.631074 -171.072 
L 203.313719 -171.072 
L 202.996364 -171.072 
L 202.679008 -171.072 
L 202.361653 -171.072 
L 202.044298 -171.072 
L 201.726942 -171.072 
L 201.409587 -171.072 
L 201.092231 -171.072 
L 200.774876 -171.072 
L 200.457521 -171.072 
L 200.140165 -171.072 
L 199.82281 -171.072 
L 199.505455 -171.072 
L 199.188099 -171.072 
L 198.870744 -171.072 
L 198.553388 -171.072 
L 198.236033 -171.072 
L 197.918678 -171.072 
L 197.601322 -171.072 
L 197.283967 -171.072 
L 196.966612 -171.072 
L 196.649256 -171.072 
L 196.331901 -171.072 
L 196.014545 -171.072 
L 195.69719 -171.072 
L 195.379835 -171.072 
L 195.062479 -171.072 
L 194.745124 -171.072 
L 194.427769 -171.072 
L 194.110413 -171.072 
L 193.793058 -171.072 
L 193.475702 -171.072 
L 193.158347 -171.072 
L 192.840992 -171.072 
L 192.523636 -171.072 
L 192.206281 -171.072 
L 191.888926 -171.072 
L 191.57157 -171.072 
L 191.254215 -171.072 
L 190.93686 -171.072 
L 190.619504 -171.072 
L 190.302149 -171.072 
L 189.984793 -171.072 
L 189.667438 -171.072 
L 189.350083 -171.072 
L 189.032727 -171.072 
L 188.715372 -171.072 
L 188.398017 -171.072 
L 188.080661 -171.072 
L 187.763306 -171.072 
L 187.44595 -171.072 
L 187.128595 -171.072 
L 186.81124 -171.072 
L 186.493884 -171.072 
L 186.176529 -171.072 
L 185.859174 -171.072 
L 185.541818 -171.072 
L 185.224463 -171.072 
L 184.907107 -171.072 
L 184.589752 -171.072 
L 184.272397 -171.072 
L 183.955041 -171.072 
L 183.637686 -171.072 
L 183.320331 -171.072 
L 183.002975 -171.072 
L 182.68562 -171.072 
L 182.368264 -171.072 
L 182.050909 -171.072 
L 181.733554 -171.072 
L 181.416198 -171.072 
L 181.098843 -171.072 
L 180.781488 -171.072 
L 180.464132 -171.072 
L 180.146777 -171.072 
L 179.829421 -171.072 
L 179.512066 -171.072 
L 179.194711 -171.072 
L 178.877355 -171.072 
L 178.56 -171.072 
L 178.242645 -171.072 
L 177.925289 -171.072 
L 177.607934 -171.072 
L 177.290579 -171.072 
L 176.973223 -171.072 
L 176.655868 -171.072 
L 176.338512 -171.072 
L 176.021157 -171.072 
L 175.703802 -171.072 
L 175.386446 -171.072 
L 175.069091 -171.072 
L 174.751736 -171.072 
L 174.43438 -171.072 
L 174.117025 -171.072 
L 173.799669 -171.072 
L 173.482314 -171.072 
L 173.164959 -171.072 
L 172.847603 -171.072 
L 172.530248 -171.072 
L 172.212893 -171.072 
L 171.895537 -171.072 
L 171.578182 -171.072 
L 171.260826 -171.072 
L 170.943471 -171.072 
L 170.626116 -171.072 
L 170.30876 -171.072 
L 169.991405 -171.072 
L 169.67405 -171.072 
L 169.356694 -171.072 
L 169.039339 -171.072 
L 168.721983 -171.072 
L 168.404628 -171.072 
L 168.087273 -171.072 
L 167.769917 -171.072 
L 167.452562 -171.072 
L 167.135207 -171.072 
L 166.817851 -171.072 
L 166.500496 -171.072 
L 166.18314 -171.072 
L 165.865785 -171.072 
L 165.54843 -171.072 
L 165.231074 -171.072 
L 164.913719 -171.072 
L 164.596364 -171.072 
L 164.279008 -171.072 
L 163.961653 -171.072 
L 163.644298 -171.072 
L 163.326942 -171.072 
L 163.009587 -171.072 
L 162.692231 -171.072 
L 162.374876 -171.072 
L 162.057521 -171.072 
L 161.740165 -171.072 
L 161.42281 -171.072 
L 161.105455 -171.072 
L 160.788099 -171.072 
L 160.470744 -171.072 
L 160.153388 -171.072 
L 159.836033 -171.072 
L 159.518678 -171.072 
L 159.201322 -171.072 
L 158.883967 -171.072 
L 158.566612 -171.072 
L 158.249256 -171.072 
L 157.931901 -171.072 
L 157.614545 -171.072 
L 157.29719 -171.072 
L 156.979835 -171.072 
L 156.662479 -171.072 
L 156.345124 -171.072 
L 156.027769 -171.072 
L 155.710413 -171.072 
L 155.393058 -171.072 
L 155.075702 -171.072 
L 154.758347 -171.072 
L 154.440992 -171.072 
L 154.123636 -171.072 
L 153.806281 -171.072 
L 153.488926 -171.072 
L 153.17157 -171.072 
L 152.854215 -171.072 
L 152.53686 -171.072 
L 152.219504 -171.072 
L 151.902149 -171.072 
L 151.584793 -171.072 
L 151.267438 -171.072 
L 150.950083 -171.072 
L 150.632727 -171.072 
L 150.315372 -171.072 
L 149.998017 -171.072 
L 149.680661 -171.072 
L 149.363306 -171.072 
L 149.04595 -171.072 
L 148.728595 -171.072 
L 148.41124 -171.072 
L 148.093884 -171.072 
L 147.776529 -171.072 
L 147.459174 -171.072 
L 147.141818 -171.072 
L 146.824463 -171.072 
L 146.507107 -171.072 
L 146.189752 -171.072 
L 145.872397 -171.072 
L 145.555041 -171.072 
L 145.237686 -171.072 
L 144.920331 -171.072 
L 144.602975 -171.072 
L 144.28562 -171.072 
L 143.968264 -171.072 
L 143.650909 -171.072 
L 143.333554 -171.072 
L 143.016198 -171.072 
L 142.698843 -171.072 
L 142.381488 -171.072 
L 142.064132 -171.072 
L 141.746777 -171.072 
L 141.429421 -171.072 
L 141.112066 -171.072 
L 140.794711 -171.072 
L 140.477355 -171.072 
L 140.16 -171.072 
L 139.842645 -171.072 
L 139.525289 -171.072 
L 139.207934 -171.072 
L 138.890579 -171.072 
L 138.573223 -171.072 
L 138.255868 -171.072 
L 137.938512 -171.072 
L 137.621157 -171.072 
L 137.303802 -171.072 
L 136.986446 -171.072 
L 136.669091 -171.072 
L 136.351736 -171.072 
L 136.03438 -171.072 
L 135.717025 -171.072 
L 135.399669 -171.072 
L 135.082314 -171.072 
L 134.764959 -171.072 
L 134.447603 -171.072 
L 134.130248 -171.072 
L 133.812893 -171.072 
L 133.495537 -171.072 
L 133.178182 -171.072 
L 132.860826 -171.072 
L 132.543471 -171.072 
L 132.226116 -171.072 
L 131.90876 -171.072 
L 131.591405 -171.072 
L 131.27405 -171.072 
L 130.956694 -171.072 
L 130.639339 -171.072 
L 130.321983 -171.072 
L 130.004628 -171.072 
L 129.687273 -171.072 
L 129.369917 -171.072 
L 129.052562 -171.072 
L 128.735207 -171.072 
L 128.417851 -171.072 
L 128.100496 -171.072 
L 127.78314 -171.072 
L 127.465785 -171.072 
L 127.14843 -171.072 
L 126.831074 -171.072 
L 126.513719 -171.072 
L 126.196364 -171.072 
L 125.879008 -171.072 
L 125.561653 -171.072 
L 125.244298 -171.072 
L 124.926942 -171.072 
L 124.609587 -171.072 
L 124.292231 -171.072 
L 123.974876 -171.072 
L 123.657521 -171.072 
L 123.340165 -171.072 
L 123.02281 -171.072 
L 122.705455 -171.072 
L 122.388099 -171.072 
L 122.070744 -171.072 
L 121.753388 -171.072 
L 121.436033 -171.072 
L 121.118678 -171.072 
L 120.801322 -171.072 
L 120.483967 -171.072 
L 120.166612 -171.072 
L 119.849256 -171.072 
L 119.531901 -171.072 
L 119.214545 -171.072 
L 118.89719 -171.072 
L 118.579835 -171.072 
L 118.262479 -171.072 
L 117.945124 -171.072 
L 117.627769 -171.072 
L 117.310413 -171.072 
L 116.993058 -171.072 
L 116.675702 -171.072 
L 116.358347 -171.072 
L 116.040992 -171.072 
L 115.723636 -171.072 
L 115.406281 -171.072 
L 115.088926 -171.072 
L 114.77157 -171.072 
L 114.454215 -171.072 
L 114.13686 -171.072 
L 113.819504 -171.072 
L 113.502149 -171.072 
L 113.184793 -171.072 
L 112.867438 -171.072 
L 112.550083 -171.072 
L 112.232727 -171.072 
L 111.915372 -171.072 
L 111.598017 -171.072 
L 111.280661 -171.072 
L 110.963306 -171.072 
L 110.64595 -171.072 
L 110.328595 -171.072 
L 110.01124 -171.072 
L 109.693884 -171.072 
L 109.376529 -171.072 
L 109.059174 -171.072 
L 108.741818 -171.072 
L 108.424463 -171.072 
L 108.107107 -171.072 
L 107.789752 -171.072 
L 107.472397 -171.072 
L 107.155041 -171.072 
L 106.837686 -171.072 
L 106.520331 -171.072 
L 106.202975 -171.072 
L 105.88562 -171.072 
L 105.568264 -171.072 
L 105.250909 -171.072 
L 104.933554 -171.072 
L 104.616198 -171.072 
L 104.298843 -171.072 
L 103.981488 -171.072 
L 103.664132 -171.072 
L 103.346777 -171.072 
L 103.029421 -171.072 
L 102.712066 -171.072 
L 102.394711 -171.072 
L 102.077355 -171.072 
L 101.76 -171.072 
L 101.442645 -171.072 
L 101.125289 -171.072 
L 100.807934 -171.072 
L 100.490579 -171.072 
L 100.173223 -171.072 
L 99.855868 -171.072 
L 99.538512 -171.072 
L 99.221157 -171.072 
L 98.903802 -171.072 
L 98.586446 -171.072 
L 98.269091 -171.072 
L 97.951736 -171.072 
L 97.63438 -171.072 
L 97.317025 -171.072 
L 96.999669 -171.072 
L 96.682314 -171.072 
L 96.364959 -171.072 
L 96.047603 -171.072 
L 95.730248 -171.072 
L 95.412893 -171.072 
L 95.095537 -171.072 
L 94.778182 -171.072 
L 94.460826 -171.072 
L 94.143471 -171.072 
L 93.826116 -171.072 
L 93.50876 -171.072 
L 93.191405 -171.072 
L 92.87405 -171.072 
L 92.556694 -171.072 
L 92.239339 -171.072 
L 91.921983 -171.072 
L 91.604628 -171.072 
L 91.287273 -171.072 
L 90.969917 -171.072 
L 90.652562 -171.072 
L 90.335207 -171.072 
L 90.017851 -171.072 
L 89.700496 -171.072 
L 89.38314 -171.072 
L 89.065785 -171.072 
L 88.74843 -171.072 
L 88.431074 -171.072 
L 88.113719 -171.072 
L 87.796364 -171.072 
L 87.479008 -171.072 
L 87.161653 -171.072 
L 86.844298 -171.072 
L 86.526942 -171.072 
L 86.209587 -171.072 
L 85.892231 -171.072 
L 85.574876 -171.072 
L 85.257521 -171.072 
L 84.940165 -171.072 
L 84.62281 -171.072 
L 84.305455 -171.072 
L 83.988099 -171.072 
L 83.670744 -171.072 
L 83.353388 -171.072 
L 83.036033 -171.072 
L 82.718678 -171.072 
L 82.401322 -171.072 
L 82.083967 -171.072 
L 81.766612 -171.072 
L 81.449256 -171.072 
L 81.131901 -171.072 
L 80.814545 -171.072 
L 80.49719 -171.072 
L 80.179835 -171.072 
L 79.862479 -171.072 
L 79.545124 -171.072 
L 79.227769 -171.072 
L 78.910413 -171.072 
L 78.593058 -171.072 
L 78.275702 -171.072 
L 77.958347 -171.072 
L 77.640992 -171.072 
L 77.323636 -171.072 
L 77.006281 -171.072 
L 76.688926 -171.072 
L 76.37157 -171.072 
L 76.054215 -171.072 
L 75.73686 -171.072 
L 75.419504 -171.072 
L 75.102149 -171.072 
L 74.784793 -171.072 
L 74.467438 -171.072 
L 74.150083 -171.072 
L 73.832727 -171.072 
z
" style="stroke: #87ceeb; stroke-opacity: 0.75"/>
    </defs>
    <g clip-path="url(#p476705008d)">
     <use xlink:href="#madb2a2df22" x="0" y="345.6" style="fill: #87ceeb; fill-opacity: 0.75; stroke: #87ceeb; stroke-opacity: 0.75"/>
    </g>
   </g>
   <g id="matplotlib.axis_1">
    <g id="xtick_1">
     <g id="line2d_1">
      <defs>
       <path id="m4baf2d014b" d="M 0 0 
L 0 3.5 
" style="stroke: #000000; stroke-width: 0.8"/>
      </defs>
      <g>
       <use xlink:href="#m4baf2d014b" x="73.832727" y="307.584" style="stroke: #000000; stroke-width: 0.8"/>
      </g>
     </g>
     <g id="text_1">
      <!-- 0 -->
      <g transform="translate(70.531868 322.161969) scale(0.11 -0.11)">
       <defs>
        <path id="AndaleMono-30" d="M 1913 4494 
Q 2613 4494 2989 3892 
Q 3366 3291 3366 2203 
Q 3366 1150 3000 533 
Q 2634 -84 1913 -84 
Q 1216 -84 837 516 
Q 459 1116 459 2203 
Q 459 3259 826 3876 
Q 1194 4494 1913 4494 
z
M 1913 366 
Q 2375 366 2598 805 
Q 2822 1244 2822 2203 
Q 2822 3166 2598 3602 
Q 2375 4038 1913 4038 
Q 1456 4038 1231 3591 
Q 1006 3144 1006 2203 
Q 1006 1250 1229 808 
Q 1453 366 1913 366 
z
M 1900 2672 
Q 2097 2672 2233 2536 
Q 2369 2400 2369 2203 
Q 2369 2000 2231 1854 
Q 2094 1709 1900 1709 
Q 1709 1709 1573 1854 
Q 1438 2000 1438 2203 
Q 1438 2403 1570 2537 
Q 1703 2672 1900 2672 
z
" transform="scale(0.015625)"/>
       </defs>
       <use xlink:href="#AndaleMono-30"/>
      </g>
     </g>
    </g>
    <g id="xtick_2">
     <g id="line2d_2">
      <g>
       <use xlink:href="#m4baf2d014b" x="137.303802" y="307.584" style="stroke: #000000; stroke-width: 0.8"/>
      </g>
     </g>
     <g id="text_2">
      <!-- 200 -->
      <g transform="translate(127.401224 322.161969) scale(0.11 -0.11)">
       <defs>
        <path id="AndaleMono-32" d="M 3066 0 
L 641 0 
L 641 372 
Q 1563 1400 1838 1750 
Q 2113 2100 2284 2484 
Q 2456 2869 2456 3250 
Q 2456 3619 2232 3831 
Q 2009 4044 1606 4044 
Q 1297 4044 775 3853 
L 703 4294 
Q 1175 4494 1691 4494 
Q 2281 4494 2642 4161 
Q 3003 3828 3003 3272 
Q 3003 2875 2817 2484 
Q 2631 2094 2340 1734 
Q 2050 1375 1209 447 
L 3066 447 
L 3066 0 
z
" transform="scale(0.015625)"/>
       </defs>
       <use xlink:href="#AndaleMono-32"/>
       <use xlink:href="#AndaleMono-30" x="60.009766"/>
       <use xlink:href="#AndaleMono-30" x="120.019531"/>
      </g>
     </g>
    </g>
    <g id="xtick_3">
     <g id="line2d_3">
      <g>
       <use xlink:href="#m4baf2d014b" x="200.774876" y="307.584" style="stroke: #000000; stroke-width: 0.8"/>
      </g>
     </g>
     <g id="text_3">
      <!-- 400 -->
      <g transform="translate(190.872298 322.161969) scale(0.11 -0.11)">
       <defs>
        <path id="AndaleMono-34" d="M 3353 1019 
L 2809 1019 
L 2809 0 
L 2297 0 
L 2297 1019 
L 378 1019 
L 378 1409 
L 2119 4409 
L 2809 4409 
L 2809 1466 
L 3353 1466 
L 3353 1019 
z
M 2297 1466 
L 2297 3903 
L 897 1466 
L 2297 1466 
z
" transform="scale(0.015625)"/>
       </defs>
       <use xlink:href="#AndaleMono-34"/>
       <use xlink:href="#AndaleMono-30" x="60.009766"/>
       <use xlink:href="#AndaleMono-30" x="120.019531"/>
      </g>
     </g>
    </g>
    <g id="xtick_4">
     <g id="line2d_4">
      <g>
       <use xlink:href="#m4baf2d014b" x="264.24595" y="307.584" style="stroke: #000000; stroke-width: 0.8"/>
      </g>
     </g>
     <g id="text_4">
      <!-- 600 -->
      <g transform="translate(254.343372 322.161969) scale(0.11 -0.11)">
       <defs>
        <path id="AndaleMono-36" d="M 1131 2297 
Q 1544 2631 2028 2631 
Q 2588 2631 2961 2273 
Q 3334 1916 3334 1350 
Q 3334 728 3003 322 
Q 2672 -84 2119 -84 
Q 1413 -84 1000 564 
Q 588 1213 588 2150 
Q 588 3150 1017 3822 
Q 1447 4494 2194 4494 
Q 2709 4494 3084 4341 
L 3003 3884 
Q 2569 4044 2209 4044 
Q 1700 4044 1415 3556 
Q 1131 3069 1131 2297 
z
M 1147 1856 
Q 1147 1291 1412 828 
Q 1678 366 2081 366 
Q 2422 366 2606 616 
Q 2791 866 2791 1306 
Q 2791 1713 2587 1947 
Q 2384 2181 2016 2181 
Q 1538 2181 1147 1856 
z
" transform="scale(0.015625)"/>
       </defs>
       <use xlink:href="#AndaleMono-36"/>
       <use xlink:href="#AndaleMono-30" x="60.009766"/>
       <use xlink:href="#AndaleMono-30" x="120.019531"/>
      </g>
     </g>
    </g>
    <g id="xtick_5">
     <g id="line2d_5">
      <g>
       <use xlink:href="#m4baf2d014b" x="327.717025" y="307.584" style="stroke: #000000; stroke-width: 0.8"/>
      </g>
     </g>
     <g id="text_5">
      <!-- 800 -->
      <g transform="translate(317.814447 322.161969) scale(0.11 -0.11)">
       <defs>
        <path id="AndaleMono-38" d="M 2363 2419 
Q 2813 2288 3061 1972 
Q 3309 1656 3309 1234 
Q 3309 628 2907 272 
Q 2506 -84 1919 -84 
Q 1303 -84 908 275 
Q 513 634 513 1228 
Q 513 1647 769 1965 
Q 1025 2284 1484 2419 
Q 1119 2513 898 2780 
Q 678 3047 678 3378 
Q 678 3803 1015 4148 
Q 1353 4494 1906 4494 
Q 2453 4494 2811 4150 
Q 3169 3806 3169 3378 
Q 3169 3056 2944 2786 
Q 2719 2516 2363 2419 
z
M 1906 2631 
Q 1922 2631 2056 2668 
Q 2191 2706 2286 2761 
Q 2381 2816 2462 2900 
Q 2544 2984 2594 3098 
Q 2644 3213 2644 3353 
Q 2644 3653 2428 3851 
Q 2213 4050 1906 4050 
Q 1609 4050 1396 3847 
Q 1184 3644 1184 3353 
Q 1184 3169 1261 3031 
Q 1338 2894 1452 2809 
Q 1566 2725 1714 2678 
Q 1863 2631 1906 2631 
z
M 1906 2194 
Q 1050 1944 1050 1253 
Q 1050 850 1309 608 
Q 1569 366 1919 366 
Q 2281 366 2529 605 
Q 2778 844 2778 1253 
Q 2778 1563 2606 1808 
Q 2434 2053 1906 2194 
z
" transform="scale(0.015625)"/>
       </defs>
       <use xlink:href="#AndaleMono-38"/>
       <use xlink:href="#AndaleMono-30" x="60.009766"/>
       <use xlink:href="#AndaleMono-30" x="120.019531"/>
      </g>
     </g>
    </g>
    <g id="xtick_6">
     <g id="line2d_6">
      <g>
       <use xlink:href="#m4baf2d014b" x="391.188099" y="307.584" style="stroke: #000000; stroke-width: 0.8"/>
      </g>
     </g>
     <g id="text_6">
      <!-- 1000 -->
      <g transform="translate(377.984662 322.161969) scale(0.11 -0.11)">
       <defs>
        <path id="AndaleMono-31" d="M 3181 0 
L 863 0 
L 863 447 
L 1797 447 
L 1797 3872 
L 916 3431 
L 916 3944 
L 1869 4434 
L 2309 4434 
L 2309 447 
L 3181 447 
L 3181 0 
z
" transform="scale(0.015625)"/>
       </defs>
       <use xlink:href="#AndaleMono-31"/>
       <use xlink:href="#AndaleMono-30" x="60.009766"/>
       <use xlink:href="#AndaleMono-30" x="120.019531"/>
       <use xlink:href="#AndaleMono-30" x="180.029297"/>
      </g>
     </g>
    </g>
   </g>
   <g id="matplotlib.axis_2">
    <g id="ytick_1">
     <g id="line2d_7">
      <defs>
       <path id="m4aa5e640be" d="M 0 0 
L -3.5 0 
" style="stroke: #000000; stroke-width: 0.8"/>
      </defs>
      <g>
       <use xlink:href="#m4aa5e640be" x="57.6" y="295.488" style="stroke: #000000; stroke-width: 0.8"/>
      </g>
     </g>
     <g id="text_7">
      <!-- 1.00 -->
      <g transform="translate(17.591406 299.276984) scale(0.11 -0.11)">
       <defs>
        <path id="AndaleMono-2212" d="M 3397 2047 
L 441 2047 
L 441 2456 
L 3397 2456 
L 3397 2047 
z
" transform="scale(0.015625)"/>
        <path id="AndaleMono-2e" d="M 1900 716 
Q 2066 716 2178 603 
Q 2291 491 2291 325 
Q 2291 156 2177 36 
Q 2063 -84 1900 -84 
Q 1741 -84 1628 36 
Q 1516 156 1516 325 
Q 1516 494 1627 605 
Q 1738 716 1900 716 
z
" transform="scale(0.015625)"/>
       </defs>
       <use xlink:href="#AndaleMono-2212"/>
       <use xlink:href="#AndaleMono-31" x="60.009766"/>
       <use xlink:href="#AndaleMono-2e" x="120.019531"/>
       <use xlink:href="#AndaleMono-30" x="180.029297"/>
       <use xlink:href="#AndaleMono-30" x="240.039062"/>
      </g>
     </g>
    </g>
    <g id="ytick_2">
     <g id="line2d_8">
      <g>
       <use xlink:href="#m4aa5e640be" x="57.6" y="265.248" style="stroke: #000000; stroke-width: 0.8"/>
      </g>
     </g>
     <g id="text_8">
      <!-- 0.75 -->
      <g transform="translate(17.591406 269.036984) scale(0.11 -0.11)">
       <defs>
        <path id="AndaleMono-37" d="M 3238 4044 
L 1491 0 
L 966 0 
L 2688 3963 
L 622 3963 
L 622 4409 
L 3238 4409 
L 3238 4044 
z
" transform="scale(0.015625)"/>
        <path id="AndaleMono-35" d="M 1356 2631 
Q 1569 2688 1772 2688 
Q 2397 2688 2759 2305 
Q 3122 1922 3122 1350 
Q 3122 750 2700 333 
Q 2278 -84 1672 -84 
Q 1094 -84 703 109 
L 806 544 
Q 1231 366 1684 366 
Q 2088 366 2336 625 
Q 2584 884 2584 1350 
Q 2584 1791 2350 2028 
Q 2116 2266 1747 2266 
Q 1478 2266 1216 2163 
L 909 2303 
L 909 4409 
L 2925 4409 
L 2925 3963 
L 1356 3963 
L 1356 2631 
z
" transform="scale(0.015625)"/>
       </defs>
       <use xlink:href="#AndaleMono-2212"/>
       <use xlink:href="#AndaleMono-30" x="60.009766"/>
       <use xlink:href="#AndaleMono-2e" x="120.019531"/>
       <use xlink:href="#AndaleMono-37" x="180.029297"/>
       <use xlink:href="#AndaleMono-35" x="240.039062"/>
      </g>
     </g>
    </g>
    <g id="ytick_3">
     <g id="line2d_9">
      <g>
       <use xlink:href="#m4aa5e640be" x="57.6" y="235.008" style="stroke: #000000; stroke-width: 0.8"/>
      </g>
     </g>
     <g id="text_9">
      <!-- 0.50 -->
      <g transform="translate(17.591406 238.796984) scale(0.11 -0.11)">
       <use xlink:href="#AndaleMono-2212"/>
       <use xlink:href="#AndaleMono-30" x="60.009766"/>
       <use xlink:href="#AndaleMono-2e" x="120.019531"/>
       <use xlink:href="#AndaleMono-35" x="180.029297"/>
       <use xlink:href="#AndaleMono-30" x="240.039062"/>
      </g>
     </g>
    </g>
    <g id="ytick_4">
     <g id="line2d_10">
      <g>
       <use xlink:href="#m4aa5e640be" x="57.6" y="204.768" style="stroke: #000000; stroke-width: 0.8"/>
      </g>
     </g>
     <g id="text_10">
      <!-- 0.25 -->
      <g transform="translate(17.591406 208.556984) scale(0.11 -0.11)">
       <use xlink:href="#AndaleMono-2212"/>
       <use xlink:href="#AndaleMono-30" x="60.009766"/>
       <use xlink:href="#AndaleMono-2e" x="120.019531"/>
       <use xlink:href="#AndaleMono-32" x="180.029297"/>
       <use xlink:href="#AndaleMono-35" x="240.039062"/>
      </g>
     </g>
    </g>
    <g id="ytick_5">
     <g id="line2d_11">
      <g>
       <use xlink:href="#m4aa5e640be" x="57.6" y="174.528" style="stroke: #000000; stroke-width: 0.8"/>
      </g>
     </g>
     <g id="text_11">
      <!-- 0.00 -->
      <g transform="translate(24.193125 178.316984) scale(0.11 -0.11)">
       <use xlink:href="#AndaleMono-30"/>
       <use xlink:href="#AndaleMono-2e" x="60.009766"/>
       <use xlink:href="#AndaleMono-30" x="120.019531"/>
       <use xlink:href="#AndaleMono-30" x="180.029297"/>
      </g>
     </g>
    </g>
    <g id="ytick_6">
     <g id="line2d_12">
      <g>
       <use xlink:href="#m4aa5e640be" x="57.6" y="144.288" style="stroke: #000000; stroke-width: 0.8"/>
      </g>
     </g>
     <g id="text_12">
      <!-- 0.25 -->
      <g transform="translate(24.193125 148.076984) scale(0.11 -0.11)">
       <use xlink:href="#AndaleMono-30"/>
       <use xlink:href="#AndaleMono-2e" x="60.009766"/>
       <use xlink:href="#AndaleMono-32" x="120.019531"/>
       <use xlink:href="#AndaleMono-35" x="180.029297"/>
      </g>
     </g>
    </g>
    <g id="ytick_7">
     <g id="line2d_13">
      <g>
       <use xlink:href="#m4aa5e640be" x="57.6" y="114.048" style="stroke: #000000; stroke-width: 0.8"/>
      </g>
     </g>
     <g id="text_13">
      <!-- 0.50 -->
      <g transform="translate(24.193125 117.836984) scale(0.11 -0.11)">
       <use xlink:href="#AndaleMono-30"/>
       <use xlink:href="#AndaleMono-2e" x="60.009766"/>
       <use xlink:href="#AndaleMono-35" x="120.019531"/>
       <use xlink:href="#AndaleMono-30" x="180.029297"/>
      </g>
     </g>
    </g>
    <g id="ytick_8">
     <g id="line2d_14">
      <g>
       <use xlink:href="#m4aa5e640be" x="57.6" y="83.808" style="stroke: #000000; stroke-width: 0.8"/>
      </g>
     </g>
     <g id="text_14">
      <!-- 0.75 -->
      <g transform="translate(24.193125 87.596984) scale(0.11 -0.11)">
       <use xlink:href="#AndaleMono-30"/>
       <use xlink:href="#AndaleMono-2e" x="60.009766"/>
       <use xlink:href="#AndaleMono-37" x="120.019531"/>
       <use xlink:href="#AndaleMono-35" x="180.029297"/>
      </g>
     </g>
    </g>
    <g id="ytick_9">
     <g id="line2d_15">
      <g>
       <use xlink:href="#m4aa5e640be" x="57.6" y="53.568" style="stroke: #000000; stroke-width: 0.8"/>
      </g>
     </g>
     <g id="text_15">
      <!-- 1.00 -->
      <g transform="translate(24.193125 57.356984) scale(0.11 -0.11)">
       <use xlink:href="#AndaleMono-31"/>
       <use xlink:href="#AndaleMono-2e" x="60.009766"/>
       <use xlink:href="#AndaleMono-30" x="120.019531"/>
       <use xlink:href="#AndaleMono-30" x="180.029297"/>
      </g>
     </g>
    </g>
   </g>
   <g id="line2d_16">
    <path d="M 73.832727 174.528 
L 74.150083 169.47579 
L 77.958347 167.620326 
L 81.449256 166.11394 
L 83.988099 165.243337 
L 85.257521 165.304422 
L 86.844298 165.613525 
L 89.38314 166.375867 
L 91.604628 167.300127 
L 97.63438 170.057642 
L 99.538512 170.638351 
L 101.442645 171.016752 
L 103.346777 171.196023 
L 105.250909 171.138726 
L 114.13686 170.294182 
L 118.579835 170.143882 
L 121.118678 170.40175 
L 124.292231 170.939171 
L 132.226116 172.649745 
L 135.399669 172.872219 
L 154.123636 173.728765 
L 155.710413 175.319501 
L 156.979835 176.277631 
L 157.614545 176.337988 
L 158.249256 176.109257 
L 158.883967 175.512075 
L 159.518678 174.637598 
L 160.153388 173.354079 
L 161.105455 170.849656 
L 162.057521 167.505386 
L 163.326942 162.129224 
L 164.913719 154.042124 
L 167.135207 140.999767 
L 169.991405 122.846897 
L 172.212893 108.971727 
L 173.799669 100.440517 
L 174.751736 95.265362 
L 178.877355 68.87393 
L 180.146777 62.886098 
L 181.416198 58.368333 
L 182.368264 56.057251 
L 183.320331 54.466688 
L 183.955041 53.832019 
L 184.589752 53.568 
L 185.224463 53.658969 
L 185.859174 54.101682 
L 186.81124 55.288045 
L 188.715372 58.09133 
L 191.888926 64.511819 
L 192.523636 65.940995 
L 193.475702 67.248548 
L 194.745124 68.290382 
L 196.014545 70.209267 
L 196.649256 71.096467 
L 199.188099 75.957218 
L 200.140165 77.416697 
L 201.726942 79.035591 
L 203.313719 80.332151 
L 204.900496 81.554838 
L 206.169917 82.044216 
L 207.439339 82.499999 
L 208.391405 83.188833 
L 209.343471 84.197619 
L 210.295537 85.645226 
L 213.151736 90.75354 
L 215.373223 96.281531 
L 216.642645 99.868944 
L 219.816198 109.536426 
L 221.08562 114.358404 
L 222.672397 121.335816 
L 226.163306 137.359541 
L 229.019504 150.259812 
L 230.606281 156.515408 
L 232.827769 164.367368 
L 234.414545 169.367963 
L 236.001322 174.101804 
L 237.588099 178.668515 
L 241.079008 190.238599 
L 242.665785 196.178988 
L 244.252562 202.941921 
L 252.186446 238.401522 
L 253.773223 243.705877 
L 255.994711 250.11664 
L 257.264132 253.590348 
L 259.802975 259.515483 
L 260.755041 261.150093 
L 262.976529 264.858381 
L 263.928595 265.867167 
L 264.563306 266.340413 
L 265.198017 266.683213 
L 267.73686 267.694914 
L 268.37157 268.164462 
L 269.958347 269.51257 
L 271.545124 270.94136 
L 272.49719 272.093371 
L 273.766612 274.134104 
L 275.670744 277.959533 
L 277.574876 280.765618 
L 278.209587 281.261485 
L 279.479008 282.614336 
L 280.113719 283.806546 
L 281.700496 287.231645 
L 282.969917 289.752327 
L 284.556694 292.479856 
L 285.826116 294.237327 
L 286.778182 295.20855 
L 287.412893 295.468243 
L 287.730248 295.488 
L 288.364959 295.223981 
L 288.999669 294.589312 
L 289.951736 292.998749 
L 290.903802 290.687667 
L 291.538512 288.596793 
L 292.490579 284.856211 
L 293.76 278.488232 
L 295.029421 270.736286 
L 298.202975 250.174435 
L 299.789752 241.889241 
L 301.376529 232.293283 
L 306.77157 198.593313 
L 308.358347 190.027593 
L 309.627769 184.134577 
L 310.89719 179.241552 
L 311.849256 176.450011 
L 312.801322 174.418402 
L 313.436033 173.543925 
L 314.070744 172.946743 
L 314.705455 172.718012 
L 315.340165 172.778369 
L 315.974876 173.202284 
L 317.879008 174.991402 
L 318.196364 175.327235 
L 321.052562 175.447094 
L 327.717025 175.677019 
L 341.363306 176.568348 
L 343.584793 177.028222 
L 349.931901 178.474994 
L 353.42281 178.892924 
L 355.326942 178.906453 
L 360.721983 178.597901 
L 364.530248 178.247695 
L 368.338512 177.850822 
L 370.242645 177.951906 
L 372.464132 178.338614 
L 374.68562 178.998358 
L 377.541818 180.19157 
L 383.57157 182.909653 
L 386.110413 183.636688 
L 387.69719 183.886435 
L 388.649256 183.893499 
L 391.505455 182.868848 
L 394.044298 181.760172 
L 398.169917 179.75723 
L 398.487273 174.528 
L 398.487273 174.528 
" clip-path="url(#p476705008d)" style="fill: none; stroke: #87ceeb; stroke-opacity: 0.75; stroke-linecap: square"/>
   </g>
   <g id="patch_3">
    <path d="M 57.6 307.584 
L 57.6 41.472 
" style="fill: none; stroke: #000000; stroke-width: 0.8; stroke-linejoin: miter; stroke-linecap: square"/>
   </g>
   <g id="patch_4">
    <path d="M 414.72 307.584 
L 414.72 41.472 
" style="fill: none; stroke: #000000; stroke-width: 0.8; stroke-linejoin: miter; stroke-linecap: square"/>
   </g>
   <g id="patch_5">
    <path d="M 57.6 307.584 
L 414.72 307.584 
" style="fill: none; stroke: #000000; stroke-width: 0.8; stroke-linejoin: miter; stroke-linecap: square"/>
   </g>
   <g id="patch_6">
    <path d="M 57.6 41.472 
L 414.72 41.472 
" style="fill: none; stroke: #000000; stroke-width: 0.8; stroke-linejoin: miter; stroke-linecap: square"/>
   </g>
  </g>
 </g>
 <defs>
  <clipPath id="p476705008d">
   <rect x="57.6" y="41.472" width="357.12" height="266.112"/>
  </clipPath>
 </defs>
</svg>
