<?xml version="1.0" encoding="utf-8" standalone="no"?>
<!DOCTYPE svg PUBLIC "-//W3C//DTD SVG 1.1//EN"
  "http://www.w3.org/Graphics/SVG/1.1/DTD/svg11.dtd">
<svg xmlns:xlink="http://www.w3.org/1999/xlink" width="460.8pt" height="345.6pt" viewBox="0 0 460.8 345.6" xmlns="http://www.w3.org/2000/svg" version="1.1">
 <metadata>
  <rdf:RDF xmlns:dc="http://purl.org/dc/elements/1.1/" xmlns:cc="http://creativecommons.org/ns#" xmlns:rdf="http://www.w3.org/1999/02/22-rdf-syntax-ns#">
   <cc:Work>
    <dc:type rdf:resource="http://purl.org/dc/dcmitype/StillImage"/>
    <dc:date>2024-04-23T11:13:04.897869</dc:date>
    <dc:format>image/svg+xml</dc:format>
    <dc:creator>
     <cc:Agent>
      <dc:title>Matplotlib v3.8.3, https://matplotlib.org/</dc:title>
     </cc:Agent>
    </dc:creator>
   </cc:Work>
  </rdf:RDF>
 </metadata>
 <defs>
  <style type="text/css">*{stroke-linejoin: round; stroke-linecap: butt}</style>
 </defs>
 <g id="figure_1">
  <g id="patch_1">
   <path d="M 0 345.6 
L 460.8 345.6 
L 460.8 0 
L 0 0 
z
" style="fill: #ffffff"/>
  </g>
  <g id="axes_1">
   <g id="patch_2">
    <path d="M 57.6 307.584 
L 414.72 307.584 
L 414.72 41.472 
L 57.6 41.472 
z
" style="fill: #ffffff"/>
   </g>
   <g id="PolyCollection_1">
    <defs>
     <path id="mc89c9c08df" d="M 73.832727 -171.072 
L 73.832727 -171.072 
L 74.150083 -171.510024 
L 74.467438 -171.520693 
L 74.784793 -171.531889 
L 75.102149 -171.542847 
L 75.419504 -171.554034 
L 75.73686 -171.565162 
L 76.054215 -171.574137 
L 76.37157 -171.580968 
L 76.688926 -171.577307 
L 77.006281 -171.571565 
L 77.323636 -171.563798 
L 77.640992 -171.559031 
L 77.958347 -171.555908 
L 78.275702 -171.550663 
L 78.593058 -171.546295 
L 78.910413 -171.543302 
L 79.227769 -171.546543 
L 79.545124 -171.552127 
L 79.862479 -171.564511 
L 80.179835 -171.577114 
L 80.49719 -171.597242 
L 80.814545 -171.618383 
L 81.131901 -171.647504 
L 81.449256 -171.681315 
L 81.766612 -171.722918 
L 82.083967 -171.768778 
L 82.401322 -171.822339 
L 82.718678 -171.880879 
L 83.036033 -171.947023 
L 83.353388 -172.019311 
L 83.670744 -172.098194 
L 83.988099 -172.183085 
L 84.305455 -172.255861 
L 84.62281 -172.334638 
L 84.940165 -172.419462 
L 85.257521 -172.510963 
L 85.574876 -172.6074 
L 85.892231 -172.708695 
L 86.209587 -172.814108 
L 86.526942 -172.924371 
L 86.844298 -173.038491 
L 87.161653 -173.156653 
L 87.479008 -173.27831 
L 87.796364 -173.402601 
L 88.113719 -173.528444 
L 88.431074 -173.656911 
L 88.74843 -173.786108 
L 89.065785 -173.916798 
L 89.38314 -174.048355 
L 89.700496 -174.179263 
L 90.017851 -174.309205 
L 90.335207 -174.438979 
L 90.652562 -174.567933 
L 90.969917 -174.695658 
L 91.287273 -174.821189 
L 91.604628 -174.943275 
L 91.921983 -175.062384 
L 92.239339 -175.178913 
L 92.556694 -175.291832 
L 92.87405 -175.40056 
L 93.191405 -175.504698 
L 93.50876 -175.602482 
L 93.826116 -175.694067 
L 94.143471 -175.7796 
L 94.460826 -175.861414 
L 94.778182 -175.935656 
L 95.095537 -176.002499 
L 95.412893 -176.062163 
L 95.730248 -176.113684 
L 96.047603 -176.156619 
L 96.364959 -176.195362 
L 96.682314 -176.229726 
L 96.999669 -176.278337 
L 97.317025 -176.327044 
L 97.63438 -176.376859 
L 97.951736 -176.418443 
L 98.269091 -176.454964 
L 98.586446 -176.494632 
L 98.903802 -176.532895 
L 99.221157 -176.570273 
L 99.538512 -176.59622 
L 99.855868 -176.619583 
L 100.173223 -176.632381 
L 100.490579 -176.647985 
L 100.807934 -176.652417 
L 101.125289 -176.65882 
L 101.442645 -176.65455 
L 101.76 -176.646193 
L 102.077355 -176.627813 
L 102.394711 -176.607029 
L 102.712066 -176.576475 
L 103.029421 -176.542097 
L 103.346777 -176.498356 
L 103.664132 -176.448211 
L 103.981488 -176.390146 
L 104.298843 -176.325389 
L 104.616198 -176.256026 
L 104.933554 -176.180015 
L 105.250909 -176.097805 
L 105.568264 -176.007237 
L 105.88562 -175.911884 
L 106.202975 -175.811657 
L 106.520331 -175.707996 
L 106.837686 -175.598803 
L 107.155041 -175.485311 
L 107.472397 -175.366977 
L 107.789752 -175.244626 
L 108.107107 -175.119972 
L 108.424463 -174.994496 
L 108.741818 -174.865914 
L 109.059174 -174.737183 
L 109.376529 -174.606648 
L 109.693884 -174.474543 
L 110.01124 -174.343478 
L 110.328595 -174.214281 
L 110.64595 -174.085169 
L 110.963306 -173.956554 
L 111.280661 -173.82896 
L 111.598017 -173.703729 
L 111.915372 -173.583381 
L 112.232727 -173.466291 
L 112.550083 -173.351494 
L 112.867438 -173.239957 
L 113.184793 -173.132293 
L 113.502149 -173.029012 
L 113.819504 -172.933297 
L 114.13686 -172.844388 
L 114.454215 -172.761113 
L 114.77157 -172.683101 
L 115.088926 -172.612443 
L 115.406281 -172.548718 
L 115.723636 -172.492201 
L 116.040992 -172.44358 
L 116.358347 -172.403611 
L 116.675702 -172.370114 
L 116.993058 -172.343453 
L 117.310413 -172.312992 
L 117.627769 -172.284287 
L 117.945124 -172.256721 
L 118.262479 -172.23441 
L 118.579835 -172.215128 
L 118.89719 -172.194535 
L 119.214545 -172.17427 
L 119.531901 -172.153246 
L 119.849256 -172.137865 
L 120.166612 -172.123076 
L 120.483967 -172.112112 
L 120.801322 -172.098006 
L 121.118678 -172.087707 
L 121.436033 -172.074152 
L 121.753388 -172.062973 
L 122.070744 -172.051355 
L 122.388099 -172.041723 
L 122.705455 -172.030159 
L 123.02281 -172.020517 
L 123.340165 -172.008995 
L 123.657521 -171.998704 
L 123.974876 -171.988184 
L 124.292231 -171.978633 
L 124.609587 -171.969774 
L 124.926942 -171.96108 
L 125.244298 -171.954351 
L 125.561653 -171.948486 
L 125.879008 -171.945411 
L 126.196364 -171.942659 
L 126.513719 -171.940282 
L 126.831074 -171.937673 
L 127.14843 -171.936496 
L 127.465785 -171.937044 
L 127.78314 -171.898409 
L 128.100496 -171.791197 
L 128.417851 -171.629059 
L 128.735207 -171.423971 
L 129.052562 -171.184386 
L 129.369917 -170.99107 
L 129.687273 -170.788551 
L 130.004628 -170.607066 
L 130.321983 -170.476602 
L 130.639339 -170.334572 
L 130.956694 -170.216335 
L 131.27405 -170.175881 
L 131.591405 -170.210128 
L 131.90876 -170.2883 
L 132.226116 -170.416966 
L 132.543471 -170.597215 
L 132.860826 -170.83192 
L 133.178182 -171.128549 
L 133.495537 -171.501994 
L 133.812893 -171.945899 
L 134.130248 -172.43321 
L 134.447603 -172.98288 
L 134.764959 -173.592614 
L 135.082314 -174.250756 
L 135.399669 -174.972681 
L 135.717025 -175.670114 
L 136.03438 -176.397976 
L 136.351736 -177.183744 
L 136.669091 -178.02035 
L 136.986446 -178.898469 
L 137.303802 -179.820991 
L 137.621157 -180.790426 
L 137.938512 -181.783121 
L 138.255868 -182.826069 
L 138.573223 -183.924579 
L 138.890579 -185.074263 
L 139.207934 -186.257172 
L 139.525289 -187.471704 
L 139.842645 -188.717327 
L 140.16 -189.986052 
L 140.477355 -191.28362 
L 140.794711 -192.606362 
L 141.112066 -193.956063 
L 141.429421 -195.313749 
L 141.746777 -196.6787 
L 142.064132 -198.056751 
L 142.381488 -199.441916 
L 142.698843 -200.82836 
L 143.016198 -202.20501 
L 143.333554 -203.57243 
L 143.650909 -204.915679 
L 143.968264 -206.238166 
L 144.28562 -207.529507 
L 144.602975 -208.784623 
L 144.920331 -209.998416 
L 145.237686 -211.169854 
L 145.555041 -212.292235 
L 145.872397 -213.355164 
L 146.189752 -214.353449 
L 146.507107 -215.276142 
L 146.824463 -216.125949 
L 147.141818 -216.898815 
L 147.459174 -217.57187 
L 147.776529 -218.152971 
L 148.093884 -218.727599 
L 148.41124 -219.370881 
L 148.728595 -220.07165 
L 149.04595 -220.818406 
L 149.363306 -221.604938 
L 149.680661 -222.290723 
L 149.998017 -222.991073 
L 150.315372 -223.649387 
L 150.632727 -224.209921 
L 150.950083 -224.788804 
L 151.267438 -225.364663 
L 151.584793 -225.803618 
L 151.902149 -226.118084 
L 152.219504 -226.367594 
L 152.53686 -226.564719 
L 152.854215 -226.687975 
L 153.17157 -226.733287 
L 153.488926 -226.715572 
L 153.806281 -226.549977 
L 154.123636 -226.316403 
L 154.440992 -226.049632 
L 154.758347 -225.71633 
L 155.075702 -225.327056 
L 155.393058 -224.893634 
L 155.710413 -224.365296 
L 156.027769 -223.962611 
L 156.345124 -223.558984 
L 156.662479 -223.0974 
L 156.979835 -222.617361 
L 157.29719 -222.134857 
L 157.614545 -221.538575 
L 157.931901 -220.951625 
L 158.249256 -220.384225 
L 158.566612 -219.803843 
L 158.883967 -219.204899 
L 159.201322 -218.609627 
L 159.518678 -218.021934 
L 159.836033 -217.462421 
L 160.153388 -216.935659 
L 160.470744 -216.435033 
L 160.788099 -215.965011 
L 161.105455 -215.525476 
L 161.42281 -215.102456 
L 161.740165 -214.729742 
L 162.057521 -214.374247 
L 162.374876 -214.032956 
L 162.692231 -213.707415 
L 163.009587 -213.414849 
L 163.326942 -213.162421 
L 163.644298 -212.943874 
L 163.961653 -212.759128 
L 164.279008 -212.605617 
L 164.596364 -212.509586 
L 164.913719 -212.473817 
L 165.231074 -212.487885 
L 165.54843 -212.555759 
L 165.865785 -212.648525 
L 166.18314 -212.792425 
L 166.500496 -213.000182 
L 166.817851 -213.290677 
L 167.135207 -213.646565 
L 167.452562 -214.032915 
L 167.769917 -214.523429 
L 168.087273 -215.057194 
L 168.404628 -215.618967 
L 168.721983 -216.15256 
L 169.039339 -216.604487 
L 169.356694 -217.022881 
L 169.67405 -217.430932 
L 169.991405 -217.841534 
L 170.30876 -218.229518 
L 170.626116 -218.621705 
L 170.943471 -219.051597 
L 171.260826 -219.471084 
L 171.578182 -219.854058 
L 171.895537 -220.312649 
L 172.212893 -220.804881 
L 172.530248 -221.330602 
L 172.847603 -221.765952 
L 173.164959 -222.230611 
L 173.482314 -222.73316 
L 173.799669 -223.166145 
L 174.117025 -223.720045 
L 174.43438 -224.276863 
L 174.751736 -224.821123 
L 175.069091 -225.403907 
L 175.386446 -225.982525 
L 175.703802 -226.566261 
L 176.021157 -227.225687 
L 176.338512 -227.757933 
L 176.655868 -228.261934 
L 176.973223 -228.747247 
L 177.290579 -229.161867 
L 177.607934 -229.564698 
L 177.925289 -230.15603 
L 178.242645 -230.688508 
L 178.56 -231.264572 
L 178.877355 -231.856275 
L 179.194711 -232.51287 
L 179.512066 -233.188709 
L 179.829421 -233.846954 
L 180.146777 -234.504182 
L 180.464132 -235.190457 
L 180.781488 -235.88218 
L 181.098843 -236.589229 
L 181.416198 -237.299087 
L 181.733554 -238.026093 
L 182.050909 -238.753586 
L 182.368264 -239.511229 
L 182.68562 -240.306807 
L 183.002975 -241.122582 
L 183.320331 -241.951042 
L 183.637686 -242.721295 
L 183.955041 -243.502083 
L 184.272397 -244.314604 
L 184.589752 -245.13568 
L 184.907107 -245.941971 
L 185.224463 -246.738567 
L 185.541818 -247.507244 
L 185.859174 -248.257088 
L 186.176529 -249.041491 
L 186.493884 -249.817513 
L 186.81124 -250.562671 
L 187.128595 -251.260255 
L 187.44595 -251.917414 
L 187.763306 -252.631228 
L 188.080661 -253.285139 
L 188.398017 -254.004332 
L 188.715372 -254.666689 
L 189.032727 -255.299863 
L 189.350083 -256.053012 
L 189.667438 -256.874955 
L 189.984793 -257.687655 
L 190.302149 -258.54831 
L 190.619504 -259.407938 
L 190.93686 -260.259535 
L 191.254215 -260.989968 
L 191.57157 -261.691173 
L 191.888926 -262.428105 
L 192.206281 -263.132919 
L 192.523636 -263.871235 
L 192.840992 -264.593327 
L 193.158347 -265.431892 
L 193.475702 -266.251569 
L 193.793058 -267.073606 
L 194.110413 -268.055642 
L 194.427769 -269.006359 
L 194.745124 -269.928537 
L 195.062479 -270.851978 
L 195.379835 -271.707902 
L 195.69719 -272.569371 
L 196.014545 -273.366784 
L 196.331901 -274.103751 
L 196.649256 -274.830621 
L 196.966612 -275.516056 
L 197.283967 -276.254528 
L 197.601322 -277.117991 
L 197.918678 -277.92568 
L 198.236033 -278.661452 
L 198.553388 -279.473332 
L 198.870744 -280.246467 
L 199.188099 -280.977316 
L 199.505455 -281.593137 
L 199.82281 -282.114308 
L 200.140165 -282.683465 
L 200.457521 -283.214028 
L 200.774876 -283.637821 
L 201.092231 -283.965463 
L 201.409587 -284.176549 
L 201.726942 -284.359106 
L 202.044298 -284.473708 
L 202.361653 -284.553449 
L 202.679008 -284.603246 
L 202.996364 -284.518524 
L 203.313719 -284.321242 
L 203.631074 -284.099253 
L 203.94843 -283.953037 
L 204.265785 -283.788507 
L 204.58314 -283.596159 
L 204.900496 -283.369746 
L 205.217851 -283.159636 
L 205.535207 -282.936603 
L 205.852562 -282.639541 
L 206.169917 -282.35298 
L 206.487273 -282.053871 
L 206.804628 -281.707997 
L 207.121983 -281.442698 
L 207.439339 -281.260314 
L 207.756694 -281.165774 
L 208.07405 -281.081384 
L 208.391405 -281.047945 
L 208.70876 -281.005597 
L 209.026116 -281.088339 
L 209.343471 -281.278488 
L 209.660826 -281.44187 
L 209.978182 -281.532721 
L 210.295537 -281.600785 
L 210.612893 -281.722136 
L 210.930248 -281.881279 
L 211.247603 -282.050465 
L 211.564959 -282.501189 
L 211.882314 -283.034394 
L 212.199669 -283.532831 
L 212.517025 -284.082522 
L 212.83438 -284.625263 
L 213.151736 -285.155122 
L 213.469091 -285.657217 
L 213.786446 -286.19255 
L 214.103802 -286.707121 
L 214.421157 -287.088373 
L 214.738512 -287.421825 
L 215.055868 -287.748911 
L 215.373223 -288.046495 
L 215.690579 -288.355671 
L 216.007934 -288.532759 
L 216.325289 -288.912163 
L 216.642645 -289.289035 
L 216.96 -289.744699 
L 217.277355 -290.296127 
L 217.594711 -290.812719 
L 217.912066 -291.190594 
L 218.229421 -291.571344 
L 218.546777 -291.845124 
L 218.864132 -292.01337 
L 219.181488 -292.032 
L 219.498843 -291.983596 
L 219.816198 -291.856376 
L 220.133554 -291.693121 
L 220.450909 -291.394038 
L 220.768264 -290.97716 
L 221.08562 -290.515152 
L 221.402975 -290.068579 
L 221.720331 -289.60081 
L 222.037686 -289.040946 
L 222.355041 -288.408792 
L 222.672397 -287.614313 
L 222.989752 -286.679606 
L 223.307107 -285.7683 
L 223.624463 -284.889626 
L 223.941818 -283.883586 
L 224.259174 -282.715575 
L 224.576529 -281.389059 
L 224.893884 -279.910171 
L 225.21124 -278.344008 
L 225.528595 -276.693564 
L 225.84595 -274.89777 
L 226.163306 -273.187018 
L 226.480661 -271.464383 
L 226.798017 -269.598725 
L 227.115372 -267.739308 
L 227.432727 -265.727398 
L 227.750083 -263.533328 
L 228.067438 -261.157527 
L 228.384793 -258.647122 
L 228.702149 -256.03547 
L 229.019504 -253.378437 
L 229.33686 -250.625646 
L 229.654215 -247.707672 
L 229.97157 -244.637231 
L 230.288926 -241.520742 
L 230.606281 -238.379908 
L 230.923636 -235.126713 
L 231.240992 -231.828874 
L 231.558347 -228.487375 
L 231.875702 -224.896476 
L 232.193058 -221.190225 
L 232.510413 -217.441946 
L 232.827769 -213.566505 
L 233.145124 -209.624746 
L 233.462479 -205.597325 
L 233.779835 -201.539983 
L 234.09719 -197.401575 
L 234.414545 -193.24197 
L 234.731901 -189.074694 
L 235.049256 -184.936462 
L 235.366612 -180.883316 
L 235.683967 -176.90228 
L 236.001322 -172.923933 
L 236.318678 -169.220067 
L 236.636033 -165.24172 
L 236.953388 -161.260684 
L 237.270744 -157.207538 
L 237.588099 -153.069306 
L 237.905455 -148.90203 
L 238.22281 -144.742425 
L 238.540165 -140.604017 
L 238.857521 -136.546675 
L 239.174876 -132.519254 
L 239.492231 -128.577495 
L 239.809587 -124.702054 
L 240.126942 -120.953775 
L 240.444298 -117.247524 
L 240.761653 -113.656625 
L 241.079008 -110.315126 
L 241.396364 -107.017287 
L 241.713719 -103.764092 
L 242.031074 -100.623258 
L 242.34843 -97.506769 
L 242.665785 -94.436328 
L 242.98314 -91.518354 
L 243.300496 -88.765563 
L 243.617851 -86.10853 
L 243.935207 -83.496878 
L 244.252562 -80.986473 
L 244.569917 -78.610672 
L 244.887273 -76.416602 
L 245.204628 -74.404692 
L 245.521983 -72.545275 
L 245.839339 -70.679617 
L 246.156694 -68.956982 
L 246.47405 -67.24623 
L 246.791405 -65.450436 
L 247.10876 -63.799992 
L 247.426116 -62.233829 
L 247.743471 -60.754941 
L 248.060826 -59.428425 
L 248.378182 -58.260414 
L 248.695537 -57.254374 
L 249.012893 -56.3757 
L 249.330248 -55.464394 
L 249.647603 -54.529687 
L 249.964959 -53.735208 
L 250.282314 -53.103054 
L 250.599669 -52.54319 
L 250.917025 -52.075421 
L 251.23438 -51.628848 
L 251.551736 -51.16684 
L 251.869091 -50.749962 
L 252.186446 -50.450879 
L 252.503802 -50.287624 
L 252.821157 -50.160404 
L 253.138512 -50.112 
L 253.455868 -50.13063 
L 253.773223 -50.298876 
L 254.090579 -50.572656 
L 254.407934 -50.953406 
L 254.725289 -51.331281 
L 255.042645 -51.847873 
L 255.36 -52.399301 
L 255.677355 -52.854965 
L 255.994711 -53.231837 
L 256.312066 -53.611241 
L 256.629421 -53.788329 
L 256.946777 -54.097505 
L 257.264132 -54.395089 
L 257.581488 -54.722175 
L 257.898843 -55.055627 
L 258.216198 -55.436879 
L 258.533554 -55.95145 
L 258.850909 -56.486783 
L 259.168264 -56.988878 
L 259.48562 -57.518737 
L 259.802975 -58.061478 
L 260.120331 -58.611169 
L 260.437686 -59.109606 
L 260.755041 -59.642811 
L 261.072397 -60.093535 
L 261.389752 -60.262721 
L 261.707107 -60.421864 
L 262.024463 -60.543215 
L 262.341818 -60.611279 
L 262.659174 -60.70213 
L 262.976529 -60.865512 
L 263.293884 -61.055661 
L 263.61124 -61.138403 
L 263.928595 -61.096055 
L 264.24595 -61.062616 
L 264.563306 -60.978226 
L 264.880661 -60.883686 
L 265.198017 -60.701302 
L 265.515372 -60.436003 
L 265.832727 -60.090129 
L 266.150083 -59.79102 
L 266.467438 -59.504459 
L 266.784793 -59.207397 
L 267.102149 -58.984364 
L 267.419504 -58.774254 
L 267.73686 -58.547841 
L 268.054215 -58.355493 
L 268.37157 -58.190963 
L 268.688926 -58.044747 
L 269.006281 -57.822758 
L 269.323636 -57.625476 
L 269.640992 -57.540754 
L 269.958347 -57.590551 
L 270.275702 -57.670292 
L 270.593058 -57.784894 
L 270.910413 -57.967451 
L 271.227769 -58.178537 
L 271.545124 -58.506179 
L 271.862479 -58.929972 
L 272.179835 -59.460535 
L 272.49719 -60.029692 
L 272.814545 -60.550863 
L 273.131901 -61.166684 
L 273.449256 -61.897533 
L 273.766612 -62.670668 
L 274.083967 -63.482548 
L 274.401322 -64.21832 
L 274.718678 -65.026009 
L 275.036033 -65.889472 
L 275.353388 -66.627944 
L 275.670744 -67.313379 
L 275.988099 -68.040249 
L 276.305455 -68.777216 
L 276.62281 -69.574629 
L 276.940165 -70.436098 
L 277.257521 -71.292022 
L 277.574876 -72.215463 
L 277.892231 -73.137641 
L 278.209587 -74.088358 
L 278.526942 -75.070394 
L 278.844298 -75.892431 
L 279.161653 -76.712108 
L 279.479008 -77.550673 
L 279.796364 -78.272765 
L 280.113719 -79.011081 
L 280.431074 -79.715895 
L 280.74843 -80.452827 
L 281.065785 -81.154032 
L 281.38314 -81.884465 
L 281.700496 -82.736062 
L 282.017851 -83.59569 
L 282.335207 -84.456345 
L 282.652562 -85.269045 
L 282.969917 -86.090988 
L 283.287273 -86.844137 
L 283.604628 -87.477311 
L 283.921983 -88.139668 
L 284.239339 -88.858861 
L 284.556694 -89.512772 
L 284.87405 -90.226586 
L 285.191405 -90.883745 
L 285.50876 -91.581329 
L 285.826116 -92.326487 
L 286.143471 -93.102509 
L 286.460826 -93.886912 
L 286.778182 -94.636756 
L 287.095537 -95.405433 
L 287.412893 -96.202029 
L 287.730248 -97.00832 
L 288.047603 -97.829396 
L 288.364959 -98.641917 
L 288.682314 -99.422705 
L 288.999669 -100.192958 
L 289.317025 -101.021418 
L 289.63438 -101.837193 
L 289.951736 -102.632771 
L 290.269091 -103.390414 
L 290.586446 -104.117907 
L 290.903802 -104.844913 
L 291.221157 -105.554771 
L 291.538512 -106.26182 
L 291.855868 -106.953543 
L 292.173223 -107.639818 
L 292.490579 -108.297046 
L 292.807934 -108.955291 
L 293.125289 -109.63113 
L 293.442645 -110.287725 
L 293.76 -110.879428 
L 294.077355 -111.455492 
L 294.394711 -111.98797 
L 294.712066 -112.579302 
L 295.029421 -112.982133 
L 295.346777 -113.396753 
L 295.664132 -113.882066 
L 295.981488 -114.386067 
L 296.298843 -114.918313 
L 296.616198 -115.577739 
L 296.933554 -116.161475 
L 297.250909 -116.740093 
L 297.568264 -117.322877 
L 297.88562 -117.867137 
L 298.202975 -118.423955 
L 298.520331 -118.977855 
L 298.837686 -119.41084 
L 299.155041 -119.913389 
L 299.472397 -120.378048 
L 299.789752 -120.813398 
L 300.107107 -121.339119 
L 300.424463 -121.831351 
L 300.741818 -122.289942 
L 301.059174 -122.672916 
L 301.376529 -123.092403 
L 301.693884 -123.522295 
L 302.01124 -123.914482 
L 302.328595 -124.302466 
L 302.64595 -124.713068 
L 302.963306 -125.121119 
L 303.280661 -125.539513 
L 303.598017 -125.99144 
L 303.915372 -126.525033 
L 304.232727 -127.086806 
L 304.550083 -127.620571 
L 304.867438 -128.111085 
L 305.184793 -128.497435 
L 305.502149 -128.853323 
L 305.819504 -129.143818 
L 306.13686 -129.351575 
L 306.454215 -129.495475 
L 306.77157 -129.588241 
L 307.088926 -129.656115 
L 307.406281 -129.670183 
L 307.723636 -129.634414 
L 308.040992 -129.538383 
L 308.358347 -129.384872 
L 308.675702 -129.200126 
L 308.993058 -128.981579 
L 309.310413 -128.729151 
L 309.627769 -128.436585 
L 309.945124 -128.111044 
L 310.262479 -127.769753 
L 310.579835 -127.414258 
L 310.89719 -127.041544 
L 311.214545 -126.618524 
L 311.531901 -126.178989 
L 311.849256 -125.708967 
L 312.166612 -125.208341 
L 312.483967 -124.681579 
L 312.801322 -124.122066 
L 313.118678 -123.534373 
L 313.436033 -122.939101 
L 313.753388 -122.340157 
L 314.070744 -121.759775 
L 314.388099 -121.192375 
L 314.705455 -120.605425 
L 315.02281 -120.009143 
L 315.340165 -119.526639 
L 315.657521 -119.0466 
L 315.974876 -118.585016 
L 316.292231 -118.181389 
L 316.609587 -117.778704 
L 316.926942 -117.250366 
L 317.244298 -116.816944 
L 317.561653 -116.42767 
L 317.879008 -116.094368 
L 318.196364 -115.827597 
L 318.513719 -115.594023 
L 318.831074 -115.428428 
L 319.14843 -115.410713 
L 319.465785 -115.456025 
L 319.78314 -115.579281 
L 320.100496 -115.776406 
L 320.417851 -116.025916 
L 320.735207 -116.340382 
L 321.052562 -116.779337 
L 321.369917 -117.355196 
L 321.687273 -117.934079 
L 322.004628 -118.494613 
L 322.321983 -119.152927 
L 322.639339 -119.853277 
L 322.956694 -120.539062 
L 323.27405 -121.325594 
L 323.591405 -122.07235 
L 323.90876 -122.773119 
L 324.226116 -123.416401 
L 324.543471 -123.991029 
L 324.860826 -124.57213 
L 325.178182 -125.245185 
L 325.495537 -126.018051 
L 325.812893 -126.867858 
L 326.130248 -127.790551 
L 326.447603 -128.788836 
L 326.764959 -129.851765 
L 327.082314 -130.974146 
L 327.399669 -132.145584 
L 327.717025 -133.359377 
L 328.03438 -134.614493 
L 328.351736 -135.905834 
L 328.669091 -137.228321 
L 328.986446 -138.57157 
L 329.303802 -139.93899 
L 329.621157 -141.31564 
L 329.938512 -142.702084 
L 330.255868 -144.087249 
L 330.573223 -145.4653 
L 330.890579 -146.830251 
L 331.207934 -148.187937 
L 331.525289 -149.537638 
L 331.842645 -150.86038 
L 332.16 -152.157948 
L 332.477355 -153.426673 
L 332.794711 -154.672296 
L 333.112066 -155.886828 
L 333.429421 -157.069737 
L 333.746777 -158.219421 
L 334.064132 -159.317931 
L 334.381488 -160.360879 
L 334.698843 -161.353574 
L 335.016198 -162.323009 
L 335.333554 -163.245531 
L 335.650909 -164.12365 
L 335.968264 -164.960256 
L 336.28562 -165.746024 
L 336.602975 -166.473886 
L 336.920331 -167.171319 
L 337.237686 -167.893244 
L 337.555041 -168.551386 
L 337.872397 -169.16112 
L 338.189752 -169.71079 
L 338.507107 -170.198101 
L 338.824463 -170.642006 
L 339.141818 -171.015451 
L 339.459174 -171.31208 
L 339.776529 -171.546785 
L 340.093884 -171.727034 
L 340.41124 -171.8557 
L 340.728595 -171.933872 
L 341.04595 -171.968119 
L 341.363306 -171.927665 
L 341.680661 -171.809428 
L 341.998017 -171.667398 
L 342.315372 -171.536934 
L 342.632727 -171.355449 
L 342.950083 -171.15293 
L 343.267438 -170.959614 
L 343.584793 -170.720029 
L 343.902149 -170.514941 
L 344.219504 -170.352803 
L 344.53686 -170.245591 
L 344.854215 -170.206956 
L 345.17157 -170.207504 
L 345.488926 -170.206327 
L 345.806281 -170.203718 
L 346.123636 -170.201341 
L 346.440992 -170.198589 
L 346.758347 -170.195514 
L 347.075702 -170.189649 
L 347.393058 -170.18292 
L 347.710413 -170.174226 
L 348.027769 -170.165367 
L 348.345124 -170.155816 
L 348.662479 -170.145296 
L 348.979835 -170.135005 
L 349.29719 -170.123483 
L 349.614545 -170.113841 
L 349.931901 -170.102277 
L 350.249256 -170.092645 
L 350.566612 -170.081027 
L 350.883967 -170.069848 
L 351.201322 -170.056293 
L 351.518678 -170.045994 
L 351.836033 -170.031888 
L 352.153388 -170.020924 
L 352.470744 -170.006135 
L 352.788099 -169.990754 
L 353.105455 -169.96973 
L 353.42281 -169.949465 
L 353.740165 -169.928872 
L 354.057521 -169.90959 
L 354.374876 -169.887279 
L 354.692231 -169.859713 
L 355.009587 -169.831008 
L 355.326942 -169.800547 
L 355.644298 -169.773886 
L 355.961653 -169.740389 
L 356.279008 -169.70042 
L 356.596364 -169.651799 
L 356.913719 -169.595282 
L 357.231074 -169.531557 
L 357.54843 -169.460899 
L 357.865785 -169.382887 
L 358.18314 -169.299612 
L 358.500496 -169.210703 
L 358.817851 -169.114988 
L 359.135207 -169.011707 
L 359.452562 -168.904043 
L 359.769917 -168.792506 
L 360.087273 -168.677709 
L 360.404628 -168.560619 
L 360.721983 -168.440271 
L 361.039339 -168.31504 
L 361.356694 -168.187446 
L 361.67405 -168.058831 
L 361.991405 -167.929719 
L 362.30876 -167.800522 
L 362.626116 -167.669457 
L 362.943471 -167.537352 
L 363.260826 -167.406817 
L 363.578182 -167.278086 
L 363.895537 -167.149504 
L 364.212893 -167.024028 
L 364.530248 -166.899374 
L 364.847603 -166.777023 
L 365.164959 -166.658689 
L 365.482314 -166.545197 
L 365.799669 -166.436004 
L 366.117025 -166.332343 
L 366.43438 -166.232116 
L 366.751736 -166.136763 
L 367.069091 -166.046195 
L 367.386446 -165.963985 
L 367.703802 -165.887974 
L 368.021157 -165.818611 
L 368.338512 -165.753854 
L 368.655868 -165.695789 
L 368.973223 -165.645644 
L 369.290579 -165.601903 
L 369.607934 -165.567525 
L 369.925289 -165.536971 
L 370.242645 -165.516187 
L 370.56 -165.497807 
L 370.877355 -165.48945 
L 371.194711 -165.48518 
L 371.512066 -165.491583 
L 371.829421 -165.496015 
L 372.146777 -165.511619 
L 372.464132 -165.524417 
L 372.781488 -165.54778 
L 373.098843 -165.573727 
L 373.416198 -165.611105 
L 373.733554 -165.649368 
L 374.050909 -165.689036 
L 374.368264 -165.725557 
L 374.68562 -165.767141 
L 375.002975 -165.816956 
L 375.320331 -165.865663 
L 375.637686 -165.914274 
L 375.955041 -165.948638 
L 376.272397 -165.987381 
L 376.589752 -166.030316 
L 376.907107 -166.081837 
L 377.224463 -166.141501 
L 377.541818 -166.208344 
L 377.859174 -166.282586 
L 378.176529 -166.3644 
L 378.493884 -166.449929 
L 378.81124 -166.54151 
L 379.128595 -166.639292 
L 379.44595 -166.743433 
L 379.763306 -166.852169 
L 380.080661 -166.965103 
L 380.398017 -167.081652 
L 380.715372 -167.200789 
L 381.032727 -167.322911 
L 381.350083 -167.448487 
L 381.667438 -167.576266 
L 381.984793 -167.705285 
L 382.302149 -167.835136 
L 382.619504 -167.965165 
L 382.93686 -168.096173 
L 383.254215 -168.227844 
L 383.57157 -168.358663 
L 383.888926 -168.488002 
L 384.206281 -168.616628 
L 384.523636 -168.742645 
L 384.840992 -168.867128 
L 385.158347 -168.988995 
L 385.475702 -169.107385 
L 385.793058 -169.221753 
L 386.110413 -169.332284 
L 386.427769 -169.437986 
L 386.745124 -169.539591 
L 387.062479 -169.636361 
L 387.379835 -169.728219 
L 387.69719 -169.813422 
L 388.014545 -169.892605 
L 388.331901 -169.96581 
L 388.649256 -170.033762 
L 388.966612 -170.112646 
L 389.283967 -170.184933 
L 389.601322 -170.251078 
L 389.918678 -170.309617 
L 390.236033 -170.363179 
L 390.553388 -170.409038 
L 390.870744 -170.450641 
L 391.188099 -170.484453 
L 391.505455 -170.513573 
L 391.82281 -170.534714 
L 392.140165 -170.554842 
L 392.457521 -170.567446 
L 392.774876 -170.579829 
L 393.092231 -170.585414 
L 393.409587 -170.588654 
L 393.726942 -170.585661 
L 394.044298 -170.581293 
L 394.361653 -170.576048 
L 394.679008 -170.572926 
L 394.996364 -170.568158 
L 395.313719 -170.560391 
L 395.631074 -170.55465 
L 395.94843 -170.550988 
L 396.265785 -170.557819 
L 396.58314 -170.566795 
L 396.900496 -170.577922 
L 397.217851 -170.589109 
L 397.535207 -170.600068 
L 397.852562 -170.611263 
L 398.169917 -170.621933 
L 398.487273 -171.072 
L 398.487273 -171.072 
L 398.487273 -171.072 
L 398.169917 -171.072 
L 397.852562 -171.072 
L 397.535207 -171.072 
L 397.217851 -171.072 
L 396.900496 -171.072 
L 396.58314 -171.072 
L 396.265785 -171.072 
L 395.94843 -171.072 
L 395.631074 -171.072 
L 395.313719 -171.072 
L 394.996364 -171.072 
L 394.679008 -171.072 
L 394.361653 -171.072 
L 394.044298 -171.072 
L 393.726942 -171.072 
L 393.409587 -171.072 
L 393.092231 -171.072 
L 392.774876 -171.072 
L 392.457521 -171.072 
L 392.140165 -171.072 
L 391.82281 -171.072 
L 391.505455 -171.072 
L 391.188099 -171.072 
L 390.870744 -171.072 
L 390.553388 -171.072 
L 390.236033 -171.072 
L 389.918678 -171.072 
L 389.601322 -171.072 
L 389.283967 -171.072 
L 388.966612 -171.072 
L 388.649256 -171.072 
L 388.331901 -171.072 
L 388.014545 -171.072 
L 387.69719 -171.072 
L 387.379835 -171.072 
L 387.062479 -171.072 
L 386.745124 -171.072 
L 386.427769 -171.072 
L 386.110413 -171.072 
L 385.793058 -171.072 
L 385.475702 -171.072 
L 385.158347 -171.072 
L 384.840992 -171.072 
L 384.523636 -171.072 
L 384.206281 -171.072 
L 383.888926 -171.072 
L 383.57157 -171.072 
L 383.254215 -171.072 
L 382.93686 -171.072 
L 382.619504 -171.072 
L 382.302149 -171.072 
L 381.984793 -171.072 
L 381.667438 -171.072 
L 381.350083 -171.072 
L 381.032727 -171.072 
L 380.715372 -171.072 
L 380.398017 -171.072 
L 380.080661 -171.072 
L 379.763306 -171.072 
L 379.44595 -171.072 
L 379.128595 -171.072 
L 378.81124 -171.072 
L 378.493884 -171.072 
L 378.176529 -171.072 
L 377.859174 -171.072 
L 377.541818 -171.072 
L 377.224463 -171.072 
L 376.907107 -171.072 
L 376.589752 -171.072 
L 376.272397 -171.072 
L 375.955041 -171.072 
L 375.637686 -171.072 
L 375.320331 -171.072 
L 375.002975 -171.072 
L 374.68562 -171.072 
L 374.368264 -171.072 
L 374.050909 -171.072 
L 373.733554 -171.072 
L 373.416198 -171.072 
L 373.098843 -171.072 
L 372.781488 -171.072 
L 372.464132 -171.072 
L 372.146777 -171.072 
L 371.829421 -171.072 
L 371.512066 -171.072 
L 371.194711 -171.072 
L 370.877355 -171.072 
L 370.56 -171.072 
L 370.242645 -171.072 
L 369.925289 -171.072 
L 369.607934 -171.072 
L 369.290579 -171.072 
L 368.973223 -171.072 
L 368.655868 -171.072 
L 368.338512 -171.072 
L 368.021157 -171.072 
L 367.703802 -171.072 
L 367.386446 -171.072 
L 367.069091 -171.072 
L 366.751736 -171.072 
L 366.43438 -171.072 
L 366.117025 -171.072 
L 365.799669 -171.072 
L 365.482314 -171.072 
L 365.164959 -171.072 
L 364.847603 -171.072 
L 364.530248 -171.072 
L 364.212893 -171.072 
L 363.895537 -171.072 
L 363.578182 -171.072 
L 363.260826 -171.072 
L 362.943471 -171.072 
L 362.626116 -171.072 
L 362.30876 -171.072 
L 361.991405 -171.072 
L 361.67405 -171.072 
L 361.356694 -171.072 
L 361.039339 -171.072 
L 360.721983 -171.072 
L 360.404628 -171.072 
L 360.087273 -171.072 
L 359.769917 -171.072 
L 359.452562 -171.072 
L 359.135207 -171.072 
L 358.817851 -171.072 
L 358.500496 -171.072 
L 358.18314 -171.072 
L 357.865785 -171.072 
L 357.54843 -171.072 
L 357.231074 -171.072 
L 356.913719 -171.072 
L 356.596364 -171.072 
L 356.279008 -171.072 
L 355.961653 -171.072 
L 355.644298 -171.072 
L 355.326942 -171.072 
L 355.009587 -171.072 
L 354.692231 -171.072 
L 354.374876 -171.072 
L 354.057521 -171.072 
L 353.740165 -171.072 
L 353.42281 -171.072 
L 353.105455 -171.072 
L 352.788099 -171.072 
L 352.470744 -171.072 
L 352.153388 -171.072 
L 351.836033 -171.072 
L 351.518678 -171.072 
L 351.201322 -171.072 
L 350.883967 -171.072 
L 350.566612 -171.072 
L 350.249256 -171.072 
L 349.931901 -171.072 
L 349.614545 -171.072 
L 349.29719 -171.072 
L 348.979835 -171.072 
L 348.662479 -171.072 
L 348.345124 -171.072 
L 348.027769 -171.072 
L 347.710413 -171.072 
L 347.393058 -171.072 
L 347.075702 -171.072 
L 346.758347 -171.072 
L 346.440992 -171.072 
L 346.123636 -171.072 
L 345.806281 -171.072 
L 345.488926 -171.072 
L 345.17157 -171.072 
L 344.854215 -171.072 
L 344.53686 -171.072 
L 344.219504 -171.072 
L 343.902149 -171.072 
L 343.584793 -171.072 
L 343.267438 -171.072 
L 342.950083 -171.072 
L 342.632727 -171.072 
L 342.315372 -171.072 
L 341.998017 -171.072 
L 341.680661 -171.072 
L 341.363306 -171.072 
L 341.04595 -171.072 
L 340.728595 -171.072 
L 340.41124 -171.072 
L 340.093884 -171.072 
L 339.776529 -171.072 
L 339.459174 -171.072 
L 339.141818 -171.072 
L 338.824463 -171.072 
L 338.507107 -171.072 
L 338.189752 -171.072 
L 337.872397 -171.072 
L 337.555041 -171.072 
L 337.237686 -171.072 
L 336.920331 -171.072 
L 336.602975 -171.072 
L 336.28562 -171.072 
L 335.968264 -171.072 
L 335.650909 -171.072 
L 335.333554 -171.072 
L 335.016198 -171.072 
L 334.698843 -171.072 
L 334.381488 -171.072 
L 334.064132 -171.072 
L 333.746777 -171.072 
L 333.429421 -171.072 
L 333.112066 -171.072 
L 332.794711 -171.072 
L 332.477355 -171.072 
L 332.16 -171.072 
L 331.842645 -171.072 
L 331.525289 -171.072 
L 331.207934 -171.072 
L 330.890579 -171.072 
L 330.573223 -171.072 
L 330.255868 -171.072 
L 329.938512 -171.072 
L 329.621157 -171.072 
L 329.303802 -171.072 
L 328.986446 -171.072 
L 328.669091 -171.072 
L 328.351736 -171.072 
L 328.03438 -171.072 
L 327.717025 -171.072 
L 327.399669 -171.072 
L 327.082314 -171.072 
L 326.764959 -171.072 
L 326.447603 -171.072 
L 326.130248 -171.072 
L 325.812893 -171.072 
L 325.495537 -171.072 
L 325.178182 -171.072 
L 324.860826 -171.072 
L 324.543471 -171.072 
L 324.226116 -171.072 
L 323.90876 -171.072 
L 323.591405 -171.072 
L 323.27405 -171.072 
L 322.956694 -171.072 
L 322.639339 -171.072 
L 322.321983 -171.072 
L 322.004628 -171.072 
L 321.687273 -171.072 
L 321.369917 -171.072 
L 321.052562 -171.072 
L 320.735207 -171.072 
L 320.417851 -171.072 
L 320.100496 -171.072 
L 319.78314 -171.072 
L 319.465785 -171.072 
L 319.14843 -171.072 
L 318.831074 -171.072 
L 318.513719 -171.072 
L 318.196364 -171.072 
L 317.879008 -171.072 
L 317.561653 -171.072 
L 317.244298 -171.072 
L 316.926942 -171.072 
L 316.609587 -171.072 
L 316.292231 -171.072 
L 315.974876 -171.072 
L 315.657521 -171.072 
L 315.340165 -171.072 
L 315.02281 -171.072 
L 314.705455 -171.072 
L 314.388099 -171.072 
L 314.070744 -171.072 
L 313.753388 -171.072 
L 313.436033 -171.072 
L 313.118678 -171.072 
L 312.801322 -171.072 
L 312.483967 -171.072 
L 312.166612 -171.072 
L 311.849256 -171.072 
L 311.531901 -171.072 
L 311.214545 -171.072 
L 310.89719 -171.072 
L 310.579835 -171.072 
L 310.262479 -171.072 
L 309.945124 -171.072 
L 309.627769 -171.072 
L 309.310413 -171.072 
L 308.993058 -171.072 
L 308.675702 -171.072 
L 308.358347 -171.072 
L 308.040992 -171.072 
L 307.723636 -171.072 
L 307.406281 -171.072 
L 307.088926 -171.072 
L 306.77157 -171.072 
L 306.454215 -171.072 
L 306.13686 -171.072 
L 305.819504 -171.072 
L 305.502149 -171.072 
L 305.184793 -171.072 
L 304.867438 -171.072 
L 304.550083 -171.072 
L 304.232727 -171.072 
L 303.915372 -171.072 
L 303.598017 -171.072 
L 303.280661 -171.072 
L 302.963306 -171.072 
L 302.64595 -171.072 
L 302.328595 -171.072 
L 302.01124 -171.072 
L 301.693884 -171.072 
L 301.376529 -171.072 
L 301.059174 -171.072 
L 300.741818 -171.072 
L 300.424463 -171.072 
L 300.107107 -171.072 
L 299.789752 -171.072 
L 299.472397 -171.072 
L 299.155041 -171.072 
L 298.837686 -171.072 
L 298.520331 -171.072 
L 298.202975 -171.072 
L 297.88562 -171.072 
L 297.568264 -171.072 
L 297.250909 -171.072 
L 296.933554 -171.072 
L 296.616198 -171.072 
L 296.298843 -171.072 
L 295.981488 -171.072 
L 295.664132 -171.072 
L 295.346777 -171.072 
L 295.029421 -171.072 
L 294.712066 -171.072 
L 294.394711 -171.072 
L 294.077355 -171.072 
L 293.76 -171.072 
L 293.442645 -171.072 
L 293.125289 -171.072 
L 292.807934 -171.072 
L 292.490579 -171.072 
L 292.173223 -171.072 
L 291.855868 -171.072 
L 291.538512 -171.072 
L 291.221157 -171.072 
L 290.903802 -171.072 
L 290.586446 -171.072 
L 290.269091 -171.072 
L 289.951736 -171.072 
L 289.63438 -171.072 
L 289.317025 -171.072 
L 288.999669 -171.072 
L 288.682314 -171.072 
L 288.364959 -171.072 
L 288.047603 -171.072 
L 287.730248 -171.072 
L 287.412893 -171.072 
L 287.095537 -171.072 
L 286.778182 -171.072 
L 286.460826 -171.072 
L 286.143471 -171.072 
L 285.826116 -171.072 
L 285.50876 -171.072 
L 285.191405 -171.072 
L 284.87405 -171.072 
L 284.556694 -171.072 
L 284.239339 -171.072 
L 283.921983 -171.072 
L 283.604628 -171.072 
L 283.287273 -171.072 
L 282.969917 -171.072 
L 282.652562 -171.072 
L 282.335207 -171.072 
L 282.017851 -171.072 
L 281.700496 -171.072 
L 281.38314 -171.072 
L 281.065785 -171.072 
L 280.74843 -171.072 
L 280.431074 -171.072 
L 280.113719 -171.072 
L 279.796364 -171.072 
L 279.479008 -171.072 
L 279.161653 -171.072 
L 278.844298 -171.072 
L 278.526942 -171.072 
L 278.209587 -171.072 
L 277.892231 -171.072 
L 277.574876 -171.072 
L 277.257521 -171.072 
L 276.940165 -171.072 
L 276.62281 -171.072 
L 276.305455 -171.072 
L 275.988099 -171.072 
L 275.670744 -171.072 
L 275.353388 -171.072 
L 275.036033 -171.072 
L 274.718678 -171.072 
L 274.401322 -171.072 
L 274.083967 -171.072 
L 273.766612 -171.072 
L 273.449256 -171.072 
L 273.131901 -171.072 
L 272.814545 -171.072 
L 272.49719 -171.072 
L 272.179835 -171.072 
L 271.862479 -171.072 
L 271.545124 -171.072 
L 271.227769 -171.072 
L 270.910413 -171.072 
L 270.593058 -171.072 
L 270.275702 -171.072 
L 269.958347 -171.072 
L 269.640992 -171.072 
L 269.323636 -171.072 
L 269.006281 -171.072 
L 268.688926 -171.072 
L 268.37157 -171.072 
L 268.054215 -171.072 
L 267.73686 -171.072 
L 267.419504 -171.072 
L 267.102149 -171.072 
L 266.784793 -171.072 
L 266.467438 -171.072 
L 266.150083 -171.072 
L 265.832727 -171.072 
L 265.515372 -171.072 
L 265.198017 -171.072 
L 264.880661 -171.072 
L 264.563306 -171.072 
L 264.24595 -171.072 
L 263.928595 -171.072 
L 263.61124 -171.072 
L 263.293884 -171.072 
L 262.976529 -171.072 
L 262.659174 -171.072 
L 262.341818 -171.072 
L 262.024463 -171.072 
L 261.707107 -171.072 
L 261.389752 -171.072 
L 261.072397 -171.072 
L 260.755041 -171.072 
L 260.437686 -171.072 
L 260.120331 -171.072 
L 259.802975 -171.072 
L 259.48562 -171.072 
L 259.168264 -171.072 
L 258.850909 -171.072 
L 258.533554 -171.072 
L 258.216198 -171.072 
L 257.898843 -171.072 
L 257.581488 -171.072 
L 257.264132 -171.072 
L 256.946777 -171.072 
L 256.629421 -171.072 
L 256.312066 -171.072 
L 255.994711 -171.072 
L 255.677355 -171.072 
L 255.36 -171.072 
L 255.042645 -171.072 
L 254.725289 -171.072 
L 254.407934 -171.072 
L 254.090579 -171.072 
L 253.773223 -171.072 
L 253.455868 -171.072 
L 253.138512 -171.072 
L 252.821157 -171.072 
L 252.503802 -171.072 
L 252.186446 -171.072 
L 251.869091 -171.072 
L 251.551736 -171.072 
L 251.23438 -171.072 
L 250.917025 -171.072 
L 250.599669 -171.072 
L 250.282314 -171.072 
L 249.964959 -171.072 
L 249.647603 -171.072 
L 249.330248 -171.072 
L 249.012893 -171.072 
L 248.695537 -171.072 
L 248.378182 -171.072 
L 248.060826 -171.072 
L 247.743471 -171.072 
L 247.426116 -171.072 
L 247.10876 -171.072 
L 246.791405 -171.072 
L 246.47405 -171.072 
L 246.156694 -171.072 
L 245.839339 -171.072 
L 245.521983 -171.072 
L 245.204628 -171.072 
L 244.887273 -171.072 
L 244.569917 -171.072 
L 244.252562 -171.072 
L 243.935207 -171.072 
L 243.617851 -171.072 
L 243.300496 -171.072 
L 242.98314 -171.072 
L 242.665785 -171.072 
L 242.34843 -171.072 
L 242.031074 -171.072 
L 241.713719 -171.072 
L 241.396364 -171.072 
L 241.079008 -171.072 
L 240.761653 -171.072 
L 240.444298 -171.072 
L 240.126942 -171.072 
L 239.809587 -171.072 
L 239.492231 -171.072 
L 239.174876 -171.072 
L 238.857521 -171.072 
L 238.540165 -171.072 
L 238.22281 -171.072 
L 237.905455 -171.072 
L 237.588099 -171.072 
L 237.270744 -171.072 
L 236.953388 -171.072 
L 236.636033 -171.072 
L 236.318678 -171.072 
L 236.001322 -171.072 
L 235.683967 -171.072 
L 235.366612 -171.072 
L 235.049256 -171.072 
L 234.731901 -171.072 
L 234.414545 -171.072 
L 234.09719 -171.072 
L 233.779835 -171.072 
L 233.462479 -171.072 
L 233.145124 -171.072 
L 232.827769 -171.072 
L 232.510413 -171.072 
L 232.193058 -171.072 
L 231.875702 -171.072 
L 231.558347 -171.072 
L 231.240992 -171.072 
L 230.923636 -171.072 
L 230.606281 -171.072 
L 230.288926 -171.072 
L 229.97157 -171.072 
L 229.654215 -171.072 
L 229.33686 -171.072 
L 229.019504 -171.072 
L 228.702149 -171.072 
L 228.384793 -171.072 
L 228.067438 -171.072 
L 227.750083 -171.072 
L 227.432727 -171.072 
L 227.115372 -171.072 
L 226.798017 -171.072 
L 226.480661 -171.072 
L 226.163306 -171.072 
L 225.84595 -171.072 
L 225.528595 -171.072 
L 225.21124 -171.072 
L 224.893884 -171.072 
L 224.576529 -171.072 
L 224.259174 -171.072 
L 223.941818 -171.072 
L 223.624463 -171.072 
L 223.307107 -171.072 
L 222.989752 -171.072 
L 222.672397 -171.072 
L 222.355041 -171.072 
L 222.037686 -171.072 
L 221.720331 -171.072 
L 221.402975 -171.072 
L 221.08562 -171.072 
L 220.768264 -171.072 
L 220.450909 -171.072 
L 220.133554 -171.072 
L 219.816198 -171.072 
L 219.498843 -171.072 
L 219.181488 -171.072 
L 218.864132 -171.072 
L 218.546777 -171.072 
L 218.229421 -171.072 
L 217.912066 -171.072 
L 217.594711 -171.072 
L 217.277355 -171.072 
L 216.96 -171.072 
L 216.642645 -171.072 
L 216.325289 -171.072 
L 216.007934 -171.072 
L 215.690579 -171.072 
L 215.373223 -171.072 
L 215.055868 -171.072 
L 214.738512 -171.072 
L 214.421157 -171.072 
L 214.103802 -171.072 
L 213.786446 -171.072 
L 213.469091 -171.072 
L 213.151736 -171.072 
L 212.83438 -171.072 
L 212.517025 -171.072 
L 212.199669 -171.072 
L 211.882314 -171.072 
L 211.564959 -171.072 
L 211.247603 -171.072 
L 210.930248 -171.072 
L 210.612893 -171.072 
L 210.295537 -171.072 
L 209.978182 -171.072 
L 209.660826 -171.072 
L 209.343471 -171.072 
L 209.026116 -171.072 
L 208.70876 -171.072 
L 208.391405 -171.072 
L 208.07405 -171.072 
L 207.756694 -171.072 
L 207.439339 -171.072 
L 207.121983 -171.072 
L 206.804628 -171.072 
L 206.487273 -171.072 
L 206.169917 -171.072 
L 205.852562 -171.072 
L 205.535207 -171.072 
L 205.217851 -171.072 
L 204.900496 -171.072 
L 204.58314 -171.072 
L 204.265785 -171.072 
L 203.94843 -171.072 
L 203.631074 -171.072 
L 203.313719 -171.072 
L 202.996364 -171.072 
L 202.679008 -171.072 
L 202.361653 -171.072 
L 202.044298 -171.072 
L 201.726942 -171.072 
L 201.409587 -171.072 
L 201.092231 -171.072 
L 200.774876 -171.072 
L 200.457521 -171.072 
L 200.140165 -171.072 
L 199.82281 -171.072 
L 199.505455 -171.072 
L 199.188099 -171.072 
L 198.870744 -171.072 
L 198.553388 -171.072 
L 198.236033 -171.072 
L 197.918678 -171.072 
L 197.601322 -171.072 
L 197.283967 -171.072 
L 196.966612 -171.072 
L 196.649256 -171.072 
L 196.331901 -171.072 
L 196.014545 -171.072 
L 195.69719 -171.072 
L 195.379835 -171.072 
L 195.062479 -171.072 
L 194.745124 -171.072 
L 194.427769 -171.072 
L 194.110413 -171.072 
L 193.793058 -171.072 
L 193.475702 -171.072 
L 193.158347 -171.072 
L 192.840992 -171.072 
L 192.523636 -171.072 
L 192.206281 -171.072 
L 191.888926 -171.072 
L 191.57157 -171.072 
L 191.254215 -171.072 
L 190.93686 -171.072 
L 190.619504 -171.072 
L 190.302149 -171.072 
L 189.984793 -171.072 
L 189.667438 -171.072 
L 189.350083 -171.072 
L 189.032727 -171.072 
L 188.715372 -171.072 
L 188.398017 -171.072 
L 188.080661 -171.072 
L 187.763306 -171.072 
L 187.44595 -171.072 
L 187.128595 -171.072 
L 186.81124 -171.072 
L 186.493884 -171.072 
L 186.176529 -171.072 
L 185.859174 -171.072 
L 185.541818 -171.072 
L 185.224463 -171.072 
L 184.907107 -171.072 
L 184.589752 -171.072 
L 184.272397 -171.072 
L 183.955041 -171.072 
L 183.637686 -171.072 
L 183.320331 -171.072 
L 183.002975 -171.072 
L 182.68562 -171.072 
L 182.368264 -171.072 
L 182.050909 -171.072 
L 181.733554 -171.072 
L 181.416198 -171.072 
L 181.098843 -171.072 
L 180.781488 -171.072 
L 180.464132 -171.072 
L 180.146777 -171.072 
L 179.829421 -171.072 
L 179.512066 -171.072 
L 179.194711 -171.072 
L 178.877355 -171.072 
L 178.56 -171.072 
L 178.242645 -171.072 
L 177.925289 -171.072 
L 177.607934 -171.072 
L 177.290579 -171.072 
L 176.973223 -171.072 
L 176.655868 -171.072 
L 176.338512 -171.072 
L 176.021157 -171.072 
L 175.703802 -171.072 
L 175.386446 -171.072 
L 175.069091 -171.072 
L 174.751736 -171.072 
L 174.43438 -171.072 
L 174.117025 -171.072 
L 173.799669 -171.072 
L 173.482314 -171.072 
L 173.164959 -171.072 
L 172.847603 -171.072 
L 172.530248 -171.072 
L 172.212893 -171.072 
L 171.895537 -171.072 
L 171.578182 -171.072 
L 171.260826 -171.072 
L 170.943471 -171.072 
L 170.626116 -171.072 
L 170.30876 -171.072 
L 169.991405 -171.072 
L 169.67405 -171.072 
L 169.356694 -171.072 
L 169.039339 -171.072 
L 168.721983 -171.072 
L 168.404628 -171.072 
L 168.087273 -171.072 
L 167.769917 -171.072 
L 167.452562 -171.072 
L 167.135207 -171.072 
L 166.817851 -171.072 
L 166.500496 -171.072 
L 166.18314 -171.072 
L 165.865785 -171.072 
L 165.54843 -171.072 
L 165.231074 -171.072 
L 164.913719 -171.072 
L 164.596364 -171.072 
L 164.279008 -171.072 
L 163.961653 -171.072 
L 163.644298 -171.072 
L 163.326942 -171.072 
L 163.009587 -171.072 
L 162.692231 -171.072 
L 162.374876 -171.072 
L 162.057521 -171.072 
L 161.740165 -171.072 
L 161.42281 -171.072 
L 161.105455 -171.072 
L 160.788099 -171.072 
L 160.470744 -171.072 
L 160.153388 -171.072 
L 159.836033 -171.072 
L 159.518678 -171.072 
L 159.201322 -171.072 
L 158.883967 -171.072 
L 158.566612 -171.072 
L 158.249256 -171.072 
L 157.931901 -171.072 
L 157.614545 -171.072 
L 157.29719 -171.072 
L 156.979835 -171.072 
L 156.662479 -171.072 
L 156.345124 -171.072 
L 156.027769 -171.072 
L 155.710413 -171.072 
L 155.393058 -171.072 
L 155.075702 -171.072 
L 154.758347 -171.072 
L 154.440992 -171.072 
L 154.123636 -171.072 
L 153.806281 -171.072 
L 153.488926 -171.072 
L 153.17157 -171.072 
L 152.854215 -171.072 
L 152.53686 -171.072 
L 152.219504 -171.072 
L 151.902149 -171.072 
L 151.584793 -171.072 
L 151.267438 -171.072 
L 150.950083 -171.072 
L 150.632727 -171.072 
L 150.315372 -171.072 
L 149.998017 -171.072 
L 149.680661 -171.072 
L 149.363306 -171.072 
L 149.04595 -171.072 
L 148.728595 -171.072 
L 148.41124 -171.072 
L 148.093884 -171.072 
L 147.776529 -171.072 
L 147.459174 -171.072 
L 147.141818 -171.072 
L 146.824463 -171.072 
L 146.507107 -171.072 
L 146.189752 -171.072 
L 145.872397 -171.072 
L 145.555041 -171.072 
L 145.237686 -171.072 
L 144.920331 -171.072 
L 144.602975 -171.072 
L 144.28562 -171.072 
L 143.968264 -171.072 
L 143.650909 -171.072 
L 143.333554 -171.072 
L 143.016198 -171.072 
L 142.698843 -171.072 
L 142.381488 -171.072 
L 142.064132 -171.072 
L 141.746777 -171.072 
L 141.429421 -171.072 
L 141.112066 -171.072 
L 140.794711 -171.072 
L 140.477355 -171.072 
L 140.16 -171.072 
L 139.842645 -171.072 
L 139.525289 -171.072 
L 139.207934 -171.072 
L 138.890579 -171.072 
L 138.573223 -171.072 
L 138.255868 -171.072 
L 137.938512 -171.072 
L 137.621157 -171.072 
L 137.303802 -171.072 
L 136.986446 -171.072 
L 136.669091 -171.072 
L 136.351736 -171.072 
L 136.03438 -171.072 
L 135.717025 -171.072 
L 135.399669 -171.072 
L 135.082314 -171.072 
L 134.764959 -171.072 
L 134.447603 -171.072 
L 134.130248 -171.072 
L 133.812893 -171.072 
L 133.495537 -171.072 
L 133.178182 -171.072 
L 132.860826 -171.072 
L 132.543471 -171.072 
L 132.226116 -171.072 
L 131.90876 -171.072 
L 131.591405 -171.072 
L 131.27405 -171.072 
L 130.956694 -171.072 
L 130.639339 -171.072 
L 130.321983 -171.072 
L 130.004628 -171.072 
L 129.687273 -171.072 
L 129.369917 -171.072 
L 129.052562 -171.072 
L 128.735207 -171.072 
L 128.417851 -171.072 
L 128.100496 -171.072 
L 127.78314 -171.072 
L 127.465785 -171.072 
L 127.14843 -171.072 
L 126.831074 -171.072 
L 126.513719 -171.072 
L 126.196364 -171.072 
L 125.879008 -171.072 
L 125.561653 -171.072 
L 125.244298 -171.072 
L 124.926942 -171.072 
L 124.609587 -171.072 
L 124.292231 -171.072 
L 123.974876 -171.072 
L 123.657521 -171.072 
L 123.340165 -171.072 
L 123.02281 -171.072 
L 122.705455 -171.072 
L 122.388099 -171.072 
L 122.070744 -171.072 
L 121.753388 -171.072 
L 121.436033 -171.072 
L 121.118678 -171.072 
L 120.801322 -171.072 
L 120.483967 -171.072 
L 120.166612 -171.072 
L 119.849256 -171.072 
L 119.531901 -171.072 
L 119.214545 -171.072 
L 118.89719 -171.072 
L 118.579835 -171.072 
L 118.262479 -171.072 
L 117.945124 -171.072 
L 117.627769 -171.072 
L 117.310413 -171.072 
L 116.993058 -171.072 
L 116.675702 -171.072 
L 116.358347 -171.072 
L 116.040992 -171.072 
L 115.723636 -171.072 
L 115.406281 -171.072 
L 115.088926 -171.072 
L 114.77157 -171.072 
L 114.454215 -171.072 
L 114.13686 -171.072 
L 113.819504 -171.072 
L 113.502149 -171.072 
L 113.184793 -171.072 
L 112.867438 -171.072 
L 112.550083 -171.072 
L 112.232727 -171.072 
L 111.915372 -171.072 
L 111.598017 -171.072 
L 111.280661 -171.072 
L 110.963306 -171.072 
L 110.64595 -171.072 
L 110.328595 -171.072 
L 110.01124 -171.072 
L 109.693884 -171.072 
L 109.376529 -171.072 
L 109.059174 -171.072 
L 108.741818 -171.072 
L 108.424463 -171.072 
L 108.107107 -171.072 
L 107.789752 -171.072 
L 107.472397 -171.072 
L 107.155041 -171.072 
L 106.837686 -171.072 
L 106.520331 -171.072 
L 106.202975 -171.072 
L 105.88562 -171.072 
L 105.568264 -171.072 
L 105.250909 -171.072 
L 104.933554 -171.072 
L 104.616198 -171.072 
L 104.298843 -171.072 
L 103.981488 -171.072 
L 103.664132 -171.072 
L 103.346777 -171.072 
L 103.029421 -171.072 
L 102.712066 -171.072 
L 102.394711 -171.072 
L 102.077355 -171.072 
L 101.76 -171.072 
L 101.442645 -171.072 
L 101.125289 -171.072 
L 100.807934 -171.072 
L 100.490579 -171.072 
L 100.173223 -171.072 
L 99.855868 -171.072 
L 99.538512 -171.072 
L 99.221157 -171.072 
L 98.903802 -171.072 
L 98.586446 -171.072 
L 98.269091 -171.072 
L 97.951736 -171.072 
L 97.63438 -171.072 
L 97.317025 -171.072 
L 96.999669 -171.072 
L 96.682314 -171.072 
L 96.364959 -171.072 
L 96.047603 -171.072 
L 95.730248 -171.072 
L 95.412893 -171.072 
L 95.095537 -171.072 
L 94.778182 -171.072 
L 94.460826 -171.072 
L 94.143471 -171.072 
L 93.826116 -171.072 
L 93.50876 -171.072 
L 93.191405 -171.072 
L 92.87405 -171.072 
L 92.556694 -171.072 
L 92.239339 -171.072 
L 91.921983 -171.072 
L 91.604628 -171.072 
L 91.287273 -171.072 
L 90.969917 -171.072 
L 90.652562 -171.072 
L 90.335207 -171.072 
L 90.017851 -171.072 
L 89.700496 -171.072 
L 89.38314 -171.072 
L 89.065785 -171.072 
L 88.74843 -171.072 
L 88.431074 -171.072 
L 88.113719 -171.072 
L 87.796364 -171.072 
L 87.479008 -171.072 
L 87.161653 -171.072 
L 86.844298 -171.072 
L 86.526942 -171.072 
L 86.209587 -171.072 
L 85.892231 -171.072 
L 85.574876 -171.072 
L 85.257521 -171.072 
L 84.940165 -171.072 
L 84.62281 -171.072 
L 84.305455 -171.072 
L 83.988099 -171.072 
L 83.670744 -171.072 
L 83.353388 -171.072 
L 83.036033 -171.072 
L 82.718678 -171.072 
L 82.401322 -171.072 
L 82.083967 -171.072 
L 81.766612 -171.072 
L 81.449256 -171.072 
L 81.131901 -171.072 
L 80.814545 -171.072 
L 80.49719 -171.072 
L 80.179835 -171.072 
L 79.862479 -171.072 
L 79.545124 -171.072 
L 79.227769 -171.072 
L 78.910413 -171.072 
L 78.593058 -171.072 
L 78.275702 -171.072 
L 77.958347 -171.072 
L 77.640992 -171.072 
L 77.323636 -171.072 
L 77.006281 -171.072 
L 76.688926 -171.072 
L 76.37157 -171.072 
L 76.054215 -171.072 
L 75.73686 -171.072 
L 75.419504 -171.072 
L 75.102149 -171.072 
L 74.784793 -171.072 
L 74.467438 -171.072 
L 74.150083 -171.072 
L 73.832727 -171.072 
z
" style="stroke: #87ceeb; stroke-opacity: 0.75"/>
    </defs>
    <g clip-path="url(#p615800ff95)">
     <use xlink:href="#mc89c9c08df" x="0" y="345.6" style="fill: #87ceeb; fill-opacity: 0.75; stroke: #87ceeb; stroke-opacity: 0.75"/>
    </g>
   </g>
   <g id="matplotlib.axis_1">
    <g id="xtick_1">
     <g id="line2d_1">
      <defs>
       <path id="mfe013e16b6" d="M 0 0 
L 0 3.5 
" style="stroke: #000000; stroke-width: 0.8"/>
      </defs>
      <g>
       <use xlink:href="#mfe013e16b6" x="73.832727" y="307.584" style="stroke: #000000; stroke-width: 0.8"/>
      </g>
     </g>
     <g id="text_1">
      <!-- 0 -->
      <g transform="translate(70.531868 322.161969) scale(0.11 -0.11)">
       <defs>
        <path id="AndaleMono-30" d="M 1913 4494 
Q 2613 4494 2989 3892 
Q 3366 3291 3366 2203 
Q 3366 1150 3000 533 
Q 2634 -84 1913 -84 
Q 1216 -84 837 516 
Q 459 1116 459 2203 
Q 459 3259 826 3876 
Q 1194 4494 1913 4494 
z
M 1913 366 
Q 2375 366 2598 805 
Q 2822 1244 2822 2203 
Q 2822 3166 2598 3602 
Q 2375 4038 1913 4038 
Q 1456 4038 1231 3591 
Q 1006 3144 1006 2203 
Q 1006 1250 1229 808 
Q 1453 366 1913 366 
z
M 1900 2672 
Q 2097 2672 2233 2536 
Q 2369 2400 2369 2203 
Q 2369 2000 2231 1854 
Q 2094 1709 1900 1709 
Q 1709 1709 1573 1854 
Q 1438 2000 1438 2203 
Q 1438 2403 1570 2537 
Q 1703 2672 1900 2672 
z
" transform="scale(0.015625)"/>
       </defs>
       <use xlink:href="#AndaleMono-30"/>
      </g>
     </g>
    </g>
    <g id="xtick_2">
     <g id="line2d_2">
      <g>
       <use xlink:href="#mfe013e16b6" x="137.303802" y="307.584" style="stroke: #000000; stroke-width: 0.8"/>
      </g>
     </g>
     <g id="text_2">
      <!-- 200 -->
      <g transform="translate(127.401224 322.161969) scale(0.11 -0.11)">
       <defs>
        <path id="AndaleMono-32" d="M 3066 0 
L 641 0 
L 641 372 
Q 1563 1400 1838 1750 
Q 2113 2100 2284 2484 
Q 2456 2869 2456 3250 
Q 2456 3619 2232 3831 
Q 2009 4044 1606 4044 
Q 1297 4044 775 3853 
L 703 4294 
Q 1175 4494 1691 4494 
Q 2281 4494 2642 4161 
Q 3003 3828 3003 3272 
Q 3003 2875 2817 2484 
Q 2631 2094 2340 1734 
Q 2050 1375 1209 447 
L 3066 447 
L 3066 0 
z
" transform="scale(0.015625)"/>
       </defs>
       <use xlink:href="#AndaleMono-32"/>
       <use xlink:href="#AndaleMono-30" x="60.009766"/>
       <use xlink:href="#AndaleMono-30" x="120.019531"/>
      </g>
     </g>
    </g>
    <g id="xtick_3">
     <g id="line2d_3">
      <g>
       <use xlink:href="#mfe013e16b6" x="200.774876" y="307.584" style="stroke: #000000; stroke-width: 0.8"/>
      </g>
     </g>
     <g id="text_3">
      <!-- 400 -->
      <g transform="translate(190.872298 322.161969) scale(0.11 -0.11)">
       <defs>
        <path id="AndaleMono-34" d="M 3353 1019 
L 2809 1019 
L 2809 0 
L 2297 0 
L 2297 1019 
L 378 1019 
L 378 1409 
L 2119 4409 
L 2809 4409 
L 2809 1466 
L 3353 1466 
L 3353 1019 
z
M 2297 1466 
L 2297 3903 
L 897 1466 
L 2297 1466 
z
" transform="scale(0.015625)"/>
       </defs>
       <use xlink:href="#AndaleMono-34"/>
       <use xlink:href="#AndaleMono-30" x="60.009766"/>
       <use xlink:href="#AndaleMono-30" x="120.019531"/>
      </g>
     </g>
    </g>
    <g id="xtick_4">
     <g id="line2d_4">
      <g>
       <use xlink:href="#mfe013e16b6" x="264.24595" y="307.584" style="stroke: #000000; stroke-width: 0.8"/>
      </g>
     </g>
     <g id="text_4">
      <!-- 600 -->
      <g transform="translate(254.343372 322.161969) scale(0.11 -0.11)">
       <defs>
        <path id="AndaleMono-36" d="M 1131 2297 
Q 1544 2631 2028 2631 
Q 2588 2631 2961 2273 
Q 3334 1916 3334 1350 
Q 3334 728 3003 322 
Q 2672 -84 2119 -84 
Q 1413 -84 1000 564 
Q 588 1213 588 2150 
Q 588 3150 1017 3822 
Q 1447 4494 2194 4494 
Q 2709 4494 3084 4341 
L 3003 3884 
Q 2569 4044 2209 4044 
Q 1700 4044 1415 3556 
Q 1131 3069 1131 2297 
z
M 1147 1856 
Q 1147 1291 1412 828 
Q 1678 366 2081 366 
Q 2422 366 2606 616 
Q 2791 866 2791 1306 
Q 2791 1713 2587 1947 
Q 2384 2181 2016 2181 
Q 1538 2181 1147 1856 
z
" transform="scale(0.015625)"/>
       </defs>
       <use xlink:href="#AndaleMono-36"/>
       <use xlink:href="#AndaleMono-30" x="60.009766"/>
       <use xlink:href="#AndaleMono-30" x="120.019531"/>
      </g>
     </g>
    </g>
    <g id="xtick_5">
     <g id="line2d_5">
      <g>
       <use xlink:href="#mfe013e16b6" x="327.717025" y="307.584" style="stroke: #000000; stroke-width: 0.8"/>
      </g>
     </g>
     <g id="text_5">
      <!-- 800 -->
      <g transform="translate(317.814447 322.161969) scale(0.11 -0.11)">
       <defs>
        <path id="AndaleMono-38" d="M 2363 2419 
Q 2813 2288 3061 1972 
Q 3309 1656 3309 1234 
Q 3309 628 2907 272 
Q 2506 -84 1919 -84 
Q 1303 -84 908 275 
Q 513 634 513 1228 
Q 513 1647 769 1965 
Q 1025 2284 1484 2419 
Q 1119 2513 898 2780 
Q 678 3047 678 3378 
Q 678 3803 1015 4148 
Q 1353 4494 1906 4494 
Q 2453 4494 2811 4150 
Q 3169 3806 3169 3378 
Q 3169 3056 2944 2786 
Q 2719 2516 2363 2419 
z
M 1906 2631 
Q 1922 2631 2056 2668 
Q 2191 2706 2286 2761 
Q 2381 2816 2462 2900 
Q 2544 2984 2594 3098 
Q 2644 3213 2644 3353 
Q 2644 3653 2428 3851 
Q 2213 4050 1906 4050 
Q 1609 4050 1396 3847 
Q 1184 3644 1184 3353 
Q 1184 3169 1261 3031 
Q 1338 2894 1452 2809 
Q 1566 2725 1714 2678 
Q 1863 2631 1906 2631 
z
M 1906 2194 
Q 1050 1944 1050 1253 
Q 1050 850 1309 608 
Q 1569 366 1919 366 
Q 2281 366 2529 605 
Q 2778 844 2778 1253 
Q 2778 1563 2606 1808 
Q 2434 2053 1906 2194 
z
" transform="scale(0.015625)"/>
       </defs>
       <use xlink:href="#AndaleMono-38"/>
       <use xlink:href="#AndaleMono-30" x="60.009766"/>
       <use xlink:href="#AndaleMono-30" x="120.019531"/>
      </g>
     </g>
    </g>
    <g id="xtick_6">
     <g id="line2d_6">
      <g>
       <use xlink:href="#mfe013e16b6" x="391.188099" y="307.584" style="stroke: #000000; stroke-width: 0.8"/>
      </g>
     </g>
     <g id="text_6">
      <!-- 1000 -->
      <g transform="translate(377.984662 322.161969) scale(0.11 -0.11)">
       <defs>
        <path id="AndaleMono-31" d="M 3181 0 
L 863 0 
L 863 447 
L 1797 447 
L 1797 3872 
L 916 3431 
L 916 3944 
L 1869 4434 
L 2309 4434 
L 2309 447 
L 3181 447 
L 3181 0 
z
" transform="scale(0.015625)"/>
       </defs>
       <use xlink:href="#AndaleMono-31"/>
       <use xlink:href="#AndaleMono-30" x="60.009766"/>
       <use xlink:href="#AndaleMono-30" x="120.019531"/>
       <use xlink:href="#AndaleMono-30" x="180.029297"/>
      </g>
     </g>
    </g>
   </g>
   <g id="matplotlib.axis_2">
    <g id="ytick_1">
     <g id="line2d_7">
      <defs>
       <path id="me7e4e34d52" d="M 0 0 
L -3.5 0 
" style="stroke: #000000; stroke-width: 0.8"/>
      </defs>
      <g>
       <use xlink:href="#me7e4e34d52" x="57.6" y="295.488" style="stroke: #000000; stroke-width: 0.8"/>
      </g>
     </g>
     <g id="text_7">
      <!-- 1.00 -->
      <g transform="translate(17.591406 299.276984) scale(0.11 -0.11)">
       <defs>
        <path id="AndaleMono-2212" d="M 3397 2047 
L 441 2047 
L 441 2456 
L 3397 2456 
L 3397 2047 
z
" transform="scale(0.015625)"/>
        <path id="AndaleMono-2e" d="M 1900 716 
Q 2066 716 2178 603 
Q 2291 491 2291 325 
Q 2291 156 2177 36 
Q 2063 -84 1900 -84 
Q 1741 -84 1628 36 
Q 1516 156 1516 325 
Q 1516 494 1627 605 
Q 1738 716 1900 716 
z
" transform="scale(0.015625)"/>
       </defs>
       <use xlink:href="#AndaleMono-2212"/>
       <use xlink:href="#AndaleMono-31" x="60.009766"/>
       <use xlink:href="#AndaleMono-2e" x="120.019531"/>
       <use xlink:href="#AndaleMono-30" x="180.029297"/>
       <use xlink:href="#AndaleMono-30" x="240.039062"/>
      </g>
     </g>
    </g>
    <g id="ytick_2">
     <g id="line2d_8">
      <g>
       <use xlink:href="#me7e4e34d52" x="57.6" y="265.248" style="stroke: #000000; stroke-width: 0.8"/>
      </g>
     </g>
     <g id="text_8">
      <!-- 0.75 -->
      <g transform="translate(17.591406 269.036984) scale(0.11 -0.11)">
       <defs>
        <path id="AndaleMono-37" d="M 3238 4044 
L 1491 0 
L 966 0 
L 2688 3963 
L 622 3963 
L 622 4409 
L 3238 4409 
L 3238 4044 
z
" transform="scale(0.015625)"/>
        <path id="AndaleMono-35" d="M 1356 2631 
Q 1569 2688 1772 2688 
Q 2397 2688 2759 2305 
Q 3122 1922 3122 1350 
Q 3122 750 2700 333 
Q 2278 -84 1672 -84 
Q 1094 -84 703 109 
L 806 544 
Q 1231 366 1684 366 
Q 2088 366 2336 625 
Q 2584 884 2584 1350 
Q 2584 1791 2350 2028 
Q 2116 2266 1747 2266 
Q 1478 2266 1216 2163 
L 909 2303 
L 909 4409 
L 2925 4409 
L 2925 3963 
L 1356 3963 
L 1356 2631 
z
" transform="scale(0.015625)"/>
       </defs>
       <use xlink:href="#AndaleMono-2212"/>
       <use xlink:href="#AndaleMono-30" x="60.009766"/>
       <use xlink:href="#AndaleMono-2e" x="120.019531"/>
       <use xlink:href="#AndaleMono-37" x="180.029297"/>
       <use xlink:href="#AndaleMono-35" x="240.039062"/>
      </g>
     </g>
    </g>
    <g id="ytick_3">
     <g id="line2d_9">
      <g>
       <use xlink:href="#me7e4e34d52" x="57.6" y="235.008" style="stroke: #000000; stroke-width: 0.8"/>
      </g>
     </g>
     <g id="text_9">
      <!-- 0.50 -->
      <g transform="translate(17.591406 238.796984) scale(0.11 -0.11)">
       <use xlink:href="#AndaleMono-2212"/>
       <use xlink:href="#AndaleMono-30" x="60.009766"/>
       <use xlink:href="#AndaleMono-2e" x="120.019531"/>
       <use xlink:href="#AndaleMono-35" x="180.029297"/>
       <use xlink:href="#AndaleMono-30" x="240.039062"/>
      </g>
     </g>
    </g>
    <g id="ytick_4">
     <g id="line2d_10">
      <g>
       <use xlink:href="#me7e4e34d52" x="57.6" y="204.768" style="stroke: #000000; stroke-width: 0.8"/>
      </g>
     </g>
     <g id="text_10">
      <!-- 0.25 -->
      <g transform="translate(17.591406 208.556984) scale(0.11 -0.11)">
       <use xlink:href="#AndaleMono-2212"/>
       <use xlink:href="#AndaleMono-30" x="60.009766"/>
       <use xlink:href="#AndaleMono-2e" x="120.019531"/>
       <use xlink:href="#AndaleMono-32" x="180.029297"/>
       <use xlink:href="#AndaleMono-35" x="240.039062"/>
      </g>
     </g>
    </g>
    <g id="ytick_5">
     <g id="line2d_11">
      <g>
       <use xlink:href="#me7e4e34d52" x="57.6" y="174.528" style="stroke: #000000; stroke-width: 0.8"/>
      </g>
     </g>
     <g id="text_11">
      <!-- 0.00 -->
      <g transform="translate(24.193125 178.316984) scale(0.11 -0.11)">
       <use xlink:href="#AndaleMono-30"/>
       <use xlink:href="#AndaleMono-2e" x="60.009766"/>
       <use xlink:href="#AndaleMono-30" x="120.019531"/>
       <use xlink:href="#AndaleMono-30" x="180.029297"/>
      </g>
     </g>
    </g>
    <g id="ytick_6">
     <g id="line2d_12">
      <g>
       <use xlink:href="#me7e4e34d52" x="57.6" y="144.288" style="stroke: #000000; stroke-width: 0.8"/>
      </g>
     </g>
     <g id="text_12">
      <!-- 0.25 -->
      <g transform="translate(24.193125 148.076984) scale(0.11 -0.11)">
       <use xlink:href="#AndaleMono-30"/>
       <use xlink:href="#AndaleMono-2e" x="60.009766"/>
       <use xlink:href="#AndaleMono-32" x="120.019531"/>
       <use xlink:href="#AndaleMono-35" x="180.029297"/>
      </g>
     </g>
    </g>
    <g id="ytick_7">
     <g id="line2d_13">
      <g>
       <use xlink:href="#me7e4e34d52" x="57.6" y="114.048" style="stroke: #000000; stroke-width: 0.8"/>
      </g>
     </g>
     <g id="text_13">
      <!-- 0.50 -->
      <g transform="translate(24.193125 117.836984) scale(0.11 -0.11)">
       <use xlink:href="#AndaleMono-30"/>
       <use xlink:href="#AndaleMono-2e" x="60.009766"/>
       <use xlink:href="#AndaleMono-35" x="120.019531"/>
       <use xlink:href="#AndaleMono-30" x="180.029297"/>
      </g>
     </g>
    </g>
    <g id="ytick_8">
     <g id="line2d_14">
      <g>
       <use xlink:href="#me7e4e34d52" x="57.6" y="83.808" style="stroke: #000000; stroke-width: 0.8"/>
      </g>
     </g>
     <g id="text_14">
      <!-- 0.75 -->
      <g transform="translate(24.193125 87.596984) scale(0.11 -0.11)">
       <use xlink:href="#AndaleMono-30"/>
       <use xlink:href="#AndaleMono-2e" x="60.009766"/>
       <use xlink:href="#AndaleMono-37" x="120.019531"/>
       <use xlink:href="#AndaleMono-35" x="180.029297"/>
      </g>
     </g>
    </g>
    <g id="ytick_9">
     <g id="line2d_15">
      <g>
       <use xlink:href="#me7e4e34d52" x="57.6" y="53.568" style="stroke: #000000; stroke-width: 0.8"/>
      </g>
     </g>
     <g id="text_15">
      <!-- 1.00 -->
      <g transform="translate(24.193125 57.356984) scale(0.11 -0.11)">
       <use xlink:href="#AndaleMono-31"/>
       <use xlink:href="#AndaleMono-2e" x="60.009766"/>
       <use xlink:href="#AndaleMono-30" x="120.019531"/>
       <use xlink:href="#AndaleMono-30" x="180.029297"/>
      </g>
     </g>
    </g>
   </g>
   <g id="line2d_16">
    <path d="M 73.832727 174.528 
L 74.150083 174.089976 
L 78.275702 174.049337 
L 80.814545 173.981617 
L 82.718678 173.719121 
L 85.257521 173.089037 
L 87.479008 172.32169 
L 94.143471 169.8204 
L 96.047603 169.443381 
L 100.807934 168.947583 
L 102.394711 168.992971 
L 104.298843 169.274611 
L 106.202975 169.788343 
L 108.741818 170.734086 
L 113.502149 172.570988 
L 115.406281 173.051282 
L 117.310413 173.287008 
L 120.801322 173.501994 
L 128.100496 173.808803 
L 129.052562 174.415614 
L 130.639339 175.265428 
L 131.27405 175.424119 
L 131.90876 175.3117 
L 132.543471 175.002785 
L 133.178182 174.471451 
L 133.812893 173.654101 
L 134.764959 172.007386 
L 136.03438 169.202024 
L 137.303802 165.779009 
L 138.573223 161.675421 
L 140.16 155.613948 
L 142.698843 144.77164 
L 144.920331 135.601584 
L 146.189752 131.246551 
L 147.141818 128.701185 
L 150.950083 120.811196 
L 151.584793 119.796382 
L 152.219504 119.232406 
L 152.854215 118.912025 
L 153.488926 118.884428 
L 154.123636 119.283597 
L 154.758347 119.88367 
L 155.393058 120.706366 
L 156.027769 121.637389 
L 156.979835 122.982639 
L 157.614545 124.061425 
L 160.470744 129.164967 
L 161.740165 130.870258 
L 163.009587 132.185151 
L 163.961653 132.840872 
L 164.596364 133.090414 
L 165.231074 133.112115 
L 166.18314 132.807575 
L 166.817851 132.309323 
L 167.769917 131.076571 
L 169.356694 128.577119 
L 172.212893 124.795119 
L 173.482314 122.86684 
L 174.117025 121.879955 
L 177.290579 116.438133 
L 177.607934 116.035302 
L 180.146777 111.095818 
L 182.368264 106.088771 
L 187.128595 94.339745 
L 189.350083 89.546988 
L 191.888926 83.171895 
L 193.158347 80.168108 
L 194.427769 76.593641 
L 196.014545 72.233216 
L 200.140165 62.916535 
L 200.774876 61.962179 
L 201.409587 61.423451 
L 202.044298 61.126292 
L 202.679008 60.996754 
L 203.313719 61.278758 
L 204.265785 61.811493 
L 205.535207 62.663397 
L 207.439339 64.339686 
L 208.391405 64.552055 
L 208.70876 64.594403 
L 209.343471 64.321512 
L 209.978182 64.067279 
L 210.612893 63.877864 
L 211.247603 63.549535 
L 212.199669 62.067169 
L 214.103802 58.892879 
L 215.055868 57.851089 
L 216.642645 56.310965 
L 218.546777 53.754876 
L 218.864132 53.58663 
L 219.498843 53.616404 
L 220.133554 53.906879 
L 220.768264 54.62284 
L 222.037686 56.559054 
L 222.672397 57.985687 
L 224.259174 62.884425 
L 225.21124 67.255992 
L 226.798017 76.001275 
L 227.750083 82.066672 
L 229.019504 92.221563 
L 230.288926 104.079258 
L 231.875702 120.703524 
L 233.779835 144.060017 
L 239.174876 213.080746 
L 240.761653 231.943375 
L 242.665785 251.163672 
L 243.935207 262.103122 
L 244.887273 269.183398 
L 246.156694 276.643018 
L 247.743471 284.845059 
L 248.378182 287.339586 
L 249.647603 291.070313 
L 250.282314 292.496946 
L 251.23438 293.971152 
L 251.869091 294.850038 
L 252.503802 295.312376 
L 253.138512 295.488 
L 253.455868 295.46937 
L 254.090579 295.027344 
L 255.042645 293.752127 
L 255.677355 292.745035 
L 256.312066 291.988759 
L 256.629421 291.811671 
L 258.216198 290.163121 
L 261.072397 285.506465 
L 262.024463 285.056785 
L 262.659174 284.89787 
L 263.61124 284.461597 
L 264.880661 284.716314 
L 265.515372 285.163997 
L 266.784793 286.392603 
L 268.37157 287.409037 
L 269.006281 287.777242 
L 269.640992 288.059246 
L 270.593058 287.815106 
L 271.227769 287.421463 
L 271.862479 286.670028 
L 273.131901 284.433316 
L 274.718678 280.573991 
L 275.670744 278.286621 
L 276.940165 275.163902 
L 278.209587 271.511642 
L 279.161653 268.887892 
L 280.113719 266.588919 
L 281.700496 262.863938 
L 283.287273 258.755863 
L 285.191405 254.716255 
L 286.778182 250.963244 
L 289.63438 243.762807 
L 291.221157 240.045229 
L 293.442645 235.312275 
L 294.712066 233.020698 
L 295.664132 231.717934 
L 296.616198 230.022261 
L 298.520331 226.622145 
L 299.789752 224.786602 
L 300.741818 223.310058 
L 302.963306 220.478881 
L 303.915372 219.074967 
L 304.867438 217.488915 
L 305.819504 216.456182 
L 306.454215 216.104525 
L 307.406281 215.929817 
L 308.040992 216.061617 
L 308.993058 216.618421 
L 309.945124 217.488956 
L 311.214545 218.981476 
L 312.483967 220.918421 
L 316.292231 227.418611 
L 318.196364 229.772403 
L 318.831074 230.171572 
L 319.465785 230.143975 
L 320.100496 229.823594 
L 320.735207 229.259618 
L 321.369917 228.244804 
L 322.639339 225.746723 
L 325.812893 218.732142 
L 326.764959 215.748235 
L 328.03438 210.985507 
L 330.255868 201.512751 
L 332.794711 190.927704 
L 334.381488 185.239121 
L 335.968264 180.639744 
L 337.237686 177.706756 
L 338.189752 175.88921 
L 339.141818 174.584549 
L 339.776529 174.053215 
L 340.41124 173.7443 
L 341.04595 173.631881 
L 341.680661 173.790572 
L 342.950083 174.44707 
L 344.53686 175.354409 
L 345.488926 175.393673 
L 351.518678 175.554006 
L 355.961653 175.859611 
L 357.54843 176.139101 
L 359.452562 176.695957 
L 362.30876 177.799478 
L 366.117025 179.267657 
L 368.021157 179.781389 
L 369.925289 180.063029 
L 371.829421 180.103985 
L 374.368264 179.874443 
L 377.859174 179.317414 
L 380.080661 178.634897 
L 383.57157 177.241337 
L 386.745124 176.060409 
L 388.966612 175.487354 
L 390.870744 175.149359 
L 393.092231 175.014586 
L 398.169917 174.978067 
L 398.487273 174.528 
L 398.487273 174.528 
" clip-path="url(#p615800ff95)" style="fill: none; stroke: #87ceeb; stroke-opacity: 0.75; stroke-linecap: square"/>
   </g>
   <g id="patch_3">
    <path d="M 57.6 307.584 
L 57.6 41.472 
" style="fill: none; stroke: #000000; stroke-width: 0.8; stroke-linejoin: miter; stroke-linecap: square"/>
   </g>
   <g id="patch_4">
    <path d="M 414.72 307.584 
L 414.72 41.472 
" style="fill: none; stroke: #000000; stroke-width: 0.8; stroke-linejoin: miter; stroke-linecap: square"/>
   </g>
   <g id="patch_5">
    <path d="M 57.6 307.584 
L 414.72 307.584 
" style="fill: none; stroke: #000000; stroke-width: 0.8; stroke-linejoin: miter; stroke-linecap: square"/>
   </g>
   <g id="patch_6">
    <path d="M 57.6 41.472 
L 414.72 41.472 
" style="fill: none; stroke: #000000; stroke-width: 0.8; stroke-linejoin: miter; stroke-linecap: square"/>
   </g>
  </g>
 </g>
 <defs>
  <clipPath id="p615800ff95">
   <rect x="57.6" y="41.472" width="357.12" height="266.112"/>
  </clipPath>
 </defs>
</svg>
